<svg width="72.000000" height="72.000000" viewBox="0 0 72 72" fill="none" xmlns="http://www.w3.org/2000/svg" xmlns:xlink="http://www.w3.org/1999/xlink">
	<desc>
			Created with Pixso.
	</desc>
	<defs>
		<clipPath id="clip117_308">
			<rect id="1#华为云Flexus云服务-flexus" width="72.000000" height="72.000000" fill="white" fill-opacity="0"/>
		</clipPath>
	</defs>
	<g clip-path="url(#clip117_308)">
		<path id="矩形备份-15" d="M16 0L56 0C64.84 0 72 7.16 72 16L72 56C72 64.83 64.84 72 56 72L16 72C7.15 72 0 64.83 0 56L0 16C0 7.16 7.15 0 16 0Z" fill="#F85835" fill-opacity="1.000000" fill-rule="evenodd"/>
		<g opacity="0.600000">
			<path id="矩形-209" d="M33.54 24.4L47.72 33.19C45.46 36.83 40.68 37.96 37.04 35.7L22.85 26.9C25.11 23.25 29.9 22.14 33.54 24.4Z" fill="#FFFFFF" fill-opacity="1.000000" fill-rule="evenodd"/>
		</g>
		<path id="形状结合" d="M26.09 33.21L47.6 33.18C47.61 37.95 43.75 41.83 38.97 41.85L17.46 41.89C17.45 37.11 21.32 33.23 26.09 33.21ZM21.31 48.18L26.82 48.16C26.82 52.94 22.97 56.83 18.18 56.83L12.67 56.85C12.66 52.07 16.53 48.19 21.31 48.18ZM31.51 18.27L61.29 18.2C61.3 22.98 57.43 26.86 52.65 26.87L22.86 26.94C22.85 22.16 26.73 18.28 31.51 18.27Z" fill="#FFFFFF" fill-opacity="1.000000" fill-rule="evenodd"/>
	</g>
</svg>
