<svg width="72.000000" height="72.000000" viewBox="0 0 72 72" fill="none" xmlns="http://www.w3.org/2000/svg" xmlns:xlink="http://www.w3.org/1999/xlink">
	<desc>
			Created with Pixso.
	</desc>
	<defs>
		<clipPath id="clip117_300">
			<rect id="2#华为云Flexus云容器实例-Flexus-CCI" width="72.000000" height="72.000000" fill="white" fill-opacity="0"/>
		</clipPath>
	</defs>
	<g clip-path="url(#clip117_300)">
		<path id="矩形备份-15" d="M16 0L56 0C64.84 0 72 7.16 72 16L72 56C72 64.83 64.84 72 56 72L16 72C7.15 72 0 64.83 0 56L0 16C0 7.16 7.15 0 16 0Z" fill="#FF9A2E" fill-opacity="1.000000" fill-rule="evenodd"/>
		<path id="交集" d="M0 15.61L0 24C0.34 22.75 0.88 21.67 1.63 20.78C3.61 18.42 6.97 17.25 11.75 17.25C21.64 17.25 27.81 14 31.58 9.63C34.09 6.74 35.75 3.53 36.57 0L15.54 0C7.04 0.24 0.19 7.09 0 15.61Z" fill="#000000" fill-opacity="0.149020" fill-rule="evenodd"/>
		<path id="矩形-209" d="M15.51 5.45L18.68 7.53C18.17 8.39 17.11 8.66 16.29 8.13L13.12 6.05C13.63 5.19 14.7 4.91 15.51 5.45Z" fill="#FFFFFF" fill-opacity="0.600000" fill-rule="evenodd"/>
		<path id="形状结合" d="M35.11 19.01C36.14 19.01 37.08 19.28 37.93 19.7L45.26 23.99L46.18 23.07L45.41 22.29C45.19 22.08 45.19 21.73 45.41 21.5L47.45 19.46C47.67 19.25 48.02 19.25 48.24 19.46L50.29 21.51C50.51 21.74 50.51 22.08 50.29 22.3L48.25 24.34C48.03 24.57 47.68 24.57 47.46 24.34L46.71 23.59L45.93 24.37L49.48 26.45C50.96 27.28 52.12 29.3 52.21 31.07L52.22 31.29L52.22 44.79C52.22 46.62 51.02 48.69 49.48 49.63L37.93 56.38C37.07 56.82 36.13 57.08 35.11 57.08C34.08 57.08 33.06 56.82 32.29 56.38L20.74 49.63C19.2 48.69 18 46.61 18 44.79L18 31.29C18 29.48 19.2 27.32 20.74 26.46L32.29 19.7C33.14 19.28 34.08 19.01 35.11 19.01ZM26.83 33.9L26.83 42.41C26.83 42.69 26.97 42.92 27.2 43.07L34.54 47.33L34.54 38.37L26.83 33.9ZM43.38 34.13L35.67 38.37L35.67 47.32L43.01 43.05C43.24 42.92 43.38 42.67 43.38 42.41L43.38 34.13ZM44.08 23.62C43.86 23.41 43.51 23.41 43.29 23.62L41.25 25.66C41.03 25.88 41.03 26.24 41.25 26.46L43.3 28.5C43.52 28.73 43.87 28.73 44.09 28.5L44.78 27.82L46.06 29.09L45.37 29.79C45.15 30 45.15 30.36 45.37 30.58L45.91 31.12L43 33.03L35.48 28.66C35.25 28.54 34.96 28.54 34.73 28.66L27.39 32.92L35.11 37.41L43 33.03L43.38 34.13L46.71 31.94L47.41 32.63C47.63 32.86 47.98 32.86 48.2 32.63L50.24 30.59C50.46 30.37 50.46 30.03 50.24 29.8L48.19 27.75C47.97 27.54 47.62 27.54 47.4 27.75L46.58 28.58L45.3 27.29L46.12 26.48C46.34 26.25 46.34 25.91 46.12 25.69L45.37 24.94L45.93 24.37L45.26 23.99L44.85 24.4L44.08 23.62ZM47.8 28.94L49.06 30.2L47.81 31.45L46.55 30.19L47.8 28.94ZM52.23 24.25L53.75 25.76C53.9 25.91 53.9 26.15 53.75 26.29L52.24 27.8C52.09 27.96 51.86 27.96 51.71 27.8L50.19 26.29C50.04 26.13 50.04 25.91 50.19 25.75L51.7 24.25C51.85 24.09 52.08 24.09 52.23 24.25ZM43.69 24.82L44.95 26.08L43.7 27.33L42.44 26.07L43.69 24.82ZM47.85 20.66L46.6 21.91L47.86 23.16L49.11 21.91L47.85 20.66ZM14.01 11.08C14.01 12.21 13.15 13.12 12.08 13.12L10.85 13.13C10.85 12 11.71 11.08 12.78 11.08L14.01 11.08ZM18.65 7.54C18.66 8.66 17.79 9.58 16.73 9.58L11.92 9.59C11.92 8.46 12.78 7.54 13.85 7.54L18.65 7.54ZM21.71 4C21.71 5.12 20.85 6.03 19.78 6.04L13.13 6.05C13.13 4.91 13.99 4 15.06 4L21.71 4Z" fill="#FFFFFF" fill-opacity="1.000000" fill-rule="evenodd"/>
	</g>
</svg>
