<svg width="72.000000" height="72.000000" viewBox="0 0 72 72" fill="none" xmlns="http://www.w3.org/2000/svg" xmlns:xlink="http://www.w3.org/1999/xlink">
	<desc>
			Created with Pixso.
	</desc>
	<defs>
		<clipPath id="clip117_301">
			<rect id="3#华为云Flexus应用服务器L实例-flexus-l" width="72.000000" height="72.000000" fill="white" fill-opacity="0"/>
		</clipPath>
	</defs>
	<g clip-path="url(#clip117_301)">
		<path id="path-7" d="M16 0L56 0C64.84 0 72 7.16 72 16L72 56C72 64.83 64.84 72 56 72L16 72C7.15 72 0 64.83 0 56L0 16C0 7.16 7.15 0 16 0Z" fill="#F85835" fill-opacity="1.000000" fill-rule="nonzero"/>
		<path id="交集" d="M0 15.61L0 24C0.34 22.75 0.88 21.67 1.63 20.78C3.61 18.42 6.97 17.25 11.75 17.25C21.64 17.25 27.81 14 31.58 9.63C34.09 6.74 35.75 3.53 36.57 0L15.54 0C7.04 0.24 0.19 7.09 0 15.61Z" fill="#000000" fill-opacity="0.149020" fill-rule="evenodd"/>
		<path id="矩形-209" d="M15.51 5.45L18.68 7.53C18.17 8.39 17.11 8.66 16.29 8.13L13.12 6.05C13.63 5.19 14.7 4.91 15.51 5.45Z" fill="#FFFFFF" fill-opacity="0.600000" fill-rule="evenodd"/>
		<path id="形状结合" d="M36.49 18C42.18 18 47 21.91 48.63 27.33C55.02 28.04 60 33.71 60 40.62C60 47.9 54.46 53.82 47.56 53.99L47.26 54L24 54C17.31 53.59 12 47.75 12 40.62C12 33.37 17.5 27.46 24.36 27.25C26.01 21.87 30.82 18 36.49 18ZM45.36 33.83L26.64 33.83C23.06 33.83 20.16 36.74 20.16 40.32C20.16 43.88 23.06 46.79 26.64 46.79L45.36 46.79C48.93 46.79 51.84 43.88 51.84 40.32C51.84 36.74 48.93 33.83 45.36 33.83ZM36 37.44C37.34 37.44 38.47 38.36 38.79 39.59L42.57 39.59C42.89 38.36 44.02 37.44 45.36 37.44C46.95 37.44 48.24 38.73 48.24 40.32C48.24 41.91 46.95 43.2 45.36 43.2C44.02 43.2 42.89 42.28 42.57 41.04L38.79 41.04C38.47 42.28 37.34 43.2 36 43.2C34.66 43.2 33.53 42.28 33.21 41.04L29.43 41.04C29.11 42.28 27.98 43.2 26.64 43.2C25.05 43.2 23.76 41.91 23.76 40.32C23.76 38.73 25.05 37.44 26.64 37.44C27.98 37.44 29.11 38.36 29.43 39.59L33.21 39.59C33.53 38.36 34.66 37.44 36 37.44ZM45.36 38.87C44.56 38.87 43.92 39.51 43.92 40.32C43.92 41.12 44.56 41.75 45.36 41.75C46.16 41.75 46.8 41.12 46.8 40.32C46.8 39.51 46.16 38.87 45.36 38.87ZM26.64 38.87C25.84 38.87 25.2 39.51 25.2 40.32C25.2 41.12 25.84 41.75 26.64 41.75C27.44 41.75 28.08 41.12 28.08 40.32C28.08 39.51 27.44 38.87 26.64 38.87ZM14.01 11.08C14.01 12.21 13.15 13.12 12.08 13.12L10.85 13.13C10.85 12 11.71 11.08 12.78 11.08L14.01 11.08ZM18.65 7.54C18.66 8.66 17.79 9.58 16.73 9.58L11.92 9.59C11.92 8.46 12.78 7.54 13.85 7.54L18.65 7.54ZM21.71 4C21.71 5.12 20.85 6.03 19.78 6.04L13.13 6.05C13.13 4.91 13.99 4 15.06 4L21.71 4Z" fill="#FFFFFF" fill-opacity="1.000000" fill-rule="evenodd"/>
	</g>
</svg>
