<svg width="72.000000" height="72.000000" viewBox="0 0 72 72" fill="none" xmlns="http://www.w3.org/2000/svg" xmlns:xlink="http://www.w3.org/1999/xlink">
	<desc>
			Created with Pixso.
	</desc>
	<defs>
		<clipPath id="clip117_302">
			<rect id="4#华为云Flexus云数据库RDS-flexus-rds" width="72.000000" height="72.000000" fill="white" fill-opacity="0"/>
		</clipPath>
	</defs>
	<g clip-path="url(#clip117_302)">
		<path id="矩形备份-11" d="M16 0L56 0C64.84 0 72 7.16 72 16L72 56C72 64.83 64.84 72 56 72L16 72C7.15 72 0 64.83 0 56L0 16C0 7.16 7.15 0 16 0Z" fill="#9F53E6" fill-opacity="1.000000" fill-rule="evenodd"/>
		<path id="交集" d="M0 15.61L0 24C0.34 22.75 0.88 21.67 1.63 20.78C3.61 18.42 6.97 17.25 11.75 17.25C21.64 17.25 27.81 14 31.58 9.63C34.09 6.74 35.75 3.53 36.57 0L15.54 0C7.04 0.24 0.19 7.09 0 15.61Z" fill="#000000" fill-opacity="0.149020" fill-rule="evenodd"/>
		<path id="矩形-209" d="M15.51 5.45L18.68 7.53C18.17 8.39 17.11 8.66 16.29 8.13L13.12 6.05C13.63 5.19 14.7 4.91 15.51 5.45Z" fill="#FFFFFF" fill-opacity="0.600000" fill-rule="evenodd"/>
		<path id="形状结合" d="M13.85 7.54L18.65 7.54C18.66 8.66 17.79 9.58 16.73 9.58L11.92 9.59C11.92 8.46 12.78 7.54 13.85 7.54ZM12.78 11.08L14.01 11.08C14.01 12.21 13.15 13.12 12.08 13.12L10.85 13.13C10.85 12 11.71 11.08 12.78 11.08ZM15.06 4L21.71 4C21.71 5.12 20.85 6.03 19.78 6.04L13.13 6.05C13.13 4.91 13.99 4 15.06 4ZM46.28 33.46L51.88 36.66C53.07 37.34 54 38.96 54 40.33L54 46.79C54 48.16 53.07 49.78 51.88 50.46L46.64 53.46C46.04 53.82 45.28 53.99 44.53 53.99C43.78 53.99 43.02 53.82 42.41 53.46L36.82 50.25L36.82 40.75C37.77 40.41 38.46 39.5 38.46 38.45C38.46 38.29 38.45 38.15 38.42 38L46.28 33.46ZM25.71 33.46L33.59 38C33.56 38.16 33.55 38.3 33.55 38.46C33.55 39.53 34.23 40.44 35.19 40.76L35.19 50.25L29.6 53.46C29.06 53.78 28.41 53.95 27.74 53.98L27.49 53.99C26.73 53.99 25.98 53.82 25.37 53.46L20.13 50.46C18.94 49.78 18.01 48.16 18.01 46.79L18.01 40.33C18.01 38.96 18.94 37.34 20.13 36.66L25.71 33.46ZM33.88 18.51C35.09 17.83 36.9 17.83 38.11 18.51L43.35 21.53C44.54 22.21 45.47 23.83 45.47 25.2L45.47 32.04L37.6 36.58C37.17 36.21 36.61 36 36 36C35.39 36 34.83 36.21 34.41 36.58L26.52 32.04L26.52 25.2C26.52 23.88 27.37 22.36 28.47 21.62L28.64 21.53L33.88 18.51Z" fill="#FFFFFF" fill-opacity="1.000000" fill-rule="evenodd"/>
	</g>
</svg>
