<svg width="72.000000" height="72.000000" viewBox="0 0 72 72" fill="none" xmlns="http://www.w3.org/2000/svg" xmlns:xlink="http://www.w3.org/1999/xlink">
	<desc>
			Created with Pixso.
	</desc>
	<defs>
		<clipPath id="clip117_303">
			<rect id="5#华为云Flexus云服务器X实例-flexus-x" width="72.000000" height="72.000000" fill="white" fill-opacity="0"/>
		</clipPath>
	</defs>
	<g clip-path="url(#clip117_303)">
		<path id="path-7" d="M16 0L56 0C64.84 0 72 7.16 72 16L72 56C72 64.83 64.84 72 56 72L16 72C7.15 72 0 64.83 0 56L0 16C0 7.16 7.15 0 16 0Z" fill="#F85835" fill-opacity="1.000000" fill-rule="nonzero"/>
		<path id="交集" d="M0 15.61L0 24C0.34 22.75 0.88 21.67 1.63 20.78C3.61 18.42 6.97 17.25 11.75 17.25C21.64 17.25 27.81 14 31.58 9.63C34.09 6.74 35.75 3.53 36.57 0L15.54 0C7.04 0.24 0.19 7.09 0 15.61Z" fill="#000000" fill-opacity="0.149020" fill-rule="evenodd"/>
		<path id="矩形-209" d="M15.51 5.45L18.68 7.53C18.17 8.39 17.11 8.66 16.29 8.13L13.12 6.05C13.63 5.19 14.7 4.91 15.51 5.45Z" fill="#FFFFFF" fill-opacity="0.600000" fill-rule="evenodd"/>
		<path id="形状结合" d="M36.49 18C42.18 18 47 21.91 48.63 27.33C55.02 28.04 60 33.73 60 40.62C60 47.91 54.46 53.83 47.57 54L47.27 54L24.01 54C17.31 53.59 12 47.75 12 40.62C12 33.37 17.5 27.46 24.37 27.25C26.02 21.88 30.82 18 36.49 18ZM22.93 46.5C22.36 46.54 21.84 47.01 21.83 47.59C21.83 48.21 22.31 48.7 22.92 48.7L49.21 48.8C49.78 48.76 50.3 48.29 50.31 47.71C50.31 47.11 49.83 46.62 49.22 46.62L22.93 46.5ZM47.25 33.66L24.86 33.66C22.14 33.66 19.93 35.87 19.93 38.59C19.93 41.32 22.14 43.53 24.86 43.53L47.25 43.53C49.97 43.53 52.18 41.32 52.18 38.59C52.18 35.87 49.97 33.66 47.25 33.66ZM46.95 35.83C48.61 35.83 49.95 37.16 49.95 38.83C49.95 40.49 48.61 41.83 46.95 41.83C45.29 41.83 43.95 40.49 43.95 38.83C43.95 37.16 45.3 35.83 46.95 35.83ZM14.01 11.08C14.01 12.21 13.15 13.12 12.08 13.12L10.85 13.13C10.85 12 11.71 11.08 12.78 11.08L14.01 11.08ZM18.65 7.54C18.66 8.66 17.79 9.58 16.73 9.58L11.92 9.59C11.92 8.46 12.78 7.54 13.85 7.54L18.65 7.54ZM21.71 4C21.71 5.12 20.85 6.03 19.78 6.04L13.13 6.05C13.13 4.91 13.99 4 15.06 4L21.71 4Z" fill="#FFFFFF" fill-opacity="1.000000" fill-rule="evenodd"/>
	</g>
</svg>
