<svg width="72.000000" height="72.000000" viewBox="0 0 72 72" fill="none" xmlns="http://www.w3.org/2000/svg" xmlns:xlink="http://www.w3.org/1999/xlink">
	<desc>
			Created with Pixso.
	</desc>
	<defs>
		<clipPath id="clip117_304">
			<rect id="6#Flexus智能数据洞察-FlexusInsight" width="72.000000" height="72.000000" fill="white" fill-opacity="0"/>
		</clipPath>
	</defs>
	<g clip-path="url(#clip117_304)">
		<path id="path-7" d="M16 0L56 0C64.84 0 72 7.16 72 16L72 56C72 64.83 64.84 72 56 72L16 72C7.15 72 0 64.83 0 56L0 16C0 7.16 7.15 0 16 0Z" fill="#F85835" fill-opacity="1.000000" fill-rule="nonzero"/>
		<path id="交集" d="M0 15.61L0 24C0.34 22.75 0.88 21.67 1.63 20.78C3.61 18.42 6.97 17.25 11.75 17.25C21.64 17.25 27.81 14 31.58 9.63C34.09 6.74 35.75 3.53 36.57 0L15.54 0C7.04 0.24 0.19 7.09 0 15.61Z" fill="#000000" fill-opacity="0.149020" fill-rule="evenodd"/>
		<path id="矩形-209" d="M15.51 5.45L18.68 7.53C18.17 8.39 17.11 8.66 16.29 8.13L13.12 6.05C13.63 5.19 14.7 4.91 15.51 5.45Z" fill="#FFFFFF" fill-opacity="0.600000" fill-rule="evenodd"/>
		<path id="形状结合" d="M42.77 21.59C45.26 21.59 47.28 23.61 47.28 26.08C47.28 28.54 45.26 30.55 42.77 30.55C40.28 30.55 38.25 28.54 38.25 26.08C38.25 23.61 40.28 21.59 42.77 21.59ZM15.23 21.59L20.57 21.59C20.88 21.59 21.15 21.82 21.2 22.12C22.35 28.37 23.04 33.01 23.27 36.01C23.49 39 23.5 43.58 23.29 49.76C23.28 50.12 22.99 50.38 22.65 50.38L15.23 50.38C14.94 50.38 14.84 50.36 14.73 50.29C14.62 50.24 14.54 50.16 14.49 50.05C14.43 49.96 14.4 49.84 14.4 49.57L14.4 22.41C14.4 22.12 14.43 22.03 14.49 21.92C14.55 21.83 14.63 21.74 14.73 21.69C14.84 21.62 14.94 21.59 15.23 21.59ZM35.21 21.59L26.04 21.59C25.68 21.62 25.37 21.91 25.39 22.28C25.72 27.71 26.02 32.29 26.27 36.03C26.52 39.78 26.84 44.37 27.24 49.8C27.26 50.15 27.54 50.41 27.88 50.41L35.2 50.41C35.49 50.41 35.59 50.37 35.7 50.32C35.8 50.25 35.89 50.17 35.94 50.08C36 49.98 36.03 49.87 36.03 49.58L36.03 22.41C36.03 22.12 36 22.03 35.94 21.92C35.88 21.83 35.8 21.74 35.7 21.69C35.6 21.62 35.5 21.59 35.21 21.59ZM56.77 21.59L50.63 21.59C50.31 21.59 50.04 21.83 49.99 22.15C49.35 26.46 48.9 30.54 48.64 34.38C48.38 38.24 47.77 43.33 46.79 49.66C46.79 50.01 47.07 50.4 47.42 50.4L56.75 50.4C57.04 50.4 57.14 50.37 57.25 50.3C57.35 50.25 57.44 50.16 57.49 50.07C57.55 49.96 57.58 49.86 57.58 49.58L57.58 22.41C57.58 22.12 57.55 22.03 57.49 21.92C57.43 21.83 57.35 21.74 57.25 21.69C57.16 21.62 57.06 21.59 56.77 21.59ZM13.85 7.54L18.65 7.54C18.66 8.66 17.79 9.58 16.73 9.58L11.92 9.59C11.92 8.46 12.78 7.54 13.85 7.54ZM12.78 11.08L14.01 11.08C14.01 12.21 13.15 13.12 12.08 13.12L10.85 13.13C10.85 12 11.71 11.08 12.78 11.08ZM15.06 4L21.71 4C21.71 5.12 20.85 6.03 19.78 6.04L13.13 6.05C13.13 4.91 13.99 4 15.06 4Z" fill="#FFFFFF" fill-opacity="1.000000" fill-rule="evenodd"/>
	</g>
</svg>
