<svg width="72.000000" height="72.000000" viewBox="0 0 72 72" fill="none" xmlns="http://www.w3.org/2000/svg" xmlns:xlink="http://www.w3.org/1999/xlink">
	<desc>
			Created with Pixso.
	</desc>
	<defs>
		<clipPath id="clip117_305">
			<rect id="7#Flexus云会议-FlexusMeeting" width="72.000000" height="72.000000" fill="white" fill-opacity="0"/>
		</clipPath>
	</defs>
	<g clip-path="url(#clip117_305)">
		<path id="path-7" d="M16 0L56 0C64.84 0 72 7.16 72 16L72 56C72 64.83 64.84 72 56 72L16 72C7.15 72 0 64.83 0 56L0 16C0 7.16 7.15 0 16 0Z" fill="#1476FF" fill-opacity="1.000000" fill-rule="nonzero"/>
		<path id="交集" d="M0 15.61L0 24C0.34 22.75 0.88 21.67 1.63 20.78C3.61 18.42 6.97 17.25 11.75 17.25C21.64 17.25 27.81 14 31.58 9.63C34.09 6.74 35.75 3.53 36.57 0L15.54 0C7.04 0.24 0.19 7.09 0 15.61Z" fill="#000000" fill-opacity="0.149020" fill-rule="evenodd"/>
		<path id="矩形-209" d="M15.51 5.45L18.68 7.53C18.17 8.39 17.11 8.66 16.29 8.13L13.12 6.05C13.63 5.19 14.7 4.91 15.51 5.45Z" fill="#FFFFFF" fill-opacity="0.600000" fill-rule="evenodd"/>
		<path id="形状结合" d="M48.37 22.04C48.92 22.04 49.4 22.3 49.68 22.73C49.86 22.99 49.97 23.3 49.97 23.65L49.97 31.42L56.98 27.21C57.02 27.2 57.06 27.17 57.11 27.17C57.33 27.17 57.59 27.34 57.59 27.57L57.59 44.41C57.59 44.49 57.57 44.55 57.53 44.62C57.41 44.8 57.17 44.87 56.98 44.75L49.97 40.55L49.97 48.34C49.97 49.23 49.25 49.94 48.37 49.94L16 49.94C15.12 49.94 14.4 49.23 14.4 48.34L14.4 23.65C14.4 22.76 15.11 22.05 16 22.05L23.43 22.05C23.49 22.04 23.56 22.04 23.62 22.04L48.37 22.04ZM42.15 29.15L22.22 29.15C22.11 29.15 22.02 29.24 22.02 29.34L22.02 46.4L26.03 42.9C26.07 42.87 26.11 42.84 26.16 42.84L42.15 42.84C42.26 42.84 42.35 42.75 42.35 42.65L42.35 29.34C42.35 29.24 42.26 29.15 42.15 29.15ZM13.85 7.54L18.65 7.54C18.66 8.66 17.79 9.58 16.73 9.58L11.92 9.59C11.92 8.46 12.78 7.54 13.85 7.54ZM12.78 11.08L14.01 11.08C14.01 12.21 13.15 13.12 12.08 13.12L10.85 13.13C10.85 12 11.71 11.08 12.78 11.08ZM15.06 4L21.71 4C21.71 5.12 20.85 6.03 19.78 6.04L13.13 6.05C13.13 4.91 13.99 4 15.06 4Z" fill="#FFFFFF" fill-opacity="1.000000" fill-rule="evenodd"/>
	</g>
</svg>
