<svg width="72.000000" height="72.000000" viewBox="0 0 72 72" fill="none" xmlns="http://www.w3.org/2000/svg" xmlns:xlink="http://www.w3.org/1999/xlink">
	<desc>
			Created with Pixso.
	</desc>
	<defs>
		<clipPath id="clip117_306">
			<rect id="8#Flexus企业搜索服务-FlexusSearch" width="72.000000" height="72.000000" fill="white" fill-opacity="0"/>
		</clipPath>
	</defs>
	<g clip-path="url(#clip117_306)">
		<path id="path-7" d="M16 0L56 0C64.84 0 72 7.16 72 16L72 56C72 64.83 64.84 72 56 72L16 72C7.15 72 0 64.83 0 56L0 16C0 7.16 7.15 0 16 0Z" fill="#1476FF" fill-opacity="1.000000" fill-rule="nonzero"/>
		<path id="交集" d="M0 15.61L0 24C0.34 22.75 0.88 21.67 1.63 20.78C3.61 18.42 6.97 17.25 11.75 17.25C21.64 17.25 27.81 14 31.58 9.63C34.09 6.74 35.75 3.53 36.57 0L15.54 0C7.04 0.24 0.19 7.09 0 15.61Z" fill="#000000" fill-opacity="0.149020" fill-rule="evenodd"/>
		<path id="矩形-209" d="M15.51 5.45L18.68 7.53C18.17 8.39 17.11 8.66 16.29 8.13L13.12 6.05C13.63 5.19 14.7 4.91 15.51 5.45Z" fill="#FFFFFF" fill-opacity="0.600000" fill-rule="evenodd"/>
		<path id="形状结合" d="M46.78 36.04C51.3 36.04 54.89 39.63 54.89 44.15C54.89 46 54.31 47.62 53.27 49L53.39 49.12L56.86 52.59C57.32 53.05 57.32 53.75 56.86 54.21C56.63 54.45 56.28 54.57 56.05 54.57C55.82 54.57 55.47 54.46 55.24 54.21L51.77 50.75C51.65 50.75 51.65 50.62 51.65 50.62C50.26 51.66 48.64 52.25 46.79 52.25C42.27 52.25 38.68 48.66 38.68 44.15C38.67 39.62 42.26 36.04 46.78 36.04ZM36.02 18C41.14 18 45.47 21.53 46.94 26.38C52.68 27.03 57.16 32.13 57.16 38.33C57.16 39.83 56.9 41.28 56.42 42.61L56.27 43L56.24 42.73C55.67 37.86 51.59 34.15 46.55 34.15C41.11 34.15 36.79 38.46 36.79 43.91C36.79 46.4 37.69 48.65 39.2 50.36L24.8 50.36C18.78 50 14 44.75 14 38.33C14 31.82 18.95 26.5 25.12 26.32C26.6 21.5 30.92 18 36.02 18ZM46.78 38.26C43.53 38.26 40.89 40.9 40.89 44.16C40.89 47.41 43.52 50.04 46.78 50.04C50.03 50.04 52.67 47.41 52.67 44.16C52.67 40.9 50.03 38.26 46.78 38.26ZM13.85 7.54L18.65 7.54C18.66 8.66 17.79 9.58 16.73 9.58L11.92 9.59C11.92 8.46 12.78 7.54 13.85 7.54ZM12.78 11.08L14.01 11.08C14.01 12.21 13.15 13.12 12.08 13.12L10.85 13.13C10.85 12 11.71 11.08 12.78 11.08ZM15.06 4L21.71 4C21.71 5.12 20.85 6.03 19.78 6.04L13.13 6.05C13.13 4.91 13.99 4 15.06 4Z" fill="#FFFFFF" fill-opacity="1.000000" fill-rule="evenodd"/>
	</g>
</svg>
