<svg width="72.000000" height="72.000000" viewBox="0 0 72 72" fill="none" xmlns="http://www.w3.org/2000/svg" xmlns:xlink="http://www.w3.org/1999/xlink">
	<desc>
			Created with Pixso.
	</desc>
	<defs>
		<clipPath id="clip117_307">
			<rect id="9#Flexus数字人-FlexusMetastudio" width="72.000000" height="72.000000" fill="white" fill-opacity="0"/>
		</clipPath>
	</defs>
	<g clip-path="url(#clip117_307)">
		<path id="path-7" d="M16 0L56 0C64.84 0 72 7.16 72 16L72 56C72 64.83 64.84 72 56 72L16 72C7.15 72 0 64.83 0 56L0 16C0 7.16 7.15 0 16 0Z" fill="#1476FF" fill-opacity="1.000000" fill-rule="nonzero"/>
		<path id="交集" d="M0 15.61L0 24C0.34 22.75 0.88 21.67 1.63 20.78C3.61 18.42 6.97 17.25 11.75 17.25C21.64 17.25 27.81 14 31.58 9.63C34.09 6.74 35.75 3.53 36.57 0L15.54 0C7.04 0.24 0.19 7.09 0 15.61Z" fill="#000000" fill-opacity="0.149020" fill-rule="evenodd"/>
		<path id="矩形-209" d="M15.51 5.45L18.68 7.53C18.17 8.39 17.11 8.66 16.29 8.13L13.12 6.05C13.63 5.19 14.7 4.91 15.51 5.45Z" fill="#FFFFFF" fill-opacity="0.600000" fill-rule="evenodd"/>
		<path id="形状结合" d="M20.66 24.54C21.43 26.23 22.26 27.5 23.16 28.34C24.05 29.19 25 29.83 25.98 30.26C26.97 30.71 27.96 31.03 28.96 31.23C29.96 31.41 30.94 31.71 31.9 32.11C32.85 32.5 33.77 33.08 34.64 33.86C35.5 34.62 36.29 35.78 37 37.32C37.41 38.25 37.7 39.16 37.86 40.04C38.02 40.91 38.15 41.76 38.23 42.58C38.32 43.4 38.45 44.17 38.61 44.91C38.77 45.66 39.06 46.37 39.49 47.04C39.92 47.73 40.53 48.37 41.32 49C42.12 49.62 43.22 50.2 44.64 50.75C44.72 50.83 44.8 51 44.86 51.26C44.91 51.51 44.99 51.82 45.08 52.15C45.16 52.48 45.3 52.87 45.5 53.3C45.69 53.75 45.97 54.19 46.36 54.65C43.71 55.3 41.25 55.69 38.98 55.78C36.72 55.87 34.44 55.57 32.14 54.87C32.41 54.21 32.6 53.59 32.71 53.05C32.83 52.5 32.91 52 32.94 51.54C32.96 51.07 32.97 50.62 32.96 50.2C32.94 49.78 32.92 49.33 32.89 48.88C32.83 48 32.53 47.46 31.99 47.25C31.44 47.04 30.81 46.99 30.09 47.09C29.37 47.2 28.65 47.37 27.92 47.63C27.2 47.9 26.62 48.05 26.18 48.12C25.68 48.21 25.16 48.28 24.61 48.32C24.07 48.37 23.56 48.34 23.09 48.28C22.62 48.2 22.24 48.05 21.96 47.83C21.68 47.62 21.59 47.29 21.68 46.84C21.74 46.48 21.8 46.05 21.88 45.58C21.95 45.08 21.99 44.58 21.99 44.08C21.99 43.57 21.91 43.08 21.74 42.61C21.58 42.13 21.29 41.74 20.88 41.41C20.71 41.28 20.42 41.12 20.02 40.92C19.62 40.73 19.25 40.5 18.9 40.26C18.54 40.03 18.28 39.79 18.1 39.54C17.92 39.29 17.97 39.05 18.23 38.82C18.82 38.37 19.43 37.84 20.04 37.28C20.66 36.71 21.13 36.08 21.46 35.41C21.6 35.12 21.69 34.79 21.72 34.46C21.75 34.13 21.74 33.83 21.7 33.54C21.66 33.25 21.6 32.99 21.54 32.76C21.49 32.54 21.46 32.34 21.46 32.2C21.46 32.04 21.4 31.84 21.28 31.61C21.16 31.37 21.04 31.04 20.93 30.61C20.81 30.19 20.72 29.66 20.66 29.03C20.6 28.38 20.63 27.58 20.75 26.62C19.98 26.83 19.44 27.29 19.12 27.98C18.79 28.67 18.69 29.54 18.81 30.57C18.34 29.83 18.09 29.16 18.06 28.54C18.03 27.92 18.12 27.37 18.34 26.87C18.56 26.37 18.89 25.92 19.32 25.54C19.74 25.13 20.19 24.8 20.66 24.54ZM35.1 16.2C37.72 16.2 40.18 16.67 42.47 17.65C44.77 18.61 46.77 19.94 48.48 21.61C50.18 23.29 51.53 25.25 52.52 27.53C53.5 29.79 54 32.21 54 34.79C54 37.38 53.49 39.82 52.47 42.08C51.46 44.34 50.07 46.33 48.3 48.03C47.74 48.66 47 48.98 46.09 48.98C45.44 48.98 44.84 48.78 44.28 48.38C43.05 47.57 42.16 46.71 41.61 45.83C41.07 44.92 40.67 44 40.42 43.05C40.17 42.11 39.99 41.13 39.89 40.16C39.79 39.17 39.57 38.19 39.25 37.21C38.93 36.23 38.4 35.24 37.68 34.24C36.96 33.24 35.86 32.25 34.39 31.25C33.66 30.76 32.97 30.4 32.32 30.16C31.67 29.91 31.02 29.7 30.37 29.5C29.73 29.3 29.09 29.09 28.48 28.87C27.86 28.63 27.21 28.29 26.53 27.83C25.86 27.36 25.16 26.74 24.44 25.96C23.72 25.2 22.96 24.17 22.16 22.91C22.9 21.82 23.77 20.86 24.79 20.03C25.81 19.2 26.89 18.49 28.04 17.91C29.18 17.33 30.36 16.91 31.57 16.62C32.77 16.33 33.95 16.2 35.1 16.2ZM13.85 7.54L18.65 7.54C18.66 8.66 17.79 9.58 16.73 9.58L11.92 9.59C11.92 8.46 12.78 7.54 13.85 7.54ZM12.78 11.08L14.01 11.08C14.01 12.21 13.15 13.12 12.08 13.12L10.85 13.13C10.85 12 11.71 11.08 12.78 11.08ZM15.06 4L21.71 4C21.71 5.12 20.85 6.03 19.78 6.04L13.13 6.05C13.13 4.91 13.99 4 15.06 4Z" fill="#FFFFFF" fill-opacity="1.000000" fill-rule="evenodd"/>
	</g>
</svg>
