<svg width="72.000000" height="72.000000" viewBox="0 0 72 72" fill="none" xmlns="http://www.w3.org/2000/svg" xmlns:xlink="http://www.w3.org/1999/xlink">
	<desc>
			Created with Pixso.
	</desc>
	<defs>
		<clipPath id="clip117_44">
			<rect id="1#弹性云服务器-ECS" width="72.000000" height="72.000000" fill="white" fill-opacity="0"/>
		</clipPath>
	</defs>
	<g clip-path="url(#clip117_44)">
		<path id="矩形备份-19" d="M16 0L56 0C64.8 0 72 7.19 72 16L72 56C72 64.8 64.8 72 56 72L16 72C7.19 72 0 64.8 0 56L0 16C0 7.19 7.19 0 16 0Z" fill="#F85835" fill-opacity="1.000000" fill-rule="evenodd"/>
		<path id="形状结合" d="M36.49 18C42.17 18 47 21.91 48.62 27.33C55.02 28.05 60 33.73 60 40.62C60 47.9 54.46 53.83 47.57 54L47.27 54L24.01 54C17.31 53.6 12 47.76 12 40.62C12 33.37 17.5 27.47 24.37 27.26C26.02 21.88 30.82 18 36.49 18ZM23.08 46.35C22.52 46.38 22 46.86 22 47.43C22 48.05 22.48 48.54 23.07 48.54L48.91 48.64C49.48 48.61 50 48.13 50 47.56C50 46.95 49.52 46.46 48.92 46.46L23.08 46.35ZM47.07 34L24.92 34C22.21 34 20 36.21 20 38.92L20 39.06C20 41.78 22.21 43.99 24.92 43.99L47.06 43.99C49.78 43.99 51.99 41.78 51.99 39.06L51.99 38.92C52 36.21 49.79 34 47.07 34ZM47 36C48.65 36 50 37.34 50 39C50 40.65 48.65 42 47 42C45.34 42 44 40.65 44 39C44 37.34 45.34 36 47 36Z" fill="#FFFFFF" fill-opacity="1.000000" fill-rule="evenodd"/>
	</g>
</svg>
