<svg width="72.000000" height="72.000000" viewBox="0 0 72 72" fill="none" xmlns="http://www.w3.org/2000/svg" xmlns:xlink="http://www.w3.org/1999/xlink">
	<desc>
			Created with Pixso.
	</desc>
	<defs>
		<clipPath id="clip117_47">
			<rect id="10#函数工作流-FunctionGraph" width="72.000000" height="72.000000" fill="white" fill-opacity="0"/>
		</clipPath>
	</defs>
	<g clip-path="url(#clip117_47)">
		<path id="矩形备份-19" d="M16 0L56 0C64.8 0 72 7.19 72 16L72 56C72 64.8 64.8 72 56 72L16 72C7.19 72 0 64.8 0 56L0 16C0 7.19 7.19 0 16 0Z" fill="#7DCC29" fill-opacity="1.000000" fill-rule="evenodd"/>
		<path id="形状结合" d="M24.01 53.98L47.27 54L47.57 54C54.46 53.83 60 47.9 60 40.62C60 33.73 55.02 28.05 48.62 27.34C47 21.91 42.17 18 36.49 18C30.82 18 26.02 21.88 24.37 27.26C17.5 27.47 12 33.37 12 40.62C12 47.76 17.31 53.58 24.01 53.98ZM46.7 34.5C49.37 34.5 51.5 36.72 51.5 39.5C51.5 42.2 49.49 44.37 46.91 44.5L46.7 44.5L42 44.5C41.41 44.5 41 44.08 41 43.5C41 42.96 41.37 42.56 41.87 42.51L42 42.5L46.7 42.5C48.21 42.5 49.5 41.12 49.5 39.5C49.5 37.91 48.3 36.6 46.86 36.5L46.7 36.5L36.3 36.5C34.79 36.5 33.5 37.87 33.5 39.5C33.5 40.08 33.08 40.5 32.5 40.5C31.91 40.5 31.5 40.08 31.5 39.5C31.5 36.8 33.5 34.62 36.09 34.5L36.31 34.5L46.7 34.5ZM20.5 39.5C20.5 42.28 22.62 44.5 25.3 44.5L35.7 44.5L35.91 44.5C38.5 44.37 40.5 42.2 40.5 39.5C40.5 38.91 40.09 38.5 39.5 38.5C38.92 38.5 38.5 38.91 38.5 39.5C38.5 41.12 37.22 42.5 35.71 42.5L25.3 42.5L25.13 42.49C23.7 42.39 22.5 41.07 22.5 39.5C22.5 37.87 23.79 36.5 25.3 36.5L30 36.5L30.12 36.49C30.62 36.43 31 36.03 31 35.5C31 34.91 30.58 34.5 30 34.5L25.3 34.5L25.08 34.5C22.51 34.62 20.5 36.8 20.5 39.5Z" fill="#FFFFFF" fill-opacity="1.000000" fill-rule="evenodd"/>
	</g>
</svg>
