<svg width="72.000000" height="72.000000" viewBox="0 0 72 72" fill="none" xmlns="http://www.w3.org/2000/svg" xmlns:xlink="http://www.w3.org/1999/xlink">
	<desc>
			Created with Pixso.
	</desc>
	<defs>
		<clipPath id="clip117_41">
			<rect id="11#裸金属服务器-BMS" width="72.000000" height="72.000000" fill="white" fill-opacity="0"/>
		</clipPath>
	</defs>
	<g clip-path="url(#clip117_41)">
		<path id="矩形备份-19" d="M16 0L56 0C64.8 0 72 7.19 72 16L72 56C72 64.8 64.8 72 56 72L16 72C7.19 72 0 64.8 0 56L0 16C0 7.19 7.19 0 16 0Z" fill="#00C4BE" fill-opacity="1.000000" fill-rule="evenodd"/>
		<path id="形状结合" d="M36.5 18C42.2 18 47 21.89 48.6 27.3C55 28 60 33.7 60 40.6C60 47.89 54.5 53.8 47.6 54L47.3 54L24 54C17.29 53.6 12 47.8 12 40.7C12 33.39 17.5 27.5 24.39 27.3C26 21.89 30.8 18 36.5 18ZM45 34L27 34C23.1 34 20 37.1 20 41C20 44.89 23.1 48 27 48L45 48C48.89 48 52 44.89 52 41C52 37.1 48.89 34 45 34ZM44 37C46.2 37 48 38.8 48 41C48 43.2 46.2 45 44 45C41.8 45 40 43.2 40 41C40 38.8 41.8 37 44 37ZM37.5 42C38.1 42 38.5 42.39 38.5 43C38.5 43.6 38.1 44 37.5 44L24.5 44C23.89 44 23.5 43.6 23.5 43C23.5 42.39 23.89 42 24.5 42L37.5 42ZM44 38.6C42.7 38.6 41.6 39.7 41.6 41C41.6 42.3 42.7 43.39 44 43.39C45.3 43.39 46.39 42.3 46.39 41C46.39 39.7 45.3 38.6 44 38.6ZM37.5 38C38.1 38 38.5 38.39 38.5 39C38.5 39.6 38.1 40 37.5 40L24.5 40C23.89 40 23.5 39.6 23.5 39C23.5 38.39 23.89 38 24.5 38L37.5 38Z" fill="#FFFFFF" fill-opacity="1.000000" fill-rule="evenodd"/>
	</g>
</svg>
