<svg width="72.000000" height="72.000000" viewBox="0 0 72 72" fill="none" xmlns="http://www.w3.org/2000/svg" xmlns:xlink="http://www.w3.org/1999/xlink">
	<desc>
			Created with Pixso.
	</desc>
	<defs>
		<clipPath id="clip117_46">
			<rect id="12#专属计算集群服务-DCC" width="72.000000" height="72.000000" fill="white" fill-opacity="0"/>
		</clipPath>
	</defs>
	<g clip-path="url(#clip117_46)">
		<path id="矩形备份-19" d="M16 0L56 0C64.8 0 72 7.19 72 16L72 56C72 64.8 64.8 72 56 72L16 72C7.19 72 0 64.8 0 56L0 16C0 7.19 7.19 0 16 0Z" fill="#1476FF" fill-opacity="1.000000" fill-rule="evenodd"/>
		<path id="合并" d="M24 16.5L48 16.5C50.2 16.5 52 18.29 52 20.5L52 24C52 26.2 50.2 28 48 28L24 28C21.79 28 20 26.2 20 24L20 20.5C20 18.29 21.79 16.5 24 16.5ZM15.38 51.59C16.03 51.86 16.74 52 17.5 52C18.34 52 19 51.34 19 50.5C19 49.65 18.34 49 17.5 49C16.66 49 16.04 48.79 15.62 48.37C15.2 47.95 15 47.33 15 46.5L15 25.5C15 24.66 15.2 24.04 15.62 23.62C16.04 23.2 16.66 23 17.5 23C18.34 23 19 22.34 19 21.5C19 20.65 18.34 20 17.5 20C16.74 20 16.03 20.13 15.38 20.4C14.74 20.67 14.14 21.07 13.61 21.6C13.07 22.14 12.67 22.73 12.4 23.38C12.13 24.03 12 24.74 12 25.5L12 46.5C12 47.25 12.13 47.96 12.4 48.61C12.67 49.26 13.07 49.85 13.61 50.39C14.14 50.92 14.74 51.32 15.38 51.59ZM56.61 20.4C55.96 20.13 55.25 20 54.5 20C53.65 20 53 20.65 53 21.5C53 22.34 53.65 23 54.5 23C54.84 23 55.16 23.06 55.45 23.18C55.75 23.3 56.02 23.48 56.26 23.73C56.51 23.97 56.69 24.24 56.81 24.54C56.93 24.83 57 25.15 57 25.5L57 46.5C57 47.33 56.79 47.95 56.37 48.37C55.95 48.79 55.33 49 54.5 49C53.65 49 53 49.65 53 50.5C53 51.34 53.65 52 54.5 52C55.25 52 55.96 51.86 56.61 51.59C57.25 51.32 57.85 50.92 58.38 50.38C58.92 49.85 59.32 49.25 59.59 48.61C59.86 47.96 60 47.25 60 46.5L60 25.5C60 24.74 59.86 24.03 59.59 23.38C59.32 22.74 58.92 22.14 58.38 21.61C57.85 21.07 57.25 20.67 56.61 20.4ZM26.5 20.75C27.32 20.75 28 21.42 28 22.25C28 23.07 27.32 23.75 26.5 23.75C25.67 23.75 25 23.07 25 22.25C25 21.42 25.67 20.75 26.5 20.75ZM45.5 20.75L31.5 20.75C30.67 20.75 30 21.42 30 22.25C30 23.07 30.67 23.75 31.5 23.75L45.5 23.75C46.32 23.75 47 23.07 47 22.25C47 21.42 46.32 20.75 45.5 20.75ZM48 30.25L24 30.25C21.79 30.25 20 32.04 20 34.25L20 37.75C20 39.95 21.79 41.75 24 41.75L48 41.75C50.2 41.75 52 39.95 52 37.75L52 34.25C52 32.04 50.2 30.25 48 30.25ZM28 36C28 35.17 27.32 34.5 26.5 34.5C25.67 34.5 25 35.17 25 36C25 36.82 25.67 37.5 26.5 37.5C27.32 37.5 28 36.82 28 36ZM31.5 34.5L45.5 34.5C46.32 34.5 47 35.17 47 36C47 36.82 46.32 37.5 45.5 37.5L31.5 37.5C30.67 37.5 30 36.82 30 36C30 35.17 30.67 34.5 31.5 34.5ZM24 44L48 44C50.2 44 52 45.79 52 48L52 51.5C52 53.7 50.2 55.5 48 55.5L24 55.5C21.79 55.5 20 53.7 20 51.5L20 48C20 45.79 21.79 44 24 44ZM28 49.75C28 48.92 27.32 48.25 26.5 48.25C25.67 48.25 25 48.92 25 49.75C25 50.57 25.67 51.25 26.5 51.25C27.32 51.25 28 50.57 28 49.75ZM31.5 48.25L45.5 48.25C46.32 48.25 47 48.92 47 49.75C47 50.57 46.32 51.25 45.5 51.25L31.5 51.25C30.67 51.25 30 50.57 30 49.75C30 48.92 30.67 48.25 31.5 48.25Z" fill="#FFFFFF" fill-opacity="1.000000" fill-rule="evenodd"/>
	</g>
</svg>
