<svg width="72.000000" height="72.000000" viewBox="0 0 72 72" fill="none" xmlns="http://www.w3.org/2000/svg" xmlns:xlink="http://www.w3.org/1999/xlink">
	<desc>
			Created with Pixso.
	</desc>
	<defs>
		<clipPath id="clip117_49">
			<rect id="2#云耀云服务器-HECS" width="72.000000" height="72.000000" fill="white" fill-opacity="0"/>
		</clipPath>
	</defs>
	<g clip-path="url(#clip117_49)">
		<path id="矩形备份-19" d="M16 0L56 0C64.8 0 72 7.19 72 16L72 56C72 64.8 64.8 72 56 72L16 72C7.19 72 0 64.8 0 56L0 16C0 7.19 7.19 0 16 0Z" fill="#1476FF" fill-opacity="1.000000" fill-rule="evenodd"/>
		<path id="形状结合" d="M36.49 18C42.17 18 47 21.91 48.62 27.33C55.02 28.05 60 33.73 60 40.62C60 47.9 54.46 53.83 47.57 54L47.27 54L24.01 54C17.31 53.6 12 47.76 12 40.62C12 33.37 17.5 27.47 24.37 27.26C26.02 21.88 30.82 18 36.49 18ZM45 34L27 34C23.12 34 20 37.12 20 41C20 44.87 23.12 48 27 48L45 48C48.87 48 52 44.87 52 41C52 37.12 48.87 34 45 34ZM44 37C46.21 37 48 38.79 48 41C48 43.21 46.21 45 44 45C41.79 45 40 43.21 40 41C40 38.79 41.79 37 44 37ZM33.75 37.23C34.03 36.93 34.45 36.92 34.73 37.17L37.79 40.45C38.06 40.74 38.07 41.18 37.84 41.5L34.79 44.78C34.5 45.09 34.04 45.09 33.75 44.78C33.49 44.49 33.48 44.04 33.71 43.73L35.49 41.81L24.73 41.81C24.33 41.81 24 41.46 24 41.03C24 40.62 24.29 40.29 24.65 40.25L35.54 40.25L33.75 38.34C33.49 38.05 33.53 37.54 33.75 37.23ZM44 38.59C42.66 38.59 41.59 39.66 41.59 41C41.59 42.33 42.66 43.4 44 43.4C45.33 43.4 46.4 42.33 46.4 41C46.4 39.66 45.33 38.59 44 38.59Z" fill="#FFFFFF" fill-opacity="1.000000" fill-rule="evenodd"/>
	</g>
</svg>
