<svg width="72.000000" height="72.000000" viewBox="0 0 72 72" fill="none" xmlns="http://www.w3.org/2000/svg" xmlns:xlink="http://www.w3.org/1999/xlink">
	<desc>
			Created with Pixso.
	</desc>
	<defs>
		<clipPath id="clip117_48">
			<rect id="3#GPU加速云服务器-GACS" width="72.000000" height="72.000000" fill="white" fill-opacity="0"/>
		</clipPath>
	</defs>
	<g clip-path="url(#clip117_48)">
		<path id="矩形备份-19" d="M16 0L56 0C64.8 0 72 7.19 72 16L72 56C72 64.8 64.8 72 56 72L16 72C7.19 72 0 64.8 0 56L0 16C0 7.19 7.19 0 16 0Z" fill="#9F53E6" fill-opacity="1.000000" fill-rule="evenodd"/>
		<path id="形状结合" d="M53.32 17C57.01 17 60 19.99 60 23.67L60 44.31C60 47.77 57.37 50.62 54 50.96L54 54C54 54.55 53.55 55 53 55C52.45 55 52 54.55 52 54L52 51L47 51L47 54C47 54.55 46.55 55 46 55C45.45 55 45 54.55 45 54L45 51L40 51L40 54C40 54.55 39.55 55 39 55C38.45 55 38 54.55 38 54L38 51L34 51L34 54C34 54.55 33.55 55 33 55C32.45 55 32 54.55 32 54L32 51L27 51L27 54C27 54.55 26.55 55 26 55C25.45 55 25 54.55 25 54L25 51L20 51L20 54C20 54.55 19.54 55 19 55C18.45 55 18 54.55 18 54L18 50.97C14.62 50.62 12 47.78 12 44.32L12 23.67C12 19.99 14.99 17 18.67 17L53.32 17ZM46.3 25L24.42 25C23.09 25 22 26.09 22 27.42L22 41.98C22 43.32 23.09 44.4 24.42 44.4L46.3 44.4C47.63 44.4 48.73 43.32 48.73 41.98L48.73 27.42C48.73 26.09 47.64 25 46.3 25ZM37.87 27.12C38.05 27.25 38.12 27.46 38.08 27.66L36.7 33.79L38.97 33.77C39.24 33.77 39.46 33.96 39.5 34.21C39.5 34.33 39.48 34.54 39.4 34.63L33.45 42.68C33.27 42.92 32.92 42.98 32.68 42.8C32.5 42.65 32.42 42.42 32.49 42.21L34.65 35.05L32.28 35.07C32 35.07 31.79 34.87 31.74 34.62C31.74 34.5 31.77 34.29 31.84 34.2L37.12 27.24C37.3 26.98 37.63 26.92 37.87 27.12Z" fill="#FFFFFF" fill-opacity="1.000000" fill-rule="evenodd"/>
	</g>
</svg>
