<svg width="72.000000" height="72.000000" viewBox="0 0 72 72" fill="none" xmlns="http://www.w3.org/2000/svg" xmlns:xlink="http://www.w3.org/1999/xlink">
	<desc>
			Created with Pixso.
	</desc>
	<defs>
		<clipPath id="clip117_45">
			<rect id="5#FPGA加速云服务器-FACS" width="72.000000" height="72.000000" fill="white" fill-opacity="0"/>
		</clipPath>
	</defs>
	<g clip-path="url(#clip117_45)">
		<path id="矩形备份-19" d="M16 0L56 0C64.8 0 72 7.19 72 16L72 56C72 64.8 64.8 72 56 72L16 72C7.19 72 0 64.8 0 56L0 16C0 7.19 7.19 0 16 0Z" fill="#1476FF" fill-opacity="1.000000" fill-rule="evenodd"/>
		<path id="形状结合" d="M46 11C46.5 11 47 11.39 47 12L47 15L49.8 15C53.8 15 57 18.2 57 22.2L57 25L60 25C60.5 25 61 25.39 61 26C61 26.6 60.6 27 60 27L57 27L57 35L60 35C60.5 35 61 35.39 61 36C61 36.6 60.6 37 60 37L57 37L57 45L60 45C60.5 45 61 45.39 61 46C61 46.5 60.6 47 60 47L57 47L57 49.8C57 53.8 53.8 57 49.8 57L47 57L47 60C47 60.5 46.6 61 46 61C45.5 61 45 60.6 45 60L45 57L37 57L37 60C37 60.5 36.6 61 36 61C35.39 61 35 60.6 35 60L35 57L27 57L27 60C27 60.5 26.6 61 26 61C25.39 61 25 60.6 25 60L25 57L22.2 57C18.2 57 15 53.8 15 49.8L15 22.2C15 18.2 18.2 15 22.2 15L25 15L25 12C25 11.5 25.39 11 26 11C26.6 11 27 11.39 27 12L27 15L35 15L35 12C35 11.5 35.39 11 36 11C36.6 11 37 11.39 37 12L37 15L45 15L45 12C45 11.39 45.5 11 46 11ZM46.89 22.5L25.8 22.5C24.39 22.5 23.2 23.7 23.2 25.1L23.2 46.2C23.2 47.6 24.39 48.8 25.8 48.8L46.89 48.8C48.3 48.8 49.5 47.6 49.5 46.2L49.5 25.1C49.5 23.7 48.3 22.5 46.89 22.5ZM15 45L15 47L12 47C11.5 47 11 46.6 11 46C11 45.5 11.39 45 12 45L15 45ZM38.6 26C38.8 25.7 39.2 25.7 39.39 25.89C39.6 26 39.7 26.3 39.6 26.5L37.8 34.39L40.8 34.39C41.1 34.39 41.3 34.6 41.39 34.89C41.39 35 41.39 35.2 41.3 35.3L33.8 45.5C33.6 45.8 33.2 45.8 33 45.6C32.8 45.5 32.7 45.2 32.8 45L35.6 35.8L32.39 35.8C32.1 35.8 31.89 35.6 31.8 35.3C31.8 35.2 31.8 34.89 31.89 34.8L38.6 26ZM15 35L15 37L12 37C11.5 37 11 36.6 11 36C11 35.39 11.39 35 12 35L15 35ZM15 25L15 27L12 27C11.5 27 11 26.6 11 26C11 25.39 11.39 25 12 25L15 25Z" fill="#FFFFFF" fill-opacity="1.000000" fill-rule="evenodd"/>
	</g>
</svg>
