<svg width="72.000000" height="72.000000" viewBox="0 0 72 72" fill="none" xmlns="http://www.w3.org/2000/svg" xmlns:xlink="http://www.w3.org/1999/xlink">
	<desc>
			Created with Pixso.
	</desc>
	<defs>
		<clipPath id="clip117_52">
			<rect id="7#弹性伸缩-AS" width="72.000000" height="72.000000" fill="white" fill-opacity="0"/>
		</clipPath>
	</defs>
	<g clip-path="url(#clip117_52)">
		<path id="矩形备份-19" d="M16 0L56 0C64.8 0 72 7.19 72 16L72 56C72 64.8 64.8 72 56 72L16 72C7.19 72 0 64.8 0 56L0 16C0 7.19 7.19 0 16 0Z" fill="#00ABED" fill-opacity="1.000000" fill-rule="evenodd"/>
		<path id="形状结合" d="M47.2 17.73C49.76 17.73 51.51 19.76 52.75 23.8L52.88 24.23L53.01 24.66L53.13 25.11L53.17 25.27L53.3 25.81L53.41 26.29C53.44 26.41 53.44 26.41 53.46 26.54L53.57 27.04L53.63 26.76C53.75 26.22 54.26 25.86 54.79 25.92L54.91 25.94C55.49 26.07 55.85 26.64 55.72 27.22C55.43 28.54 55.2 29.85 54.99 31.3L54.93 31.72L54.81 32.62L54.64 34.01L54.78 35.17L54.79 35.28L54.89 35.93L55.28 38.56L55.31 38.75C55.62 40.74 55.95 42.42 56.34 43.98C57.25 47.63 58.42 50.16 59.74 51.35C60.41 51.95 60.48 53 59.9 53.7C59.31 54.4 58.29 54.48 57.61 53.87C55.71 52.16 54.3 49.19 53.2 44.82C53.1 44.42 53.01 44.02 52.91 43.61L52.89 43.72L52.69 44.52L52.56 45.03L52.43 45.53L52.3 46.01L52.17 46.48L52.03 46.93L51.96 47.15L51.82 47.58L51.68 48.01L51.54 48.41L51.4 48.8L51.25 49.17L51.1 49.53C50.05 51.99 48.82 53.33 47.21 53.33C45.12 53.33 43.8 51.43 42.77 47.85L42.65 47.43L42.53 46.99L42.42 46.54L42.31 46.08L42.2 45.6L42.04 44.85C42 44.68 41.97 44.51 41.93 44.33L41.85 44.54L41.71 45.23C41.27 47.31 40.79 48.98 40.25 50.3C39.18 52.93 37.83 54.28 36.02 54.28C34.24 54.28 32.93 52.95 31.89 50.36C31.26 48.78 30.72 46.72 30.22 44.03L30.14 43.58L29.96 44.3L29.86 44.69L29.72 45.2L29.58 45.7L29.44 46.18L29.3 46.65L29.16 47.1L29.02 47.54L28.88 47.96C28.86 48.03 28.83 48.1 28.81 48.16L28.67 48.56L28.53 48.94C28.46 49.13 28.39 49.31 28.32 49.49L28.18 49.83L28.04 50.16C28.02 50.21 27.99 50.27 27.97 50.32L27.82 50.62C27.8 50.67 27.77 50.72 27.75 50.77L27.6 51.05C26.78 52.55 25.86 53.33 24.73 53.33C22.81 53.33 21.35 51.6 20.29 48.44L20.17 48.08L20.06 47.71C20.02 47.59 19.99 47.46 19.95 47.33L19.84 46.94C19.8 46.81 19.77 46.67 19.74 46.54L19.64 46.13L19.54 45.7C19.52 45.63 19.51 45.56 19.49 45.48L19.4 45.04L19.31 44.59C19.3 44.51 19.28 44.44 19.27 44.36L19.18 43.89C18.12 47.08 16.62 50.29 14.71 53.5C14.24 54.29 13.24 54.53 12.47 54.04C11.71 53.55 11.48 52.53 11.95 51.75C15.41 45.95 17.37 40.25 17.83 34.62L17.93 33.46L17.91 33.35L17.84 32.91L17.77 32.49L17.7 32.09L17.63 31.7C17.62 31.64 17.6 31.57 17.59 31.51L17.51 31.15L17.43 30.81C17.42 30.75 17.4 30.7 17.39 30.64L17.31 30.32C17.28 30.22 17.25 30.12 17.23 30.02L17.15 29.73C17.14 29.68 17.12 29.64 17.11 29.59L17.02 29.33L16.93 29.09L16.84 28.86C16.63 28.35 16.41 27.98 16.18 27.76C15.82 27.34 15.77 26.64 16.16 26.23C16.57 25.8 17.25 25.79 17.67 26.21C17.99 26.52 18.28 26.94 18.55 27.47L18.61 27.06L18.64 26.87L18.73 26.29L18.81 25.81L18.89 25.35C18.91 25.24 18.91 25.24 18.93 25.13L19.02 24.7L19.11 24.28C19.14 24.14 19.17 24.01 19.21 23.87L19.31 23.47L19.36 23.28C20.37 19.58 22.11 17.69 24.74 17.69C26.98 17.69 28.51 19.45 29.69 23.09L29.82 23.5C29.85 23.61 29.85 23.61 29.88 23.72L30.01 24.16L30.13 24.61L30.25 25.08L30.37 25.56L30.49 26.05L30.6 26.56L30.74 27.23L30.88 27.92L30.98 28.44L31.04 28.16L31.16 27.63L31.28 27.11L31.4 26.61L31.52 26.12L31.64 25.65L31.76 25.2L31.88 24.76C31.9 24.69 31.92 24.62 31.94 24.55L32.06 24.13C32.08 24.06 32.1 23.99 32.12 23.93L32.24 23.54C32.26 23.48 32.28 23.41 32.3 23.35L32.43 22.98L32.49 22.8L32.62 22.45C33.53 20.09 34.59 18.88 36.02 18.88C37.46 18.88 38.55 20.09 39.49 22.44L39.62 22.78L39.75 23.14C39.79 23.26 39.84 23.39 39.88 23.51L40.01 23.9L40.14 24.3L40.27 24.72L40.39 25.16L40.51 25.61L40.63 26.08L40.75 26.56L40.87 27.06C40.89 27.14 40.91 27.23 40.93 27.31L41.02 27.68L41.05 27.48C41.43 24.76 41.92 22.79 42.6 21.26C43.66 18.99 45.2 17.73 47.2 17.73ZM47.2 21.07C46.32 21.07 45.53 22.22 44.92 24.58L44.83 24.95C44.78 25.14 44.74 25.33 44.7 25.53L44.61 25.94L44.53 26.37L44.45 26.82L44.37 27.29C44.35 27.41 44.35 27.41 44.33 27.53L44.26 28.01L44.19 28.5L44.13 29.01C44.11 29.14 44.11 29.14 44.1 29.27L44.04 29.82L43.87 31.39L43.73 32.69L43.66 33.29L43.59 33.82L43.55 34.14L43.51 34.44L43.47 34.71L43.43 34.97L43.4 35.15L42.99 37.82L43.46 40.58L43.83 42.7L43.98 43.53L44.1 44.16L44.2 44.62L44.3 45.07L44.4 45.51L44.5 45.93L44.6 46.34L44.7 46.73C44.72 46.79 44.74 46.86 44.75 46.92L44.86 47.29L44.97 47.64L45.01 47.8L45.12 48.13L45.23 48.44L45.34 48.74C45.43 48.98 45.53 49.2 45.62 49.41L45.73 49.65C46.22 50.65 46.72 51.18 47.2 51.18C47.51 51.18 47.86 50.88 48.23 50.33L48.35 50.15L48.53 49.84C48.55 49.8 48.57 49.77 48.59 49.73L48.71 49.5C48.73 49.46 48.75 49.42 48.77 49.38L48.89 49.12C48.91 49.08 48.93 49.03 48.95 48.99L49.07 48.71L49.19 48.41L49.31 48.1L49.43 47.77C49.45 47.71 49.47 47.66 49.49 47.6L49.61 47.25C49.63 47.19 49.65 47.13 49.67 47.07L49.79 46.7C49.81 46.64 49.83 46.57 49.85 46.51L49.97 46.12L50.09 45.72L50.21 45.3L50.33 44.87L50.51 44.2L50.57 43.97C50.93 42.54 51.26 41.01 51.56 39.37L51.7 38.6L51.84 37.8L51.55 35.81L51.52 35.52L51.41 34.61L51.19 32.99L51.03 31.83L50.87 30.76L50.7 29.63L50.6 29.01L50.5 28.45L50.44 28.12L50.36 27.73L50.26 27.27L50.23 27.11L50.12 26.6L50.02 26.18L49.91 25.77C49.73 25.11 49.54 24.5 49.34 23.97L49.22 23.66L49.1 23.36C48.49 21.85 47.8 21.07 47.2 21.07ZM24.75 21.07C24.27 21.07 23.88 21.28 23.53 21.73L23.44 21.85C23.41 21.89 23.38 21.93 23.36 21.97L23.27 22.12C23.24 22.17 23.21 22.22 23.19 22.27L23.11 22.43L23.03 22.61L22.95 22.8L22.87 23L22.79 23.21L22.71 23.44L22.64 23.68L22.57 23.93L22.5 24.2L22.43 24.48L22.36 24.77L22.26 25.24L22.19 25.57L22.12 25.91L22.02 26.45L21.94 27.01L21.88 27.41L21.82 27.82L21.76 28.25L21.67 28.92L21.58 29.62L21.5 30.36L21.42 31.13L21.34 31.94L21.26 32.79L21.15 33.98L21.07 34.91C20.98 36.05 20.83 37.19 20.62 38.33L20.65 38.64L20.74 39.45L20.8 39.97L20.86 40.48L20.93 40.98L21.03 41.72L21.1 42.2L21.17 42.67L21.25 43.13L21.33 43.57L21.45 44.22L21.53 44.64L21.62 45.04L21.71 45.43L21.8 45.81L21.89 46.18L21.98 46.54L22.03 46.71L22.13 47.05L22.23 47.38L22.33 47.69C22.35 47.74 22.36 47.79 22.38 47.84L22.48 48.13C22.5 48.18 22.51 48.23 22.53 48.27L22.63 48.55C22.65 48.59 22.66 48.64 22.68 48.68L22.78 48.94L22.89 49.18C22.93 49.26 22.96 49.34 23 49.41L23.11 49.63C23.15 49.7 23.18 49.77 23.22 49.83L23.33 50.02C23.79 50.78 24.27 51.18 24.75 51.18C24.93 51.18 25.15 50.96 25.42 50.56L25.52 50.4L25.62 50.22L25.73 50.02L25.89 49.7L26 49.46C26.02 49.42 26.04 49.38 26.06 49.34L26.17 49.08L26.34 48.66L26.46 48.36L26.58 48.05L26.7 47.72L26.88 47.2L27.01 46.82L27.13 46.44L27.25 46.05L27.37 45.65L27.49 45.23L27.61 44.8L27.73 44.36L27.89 43.76C27.96 43.51 28.02 43.25 28.08 42.99L28.27 42.2C28.33 41.93 28.4 41.66 28.46 41.38L28.65 40.52L28.75 40.08L29.24 37.77L28.9 35.5L28.85 35.2L28.79 34.87L28.2 31.39L27.95 29.95L27.77 28.95L27.64 28.26L27.55 27.84L27.45 27.37L27.35 26.92L27.25 26.48L27.14 26.06L27.03 25.65L26.92 25.26L26.81 24.89L26.7 24.53L26.59 24.19L26.48 23.86C26.45 23.78 26.45 23.78 26.42 23.71L26.31 23.41L26.2 23.13L26.09 22.86L25.98 22.61C25.89 22.41 25.8 22.23 25.71 22.07L25.6 21.88C25.27 21.33 24.97 21.07 24.75 21.07ZM36.02 21.08C35.86 21.08 35.68 21.24 35.47 21.55L35.38 21.69C35.32 21.79 35.26 21.9 35.2 22.02L35.1 22.21C35.08 22.24 35.07 22.28 35.05 22.31L34.95 22.53L34.85 22.76L34.76 23.01L34.66 23.27L34.5 23.7L34.4 24C34.38 24.05 34.36 24.1 34.35 24.16L34.24 24.49L34.13 24.83L34.02 25.18L33.91 25.55L33.8 25.93L33.69 26.32L33.58 26.73L33.42 27.37L33.31 27.81L33.21 28.26L33.11 28.72L32.96 29.43L32.82 30.12L32.63 31.1L32.33 32.74L32.01 34.49L32.13 35.19L33.01 41.08L33.18 42.19L33.28 42.8L33.32 43.05C33.4 43.5 33.48 43.93 33.56 44.34L33.69 44.95C34.05 46.66 34.44 48.03 34.86 49.08C35.33 50.26 35.83 50.94 36 50.94C36.22 50.94 36.74 50.24 37.25 49.01C37.56 48.25 37.85 47.33 38.13 46.23L38.27 45.67C38.34 45.39 38.41 45.09 38.47 44.79L38.6 44.17L38.73 43.52L38.88 42.73L38.97 42.22L39.13 41.27L39.49 39.01L40.14 34.81L40.19 34.52L39.86 32.72L39.61 31.39L39.38 30.21L39.22 29.42L39.07 28.76L38.92 28.12L38.77 27.51L38.62 26.92C38.25 25.48 37.86 24.26 37.46 23.29C37.13 22.48 36.8 21.87 36.48 21.48C36.25 21.18 36.09 21.08 36.02 21.08Z" fill="#FFFFFF" fill-opacity="1.000000" fill-rule="nonzero"/>
	</g>
</svg>
