<svg width="72.000000" height="72.000000" viewBox="0 0 72 72" fill="none" xmlns="http://www.w3.org/2000/svg" xmlns:xlink="http://www.w3.org/1999/xlink">
	<desc>
			Created with Pixso.
	</desc>
	<defs>
		<clipPath id="clip117_51">
			<rect id="8#镜像服务-IMS" width="72.000000" height="72.000000" fill="white" fill-opacity="0"/>
		</clipPath>
	</defs>
	<g clip-path="url(#clip117_51)">
		<path id="矩形备份-19" d="M16 0L56 0C64.8 0 72 7.19 72 16L72 56C72 64.8 64.8 72 56 72L16 72C7.19 72 0 64.8 0 56L0 16C0 7.19 7.19 0 16 0Z" fill="#9F53E6" fill-opacity="1.000000" fill-rule="evenodd"/>
		<path id="形状结合" d="M32.1 12C41.5 12 49.2 19.6 49.2 29.1L49.2 55.6C49.2 58 47.2 60 44.8 60L19.39 60C17 60 15 58 15 55.6L15 16.39C15 14 17 12 19.39 12L32.1 12ZM40.1 12C49.5 12 57.2 19.6 57.2 29.1L57.2 55.6C57.2 58 55.2 60 52.8 60L49.6 60C50.6 59.2 51.2 58 51.2 56.6L51.2 28.1C51.2 20.7 46.5 14.39 39.89 12L40.1 12ZM28.5 29C27.39 29.7 26.7 30.7 26.3 31.89C25.6 31.8 24.8 32.2 23.8 32.8C22.8 33.39 22.2 34.3 21.8 35.39C21.8 35.5 21.7 35.6 21.7 35.8C21.5 36.2 21.5 36.89 21.5 37.7C21.5 39 22.39 40.5 23.3 41.5C23.89 42.2 24.89 42.7 26.2 42.89C27.1 42.89 28 42.89 28.8 42.89L30.3 42.89C33.89 42.89 36.1 42.8 36.89 42.8C38.39 42.6 39.39 41.89 40.5 40.5C41.6 39.1 41.89 36.3 40.5 34.2C39.6 32.8 38.3 32 36.7 31.89C36.6 31.5 36.39 31.1 36 30.5C35.39 29.7 34.3 28.6 33.1 28.3C31.7 28 30.2 27.89 28.5 29Z" fill="#FFFFFF" fill-opacity="1.000000" fill-rule="evenodd"/>
	</g>
</svg>
