<svg width="72.000000" height="72.000000" viewBox="0 0 72 72" fill="none" xmlns="http://www.w3.org/2000/svg" xmlns:xlink="http://www.w3.org/1999/xlink">
	<desc>
			Created with Pixso.
	</desc>
	<defs>
		<clipPath id="clip117_42">
			<rect id="9#云手机服务器-CPH" width="72.000000" height="72.000000" fill="white" fill-opacity="0"/>
		</clipPath>
	</defs>
	<g clip-path="url(#clip117_42)">
		<path id="矩形备份-19" d="M16 0L56 0C64.8 0 72 7.19 72 16L72 56C72 64.8 64.8 72 56 72L16 72C7.19 72 0 64.8 0 56L0 16C0 7.19 7.19 0 16 0Z" fill="#00C4BE" fill-opacity="1.000000" fill-rule="evenodd"/>
		<path id="形状结合" d="M46.3 12C50 12 53 15 53 18.7L53 53.2C53 56.89 50 59.89 46.3 59.89L25.7 59.89C22 60 19 57 19 53.3L19 18.7C19 15 22 12 25.7 12L46.3 12ZM39 28.5C38.2 28.5 37.5 29.2 37.5 30L37.5 46.5C37.5 47.1 37.7 47.6 38.1 48C38.89 48.8 40.3 48.89 41.1 48L45.1 44.2C45.7 43.6 45.7 42.7 45.1 42.1L45 42C44.39 41.5 43.5 41.5 43 42.1L40.5 44.5L40.5 30C40.5 29.2 39.8 28.5 39 28.5ZM33.89 29C33.1 28.2 31.7 28.1 30.89 29L26.89 32.8C26.3 33.39 26.3 34.3 26.89 34.89L27 35C27.6 35.5 28.5 35.5 29 34.89L31.5 32.5L31.5 47C31.5 47.8 32.2 48.5 33 48.5C33.8 48.5 34.5 47.8 34.5 47L34.5 30.5C34.5 29.89 34.3 29.39 33.89 29ZM43 16L31 16C30.39 16 30 16.39 30 17C30 17.6 30.39 18 31 18L43 18C43.6 18 44 17.6 44 17C44 16.39 43.6 16 43 16ZM28 16C27.39 16 27 16.39 27 17C27 17.6 27.39 18 28 18C28.6 18 29 17.6 29 17C29 16.39 28.6 16 28 16Z" fill="#FFFFFF" fill-opacity="1.000000" fill-rule="evenodd"/>
	</g>
</svg>
