<svg width="80.000000" height="80.000000" viewBox="0 0 80 80" fill="none" xmlns="http://www.w3.org/2000/svg" xmlns:xlink="http://www.w3.org/1999/xlink">
	<desc>
			Created with Pixso.
	</desc>
	<defs>
		<clipPath id="clip2_1966">
			<rect id="1#401未认证-401" width="80.000000" height="80.000000" fill="white" fill-opacity="0"/>
		</clipPath>
	</defs>
	<g clip-path="url(#clip2_1966)">
		<path id="路径" d="M69.93 19C72.18 19 74 20.81 74 23.04L74 67.95C74 70.18 72.18 72 69.93 72L10.06 72C7.81 72 6 70.18 6 67.95L6 23.04C6 20.81 7.81 19 10.06 19L69.93 19Z" fill="#FFFFFF" fill-opacity="1.000000" fill-rule="nonzero"/>
		<path id="矩形" d="M69.93 19C72.18 19 74 20.81 74 23.04L74 67.95C74 70.18 72.18 72 69.93 72L10.06 72C7.81 72 6 70.18 6 67.95L6 23.04C6 20.81 7.81 19 10.06 19L69.93 19ZM69.93 20.1L10.06 20.1C8.42 20.1 7.09 21.42 7.09 23.05L7.09 67.94C7.09 69.57 8.42 70.89 10.06 70.89L69.93 70.89C71.57 70.89 72.9 69.57 72.9 67.94L72.9 23.05C72.9 21.42 71.57 20.1 69.93 20.1Z" fill="#808080" fill-opacity="1.000000" fill-rule="nonzero"/>
		<path id="矩形" d="M9.05 19L70.94 19C72.63 19 74 20.36 74 22.05L74 31L6 31L6 22.05C6 20.36 7.36 19 9.05 19Z" fill="#F0F0F0" fill-opacity="1.000000" fill-rule="evenodd"/>
		<path id="矩形" d="M70.95 19C72.63 19 74 20.39 74 22.1L74 31L6 31L6 22.1C6 20.39 7.36 19 9.04 19L70.95 19ZM70.95 20.11L9.04 20.11C7.96 20.11 7.09 21 7.09 22.1L7.09 29.88L72.9 29.88L72.9 22.1C72.9 21.04 72.08 20.17 71.05 20.12L70.95 20.11Z" fill="#808080" fill-opacity="1.000000" fill-rule="nonzero"/>
		<circle id="椭圆形" cx="59.750000" cy="25.000000" r="1.250000" fill="#808080" fill-opacity="1.000000"/>
		<circle id="椭圆形" cx="64.250000" cy="25.000000" r="1.250000" fill="#808080" fill-opacity="1.000000"/>
		<circle id="椭圆形" cx="68.750000" cy="25.000000" r="1.250000" fill="#808080" fill-opacity="1.000000"/>
		<circle id="椭圆形" cx="24.000000" cy="32.000000" r="8.000000" fill="#1476FF" fill-opacity="1.000000"/>
		<path id="形状结合" d="M27.18 28.81C27.37 29.01 27.37 29.32 27.18 29.52L24.7 31.99L27.18 34.47C27.37 34.67 27.37 34.98 27.18 35.18C26.98 35.37 26.67 35.37 26.47 35.18L24 32.7L21.52 35.18C21.32 35.37 21.01 35.37 20.81 35.18C20.62 34.98 20.62 34.67 20.81 34.47L23.29 32L20.81 29.52C20.62 29.32 20.62 29.01 20.81 28.81C21.01 28.62 21.32 28.62 21.52 28.81L24 31.29L26.47 28.81C26.67 28.62 26.98 28.62 27.18 28.81Z" fill="#FFFFFF" fill-opacity="1.000000" fill-rule="evenodd"/>
		<path id="矩形" d="M18.25 48L43.75 48C44.44 48 45 48.55 45 49.25C45 49.94 44.44 50.5 43.75 50.5L18.25 50.5C17.55 50.5 17 49.94 17 49.25C17 48.55 17.55 48 18.25 48Z" fill="#DBDBDB" fill-opacity="1.000000" fill-rule="evenodd"/>
		<path id="形状" d="M62.39 46.47C62.22 46.47 62.05 46.48 61.89 46.48C57.59 46.48 55.69 44.49 55.68 44.47L55.25 44L54.82 44.47C54.8 44.49 52.8 46.63 48.1 46.47L47.5 46.45L47.5 55.47C47.5 57.83 48.28 61.28 55.03 63.91L55.25 64L55.46 63.91C62.21 61.28 63 57.83 63 55.47L63 46.45L62.39 46.47Z" fill="#DBDBDB" fill-opacity="1.000000" fill-rule="evenodd"/>
		<path id="形状" d="M55.53 53.35C56.66 53.23 57.58 52.3 57.71 51.15C57.88 49.65 56.71 48.37 55.25 48.37C53.88 48.37 52.77 49.49 52.77 50.87C52.77 52.35 54.03 53.52 55.53 53.35ZM55.25 53.46C52.56 53.46 50.29 55.04 50.29 56.94L50.29 58.01C50.29 58.21 50.44 58.37 50.64 58.37L59.85 58.37C60.05 58.37 60.21 58.21 60.21 58.01L60.21 56.94C60.21 55.04 57.93 53.46 55.25 53.46Z" fill="#FFFFFF" fill-opacity="1.000000" fill-rule="evenodd"/>
		<path id="形状" d="M55.25 53.46C57.93 53.46 60.21 55.04 60.21 56.94L60.21 58.01C60.21 58.21 60.05 58.37 59.85 58.37L50.64 58.37C50.44 58.37 50.29 58.21 50.29 58.01L50.29 56.94C50.29 55.08 52.48 53.52 55.1 53.46L55.25 53.46ZM55.25 54.08C52.86 54.08 50.91 55.45 50.91 56.94L50.91 57.75L59.58 57.75L59.58 56.94C59.58 55.48 57.71 54.14 55.39 54.09L55.25 54.08ZM55.25 48.37C56.71 48.37 57.88 49.65 57.71 51.15C57.58 52.3 56.66 53.23 55.53 53.35C55.46 53.36 55.39 53.37 55.32 53.37L55.22 53.37C53.86 53.36 52.77 52.24 52.77 50.87C52.77 49.52 53.82 48.43 55.14 48.37L55.25 48.37ZM55.25 49C54.22 49 53.39 49.83 53.39 50.87C53.39 51.99 54.35 52.86 55.46 52.73C56.3 52.64 57 51.94 57.09 51.09C57.21 49.96 56.35 49 55.25 49Z" fill="#808080" fill-opacity="1.000000" fill-rule="nonzero"/>
		<path id="矩形备份-5" d="M18.25 52.5L37.75 52.5C38.44 52.5 39 53.05 39 53.75C39 54.44 38.44 55 37.75 55L18.25 55C17.55 55 17 54.44 17 53.75C17 53.05 17.55 52.5 18.25 52.5Z" fill="#DBDBDB" fill-opacity="1.000000" fill-rule="evenodd"/>
		<path id="矩形备份-6" d="M18.25 57L31.75 57C32.44 57 33 57.55 33 58.25C33 58.94 32.44 59.5 31.75 59.5L18.25 59.5C17.55 59.5 17 58.94 17 58.25C17 57.55 17.55 57 18.25 57Z" fill="#DBDBDB" fill-opacity="1.000000" fill-rule="evenodd"/>
	</g>
</svg>
