<svg width="80.000000" height="80.000000" viewBox="0 0 80 80" fill="none" xmlns="http://www.w3.org/2000/svg" xmlns:xlink="http://www.w3.org/1999/xlink">
	<desc>
			Created with Pixso.
	</desc>
	<defs>
		<clipPath id="clip2_1975">
			<rect id="2#404未发现页面-404" width="80.000000" height="80.000000" fill="white" fill-opacity="0"/>
		</clipPath>
	</defs>
	<g clip-path="url(#clip2_1975)">
		<path id="路径" d="M69.93 19C72.18 19 74 20.81 74 23.04L74 67.95C74 70.18 72.18 72 69.93 72L10.06 72C7.81 72 6 70.18 6 67.95L6 23.04C6 20.81 7.81 19 10.06 19L69.93 19Z" fill="#FFFFFF" fill-opacity="1.000000" fill-rule="nonzero"/>
		<path id="矩形" d="M69.93 19C72.18 19 74 20.81 74 23.04L74 67.95C74 70.18 72.18 72 69.93 72L10.06 72C7.81 72 6 70.18 6 67.95L6 23.04C6 20.81 7.81 19 10.06 19L69.93 19ZM69.93 20.1L10.06 20.1C8.42 20.1 7.09 21.42 7.09 23.05L7.09 67.94C7.09 69.57 8.42 70.89 10.06 70.89L69.93 70.89C71.57 70.89 72.9 69.57 72.9 67.94L72.9 23.05C72.9 21.42 71.57 20.1 69.93 20.1Z" fill="#808080" fill-opacity="1.000000" fill-rule="nonzero"/>
		<path id="矩形" d="M9.05 19L70.94 19C72.63 19 74 20.36 74 22.05L74 31L6 31L6 22.05C6 20.36 7.36 19 9.05 19Z" fill="#F0F0F0" fill-opacity="1.000000" fill-rule="evenodd"/>
		<path id="矩形" d="M70.95 19C72.63 19 74 20.39 74 22.1L74 31L6 31L6 22.1C6 20.39 7.36 19 9.04 19L70.95 19ZM70.95 20.11L9.04 20.11C7.97 20.11 7.09 21 7.09 22.1L7.09 29.88L72.9 29.88L72.9 22.1C72.9 21.04 72.08 20.17 71.05 20.12L70.95 20.11Z" fill="#808080" fill-opacity="1.000000" fill-rule="nonzero"/>
		<circle id="椭圆形" cx="59.750000" cy="25.000000" r="1.250000" fill="#808080" fill-opacity="1.000000"/>
		<circle id="椭圆形" cx="64.250000" cy="25.000000" r="1.250000" fill="#808080" fill-opacity="1.000000"/>
		<circle id="椭圆形" cx="68.750000" cy="25.000000" r="1.250000" fill="#808080" fill-opacity="1.000000"/>
		<circle id="椭圆形" cx="22.000000" cy="32.000000" r="8.000000" fill="#1476FF" fill-opacity="1.000000"/>
		<path id="矩形备份-31" d="M23.93 29.16L23.93 29.89C23.93 31.02 23.03 31.95 21.92 31.95C20.81 31.95 19.91 31.02 19.91 29.89L19.91 29.16L23.93 29.16Z" fill="#FFFFFF" fill-opacity="1.000000" fill-rule="nonzero"/>
		<rect id="矩形备份-32" x="19.912903" y="34.875397" width="4.025088" height="1.500000" fill="#FFFFFF" fill-opacity="1.000000"/>
		<path id="矩形备份-5" d="M24.06 27.4L19.78 27.4L19.78 29.79C19.78 30.95 20.74 31.9 21.92 31.9C23.1 31.9 24.06 30.95 24.06 29.79L24.06 27.4ZM23.61 27.85L23.61 29.78C23.61 30.7 22.85 31.44 21.92 31.44L21.87 31.44C20.96 31.41 20.23 30.68 20.23 29.78L20.23 27.85L23.61 27.85Z" fill="#FFFFFF" fill-opacity="1.000000" fill-rule="nonzero"/>
		<path id="矩形备份-33" d="M24.06 36.32L19.78 36.32L19.78 33.92C19.78 32.76 20.74 31.82 21.92 31.82C23.1 31.82 24.06 32.76 24.06 33.92L24.06 36.32ZM23.61 35.86L23.61 33.94C23.61 33.02 22.85 32.27 21.92 32.27L21.87 32.27C20.96 32.3 20.23 33.04 20.23 33.94L20.23 35.86L23.61 35.86Z" fill="#FFFFFF" fill-opacity="1.000000" fill-rule="nonzero"/>
		<rect id="矩形" x="18.000000" y="27.400009" rx="0.325000" width="8.000000" height="0.650000" fill="#FFFFFF" fill-opacity="1.000000"/>
		<rect id="矩形" x="18.000000" y="35.950012" rx="0.325000" width="8.000000" height="0.650000" fill="#FFFFFF" fill-opacity="1.000000"/>
		<path id="椭圆形" d="M40.42 43.67C36.47 43.67 33.27 46.85 33.27 50.77C33.27 54.69 36.47 57.86 40.42 57.86C44.37 57.86 47.57 54.69 47.57 50.77C47.57 46.85 44.37 43.67 40.42 43.67ZM40.42 43.95C44.22 43.95 47.29 47 47.29 50.77C47.29 54.53 44.22 57.59 40.42 57.59C36.62 57.59 33.55 54.53 33.55 50.77C33.55 47 36.62 43.95 40.42 43.95Z" fill="#808080" fill-opacity="1.000000" fill-rule="nonzero"/>
		<mask id="mask2_2291" mask-type="alpha" maskUnits="userSpaceOnUse" x="33.543640" y="43.949066" width="13.760803" height="13.650574">
			<ellipse id="path-3" cx="40.424072" cy="50.774353" rx="6.880407" ry="6.825284" fill="#FFFFFF" fill-opacity="1.000000"/>
		</mask>
		<g mask="url(#mask2_2291)">
			<path id="路径-114" d="M37.54 44.42C37.8 44.51 37.32 45.29 36.78 45.9C36.23 46.51 35.68 46.39 35.04 47.09C34.41 47.78 34.75 48.93 35.66 49.86C36.56 50.8 35.06 51.64 35.41 52.7C35.83 53.93 36.37 54.61 36.17 54.99C36.04 55.24 35.43 55.03 34.35 54.36C33.41 53.5 33.06 52.98 33.28 52.81C33.61 52.56 33.06 48.58 33.28 47.56C33.42 46.88 34.32 45.83 35.97 44.42C36.99 44.41 37.52 44.41 37.54 44.42Z" fill="#DBDBDB" fill-opacity="1.000000" fill-rule="nonzero"/>
		</g>
		<mask id="mask2_2296" mask-type="alpha" maskUnits="userSpaceOnUse" x="33.543640" y="43.949066" width="13.760803" height="13.650574">
			<ellipse id="path-3" cx="40.424072" cy="50.774353" rx="6.880407" ry="6.825284" fill="#FFFFFF" fill-opacity="1.000000"/>
		</mask>
		<g mask="url(#mask2_2296)">
			<path id="路径-115" d="M44.25 44.32C44.47 45.08 44.18 45.41 43.39 45.32C42.2 45.17 41.87 44.09 40.13 44.22C38.39 44.35 38.54 45.99 38.39 46.1C38.24 46.2 37.34 46.45 37.83 47.53C38.32 48.61 40.34 49.71 40.51 50.88C40.76 52.57 40 54.43 40.71 54.77C41.41 55.12 42.49 53.19 42.96 51.8C43.43 50.42 42.75 49.72 43.39 49.61C44.03 49.49 44.18 50.38 45 50.08C45.82 49.78 45.17 47.53 46.75 48.18C47.8 48.61 48.03 48.08 47.44 46.6L44.25 44.32Z" fill="#DBDBDB" fill-opacity="1.000000" fill-rule="nonzero"/>
		</g>
		<path id="4" d="M29.88 57.05L29.88 54.69L31 54.69C31.3 54.69 31.53 54.45 31.53 54.16L31.53 53.18C31.53 52.89 31.3 52.65 31 52.65L29.88 52.65L29.88 44.32C29.88 44.03 29.64 43.79 29.35 43.79L27.37 43.79C27.2 43.79 27.04 43.88 26.94 44.01L20.65 52.78C20.58 52.87 20.55 52.98 20.55 53.08L20.55 54.16C20.55 54.45 20.79 54.69 21.08 54.69L27.3 54.69L27.3 57.05C27.3 57.34 27.54 57.58 27.83 57.58L29.35 57.58C29.64 57.58 29.88 57.34 29.88 57.05ZM26.77 52.65L23.71 52.65C23.57 52.65 23.45 52.54 23.45 52.39C23.45 52.34 23.47 52.28 23.5 52.24L26.82 47.67C26.9 47.55 27.07 47.53 27.19 47.61C27.26 47.66 27.3 47.74 27.3 47.83L27.3 52.13C27.3 52.42 27.06 52.65 26.77 52.65Z" fill="#DBDBDB" fill-opacity="1.000000" fill-rule="nonzero"/>
		<path id="4备份" d="M57.9 57.05L57.9 54.69L59.02 54.69C59.31 54.69 59.55 54.45 59.55 54.16L59.55 53.18C59.55 52.89 59.31 52.65 59.02 52.65L57.9 52.65L57.9 44.32C57.9 44.03 57.66 43.79 57.37 43.79L55.39 43.79C55.22 43.79 55.06 43.88 54.96 44.01L48.67 52.78C48.6 52.87 48.57 52.98 48.57 53.08L48.57 54.16C48.57 54.45 48.81 54.69 49.1 54.69L55.32 54.69L55.32 57.05C55.32 57.34 55.55 57.58 55.85 57.58L57.37 57.58C57.66 57.58 57.9 57.34 57.9 57.05ZM54.79 52.65L51.73 52.65C51.59 52.65 51.47 52.54 51.47 52.39C51.47 52.34 51.48 52.28 51.52 52.24L54.84 47.67C54.92 47.55 55.09 47.53 55.21 47.61C55.28 47.66 55.32 47.74 55.32 47.83L55.32 52.13C55.32 52.42 55.08 52.65 54.79 52.65Z" fill="#DBDBDB" fill-opacity="1.000000" fill-rule="nonzero"/>
		<rect id="矩形" x="32.012177" y="62.000000" rx="0.500000" width="16.111111" height="1.000000" fill="#DBDBDB" fill-opacity="1.000000"/>
		<rect id="矩形备份-2" x="20.000000" y="65.000000" rx="0.500000" width="40.000000" height="1.000000" fill="#DBDBDB" fill-opacity="1.000000"/>
	</g>
</svg>
