<svg width="80.000000" height="80.000000" viewBox="0 0 80 80" fill="none" xmlns="http://www.w3.org/2000/svg" xmlns:xlink="http://www.w3.org/1999/xlink">
	<desc>
			Created with Pixso.
	</desc>
	<defs>
		<clipPath id="clip2_1967">
			<rect id="3#415请求被拒绝-415" width="80.000000" height="80.000000" fill="white" fill-opacity="0"/>
		</clipPath>
	</defs>
	<g clip-path="url(#clip2_1967)">
		<mask id="mask2_2034" mask-type="alpha" maskUnits="userSpaceOnUse" x="0.000000" y="-0.000015" width="80.000000" height="80.000000">
			<rect id="path-1" y="-0.000023" width="80.000000" height="80.000000" fill="#FFFFFF" fill-opacity="1.000000"/>
		</mask>
		<g mask="url(#mask2_2034)">
			<path id="path" d="M38.25 37.11L71.51 37.11C73.34 37.11 74.81 38.59 74.81 40.41L74.81 72.81C74.81 74.63 73.34 76.11 71.51 76.11L38.25 76.11C36.42 76.11 34.95 74.63 34.95 72.81L34.95 40.41C34.95 38.59 36.42 37.11 38.25 37.11Z" fill="#F0F0F0" fill-opacity="1.000000" fill-rule="evenodd"/>
			<path id="path" d="M71.97 37.11C73.54 37.11 74.81 38.4 74.81 39.98L74.81 73.05C74.81 74.64 73.54 75.92 71.97 75.92L37.82 75.92C36.25 75.92 34.98 74.64 34.98 73.05L34.98 39.98C34.98 38.4 36.25 37.11 37.82 37.11L71.97 37.11ZM71.97 37.59L37.82 37.59C36.51 37.59 35.45 38.66 35.45 39.98L35.45 73.05C35.45 74.37 36.51 75.44 37.82 75.44L71.97 75.44C73.28 75.44 74.34 74.37 74.34 73.05L74.34 39.98C74.34 38.66 73.28 37.59 71.97 37.59Z" fill="#808080" fill-opacity="1.000000" fill-rule="nonzero"/>
		</g>
		<mask id="mask2_2042" mask-type="alpha" maskUnits="userSpaceOnUse" x="0.000000" y="-0.000015" width="80.000000" height="80.000000">
			<rect id="path-1" y="-0.000023" width="80.000000" height="80.000000" fill="#FFFFFF" fill-opacity="1.000000"/>
		</mask>
		<g mask="url(#mask2_2042)">
			<rect id="矩形" x="40.259827" y="55.212769" rx="2.200000" width="29.249996" height="4.420277" fill="#FFFFFF" fill-opacity="1.000000"/>
		</g>
		<mask id="mask2_2047" mask-type="alpha" maskUnits="userSpaceOnUse" x="0.000000" y="-0.000015" width="80.000000" height="80.000000">
			<rect id="path-1" y="-0.000023" width="80.000000" height="80.000000" fill="#FFFFFF" fill-opacity="1.000000"/>
		</mask>
		<g mask="url(#mask2_2047)">
			<rect id="矩形备份-5" x="55.009827" y="44.792496" rx="2.200000" width="14.499996" height="4.420277" fill="#FFFFFF" fill-opacity="1.000000"/>
		</g>
		<mask id="mask2_2052" mask-type="alpha" maskUnits="userSpaceOnUse" x="0.000000" y="-0.000015" width="80.000000" height="80.000000">
			<rect id="path-1" y="-0.000023" width="80.000000" height="80.000000" fill="#FFFFFF" fill-opacity="1.000000"/>
		</mask>
		<g mask="url(#mask2_2052)">
			<rect id="矩形" x="40.259827" y="64.633041" rx="2.200000" width="29.249996" height="4.420273" fill="#FFFFFF" fill-opacity="1.000000"/>
		</g>
		<mask id="mask2_2057" mask-type="alpha" maskUnits="userSpaceOnUse" x="0.000000" y="-0.000015" width="80.000000" height="80.000000">
			<rect id="path-1" y="-0.000023" width="80.000000" height="80.000000" fill="#FFFFFF" fill-opacity="1.000000"/>
		</mask>
		<g mask="url(#mask2_2057)">
			<rect id="rect" x="5.729340" y="8.883331" rx="8.000000" width="46.000000" height="46.000000" fill="#FFFFFF" fill-opacity="1.000000"/>
			<path id="path" d="M47.64 9C49.89 9 51.71 10.81 51.71 13.05L51.71 50.95C51.71 53.19 49.89 55 47.64 55L9.24 55C7 55 5.18 53.19 5.18 50.95L5.18 13.05C5.18 10.81 7 9 9.24 9L47.64 9ZM47.64 10.1L9.24 10.1C7.6 10.1 6.27 11.42 6.27 13.05L6.27 50.94C6.27 52.57 7.6 53.89 9.24 53.89L47.64 53.89C49.28 53.89 50.61 52.57 50.61 50.94L50.61 13.05C50.61 11.42 49.28 10.1 47.64 10.1Z" fill="#808080" fill-opacity="1.000000" fill-rule="nonzero"/>
			<path id="path" d="M14.18 29.5L29.68 29.5C30.78 29.5 31.68 30.39 31.68 31.5C31.68 32.6 30.78 33.5 29.68 33.5L14.18 33.5C13.07 33.5 12.18 32.6 12.18 31.5C12.18 30.39 13.07 29.5 14.18 29.5Z" fill="#DBDBDB" fill-opacity="1.000000" fill-rule="evenodd"/>
			<path id="path" d="M14.18 19.5L41.97 19.5C43.07 19.5 43.97 20.39 43.97 21.5C43.97 22.6 43.07 23.5 41.97 23.5L14.18 23.5C13.07 23.5 12.18 22.6 12.18 21.5C12.18 20.39 13.07 19.5 14.18 19.5Z" fill="#DBDBDB" fill-opacity="1.000000" fill-rule="evenodd"/>
		</g>
		<mask id="mask2_2067" mask-type="alpha" maskUnits="userSpaceOnUse" x="0.000000" y="-0.000015" width="80.000000" height="80.000000">
			<rect id="path-1" y="-0.000023" width="80.000000" height="80.000000" fill="#FFFFFF" fill-opacity="1.000000"/>
		</mask>
		<g mask="url(#mask2_2067)">
			<circle id="椭圆形" cx="19.955566" cy="55.136047" r="8.000000" fill="#1476FF" fill-opacity="1.000000"/>
			<path id="形状结合" d="M23.13 51.95C23.33 52.14 23.33 52.46 23.13 52.66L20.66 55.13L23.13 57.61C23.33 57.8 23.33 58.12 23.13 58.31C22.94 58.51 22.62 58.51 22.43 58.31L19.95 55.84L17.48 58.31C17.28 58.51 16.96 58.51 16.77 58.31C16.57 58.12 16.57 57.8 16.77 57.61L19.24 55.13L16.77 52.66C16.57 52.46 16.57 52.14 16.77 51.95C16.96 51.75 17.28 51.75 17.48 51.95L19.95 54.42L22.43 51.95C22.62 51.75 22.94 51.75 23.13 51.95Z" fill="#FFFFFF" fill-opacity="1.000000" fill-rule="evenodd"/>
		</g>
		<mask id="mask2_2076" mask-type="alpha" maskUnits="userSpaceOnUse" x="0.000000" y="-0.000015" width="80.000000" height="80.000000">
			<rect id="path-1" y="-0.000023" width="80.000000" height="80.000000" fill="#FFFFFF" fill-opacity="1.000000"/>
		</mask>
		<g mask="url(#mask2_2076)">
			<path id="路径-2" d="M19.7 63C19.7 63.76 19.99 64.48 20.5 65.03L20.87 64.69C20.44 64.23 20.2 63.63 20.2 63L19.7 63ZM21.9 65.87C22.14 65.93 22.38 65.96 22.62 65.97L24.01 65.97L24.01 65.47L22.63 65.47C22.43 65.46 22.23 65.44 22.03 65.39L21.9 65.87ZM25.51 65.97L27.51 65.97L27.51 65.47L25.51 65.47L25.51 65.97ZM29.01 65.97L31.01 65.97L31.01 65.47L29.01 65.47L29.01 65.97ZM32.51 65.97L34.51 65.97L34.51 65.47L32.51 65.47L32.51 65.97Z" fill="#808080" fill-opacity="1.000000" fill-rule="nonzero"/>
		</g>
		<mask id="mask2_2081" mask-type="alpha" maskUnits="userSpaceOnUse" x="0.000000" y="-0.000015" width="80.000000" height="80.000000">
			<rect id="path-1" y="-0.000023" width="80.000000" height="80.000000" fill="#FFFFFF" fill-opacity="1.000000"/>
		</mask>
		<g mask="url(#mask2_2081)">
			<path id="路径-2" d="M64.71 23.8C66.5 23.8 67.96 25.25 67.96 27.05L67.96 37.3L67.46 37.3L67.46 27.05C67.46 25.53 66.23 24.3 64.71 24.3L51.71 24.3L51.71 23.8L64.71 23.8Z" fill="#808080" fill-opacity="1.000000" fill-rule="nonzero"/>
		</g>
		<mask id="mask2_2086" mask-type="alpha" maskUnits="userSpaceOnUse" x="0.480957" y="-7.300903" width="113.137085" height="113.137085">
			<rect id="path-1" x="0.480957" y="49.267639" width="80.000000" height="80.000000" transform="rotate(-45 0.480957 49.267639)" fill="#FFFFFF" fill-opacity="1.000000"/>
		</mask>
		<g mask="url(#mask2_2086)">
			<path id="路径" d="M59.11 27.34L56.31 24.54C56.04 24.27 56.04 23.83 56.31 23.55L59.11 20.76C59.25 20.62 59.47 20.62 59.6 20.76C59.67 20.82 59.71 20.91 59.71 21L59.71 27.09C59.71 27.29 59.55 27.44 59.36 27.44C59.26 27.44 59.17 27.41 59.11 27.34Z" fill="#FFFFFF" fill-opacity="1.000000" fill-rule="evenodd"/>
		</g>
		<mask id="mask2_2091" mask-type="alpha" maskUnits="userSpaceOnUse" x="0.378448" y="-7.548401" width="113.137085" height="113.137085">
			<rect id="path-1" x="0.378448" y="49.020142" width="80.000000" height="80.000000" transform="rotate(-45 0.378448 49.020142)" fill="#FFFFFF" fill-opacity="1.000000"/>
		</mask>
		<g mask="url(#mask2_2091)">
			<path id="路径" d="M58.93 20.58L56.14 23.38C55.76 23.75 55.76 24.35 56.14 24.72L58.93 27.52C59.05 27.63 59.2 27.69 59.36 27.69C59.69 27.69 59.96 27.42 59.96 27.09L59.96 21C59.96 20.85 59.89 20.69 59.78 20.58C59.55 20.35 59.17 20.35 58.93 20.58ZM59.29 20.93C59.33 20.89 59.39 20.89 59.43 20.93C59.45 20.95 59.46 20.98 59.46 21L59.46 27.09C59.46 27.15 59.41 27.19 59.36 27.19C59.33 27.19 59.3 27.18 59.29 27.16L56.49 24.37C56.31 24.19 56.31 23.91 56.49 23.73L59.29 20.93Z" fill="#808080" fill-opacity="1.000000" fill-rule="nonzero"/>
		</g>
	</g>
</svg>
