<svg width="80.000000" height="80.000000" viewBox="0 0 80 80" fill="none" xmlns="http://www.w3.org/2000/svg" xmlns:xlink="http://www.w3.org/1999/xlink">
	<desc>
			Created with Pixso.
	</desc>
	<defs>
		<clipPath id="clip2_1968">
			<rect id="4#502不匹配-502" width="80.000000" height="80.000000" fill="white" fill-opacity="0"/>
		</clipPath>
	</defs>
	<g clip-path="url(#clip2_1968)">
		<mask id="mask2_2097" mask-type="alpha" maskUnits="userSpaceOnUse" x="0.000000" y="0.000000" width="80.000000" height="80.000000">
			<rect id="path-1" width="80.000000" height="80.000000" fill="#FFFFFF" fill-opacity="1.000000"/>
		</mask>
		<g mask="url(#mask2_2097)">
			<path id="矩形备份-8" d="M28 26.5L62 26.5C63.1 26.5 64 27.39 64 28.5L64 63.5L26 63.5L26 28.5C26 27.39 26.89 26.5 28 26.5Z" fill="#F0F0F0" fill-opacity="1.000000" fill-rule="evenodd"/>
			<path id="路径" d="M69.93 19C72.18 19 74 20.81 74 23.04L74 60.45C74 62.68 72.18 64.5 69.93 64.5L10.06 64.5C7.81 64.5 6 62.68 6 60.45L6 23.04C6 20.81 7.81 19 10.06 19L69.93 19Z" fill="#FFFFFF" fill-opacity="1.000000" fill-rule="nonzero"/>
			<path id="矩形" d="M23 31.5L57 31.5C58.1 31.5 59 32.39 59 33.5L59 64.5L21 64.5L21 33.5C21 32.39 21.89 31.5 23 31.5Z" fill="#FFFFFF" fill-opacity="1.000000" fill-rule="evenodd"/>
			<path id="矩形" d="M69.93 19C72.18 19 74 20.81 74 23.04L74 60.45C74 62.68 72.18 64.5 69.93 64.5L10.06 64.5C7.81 64.5 6 62.68 6 60.45L6 23.04C6 20.81 7.81 19 10.06 19L69.93 19ZM69.93 20.1L10.06 20.1C8.42 20.1 7.09 21.42 7.09 23.05L7.09 60.44C7.09 62.07 8.42 63.39 10.06 63.39L69.93 63.39C71.57 63.39 72.9 62.07 72.9 60.44L72.9 23.05C72.9 21.42 71.57 20.1 69.93 20.1Z" fill="#808080" fill-opacity="1.000000" fill-rule="nonzero"/>
			<path id="矩形" d="M59 62.43L58 62.43L58 63.43L59 63.43L59 62.43ZM22 61.56L21 61.56L21 62.56L22 62.56L22 61.56ZM59 60.43L58 60.43L58 61.43L59 61.43L59 60.43ZM22 59.56L21 59.56L21 60.56L22 60.56L22 59.56ZM59 58.43L58 58.43L58 59.43L59 59.43L59 58.43ZM22 57.56L21 57.56L21 58.56L22 58.56L22 57.56ZM59 56.43L58 56.43L58 57.43L59 57.43L59 56.43ZM22 55.56L21 55.56L21 56.56L22 56.56L22 55.56ZM59 54.43L58 54.43L58 55.43L59 55.43L59 54.43ZM22 53.56L21 53.56L21 54.56L22 54.56L22 53.56ZM59 52.43L58 52.43L58 53.43L59 53.43L59 52.43ZM22 51.56L21 51.56L21 52.56L22 52.56L22 51.56ZM59 50.43L58 50.43L58 51.43L59 51.43L59 50.43ZM22 49.56L21 49.56L21 50.56L22 50.56L22 49.56ZM59 48.43L58 48.43L58 49.43L59 49.43L59 48.43ZM22 47.56L21 47.56L21 48.56L22 48.56L22 47.56ZM59 46.43L58 46.43L58 47.43L59 47.43L59 46.43ZM22 45.56L21 45.56L21 46.56L22 46.56L22 45.56ZM59 44.43L58 44.43L58 45.43L59 45.43L59 44.43ZM22 43.56L21 43.56L21 44.56L22 44.56L22 43.56ZM59 42.43L58 42.43L58 43.43L59 43.43L59 42.43ZM22 41.56L21 41.56L21 42.56L22 42.56L22 41.56ZM59 40.43L58 40.43L58 41.43L59 41.43L59 40.43ZM22 39.56L21 39.56L21 40.56L22 40.56L22 39.56ZM59 38.43L58 38.43L58 39.43L59 39.43L59 38.43ZM22 37.56L21 37.56L21 38.56L22 38.56L22 37.56ZM59 36.43L58 36.43L58 37.43L59 37.43L59 36.43ZM22 35.56L21 35.56L21 36.56L22 36.56L22 35.56ZM59 34.43L58 34.43L58 35.43L59 35.43L59 34.43ZM22 33.56L21 33.56L21 34.56L22 34.56L22 33.56ZM58.99 33.39C58.97 33.04 58.86 32.71 58.69 32.43L57.84 32.96C57.93 33.11 57.98 33.27 57.99 33.44L58.99 33.39ZM21.88 31.84C21.6 32.02 21.37 32.28 21.21 32.58L22.1 33.04C22.18 32.89 22.3 32.76 22.44 32.66L21.88 31.84ZM57 31.5L56.87 31.5L56.87 32.5L57 32.5C57.17 32.5 57.33 32.54 57.48 32.62L57.96 31.74C57.68 31.59 57.35 31.5 57 31.5ZM23.87 31.5L23 31.5C22.95 31.5 22.91 31.5 22.86 31.5L22.93 32.5L22.99 32.5L23.87 32.5L23.87 31.5ZM25.87 31.5L24.87 31.5L24.87 32.5L25.87 32.5L25.87 31.5ZM27.87 31.5L26.87 31.5L26.87 32.5L27.87 32.5L27.87 31.5ZM29.87 31.5L28.87 31.5L28.87 32.5L29.87 32.5L29.87 31.5ZM31.87 31.5L30.87 31.5L30.87 32.5L31.87 32.5L31.87 31.5ZM35.87 31.5L34.87 31.5L34.87 32.5L35.87 32.5L35.87 31.5ZM37.87 31.5L36.87 31.5L36.87 32.5L37.87 32.5L37.87 31.5ZM39.87 31.5L38.87 31.5L38.87 32.5L39.87 32.5L39.87 31.5ZM41.87 31.5L40.87 31.5L40.87 32.5L41.87 32.5L41.87 31.5ZM43.87 31.5L42.87 31.5L42.87 32.5L43.87 32.5L43.87 31.5ZM45.87 31.5L44.87 31.5L44.87 32.5L45.87 32.5L45.87 31.5ZM47.87 31.5L46.87 31.5L46.87 32.5L47.87 32.5L47.87 31.5ZM49.87 31.5L48.87 31.5L48.87 32.5L49.87 32.5L49.87 31.5ZM51.87 31.5L50.87 31.5L50.87 32.5L51.87 32.5L51.87 31.5ZM53.87 31.5L52.87 31.5L52.87 32.5L53.87 32.5L53.87 31.5ZM55.87 31.5L54.87 31.5L54.87 32.5L55.87 32.5L55.87 31.5ZM33.87 31.5L32.87 31.5L32.87 32.5L33.87 32.5L33.87 31.5Z" fill="#808080" fill-opacity="1.000000" fill-rule="nonzero"/>
			<path id="矩形备份-10" d="M32.5 56L47.5 56C48.05 56 48.5 56.44 48.5 57C48.5 57.55 48.05 58 47.5 58L32.5 58C31.94 58 31.5 57.55 31.5 57C31.5 56.44 31.94 56 32.5 56Z" fill="#F0F0F0" fill-opacity="1.000000" fill-rule="evenodd"/>
			<path id="矩形备份-9" d="M32.5 53L47.5 53C48.05 53 48.5 53.44 48.5 54C48.5 54.55 48.05 55 47.5 55L32.5 55C31.94 55 31.5 54.55 31.5 54C31.5 53.44 31.94 53 32.5 53Z" fill="#F0F0F0" fill-opacity="1.000000" fill-rule="evenodd"/>
			<path id="矩形" d="M32.5 50L47.5 50C48.05 50 48.5 50.44 48.5 51C48.5 51.55 48.05 52 47.5 52L32.5 52C31.94 52 31.5 51.55 31.5 51C31.5 50.44 31.94 50 32.5 50Z" fill="#F0F0F0" fill-opacity="1.000000" fill-rule="evenodd"/>
			<path id="path" d="M40 39C40.26 39 40.52 39.02 40.77 39.06L41.15 39.91C41.32 40.27 41.71 40.47 42.1 40.37L42.98 40.15C43.37 40.5 43.7 40.92 43.95 41.38L43.54 42.21C43.36 42.57 43.46 43.01 43.77 43.25L44.5 43.81C44.47 44.34 44.35 44.87 44.15 45.36L43.26 45.55C42.87 45.63 42.6 45.98 42.6 46.38L42.62 47.31C42.2 47.62 41.72 47.85 41.22 47.99L40.52 47.4C40.22 47.14 39.77 47.14 39.47 47.4L38.77 48C38.27 47.85 37.79 47.62 37.37 47.31L37.39 46.38C37.4 45.98 37.12 45.63 36.73 45.55L35.84 45.36C35.64 44.87 35.52 44.34 35.5 43.81L36.22 43.25C36.53 43.01 36.63 42.57 36.45 42.21L36.04 41.38C36.29 40.92 36.62 40.5 37.01 40.15L37.89 40.37C38.28 40.47 38.67 40.27 38.84 39.91L39.22 39.06C39.47 39.02 39.73 38.99 40 39ZM40 39.56C39.88 39.56 39.77 39.56 39.65 39.57L39.6 39.58L39.35 40.14C39.09 40.72 38.46 41.05 37.84 40.93L37.76 40.92L37.18 40.77C37.02 40.94 36.84 41.16 36.71 41.35L36.68 41.4L36.96 41.96C37.24 42.53 37.1 43.22 36.63 43.64L36.56 43.69L36.08 44.07L36.09 44.13C36.12 44.37 36.17 44.59 36.24 44.82L36.26 44.87L36.85 45C37.47 45.13 37.92 45.67 37.95 46.3L37.95 46.39L37.94 47.01C38.13 47.13 38.39 47.26 38.6 47.35L39.11 46.97C39.6 46.56 40.3 46.54 40.81 46.91L40.88 46.97L41.34 47.36C41.56 47.28 41.81 47.16 42 47.04L42.04 46.39C42.03 45.75 42.45 45.18 43.06 45.02L43.14 45L43.73 44.87L43.75 44.82C43.82 44.59 43.87 44.37 43.9 44.13L43.91 44.07L43.43 43.69C42.92 43.3 42.75 42.62 43 42.04L43.03 41.96L43.31 41.4L43.28 41.35C43.15 41.16 43.01 40.97 42.85 40.81L42.23 40.92C41.61 41.07 40.97 40.78 40.68 40.22L40.64 40.14L40.39 39.58C40.33 39.57 40.22 39.56 40.17 39.56L40 39.56Z" fill="#808080" fill-opacity="1.000000" fill-rule="nonzero"/>
			<path id="路径" d="M40 41.81C40.93 41.81 41.68 42.56 41.68 43.5C41.68 44.43 40.93 45.18 40 45.18C39.06 45.18 38.31 44.43 38.31 43.5C38.31 42.56 39.06 41.81 40 41.81ZM40 42.37C39.37 42.37 38.87 42.87 38.87 43.5C38.87 44.12 39.37 44.62 40 44.62C40.62 44.62 41.12 44.12 41.12 43.5C41.12 42.87 40.62 42.37 40 42.37Z" fill="#808080" fill-opacity="1.000000" fill-rule="nonzero"/>
		</g>
		<mask id="mask2_2114" mask-type="alpha" maskUnits="userSpaceOnUse" x="0.000000" y="0.000000" width="80.000000" height="80.000000">
			<rect id="path-1" width="80.000000" height="80.000000" fill="#FFFFFF" fill-opacity="1.000000"/>
		</mask>
		<g mask="url(#mask2_2114)">
			<path id="path" d="M31.93 69.5L48.07 69.5C48.62 69.5 49.07 69.05 49.07 68.5C49.07 68.38 49.05 68.26 49.01 68.15L47.5 64L32.52 64L30.99 68.15C30.8 68.67 31.07 69.24 31.58 69.43C31.69 69.47 31.81 69.5 31.93 69.5Z" fill="#F0F0F0" fill-opacity="1.000000" fill-rule="evenodd"/>
			<path id="path" d="M47.5 63.5L32.52 63.5C32.31 63.5 32.13 63.63 32.05 63.82L30.52 67.98C30.24 68.75 30.63 69.62 31.41 69.9C31.58 69.96 31.75 70 31.93 70L48.07 70C48.9 70 49.57 69.32 49.57 68.5C49.57 68.32 49.54 68.15 49.48 67.98L47.96 63.82C47.89 63.63 47.71 63.5 47.5 63.5ZM47.15 64.5L48.54 68.32C48.56 68.38 48.57 68.44 48.57 68.5C48.57 68.77 48.34 69 48.07 69L31.93 69C31.87 69 31.81 68.98 31.76 68.96L31.7 68.94C31.48 68.83 31.37 68.56 31.46 68.32L32.87 64.5L47.15 64.5Z" fill="#808080" fill-opacity="1.000000" fill-rule="nonzero"/>
		</g>
		<mask id="mask2_2122" mask-type="alpha" maskUnits="userSpaceOnUse" x="0.000000" y="0.000000" width="80.000000" height="80.000000">
			<rect id="path-1" width="80.000000" height="80.000000" fill="#FFFFFF" fill-opacity="1.000000"/>
		</mask>
		<g mask="url(#mask2_2122)">
			<circle id="椭圆形" cx="22.507782" cy="31.500000" r="6.000000" fill="#1476FF" fill-opacity="1.000000"/>
			<path id="形状结合" d="M24.98 29.02C25.13 29.17 25.13 29.42 24.98 29.57L23.05 31.49L24.98 33.42C25.13 33.57 25.13 33.82 24.98 33.97C24.83 34.12 24.58 34.12 24.43 33.97L22.5 32.04L20.58 33.97C20.43 34.12 20.18 34.12 20.03 33.97C19.88 33.82 19.88 33.57 20.03 33.42L21.95 31.49L20.03 29.57C19.88 29.42 19.88 29.17 20.03 29.02C20.18 28.87 20.43 28.87 20.58 29.02L22.5 30.94L24.43 29.02C24.58 28.87 24.83 28.87 24.98 29.02Z" fill="#FFFFFF" fill-opacity="1.000000" fill-rule="evenodd"/>
		</g>
	</g>
</svg>
