<svg viewBox="0 0 16 16" xmlns="http://www.w3.org/2000/svg" xmlns:xlink="http://www.w3.org/1999/xlink">
	<desc fill="none">
			Created with Pixso.
	</desc>
	<defs fill="none" />
	<g>
		<path id="path" d="M8 15C8.26953 15 8.5 14.7695 8.5 14.5C8.5 14.2207 8.26953 14 8 14L4.69043 14C3.75 14 3 13.3301 3 12.5L3 3.5C3 2.66016 3.75 2 4.69043 2L11.2998 2C12.2402 2 13 2.66016 13 3.5L13 6.16016C13 6.43945 13.2197 6.66016 13.5 6.66016C13.7695 6.66016 14 6.43945 14 6.16016L14 3.5C14 2.10938 12.7803 1 11.2998 1L4.69043 1C3.20996 1 2 2.10938 2 3.5L2 12.5C2 13.8809 3.20996 15 4.69043 15L8 15ZM5.5 5C5.21973 5 5 5.2207 5 5.5C5 5.76953 5.21973 6 5.5 6L10.5 6C10.7695 6 11 5.76953 11 5.5C11 5.2207 10.7695 5 10.5 5L5.5 5ZM15.3799 12.7402L15.4102 13.7793C15.4102 14.3496 14.9297 14.8301 14.3398 14.8301L10.0898 14.8301C9.50977 14.8301 9.03027 14.3496 9.03027 13.7793L9.03027 12.7402C9.03027 12.0996 9.5 11.5605 10.1104 11.4297L10.6602 11.3203C10.5801 11.1895 10.5195 11.0703 10.4805 10.9297C10.4805 10.9297 10.4404 10.8398 10.4404 10.8301L10.4102 10.6895C10.4004 10.5605 10.3896 10.4902 10.3896 10.4102L10.3896 9.67969L10.4004 9.58008C10.4004 9.56055 10.4199 9.41992 10.4199 9.41016C10.6602 8.58008 11.3799 8.05078 12.1797 8.05078C13.1797 8.05078 14 8.83984 14 9.82031L14 10.4102C14 10.7402 13.9102 11.0508 13.75 11.3203L14.2803 11.4297C14.9102 11.5605 15.3604 12.0996 15.3799 12.7402ZM5.5 8.16016L8.5 8.16016C8.76953 8.16016 9 8.38086 9 8.66016C9 8.92969 8.76953 9.16016 8.5 9.16016L5.5 9.16016C5.21973 9.16016 5 8.92969 5 8.66016C5 8.38086 5.21973 8.16016 5.5 8.16016ZM14.1504 12.3203C14.3398 12.3496 14.5 12.5293 14.5 12.7402L14.5303 13.7793C14.5303 13.8594 14.46 13.9199 14.3799 13.9199L10.1299 13.9199C10.0303 13.9199 9.96973 13.8594 9.96973 13.7793L9.96973 12.7402C9.96973 12.5293 10.1104 12.3496 10.3301 12.3203L11.7197 12.0195C11.9004 11.9902 12.0498 11.8301 12.0703 11.6504C12.0801 11.4609 11.9902 11.2598 11.8203 11.1797C11.5996 11.0801 11.4297 10.8906 11.3496 10.6309L11.3301 10.5098L11.3301 9.73047L11.3496 9.59961C11.46 9.23047 11.8301 8.96094 12.2402 8.96094C12.75 8.96094 13.1602 9.33984 13.1602 9.83008L13.1602 10.4102C13.1602 10.7402 12.9697 11.0293 12.6602 11.1797C12.4902 11.2598 12.3896 11.4609 12.4102 11.6504C12.4199 11.8301 12.5703 11.9902 12.75 12.0195L14.1504 12.3203Z" clip-rule="evenodd" fill-opacity="1.000000" fill-rule="evenodd"/>
	</g>
</svg>
