<svg viewBox="0 0 16 16" xmlns="http://www.w3.org/2000/svg" xmlns:xlink="http://www.w3.org/1999/xlink">
	<desc fill="none">
			Created with Pixso.
	</desc>
	<defs fill="none"/>
	<g>
		<path id="形状" d="M9.1001 1.59961C8.42017 1.24023 7.58008 1.24023 6.90015 1.59961L2.03003 4.24023C1.82007 4.35938 1.64014 4.51953 1.52002 4.73047C1.13013 5.36914 1.36011 6.18945 2.03003 6.55078L6.90015 9.17969C7.58008 9.55078 8.42017 9.55078 9.1001 9.17969L13.9702 6.55078C14.1802 6.42969 14.3601 6.25977 14.48 6.06055C14.8701 5.41992 14.6401 4.59961 13.9702 4.24023L9.1001 1.59961ZM8.62012 2.48047C8.23999 2.2793 7.76001 2.2793 7.38013 2.48047L2.51001 5.11914C2.4502 5.15039 2.41016 5.18945 2.38013 5.24023C2.29004 5.39062 2.34009 5.58008 2.51001 5.66992L7.38013 8.30078C7.77002 8.50977 8.23999 8.50977 8.62012 8.30078L13.5 5.66992C13.5601 5.64062 13.6001 5.59961 13.6301 5.54102C13.72 5.40039 13.6602 5.21094 13.5 5.11914L8.62012 2.48047ZM13.9602 8.24023C14.2102 8.10938 14.51 8.21094 14.6401 8.46094C14.76 8.69922 14.6602 9 14.4202 9.13086L9 11.9004C8.37012 12.2207 7.61011 12.2207 6.97998 11.8809L1.82007 9.11914C1.57007 9 1.47998 8.68945 1.61011 8.44922C1.73999 8.19922 2.04004 8.11914 2.28003 8.24023L7.4502 11C7.79004 11.1797 8.2002 11.1797 8.54004 11L13.9602 8.24023ZM14.6401 11.0098C14.51 10.7598 14.2102 10.6602 13.9602 10.791L8.54004 13.5605C8.2002 13.7402 7.79004 13.7305 7.4502 13.5508L2.28003 10.8008C2.04004 10.6699 1.73999 10.7598 1.61011 11C1.47998 11.2402 1.57007 11.5508 1.82007 11.6797L6.97998 14.4297C7.61011 14.7695 8.37012 14.7793 9 14.4492L14.4202 11.6797C14.6602 11.5605 14.76 11.2598 14.6401 11.0098Z" clip-rule="evenodd" fill-opacity="1.000000" fill-rule="evenodd"/>
	</g>
</svg>
