<svg viewBox="0 0 16 16" xmlns="http://www.w3.org/2000/svg" xmlns:xlink="http://www.w3.org/1999/xlink">
	<desc fill="none">
			Created with Pixso.
	</desc>
	<defs fill="none" />
	<g>
		<path id="形状结合" d="M9.37012 1.0293C9.9502 1.0293 10.46 1.35938 10.6201 1.85938L11.1201 3.61914L14.1299 3.61914C14.3799 3.61914 14.6299 3.86914 14.6299 4.11914C14.6299 4.36914 14.3799 4.61914 14.1299 4.61914L1.86035 4.61914C1.61035 4.61914 1.36035 4.36914 1.36035 4.11914C1.36035 3.86914 1.61035 3.61914 1.86035 3.61914L4.78027 3.61914L5.4502 1.85938C5.62012 1.35938 6.12012 1.0293 6.62012 1.0293L9.37012 1.0293ZM6.7002 1.94922L9.37012 1.94922C9.54004 1.94922 9.62012 2.0293 9.7002 2.10938L10.1201 3.5293L5.87012 3.5293L6.37012 2.10938C6.37012 2.0293 6.54004 1.94922 6.7002 1.94922ZM13.04 5.7793C13.04 5.5293 12.79 5.2793 12.54 5.2793C12.29 5.2793 12.04 5.5293 12.04 5.7793L12.04 13.1191C12.04 13.6191 11.6201 13.959 11.21 13.959L4.4502 13.959C3.9502 13.959 3.62012 13.5391 3.62012 13.1191L3.62012 5.7793C3.62012 5.5293 3.37012 5.2793 3.12012 5.2793C2.87012 5.2793 2.62012 5.5293 2.62012 5.7793L2.62012 13.1191C2.62012 14.1191 3.4502 14.959 4.4502 14.959L11.21 14.959C12.21 14.959 13.04 14.1191 13.04 13.1191L13.04 5.7793ZM6.28027 6.78906C6.54004 6.78906 6.79004 7.03906 6.79004 7.28906L6.79004 11.8691C6.79004 12.0391 6.7002 12.1191 6.62012 12.209C6.54004 12.2891 6.37012 12.3691 6.28027 12.3691C5.9502 12.3691 5.78027 12.1191 5.78027 11.8691L5.78027 7.28906C5.78027 7.03906 6.03027 6.78906 6.28027 6.78906ZM9.87012 7.28906C9.87012 7.03906 9.62012 6.78906 9.37012 6.78906C9.12012 6.78906 8.87012 7.03906 8.87012 7.28906L8.87012 11.8691C8.87012 12.1191 9.12012 12.3691 9.37012 12.3691C9.62012 12.3691 9.87012 12.1191 9.87012 11.8691L9.87012 7.28906Z" clip-rule="evenodd" fill-opacity="1.000000" fill-rule="evenodd"/>
	</g>
</svg>
