<?xml version="1.0" encoding="utf-8"?>
<!-- Generator: Adobe Illustrator 26.0.2, SVG Export Plug-In . SVG Version: 6.00 Build 0)  -->
<!DOCTYPE svg PUBLIC "-//W3C//DTD SVG 1.1//EN" "http://www.w3.org/Graphics/SVG/1.1/DTD/svg11.dtd" [
	<!ENTITY ns_extend "http://ns.adobe.com/Extensibility/1.0/">
	<!ENTITY ns_ai "http://ns.adobe.com/AdobeIllustrator/10.0/">
	<!ENTITY ns_graphs "http://ns.adobe.com/Graphs/1.0/">
	<!ENTITY ns_vars "http://ns.adobe.com/Variables/1.0/">
	<!ENTITY ns_imrep "http://ns.adobe.com/ImageReplacement/1.0/">
	<!ENTITY ns_sfw "http://ns.adobe.com/SaveForWeb/1.0/">
	<!ENTITY ns_custom "http://ns.adobe.com/GenericCustomNamespace/1.0/">
	<!ENTITY ns_adobe_xpath "http://ns.adobe.com/XPath/1.0/">
]>
<svg version="1.1" id="图层_1" xmlns:x="&ns_extend;" xmlns:i="&ns_ai;" xmlns:graph="&ns_graphs;"
	 xmlns="http://www.w3.org/2000/svg" xmlns:xlink="http://www.w3.org/1999/xlink" x="0px" y="0px" viewBox="0 0 16 16"
	 style="enable-background:new 0 0 16 16;" xml:space="preserve">
<style type="text/css">
	.st0{fill:none;}
</style>
<metadata>
	<sfw  xmlns="&ns_sfw;">
		<slices></slices>
		<sliceSourceBounds  bottomLeftOrigin="true" height="16" width="16" x="0" y="0"></sliceSourceBounds>
	</sfw>
</metadata>
<polygon id="Fill-1" class="st0" points="16,0 16,16 0,16 0,0 "/>
<path id="形状结合" class="st1" d="M7.7,2.7C7.5,2.8,7.5,3.1,7.7,3.4l0.1,0.1l4.4,4.4l-4.4,4.3c-0.2,0.2-0.2,0.6,0,0.8
	c0.2,0.2,0.5,0.2,0.7,0.1l0.1-0.1l4.8-4.7c0.2-0.2,0.2-0.5,0.1-0.7l-0.1-0.1L8.5,2.7C8.3,2.4,8,2.4,7.7,2.7z M2.7,2.7
	C2.5,2.8,2.5,3.1,2.6,3.4l0.1,0.1l4.4,4.4l-4.4,4.3c-0.2,0.2-0.2,0.6,0,0.8c0.2,0.2,0.5,0.2,0.7,0.1l0.1-0.1l4.8-4.7
	c0.2-0.2,0.2-0.5,0.1-0.7L8.3,7.5L3.5,2.7C3.3,2.4,2.9,2.4,2.7,2.7z"/>
</svg>
