<svg viewBox="0 0 16 16" xmlns="http://www.w3.org/2000/svg" xmlns:xlink="http://www.w3.org/1999/xlink">
	<desc fill="none">
			Created with Pixso.
	</desc>
	<defs fill="none" />
	<g>
		<path id="形状结合" d="M8.54004 2.59961C8.54004 2.32031 8.32031 2.09961 8.04004 2.09961C7.75977 2.09961 7.54004 2.32031 7.54004 2.59961L7.54004 10.959L5.51953 8.94922C5.33008 8.75 5.00977 8.75 4.80957 8.94922C4.62012 9.13867 4.62012 9.45898 4.80957 9.65039L7.63965 12.4805C7.83984 12.6797 8.15039 12.6797 8.34961 12.4805L11.1797 9.65039C11.3701 9.45898 11.3701 9.13867 11.1797 8.94922L11.1104 8.88867C10.9102 8.75 10.6396 8.76953 10.4697 8.94922L8.54004 10.8789L8.54004 2.59961ZM14 10.5C14.2695 10.5 14.5 10.7188 14.5 11L14.5 12.2793C14.5 13.5 13.5 14.5 12.2803 14.5L3.70996 14.5C2.49023 14.5 1.5 13.5 1.5 12.2793L1.5 11C1.5 10.7188 1.71973 10.5 2 10.5C2.26953 10.5 2.5 10.7188 2.5 11L2.5 12.2793C2.5 12.9492 3.04004 13.5 3.70996 13.5L12.2803 13.5C12.9502 13.5 13.5 12.9492 13.5 12.2793L13.5 11C13.5 10.7188 13.7197 10.5 14 10.5Z" clip-rule="evenodd" fill-opacity="1.000000" fill-rule="evenodd"/>
	</g>
</svg>

