<svg viewBox="0 0 16 16" xmlns="http://www.w3.org/2000/svg" xmlns:xlink="http://www.w3.org/1999/xlink">
	<desc fill="none">
			Created with Pixso.
	</desc>
	<defs fill="none" />
	<g>
		<path id="形状结合" d="M3.46973 4C3.46973 3.58008 3.13965 3.25 2.71973 3.25C2.30957 3.25 1.96973 3.58008 1.96973 4C1.96973 4.41016 2.30957 4.75 2.71973 4.75C3.13965 4.75 3.46973 4.41016 3.46973 4ZM14.0498 4C14.0498 3.7207 13.8301 3.5 13.5498 3.5L5.09961 3.5C4.83008 3.5 4.59961 3.7207 4.59961 4C4.59961 4.26953 4.83008 4.5 5.09961 4.5L13.5498 4.5C13.8301 4.5 14.0498 4.26953 14.0498 4ZM2.71973 7.25C3.13965 7.25 3.46973 7.58008 3.46973 8C3.46973 8.41016 3.13965 8.75 2.71973 8.75C2.30957 8.75 1.96973 8.41016 1.96973 8C1.96973 7.58008 2.30957 7.25 2.71973 7.25ZM14.0498 8C14.0498 7.7207 13.8301 7.5 13.5498 7.5L5.09961 7.5C4.83008 7.5 4.59961 7.7207 4.59961 8C4.59961 8.26953 4.83008 8.5 5.09961 8.5L13.5498 8.5C13.8301 8.5 14.0498 8.26953 14.0498 8ZM3.46973 12C3.46973 11.5801 3.13965 11.25 2.71973 11.25C2.30957 11.25 1.96973 11.5801 1.96973 12C1.96973 12.4102 2.30957 12.75 2.71973 12.75C3.13965 12.75 3.46973 12.4102 3.46973 12ZM13.5498 11.5C13.8301 11.5 14.0498 11.7207 14.0498 12C14.0498 12.2695 13.8301 12.5 13.5498 12.5L5.09961 12.5C4.83008 12.5 4.59961 12.2695 4.59961 12C4.59961 11.7207 4.83008 11.5 5.09961 11.5L13.5498 11.5Z" clip-rule="evenodd" fill-opacity="1.000000" fill-rule="evenodd"/>
	</g>
</svg>
