<svg width="16.000000" height="16.000000" viewBox="0 0 16 16" fill="none" xmlns="http://www.w3.org/2000/svg" xmlns:xlink="http://www.w3.org/1999/xlink">
	<desc>
			Created with Pixso.
	</desc>
	<defs/>
	<mask id="mask1_64" mask-type="alpha" maskUnits="userSpaceOnUse" x="0.000000" y="0.000000" width="16.000000" height="16.000000">
		<rect id="更多无框-more-rimless" width="16.000000" height="16.000000" fill="#C4C4C4" fill-opacity="1.000000"/>
	</mask>
	<path id="path-1-path" d="M2.55 7.96L2.55 8.04C2.57 8.69 3.1 9.2 3.75 9.2C4.41 9.2 4.95 8.67 4.95 8C4.95 7.34 4.41 6.8 3.75 6.8C3.1 6.8 2.57 7.32 2.55 7.96Z" fill="#191919" fill-opacity="1.000000" fill-rule="evenodd"/>
	<path id="path-1-path" d="M6.79 8.01C6.79 8.67 7.32 9.21 7.99 9.21C8.65 9.21 9.19 8.67 9.19 8.01C9.19 7.34 8.65 6.81 7.99 6.81C7.32 6.81 6.79 7.34 6.79 8.01Z" fill="#191919" fill-opacity="1.000000" fill-rule="evenodd"/>
	<path id="path-1-path" d="M11.03 7.96L11.03 8.04C11.05 8.68 11.58 9.2 12.23 9.2C12.89 9.2 13.43 8.66 13.43 8C13.43 7.33 12.89 6.8 12.23 6.8C11.58 6.8 11.05 7.31 11.03 7.96Z" fill="#191919" fill-opacity="1.000000" fill-rule="evenodd"/>
</svg>
