<svg viewBox="0 0 16 16" xmlns="http://www.w3.org/2000/svg" xmlns:xlink="http://www.w3.org/1999/xlink">
	<desc fill="none">
			Created with Pixso.
	</desc>
	<defs fill="none"/>
	<g>
		<path id="形状结合" d="M14 4C14 2.59961 12.7803 1.5 11.2998 1.5L4.69043 1.5C3.20996 1.5 2 2.59961 2 4L2 12C2 13.3906 3.20996 14.5 4.69043 14.5L8 14.5C8.26953 14.5 8.5 14.2695 8.5 14C8.5 13.7207 8.26953 13.5 8 13.5L4.69043 13.5C3.75 13.5 3 12.8105 3 12L3 4C3 3.17969 3.75 2.5 4.69043 2.5L11.2998 2.5C12.2402 2.5 13 3.17969 13 4L13 8C13 8.26953 13.2197 8.5 13.5 8.5C13.7695 8.5 14 8.26953 14 8L14 4ZM11 5.5C11 5.2207 10.7695 5 10.5 5L5.5 5C5.21973 5 5 5.2207 5 5.5C5 5.76953 5.21973 6 5.5 6L10.5 6C10.7695 6 11 5.76953 11 5.5ZM8.5 8.15039C8.76953 8.15039 9 8.38086 9 8.65039C9 8.92969 8.76953 9.15039 8.5 9.15039L5.5 9.15039C5.21973 9.15039 5 8.92969 5 8.65039C5 8.38086 5.21973 8.15039 5.5 8.15039L8.5 8.15039ZM12.2002 9.96094C12.5996 9.25977 13.5 9.01953 14.21 9.41992L14.2998 9.48047C14.9404 9.91016 15.1396 10.7598 14.75 11.4297L12.8701 14.6699C12.8203 14.7598 12.7305 14.8301 12.6299 14.8691L11.0098 15.4199C10.7402 15.5195 10.4502 15.3301 10.4199 15.0508L10.2598 13.4707C10.25 13.3691 10.2695 13.2793 10.3203 13.1992L12.2002 9.96094ZM12.9697 10.4102C13.1201 10.1602 13.4297 10.0605 13.7002 10.1699L13.8799 10.2891C14.0596 10.4707 14.0996 10.75 13.9697 10.9805L13.8896 11.1094L12.9004 10.5391L12.9697 10.4102ZM12.4502 11.3203L11.1699 13.5195L11.2598 14.3906L12.1699 14.0703L13.4404 11.8906L12.4502 11.3203Z" clip-rule="evenodd" fill-opacity="1.000000" fill-rule="evenodd"/>
	</g>
</svg>
