<svg viewBox="0 0 16 16" xmlns="http://www.w3.org/2000/svg" xmlns:xlink="http://www.w3.org/1999/xlink">
	<desc fill="none">
			Created with Pixso.
	</desc>
	<defs fill="none"/>
	<g>
		<path id="形状结合" d="M12.2202 5.17969C11.6802 3.2793 9.99023 1.91992 8 1.91992L7.77979 1.91992C5.81006 2.01953 4.16992 3.44922 3.70996 5.39062L3.54004 5.41016C1.97021 5.67969 0.77002 7.07031 0.77002 8.74023C0.77002 10.5996 2.25 12.1191 4.08008 12.1191C4.60986 12.1191 5.12988 11.9902 5.58984 11.7402C5.83008 11.6094 5.91992 11.3008 5.79004 11.0605C5.66016 10.8203 5.35986 10.7305 5.12012 10.8594C4.7998 11.0293 4.43994 11.1191 4.08008 11.1191C2.81006 11.1191 1.77002 10.0605 1.77002 8.74023L1.77979 8.58008C1.85986 7.40039 2.77002 6.44922 3.91992 6.38086L4.0498 6.36914L4.12988 6.36914C4.37988 6.36914 4.58984 6.18945 4.62988 5.93945C4.87012 4.20898 6.2998 2.91992 8 2.91992C9.68994 2.91992 11.1201 4.20898 11.3599 5.93945C11.3999 6.18945 11.6099 6.36914 11.8599 6.36914L11.9302 6.36914L12.0698 6.38086C13.27 6.45898 14.21 7.49023 14.21 8.74023C14.21 10.0605 13.1802 11.1191 11.9102 11.1191C11.48 11.1191 11.0698 10.9902 10.71 10.7598C10.48 10.6094 10.1602 10.6699 10.0103 10.9102C9.85986 11.1406 9.93018 11.4492 10.1602 11.5996C10.6802 11.9395 11.2798 12.1191 11.9102 12.1191C13.7402 12.1191 15.21 10.5996 15.21 8.74023L15.21 8.56055C15.1299 6.9707 13.96 5.66992 12.4502 5.41016L12.2798 5.39062L12.2202 5.17969ZM8.41016 7.01953L9.93994 8.94922C10.1201 9.16016 10.0801 9.48047 9.85986 9.65039C9.6499 9.82031 9.33008 9.78906 9.16016 9.57031L8.5 8.73047L8.5 13.5C8.5 13.7793 8.27002 14 8 14C7.72021 14 7.5 13.7793 7.5 13.5L7.5 8.75L6.81982 9.58008C6.66992 9.75977 6.3999 9.81055 6.18994 9.69922L6.12012 9.65039C5.91016 9.4707 5.87012 9.16016 6.0498 8.93945L7.62988 7.01953C7.83008 6.76953 8.20996 6.76953 8.41016 7.01953Z" clip-rule="evenodd" fill-opacity="1.000000" fill-rule="evenodd"/>
	</g>
</svg>
