<svg viewBox="0 0 16 16" xmlns="http://www.w3.org/2000/svg" xmlns:xlink="http://www.w3.org/1999/xlink">
	<desc fill="none">
			Created with Pixso.
	</desc>
	<defs fill="none"/>
	<path id="Fill 1备份 3" d="M16 0L16 16L0 16L0 0L16 0Z" fill="#FFFFFF" fill-opacity="0" fill-rule="evenodd"/>
	<path id="路径" d="M6.98 10.15C6.82 10.13 6.67 10.07 6.55 9.97L6.46 9.9L4.98 8.41C4.8 8.24 4.8 7.95 4.98 7.78C5.13 7.62 5.37 7.6 5.54 7.72L5.61 7.78L7.09 9.26L10.38 5.98C10.55 5.8 10.84 5.8 11.01 5.98C11.17 6.13 11.19 6.37 11.07 6.54L11.01 6.61L7.73 9.9C7.59 10.04 7.41 10.13 7.21 10.15L7.09 10.16L6.98 10.15Z" fill-opacity="1.000000" fill-rule="evenodd"/>
</svg>
