<svg viewBox="0 0 16 16" xmlns="http://www.w3.org/2000/svg" xmlns:xlink="http://www.w3.org/1999/xlink">
	<desc fill="none">
			Created with Pixso.
	</desc>
	<defs fill="none"/>
	<g>
		<path id="形状结合" d="M15 8C15 4.13086 11.8601 1 8 1C4.12988 1 1 4.13086 1 8C1 11.8594 4.12988 15 8 15C11.8601 15 15 11.8594 15 8ZM2 8C2 4.67969 4.67993 2 8 2C11.3101 2 14 4.67969 14 8C14 11.3105 11.3101 14 8 14C4.67993 14 2 11.3105 2 8ZM10.2 6.7207C10.2 5.49023 9.19995 4.5 7.96997 4.5C6.73999 4.5 5.75 5.49023 5.75 6.7207C5.75 6.99023 5.96997 7.2207 6.25 7.2207C6.52002 7.2207 6.75 6.99023 6.75 6.7207C6.75 6.03906 7.29004 5.5 7.96997 5.5C8.6499 5.5 9.19995 6.03906 9.19995 6.7207C9.19995 7.39062 8.6499 7.92969 7.96997 7.92969C7.69995 7.92969 7.46997 8.16016 7.46997 8.42969L7.46997 9.66016C7.46997 9.92969 7.69995 10.1602 7.96997 10.1602L8.06006 10.1504C8.30005 10.1094 8.46997 9.91016 8.46997 9.66016L8.46997 8.88086L8.59009 8.84961C9.52002 8.58008 10.2 7.73047 10.2 6.7207ZM7.92993 10.5898C8.23999 10.5898 8.5 10.8398 8.5 11.1504C8.5 11.4609 8.23999 11.7109 7.92993 11.7109C7.62012 11.7109 7.37012 11.4609 7.37012 11.1504C7.37012 10.8398 7.62012 10.5898 7.92993 10.5898Z" clip-rule="evenodd" fill-opacity="1.000000" fill-rule="evenodd"/>
	</g>
</svg>
