<?xml version="1.0" encoding="utf-8"?>
<!-- Generator: Adobe Illustrator 26.0.2, SVG Export Plug-In . SVG Version: 6.00 Build 0)  -->
<svg version="1.1" id="图层_1" xmlns="http://www.w3.org/2000/svg" xmlns:xlink="http://www.w3.org/1999/xlink" x="0px" y="0px"
	 viewBox="0 0 16 16" style="enable-background:new 0 0 16 16;" xml:space="preserve">
<style type="text/css">
	.st0{fill:#191919;}
</style>
<desc>Created with Pixso.</desc>
<path id="形状结合" class="st0" d="M7,1.3c2.1,0,3.8,1.7,3.8,3.8v0.7c1.1,0.3,1.9,1.2,1.9,2.4v4.1c0,1.4-1.1,2.5-2.5,2.5H3.7
	c-1.4,0-2.5-1.1-2.5-2.5V8.2c0-1.2,0.8-2.1,1.9-2.4V5.1C3.1,3,4.8,1.3,7,1.3z M10.2,6.7H3.7c-0.8,0-1.5,0.7-1.5,1.5v4.1
	c0,0.8,0.7,1.5,1.5,1.5h6.4c0.8,0,1.5-0.7,1.5-1.5V8.2C11.6,7.4,11,6.7,10.2,6.7z M7,8.8c0.3,0,0.5,0.2,0.5,0.5v1.8
	c0,0.3-0.2,0.5-0.5,0.5c-0.3,0-0.5-0.2-0.5-0.5V9.3C6.5,9.1,6.7,8.8,7,8.8z M7,2.3c-1.6,0-2.8,1.3-2.8,2.8v0.6h5.6V5.1
	C9.8,3.5,8.5,2.3,7,2.3z"/>
<path class="st0" d="M14.5,14.1c0,0.3-0.2,0.5-0.5,0.5c-0.3,0-0.5-0.2-0.5-0.5v-12c0-0.3,0.2-0.5,0.5-0.5c0.3,0,0.5,0.2,0.5,0.5
	V14.1z"/>
</svg>
