<svg width="24.000000" height="24.000000" viewBox="0 0 24 24" fill="none" xmlns="http://www.w3.org/2000/svg" xmlns:xlink="http://www.w3.org/1999/xlink">
	<desc>
			Created with Pixso.
	</desc>
	<defs>
		<clipPath id="clip564_168864">
			<rect id="Lightning" width="24.000000" height="24.000000" fill="white" fill-opacity="0"/>
		</clipPath>
	</defs>
	<g clip-path="url(#clip564_168864)">
		<path id="path1" d="M0 11.99C0 10.11 -0.01 8.24 0 6.36C-0.01 5.45 0.11 4.55 0.33 3.67C0.82 1.81 2.03 0.71 3.89 0.28C4.82 0.08 5.78 -0.02 6.73 0C10.32 0 13.92 0 17.52 0C18.42 -0.01 19.33 0.09 20.21 0.31C22.13 0.77 23.28 1.99 23.71 3.9C23.91 4.8 24 5.72 23.99 6.64C23.99 10.28 23.99 13.91 23.99 17.54C24 18.44 23.9 19.34 23.69 20.22C23.22 22.13 22 23.27 20.09 23.71C19.16 23.91 18.21 24.01 17.25 23.99C13.67 23.99 10.09 23.99 6.51 23.99C5.6 24 4.69 23.9 3.8 23.69C1.87 23.22 0.72 22 0.28 20.08C0.06 19.11 0 18.13 0 17.15C0 15.43 0 13.71 0 11.99Z" fill="#FFFFFF" fill-opacity="0" fill-rule="nonzero"/>
		<path id="path1" d="M0 6.36C-0.01 5.45 0.11 4.55 0.33 3.67C0.82 1.81 2.03 0.71 3.89 0.28C4.82 0.08 5.78 -0.02 6.73 0C10.32 0 13.92 0 17.52 0C18.42 -0.01 19.33 0.09 20.21 0.31C22.13 0.77 23.28 1.99 23.71 3.9C23.91 4.8 24 5.72 23.99 6.64C23.99 10.28 23.99 13.91 23.99 17.54C24 18.44 23.9 19.34 23.69 20.22C23.22 22.13 22 23.27 20.09 23.71C19.16 23.91 18.21 24.01 17.25 23.99C13.67 23.99 10.09 23.99 6.51 23.99C5.6 24 4.69 23.9 3.8 23.69C1.87 23.22 0.72 22 0.28 20.08C0.06 19.11 0 18.13 0 17.15C0 15.43 0 13.71 0 11.99C0 10.11 -0.01 8.24 0 6.36Z" stroke="#FFFFFF" stroke-opacity="0" stroke-width="1.208333"/>
		<path id="矢量 1" d="M13.56 3.08L12.82 9.81L19.08 10.49C19.28 10.51 19.45 10.61 19.58 10.77C19.71 10.93 19.76 11.11 19.74 11.32C19.73 11.39 19.72 11.46 19.69 11.52C19.66 11.59 19.62 11.65 19.58 11.71L18.35 13.24L16.63 15.39L11.76 21.46C11.63 21.63 11.46 21.72 11.25 21.74C11.05 21.76 10.86 21.71 10.7 21.58C10.6 21.5 10.53 21.4 10.48 21.28C10.43 21.16 10.41 21.04 10.43 20.91L11.17 14.18L4.91 13.5C4.71 13.48 4.54 13.39 4.41 13.23C4.28 13.06 4.23 12.88 4.25 12.67C4.26 12.6 4.27 12.53 4.3 12.47C4.33 12.4 4.37 12.34 4.41 12.29L12.23 2.53C12.36 2.36 12.53 2.27 12.74 2.25C12.94 2.23 13.13 2.28 13.29 2.41C13.39 2.49 13.46 2.59 13.51 2.71C13.54 2.77 13.55 2.83 13.56 2.89C13.57 2.95 13.57 3.01 13.56 3.08Z" fill="#191919" fill-opacity="1.000000" fill-rule="evenodd"/>
	</g>
</svg>
