<svg viewBox="0 0 16 16" xmlns="http://www.w3.org/2000/svg" xmlns:xlink="http://www.w3.org/1999/xlink">
	<desc fill="none">
			Created with Pixso.
	</desc>
	<defs fill="none" />
	<g>
		<path id="形状结合" d="M11.2998 1C11.4199 1 11.54 1.03906 11.6299 1.13086L13.8496 3.15039L13.9102 3.2207C13.9502 3.30078 14 3.41992 14 3.5L14 8C14 8.26953 13.7695 8.5 13.5 8.5C13.2197 8.5 13 8.26953 13 8L13 3.7207L11.0996 2L4.69043 2C3.7998 2 3.08008 2.59961 3 3.35938L3 12.5C3 13.3105 3.75 14 4.69043 14L8 14C8.26953 14 8.5 14.2207 8.5 14.5C8.5 14.7695 8.26953 15 8 15L4.69043 15C3.20996 15 2 13.8906 2 12.5L2 3.5C2 2.09961 3.20996 1 4.69043 1L11.2998 1ZM12.5 10.5C12.5 10.2207 12.2695 10 12 10C11.7197 10 11.5 10.2207 11.5 10.5L11.5 12L10 12C9.71973 12 9.5 12.2207 9.5 12.5C9.5 12.7695 9.71973 13 10 13L11.5 13L11.5 14.5C11.5 14.7695 11.7197 15 12 15C12.2695 15 12.5 14.7695 12.5 14.5L12.5 13L14 13C14.2695 13 14.5 12.7695 14.5 12.5C14.5 12.2207 14.2695 12 14 12L12.5 12L12.5 10.5Z" clip-rule="evenodd" fill-opacity="1.000000" fill-rule="evenodd"/>
	</g>
</svg>
