<svg viewBox="0 0 16 16" xmlns="http://www.w3.org/2000/svg" xmlns:xlink="http://www.w3.org/1999/xlink">
	<desc fill="none">
			Created with Pixso.
	</desc>
	<defs fill="none">
	</defs>
	<g>
		<path id="形状结合" d="M8 1.26C10.1 1.26 11.8 2.96 11.8 5.07L11.8 5.78C12.89 6.05 13.69 7.03 13.69 8.19L13.69 12.25C13.69 13.62 12.58 14.73 11.21 14.73L4.78 14.73C3.41 14.73 2.3 13.62 2.3 12.25L2.3 8.19C2.3 7.03 3.1 6.05 4.19 5.78L4.19 5.07C4.19 2.96 5.89 1.26 8 1.26ZM11.21 6.71L4.78 6.71C3.96 6.71 3.3 7.38 3.3 8.19L3.3 12.25C3.3 13.07 3.96 13.73 4.78 13.73L11.21 13.73C12.03 13.73 12.69 13.07 12.69 12.25L12.69 8.19C12.69 7.38 12.03 6.71 11.21 6.71ZM8 8.83C8.27 8.83 8.5 9.06 8.5 9.33L8.5 11.11C8.5 11.39 8.27 11.61 8 11.61C7.72 11.61 7.5 11.39 7.5 11.11L7.5 9.33C7.5 9.06 7.72 8.83 8 8.83ZM8 2.26C6.44 2.26 5.19 3.52 5.19 5.07L5.19 5.71L10.8 5.71L10.8 5.07C10.8 3.52 9.55 2.26 8 2.26Z" fill-opacity="1.000000" fill-rule="nonzero"/>
	</g>
</svg>
