<svg viewBox="0 0 16 16" xmlns="http://www.w3.org/2000/svg" xmlns:xlink="http://www.w3.org/1999/xlink">
	<desc fill="none">
			Created with Pixso.
	</desc>
	<defs fill="none"/>
	<g>
		<path id="形状结合" d="M12 1.5C13.3799 1.5 14.5 2.60938 14.5 4L14.5 12C14.5 13.3809 13.3799 14.5 12 14.5L4 14.5C2.61011 14.5 1.5 13.3809 1.5 12L1.5 4C1.5 2.60938 2.61011 1.5 4 1.5L12 1.5ZM4 2.5L12.1001 2.5C12.8799 2.55078 13.5 3.19922 13.5 4L13.5 11.0098L11.3201 8.91016C10.8999 8.5 10.22 8.50977 9.80005 8.92969L9.05005 9.68945C9.01001 9.7207 8.96997 9.7207 8.92993 9.68945L6.22998 7.0293C5.81006 6.61914 5.13989 6.61914 4.71997 7.0293L2.5 9.18945L2.5 4C2.5 3.16992 3.16992 2.5 4 2.5ZM10.02 4C10.8501 4 11.52 4.66992 11.52 5.5C11.52 6.32031 10.8501 7 10.02 7C9.18994 7 8.52002 6.32031 8.52002 5.5C8.52002 4.66992 9.18994 4 10.02 4ZM9.52002 5.5C9.52002 5.2207 9.75 5 10.02 5C10.3 5 10.52 5.2207 10.52 5.5C10.52 5.76953 10.3 6 10.02 6C9.75 6 9.52002 5.76953 9.52002 5.5ZM5.41992 7.75L2.51001 10.5605L2.5 12C2.5 12.7891 3.11011 13.4395 3.88989 13.4902L4 13.5L12 13.5C12.6799 13.5 13.27 13.0293 13.4399 12.3906L10.6299 9.63086C10.5901 9.59961 10.54 9.59961 10.51 9.63086L9.76001 10.4004C9.34009 10.8203 8.65991 10.8203 8.22998 10.4102L5.53003 7.75C5.5 7.7207 5.44995 7.7207 5.41992 7.75Z" clip-rule="evenodd" fill-opacity="1.000000" fill-rule="evenodd"/>
	</g>
</svg>
