<svg viewBox="0 0 16 16" xmlns="http://www.w3.org/2000/svg" xmlns:xlink="http://www.w3.org/1999/xlink">
	<desc fill="none">
			Created with Pixso.
	</desc>
	<defs fill="none" />
	<g>
		<path id="形状结合" d="M8.87012 1.18945C9.41992 1.18945 9.91992 1.47852 10.21 1.97852L10.2803 2.11914L10.6904 3.08984L10.9102 3.20898L11.9707 3.08984C12.4307 3.0293 12.9004 3.18945 13.2402 3.5293L13.3506 3.66016L13.4502 3.79883L14.3506 5.34961C14.6201 5.82031 14.6201 6.38867 14.3408 6.88867L14.25 7.0293L13.6104 7.87891L13.6104 8.10938L14.25 8.95898C14.5303 9.33984 14.6201 9.82031 14.5 10.2891L14.4502 10.4395L14.3701 10.5996L13.4707 12.1504C13.2002 12.6289 12.6904 12.9102 12.1201 12.9102L11.9707 12.9004L10.9102 12.7695L10.6904 12.9004L10.2803 13.8691C10.0908 14.2988 9.7207 14.6191 9.25 14.75L9.09082 14.7793L8.91992 14.7988L7.12012 14.7988C6.57031 14.7988 6.07031 14.5098 5.78027 14.0098L5.70996 13.8691L5.29004 12.9004L5.08008 12.7695L4.02051 12.9004C3.56055 12.959 3.09082 12.7988 2.75 12.459L2.64062 12.3301L2.54004 12.1895L1.64062 10.6387C1.37012 10.1699 1.37012 9.59961 1.65039 9.09961L1.74023 8.95898L2.38086 8.10938L2.38086 7.87891L1.74023 7.0293C1.45996 6.65039 1.37012 6.16992 1.49023 5.69922L1.54004 5.54883L1.62012 5.38867L2.51074 3.83984C2.79004 3.35938 3.30078 3.08008 3.87012 3.08008L4.02051 3.08984L5.08008 3.20898L5.29004 3.08984L5.70996 2.11914C5.90039 1.68945 6.27051 1.36914 6.74023 1.24023L6.90039 1.20898L7.08008 1.18945L8.87012 1.18945ZM6.63086 2.50977C6.7002 2.34961 6.85059 2.22852 7.03027 2.19922L7.13086 2.18945L8.87012 2.18945C9.06055 2.18945 9.24023 2.28906 9.33008 2.45898L9.37012 2.53906L9.84082 3.63867C9.88086 3.74023 9.95996 3.82031 10.0508 3.87891L10.5508 4.16016C10.6504 4.21875 10.75 4.24023 10.8604 4.22852L12.0908 4.08008C12.2705 4.05859 12.4404 4.12891 12.5605 4.26953L12.6104 4.34961L13.4902 5.84961C13.5801 6.00977 13.5801 6.20898 13.4902 6.36914L13.4307 6.44922L12.71 7.41016C12.6406 7.5 12.6104 7.59961 12.6104 7.70898L12.6104 8.2793C12.6104 8.38867 12.6406 8.5 12.71 8.58008L13.4502 9.55859C13.5605 9.70898 13.5801 9.90039 13.5205 10.0586L13.4805 10.1504L12.6104 11.6504C12.5107 11.8086 12.3408 11.9102 12.1504 11.9102L12.0605 11.9102L10.8604 11.7598C10.75 11.75 10.6504 11.7695 10.5508 11.8301L10.0508 12.1094C9.95996 12.1699 9.88086 12.25 9.84082 12.3496L9.36035 13.4785C9.29004 13.6387 9.14062 13.7598 8.95996 13.7891L8.86035 13.7988L7.12012 13.7988C6.93066 13.7988 6.75 13.6992 6.66016 13.5293L6.62012 13.4492L6.15039 12.3496C6.10059 12.25 6.03027 12.1699 5.94043 12.1094L5.44043 11.8301C5.34082 11.7695 5.24023 11.75 5.13086 11.7598L3.90039 11.9102C3.7207 11.9297 3.54004 11.8594 3.43066 11.7188L3.38086 11.6387L2.5 10.1387C2.41016 9.97852 2.41016 9.7793 2.5 9.61914L2.56055 9.53906L3.28027 8.58008C3.34082 8.5 3.38086 8.38867 3.38086 8.2793L3.38086 7.70898C3.38086 7.59961 3.34082 7.5 3.28027 7.41016L2.54004 6.42969C2.43066 6.2793 2.41016 6.08984 2.4707 5.92969L2.51074 5.83984L3.38086 4.33984C3.48047 4.17969 3.65039 4.08008 3.84082 4.08008L3.93066 4.08008L5.13086 4.22852C5.24023 4.24023 5.34082 4.21875 5.44043 4.16016L5.94043 3.87891C6.03027 3.82031 6.10059 3.74023 6.15039 3.63867L6.63086 2.50977ZM8.03027 5.37891C9.48047 5.37891 10.6504 6.54883 10.6504 8C10.6504 9.43945 9.48047 10.6094 8.03027 10.6094C6.59082 10.6094 5.41992 9.43945 5.41992 8C5.41992 6.54883 6.59082 5.37891 8.03027 5.37891ZM6.41992 8C6.41992 7.09961 7.14062 6.37891 8.03027 6.37891C8.91992 6.37891 9.65039 7.09961 9.65039 8C9.65039 8.88867 8.91992 9.60938 8.03027 9.60938C7.14062 9.60938 6.41992 8.88867 6.41992 8Z" clip-rule="evenodd" fill-opacity="1.000000" fill-rule="evenodd"/>
	</g>
</svg>
