<svg viewBox="0 0 16 16" xmlns="http://www.w3.org/2000/svg" xmlns:xlink="http://www.w3.org/1999/xlink">
	<desc fill="none">
			Created with Pixso.
	</desc>
	<defs fill="none" />
	<g>
		<path id="路径" d="M8.48047 1.08984C8.78027 1.23047 9.01953 1.48047 9.15039 1.78906L10.4102 4.95898C10.4404 5.0293 10.5 5.08008 10.5703 5.08984L13.8496 5.35938C14.54 5.41992 15.0498 6.03906 14.9902 6.75C14.9697 7.08984 14.8096 7.40039 14.5596 7.61914L12.0703 9.85938C12.0098 9.91016 11.9805 9.99023 12 10.0703L12.7598 13.4102C12.9199 14.0996 12.5098 14.7891 11.8398 14.959C11.5195 15.0391 11.1797 14.9805 10.9004 14.7988L8.08984 13.0195C8.03027 12.9805 7.95996 12.9805 7.90039 13.0195L5.08984 14.7988C4.5 15.1797 3.73047 14.9902 3.37012 14.3691C3.2002 14.0801 3.15039 13.7402 3.23047 13.4102L3.99023 10.0703C4.00977 9.99023 3.98047 9.91016 3.91992 9.84961L1.42969 7.61914C0.910156 7.16016 0.849609 6.34961 1.29004 5.81055C1.5 5.54883 1.80957 5.38867 2.13965 5.35938L5.41992 5.08984C5.49023 5.08008 5.5498 5.0293 5.58008 4.95898L6.83984 1.78906C7.11035 1.12891 7.83984 0.820312 8.48047 1.08984ZM7.76953 2.16016C7.83008 2.01953 7.95996 1.95898 8.08008 2.00977C8.11035 2.03906 8.2002 2.11914 8.21973 2.16016L9.48047 5.33008C9.65039 5.75 10.0303 6.04883 10.4902 6.08008L13.7695 6.35938C13.9004 6.36914 14.0098 6.5 13.9902 6.66992C13.9902 6.75 13.9502 6.83008 13.9004 6.87891L11.4004 9.10938C11.0703 9.41016 10.9297 9.85938 11.0303 10.2891L11.79 13.6289C11.8301 13.7988 11.7305 13.959 11.5996 13.9902C11.5498 14 11.4902 13.9902 11.4404 13.959L8.62988 12.1699C8.25 11.9199 7.75 11.9199 7.34961 12.1699L4.5498 13.959C4.4502 14.0293 4.30957 14 4.24023 13.8691C4.2002 13.7988 4.17969 13.709 4.2002 13.6289L4.95996 10.2891C5.05957 9.86914 4.91992 9.41992 4.59961 9.11914L2.08984 6.87891C1.98047 6.76953 1.95996 6.57031 2.07031 6.44922C2.11035 6.38867 2.16016 6.35938 2.23047 6.35938L5.5 6.08008C5.95996 6.03906 6.33984 5.75 6.50977 5.33008L7.76953 2.16016Z" clip-rule="evenodd" fill-opacity="1.000000" fill-rule="evenodd"/>
	</g>
</svg>
