<svg viewBox="0 0 16 16" xmlns="http://www.w3.org/2000/svg" xmlns:xlink="http://www.w3.org/1999/xlink">
	<desc fill="none">
			Created with Pixso.
	</desc>
	<defs fill="none" />
	<g>
		<path id="path" d="M8 16C3.58984 16 0 12.4004 0 8C0 3.58984 3.58984 0 8 0C12.4004 0 16 3.58984 16 8C16 12.4004 12.4004 16 8 16ZM8 1.23047C4.26953 1.23047 1.23047 4.26953 1.23047 8C1.23047 11.7207 4.26953 14.7598 8 14.7598C11.7197 14.7598 14.7598 11.7207 14.7598 8C14.7598 4.26953 11.7197 1.23047 8 1.23047ZM7.5498 10.8906C7.42969 11.0098 7.28027 11.0801 7.11035 11.0801C6.9502 11.0801 6.75977 11 6.65039 10.8906L3.86035 8.14062C3.62988 7.90039 3.62988 7.50977 3.86035 7.26953C4.11035 7.0293 4.49023 7.0293 4.73047 7.26953L7.07031 9.57031L11.2305 5.09961C11.4697 4.85938 11.8604 4.83984 12.1104 5.08008C12.3604 5.31055 12.3799 5.71094 12.1396 5.94922L7.5498 10.8906Z" clip-rule="evenodd" fill-opacity="1.000000" fill-rule="evenodd"/>
	</g>
</svg>
