<svg viewBox="0 0 16 16" xmlns="http://www.w3.org/2000/svg" xmlns:xlink="http://www.w3.org/1999/xlink">
	<desc fill="none">
			Created with Pixso.
	</desc>
	<defs fill="none" />
	<g>
		<path id="形状结合" d="M9.84082 1.13086C9.75 1.03906 9.63086 1 9.5 1L4.07031 1C3.05078 1 2.23047 1.82031 2.23047 2.83008L2.23047 13.1602C2.23047 14.1699 3.05078 15 4.07031 15L8.05078 15C8.33008 15 8.55078 14.7695 8.55078 14.5C8.55078 14.2207 8.33008 14 8.05078 14L4.07031 14C3.60059 14 3.23047 13.6191 3.23047 13.1602L3.23047 2.83008L3.24023 2.7207C3.29004 2.31055 3.64062 2 4.07031 2L9.30078 2L12.7607 5.2207L12.7607 8.51953C12.7607 8.78906 12.9805 9.01953 13.2607 9.01953C13.5303 9.01953 13.7607 8.78906 13.7607 8.51953L13.7607 5C13.7607 4.85938 13.7002 4.73047 13.6006 4.63086L9.84082 1.13086ZM11 6.5C11 6.2207 10.7705 6 10.5 6L5.5 6C5.2207 6 5 6.2207 5 6.5C5 6.76953 5.2207 7 5.5 7L10.5 7C10.7705 7 11 6.76953 11 6.5ZM7.5 9C7.77051 9 8 9.2207 8 9.5C8 9.76953 7.77051 10 7.5 10L5.5 10C5.2207 10 5 9.76953 5 9.5C5 9.2207 5.2207 9 5.5 9L7.5 9ZM13.3105 10.4004L13.3008 10.4805C12.6807 9.94922 11.8203 9.76953 11.0107 10.0508C10.2803 10.3105 9.73047 10.9004 9.52051 11.6309C9.46094 11.8398 9.58008 12.0703 9.79004 12.1309C10 12.1895 10.2305 12.0703 10.29 11.8496C10.4307 11.3691 10.79 10.9805 11.2803 10.8105C11.8008 10.6309 12.3604 10.7402 12.7607 11.0703L12.5303 11.0508C12.3105 11.0293 12.1201 11.1992 12.1006 11.4199C12.0801 11.6406 12.2402 11.8301 12.4609 11.8496L13.5801 11.9492C13.79 11.9609 13.9902 11.8008 14.0107 11.5801L14.1104 10.4707C14.1309 10.25 13.9609 10.0508 13.7402 10.0293L13.6602 10.0293C13.4805 10.0508 13.3301 10.1992 13.3105 10.4004ZM13.9209 12.4609C14.1406 12.5195 14.2607 12.7402 14.2109 12.9492C14.0107 13.7109 13.4502 14.3301 12.6904 14.5898C11.8701 14.8809 10.9805 14.6797 10.3506 14.1191C10.3301 14.3105 10.1807 14.5195 9.99023 14.5391L9.91016 14.5391C9.69043 14.5195 9.53027 14.3301 9.55078 14.1094L9.65039 12.9902C9.6709 12.7695 9.86035 12.6094 10.0801 12.6309L11.1904 12.7207C11.4102 12.7402 11.5801 12.9297 11.5605 13.1602C11.54 13.3809 11.3506 13.5391 11.1309 13.5195L10.8604 13.5C11.2705 13.8906 11.8809 14.0293 12.4307 13.8398C12.9307 13.6602 13.3105 13.25 13.4307 12.75C13.4902 12.5391 13.7109 12.4102 13.9209 12.4609Z" clip-rule="evenodd" fill-opacity="1.000000" fill-rule="evenodd"/>
	</g>
</svg>
