<?xml version="1.0" encoding="utf-8"?>
<!-- Generator: Adobe Illustrator 26.0.2, SVG Export Plug-In . SVG Version: 6.00 Build 0)  -->
<svg version="1.1" id="图层_1" xmlns="http://www.w3.org/2000/svg" xmlns:xlink="http://www.w3.org/1999/xlink" x="0px" y="0px"
	 viewBox="0 0 16 16" style="enable-background:new 0 0 16 16;" xml:space="preserve">
<desc>Created with Pixso.</desc>
<path id="形状结合" class="st0" d="M8,1.3c1.7,0,3.2,1.1,3.6,2.7c0.1,0.3-0.1,0.5-0.3,0.6c-0.3,0.1-0.5-0.1-0.6-0.3
	c-0.3-1.2-1.4-2-2.7-2c-1.6,0-2.8,1.3-2.8,2.8v0.6h6c1.3,0,2.4,1.1,2.5,2.4v0.1v4.1c0,1.4-1.1,2.5-2.5,2.5H4.8
	c-1.4,0-2.5-1.1-2.5-2.5V8.2c0-1.2,0.8-2.1,1.9-2.4V5.1C4.2,3,5.9,1.3,8,1.3z M11.2,6.7H4.8C4,6.7,3.3,7.4,3.3,8.2v4.1
	c0,0.8,0.7,1.5,1.5,1.5h6.4c0.8,0,1.5-0.7,1.5-1.5V8.2C12.7,7.4,12,6.7,11.2,6.7z M8,8.8c0.3,0,0.5,0.2,0.5,0.5v1.8
	c0,0.3-0.2,0.5-0.5,0.5c-0.3,0-0.5-0.2-0.5-0.5V9.3C7.5,9.1,7.7,8.8,8,8.8z"/>
</svg>
