<svg viewBox="0 0 16 16" xmlns="http://www.w3.org/2000/svg" xmlns:xlink="http://www.w3.org/1999/xlink">
	<desc fill="none">
			Created with Pixso.
	</desc>
	<defs fill="none"/>
	<path id="形状" d="M8.59961 9.5C8.59961 9.80078 8.29883 10.0996 8 10.0996C7.79883 10.0996 7.64844 10.0508 7.54883 9.94922C7.44922 9.84961 7.39844 9.69922 7.39844 9.5L7.39844 5.59961C7.39844 5.30078 7.69922 5 8 5C8.29883 5 8.59961 5.30078 8.59961 5.59961L8.59961 9.5ZM8 13C8.39844 13 8.79883 12.5996 8.79883 12.1992C8.79883 11.6992 8.39844 11.3008 8 11.3008C7.59961 11.3008 7.19922 11.6992 7.19922 12.1992C7.19922 12.5996 7.59961 13 8 13Z" clip-rule="evenodd" fill-opacity="1.000000" fill-rule="evenodd"/>
</svg>
