<svg width="72.000000" height="72.000000" viewBox="0 0 72 72" fill="none" xmlns="http://www.w3.org/2000/svg" xmlns:xlink="http://www.w3.org/1999/xlink">
	<desc>
			Created with Pixso.
	</desc>
	<defs>
		<clipPath id="clip117_1293">
			<rect id="1#交通事件检测-SDC" width="72.000000" height="72.000000" fill="white" fill-opacity="0"/>
		</clipPath>
	</defs>
	<g clip-path="url(#clip117_1293)">
		<path id="矩形备份-19" d="M16 0L56 0C64.8 0 72 7.2 72 16L72 56C72 64.8 64.8 72 56 72L16 72C7.2 72 0 64.8 0 56L0 16C0 7.2 7.2 0 16 0Z" fill="#F85835" fill-opacity="1.000000" fill-rule="evenodd"/>
		<path id="合并" d="M36 12.17C20.5 12.17 14.19 17.47 12.6 19.13C12.51 19.22 12.43 19.32 12.37 19.43C12.23 19.68 12.17 19.97 12.17 20.27L12.17 30.19L12.17 31.28C12.17 31.77 12.26 32.26 12.52 32.68C13 33.47 14.07 34.86 16.15 36.29C16.32 45.95 20.85 59.82 36 59.82C51.14 59.82 55.68 45.95 55.85 36.29C57.92 34.86 58.99 33.47 59.47 32.68C59.73 32.26 59.82 31.77 59.82 31.28L59.82 20.26C59.82 19.84 59.69 19.43 59.39 19.13C57.8 17.47 51.49 12.17 36 12.17ZM55.17 33.09C55.87 32.51 56.43 31.9 56.84 31.27L56.84 27C53.54 24.84 47.15 22.1 35.99 22.1C24.84 22.1 18.45 24.84 15.15 27L15.15 31.27C15.57 31.91 16.12 32.51 16.82 33.09C17.12 32.82 17.52 32.67 18.01 32.42C19.23 31.81 20.99 30.65 23.15 30.09C26.62 29.18 31.1 28.05 36 28.05C40.89 28.05 45.38 29.18 48.84 30.09C51 30.65 52.76 31.81 53.98 32.42C54.47 32.67 54.87 32.82 55.17 33.09ZM36 41.95C31.61 41.95 28.05 45.06 28.05 48.9C28.05 52.74 31.61 55.85 36 55.85C40.38 55.85 43.94 52.74 43.94 48.9C43.94 45.06 40.38 41.95 36 41.95ZM36 43.47C33.53 43.47 31.53 45.47 31.53 47.94C31.53 50.4 33.53 52.4 36 52.4C38.46 52.4 40.46 50.4 40.46 47.94C40.46 45.47 38.46 43.47 36 43.47Z" fill="#FFFFFF" fill-opacity="1.000000" fill-rule="evenodd"/>
	</g>
</svg>
