<svg width="72.000000" height="72.000000" viewBox="0 0 72 72" fill="none" xmlns="http://www.w3.org/2000/svg" xmlns:xlink="http://www.w3.org/1999/xlink">
	<desc>
			Created with Pixso.
	</desc>
	<defs>
		<clipPath id="clip117_1294">
			<rect id="2#视频监控管理-NVR" width="72.000000" height="72.000000" fill="white" fill-opacity="0"/>
		</clipPath>
	</defs>
	<g clip-path="url(#clip117_1294)">
		<path id="矩形备份-19" d="M16 0L56 0C64.8 0 72 7.2 72 16L72 56C72 64.8 64.8 72 56 72L16 72C7.2 72 0 64.8 0 56L0 16C0 7.2 7.2 0 16 0Z" fill="#1476FF" fill-opacity="1.000000" fill-rule="evenodd"/>
		<path id="减去顶层" d="M44.87 19.25L17 19.25C14.23 19.25 12 21.49 12 24.25L12 47.74C12 50.5 14.23 52.74 17 52.74L44.87 52.74C47.63 52.74 49.87 50.5 49.87 47.74L49.87 42.3L56.84 47.22C58.17 48.15 59.99 47.2 59.99 45.58L59.99 25.92C59.99 24.41 58.37 23.44 57.04 24.17L49.87 28.08L49.87 24.25C49.87 21.49 47.63 19.25 44.87 19.25ZM21.93 36C21.93 31.03 25.96 27 30.93 27C35.9 27 39.93 31.03 39.93 36C39.93 38.21 39.13 40.24 37.8 41.81C36.9 41.01 35.87 40.11 34.72 39.12C34.61 39.02 34.48 38.95 34.35 38.9C34.23 38.85 34.1 38.83 33.96 38.83C33.83 38.83 33.71 38.84 33.6 38.88C33.47 38.91 33.36 38.97 33.25 39.05C33.14 39.13 33.05 39.22 32.97 39.32C32.9 39.42 32.84 39.53 32.8 39.65C32.76 39.78 32.74 39.91 32.74 40.04C32.74 40.18 32.77 40.32 32.82 40.46C33.38 41.9 33.89 43.19 34.36 44.32C33.3 44.76 32.14 45 30.93 45C25.96 45 21.93 40.97 21.93 36ZM28.43 35.99C28.43 34.61 29.55 33.49 30.93 33.49C32.31 33.49 33.43 34.61 33.43 35.99C33.43 37.38 32.31 38.49 30.93 38.49C29.55 38.49 28.43 37.38 28.43 35.99ZM39.81 48.35C40.71 47.71 40.93 46.46 40.29 45.56C39.8 44.87 36.1 41.64 34.36 40.14C34.12 39.93 33.78 40.18 33.89 40.47C34.73 42.61 36.54 47.18 37.02 47.87C37.66 48.77 38.91 48.98 39.81 48.35Z" fill="#FFFFFF" fill-opacity="1.000000" fill-rule="evenodd"/>
	</g>
</svg>
