<svg width="80.000000" height="80.000000" viewBox="0 0 80 80" fill="none" xmlns="http://www.w3.org/2000/svg" xmlns:xlink="http://www.w3.org/1999/xlink">
	<desc>
			Created with Pixso.
	</desc>
	<defs>
		<clipPath id="clip2_1972">
			<rect id="1#没有访问权限-no-access" width="80.000000" height="80.000000" fill="white" fill-opacity="0"/>
		</clipPath>
	</defs>
	<g clip-path="url(#clip2_1972)">
		<path id="形状结合备份" d="M43.37 23.5C50.63 23.5 56.96 27.47 60.31 33.36C61.67 32.95 63.12 32.73 64.62 32.73C72.83 32.73 79.5 39.39 79.5 47.61C79.5 55.83 72.83 62.5 64.62 62.5L42.81 62.5L37.31 62.49C37.2 62.49 37.09 62.49 36.98 62.49L30.51 62.49C30.43 62.49 30.35 62.49 30.27 62.49L23.19 62.5C16.18 62.5 10.5 56.63 10.5 49.39C10.5 42.15 16.18 36.28 23.19 36.28C23.82 36.28 24.43 36.33 25.04 36.42C27.73 28.89 34.92 23.5 43.37 23.5Z" fill="#F0F0F0" fill-opacity="1.000000" fill-rule="evenodd"/>
		<path id="形状结合备份" d="M43.39 23.5L43.14 23.5C35.05 23.6 27.94 28.62 25.09 36.01L25.02 36.21L25.24 36.24C24.62 36.15 23.99 36.1 23.36 36.1C16.25 36.1 10.5 42.01 10.5 49.3C10.5 56.59 16.25 62.5 23.36 62.5L42.81 62.49L64.46 62.5C72.76 62.5 79.5 55.8 79.5 47.55C79.5 39.29 72.76 32.6 64.46 32.6L64.12 32.6C62.86 32.63 61.62 32.81 60.43 33.14L60.31 33.17L60.16 32.92C56.65 27.13 50.33 23.5 43.39 23.5ZM43.39 24.04C50.31 24.04 56.59 27.75 59.95 33.63C60.01 33.74 60.14 33.79 60.26 33.76C61.61 33.35 63.02 33.14 64.46 33.14C72.46 33.14 78.95 39.59 78.95 47.55L78.95 47.78C78.82 55.63 72.38 61.95 64.46 61.95L42.83 61.95L23.36 61.95C16.56 61.95 11.04 56.29 11.04 49.3C11.04 42.31 16.56 36.65 23.36 36.65C23.96 36.65 24.56 36.69 25.16 36.78C25.28 36.8 25.41 36.73 25.45 36.61L25.52 36.42C28.25 29.05 35.34 24.04 43.39 24.04Z" fill="#808080" fill-opacity="1.000000" fill-rule="nonzero"/>
		<path id="形状结合" d="M35.39 15.5C43.04 15.5 49.72 19.67 53.25 25.87C54.69 25.43 56.22 25.2 57.8 25.2C66.47 25.2 73.49 32.2 73.49 40.85C73.49 49.49 66.47 56.5 57.8 56.5L57.73 56.49L34.78 56.5C34.75 56.5 34.72 56.47 34.72 56.43L33.13 56.43C33 56.43 32.87 56.43 32.74 56.43L26.04 56.43C25.93 56.43 25.83 56.43 25.73 56.43L19.03 56.43C18.96 56.43 18.89 56.43 18.83 56.43L13.83 56.43C6.47 56.43 0.49 50.34 0.49 42.81C0.49 35.29 6.47 29.19 13.83 29.19C14.55 29.19 15.26 29.25 15.95 29.36C18.7 21.29 26.36 15.5 35.39 15.5Z" fill="#FFFFFF" fill-opacity="1.000000" fill-rule="evenodd"/>
		<path id="形状结合" d="M35.39 15.5C43.04 15.5 49.72 19.67 53.25 25.87C54.69 25.43 56.22 25.2 57.8 25.2C66.47 25.2 73.49 32.2 73.49 40.85C73.49 49.4 66.61 56.35 58.06 56.49L57.73 56.5L34.78 56.5C34.75 56.5 34.72 56.47 34.72 56.43L13.83 56.43C6.47 56.43 0.49 50.34 0.49 42.81C0.49 35.29 6.47 29.19 13.83 29.19C14.55 29.19 15.26 29.25 15.95 29.36C18.7 21.3 26.36 15.5 35.39 15.5ZM35.39 16.59C27 16.59 19.63 21.93 16.97 29.72L16.68 30.59L15.77 30.44C15.14 30.34 14.49 30.29 13.83 30.29C7.07 30.29 1.58 35.89 1.58 42.81C1.58 49.73 7.07 55.34 13.83 55.34L33.93 55.34L35.81 55.34L35.81 55.4L57.8 55.4C65.87 55.4 72.41 48.88 72.41 40.85C72.41 32.81 65.87 26.3 57.8 26.3C56.34 26.3 54.92 26.51 53.56 26.92L52.74 27.17L52.31 26.41C48.87 20.39 42.46 16.59 35.39 16.59Z" fill="#808080" fill-opacity="1.000000" fill-rule="nonzero"/>
		<path id="形状结合" d="M37 31.5C39.62 31.5 41.75 33.61 41.75 36.21C41.75 38.03 40.71 39.6 39.19 40.39L41.48 47.2C41.58 47.52 41.41 47.86 41.1 47.96C41.04 47.98 40.97 48 40.91 48L33.08 48C32.75 48 32.48 47.73 32.48 47.39C32.48 47.33 32.49 47.26 32.51 47.2L34.8 40.39C33.28 39.6 32.25 38.03 32.25 36.21C32.25 33.61 34.37 31.5 37 31.5Z" fill="#1476FF" fill-opacity="1.000000" fill-rule="evenodd"/>
		<path id="形状" d="M64.55 6.33C67.72 8.99 68.32 14.27 66.46 21.2L65.9 21.06C67.71 14.32 67.13 9.25 64.17 6.77C59.36 2.73 48.96 6.2 37.62 15.5L37.26 15.05C48.79 5.6 59.44 2.04 64.55 6.33ZM31.72 65.96L32.04 66.44L31.48 66.82C22.28 72.88 14.39 74.59 10.21 71.08C7.11 68.48 6.92 63.6 9.08 55.95L9.63 56.1C7.53 63.56 7.72 68.23 10.58 70.64C14.59 73.99 22.47 72.2 31.72 65.96Z" fill="#808080" fill-opacity="1.000000" fill-rule="nonzero"/>
		<path id="形状" d="M64.51 6.32C67.68 8.97 68.28 14.25 66.42 21.18L65.89 21.04C67.7 14.29 67.12 9.22 64.16 6.74C59.34 2.69 48.93 6.17 37.59 15.47L37.25 15.04C48.77 5.59 59.41 2.04 64.51 6.32ZM31.7 65.95L32.01 66.4L31.44 66.78C22.25 72.84 14.37 74.55 10.2 71.05C7.1 68.45 6.91 63.58 9.07 55.93L9.6 56.08C7.49 63.54 7.68 68.21 10.55 70.62C14.56 73.99 22.45 72.19 31.7 65.95Z" fill="#808080" fill-opacity="1.000000" fill-rule="nonzero"/>
		<ellipse id="椭圆形" rx="1.916779" ry="1.902475" transform="matrix(-1 0 0 1 65.7778 20.4622)" fill="#808080" fill-opacity="1.000000"/>
		<ellipse id="椭圆形备份" rx="1.916776" ry="1.902473" transform="matrix(-1 0 0 1 30.6369 66.8887)" fill="#808080" fill-opacity="1.000000"/>
	</g>
</svg>
