<svg width="80.000000" height="80.000000" viewBox="0 0 80 80" fill="none" xmlns="http://www.w3.org/2000/svg" xmlns:xlink="http://www.w3.org/1999/xlink">
	<desc>
			Created with Pixso.
	</desc>
	<defs>
		<clipPath id="clip2_1970">
			<rect id="10#服务未开通-service-not-opened" width="80.000000" height="80.000000" fill="white" fill-opacity="0"/>
		</clipPath>
	</defs>
	<g clip-path="url(#clip2_1970)">
		<path id="路径" d="M69.93 19C72.18 19 74 20.81 74 23.04L74 67.95C74 70.18 72.18 72 69.93 72L10.06 72C7.81 72 6 70.18 6 67.95L6 23.04C6 20.81 7.81 19 10.06 19L69.93 19Z" fill="#FFFFFF" fill-opacity="1.000000" fill-rule="nonzero"/>
		<path id="矩形" d="M69.93 19C72.18 19 74 20.81 74 23.04L74 67.95C74 70.18 72.18 72 69.93 72L10.06 72C7.81 72 6 70.18 6 67.95L6 23.04C6 20.81 7.81 19 10.06 19L69.93 19ZM69.93 20.1L10.06 20.1C8.42 20.1 7.09 21.42 7.09 23.05L7.09 67.94C7.09 69.57 8.42 70.89 10.06 70.89L69.93 70.89C71.57 70.89 72.9 69.57 72.9 67.94L72.9 23.05C72.9 21.42 71.57 20.1 69.93 20.1Z" fill="#808080" fill-opacity="1.000000" fill-rule="nonzero"/>
		<path id="矩形" d="M9.05 19L70.94 19C72.63 19 74 20.36 74 22.05L74 31L6 31L6 22.05C6 20.36 7.36 19 9.05 19Z" fill="#F0F0F0" fill-opacity="1.000000" fill-rule="evenodd"/>
		<path id="矩形" d="M70.95 19C72.63 19 74 20.39 74 22.1L74 31L6 31L6 22.1C6 20.39 7.36 19 9.04 19L70.95 19ZM70.95 20.11L9.04 20.11C7.96 20.11 7.09 21 7.09 22.1L7.09 29.88L72.9 29.88L72.9 22.1C72.9 21.04 72.08 20.17 71.05 20.12L70.95 20.11Z" fill="#808080" fill-opacity="1.000000" fill-rule="nonzero"/>
		<circle id="椭圆形" cx="59.750000" cy="25.000000" r="1.250000" fill="#808080" fill-opacity="1.000000"/>
		<circle id="椭圆形" cx="64.250000" cy="25.000000" r="1.250000" fill="#808080" fill-opacity="1.000000"/>
		<circle id="椭圆形" cx="68.750000" cy="25.000000" r="1.250000" fill="#808080" fill-opacity="1.000000"/>
		<path id="形状" d="M18.9 43.23C19.9 43.12 20.71 42.3 20.82 41.29C20.97 39.96 19.94 38.84 18.65 38.84C17.44 38.84 16.46 39.82 16.46 41.04C16.46 42.34 17.58 43.38 18.9 43.23ZM18.65 43.32C16.28 43.32 14.28 44.72 14.28 46.39L14.28 47.34C14.28 47.51 14.42 47.65 14.59 47.65L22.71 47.65C22.88 47.65 23.02 47.51 23.02 47.34L23.02 46.39C23.02 44.72 21.02 43.32 18.65 43.32Z" fill="#F0F0F0" fill-opacity="1.000000" fill-rule="evenodd"/>
		<path id="形状备份" d="M34.87 43.23C35.87 43.12 36.68 42.3 36.79 41.29C36.94 39.96 35.91 38.84 34.62 38.84C33.41 38.84 32.44 39.82 32.44 41.04C32.44 42.34 33.55 43.38 34.87 43.23ZM34.62 43.32C32.25 43.32 30.25 44.72 30.25 46.39L30.25 47.34C30.25 47.51 30.39 47.65 30.56 47.65L38.68 47.65C38.85 47.65 38.99 47.51 38.99 47.34L38.99 46.39C38.99 44.72 36.99 43.32 34.62 43.32Z" fill="#F0F0F0" fill-opacity="1.000000" fill-rule="evenodd"/>
		<path id="形状备份-2" d="M50.84 43.23C51.85 43.12 52.66 42.3 52.77 41.29C52.91 39.96 51.88 38.84 50.6 38.84C49.39 38.84 48.41 39.82 48.41 41.04C48.41 42.34 49.52 43.38 50.84 43.23ZM50.6 43.32C48.23 43.32 46.22 44.72 46.22 46.39L46.22 47.34C46.22 47.51 46.36 47.65 46.54 47.65L54.65 47.65C54.83 47.65 54.97 47.51 54.97 47.34L54.97 46.39C54.97 44.72 52.96 43.32 50.6 43.32Z" fill="#F0F0F0" fill-opacity="1.000000" fill-rule="evenodd"/>
		<rect id="矩形备份-32" x="13.250000" y="53.500000" rx="1.500000" width="44.750000" height="3.000000" fill="#F0F0F0" fill-opacity="1.000000"/>
		<rect id="矩形备份-34" x="13.250000" y="60.500000" rx="1.500000" width="26.000000" height="3.000000" fill="#F0F0F0" fill-opacity="1.000000"/>
		<circle id="椭圆形" cx="72.000000" cy="56.813721" r="8.000000" fill="#1476FF" fill-opacity="1.000000"/>
		<path id="形状" d="M74.93 55.77L74.28 55.77L74.28 54.27C74.28 53.02 73.26 52 71.99 52C70.73 52 69.71 53.02 69.71 54.27L69.71 55.77L69.06 55.77C68.75 55.77 68.5 56.02 68.5 56.33L68.5 60.43C68.5 60.74 68.75 61 69.06 61L74.93 61C75.24 61 75.5 60.74 75.5 60.43L75.5 56.33C75.5 56.02 75.24 55.77 74.93 55.77ZM72.31 58.49L72.31 59.38C72.31 59.42 72.28 59.46 72.24 59.46L71.75 59.46C71.71 59.46 71.68 59.42 71.68 59.38L71.68 58.49C71.45 58.37 71.29 58.14 71.29 57.87C71.29 57.48 71.61 57.17 72 57.17C72.38 57.17 72.7 57.48 72.7 57.87C72.7 58.14 72.54 58.37 72.31 58.49ZM73.4 55.77L70.59 55.77L70.59 54.31C70.59 53.53 71.22 52.91 72 52.91C72.77 52.91 73.4 53.53 73.4 54.31L73.4 55.77Z" fill="#FFFFFF" fill-opacity="1.000000" fill-rule="nonzero"/>
	</g>
</svg>
