<svg width="80.000000" height="80.000000" viewBox="0 0 80 80" fill="none" xmlns="http://www.w3.org/2000/svg" xmlns:xlink="http://www.w3.org/1999/xlink">
	<desc>
			Created with Pixso.
	</desc>
	<defs>
		<clipPath id="clip2_1984">
			<rect id="11#运行状态良好-running-well" width="80.000000" height="80.000000" fill="white" fill-opacity="0"/>
		</clipPath>
	</defs>
	<g clip-path="url(#clip2_1984)">
		<path id="路径" d="M67.75 19.31C70.05 19.31 71.88 21.14 71.88 23.43L71.88 69.2C71.88 71.49 70.05 73.33 67.75 73.33L6.63 73.33C4.33 73.33 2.5 71.49 2.5 69.2L2.5 23.43C2.5 21.14 4.33 19.31 6.63 19.31L67.75 19.31Z" fill="#FFFFFF" fill-opacity="1.000000" fill-rule="nonzero"/>
		<path id="矩形_00000111912276697240945250000018053816196345658795_" d="M5.61 19.31L68.77 19.31C70.51 19.31 71.88 20.68 71.88 22.42L71.88 31.54L2.5 31.54L2.5 22.42C2.5 20.68 3.87 19.31 5.61 19.31Z" fill="#F0F0F0" fill-opacity="1.000000" fill-rule="evenodd"/>
		<path id="形状结合" d="M68.77 19.31C70.51 19.31 71.88 20.73 71.88 22.47L71.88 69.2C71.88 71.49 70.05 73.33 67.75 73.33L6.63 73.33C4.33 73.33 2.5 71.49 2.5 69.2L2.5 22.47C2.5 20.73 3.87 19.31 5.61 19.31L68.77 19.31ZM70.71 31.54L3.62 31.54L3.62 69.2C3.62 70.88 5 72.21 6.63 72.21L67.7 72.21C69.38 72.21 70.71 70.88 70.71 69.2L70.71 31.54ZM67.75 20.43L6.63 20.43C4.94 20.43 3.62 21.75 3.62 23.43L3.62 30.37L70.71 30.37L70.71 23.28C70.67 21.72 69.38 20.43 67.75 20.43ZM7.85 24.15C8.56 24.15 9.13 24.72 9.13 25.42C9.13 26.13 8.56 26.7 7.85 26.7C7.15 26.7 6.58 26.13 6.58 25.42C6.58 24.72 7.15 24.15 7.85 24.15ZM12.44 24.15C13.15 24.15 13.72 24.72 13.72 25.42C13.72 26.13 13.15 26.7 12.44 26.7C11.74 26.7 11.17 26.13 11.17 25.42C11.17 24.72 11.74 24.15 12.44 24.15ZM17.04 24.15C17.74 24.15 18.31 24.72 18.31 25.42C18.31 26.13 17.74 26.7 17.04 26.7C16.33 26.7 15.76 26.13 15.76 25.42C15.76 24.72 16.33 24.15 17.04 24.15Z" fill="#808080" fill-opacity="1.000000" fill-rule="nonzero"/>
		<path id="形状结合" d="M16.78 52.94L41.98 52.94C43.11 52.94 44.03 53.86 44.03 54.98C44.03 56.1 43.11 57.02 41.98 57.02L16.78 57.02C15.66 57.02 14.74 56.1 14.74 54.98C14.74 53.86 15.66 52.94 16.78 52.94ZM16.78 44.79L57.6 44.79C58.72 44.79 59.64 45.71 59.64 46.83C59.64 47.95 58.72 48.87 57.6 48.87L16.78 48.87C15.66 48.87 14.74 47.95 14.74 46.83C14.74 45.71 15.66 44.79 16.78 44.79Z" fill="#DBDBDB" fill-opacity="1.000000" fill-rule="evenodd"/>
		<ellipse id="椭圆形_00000021083924505077242550000011783633775235817856_" cx="69.336731" cy="19.820984" rx="8.163265" ry="8.154269" fill="#1476FF" fill-opacity="1.000000"/>
		<path id="c" d="M65.71 24C65.15 24 64.69 23.54 64.64 22.98L64.64 22.87L64.64 19.36C64.64 18.8 65.1 18.29 65.66 18.24L65.76 18.24L66.88 18.24L67.6 17.57C67.9 17.32 68.11 16.96 68.21 16.55L68.21 16.45L68.41 15.33C68.52 14.72 69.13 14.41 69.69 14.67C70.35 14.97 70.76 15.69 70.71 16.45L70.71 16.55L70.56 17.47C70.56 17.47 70.3 18.64 70.15 18.69C70 18.75 69.94 18.9 69.79 18.9C69.64 18.9 69.38 18.69 69.48 18.44L69.74 17.78L69.84 17.37L70 16.5C70.05 16.04 69.79 15.54 69.38 15.38C69.28 15.33 69.13 15.38 69.13 15.48L68.92 16.71C68.82 17.22 68.57 17.73 68.21 18.08L68.01 18.13L67.34 18.8L67.34 23.28L71.98 23.28C72.34 23.28 72.65 23.08 72.7 22.72L73.26 19.92C73.36 19.46 73.01 19.05 72.6 19L69.79 19C69.59 19 69.43 18.85 69.43 18.64C69.43 18.49 69.59 18.34 69.74 18.29L72.55 18.29C73.41 18.29 74.13 19.1 73.97 19.97L73.97 20.07L73.41 22.77C73.26 23.43 72.75 23.89 72.09 23.94L71.98 23.94L65.71 24ZM66.63 19L65.76 19C65.56 19 65.4 19.15 65.35 19.36L65.35 22.87C65.35 23.08 65.51 23.23 65.71 23.28L66.63 23.28L66.63 19Z" fill="#FFFFFF" fill-opacity="1.000000" fill-rule="nonzero"/>
	</g>
</svg>
