<svg width="80.000000" height="80.000000" viewBox="0 0 80 80" fill="none" xmlns="http://www.w3.org/2000/svg" xmlns:xlink="http://www.w3.org/1999/xlink">
	<desc>
			Created with Pixso.
	</desc>
	<defs>
		<clipPath id="clip2_1985">
			<rect id="12#域名系统安全扩展-security-extension" width="80.000000" height="80.000000" fill="white" fill-opacity="0"/>
		</clipPath>
	</defs>
	<g clip-path="url(#clip2_1985)">
		<rect id="矩形" rx="2.000000" width="60.000000" height="50.000000" transform="matrix(-1 0 0 1 75.5107 13)" fill="#F0F0F0" fill-opacity="1.000000"/>
		<path id="矩形" d="M17.26 13L73.26 13C74.5 13 75.51 14 75.51 15.25L75.51 61.25C75.51 62.49 74.5 63.5 73.26 63.5L17.26 63.5C16.01 63.5 15.01 62.49 15.01 61.25L15.01 15.25C15.01 14 16.01 13 17.26 13ZM17.26 13.5C16.29 13.5 15.51 14.28 15.51 15.25L15.51 61.25C15.51 62.21 16.29 63 17.26 63L73.26 63C74.22 63 75.01 62.21 75.01 61.25L75.01 15.25C75.01 14.28 74.22 13.5 73.26 13.5L17.26 13.5Z" fill="#808080" fill-opacity="1.000000" fill-rule="nonzero"/>
		<rect id="矩形备份-13" rx="2.000000" width="60.000000" height="50.000000" transform="matrix(-1 0 0 1 65 22.5493)" fill="#FFFFFF" fill-opacity="1.000000"/>
		<path id="矩形备份-13" d="M7 22.04L63 22.04C64.37 22.04 65.5 23.16 65.5 24.54L65.5 70.54C65.5 71.92 64.37 73.04 63 73.04L7 73.04C5.6 73.04 4.5 71.92 4.5 70.54L4.5 24.54C4.5 23.16 5.6 22.04 7 22.04ZM7 23.04C6.16 23.04 5.5 23.72 5.5 24.54L5.5 70.54C5.5 71.37 6.16 72.04 7 72.04L63 72.04C63.82 72.04 64.5 71.37 64.5 70.54L64.5 24.54C64.5 23.72 63.82 23.04 63 23.04L7 23.04Z" fill="#808080" fill-opacity="1.000000" fill-rule="nonzero"/>
		<path id="椭圆形备份-7" d="M22.81 27.4C23.16 27.4 23.47 27.54 23.7 27.76C23.92 27.99 24.06 28.3 24.06 28.65C24.06 28.99 23.92 29.3 23.7 29.53C23.47 29.76 23.16 29.9 22.81 29.9C22.47 29.9 22.16 29.76 21.93 29.53C21.7 29.3 21.56 28.99 21.56 28.65C21.56 28.3 21.7 27.99 21.93 27.76C22.16 27.54 22.47 27.4 22.81 27.4Z" fill="#DBDBDB" fill-opacity="1.000000" fill-rule="nonzero"/>
		<path id="椭圆形备份-24" d="M17.62 27.4C17.96 27.4 18.29 27.54 18.51 27.76C18.74 27.99 18.87 28.3 18.87 28.65C18.87 28.99 18.74 29.3 18.51 29.53C18.29 29.76 17.96 29.9 17.62 29.9C17.28 29.9 16.96 29.76 16.74 29.53C16.52 29.3 16.37 28.99 16.37 28.65C16.37 28.3 16.52 27.99 16.74 27.76C16.96 27.54 17.28 27.4 17.62 27.4Z" fill="#DBDBDB" fill-opacity="1.000000" fill-rule="nonzero"/>
		<path id="椭圆形备份-25" d="M12.75 27.4C13.09 27.4 13.4 27.54 13.63 27.76C13.85 27.99 14 28.3 14 28.65C14 28.99 13.85 29.3 13.63 29.53C13.4 29.76 13.09 29.9 12.75 29.9C12.4 29.9 12.09 29.76 11.86 29.53C11.64 29.3 11.5 28.99 11.5 28.65C11.5 28.3 11.64 27.99 11.86 27.76C12.09 27.54 12.4 27.4 12.75 27.4Z" fill="#DBDBDB" fill-opacity="1.000000" fill-rule="nonzero"/>
		<mask id="mask2_2501" mask-type="alpha" maskUnits="userSpaceOnUse" x="49.378906" y="36.250000" width="6.000000" height="6.000000"/>
		<g mask="url(#mask2_2501)">
			<path id="形状结合" d="M53.09 37.12C53.46 36.75 54.05 36.75 54.42 37.12C54.74 37.48 54.77 38.09 54.42 38.45L51.53 41.33C51.43 41.44 51.28 41.5 51.13 41.5L50.3 41.5C50.16 41.5 50.04 41.38 50.04 41.23L50.04 40.4C50.04 40.25 50.1 40.11 50.21 40L53.09 37.12ZM54.36 41.11C54.46 41.11 54.55 41.2 54.55 41.3C54.55 41.4 54.46 41.49 54.36 41.49L52.48 41.49C52.38 41.49 52.3 41.4 52.3 41.3C52.3 41.2 52.38 41.11 52.48 41.11L54.36 41.11ZM52.67 38.07L50.47 40.27C50.44 40.31 50.42 40.34 50.42 40.4L50.42 41.12L51.13 41.12C51.17 41.12 51.21 41.11 51.25 41.08L53.46 38.87L52.67 38.07ZM54.11 37.34C53.89 37.16 53.56 37.18 53.36 37.39L52.93 37.81L53.73 38.59L54.15 38.18C54.36 37.97 54.3 37.57 54.11 37.34Z" fill="#FFFFFF" fill-opacity="1.000000" fill-rule="nonzero"/>
		</g>
		<path id="形状结合" d="M53.09 37.12C53.46 36.75 54.05 36.75 54.42 37.12C54.74 37.48 54.77 38.09 54.42 38.45L51.53 41.33C51.43 41.44 51.28 41.5 51.13 41.5L50.3 41.5C50.16 41.5 50.04 41.38 50.04 41.23L50.04 40.4C50.04 40.25 50.1 40.11 50.21 40L53.09 37.12ZM54.36 41.11C54.46 41.11 54.55 41.2 54.55 41.3C54.55 41.4 54.46 41.49 54.36 41.49L52.48 41.49C52.38 41.49 52.3 41.4 52.3 41.3C52.3 41.2 52.38 41.11 52.48 41.11L54.36 41.11ZM52.67 38.07L50.47 40.27C50.44 40.31 50.42 40.34 50.42 40.4L50.42 41.12L51.13 41.12C51.17 41.12 51.21 41.11 51.25 41.08L53.46 38.87L52.67 38.07ZM54.11 37.34C53.89 37.16 53.56 37.18 53.36 37.39L52.93 37.81L53.73 38.59L54.15 38.18C54.36 37.97 54.3 37.57 54.11 37.34Z" fill="#808080" fill-opacity="1.000000" fill-rule="nonzero"/>
		<path id="矢量 1" d="M50.3 40.28L53.41 37.05L53.99 37.05L54.45 37.5L54.45 38.09L51.34 41.21L50.3 41.32L50.3 40.28Z" fill="#808080" fill-opacity="1.000000" fill-rule="evenodd"/>
		<rect id="矩形 3" x="52.378876" y="37.210449" width="2.500000" height="0.400002" transform="rotate(45 52.378876 37.210449)" fill="#FFFFFF" fill-opacity="1.000000"/>
		<path id="矩形备份-17" d="M57.26 34.5L12.76 34.5C12.06 34.5 11.51 35.05 11.51 35.75L11.51 42.75C11.51 43.44 12.06 44 12.76 44L57.26 44C57.95 44 58.51 43.44 58.51 42.75L58.51 35.75C58.51 35.05 57.95 34.5 57.26 34.5ZM57.26 35C57.67 35 58.01 35.33 58.01 35.75L58.01 42.75C58.01 43.16 57.67 43.5 57.26 43.5L12.76 43.5C12.34 43.5 12.01 43.16 12.01 42.75L12.01 35.75C12.01 35.33 12.34 35 12.76 35L57.26 35Z" fill="#808080" fill-opacity="1.000000" fill-rule="nonzero"/>
		<rect id="矩形 6" x="14.510254" y="37.000000" rx="0.750000" width="32.500000" height="1.500000" fill="#DBDBDB" fill-opacity="1.000000"/>
		<rect id="矩形 6" x="14.510254" y="40.000000" rx="0.750000" width="25.500000" height="1.500000" fill="#DBDBDB" fill-opacity="1.000000"/>
		<rect id="矩形备份-6" rx="1.500000" width="47.000000" height="20.500000" transform="matrix(-1 0 0 1 58.5103 46.5)" fill="#F0F0F0" fill-opacity="1.000000"/>
		<path id="路径备份 4 (边框)" d="M51.98 50.41C52.22 50.2 52.58 50.23 52.79 50.47C53 50.71 52.97 51.06 52.73 51.28C51.65 52.22 50.72 52.99 49.96 53.61C49.08 54.3 48.3 54.89 47.62 55.35C46.87 55.85 46.19 56.24 45.56 56.53C44.9 56.83 44.27 57.03 43.67 57.12C43.24 57.18 42.81 57.18 42.39 57.15C42.21 57.12 42.03 57.1 41.85 57.06C41.27 56.93 40.68 56.71 40.08 56.37C39.52 56.05 38.93 55.64 38.29 55.11C37.72 54.62 37.07 54 36.34 53.28C35.89 52.8 35.45 52.53 35.02 52.42C34.83 52.37 34.64 52.35 34.43 52.37C34.25 52.37 34.05 52.43 33.84 52.5C33.46 52.65 33 52.92 32.5 53.3C32.29 53.48 32.04 53.68 31.77 53.92C31.6 54.06 31.34 54.3 31 54.61C30.48 55.09 30.08 55.43 29.8 55.67C29.33 56.06 28.9 56.4 28.49 56.67C28 57 27.51 57.27 27.04 57.48C26.49 57.71 25.94 57.85 25.39 57.92C24.15 58.06 22.89 57.8 21.6 57.1C20.2 56.34 18.73 55.05 17.2 53.24C16.99 52.99 17.02 52.64 17.26 52.43C17.51 52.23 17.87 52.25 18.08 52.49C19.51 54.2 20.87 55.4 22.15 56.09C22.72 56.39 23.27 56.6 23.8 56.71C24.29 56.8 24.78 56.83 25.26 56.78C25.7 56.72 26.14 56.6 26.59 56.41C26.99 56.24 27.42 56 27.85 55.72C28.22 55.47 28.62 55.16 29.06 54.79C29.32 54.56 29.71 54.23 30.22 53.75C30.57 53.43 30.84 53.21 31.01 53.05C31.3 52.8 31.56 52.58 31.8 52.4C32.08 52.18 32.34 51.99 32.59 51.84C32.89 51.67 33.16 51.53 33.43 51.43C33.93 51.24 34.41 51.18 34.88 51.22C35.02 51.24 35.16 51.25 35.3 51.3C35.93 51.46 36.57 51.85 37.16 52.47C37.87 53.18 38.49 53.77 39.03 54.22C39.61 54.71 40.15 55.09 40.64 55.37C41.14 55.65 41.62 55.84 42.08 55.93C42.2 55.96 42.31 55.98 42.43 55.99C42.78 56.04 43.14 56.03 43.5 55.98C43.99 55.9 44.52 55.74 45.09 55.48C45.65 55.22 46.28 54.86 46.97 54.4C47.63 53.96 48.39 53.39 49.24 52.71C49.99 52.1 50.9 51.34 51.98 50.41Z" fill="#FFFFFF" fill-opacity="1.000000" fill-rule="evenodd"/>
		<path id="Stroke 613备份 (边框)" d="M34.84 66.01L34.84 65.83C34.84 65.76 34.82 65.73 34.8 65.69C34.77 65.67 34.72 65.66 34.66 65.66C34.61 65.66 34.56 65.67 34.53 65.69C34.5 65.73 34.49 65.76 34.49 65.83L34.49 66.01C34.49 66.11 34.57 66.18 34.66 66.18C34.76 66.18 34.84 66.11 34.84 66.01ZM34.49 52.68C34.49 52.6 34.57 52.52 34.66 52.52C34.76 52.52 34.84 52.6 34.84 52.68L34.84 52.87C34.84 52.93 34.82 52.98 34.8 53C34.77 53.04 34.72 53.05 34.66 53.05C34.61 53.05 34.56 53.04 34.53 53C34.5 52.98 34.49 52.93 34.49 52.87L34.49 52.68ZM34.49 54.36L34.49 53.99C34.49 53.92 34.5 53.89 34.53 53.86C34.56 53.83 34.61 53.8 34.66 53.8C34.72 53.8 34.77 53.83 34.8 53.86C34.82 53.89 34.84 53.92 34.84 53.99L34.84 54.36C34.84 54.42 34.82 54.46 34.8 54.49C34.77 54.52 34.72 54.54 34.66 54.54C34.61 54.54 34.56 54.52 34.53 54.49C34.5 54.46 34.49 54.42 34.49 54.36ZM34.49 55.84L34.49 55.47C34.49 55.41 34.5 55.36 34.53 55.34C34.56 55.3 34.61 55.29 34.66 55.29C34.72 55.29 34.77 55.3 34.8 55.34C34.82 55.36 34.84 55.41 34.84 55.47L34.84 55.84C34.84 55.9 34.82 55.95 34.8 55.97C34.77 55.99 34.72 56.02 34.66 56.02C34.61 56.02 34.56 55.99 34.53 55.97C34.5 55.95 34.49 55.9 34.49 55.84ZM34.49 57.31L34.49 56.95C34.49 56.89 34.5 56.85 34.53 56.81C34.56 56.79 34.61 56.77 34.66 56.77C34.72 56.77 34.77 56.79 34.8 56.81C34.82 56.85 34.84 56.89 34.84 56.95L34.84 57.31C34.84 57.37 34.82 57.42 34.8 57.45C34.77 57.48 34.72 57.49 34.66 57.49C34.61 57.49 34.56 57.48 34.53 57.45C34.5 57.42 34.49 57.37 34.49 57.31ZM34.49 58.79L34.49 58.42C34.49 58.36 34.5 58.33 34.53 58.29C34.56 58.27 34.61 58.24 34.66 58.24C34.72 58.24 34.77 58.27 34.8 58.29C34.82 58.33 34.84 58.36 34.84 58.42L34.84 58.79C34.84 58.86 34.82 58.91 34.8 58.93C34.77 58.96 34.72 58.98 34.66 58.98C34.61 58.98 34.56 58.96 34.53 58.93C34.5 58.91 34.49 58.86 34.49 58.79ZM34.49 60.28L34.49 59.91C34.49 59.85 34.5 59.8 34.53 59.78C34.56 59.74 34.61 59.73 34.66 59.73C34.72 59.73 34.77 59.74 34.8 59.78C34.82 59.8 34.84 59.85 34.84 59.91L34.84 60.28C34.84 60.34 34.82 60.39 34.8 60.42C34.77 60.45 34.72 60.46 34.66 60.46C34.61 60.46 34.56 60.45 34.53 60.42C34.5 60.39 34.49 60.34 34.49 60.28ZM34.49 61.77L34.49 61.39C34.49 61.33 34.5 61.29 34.53 61.25C34.56 61.23 34.61 61.22 34.66 61.22C34.72 61.22 34.77 61.23 34.8 61.25C34.82 61.29 34.84 61.33 34.84 61.39L34.84 61.77C34.84 61.81 34.82 61.86 34.8 61.9C34.77 61.92 34.72 61.93 34.66 61.93C34.61 61.93 34.56 61.92 34.53 61.9C34.5 61.86 34.49 61.81 34.49 61.77ZM34.49 63.24L34.49 62.86C34.49 62.8 34.5 62.77 34.53 62.74C34.56 62.71 34.61 62.7 34.66 62.7C34.72 62.7 34.77 62.71 34.8 62.74C34.82 62.77 34.84 62.8 34.84 62.86L34.84 63.24C34.84 63.29 34.82 63.35 34.8 63.37C34.77 63.41 34.72 63.42 34.66 63.42C34.61 63.42 34.56 63.41 34.53 63.37C34.5 63.35 34.49 63.29 34.49 63.24ZM34.49 64.73L34.49 64.35C34.49 64.29 34.5 64.24 34.53 64.22C34.56 64.18 34.61 64.17 34.66 64.17C34.72 64.17 34.77 64.18 34.8 64.22C34.82 64.24 34.84 64.29 34.84 64.35L34.84 64.73C34.84 64.78 34.82 64.83 34.8 64.86C34.77 64.89 34.72 64.9 34.66 64.9C34.61 64.9 34.56 64.89 34.53 64.86C34.5 64.83 34.49 64.78 34.49 64.73Z" fill="#FFFFFF" fill-opacity="1.000000" fill-rule="evenodd"/>
		<path id="Stroke 613备份 (边框)" d="M43.31 66.82L43.31 66.62C43.31 66.57 43.3 66.53 43.27 66.5C43.24 66.47 43.2 66.46 43.14 66.46C43.08 66.46 43.03 66.47 43.01 66.5C42.98 66.53 42.96 66.57 42.96 66.62L42.96 66.82C42.96 66.92 43.04 67 43.14 67C43.23 67 43.31 66.92 43.31 66.82ZM42.96 56.5C42.96 56.4 43.04 56.32 43.14 56.32C43.23 56.32 43.31 56.4 43.31 56.5L43.31 56.68C43.31 56.74 43.3 56.78 43.27 56.81C43.24 56.84 43.2 56.86 43.14 56.86C43.08 56.86 43.03 56.84 43.01 56.81C42.98 56.78 42.96 56.74 42.96 56.68L42.96 56.5ZM42.96 58.16L42.96 57.78C42.96 57.72 42.98 57.68 43.01 57.65C43.03 57.62 43.08 57.61 43.14 57.61C43.2 57.61 43.24 57.62 43.27 57.65C43.3 57.68 43.31 57.72 43.31 57.78L43.31 58.16C43.31 58.22 43.3 58.26 43.27 58.29C43.24 58.32 43.2 58.33 43.14 58.33C43.08 58.33 43.03 58.32 43.01 58.29C42.98 58.26 42.96 58.22 42.96 58.16ZM42.96 59.63L42.96 59.26C42.96 59.2 42.98 59.16 43.01 59.13C43.03 59.1 43.08 59.08 43.14 59.08C43.2 59.08 43.24 59.1 43.27 59.13C43.3 59.16 43.31 59.2 43.31 59.26L43.31 59.63C43.31 59.69 43.3 59.73 43.27 59.76C43.24 59.79 43.2 59.81 43.14 59.81C43.08 59.81 43.03 59.79 43.01 59.76C42.98 59.73 42.96 59.69 42.96 59.63ZM42.96 61.11L42.96 60.73C42.96 60.67 42.98 60.63 43.01 60.6C43.03 60.57 43.08 60.56 43.14 60.56C43.2 60.56 43.24 60.57 43.27 60.6C43.3 60.63 43.31 60.67 43.31 60.73L43.31 61.11C43.31 61.17 43.3 61.21 43.27 61.24C43.24 61.27 43.2 61.28 43.14 61.28C43.08 61.28 43.03 61.27 43.01 61.24C42.98 61.21 42.96 61.17 42.96 61.11ZM42.96 62.58L42.96 62.21C42.96 62.15 42.98 62.11 43.01 62.08C43.03 62.05 43.08 62.03 43.14 62.03C43.2 62.03 43.24 62.05 43.27 62.08C43.3 62.11 43.31 62.15 43.31 62.21L43.31 62.58C43.31 62.64 43.3 62.68 43.27 62.71C43.24 62.74 43.2 62.76 43.14 62.76C43.08 62.76 43.03 62.74 43.01 62.71C42.98 62.68 42.96 62.64 42.96 62.58ZM42.96 64.06L42.96 63.68C42.96 63.62 42.98 63.58 43.01 63.55C43.03 63.52 43.08 63.51 43.14 63.51C43.2 63.51 43.24 63.52 43.27 63.55C43.3 63.58 43.31 63.62 43.31 63.68L43.31 64.06C43.31 64.12 43.3 64.16 43.27 64.19C43.24 64.22 43.2 64.23 43.14 64.23C43.08 64.23 43.03 64.22 43.01 64.19C42.98 64.16 42.96 64.12 42.96 64.06ZM42.96 65.53L42.96 65.16C42.96 65.1 42.98 65.06 43.01 65.03C43.03 65 43.08 64.98 43.14 64.98C43.2 64.98 43.24 65 43.27 65.03C43.3 65.06 43.31 65.1 43.31 65.16L43.31 65.53C43.31 65.58 43.3 65.62 43.27 65.66C43.24 65.69 43.2 65.71 43.14 65.71C43.08 65.71 43.03 65.69 43.01 65.66C42.98 65.62 42.96 65.58 42.96 65.53Z" fill="#FFFFFF" fill-opacity="1.000000" fill-rule="evenodd"/>
		<path id="Stroke 613备份 (边框)" d="M52.18 66.32L52.18 66.14C52.18 66.08 52.17 66.04 52.14 66.01C52.11 65.98 52.06 65.97 52.01 65.97C51.95 65.97 51.9 65.98 51.87 66.01C51.85 66.04 51.83 66.08 51.83 66.14L51.83 66.32C51.83 66.42 51.91 66.5 52.01 66.5C52.1 66.5 52.18 66.42 52.18 66.32ZM51.83 51C51.83 50.9 51.91 50.82 52.01 50.82C52.1 50.82 52.18 50.9 52.18 51L52.18 51.17C52.18 51.23 52.17 51.27 52.14 51.3C52.11 51.33 52.06 51.35 52.01 51.35C51.95 51.35 51.9 51.33 51.87 51.3C51.85 51.27 51.83 51.23 51.83 51.17L51.83 51ZM51.83 52.56L51.83 52.21C51.83 52.15 51.85 52.11 51.87 52.08C51.9 52.05 51.95 52.04 52.01 52.04C52.06 52.04 52.11 52.05 52.14 52.08C52.17 52.11 52.18 52.15 52.18 52.21L52.18 52.56C52.18 52.62 52.17 52.67 52.14 52.7C52.11 52.73 52.06 52.74 52.01 52.74C51.95 52.74 51.9 52.73 51.87 52.7C51.85 52.67 51.83 52.62 51.83 52.56ZM51.83 53.96L51.83 53.6C51.83 53.55 51.85 53.5 51.87 53.47C51.9 53.44 51.95 53.43 52.01 53.43C52.06 53.43 52.11 53.44 52.14 53.47C52.17 53.5 52.18 53.55 52.18 53.6L52.18 53.96C52.18 54.02 52.17 54.06 52.14 54.09C52.11 54.12 52.06 54.13 52.01 54.13C51.95 54.13 51.9 54.12 51.87 54.09C51.85 54.06 51.83 54.02 51.83 53.96ZM51.83 55.35L51.83 55C51.83 54.94 51.85 54.9 51.87 54.87C51.9 54.84 51.95 54.82 52.01 54.82C52.06 54.82 52.11 54.84 52.14 54.87C52.17 54.9 52.18 54.94 52.18 55L52.18 55.35C52.18 55.41 52.17 55.45 52.14 55.48C52.11 55.51 52.06 55.53 52.01 55.53C51.95 55.53 51.9 55.51 51.87 55.48C51.85 55.45 51.83 55.41 51.83 55.35ZM51.83 56.74L51.83 56.39C51.83 56.33 51.85 56.29 51.87 56.26C51.9 56.23 51.95 56.22 52.01 56.22C52.06 56.22 52.11 56.23 52.14 56.26C52.17 56.29 52.18 56.33 52.18 56.39L52.18 56.74C52.18 56.8 52.17 56.85 52.14 56.88C52.11 56.9 52.06 56.92 52.01 56.92C51.95 56.92 51.9 56.9 51.87 56.88C51.85 56.85 51.83 56.8 51.83 56.74ZM51.83 58.14L51.83 57.78C51.83 57.73 51.85 57.68 51.87 57.65C51.9 57.62 51.95 57.61 52.01 57.61C52.06 57.61 52.11 57.62 52.14 57.65C52.17 57.68 52.18 57.73 52.18 57.78L52.18 58.14C52.18 58.2 52.17 58.24 52.14 58.27C52.11 58.3 52.06 58.31 52.01 58.31C51.95 58.31 51.9 58.3 51.87 58.27C51.85 58.24 51.83 58.2 51.83 58.14ZM51.83 59.53L51.83 59.18C51.83 59.12 51.85 59.08 51.87 59.05C51.9 59.02 51.95 59 52.01 59C52.06 59 52.11 59.02 52.14 59.05C52.17 59.08 52.18 59.12 52.18 59.18L52.18 59.53C52.18 59.59 52.17 59.63 52.14 59.66C52.11 59.69 52.06 59.71 52.01 59.71C51.95 59.71 51.9 59.69 51.87 59.66C51.85 59.63 51.83 59.59 51.83 59.53ZM51.83 60.92L51.83 60.57C51.83 60.51 51.85 60.47 51.87 60.44C51.9 60.41 51.95 60.4 52.01 60.4C52.06 60.4 52.11 60.41 52.14 60.44C52.17 60.47 52.18 60.51 52.18 60.57L52.18 60.92C52.18 60.98 52.17 61.03 52.14 61.06C52.11 61.08 52.06 61.1 52.01 61.1C51.95 61.1 51.9 61.08 51.87 61.06C51.85 61.03 51.83 60.98 51.83 60.92ZM51.83 62.32L51.83 61.96C51.83 61.91 51.85 61.86 51.87 61.83C51.9 61.8 51.95 61.79 52.01 61.79C52.06 61.79 52.11 61.8 52.14 61.83C52.17 61.86 52.18 61.91 52.18 61.96L52.18 62.32C52.18 62.38 52.17 62.42 52.14 62.45C52.11 62.48 52.06 62.49 52.01 62.49C51.95 62.49 51.9 62.48 51.87 62.45C51.85 62.42 51.83 62.38 51.83 62.32ZM51.83 63.71L51.83 63.36C51.83 63.3 51.85 63.26 51.87 63.23C51.9 63.2 51.95 63.18 52.01 63.18C52.06 63.18 52.11 63.2 52.14 63.23C52.17 63.26 52.18 63.3 52.18 63.36L52.18 63.71C52.18 63.77 52.17 63.81 52.14 63.84C52.11 63.87 52.06 63.89 52.01 63.89C51.95 63.89 51.9 63.87 51.87 63.84C51.85 63.81 51.83 63.77 51.83 63.71ZM51.83 65.1L51.83 64.75C51.83 64.69 51.85 64.65 51.87 64.62C51.9 64.58 51.95 64.58 52.01 64.58C52.06 64.58 52.11 64.58 52.14 64.62C52.17 64.65 52.18 64.69 52.18 64.75L52.18 65.1C52.18 65.16 52.17 65.21 52.14 65.23C52.11 65.26 52.06 65.28 52.01 65.28C51.95 65.28 51.9 65.26 51.87 65.23C51.85 65.21 51.83 65.16 51.83 65.1Z" fill="#FFFFFF" fill-opacity="1.000000" fill-rule="evenodd"/>
		<path id="Stroke 613备份 (边框)" d="M24.81 67.82L24.81 67.62C24.81 67.57 24.8 67.53 24.77 67.5C24.74 67.47 24.7 67.46 24.64 67.46C24.58 67.46 24.53 67.47 24.51 67.5C24.48 67.53 24.46 67.57 24.46 67.62L24.46 67.82C24.46 67.92 24.54 68 24.64 68C24.73 68 24.81 67.92 24.81 67.82ZM24.46 57.5C24.46 57.4 24.54 57.32 24.64 57.32C24.73 57.32 24.81 57.4 24.81 57.5L24.81 57.68C24.81 57.74 24.8 57.78 24.77 57.81C24.74 57.84 24.7 57.86 24.64 57.86C24.58 57.86 24.53 57.84 24.51 57.81C24.48 57.78 24.46 57.74 24.46 57.68L24.46 57.5ZM24.46 59.16L24.46 58.78C24.46 58.72 24.48 58.68 24.51 58.65C24.53 58.62 24.58 58.61 24.64 58.61C24.7 58.61 24.74 58.62 24.77 58.65C24.8 58.68 24.81 58.72 24.81 58.78L24.81 59.16C24.81 59.22 24.8 59.26 24.77 59.29C24.74 59.32 24.7 59.33 24.64 59.33C24.58 59.33 24.53 59.32 24.51 59.29C24.48 59.26 24.46 59.22 24.46 59.16ZM24.46 60.63L24.46 60.26C24.46 60.2 24.48 60.16 24.51 60.13C24.53 60.1 24.58 60.08 24.64 60.08C24.7 60.08 24.74 60.1 24.77 60.13C24.8 60.16 24.81 60.2 24.81 60.26L24.81 60.63C24.81 60.69 24.8 60.73 24.77 60.76C24.74 60.79 24.7 60.81 24.64 60.81C24.58 60.81 24.53 60.79 24.51 60.76C24.48 60.73 24.46 60.69 24.46 60.63ZM24.46 62.11L24.46 61.73C24.46 61.67 24.48 61.63 24.51 61.6C24.53 61.57 24.58 61.56 24.64 61.56C24.7 61.56 24.74 61.57 24.77 61.6C24.8 61.63 24.81 61.67 24.81 61.73L24.81 62.11C24.81 62.17 24.8 62.21 24.77 62.24C24.74 62.27 24.7 62.28 24.64 62.28C24.58 62.28 24.53 62.27 24.51 62.24C24.48 62.21 24.46 62.17 24.46 62.11ZM24.46 63.58L24.46 63.21C24.46 63.15 24.48 63.11 24.51 63.08C24.53 63.05 24.58 63.03 24.64 63.03C24.7 63.03 24.74 63.05 24.77 63.08C24.8 63.11 24.81 63.15 24.81 63.21L24.81 63.58C24.81 63.64 24.8 63.68 24.77 63.71C24.74 63.74 24.7 63.76 24.64 63.76C24.58 63.76 24.53 63.74 24.51 63.71C24.48 63.68 24.46 63.64 24.46 63.58ZM24.46 65.06L24.46 64.68C24.46 64.62 24.48 64.58 24.51 64.55C24.53 64.51 24.58 64.51 24.64 64.51C24.7 64.51 24.74 64.51 24.77 64.55C24.8 64.58 24.81 64.62 24.81 64.68L24.81 65.06C24.81 65.12 24.8 65.16 24.77 65.19C24.74 65.22 24.7 65.23 24.64 65.23C24.58 65.23 24.53 65.22 24.51 65.19C24.48 65.16 24.46 65.12 24.46 65.06ZM24.46 66.53L24.46 66.16C24.46 66.1 24.48 66.06 24.51 66.03C24.53 66 24.58 65.98 24.64 65.98C24.7 65.98 24.74 66 24.77 66.03C24.8 66.06 24.81 66.1 24.81 66.16L24.81 66.53C24.81 66.58 24.8 66.62 24.77 66.66C24.74 66.69 24.7 66.71 24.64 66.71C24.58 66.71 24.53 66.69 24.51 66.66C24.48 66.62 24.46 66.58 24.46 66.53Z" fill="#FFFFFF" fill-opacity="1.000000" fill-rule="evenodd"/>
		<path id="Stroke 613备份 (边框)" d="M17.68 66.82L17.68 66.64C17.68 66.58 17.67 66.54 17.64 66.51C17.61 66.48 17.56 66.47 17.51 66.47C17.45 66.47 17.4 66.48 17.37 66.51C17.35 66.54 17.33 66.58 17.33 66.64L17.33 66.82C17.33 66.92 17.41 67 17.51 67C17.6 67 17.68 66.92 17.68 66.82ZM17.33 53C17.33 52.9 17.41 52.82 17.51 52.82C17.6 52.82 17.68 52.9 17.68 53L17.68 53.17C17.68 53.23 17.67 53.27 17.64 53.3C17.61 53.33 17.56 53.35 17.51 53.35C17.45 53.35 17.4 53.33 17.37 53.3C17.35 53.27 17.33 53.23 17.33 53.17L17.33 53ZM17.33 54.55L17.33 54.2C17.33 54.14 17.35 54.1 17.37 54.07C17.4 54.04 17.45 54.03 17.51 54.03C17.56 54.03 17.61 54.04 17.64 54.07C17.67 54.1 17.68 54.14 17.68 54.2L17.68 54.55C17.68 54.61 17.67 54.65 17.64 54.68C17.61 54.71 17.56 54.73 17.51 54.73C17.45 54.73 17.4 54.71 17.37 54.68C17.35 54.65 17.33 54.61 17.33 54.55ZM17.33 55.94L17.33 55.58C17.33 55.53 17.35 55.48 17.37 55.45C17.4 55.42 17.45 55.41 17.51 55.41C17.56 55.41 17.61 55.42 17.64 55.45C17.67 55.48 17.68 55.53 17.68 55.58L17.68 55.94C17.68 55.99 17.67 56.04 17.64 56.07C17.61 56.1 17.56 56.11 17.51 56.11C17.45 56.11 17.4 56.1 17.37 56.07C17.35 56.04 17.33 55.99 17.33 55.94ZM17.33 57.32L17.33 56.97C17.33 56.91 17.35 56.87 17.37 56.84C17.4 56.81 17.45 56.79 17.51 56.79C17.56 56.79 17.61 56.81 17.64 56.84C17.67 56.87 17.68 56.91 17.68 56.97L17.68 57.32C17.68 57.38 17.67 57.42 17.64 57.45C17.61 57.48 17.56 57.49 17.51 57.49C17.45 57.49 17.4 57.48 17.37 57.45C17.35 57.42 17.33 57.38 17.33 57.32ZM17.33 58.7L17.33 58.35C17.33 58.29 17.35 58.25 17.37 58.22C17.4 58.19 17.45 58.17 17.51 58.17C17.56 58.17 17.61 58.19 17.64 58.22C17.67 58.25 17.68 58.29 17.68 58.35L17.68 58.7C17.68 58.76 17.67 58.8 17.64 58.83C17.61 58.86 17.56 58.88 17.51 58.88C17.45 58.88 17.4 58.86 17.37 58.83C17.35 58.8 17.33 58.76 17.33 58.7ZM17.33 60.08L17.33 59.73C17.33 59.67 17.35 59.63 17.37 59.6C17.4 59.57 17.45 59.56 17.51 59.56C17.56 59.56 17.61 59.57 17.64 59.6C17.67 59.63 17.68 59.67 17.68 59.73L17.68 60.08C17.68 60.14 17.67 60.18 17.64 60.21C17.61 60.24 17.56 60.26 17.51 60.26C17.45 60.26 17.4 60.24 17.37 60.21C17.35 60.18 17.33 60.14 17.33 60.08ZM17.33 61.47L17.33 61.11C17.33 61.06 17.35 61.01 17.37 60.98C17.4 60.95 17.45 60.94 17.51 60.94C17.56 60.94 17.61 60.95 17.64 60.98C17.67 61.01 17.68 61.06 17.68 61.11L17.68 61.47C17.68 61.52 17.67 61.57 17.64 61.6C17.61 61.63 17.56 61.64 17.51 61.64C17.45 61.64 17.4 61.63 17.37 61.6C17.35 61.57 17.33 61.52 17.33 61.47ZM17.33 62.85L17.33 62.5C17.33 62.44 17.35 62.4 17.37 62.37C17.4 62.34 17.45 62.32 17.51 62.32C17.56 62.32 17.61 62.34 17.64 62.37C17.67 62.4 17.68 62.44 17.68 62.5L17.68 62.85C17.68 62.91 17.67 62.95 17.64 62.98C17.61 63.01 17.56 63.02 17.51 63.02C17.45 63.02 17.4 63.01 17.37 62.98C17.35 62.95 17.33 62.91 17.33 62.85ZM17.33 64.23L17.33 63.88C17.33 63.82 17.35 63.78 17.37 63.75C17.4 63.72 17.45 63.7 17.51 63.7C17.56 63.7 17.61 63.72 17.64 63.75C17.67 63.78 17.68 63.82 17.68 63.88L17.68 64.23C17.68 64.29 17.67 64.33 17.64 64.36C17.61 64.39 17.56 64.41 17.51 64.41C17.45 64.41 17.4 64.39 17.37 64.36C17.35 64.33 17.33 64.29 17.33 64.23ZM17.33 65.61L17.33 65.26C17.33 65.19 17.35 65.16 17.37 65.12C17.4 65.1 17.45 65.08 17.51 65.08C17.56 65.08 17.61 65.1 17.64 65.12C17.67 65.16 17.68 65.19 17.68 65.26L17.68 65.61C17.68 65.67 17.67 65.71 17.64 65.74C17.61 65.76 17.56 65.79 17.51 65.79C17.45 65.79 17.4 65.76 17.37 65.74C17.35 65.71 17.33 65.67 17.33 65.61Z" fill="#FFFFFF" fill-opacity="1.000000" fill-rule="evenodd"/>
		<circle id="椭圆形备份 5" r="1.036274" transform="matrix(-1 0 0 1 52.1055 51.0364)" fill="#FFFFFF" fill-opacity="1.000000"/>
		<path id="形状" d="M57.85 18.78C58.02 18.79 58.19 18.79 58.35 18.79C62.68 18.79 64.59 16.95 64.61 16.93L65.04 16.5L65.47 16.93C65.49 16.95 67.51 18.93 72.23 18.78L72.84 18.76L72.84 27.11C72.84 29.29 72.05 32.48 65.25 34.91L65.04 35L64.83 34.91C58.03 32.48 57.24 29.29 57.24 27.11L57.24 18.76L57.85 18.78Z" fill="#1476FF" fill-opacity="1.000000" fill-rule="evenodd"/>
		<path id="形状" d="M60.9 23.78L61.36 24.24C61.84 24.73 62.65 24.73 63.14 24.24C63.63 23.75 63.63 22.94 63.14 22.45L62.68 21.99C62.42 21.73 62.59 21.43 63.05 21.51C63.53 21.58 63.97 21.81 64.31 22.15C64.87 22.71 65.11 23.5 64.94 24.27L68.81 28.15C69.3 28.64 69.3 29.44 68.81 29.93C68.56 30.17 68.25 30.3 67.92 30.3C67.58 30.3 67.26 30.17 67.03 29.93L63.17 26.06C62.55 26.19 61.9 26.06 61.38 25.7C60.86 25.34 60.5 24.78 60.42 24.15C60.35 23.69 60.64 23.52 60.9 23.78ZM67.62 29.34C67.79 29.5 68.05 29.5 68.22 29.34C68.37 29.17 68.37 28.91 68.22 28.74C68.05 28.59 67.79 28.59 67.62 28.75C67.47 28.91 67.47 29.17 67.62 29.34ZM68.04 23.85L66.58 25.31L66 24.72L67.44 23.26L67.76 22.63L68.81 21.89L69.41 22.48L68.66 23.53L68.04 23.85ZM63.18 26.95C63.22 26.91 63.27 26.89 63.33 26.89C63.38 26.89 63.43 26.91 63.47 26.95L64.36 27.84C64.44 27.93 64.44 28.06 64.36 28.14L62.25 30.25C61.94 30.58 61.41 30.58 61.08 30.25C60.75 29.92 60.75 29.39 61.08 29.06L63.18 26.95Z" fill="#FFFFFF" fill-opacity="1.000000" fill-rule="nonzero"/>
	</g>
</svg>
