<svg width="80.000000" height="80.000000" viewBox="0 0 80 80" fill="none" xmlns="http://www.w3.org/2000/svg" xmlns:xlink="http://www.w3.org/1999/xlink">
	<desc>
			Created with Pixso.
	</desc>
	<defs>
		<clipPath id="clip2_1980">
			<rect id="13#一键换肤-quick-skin-change" width="80.000000" height="80.000000" fill="white" fill-opacity="0"/>
		</clipPath>
	</defs>
	<g clip-path="url(#clip2_1980)">
		<rect id="矩形" x="27.619049" y="29.938843" rx="6.600000" width="51.467045" height="39.782471" fill="#F0F0F0" fill-opacity="1.000000"/>
		<path id="矩形" d="M75.8 29.93C77.61 29.93 79.08 31.42 79.08 33.25L79.08 66.4C79.08 68.23 77.61 69.72 75.8 69.72L30.9 69.72C29.08 69.72 27.61 68.23 27.61 66.4L27.61 33.25C27.61 31.42 29.08 29.93 30.9 29.93L75.8 29.93ZM75.8 30.49L30.9 30.49C29.39 30.49 28.16 31.72 28.16 33.25L28.16 66.4C28.16 67.93 29.39 69.16 30.9 69.16L75.8 69.16C77.31 69.16 78.53 67.93 78.53 66.4L78.53 33.25C78.53 31.72 77.31 30.49 75.8 30.49Z" fill="#808080" fill-opacity="1.000000" fill-rule="nonzero"/>
		<ellipse id="椭圆形备份" cx="57.131317" cy="17.207092" rx="1.927717" ry="1.933870" fill="#808080" fill-opacity="1.000000"/>
		<ellipse id="椭圆形备份" cx="23.184998" cy="62.514954" rx="1.927717" ry="1.933870" fill="#808080" fill-opacity="1.000000"/>
		<rect id="矩形" x="53.352570" y="47.067383" rx="2.200000" width="18.615738" height="13.260822" fill="#FFFFFF" fill-opacity="1.000000"/>
		<rect id="矩形" x="34.736847" y="47.067383" rx="2.200000" width="14.783089" height="4.420277" fill="#FFFFFF" fill-opacity="1.000000"/>
		<rect id="矩形" x="34.736847" y="54.802856" rx="2.200000" width="14.783089" height="4.420277" fill="#FFFFFF" fill-opacity="1.000000"/>
		<rect id="矩形" x="34.736847" y="38.779358" rx="2.200000" width="37.231480" height="4.420273" fill="#FFFFFF" fill-opacity="1.000000"/>
		<path id="形状" d="M9.33 48.97L9.73 49.34L9.31 49.8C2.66 57.08 -0.13 62.91 1.77 65.72C3.99 69.02 12.47 67.87 24.15 62.73L24.38 63.23L23.67 63.54C12.1 68.53 3.72 69.59 1.31 66.02C-0.83 62.84 2.2 56.64 9.33 48.97ZM56.08 16.44C67.75 11.39 76.2 10.3 78.62 13.88C80.28 16.35 78.85 20.61 74.75 26.03L74.32 25.7L74.66 25.23C78.36 20.21 79.6 16.32 78.17 14.19C75.98 10.94 67.72 12 56.3 16.95L56.08 16.44Z" fill="#808080" fill-opacity="1.000000" fill-rule="nonzero"/>
		<rect id="矩形" x="1.394012" y="5.627319" rx="6.600000" width="50.798477" height="40.140511" fill="#FFFFFF" fill-opacity="1.000000"/>
		<path id="矩形" d="M50.06 5.62C51.88 5.62 53.35 7.11 53.35 8.94L53.35 42.09C53.35 43.92 51.88 45.4 50.06 45.4L5.17 45.4C3.35 45.4 1.88 43.92 1.88 42.09L1.88 8.94C1.88 7.11 3.35 5.62 5.17 5.62L50.06 5.62ZM50.06 6.73L5.17 6.73C3.96 6.73 2.98 7.72 2.98 8.94L2.98 42.09C2.98 43.31 3.96 44.3 5.17 44.3L50.06 44.3C51.27 44.3 52.25 43.31 52.25 42.09L52.25 8.94C52.25 7.72 51.27 6.73 50.06 6.73Z" fill="#808080" fill-opacity="1.000000" fill-rule="nonzero"/>
		<rect id="矩形" x="28.166595" y="22.755859" rx="2.200000" width="18.615742" height="13.260824" fill="#1476FF" fill-opacity="1.000000"/>
		<rect id="矩形" x="9.550842" y="22.755859" rx="2.200000" width="14.783089" height="4.420275" fill="#DBDBDB" fill-opacity="1.000000"/>
		<rect id="矩形" x="9.550842" y="30.491333" rx="2.200000" width="14.783089" height="4.420275" fill="#DBDBDB" fill-opacity="1.000000"/>
		<rect id="矩形" x="9.550842" y="14.467834" rx="2.200000" width="37.231483" height="4.420275" fill="#DBDBDB" fill-opacity="1.000000"/>
	</g>
</svg>
