<svg width="80.000000" height="80.000000" viewBox="0 0 80 80" fill="none" xmlns="http://www.w3.org/2000/svg" xmlns:xlink="http://www.w3.org/1999/xlink">
	<desc>
			Created with Pixso.
	</desc>
	<defs>
		<clipPath id="clip2_1979">
			<rect id="2#页面失效-page-failure" width="80.000000" height="80.000000" fill="white" fill-opacity="0"/>
		</clipPath>
	</defs>
	<g clip-path="url(#clip2_1979)">
		<path id="路径" d="M67.93 19C70.18 19 72 20.81 72 23.04L72 67.95C72 70.18 70.18 72 67.93 72L8.06 72C5.81 72 4 70.18 4 67.95L4 23.04C4 20.81 5.81 19 8.06 19L67.93 19Z" fill="#FFFFFF" fill-opacity="1.000000" fill-rule="nonzero"/>
		<path id="矩形" d="M67.93 19C70.18 19 72 20.81 72 23.04L72 67.95C72 70.18 70.18 72 67.93 72L8.06 72C5.81 72 4 70.18 4 67.95L4 23.04C4 20.81 5.81 19 8.06 19L67.93 19ZM67.93 20.1L8.06 20.1C6.42 20.1 5.09 21.42 5.09 23.05L5.09 67.94C5.09 69.57 6.42 70.89 8.06 70.89L67.93 70.89C69.57 70.89 70.9 69.57 70.9 67.94L70.9 23.05C70.9 21.42 69.57 20.1 67.93 20.1Z" fill="#808080" fill-opacity="1.000000" fill-rule="nonzero"/>
		<path id="矩形" d="M7.05 19L68.94 19C70.63 19 72 20.36 72 22.05L72 31L4 31L4 22.05C4 20.36 5.36 19 7.05 19Z" fill="#F0F0F0" fill-opacity="1.000000" fill-rule="evenodd"/>
		<path id="矩形" d="M68.95 19C70.63 19 72 20.39 72 22.1L72 31L4 31L4 22.1C4 20.39 5.36 19 7.04 19L68.95 19ZM68.95 20.11L7.04 20.11C5.97 20.11 5.09 21 5.09 22.1L5.09 29.88L70.9 29.88L70.9 22.1C70.9 21.04 70.08 20.17 69.05 20.12L68.95 20.11Z" fill="#808080" fill-opacity="1.000000" fill-rule="nonzero"/>
		<circle id="椭圆形" cx="57.750000" cy="25.000000" r="1.250000" fill="#808080" fill-opacity="1.000000"/>
		<circle id="椭圆形" cx="62.250000" cy="25.000000" r="1.250000" fill="#808080" fill-opacity="1.000000"/>
		<circle id="椭圆形" cx="66.750000" cy="25.000000" r="1.250000" fill="#808080" fill-opacity="1.000000"/>
		<rect id="矩形" x="11.000000" y="52.000000" rx="2.000000" width="26.000000" height="4.000000" fill="#DBDBDB" fill-opacity="1.000000"/>
		<rect id="矩形" x="11.000000" y="44.000000" rx="2.000000" width="37.000000" height="4.000000" fill="#DBDBDB" fill-opacity="1.000000"/>
		<circle id="椭圆形" cx="72.000000" cy="56.000000" r="8.000000" fill="#1476FF" fill-opacity="1.000000"/>
		<path id="形状结合" d="M75.18 52.81C75.37 53.01 75.37 53.32 75.18 53.52L72.7 55.99L75.18 58.47C75.37 58.67 75.37 58.98 75.18 59.18C74.98 59.37 74.67 59.37 74.47 59.18L72 56.7L69.52 59.18C69.32 59.37 69.01 59.37 68.81 59.18C68.62 58.98 68.62 58.67 68.81 58.47L71.29 56L68.81 53.52C68.62 53.32 68.62 53.01 68.81 52.81C69.01 52.62 69.32 52.62 69.52 52.81L72 55.29L74.47 52.81C74.67 52.62 74.98 52.62 75.18 52.81Z" fill="#FFFFFF" fill-opacity="1.000000" fill-rule="evenodd"/>
	</g>
</svg>
