<svg width="80.000000" height="80.000000" viewBox="0 0 80 80" fill="none" xmlns="http://www.w3.org/2000/svg" xmlns:xlink="http://www.w3.org/1999/xlink">
	<desc>
			Created with Pixso.
	</desc>
	<defs>
		<clipPath id="clip2_1983">
			<rect id="3#加载失败-load-failure" width="80.000000" height="80.000000" fill="white" fill-opacity="0"/>
		</clipPath>
	</defs>
	<g clip-path="url(#clip2_1983)">
		<path id="形状" d="M60.11 26.24C60.26 26.22 60.4 26.32 60.43 26.47L67.62 67.02C67.64 67.17 67.54 67.32 67.39 67.34C67.25 67.37 67.1 67.27 67.08 67.12L59.89 26.56C59.86 26.41 59.96 26.27 60.11 26.24ZM38.82 20.24C38.9 20.12 39.07 20.08 39.19 20.16C39.32 20.24 39.36 20.41 39.28 20.54L9.1 67.22C9.01 67.34 8.84 67.38 8.72 67.3C8.59 67.21 8.55 67.04 8.64 66.92L38.82 20.24Z" fill="#808080" fill-opacity="1.000000" fill-rule="nonzero"/>
		<ellipse id="椭圆形" rx="21.631477" ry="7.784179" transform="matrix(0.965926 0.258819 -0.258819 0.965926 51.5919 19.2814)" fill="#F0F0F0" fill-opacity="1.000000"/>
		<path id="椭圆形" d="M53.6 11.76C65.14 14.85 73.59 20.72 72.48 24.88C71.37 29.03 61.11 29.89 49.57 26.8C38.03 23.7 29.58 17.83 30.69 13.68C31.79 9.57 41.86 8.68 53.26 11.67L53.6 11.76ZM53.32 12.82C42.34 9.88 32.63 10.69 31.75 13.96C30.88 17.2 38.72 22.68 49.53 25.65L49.86 25.73C60.84 28.68 70.55 27.86 71.42 24.59C72.29 21.35 64.46 15.87 53.65 12.91L53.32 12.82Z" fill="#808080" fill-opacity="1.000000" fill-rule="nonzero"/>
		<path id="形状" d="M34.8 14.76C34.91 14.66 35.08 14.66 35.18 14.77C38.42 18.23 44.05 21.29 50.58 23.04C52.42 23.53 54.26 23.9 56.07 24.14C56.22 24.16 56.32 24.3 56.3 24.45C56.28 24.6 56.15 24.71 56 24.69C54.17 24.44 52.3 24.07 50.44 23.57C43.82 21.79 38.1 18.68 34.78 15.15C34.68 15.04 34.68 14.87 34.8 14.76ZM67.15 23.82C67.3 23.79 67.45 23.88 67.49 24.02C67.52 24.17 67.43 24.32 67.29 24.36C65.41 24.82 63.25 25.05 60.92 25.04C60.77 25.04 60.65 24.92 60.65 24.76C60.65 24.61 60.77 24.49 60.92 24.49C63.21 24.5 65.32 24.27 67.15 23.82Z" fill="#808080" fill-opacity="1.000000" fill-rule="nonzero"/>
		<path id="椭圆形" d="M63.83 19.27C65.56 12.81 61.85 6.21 55.54 4.52C49.23 2.83 42.72 6.69 40.99 13.15C39.25 19.61 62.1 25.73 63.83 19.27Z" fill="#FFFFFF" fill-opacity="1.000000" fill-rule="evenodd"/>
		<path id="椭圆形" d="M55.54 4.52C61.85 6.21 65.56 12.81 63.83 19.27C62.1 25.73 39.25 19.61 40.99 13.15C42.72 6.69 49.23 2.83 55.54 4.52ZM55.26 5.58C49.54 4.05 43.62 7.56 42.05 13.44C40.69 18.48 61.42 24.03 62.77 18.99C64.35 13.11 60.98 7.11 55.26 5.58Z" fill="#808080" fill-opacity="1.000000" fill-rule="nonzero"/>
		<path id="Fill-1" d="M37.99 45.73C37.99 48.61 40.35 50.96 43.24 50.96C46.14 50.96 48.5 48.61 48.5 45.73C48.5 42.84 46.14 40.49 43.24 40.49C40.35 40.49 37.99 42.84 37.99 45.73Z" fill="#F0F0F0" fill-opacity="1.000000" fill-rule="evenodd"/>
		<path id="Fill-1备份" d="M35.24 44.98C33.45 44.98 31.99 46.43 31.99 48.22C31.99 50 33.45 51.46 35.24 51.46C37.03 51.46 38.49 50 38.49 48.22C38.49 46.43 37.03 44.98 35.24 44.98Z" fill="#F5F5F5" fill-opacity="1.000000" fill-rule="evenodd"/>
		<ellipse id="椭圆形备份" cx="34.500000" cy="60.501190" rx="8.000000" ry="8.001188" fill="#1476FF" fill-opacity="1.000000"/>
		<ellipse id="椭圆形备份" cx="34.500000" cy="63.750122" rx="0.750000" ry="0.750112" fill="#FFFFFF" fill-opacity="1.000000"/>
		<path id="路径-4" d="M34.5 56C34.77 56 35 56.24 35 56.54L35 61.45C35 61.75 34.77 62 34.5 62C34.22 62 34 61.75 34 61.45L34 56.54C34 56.24 34.22 56 34.5 56Z" fill="#FFFFFF" fill-opacity="1.000000" fill-rule="nonzero"/>
		<path id="Fill-1" d="M21.23 63.42C19.99 63.42 18.98 64.43 18.98 65.66C18.98 66.9 19.99 67.91 21.23 67.91C22.47 67.91 23.48 66.9 23.48 65.66C23.48 64.43 22.47 63.42 21.23 63.42Z" fill="#F5F5F5" fill-opacity="1.000000" fill-rule="evenodd"/>
	</g>
</svg>
