<svg width="80.000000" height="80.000000" viewBox="0 0 80 80" fill="none" xmlns="http://www.w3.org/2000/svg" xmlns:xlink="http://www.w3.org/1999/xlink">
	<desc>
			Created with Pixso.
	</desc>
	<defs>
		<clipPath id="clip2_1973">
			<rect id="4#区域不支持-region-not-supported" width="80.000000" height="80.000000" fill="white" fill-opacity="0"/>
		</clipPath>
	</defs>
	<g clip-path="url(#clip2_1973)">
		<mask id="mask2_2218" mask-type="alpha" maskUnits="userSpaceOnUse" x="0.000000" y="0.000000" width="80.000000" height="80.000000">
			<rect id="path-1" width="80.000000" height="80.000000" fill="#FFFFFF" fill-opacity="1.000000"/>
		</mask>
		<g mask="url(#mask2_2218)">
			<path id="路径" d="M69.93 19C72.18 19 74 20.81 74 23.04L74 67.95C74 70.18 72.18 72 69.93 72L10.06 72C7.81 72 6 70.18 6 67.95L6 23.04C6 20.81 7.81 19 10.06 19L69.93 19Z" fill="#FFFFFF" fill-opacity="1.000000" fill-rule="nonzero"/>
			<path id="矩形" d="M69.93 19C72.18 19 74 20.81 74 23.04L74 67.95C74 70.18 72.18 72 69.93 72L10.06 72C7.81 72 6 70.18 6 67.95L6 23.04C6 20.81 7.81 19 10.06 19L69.93 19ZM69.93 20.1L10.06 20.1C8.42 20.1 7.09 21.42 7.09 23.05L7.09 67.94C7.09 69.57 8.42 70.89 10.06 70.89L69.93 70.89C71.57 70.89 72.9 69.57 72.9 67.94L72.9 23.05C72.9 21.42 71.57 20.1 69.93 20.1Z" fill="#808080" fill-opacity="1.000000" fill-rule="nonzero"/>
			<path id="矩形" d="M9.05 19L70.94 19C72.63 19 74 20.36 74 22.05L74 31L6 31L6 22.05C6 20.36 7.36 19 9.05 19Z" fill="#F0F0F0" fill-opacity="1.000000" fill-rule="evenodd"/>
			<path id="矩形" d="M70.95 19C72.63 19 74 20.39 74 22.1L74 31L6 31L6 22.1C6 20.39 7.36 19 9.04 19L70.95 19ZM70.95 20.11L9.04 20.11C7.97 20.11 7.09 21 7.09 22.1L7.09 29.88L72.9 29.88L72.9 22.1C72.9 21.04 72.08 20.17 71.05 20.12L70.95 20.11Z" fill="#808080" fill-opacity="1.000000" fill-rule="nonzero"/>
			<circle id="椭圆形" cx="59.750000" cy="25.000000" r="1.250000" fill="#808080" fill-opacity="1.000000"/>
			<circle id="椭圆形" cx="64.250000" cy="25.000000" r="1.250000" fill="#808080" fill-opacity="1.000000"/>
			<circle id="椭圆形" cx="68.750000" cy="25.000000" r="1.250000" fill="#808080" fill-opacity="1.000000"/>
		</g>
		<mask id="mask2_2232" mask-type="alpha" maskUnits="userSpaceOnUse" x="0.000000" y="0.000000" width="80.000000" height="80.000000">
			<rect id="path-1" width="80.000000" height="80.000000" fill="#FFFFFF" fill-opacity="1.000000"/>
		</mask>
		<g mask="url(#mask2_2232)">
			<path id="形状结合" d="M19.74 46.69L27.74 48.31L36.05 64.5L14.5 64.5L19.74 46.69ZM31.55 49.08L62.22 55.26L65.5 64.5L39.47 64.5L31.55 49.08ZM55.91 37.5L61.04 51.94L29.36 45.55C29.16 45.46 28.94 45.42 28.72 45.42L20.59 43.78L22.44 37.5L55.91 37.5Z" fill="#F0F0F0" fill-opacity="1.000000" fill-rule="evenodd"/>
		</g>
		<mask id="mask2_2237" mask-type="alpha" maskUnits="userSpaceOnUse" x="0.000000" y="0.000000" width="80.000000" height="80.000000">
			<rect id="path-1" width="80.000000" height="80.000000" fill="#FFFFFF" fill-opacity="1.000000"/>
		</mask>
		<g mask="url(#mask2_2237)">
			<path id="形状" d="M53.23 37.5C49.8 37.49 46.65 39.39 45.06 42.44C43.46 45.48 43.68 49.17 45.62 52C45.68 52.1 45.74 52.18 45.8 52.27L45.93 52.45L52.55 61.17C52.72 61.38 52.98 61.49 53.24 61.5C53.52 61.49 53.79 61.36 53.97 61.14L60.69 52.27C60.75 52.18 60.81 52.08 60.85 52.03C62.81 49.2 63.04 45.5 61.44 42.45C59.84 39.39 56.67 37.48 53.23 37.5Z" fill="#FFFFFF" fill-opacity="1.000000" fill-rule="nonzero"/>
			<path id="形状" d="M53.25 38C56.5 37.98 59.49 39.79 61 42.68C62.48 45.51 62.3 48.93 60.54 51.58L60.43 51.76L60.28 51.98L53.57 60.84C53.49 60.93 53.37 60.99 53.23 61C53.12 60.99 53.01 60.94 52.93 60.85L46.33 52.15L46.2 51.97L46.12 51.86C46.1 51.82 46.08 51.79 46.05 51.74C44.19 49.04 43.99 45.55 45.5 42.67C46.98 39.84 49.88 38.06 53.05 38L53.25 38ZM61.09 52.57L61.16 52.47L61.27 52.3C63.32 49.33 63.57 45.44 61.88 42.22C60.23 39.05 56.99 37.06 53.44 37L53.23 37C49.62 36.99 46.3 38.99 44.61 42.21C42.93 45.42 43.16 49.3 45.21 52.29L45.3 52.43C45.33 52.48 45.36 52.52 45.39 52.56L45.53 52.75L52.15 61.48C52.44 61.81 52.83 61.99 53.24 62C53.68 61.99 54.08 61.79 54.35 61.46L61.09 52.57Z" fill="#808080" fill-opacity="1.000000" fill-rule="nonzero"/>
			<circle id="椭圆形" cx="53.500000" cy="47.050262" r="6.000000" fill="#1476FF" fill-opacity="1.000000"/>
			<path id="形状结合" d="M55.97 44.57C56.12 44.72 56.12 44.97 55.97 45.12L54.04 47.04L55.97 48.97C56.12 49.12 56.12 49.37 55.97 49.52C55.82 49.67 55.57 49.67 55.42 49.52L53.5 47.59L51.57 49.52C51.42 49.67 51.17 49.67 51.02 49.52C50.87 49.37 50.87 49.12 51.02 48.97L52.95 47.04L51.02 45.12C50.87 44.97 50.87 44.72 51.02 44.57C51.17 44.42 51.42 44.42 51.57 44.57L53.5 46.5L55.42 44.57C55.57 44.42 55.82 44.42 55.97 44.57Z" fill="#FFFFFF" fill-opacity="1.000000" fill-rule="evenodd"/>
		</g>
	</g>
</svg>
