<svg width="80.000000" height="80.000000" viewBox="0 0 80 80" fill="none" xmlns="http://www.w3.org/2000/svg" xmlns:xlink="http://www.w3.org/1999/xlink">
	<desc>
			Created with Pixso.
	</desc>
	<defs>
		<clipPath id="clip2_1969">
			<rect id="5#冻结-frozen" width="80.000000" height="80.000000" fill="white" fill-opacity="0"/>
		</clipPath>
	</defs>
	<g clip-path="url(#clip2_1969)">
		<path id="路径" d="M72.43 21.5C74.68 21.5 76.5 23.31 76.5 25.54L76.5 70.45C76.5 72.68 74.68 74.5 72.43 74.5L12.56 74.5C10.31 74.5 8.5 72.68 8.5 70.45L8.5 25.54C8.5 23.31 10.31 21.5 12.56 21.5L72.43 21.5Z" fill="#FFFFFF" fill-opacity="1.000000" fill-rule="nonzero"/>
		<path id="矩形" d="M72.43 21.5C74.68 21.5 76.5 23.31 76.5 25.54L76.5 70.45C76.5 72.68 74.68 74.5 72.43 74.5L12.56 74.5C10.31 74.5 8.5 72.68 8.5 70.45L8.5 25.54C8.5 23.31 10.31 21.5 12.56 21.5L72.43 21.5ZM72.43 22.6L12.56 22.6C10.92 22.6 9.59 23.92 9.59 25.55L9.59 70.44C9.59 72.07 10.92 73.39 12.56 73.39L72.43 73.39C74.07 73.39 75.4 72.07 75.4 70.44L75.4 25.55C75.4 23.92 74.07 22.6 72.43 22.6Z" fill="#808080" fill-opacity="1.000000" fill-rule="nonzero"/>
		<rect id="矩形" x="19.000000" y="44.500000" rx="2.000000" width="22.500000" height="9.000000" fill="#F0F0F0" fill-opacity="1.000000"/>
		<rect id="矩形备份-15" x="19.000000" y="55.500000" rx="2.000000" width="22.500000" height="9.000000" fill="#F0F0F0" fill-opacity="1.000000"/>
		<rect id="矩形备份-14" x="43.500000" y="44.500000" rx="2.000000" width="22.500000" height="9.000000" fill="#F0F0F0" fill-opacity="1.000000"/>
		<rect id="矩形备份-16" x="43.500000" y="55.500000" rx="2.000000" width="22.500000" height="9.000000" fill="#F0F0F0" fill-opacity="1.000000"/>
		<path id="矩形备份-7" d="M20 33.5L40.5 33.5C41.05 33.5 41.5 33.94 41.5 34.5L41.5 41.5C41.5 42.05 41.05 42.5 40.5 42.5L20 42.5C19.44 42.5 19 42.05 19 41.5L19 34.5C19 33.94 19.44 33.5 20 33.5Z" fill="#DBDBDB" fill-opacity="1.000000" fill-rule="evenodd"/>
		<path id="矩形备份-17" d="M65 33.25L44.5 33.25C43.8 33.25 43.25 33.8 43.25 34.5L43.25 41.5C43.25 42.19 43.8 42.75 44.5 42.75L65 42.75C65.69 42.75 66.25 42.19 66.25 41.5L66.25 34.5C66.25 33.8 65.69 33.25 65 33.25ZM65 33.75C65.41 33.75 65.75 34.08 65.75 34.5L65.75 41.5C65.75 41.91 65.41 42.25 65 42.25L44.5 42.25C44.08 42.25 43.75 41.91 43.75 41.5L43.75 34.5C43.75 34.08 44.08 33.75 44.5 33.75L65 33.75Z" fill="#808080" fill-opacity="1.000000" fill-rule="nonzero"/>
		<path id="形状" d="M61.17 37.99C61.85 37.91 62.41 37.35 62.49 36.67C62.59 35.76 61.88 35 61 35C60.17 35 59.5 35.67 59.5 36.49C59.5 37.38 60.26 38.09 61.17 37.99ZM61 38.05C59.37 38.05 58 39 58 40.14L58 40.78C58 40.9 58.09 41 58.21 41L63.78 41C63.9 41 64 40.9 64 40.78L64 40.14C64 39 62.62 38.05 61 38.05Z" fill="#DBDBDB" fill-opacity="1.000000" fill-rule="evenodd"/>
		<path id="矩形" d="M47 36.5C47.27 36.5 47.5 36.72 47.5 37C47.5 37.27 47.27 37.5 47 37.5C46.72 37.5 46.5 37.27 46.5 37C46.5 36.72 46.72 36.5 47 36.5Z" fill="#808080" fill-opacity="1.000000" fill-rule="nonzero"/>
		<path id="矩形备份-11" d="M48.5 36.5C48.77 36.5 49 36.72 49 37C49 37.27 48.77 37.5 48.5 37.5C48.22 37.5 48 37.27 48 37C48 36.72 48.22 36.5 48.5 36.5Z" fill="#808080" fill-opacity="1.000000" fill-rule="nonzero"/>
		<path id="矩形备份-12" d="M50 36.5C50.27 36.5 50.5 36.72 50.5 37C50.5 37.27 50.27 37.5 50 37.5C49.72 37.5 49.5 37.27 49.5 37C49.5 36.72 49.72 36.5 50 36.5Z" fill="#808080" fill-opacity="1.000000" fill-rule="nonzero"/>
		<path id="矩形备份-18" d="M54.75 38.5C54.88 38.5 55 38.61 55 38.75C55 38.88 54.88 39 54.75 39L46.75 39C46.61 39 46.5 38.88 46.5 38.75C46.5 38.61 46.61 38.5 46.75 38.5L54.75 38.5Z" fill="#808080" fill-opacity="1.000000" fill-rule="nonzero"/>
		<circle id="椭圆形" cx="11.500000" cy="24.000000" r="8.000000" fill="#1476FF" fill-opacity="1.000000"/>
		<path id="形状" d="M13.78 23.27L13.78 21.77C13.78 20.52 12.76 19.5 11.49 19.5C10.23 19.5 9.21 20.52 9.21 21.77L9.21 23.27L8.56 23.27C8.25 23.27 8 23.52 8 23.83L8 27.93C8 28.24 8.25 28.5 8.56 28.5L14.43 28.5C14.74 28.5 15 28.24 15 27.93L15 23.83C15 23.52 14.74 23.27 14.43 23.27L13.78 23.27ZM11.81 25.99L11.81 26.88C11.81 26.92 11.78 26.96 11.74 26.96L11.25 26.96C11.21 26.96 11.18 26.92 11.18 26.88L11.18 25.99C10.95 25.87 10.79 25.64 10.79 25.37C10.79 24.98 11.11 24.67 11.49 24.67C11.88 24.67 12.2 24.98 12.2 25.37C12.2 25.64 12.04 25.87 11.81 25.99ZM12.9 23.27L10.09 23.27L10.09 21.81C10.09 21.03 10.72 20.41 11.5 20.41C12.27 20.41 12.9 21.03 12.9 21.81L12.9 23.27Z" fill="#FFFFFF" fill-opacity="1.000000" fill-rule="nonzero"/>
	</g>
</svg>
