<svg width="80.000000" height="80.000000" viewBox="0 0 80 80" fill="none" xmlns="http://www.w3.org/2000/svg" xmlns:xlink="http://www.w3.org/1999/xlink">
	<desc>
			Created with Pixso.
	</desc>
	<defs>
		<clipPath id="clip2_1971">
			<rect id="6#即将上线-coming-soon" width="80.000000" height="80.000000" fill="white" fill-opacity="0"/>
		</clipPath>
	</defs>
	<g clip-path="url(#clip2_1971)">
		<mask id="mask2_2165" mask-type="alpha" maskUnits="userSpaceOnUse" x="0.000000" y="0.000000" width="80.000000" height="80.000000">
			<rect id="path-1" width="80.000000" height="80.000000" fill="#FFFFFF" fill-opacity="1.000000"/>
		</mask>
		<g mask="url(#mask2_2165)">
			<path id="路径" d="M65.93 19C68.18 19 70 20.81 70 23.04L70 67.95C70 70.18 68.18 72 65.93 72L6.06 72C3.81 72 2 70.18 2 67.95L2 23.04C2 20.81 3.81 19 6.06 19L65.93 19Z" fill="#FFFFFF" fill-opacity="1.000000" fill-rule="nonzero"/>
			<path id="矩形" d="M65.93 19C68.18 19 70 20.81 70 23.04L70 67.95C70 70.18 68.18 72 65.93 72L6.06 72C3.81 72 2 70.18 2 67.95L2 23.04C2 20.81 3.81 19 6.06 19L65.93 19ZM65.93 20.1L6.06 20.1C4.42 20.1 3.09 21.42 3.09 23.05L3.09 67.94C3.09 69.57 4.42 70.89 6.06 70.89L65.93 70.89C67.57 70.89 68.9 69.57 68.9 67.94L68.9 23.05C68.9 21.42 67.57 20.1 65.93 20.1Z" fill="#808080" fill-opacity="1.000000" fill-rule="nonzero"/>
			<path id="矩形" d="M5.05 19L66.94 19C68.63 19 70 20.36 70 22.05L70 31L2 31L2 22.05C2 20.36 3.36 19 5.05 19Z" fill="#F0F0F0" fill-opacity="1.000000" fill-rule="evenodd"/>
			<path id="矩形" d="M66.95 19C68.63 19 70 20.39 70 22.1L70 31L2 31L2 22.1C2 20.39 3.36 19 5.04 19L66.95 19ZM66.95 20.11L5.04 20.11C3.97 20.11 3.09 21 3.09 22.1L3.09 29.88L68.9 29.88L68.9 22.1C68.9 21.04 68.08 20.17 67.05 20.12L66.95 20.11Z" fill="#808080" fill-opacity="1.000000" fill-rule="nonzero"/>
			<circle id="椭圆形" cx="55.750000" cy="25.000000" r="1.250000" fill="#808080" fill-opacity="1.000000"/>
			<circle id="椭圆形" cx="60.250000" cy="25.000000" r="1.250000" fill="#808080" fill-opacity="1.000000"/>
			<circle id="椭圆形" cx="64.750000" cy="25.000000" r="1.250000" fill="#808080" fill-opacity="1.000000"/>
			<rect id="矩形" x="8.500000" y="38.500000" rx="2.000000" width="15.000000" height="10.000000" fill="#DBDBDB" fill-opacity="1.000000"/>
			<rect id="矩形备份-7" x="8.500000" y="53.500000" rx="2.000000" width="15.000000" height="10.000000" fill="#F0F0F0" fill-opacity="1.000000"/>
			<rect id="矩形备份-6" x="28.500000" y="38.500000" rx="2.000000" width="15.000000" height="10.000000" fill="#F0F0F0" fill-opacity="1.000000"/>
			<rect id="矩形备份-9" x="48.500000" y="38.500000" rx="2.000000" width="15.000000" height="10.000000" fill="#F0F0F0" fill-opacity="1.000000"/>
			<rect id="矩形备份-8" x="28.500000" y="53.500000" rx="2.000000" width="15.000000" height="10.000000" fill="#F0F0F0" fill-opacity="1.000000"/>
			<rect id="矩形备份-10" x="48.500000" y="53.500000" rx="2.000000" width="15.000000" height="10.000000" fill="#F0F0F0" fill-opacity="1.000000"/>
		</g>
		<mask id="mask2_2186" mask-type="alpha" maskUnits="userSpaceOnUse" x="0.000000" y="0.000000" width="80.000000" height="80.000000">
			<rect id="path-1" width="80.000000" height="80.000000" fill="#FFFFFF" fill-opacity="1.000000"/>
		</mask>
		<g mask="url(#mask2_2186)">
			<path id="路径" d="M66.38 40.79C72.87 40.79 78.15 46.07 78.15 52.56C78.15 59.05 72.87 64.33 66.38 64.33C59.9 64.33 54.62 59.05 54.62 52.56C54.62 46.07 59.9 40.79 66.38 40.79Z" fill="#FFFFFF" fill-opacity="1.000000" fill-rule="evenodd"/>
			<path id="路径" d="M66.36 44.78C70.82 44.78 74.45 48.34 74.45 52.72C74.45 57.1 70.82 60.66 66.36 60.66C61.89 60.66 58.26 57.1 58.26 52.72C58.26 48.34 61.89 44.78 66.36 44.78Z" fill="#1476FF" fill-opacity="1.000000" fill-rule="evenodd"/>
			<path id="路径" d="M57.9 52.75C57.9 52.93 57.91 53.1 57.92 53.28L58.92 53.21C58.91 53.06 58.9 52.9 58.9 52.74L57.9 52.75ZM57.98 53.81C58 53.99 58.03 54.16 58.06 54.34L59.04 54.14C59.01 53.99 58.99 53.83 58.97 53.68L57.98 53.81ZM58.18 54.86C58.23 55.03 58.28 55.2 58.34 55.37L59.29 55.05C59.24 54.9 59.19 54.75 59.15 54.6L58.18 54.86ZM58.53 55.88C58.6 56.04 58.67 56.21 58.75 56.36L59.65 55.92C59.58 55.78 59.51 55.64 59.45 55.5L58.53 55.88ZM58.99 56.83C59.08 56.98 59.17 57.13 59.27 57.28L60.11 56.73C60.02 56.6 59.94 56.47 59.86 56.33L58.99 56.83ZM59.59 57.72C59.69 57.86 59.81 58 59.92 58.14L60.68 57.48C60.58 57.36 60.48 57.24 60.38 57.12L59.59 57.72ZM60.3 58.54C60.42 58.67 60.55 58.79 60.68 58.91L61.35 58.16C61.23 58.05 61.12 57.95 61.01 57.84L60.3 58.54ZM61.1 59.26C61.24 59.37 61.38 59.47 61.53 59.57L62.1 58.75C61.97 58.66 61.84 58.57 61.72 58.47L61.1 59.26ZM61.98 59.86C62.13 59.95 62.29 60.04 62.44 60.12L62.9 59.23C62.76 59.16 62.63 59.08 62.49 59L61.98 59.86ZM62.93 60.35C63.09 60.42 63.26 60.48 63.42 60.54L63.76 59.6C63.62 59.55 63.47 59.49 63.33 59.43L62.93 60.35ZM63.94 60.71C64.11 60.76 64.29 60.81 64.46 60.85L64.68 59.87C64.52 59.84 64.37 59.8 64.22 59.75L63.94 60.71ZM64.97 60.94C65.14 60.97 65.32 61 65.5 61.01L65.59 60.02C65.44 60 65.28 59.98 65.13 59.96L64.97 60.94ZM66.07 60.05L66.04 61.05L66.25 61.05C66.36 61.05 66.46 61.05 66.57 61.05L66.54 60.05L66.4 60.05L66.26 60.05C66.2 60.05 66.13 60.05 66.07 60.05ZM67.1 61.02C67.28 61 67.45 60.98 67.63 60.95L67.48 59.96C67.32 59.99 67.17 60.01 67.01 60.02L67.1 61.02ZM68.15 60.85C68.33 60.82 68.5 60.77 68.67 60.72L68.4 59.76C68.24 59.8 68.09 59.84 67.94 59.88L68.15 60.85ZM69.19 60.56C69.35 60.5 69.52 60.43 69.68 60.36L69.29 59.45C69.14 59.51 69 59.56 68.85 59.62L69.19 60.56ZM70.18 60.13C70.34 60.05 70.5 59.96 70.65 59.87L70.14 59.01C70.01 59.09 69.87 59.17 69.73 59.24L70.18 60.13ZM71.08 59.6C71.23 59.5 71.37 59.4 71.51 59.29L70.9 58.5C70.78 58.59 70.65 58.68 70.52 58.77L71.08 59.6ZM71.93 58.94C72.07 58.82 72.2 58.7 72.32 58.58L71.61 57.87C71.5 57.98 71.39 58.09 71.27 58.19L71.93 58.94ZM71.95 57.51L72.7 58.17L72.79 58.07C72.87 57.97 72.96 57.87 73.04 57.76L72.25 57.15L72.14 57.29L72.02 57.43C72 57.46 71.97 57.48 71.95 57.51ZM73.35 57.33C73.45 57.18 73.54 57.03 73.63 56.88L72.77 56.37C72.69 56.51 72.61 56.64 72.52 56.77L73.35 57.33ZM73.89 56.41C73.97 56.25 74.04 56.09 74.11 55.92L73.19 55.53C73.13 55.68 73.07 55.82 73 55.96L73.89 56.41ZM74.31 55.42C74.37 55.25 74.42 55.08 74.47 54.91L73.5 54.64C73.46 54.79 73.41 54.94 73.36 55.09L74.31 55.42ZM74.59 54.4C74.63 54.22 74.66 54.05 74.68 53.87L73.69 53.73C73.67 53.89 73.64 54.04 73.61 54.19L74.59 54.4ZM74.74 53.33C74.75 53.18 74.76 53.03 74.76 52.88L73.76 52.86C73.76 52.99 73.75 53.13 73.74 53.26L74.74 53.33Z" fill="#FFFFFF" fill-opacity="1.000000" fill-rule="nonzero"/>
			<path id="路径" d="M74.77 52.71C74.77 52.53 74.76 52.35 74.75 52.17L73.75 52.24C73.76 52.4 73.77 52.55 73.77 52.71L74.77 52.71ZM74.69 51.64C74.67 51.47 74.64 51.29 74.61 51.12L73.63 51.31C73.66 51.47 73.68 51.62 73.7 51.78L74.69 51.64ZM74.49 50.6C74.44 50.42 74.39 50.25 74.33 50.09L73.38 50.41C73.43 50.55 73.48 50.7 73.52 50.85L74.49 50.6ZM74.14 49.57C74.07 49.41 74 49.25 73.92 49.09L73.02 49.53C73.09 49.67 73.16 49.81 73.22 49.96L74.14 49.57ZM73.68 48.63C73.59 48.47 73.49 48.32 73.4 48.17L72.56 48.72C72.65 48.85 72.73 48.99 72.81 49.12L73.68 48.63ZM73.08 47.73C72.98 47.59 72.86 47.45 72.75 47.32L71.99 47.97C72.09 48.09 72.19 48.21 72.29 48.33L73.08 47.73ZM72.37 46.91C72.25 46.79 72.12 46.67 71.99 46.55L71.32 47.29C71.44 47.4 71.55 47.51 71.66 47.62L72.37 46.91ZM71.57 46.2C71.43 46.09 71.29 45.98 71.14 45.88L70.57 46.71C70.7 46.79 70.83 46.89 70.95 46.98L71.57 46.2ZM70.69 45.59C70.54 45.5 70.38 45.42 70.23 45.34L69.77 46.23C69.91 46.3 70.04 46.37 70.18 46.45L70.69 45.59ZM69.74 45.11C69.58 45.04 69.41 44.97 69.25 44.91L68.91 45.85C69.05 45.9 69.2 45.96 69.34 46.02L69.74 45.11ZM68.73 44.74C68.56 44.69 68.38 44.65 68.21 44.61L67.99 45.58C68.15 45.62 68.3 45.66 68.45 45.7L68.73 44.74ZM67.7 44.51C67.53 44.48 67.35 44.46 67.17 44.44L67.08 45.44C67.23 45.45 67.39 45.47 67.54 45.5L67.7 44.51ZM66.6 45.41L66.63 44.41L66.42 44.4C66.31 44.4 66.2 44.4 66.1 44.41L66.13 45.41L66.27 45.4L66.41 45.4C66.47 45.4 66.54 45.4 66.6 45.41ZM65.57 44.44C65.39 44.45 65.22 44.48 65.04 44.5L65.19 45.49C65.35 45.47 65.5 45.45 65.66 45.43L65.57 44.44ZM64.52 44.6C64.34 44.64 64.17 44.68 64 44.73L64.27 45.69C64.42 45.65 64.58 45.61 64.73 45.58L64.52 44.6ZM63.48 44.9C63.32 44.95 63.15 45.02 62.99 45.09L63.38 46.01C63.53 45.95 63.67 45.89 63.82 45.84L63.48 44.9ZM62.49 45.32C62.33 45.4 62.17 45.49 62.02 45.58L62.53 46.44C62.66 46.36 62.8 46.29 62.94 46.22L62.49 45.32ZM61.59 45.85C61.44 45.95 61.3 46.06 61.16 46.17L61.77 46.96C61.89 46.86 62.02 46.77 62.15 46.68L61.59 45.85ZM60.74 46.51C60.6 46.63 60.47 46.75 60.35 46.88L61.06 47.58C61.17 47.47 61.28 47.37 61.4 47.26L60.74 46.51ZM60.72 47.94L59.97 47.28L59.88 47.38C59.8 47.48 59.71 47.59 59.63 47.69L60.42 48.3L60.53 48.17L60.65 48.03C60.67 48 60.7 47.97 60.72 47.94ZM59.32 48.12C59.22 48.27 59.13 48.42 59.04 48.57L59.9 49.08C59.98 48.95 60.06 48.81 60.15 48.68L59.32 48.12ZM58.78 49.05C58.7 49.2 58.63 49.37 58.56 49.53L59.48 49.92C59.54 49.78 59.6 49.63 59.67 49.49L58.78 49.05ZM58.36 50.04C58.3 50.21 58.25 50.37 58.2 50.55L59.17 50.81C59.21 50.66 59.25 50.51 59.31 50.37L58.36 50.04ZM58.08 51.06C58.04 51.23 58.01 51.4 57.99 51.58L58.98 51.72C59 51.57 59.03 51.41 59.06 51.26L58.08 51.06ZM57.93 52.12C57.92 52.27 57.91 52.42 57.91 52.57L58.91 52.59C58.91 52.46 58.92 52.33 58.93 52.2L57.93 52.12Z" fill="#FFFFFF" fill-opacity="1.000000" fill-rule="nonzero"/>
			<path id="路径" d="M66.21 40.58C66.49 40.58 66.76 40.59 67.04 40.61L66.99 41.36C66.73 41.34 66.47 41.33 66.21 41.33L66.21 40.58ZM67.86 40.69C68.13 40.73 68.4 40.78 68.67 40.83L68.52 41.57C68.27 41.52 68.02 41.47 67.76 41.44L67.86 40.69ZM69.48 41.03C69.75 41.1 70.01 41.19 70.27 41.28L70.02 41.99C69.78 41.9 69.53 41.82 69.28 41.75L69.48 41.03ZM71.04 41.58C71.29 41.69 71.54 41.81 71.78 41.94L71.44 42.6C71.21 42.48 70.98 42.37 70.74 42.27L71.04 41.58ZM72.51 42.35C72.75 42.49 72.98 42.64 73.2 42.8L72.77 43.41C72.56 43.26 72.34 43.12 72.12 42.99L72.51 42.35ZM73.87 43.31C74.09 43.49 74.29 43.67 74.49 43.86L73.98 44.41C73.79 44.23 73.6 44.06 73.4 43.89L73.87 43.31ZM75.06 44.43C75.25 44.63 75.43 44.84 75.6 45.05L75.02 45.52C74.86 45.32 74.69 45.13 74.51 44.94L75.06 44.43ZM76.11 45.72C76.26 45.94 76.41 46.17 76.56 46.41L75.91 46.8C75.78 46.58 75.64 46.36 75.49 46.15L76.11 45.72ZM76.96 47.14C77.09 47.39 77.21 47.64 77.31 47.89L76.62 48.19C76.52 47.95 76.41 47.71 76.3 47.49L76.96 47.14ZM77.62 48.68C77.71 48.94 77.79 49.2 77.86 49.47L77.13 49.66C77.07 49.41 76.99 49.17 76.91 48.92L77.62 48.68ZM78.05 50.3C78.1 50.57 78.14 50.84 78.17 51.11L77.43 51.2C77.4 50.95 77.36 50.69 77.31 50.44L78.05 50.3ZM78.25 51.96C78.26 52.16 78.26 52.35 78.26 52.54L77.51 52.54C77.51 52.36 77.51 52.18 77.5 52L78.25 51.96Z" fill="#808080" fill-opacity="1.000000" fill-rule="nonzero"/>
			<path id="路径" d="M57.4 44.49C57.54 44.34 57.77 44.33 57.93 44.47C58.08 44.61 58.09 44.84 57.95 45C56.08 47.05 55.02 49.72 55.02 52.55C55.02 58.75 60.05 63.77 66.27 63.77C67.95 63.77 69.58 63.4 71.06 62.7C71.25 62.61 71.47 62.69 71.56 62.88C71.65 63.07 71.57 63.29 71.38 63.38C69.8 64.13 68.06 64.52 66.27 64.52C59.64 64.52 54.27 59.16 54.27 52.55C54.27 49.53 55.4 46.68 57.4 44.49Z" fill="#808080" fill-opacity="1.000000" fill-rule="nonzero"/>
			<circle id="椭圆形" cx="66.279694" cy="40.474976" r="1.475000" fill="#808080" fill-opacity="1.000000"/>
			<circle id="椭圆形备份" cx="71.589722" cy="62.895020" r="0.885000" fill="#808080" fill-opacity="1.000000"/>
			<path id="形状结合" d="M65.9 48.5C66.12 48.5 66.3 48.67 66.3 48.9L66.3 52.07C66.42 52.16 66.5 52.3 66.53 52.46L70.85 54.95C71.04 55.06 71.1 55.3 70.99 55.5C70.88 55.69 70.64 55.75 70.45 55.64L66.17 53.17C66.08 53.21 65.99 53.23 65.9 53.23C65.54 53.23 65.25 52.94 65.25 52.58C65.25 52.37 65.34 52.19 65.49 52.07L65.5 48.9C65.5 48.67 65.67 48.5 65.9 48.5Z" fill="#FFFFFF" fill-opacity="1.000000" fill-rule="evenodd"/>
		</g>
	</g>
</svg>
