<svg width="80.000000" height="80.000000" viewBox="0 0 80 80" fill="none" xmlns="http://www.w3.org/2000/svg" xmlns:xlink="http://www.w3.org/1999/xlink">
	<desc>
			Created with Pixso.
	</desc>
	<defs>
		<clipPath id="clip2_1977">
			<rect id="7#系统繁忙-system-busy" width="80.000000" height="80.000000" fill="white" fill-opacity="0"/>
		</clipPath>
	</defs>
	<g clip-path="url(#clip2_1977)">
		<mask id="mask2_2318" mask-type="alpha" maskUnits="userSpaceOnUse" x="0.000031" y="0.000000" width="80.000000" height="80.000000">
			<rect id="path-1" x="0.000031" width="80.000000" height="80.000000" fill="#FFFFFF" fill-opacity="1.000000"/>
		</mask>
		<g mask="url(#mask2_2318)">
			<path id="路径" d="M70.82 18.06L9.17 18.06C8 18.06 7.05 19.02 7.05 20.2L7.05 66.79C7.05 67.97 8 68.93 9.17 68.93L70.82 68.93C71.99 68.93 72.94 67.97 72.94 66.79L72.94 20.2C72.94 19.02 71.99 18.06 70.82 18.06Z" fill="#FFFFFF" fill-opacity="1.000000" fill-rule="nonzero"/>
			<path id="矩形" d="M70.82 17C72.57 17 74 18.43 74 20.2L74 66.79C74 68.56 72.57 70 70.82 70L9.17 70C7.42 70 6 68.56 6 66.79L6 20.2C6 18.43 7.42 17 9.17 17L70.82 17ZM70.82 18.06L9.17 18.06C8 18.06 7.05 19.02 7.05 20.2L7.05 66.79C7.05 67.97 8 68.93 9.17 68.93L70.82 68.93C71.99 68.93 72.94 67.97 72.94 66.79L72.94 20.2C72.94 19.02 71.99 18.06 70.82 18.06Z" fill="#808080" fill-opacity="1.000000" fill-rule="nonzero"/>
			<rect id="矩形" x="11.000031" y="22.682129" rx="1.500000" width="16.320669" height="3.000000" fill="#F0F0F0" fill-opacity="1.000000"/>
			<rect id="矩形备份-18" x="11.000031" y="27.682129" rx="1.500000" width="8.250000" height="3.000000" fill="#F0F0F0" fill-opacity="1.000000"/>
			<rect id="矩形备份-31" x="11.000031" y="52.500000" rx="1.500000" width="8.250000" height="3.000000" fill="#F0F0F0" fill-opacity="1.000000"/>
			<rect id="矩形备份-26" x="11.000031" y="42.500000" rx="1.500000" width="21.250000" height="3.000000" fill="#F0F0F0" fill-opacity="1.000000"/>
			<rect id="矩形备份-23" x="11.000031" y="37.682129" rx="1.500000" width="13.500000" height="3.000000" fill="#F0F0F0" fill-opacity="1.000000"/>
			<rect id="矩形备份-16" x="30.123810" y="22.682129" rx="1.500000" width="38.750000" height="3.000000" fill="#F0F0F0" fill-opacity="1.000000"/>
			<rect id="矩形备份-19" x="22.373810" y="27.682129" rx="1.500000" width="19.750002" height="3.000000" fill="#F0F0F0" fill-opacity="1.000000"/>
			<rect id="矩形备份-32" x="22.373810" y="52.500000" rx="1.500000" width="19.750002" height="3.000000" fill="#F0F0F0" fill-opacity="1.000000"/>
			<rect id="矩形备份-34" x="11.123810" y="57.500000" rx="1.500000" width="57.750004" height="3.000000" fill="#F0F0F0" fill-opacity="1.000000"/>
			<rect id="矩形备份-27" x="60.247604" y="42.500000" rx="1.500000" width="8.750004" height="3.000000" fill="#F0F0F0" fill-opacity="1.000000"/>
			<rect id="矩形备份-24" x="27.373810" y="37.682129" rx="1.500000" width="5.000000" height="3.000000" fill="#F0F0F0" fill-opacity="1.000000"/>
			<rect id="矩形备份-21" x="11.000031" y="32.682129" rx="1.500000" width="19.750000" height="3.000000" fill="#F0F0F0" fill-opacity="1.000000"/>
			<rect id="矩形备份-29" x="11.000031" y="47.500000" rx="1.500000" width="19.750000" height="3.000000" fill="#F0F0F0" fill-opacity="1.000000"/>
			<rect id="矩形备份-20" x="45.247604" y="27.682129" rx="1.500000" width="23.750004" height="3.000000" fill="#F0F0F0" fill-opacity="1.000000"/>
			<rect id="矩形备份-33" x="45.247604" y="52.500000" rx="1.500000" width="23.750004" height="3.000000" fill="#F0F0F0" fill-opacity="1.000000"/>
			<rect id="矩形备份-28" x="45.747604" y="42.500000" rx="1.500000" width="12.000000" height="3.000000" fill="#F0F0F0" fill-opacity="1.000000"/>
			<rect id="矩形备份-25" x="47.747604" y="37.682129" rx="1.500000" width="21.250004" height="3.000000" fill="#F0F0F0" fill-opacity="1.000000"/>
			<rect id="矩形备份-22" x="49.247604" y="32.682129" rx="1.500000" width="19.750004" height="3.000000" fill="#F0F0F0" fill-opacity="1.000000"/>
			<rect id="矩形备份-30" x="49.247604" y="47.500000" rx="1.500000" width="19.750004" height="3.000000" fill="#F0F0F0" fill-opacity="1.000000"/>
			<path id="矩形" d="M4.05 71L75.94 71C77.63 71 79 69.63 79 67.94L79 65L1 65L1 67.94C1 69.63 2.36 71 4.05 71Z" fill="#F0F0F0" fill-opacity="1.000000" fill-rule="evenodd"/>
			<path id="矩形" d="M75.94 71C77.63 71 79 69.63 79 67.94L79 65L1 65L1 67.94C1 69.63 2.36 71 4.05 71L75.94 71ZM75.94 70L4.05 70C2.92 70 2 69.07 2 67.94L2 66L78 66L78 67.94C78 69.04 77.13 69.94 76.04 69.99L75.94 70Z" fill="#808080" fill-opacity="1.000000" fill-rule="nonzero"/>
		</g>
		<mask id="mask2_2348" mask-type="alpha" maskUnits="userSpaceOnUse" x="0.000031" y="0.000000" width="80.000000" height="80.000000">
			<rect id="path-1" x="0.000031" width="80.000000" height="80.000000" fill="#FFFFFF" fill-opacity="1.000000"/>
		</mask>
		<g mask="url(#mask2_2348)">
			<path id="矩形备份-31" d="M43.9 35.75L43.9 37.65C43.9 39.9 42.09 41.71 39.84 41.71C37.6 41.71 35.79 39.9 35.79 37.65L35.79 35.75L43.9 35.75Z" fill="#1476FF" fill-opacity="1.000000" fill-rule="nonzero"/>
			<rect id="矩形备份-32" x="35.791840" y="48.329834" width="8.115811" height="2.104098" fill="#1476FF" fill-opacity="1.000000"/>
			<path id="矩形备份-5" d="M44.15 32.75L35.54 32.75L35.54 37.65C35.54 40.03 37.47 41.96 39.84 41.96C42.22 41.96 44.15 40.03 44.15 37.65L44.15 32.75ZM43.65 33.25L43.65 37.65C43.65 39.76 41.95 41.46 39.84 41.46L39.72 41.46C37.68 41.4 36.04 39.72 36.04 37.65L36.04 33.25L43.65 33.25Z" fill="#808080" fill-opacity="1.000000" fill-rule="nonzero"/>
			<path id="矩形备份-33" d="M44.15 50.68L35.54 50.68L35.54 45.77C35.54 43.39 37.47 41.46 39.84 41.46C42.22 41.46 44.15 43.39 44.15 45.77L44.15 50.68ZM43.65 50.18L43.65 45.77C43.65 43.67 41.95 41.96 39.84 41.96L39.72 41.96C37.68 42.03 36.04 43.71 36.04 45.77L36.04 50.18L43.65 50.18Z" fill="#808080" fill-opacity="1.000000" fill-rule="nonzero"/>
			<path id="路径-13备份-2" d="M47.81 32.75C47.95 32.75 48.06 32.86 48.06 33C48.06 33.13 47.95 33.25 47.81 33.25L32.18 33.25C32.04 33.25 31.93 33.13 31.93 33C31.93 32.86 32.04 32.75 32.18 32.75L47.81 32.75Z" fill="#808080" fill-opacity="1.000000" fill-rule="nonzero"/>
			<path id="路径-13备份-3" d="M47.81 50.18C47.95 50.18 48.06 50.29 48.06 50.43C48.06 50.57 47.95 50.68 47.81 50.68L32.18 50.68C32.04 50.68 31.93 50.57 31.93 50.43C31.93 50.29 32.04 50.18 32.18 50.18L47.81 50.18Z" fill="#808080" fill-opacity="1.000000" fill-rule="nonzero"/>
		</g>
		<mask id="mask2_2360" mask-type="alpha" maskUnits="userSpaceOnUse" x="-9.118042" y="-24.628540" width="109.282028" height="109.282043">
			<rect id="path-1" x="-9.118042" y="15.371460" width="80.000000" height="80.000000" transform="rotate(-30 -9.118042 15.371460)" fill="#FFFFFF" fill-opacity="1.000000"/>
		</mask>
		<g mask="url(#mask2_2360)">
			<path id="路径" d="M23.21 17.24C34.74 11.02 44.8 8.54 46.62 11.68C48.56 15.04 40.2 23.33 27.95 30.47L27.58 30.68C15.13 37.87 3.56 41.07 1.6 37.67C1.11 36.82 1.37 35.85 2.38 33.57C3.07 32.03 4.71 30 6.17 28.89C6.28 28.8 6.44 28.83 6.52 28.94C6.61 29.05 6.58 29.2 6.47 29.29C5.08 30.35 3.49 32.31 2.84 33.78L2.62 34.27C1.88 36.01 1.69 36.83 2.03 37.42C3.75 40.39 14.93 37.34 26.96 30.46L27.33 30.25C39.5 23.22 47.92 14.93 46.18 11.93C44.59 9.17 34.7 11.61 23.45 17.68C23.32 17.74 23.17 17.7 23.11 17.58C23.04 17.45 23.09 17.3 23.21 17.24Z" fill="#808080" fill-opacity="1.000000" fill-rule="nonzero"/>
		</g>
		<mask id="mask2_2365" mask-type="alpha" maskUnits="userSpaceOnUse" x="0.000031" y="0.000000" width="80.000000" height="80.000000">
			<rect id="path-1" x="0.000031" width="80.000000" height="80.000000" fill="#FFFFFF" fill-opacity="1.000000"/>
		</mask>
		<g mask="url(#mask2_2365)">
			<circle id="椭圆形" cx="1.750031" cy="37.500000" r="1.750000" fill="#808080" fill-opacity="1.000000"/>
		</g>
		<mask id="mask2_2370" mask-type="alpha" maskUnits="userSpaceOnUse" x="0.000031" y="0.000000" width="80.000000" height="80.000000">
			<rect id="path-1" x="0.000031" width="80.000000" height="80.000000" fill="#FFFFFF" fill-opacity="1.000000"/>
		</mask>
		<g mask="url(#mask2_2370)">
			<circle id="椭圆形备份-2" cx="46.000031" cy="11.253845" r="1.250000" fill="#808080" fill-opacity="1.000000"/>
		</g>
	</g>
</svg>
