<svg width="80.000000" height="80.000000" viewBox="0 0 80 80" fill="none" xmlns="http://www.w3.org/2000/svg" xmlns:xlink="http://www.w3.org/1999/xlink">
	<desc>
			Created with Pixso.
	</desc>
	<defs>
		<clipPath id="clip2_1974">
			<rect id="8#维护中-under-maintenance" width="80.000000" height="80.000000" fill="white" fill-opacity="0"/>
		</clipPath>
	</defs>
	<g clip-path="url(#clip2_1974)">
		<path id="路径备份-6" d="M67.62 27.32L67.62 63.9C67.62 65 66.72 65.9 65.62 65.9L9.62 65.9C8.51 65.9 7.62 65 7.62 63.9L7.62 17.93C7.62 16.83 8.51 15.93 9.62 15.93L50.77 15.9L67.62 27.32Z" fill="#F0F0F0" fill-opacity="1.000000" fill-rule="nonzero"/>
		<path id="路径备份-6" d="M50.77 15.65L50.77 16.15L9.62 16.18C8.65 16.18 7.87 16.96 7.87 17.93L7.87 63.9C7.87 64.86 8.65 65.65 9.62 65.65L65.62 65.65C66.58 65.65 67.37 64.86 67.37 63.9L67.37 30.32L67.87 30.32L67.87 63.9C67.87 65.14 66.86 66.15 65.62 66.15L9.62 66.15C8.37 66.15 7.37 65.14 7.37 63.9L7.37 17.93C7.37 16.69 8.37 15.68 9.62 15.68L50.77 15.65Z" fill="#808080" fill-opacity="1.000000" fill-rule="nonzero"/>
		<path id="路径备份-5" d="M61.63 33.31L61.63 69.89C61.63 70.99 60.73 71.89 59.63 71.89L3.63 71.89C2.52 71.89 1.63 70.99 1.63 69.89L1.63 23.92C1.63 22.82 2.52 21.92 3.63 21.92L49.79 21.89L61.63 33.31Z" fill="#FFFFFF" fill-opacity="1.000000" fill-rule="nonzero"/>
		<path id="路径备份-5" d="M49.28 21.39L49.29 22.39L3.63 22.42C2.8 22.42 2.13 23.09 2.13 23.92L2.13 69.89C2.13 70.71 2.8 71.39 3.63 71.39L59.63 71.39C60.46 71.39 61.13 70.71 61.13 69.89L61.13 32.81L62.13 32.81L62.13 69.89C62.13 71.27 61.01 72.39 59.63 72.39L3.63 72.39C2.25 72.39 1.13 71.27 1.13 69.89L1.13 23.92C1.13 22.54 2.25 21.42 3.63 21.42L49.28 21.39Z" fill="#808080" fill-opacity="1.000000" fill-rule="nonzero"/>
		<path id="椭圆形备份-7" d="M9.01 28.24C8.66 28.24 8.35 28.38 8.12 28.6C7.9 28.83 7.76 29.14 7.76 29.49C7.76 29.83 7.9 30.15 8.12 30.37C8.35 30.6 8.66 30.74 9.01 30.74C9.35 30.74 9.67 30.6 9.89 30.37C10.12 30.15 10.26 29.83 10.26 29.49C10.26 29.14 10.12 28.83 9.89 28.6C9.67 28.38 9.35 28.24 9.01 28.24Z" fill="#DBDBDB" fill-opacity="1.000000" fill-rule="nonzero"/>
		<path id="椭圆形备份-24" d="M14.2 28.24C13.85 28.24 13.54 28.38 13.31 28.6C13.09 28.83 12.95 29.14 12.95 29.49C12.95 29.83 13.09 30.15 13.31 30.37C13.54 30.6 13.85 30.74 14.2 30.74C14.54 30.74 14.85 30.6 15.08 30.37C15.31 30.15 15.45 29.83 15.45 29.49C15.45 29.14 15.31 28.83 15.08 28.6C14.85 28.38 14.54 28.24 14.2 28.24Z" fill="#DBDBDB" fill-opacity="1.000000" fill-rule="nonzero"/>
		<path id="椭圆形备份-25" d="M19.08 28.24C18.73 28.24 18.42 28.38 18.19 28.6C17.97 28.83 17.83 29.14 17.83 29.49C17.83 29.83 17.97 30.15 18.19 30.37C18.42 30.6 18.73 30.74 19.08 30.74C19.42 30.74 19.74 30.6 19.96 30.37C20.19 30.15 20.33 29.83 20.33 29.49C20.33 29.14 20.19 28.83 19.96 28.6C19.74 28.38 19.42 28.24 19.08 28.24Z" fill="#DBDBDB" fill-opacity="1.000000" fill-rule="nonzero"/>
		<rect id="矩形备份-6" x="8.131577" y="50.424683" rx="4.000000" width="47.000000" height="15.250000" fill="#F0F0F0" fill-opacity="1.000000"/>
		<path id="椭圆形备份-8" d="M60.13 33.6C66.75 33.6 72.13 28.23 72.13 21.6C72.13 14.98 66.75 9.6 60.13 9.6C53.5 9.6 48.13 14.98 48.13 21.6C48.13 28.23 53.5 33.6 60.13 33.6Z" fill="#FFFFFF" fill-opacity="1.000000" fill-rule="nonzero"/>
		<path id="椭圆形备份-8" d="M60.13 9.6C53.5 9.6 48.13 14.98 48.13 21.6C48.13 28.23 53.5 33.6 60.13 33.6C66.75 33.6 72.13 28.23 72.13 21.6C72.13 14.98 66.75 9.6 60.13 9.6ZM60.13 10.29C66.38 10.29 71.44 15.36 71.44 21.6C71.44 27.85 66.38 32.92 60.13 32.92C53.88 32.92 48.81 27.85 48.81 21.6C48.81 15.36 53.88 10.29 60.13 10.29Z" fill="#808080" fill-opacity="1.000000" fill-rule="nonzero"/>
		<path id="形状" d="M66.36 18.15L65.64 18.87C64.88 19.64 63.64 19.64 62.88 18.87C62.11 18.11 62.11 16.86 62.88 16.09L63.59 15.37C63.99 14.98 63.72 14.51 63.01 14.62C62.26 14.74 61.57 15.09 61.03 15.63C60.17 16.49 59.81 17.73 60.06 18.92L54.05 24.95C53.29 25.72 53.29 26.96 54.05 27.73C54.42 28.1 54.92 28.3 55.44 28.3C55.96 28.3 56.46 28.1 56.82 27.73L62.83 21.7C63.79 21.9 64.8 21.7 65.61 21.14C66.42 20.58 66.96 19.71 67.11 18.74C67.22 18.02 66.76 17.76 66.36 18.15ZM55.9 26.8C55.64 27.06 55.23 27.06 54.98 26.8C54.72 26.55 54.72 26.13 54.98 25.88C55.23 25.63 55.64 25.64 55.89 25.89C56.14 26.14 56.14 26.55 55.9 26.8ZM55.25 18.27L57.51 20.54L58.43 19.62L56.17 17.35L55.66 16.37L54.05 15.22L53.13 16.14L54.28 17.76L55.25 18.27ZM62.81 23.09C62.75 23.03 62.67 22.99 62.58 22.99C62.5 22.99 62.41 23.03 62.35 23.09L60.97 24.48C60.84 24.61 60.84 24.81 60.97 24.94L64.23 28.22C64.74 28.73 65.57 28.73 66.08 28.22C66.59 27.71 66.59 26.88 66.08 26.37L62.81 23.09Z" fill="#1476FF" fill-opacity="1.000000" fill-rule="nonzero"/>
		<path id="直线-4备份-4" d="M22.44 42.84C23.27 42.84 23.94 43.51 23.94 44.34C23.94 45.17 23.27 45.84 22.44 45.84L9.31 45.84C8.49 45.84 7.81 45.17 7.81 44.34C7.81 43.51 8.49 42.84 9.31 42.84L22.44 42.84Z" fill="#F0F0F0" fill-opacity="1.000000" fill-rule="nonzero"/>
		<path id="直线-4备份" d="M35.56 35.84C36.39 35.84 37.06 36.51 37.06 37.34C37.06 38.16 36.39 38.84 35.56 38.84L9.31 38.84C8.49 38.84 7.81 38.16 7.81 37.34C7.81 36.51 8.49 35.84 9.31 35.84L35.56 35.84Z" fill="#F0F0F0" fill-opacity="1.000000" fill-rule="nonzero"/>
	</g>
</svg>
