<svg width="80.000000" height="80.000000" viewBox="0 0 80 80" fill="none" xmlns="http://www.w3.org/2000/svg" xmlns:xlink="http://www.w3.org/1999/xlink">
	<desc>
			Created with Pixso.
	</desc>
	<defs>
		<clipPath id="clip2_1978">
			<rect id="9#页面迁移-page-migration" width="80.000000" height="80.000000" fill="white" fill-opacity="0"/>
		</clipPath>
	</defs>
	<g clip-path="url(#clip2_1978)">
		<rect id="矩形" x="4.500000" y="12.500000" rx="4.000000" width="60.000000" height="50.000000" fill="#F0F0F0" fill-opacity="1.000000"/>
		<path id="矩形" d="M62.5 12.25L6.5 12.25C5.25 12.25 4.25 13.25 4.25 14.5L4.25 60.5C4.25 61.74 5.25 62.75 6.5 62.75L62.5 62.75C63.74 62.75 64.75 61.74 64.75 60.5L64.75 14.5C64.75 13.25 63.74 12.25 62.5 12.25ZM62.5 12.75C63.46 12.75 64.25 13.53 64.25 14.5L64.25 60.5C64.25 61.46 63.46 62.25 62.5 62.25L6.5 62.25C5.53 62.25 4.75 61.46 4.75 60.5L4.75 14.5C4.75 13.53 5.53 12.75 6.5 12.75L62.5 12.75Z" fill="#808080" fill-opacity="1.000000" fill-rule="nonzero"/>
		<rect id="矩形备份-13" x="15.010529" y="22.049194" rx="4.000000" width="60.000000" height="50.000000" fill="#FFFFFF" fill-opacity="1.000000"/>
		<path id="矩形备份-13" d="M73.01 21.54L17.01 21.54C15.62 21.54 14.51 22.66 14.51 24.04L14.51 70.04C14.51 71.42 15.62 72.54 17.01 72.54L73.01 72.54C74.39 72.54 75.51 71.42 75.51 70.04L75.51 24.04C75.51 22.66 74.39 21.54 73.01 21.54ZM73.01 22.54C73.83 22.54 74.51 23.22 74.51 24.04L74.51 70.04C74.51 70.87 73.83 71.54 73.01 71.54L17.01 71.54C16.18 71.54 15.51 70.87 15.51 70.04L15.51 24.04C15.51 23.22 16.18 22.54 17.01 22.54L73.01 22.54Z" fill="#808080" fill-opacity="1.000000" fill-rule="nonzero"/>
		<path id="直线" d="M75.12 32.9L75.12 33.9L15.12 33.9L15.12 32.9L75.12 32.9Z" fill="#808080" fill-opacity="1.000000" fill-rule="nonzero"/>
		<path id="椭圆形备份-7" d="M57.19 26.9C56.84 26.9 56.53 27.04 56.3 27.26C56.08 27.49 55.94 27.8 55.94 28.15C55.94 28.49 56.08 28.8 56.3 29.03C56.53 29.26 56.84 29.4 57.19 29.4C57.53 29.4 57.84 29.26 58.07 29.03C58.3 28.8 58.44 28.49 58.44 28.15C58.44 27.8 58.3 27.49 58.07 27.26C57.84 27.04 57.53 26.9 57.19 26.9Z" fill="#DBDBDB" fill-opacity="1.000000" fill-rule="nonzero"/>
		<path id="椭圆形备份-24" d="M62.37 26.9C62.03 26.9 61.72 27.04 61.49 27.26C61.26 27.49 61.12 27.8 61.12 28.15C61.12 28.49 61.26 28.8 61.49 29.03C61.72 29.26 62.03 29.4 62.37 29.4C62.72 29.4 63.03 29.26 63.26 29.03C63.48 28.8 63.62 28.49 63.62 28.15C63.62 27.8 63.48 27.49 63.26 27.26C63.03 27.04 62.72 26.9 62.37 26.9Z" fill="#DBDBDB" fill-opacity="1.000000" fill-rule="nonzero"/>
		<path id="椭圆形备份-25" d="M67.26 26.9C66.91 26.9 66.6 27.04 66.37 27.26C66.15 27.49 66.01 27.8 66.01 28.15C66.01 28.49 66.15 28.8 66.37 29.03C66.6 29.26 66.91 29.4 67.26 29.4C67.6 29.4 67.91 29.26 68.14 29.03C68.37 28.8 68.51 28.49 68.51 28.15C68.51 27.8 68.37 27.49 68.14 27.26C67.91 27.04 67.6 26.9 67.26 26.9Z" fill="#DBDBDB" fill-opacity="1.000000" fill-rule="nonzero"/>
		<rect id="矩形备份-6" x="48.510529" y="44.500000" rx="4.000000" width="20.000004" height="20.000000" fill="#F0F0F0" fill-opacity="1.000000"/>
		<path id="直线-4备份-4" d="M35.82 53C36.65 53 37.32 53.67 37.32 54.5C37.32 55.32 36.65 56 35.82 56L22.69 56C21.86 56 21.19 55.32 21.19 54.5C21.19 53.67 21.86 53 22.69 53L35.82 53Z" fill="#F0F0F0" fill-opacity="1.000000" fill-rule="nonzero"/>
		<path id="直线-4备份-4备份" d="M35.82 47C36.65 47 37.32 47.67 37.32 48.5C37.32 49.32 36.65 50 35.82 50L22.69 50C21.86 50 21.19 49.32 21.19 48.5C21.19 47.67 21.86 47 22.69 47L35.82 47Z" fill="#F0F0F0" fill-opacity="1.000000" fill-rule="nonzero"/>
		<path id="直线-4备份" d="M43.94 59C44.77 59 45.44 59.67 45.44 60.5C45.44 61.32 44.77 62 43.94 62L22.69 62C21.86 62 21.19 61.32 21.19 60.5C21.19 59.67 21.86 59 22.69 59L43.94 59Z" fill="#F0F0F0" fill-opacity="1.000000" fill-rule="nonzero"/>
		<circle id="椭圆形" cx="15.334534" cy="37.661072" r="8.000000" fill="#1476FF" fill-opacity="1.000000"/>
		<path id="矩形" d="M18.2 37.19C18.46 37.19 18.67 37.4 18.67 37.66C18.67 37.92 18.46 38.13 18.2 38.13L12.17 38.13C11.91 38.13 11.7 37.92 11.7 37.66C11.7 37.4 11.91 37.19 12.17 37.19L18.2 37.19Z" fill="#FFFFFF" fill-opacity="1.000000" fill-rule="nonzero"/>
		<path id="路径" d="M19.29 37.32C19.47 37.51 19.47 37.81 19.29 37.99L16.11 41.17C15.92 41.35 15.63 41.35 15.44 41.17C15.26 40.99 15.26 40.69 15.44 40.51L18.29 37.66L15.44 34.81C15.27 34.64 15.26 34.37 15.41 34.18L15.44 34.14C15.63 33.96 15.92 33.96 16.11 34.14L19.29 37.32Z" fill="#FFFFFF" fill-opacity="1.000000" fill-rule="nonzero"/>
	</g>
</svg>
