<svg width="72.000000" height="72.000000" viewBox="0 0 72 72" fill="none" xmlns="http://www.w3.org/2000/svg" xmlns:xlink="http://www.w3.org/1999/xlink">
	<desc>
			Created with Pixso.
	</desc>
	<defs>
		<clipPath id="clip117_1295">
			<rect id="1#云基础设施采用规划与设计 -IaaSAPD" width="72.000000" height="72.000000" fill="white" fill-opacity="0"/>
		</clipPath>
	</defs>
	<g clip-path="url(#clip117_1295)">
		<path id="矩形备份-19" d="M16 0L56 0C64.8 0 72 7.19 72 16L72 56C72 64.8 64.8 72 56 72L16 72C7.2 72 0 64.8 0 56L0 16C0 7.19 7.2 0 16 0Z" fill="#1476FF" fill-opacity="1.000000" fill-rule="evenodd"/>
		<path id="_形状结合" d="M35.47 31.55C35.77 31.37 36.13 31.37 36.43 31.55L46.12 37.13C46.42 37.31 46.6 37.61 46.6 37.97L46.6 49.13C46.6 49.46 46.42 49.79 46.12 49.97L36.43 55.55L36.04 55.64C35.92 55.64 35.56 55.61 35.44 55.55L25.75 49.97C25.45 49.79 25.27 49.49 25.27 49.13L25.27 37.97C25.27 37.64 25.45 37.31 25.75 37.13L35.47 31.55ZM45.1 39.38L36.7 44L36.7 53.66L45.1 48.83L45.1 39.38ZM27.16 45.56C26.98 45.65 26.74 45.83 26.74 46.1C26.74 46.61 27.16 47.3 27.7 47.63L33.4 51.11C33.61 51.23 33.79 51.29 33.94 51.26C34.12 51.17 34.36 50.99 34.36 50.72C34.36 50.21 33.94 49.52 33.4 49.19L27.7 45.71C27.49 45.59 27.31 45.53 27.16 45.56ZM27.16 41.78C26.98 41.87 26.74 42.05 26.74 42.32C26.74 42.83 27.16 43.52 27.7 43.85L33.4 47.33C33.61 47.45 33.79 47.51 33.94 47.48C34.12 47.39 34.36 47.21 34.36 46.94C34.36 46.43 33.94 45.74 33.4 45.41L27.7 41.93C27.49 41.81 27.31 41.75 27.16 41.78ZM33.1 16.31C38.71 16.31 43.51 19.73 45.52 24.62C46.21 24.38 46.96 24.23 47.74 24.23C51.31 24.23 54.22 27.14 54.22 30.71C54.22 30.83 54.22 30.95 54.22 31.07C57.55 32.09 59.98 35.21 59.98 38.87C59.98 43.22 56.59 46.76 52.33 47.03L51.82 47.03L48.1 47.03L48.1 37.97C48.1 37.49 48.01 37.1 47.8 36.74C47.59 36.41 47.29 36.11 46.9 35.87L37.18 30.26C36.76 30.02 36.37 29.9 35.98 29.9C35.59 29.9 35.17 30.02 34.78 30.26L25.06 35.87C24.64 36.11 24.34 36.38 24.16 36.74C23.95 37.07 23.86 37.49 23.86 37.97L23.86 47.03L21.61 47.03C16.3 47.03 12.01 42.74 12.01 37.43C12.01 32.75 15.37 28.85 19.81 28.01C20.68 21.41 26.29 16.31 33.1 16.31ZM35.98 32.99L27.61 37.82L36.01 42.68L44.59 37.94L35.98 32.99Z" fill="#FFFFFF" fill-opacity="1.000000" fill-rule="evenodd"/>
	</g>
</svg>
