<svg width="72.000000" height="72.000000" viewBox="0 0 72 72" fill="none" xmlns="http://www.w3.org/2000/svg" xmlns:xlink="http://www.w3.org/1999/xlink">
	<desc>
			Created with Pixso.
	</desc>
	<defs>
		<clipPath id="clip117_1296">
			<rect id="2#云应用平台采用规划与设计 -PaaSAPD" width="72.000000" height="72.000000" fill="white" fill-opacity="0"/>
		</clipPath>
	</defs>
	<g clip-path="url(#clip117_1296)">
		<path id="矩形备份-19" d="M16 0L56 0C64.8 0 72 7.19 72 16L72 56C72 64.8 64.8 72 56 72L16 72C7.2 72 0 64.8 0 56L0 16C0 7.19 7.2 0 16 0Z" fill="#1476FF" fill-opacity="1.000000" fill-rule="evenodd"/>
		<path id="_减去顶层" d="M23.61 53.27C17.25 53.27 12 48.11 12 41.75C12 36.35 15.72 31.82 20.73 30.56C21.51 23.87 27.18 18.71 34.08 18.71C39.93 18.71 44.91 22.46 46.74 27.68C47.07 27.62 47.4 27.59 47.76 27.59C51.33 27.59 54.24 30.5 54.24 34.07C54.24 34.34 54.24 34.58 54.18 34.85C57.6 36.32 60 39.71 60 43.67C60 48.98 55.71 53.27 50.4 53.27L23.61 53.27ZM37.02 31.79L37.02 35.87C37.02 36.44 36.57 36.86 36.03 36.86C35.49 36.86 35.04 36.41 35.04 35.87L35.04 31.76L34.23 32.57C33.84 32.96 33.21 32.96 32.82 32.57C32.61 32.36 32.52 32.12 32.52 31.88C32.52 31.64 32.61 31.37 32.82 31.19L35.25 28.76C35.43 28.52 35.73 28.37 36.06 28.37C36.39 28.37 36.68 28.52 36.87 28.79L39.24 31.16C39.45 31.37 39.54 31.61 39.54 31.85C39.54 32.09 39.45 32.36 39.24 32.57C38.84 32.96 38.22 32.96 37.83 32.57L37.02 31.79ZM43.11 37.13L42.3 36.32C42.09 36.11 42 35.87 42 35.6C42 35.33 42.09 35.09 42.3 34.88C42.69 34.49 43.32 34.49 43.71 34.88L46.14 37.34C46.38 37.52 46.5 37.79 46.5 38.12C46.5 38.45 46.35 38.75 46.11 38.93L43.71 41.33C43.32 41.72 42.69 41.72 42.3 41.33C42.12 41.12 42 40.88 42 40.61C42 40.34 42.09 40.1 42.3 39.89L43.08 39.11L39 39.11C38.43 39.11 38 38.66 38 38.12C38 37.58 38.46 37.13 39 37.13L43.11 37.13ZM29.7 36.32L28.89 37.16L33.75 37.16C33.99 37.16 34.23 37.16 34.43 37.22C34.65 37.25 34.83 37.31 35 37.4C35.18 37.49 35.37 37.58 35.55 37.67C35.73 37.79 35.91 37.94 36.06 38.09C36.21 38.24 36.36 38.42 36.48 38.6C36.59 38.78 36.68 38.93 36.75 39.14C36.84 39.32 36.9 39.53 36.93 39.71C36.99 39.95 36.99 40.16 36.99 40.4L36.99 41.75C38.73 42.2 39.99 43.76 39.99 45.62C39.99 47.84 38.18 49.61 36 49.61C33.81 49.61 32 47.81 32 45.62C32 43.76 33.27 42.2 35 41.75L35 40.4C35 40.22 34.98 40.07 34.91 39.92C34.86 39.77 34.77 39.65 34.65 39.53C34.53 39.41 34.38 39.32 34.25 39.26C34.11 39.2 33.96 39.17 33.78 39.17L28.95 39.17L29.73 39.95C29.94 40.16 30.03 40.4 30.03 40.67C30.03 40.94 29.94 41.18 29.73 41.39C29.34 41.78 28.71 41.81 28.32 41.39L25.83 38.9C25.65 38.72 25.53 38.48 25.53 38.18C25.53 38.18 25.53 37.91 25.59 37.79C25.59 37.79 25.71 37.58 25.8 37.46L28.29 34.91C28.68 34.52 29.31 34.52 29.7 34.91C29.91 35.12 30 35.36 30 35.63C30 35.9 29.91 36.11 29.7 36.32ZM36 43.64C34.89 43.64 33.99 44.54 33.99 45.65C33.99 46.76 34.89 47.66 36 47.66C37.11 47.66 38 46.76 38 45.65C38 44.54 37.11 43.64 36 43.64Z" fill="#FFFFFF" fill-opacity="1.000000" fill-rule="evenodd"/>
	</g>
</svg>
