<svg width="72.000000" height="72.000000" viewBox="0 0 72 72" fill="none" xmlns="http://www.w3.org/2000/svg" xmlns:xlink="http://www.w3.org/1999/xlink">
	<desc>
			Created with Pixso.
	</desc>
	<defs>
		<clipPath id="clip117_198">
			<rect id="1#内容分发网络-CDN" width="72.000000" height="72.000000" fill="white" fill-opacity="0"/>
		</clipPath>
	</defs>
	<g clip-path="url(#clip117_198)">
		<path id="矩形备份-19" d="M16 0L56 0C64.8 0 72 7.2 72 16L72 56C72 64.79 64.8 72 56 72L16 72C7.19 72 0 64.79 0 56L0 16C0 7.2 7.19 0 16 0Z" fill="#9F53E6" fill-opacity="1.000000" fill-rule="evenodd"/>
		<path id="形状结合" d="M36 12C49.2 12 60 22.79 60 36C60 49.2 49.2 60 36 60C22.8 60 12 49.2 12 36C12 22.79 22.8 12 36 12ZM46.6 20.6C44 20.6 41.8 22.79 41.8 25.5C41.8 26.6 42.1 27.5 42.7 28.29L40.6 30.5C39.5 29.7 38.1 29.2 36.6 29.2C35.1 29.2 33.8 29.7 32.7 30.5L30.6 28.2C31.1 27.39 31.39 26.5 31.39 25.39C31.39 22.7 29.3 20.5 26.6 20.5C23.89 20.5 21.8 22.7 21.8 25.39C21.8 28.1 23.89 30.29 26.6 30.29C27.5 30.29 28.39 30 29.1 29.6L31.2 31.89C30.3 33 29.8 34.5 29.8 36C29.8 37.5 30.3 38.89 31.1 40.1L28.7 42.5C27.89 42 27.1 41.7 26.1 41.7C23.5 41.7 21.3 43.89 21.3 46.6C21.3 49.29 23.39 51.5 26.1 51.5C28.8 51.5 30.89 49.29 30.89 46.6C30.89 45.6 30.6 44.7 30.1 43.89L32.5 41.5C33.6 42.29 35 42.79 36.5 42.79C37.89 42.79 39.3 42.29 40.39 41.5L42.5 43.79C42 44.6 41.7 45.5 41.7 46.5C41.7 49.2 43.8 51.39 46.5 51.39C49.1 51.39 51.3 49.2 51.3 46.5C51.3 43.79 49.2 41.6 46.5 41.6C45.6 41.6 44.7 41.89 44 42.29L42 40.2C42.89 39 43.39 37.6 43.39 36C43.39 34.5 42.89 33.1 42.1 31.89L44.3 29.6C45 30 45.8 30.29 46.7 30.29C49.3 30.29 51.5 28.1 51.5 25.39C51.5 22.7 49.3 20.6 46.6 20.6Z" fill="#FFFFFF" fill-opacity="1.000000" fill-rule="evenodd"/>
	</g>
</svg>
