<svg width="72.000000" height="72.000000" viewBox="0 0 72 72" fill="none" xmlns="http://www.w3.org/2000/svg" xmlns:xlink="http://www.w3.org/1999/xlink">
	<desc>
			Created with Pixso.
	</desc>
	<defs>
		<clipPath id="clip117_201">
			<rect id="2#全站加速-WSA" width="72.000000" height="72.000000" fill="white" fill-opacity="0"/>
		</clipPath>
	</defs>
	<g clip-path="url(#clip117_201)">
		<path id="矩形备份-19" d="M16 0L56 0C64.8 0 72 7.2 72 16L72 56C72 64.79 64.8 72 56 72L16 72C7.19 72 0 64.79 0 56L0 16C0 7.2 7.19 0 16 0Z" fill="#F85835" fill-opacity="1.000000" fill-rule="evenodd"/>
		<path id="path-1_00000032645674142390039800000010010090267588268180_" d="M57.6 33.6C58.89 33.6 60 34.7 60 36C60 37.1 59.3 38 58.2 38.3C57.1 48.6 49.2 56.8 39 58.2C38.7 59.7 37.5 60.8 35.89 60.8C34.3 60.8 33.1 59.7 32.8 58.2C32.7 58.2 32.6 58.2 32.39 58.1C32 58 31.7 57.7 31.8 57.2C31.89 56.9 32.1 56.6 32.5 56.6L32.7 56.6L32.89 56.6C33.3 55.3 34.5 54.4 35.89 54.4C37.3 54.4 38.5 55.3 38.89 56.6C48.3 55.3 55.7 47.6 56.7 38.1C55.8 37.8 55.2 36.9 55.2 35.9C55.2 34.7 56.3 33.6 57.6 33.6ZM35.89 56C35 56 34.3 56.7 34.3 57.6C34.3 58.5 35 59.2 35.89 59.2C36.8 59.2 37.5 58.5 37.5 57.6C37.5 56.7 36.89 56 35.89 56ZM26.8 54.8C27.7 55.3 28.7 55.6 29.7 55.9C30.1 56 30.3 56.4 30.2 56.8C30.1 57.2 29.7 57.4 29.3 57.3C28.2 57 27.2 56.6 26.2 56.1C25.8 55.9 25.7 55.5 25.89 55.1C26.1 54.7 26.39 54.6 26.8 54.8ZM21.7 51.3C22.5 52 23.3 52.7 24.1 53.2C24.39 53.4 24.5 53.9 24.3 54.2C24.1 54.5 23.6 54.6 23.3 54.4C22.39 53.8 21.5 53.1 20.7 52.3C20.39 52 20.39 51.5 20.7 51.2C20.89 51 21.39 51 21.7 51.3ZM35.2 47.2L35.2 52.6C33 52.2 30.89 50.2 29.5 47.2L35.2 47.2ZM36.7 47.2L42.39 47.2C40.89 50.2 38.89 52.2 36.7 52.6L36.7 47.2ZM27.8 47.2C28.7 49.2 29.8 50.9 31.2 52.1C28.2 51.2 25.5 49.5 23.5 47.2L27.8 47.2ZM48.39 47.2C46.39 49.5 43.7 51.2 40.7 52.1C42 50.9 43.2 49.2 44.1 47.2L48.39 47.2ZM17.79 46.4C18.29 47.3 18.89 48.1 19.5 49C19.79 49.3 19.7 49.8 19.39 50.1C19.1 50.4 18.6 50.3 18.29 50C17.6 49.1 17 48.2 16.39 47.3C16.2 46.9 16.29 46.5 16.7 46.3C17.2 46 17.6 46.1 17.79 46.4ZM25.6 36.7C25.7 40 26.2 43 27.2 45.6L22.3 45.6C20.5 43.1 19.39 40 19.29 36.7L25.6 36.7ZM35.2 36.7L35.2 45.6L28.8 45.6C27.8 43.1 27.2 40 27.1 36.7L35.2 36.7ZM52.7 36.7C52.6 40 51.39 43.1 49.7 45.6L44.8 45.6C45.7 43 46.3 40 46.39 36.7L52.7 36.7ZM36.7 36.7L44.8 36.7C44.7 40 44.1 43.1 43.1 45.6L36.7 45.6L36.7 36.7ZM15.6 40.7C15.8 41.7 16.1 42.7 16.5 43.6C16.7 44 16.5 44.4 16.1 44.6C15.7 44.8 15.3 44.6 15.1 44.2C14.7 43.2 14.39 42.1 14.1 41C14 40.6 14.3 40.2 14.7 40.1C15.1 40 15.5 40.3 15.6 40.7ZM35.89 11.2C37.5 11.2 38.7 12.3 39 13.8C39.1 13.8 39.2 13.8 39.39 13.9C39.8 14 40.1 14.3 40 14.8C39.89 15.2 39.6 15.5 39.1 15.4L38.89 15.4C38.5 16.7 37.3 17.6 35.89 17.6C34.5 17.6 33.3 16.7 32.89 15.4C23.5 16.7 16.1 24.3 15.1 33.8C16 34.1 16.7 35 16.7 36.1C16.7 37.4 15.6 38.5 14.3 38.5C13 38.5 12 37.3 12 36C12 34.9 12.7 34 13.7 33.7C14.7 23.4 22.7 15.2 32.89 13.8C33.1 12.3 34.39 11.2 35.89 11.2ZM27.2 26.3C26.3 28.9 25.7 31.9 25.6 35.2L19.2 35.2C19.29 31.9 20.5 28.8 22.2 26.3L27.2 26.3ZM49.6 26.3C51.39 28.8 52.5 31.9 52.6 35.2L46.2 35.2C46.1 31.9 45.6 28.9 44.6 26.3L49.6 26.3ZM35.2 26.3L35.2 35.2L27.1 35.2C27.2 31.9 27.8 28.8 28.8 26.3L35.2 26.3ZM43.1 26.3C44.1 28.8 44.7 31.9 44.8 35.2L36.7 35.2L36.7 26.3L43.1 26.3ZM56.8 27.8C57.2 28.8 57.5 29.9 57.8 31C57.89 31.4 57.6 31.8 57.2 31.9C56.8 32 56.39 31.7 56.3 31.3C56.1 30.3 55.8 29.3 55.39 28.4C55.2 28 55.39 27.6 55.8 27.4C56.2 27.2 56.7 27.4 56.8 27.8ZM53.5 22.1C54.2 23 54.8 23.9 55.39 24.8C55.6 25.2 55.5 25.6 55.1 25.8C54.7 26 54.3 25.9 54.1 25.5C53.6 24.6 53 23.8 52.39 22.9C52.1 22.6 52.2 22.1 52.5 21.8C52.8 21.7 53.2 21.7 53.5 22.1ZM31.1 20C29.8 21.2 28.6 22.9 27.7 24.9L23.39 24.9C25.39 22.7 28 21 30.89 20.1L31.1 20ZM35.2 19.5L35.2 24.9L29.5 24.9C30.89 21.8 33 19.9 35.2 19.5ZM40.7 20C43.7 20.9 46.39 22.6 48.39 24.9L44.1 24.9C43.2 23 42.2 21.3 40.89 20.2L40.7 20ZM36.7 19.5C38.89 19.9 41 21.9 42.39 24.9L36.7 24.9L36.7 19.5ZM48.7 17.6C49.6 18.2 50.5 18.9 51.3 19.7C51.6 20 51.6 20.5 51.3 20.8C51 21.1 50.5 21.1 50.2 20.8C49.39 20.1 48.6 19.4 47.8 18.9C47.5 18.7 47.39 18.2 47.6 17.9C47.89 17.4 48.3 17.3 48.7 17.6ZM42.7 14.6C43.8 14.9 44.8 15.3 45.8 15.8C46.2 16 46.3 16.4 46.1 16.8C45.89 17.2 45.5 17.3 45.1 17.1C44.2 16.6 43.2 16.3 42.2 16C41.8 15.9 41.6 15.5 41.7 15.1C41.89 14.7 42.3 14.5 42.7 14.6ZM35.89 12.7C35 12.7 34.3 13.4 34.3 14.3C34.3 15.2 35 16 35.89 16C36.8 16 37.5 15.3 37.5 14.4C37.5 13.5 36.89 12.7 35.89 12.7Z" fill="#FFFFFF" fill-opacity="1.000000" fill-rule="evenodd"/>
	</g>
</svg>
