<svg width="72.000000" height="72.000000" viewBox="0 0 72 72" fill="none" xmlns="http://www.w3.org/2000/svg" xmlns:xlink="http://www.w3.org/1999/xlink">
	<desc>
			Created with Pixso.
	</desc>
	<defs>
		<clipPath id="clip117_199">
			<rect id="3#智能边缘云-IEC" width="72.000000" height="72.000000" fill="white" fill-opacity="0"/>
		</clipPath>
	</defs>
	<g clip-path="url(#clip117_199)">
		<path id="矩形备份-19" d="M16 0L56 0C64.8 0 72 7.2 72 16L72 56C72 64.79 64.8 72 56 72L16 72C7.19 72 0 64.79 0 56L0 16C0 7.2 7.19 0 16 0Z" fill="#FF9A2E" fill-opacity="1.000000" fill-rule="evenodd"/>
		<path id="形状结合" d="M36 15.1C38.2 15.1 40 16.89 40 19.1C40 21 38.7 22.6 37 23L37 30.89C38.9 31.3 40.5 32.6 41.1 34.5C43.9 34.7 46.2 37 46.2 39.89C46.2 40.89 45.9 41.8 45.5 42.6L53 47.8C53.7 47.3 54.5 47 55.4 47C55.6 47 55.7 47 55.9 47C57.3 45.2 58.1 42.89 58.1 40.5C58.1 34.8 53.6 30.1 48 29.7C47.2 29.7 46.5 29.1 46.2 28.39C45.5 26.5 44.3 24.7 42.7 23.5C41.8 22.8 41.7 21.6 42.4 20.7C43.1 19.8 44.3 19.7 45.2 20.39C47 21.8 48.4 23.6 49.4 25.6L49.6 26L49.9 26C56.6 27 61.8 33 62 40.1L62 40.39C62 43.7 60.9 46.7 59.1 49.3C59.3 49.8 59.4 50.3 59.4 50.89C59.4 53.1 57.6 54.89 55.4 54.89C53.2 54.89 51.4 53.1 51.4 50.89C51.4 50.3 51.5 49.7 51.8 49.2L44.2 44C43.3 44.7 42.1 45.2 40.8 45.2L31.3 45.2C30.2 45.2 29.1 44.8 28.2 44.2L20.9 49.2C21.1 49.6 21.2 50 21.2 50.5C22.3 50.89 23.6 51.1 24.8 51.1L45.9 51.1C47 51.1 47.9 52 47.9 53.1C47.9 54.2 47 55.1 45.9 55.1L24.8 55.1C23 55.1 21.2 54.8 19.5 54.1C18.79 54.6 18.1 54.8 17.2 54.8C15 54.8 13.2 53 13.2 50.8C13.2 48.6 15 46.8 17.2 46.8C18.1 46.8 19 47.1 19.7 47.7L26.8 42.8C26.2 41.89 25.9 40.89 25.9 39.8C25.9 36.89 28.1 34.6 30.9 34.39C31.5 32.6 33.1 31.2 35.1 30.8L35.1 23C34.2 22.8 33.4 22.3 32.9 21.6C29.6 22.6 27 25.1 25.8 28.39C25.5 29.2 24.9 29.7 24.1 29.7C18.5 30.1 14.1 34.8 14.1 40.39C14.1 41.5 14.3 42.6 14.6 43.6C14.9 44.7 14.3 45.8 13.3 46.1C12.2 46.39 11.1 45.8 10.8 44.8C10.4 43.39 10.1 41.89 10.1 40.39C10.1 33.1 15.4 27 22.5 25.8C24.3 21.7 28 18.6 32.3 17.5C32.9 16.1 34.3 15.1 36 15.1Z" fill="#FFFFFF" fill-opacity="1.000000" fill-rule="nonzero"/>
	</g>
</svg>
