<svg width="72.000000" height="72.000000" viewBox="0 0 72 72" fill="none" xmlns="http://www.w3.org/2000/svg" xmlns:xlink="http://www.w3.org/1999/xlink">
	<desc>
			Created with Pixso.
	</desc>
	<defs>
		<clipPath id="clip117_200">
			<rect id="4#智能边缘小站-CloudPond" width="72.000000" height="72.000000" fill="white" fill-opacity="0"/>
		</clipPath>
	</defs>
	<g clip-path="url(#clip117_200)">
		<path id="矩形备份-19" d="M16 0L56 0C64.8 0 72 7.2 72 16L72 56C72 64.79 64.8 72 56 72L16 72C7.19 72 0 64.79 0 56L0 16C0 7.2 7.19 0 16 0Z" fill="#1476FF" fill-opacity="1.000000" fill-rule="evenodd"/>
		<path id="形状结合" d="M36 12C41.3 12 45.7 15.7 46.9 20.6C52.7 21.29 57.3 26.2 57.3 32.2C57.3 38.6 52.1 43.89 45.6 43.89L26.5 43.89C20 43.89 14.8 38.7 14.8 32.2C14.8 26.2 19.29 21.29 25.2 20.6C26.3 15.7 30.7 12 36 12ZM33.9 41.7C33.5 41.7 33.1 42.1 33.1 42.5C33.1 42.89 33.5 43.29 33.9 43.29C34.3 43.29 34.7 42.89 34.7 42.5C34.7 42.1 34.4 41.7 33.9 41.7ZM38 41.7C37.6 41.7 37.2 42.1 37.2 42.5C37.2 42.89 37.6 43.29 38 43.29C38.4 43.29 38.8 42.89 38.8 42.5C38.8 42 38.5 41.7 38 41.7ZM33.9 38.79C33.5 38.79 33.1 39.2 33.1 39.6C33.1 40 33.5 40.39 33.9 40.39C34.3 40.39 34.7 40 34.7 39.6C34.7 39.2 34.4 38.79 33.9 38.79ZM38 38.79C37.6 38.79 37.2 39.2 37.2 39.6C37.2 40 37.6 40.39 38 40.39C38.4 40.39 38.8 40 38.8 39.6C38.8 39.2 38.5 38.79 38 38.79ZM36 24.1C33.8 24.1 31.9 25.7 31.4 27.7C28.9 28 27 30.1 27 32.7C27 35.39 29.2 37.6 32 37.6L40 37.6C42.7 37.6 45 35.39 45 32.7C45 30.2 43.1 28.1 40.6 27.79C40.1 25.7 38.2 24.1 36 24.1ZM33.9 46.1C34.3 46.1 34.7 45.7 34.7 45.29C34.7 44.89 34.3 44.5 33.9 44.5C33.5 44.5 33.1 44.89 33.1 45.29C33.1 45.7 33.5 46.1 33.9 46.1ZM38 46.1C38.4 46.1 38.8 45.7 38.8 45.29C38.8 44.89 38.4 44.5 38 44.5C37.6 44.5 37.2 44.89 37.2 45.29C37.2 45.7 37.6 46.1 38 46.1ZM29 49.39C30.1 49.39 31 50.29 31 51.39L31 58C31 59.1 30.1 60 29 60L26.5 60C25.4 60 24.5 59.1 24.5 58L24.5 51.39C24.5 50.29 25.4 49.39 26.5 49.39L29 49.39ZM45.6 49.39C46.7 49.39 47.6 50.29 47.6 51.39L47.6 58C47.6 59.1 46.7 60 45.6 60L43 60C41.9 60 41 59.1 41 58L41 51.39C41 50.29 41.9 49.39 43 49.39L45.6 49.39ZM38 47.2C39.1 47.2 40 48.1 40 49.2L40 58C40 59.1 39.1 60 38 60L34 60C32.9 60 32 59.1 32 58L32 49.2C32 48.1 32.9 47.2 34 47.2L38 47.2ZM44.3 55.2C44 55.2 43.8 55.39 43.8 55.7L43.8 56.79C43.8 57.1 44 57.29 44.3 57.29C44.6 57.29 44.8 57.1 44.8 56.79L44.8 55.7C44.8 55.5 44.6 55.2 44.3 55.2ZM27.7 55.2C27.4 55.2 27.2 55.39 27.2 55.7L27.2 56.79C27.2 57.1 27.4 57.29 27.7 57.29C28 57.29 28.2 57.1 28.2 56.79L28.2 55.7C28.2 55.5 28 55.2 27.7 55.2ZM36 54.39C35.7 54.39 35.5 54.6 35.5 54.89L35.5 56.5C35.5 56.79 35.7 57 36 57C36.3 57 36.5 56.79 36.5 56.5L36.5 55C36.5 54.7 36.3 54.39 36 54.39ZM45.4 52L43.3 52C43 52 42.8 52.2 42.8 52.5C42.8 52.79 43 53 43.3 53L45.4 53C45.7 53 45.9 52.79 45.9 52.5C45.9 52.2 45.7 52 45.4 52ZM28.7 52L26.6 52C26.3 52 26.1 52.2 26.1 52.5C26.1 52.79 26.3 53 26.6 53L28.7 53C29 53 29.2 52.79 29.2 52.5C29.2 52.2 29 52 28.7 52ZM37.3 49.89L34.6 49.89C34.3 49.89 34.1 50.1 34.1 50.39C34.1 50.7 34.3 50.89 34.6 50.89L37.3 50.89C37.6 50.89 37.8 50.7 37.8 50.39C37.9 50.1 37.6 49.89 37.3 49.89Z" fill="#FFFFFF" fill-opacity="1.000000" fill-rule="evenodd"/>
	</g>
</svg>
