<svg width="72.000000" height="72.000000" viewBox="0 0 72 72" fill="none" xmlns="http://www.w3.org/2000/svg" xmlns:xlink="http://www.w3.org/1999/xlink">
	<desc>
			Created with Pixso.
	</desc>
	<defs>
		<clipPath id="clip117_155">
			<rect id="1#MapReduce服务-MRS" width="72.000000" height="72.000000" fill="white" fill-opacity="0"/>
		</clipPath>
	</defs>
	<g clip-path="url(#clip117_155)">
		<path id="矩形备份-19" d="M16 0L56 0C64.8 0 72 7.2 72 16L72 56C72 64.79 64.8 72 56 72L16 72C7.19 72 0 64.79 0 56L0 16C0 7.2 7.19 0 16 0Z" fill="#FF9A2E" fill-opacity="1.000000" fill-rule="evenodd"/>
		<path id="形状结合" d="M36 12C37.29 12 38.47 12.33 39.55 12.87L54.06 21.37C55.99 22.47 57.5 25.2 57.5 27.49L57.5 44.5C57.5 46.79 55.99 49.41 54.06 50.62L39.55 59.12C38.47 59.66 37.29 60 36 60C34.71 60 33.41 59.66 32.45 59.12L17.93 50.62C16 49.41 14.5 46.79 14.5 44.5L14.5 27.49C14.5 25.2 16 22.47 17.93 21.37L32.45 12.87C33.53 12.33 34.71 12 36 12ZM34.53 23L34.18 23C31.12 23.1 28.14 24.46 26.09 26.71L25.95 26.85L25.7 26.95C24.45 27.43 23.29 28.14 22.26 29.04L22.01 29.27C21.96 29.29 21.95 29.31 21.88 29.35C21.78 29.47 21.68 29.56 21.57 29.68C21.53 29.72 21.46 29.79 21.42 29.81L21.09 30.16L20.96 30.33C18.64 32.95 17.2 35.81 17.81 38.46L17.87 38.68C18.36 40.45 19.81 41.77 22.12 42.64L22.3 42.7C22.33 42.87 22.33 43.16 22.32 43.62C22.31 44.08 22.31 44.33 22.33 44.62C22.38 45.43 22.62 46.08 23.12 46.56C23.54 46.96 24.08 47.2 24.73 47.27C24.84 47.27 24.95 47.29 25.06 47.29L25.22 47.29C26.23 47.35 27.51 47.16 28.68 46.47C29.15 46.18 29.6 45.85 30 45.43C32.02 43.31 32.55 39.75 31.64 34.87C31.56 34.37 31.14 34 30.64 33.95L30.39 33.95C29.7 34.06 29.29 34.64 29.39 35.27C30.15 39.39 29.77 42.37 28.35 43.87C27.85 44.39 27.24 44.73 26.57 44.89C26.11 45.02 25.66 45.04 25.32 45.02C25.17 45.02 25.1 45.02 24.99 45C24.84 45 24.74 44.96 24.72 44.93C24.62 44.85 24.59 44.49 24.61 43.66C24.64 41.87 24.4 41.02 23.16 40.6C21.33 39.96 20.29 39.06 20.04 37.93C19.75 36.68 20.31 35.1 21.47 33.39C22.18 32.31 23.04 31.35 23.5 30.93L23.61 30.79L23.84 30.58C24.67 29.87 25.62 29.31 26.62 28.93L26.97 28.81C27.16 28.75 27.35 28.62 27.49 28.47C29.2 26.41 31.83 25.18 34.53 25.18C37.16 25.18 39.57 25.91 41.2 27.16C41.48 27.39 41.72 27.6 41.92 27.83C41.98 27.87 42.07 27.97 42.12 28.04L42.27 28.2L42.37 28.31C42.39 28.35 42.42 28.39 42.45 28.41C42.55 28.54 42.64 28.68 42.79 28.87L42.86 28.98C43.27 29.6 43.63 30.41 43.88 31.22C44.11 31.91 44.31 32.98 44.34 33.91C44.36 34.71 44.31 35.14 44.16 35.64C44.15 35.68 44.1 35.89 44.09 35.95C44.07 36.02 44.05 36.1 44.03 36.18C43.97 36.43 44.02 36.71 44.16 36.93L44.51 37.45L44.95 37C45.64 36.31 45.91 35.66 46.03 34.2C46.11 33.04 46.11 32.41 45.98 31.48C45.87 30.79 45.72 30.22 45.51 29.68L45.42 29.48C45.39 29.41 45.36 29.35 45.34 29.27C45.96 29.22 46.77 29.27 47.02 29.43C47.13 29.52 47.35 29.68 47.36 29.72C47.4 29.79 47.5 29.99 47.54 30.08C49.58 35.1 49.76 38.83 48.13 41.16L47.98 41.37C46.63 43.1 44.4 43.81 41.9 43.81L41.76 43.79L41.29 43.73L41.18 44.2C40.99 45.14 40.33 45.96 39.4 46.37C39.03 46.52 38.6 46.62 38.17 46.62C37.09 46.62 36.05 46.04 35.53 45.2L34.03 42.73L34.61 45.56L35.09 47.83L35.12 48.04L35.31 48.14C36.18 48.71 37.2 49 38.2 49C38.92 49 39.68 48.83 40.37 48.54L40.62 48.43C41.61 47.95 42.4 47.18 42.93 46.25L43.05 46.04C45.82 45.81 48.26 44.81 49.84 42.71L50.02 42.46C52.12 39.43 51.97 35 49.63 29.25C49.5 28.93 49.35 28.64 49.21 28.45L49.12 28.33C48.93 28.12 48.6 27.85 48.34 27.66L48.18 27.56C47.28 27.04 45.65 26.81 44.38 27.18L44.21 27.04C44.16 27 44.12 26.93 44.07 26.89C43.04 25.5 41.45 24.43 39.67 23.87C38.12 23.29 36.36 23 34.53 23ZM40.28 33.21C39.14 33.21 38.17 33.83 37.7 34.58C37.57 34.77 37.53 35.02 37.58 35.25C37.62 35.48 37.78 35.68 37.98 35.79C38.12 35.89 38.29 35.93 38.45 35.93C38.75 35.93 39.04 35.79 39.21 35.52C39.28 35.43 39.34 35.35 39.47 35.25C39.68 35.08 39.96 34.98 40.27 34.98C40.39 34.98 40.54 35 40.65 35.02L40.87 35.06C41.3 35.06 41.65 34.79 41.77 34.41C41.83 34.18 41.8 33.95 41.67 33.75C41.57 33.54 41.37 33.39 41.13 33.33C40.86 33.25 40.57 33.21 40.28 33.21Z" fill="#FFFFFF" fill-opacity="1.000000" fill-rule="evenodd"/>
	</g>
</svg>
