<svg width="72.000000" height="72.000000" viewBox="0 0 72 72" fill="none" xmlns="http://www.w3.org/2000/svg" xmlns:xlink="http://www.w3.org/1999/xlink">
	<desc>
			Created with Pixso.
	</desc>
	<defs>
		<clipPath id="clip117_151">
			<rect id="10#数据可视化-DLV" width="72.000000" height="72.000000" fill="white" fill-opacity="0"/>
		</clipPath>
	</defs>
	<g clip-path="url(#clip117_151)">
		<path id="矩形备份-19" d="M16 0L56 0C64.8 0 72 7.2 72 16L72 56C72 64.79 64.8 72 56 72L16 72C7.19 72 0 64.79 0 56L0 16C0 7.2 7.19 0 16 0Z" fill="#F85835" fill-opacity="1.000000" fill-rule="evenodd"/>
		<path id="Fill-1" d="M39.34 22.79C45.95 22.79 51.94 26.35 55.1 32.14L55.16 32.26C55.46 32.87 55.32 33.57 54.78 33.97L54.66 34.05C53.98 34.46 53.15 34.21 52.73 33.5C50.12 28.58 45 25.55 39.34 25.55C30.98 25.55 24.24 32.2 24.24 40.44C24.24 48.68 30.98 55.33 39.34 55.33C44.36 55.33 49.1 52.82 51.92 48.7C52.33 48.02 53.16 47.86 53.84 48.27C54.52 48.67 54.68 49.5 54.26 50.21C50.9 55.15 45.33 58.09 39.34 58.09C29.46 58.09 21.48 50.21 21.48 40.44C21.47 30.68 29.46 22.79 39.34 22.79ZM39.34 30C45.08 30 49.79 34.67 49.79 40.34C49.79 46.01 45.08 50.68 39.34 50.68C33.6 50.68 28.9 46.01 28.9 40.34C28.9 39.84 29.26 39.47 29.77 39.47C30.27 39.47 30.64 39.83 30.64 40.34C30.64 45.07 34.58 48.95 39.35 48.95C44.12 48.95 48.07 45.07 48.07 40.34C48.07 35.57 44.19 31.73 39.35 31.73C37.82 31.73 36.25 32.15 34.93 32.95C34.48 33.1 33.97 32.95 33.77 32.52C33.62 32.07 33.77 31.57 34.13 31.39C35.65 30.46 37.45 30 39.34 30ZM39.34 34.95C42.4 34.95 44.84 37.36 44.84 40.35C44.84 43.34 42.4 45.75 39.34 45.75C36.28 45.75 33.84 43.34 33.84 40.35C33.84 37.35 36.27 34.95 39.34 34.95ZM39.34 37.71C37.8 37.71 36.6 38.88 36.6 40.35C36.6 41.82 37.8 42.99 39.34 42.99C40.88 42.99 42.08 41.82 42.08 40.35C42.08 38.87 40.88 37.71 39.34 37.71ZM17.4 37.73C18.14 37.73 18.78 38.33 18.78 39.11C18.78 39.92 18.21 40.49 17.4 40.49L14.31 40.49C13.5 40.49 12.93 39.92 12.93 39.11C12.93 38.3 13.5 37.73 14.31 37.73L17.4 37.73ZM14.83 26.05C15.24 25.36 16.08 25.11 16.75 25.52L21.28 28.1C21.93 28.49 22.13 29.27 21.81 30.04C21.55 30.43 21.03 30.71 20.59 30.71C20.43 30.71 20.37 30.71 20.27 30.69C20.15 30.67 20.04 30.63 19.89 30.56L15.36 27.88C14.68 27.46 14.41 26.61 14.83 26.05ZM24.06 14.78C24.76 14.5 25.55 14.69 25.93 15.34L29.46 21.36C29.74 22.06 29.55 22.85 28.88 23.24C28.75 23.31 28.64 23.34 28.52 23.36C28.43 23.38 28.37 23.38 28.2 23.38C27.69 23.38 27.26 23.13 26.98 22.71L23.45 16.67C23.18 15.98 23.37 15.19 24.06 14.78ZM39.54 9.4C40.35 9.4 40.92 9.97 40.92 10.78L40.92 19.02C40.92 19.83 40.35 20.4 39.54 20.4C38.76 20.4 38.16 19.76 38.16 19.02L38.16 10.78C38.16 9.97 38.73 9.4 39.54 9.4Z" fill="#FFFFFF" fill-opacity="1.000000" fill-rule="nonzero"/>
	</g>
</svg>
