<svg width="72.000000" height="72.000000" viewBox="0 0 72 72" fill="none" xmlns="http://www.w3.org/2000/svg" xmlns:xlink="http://www.w3.org/1999/xlink">
	<desc>
			Created with Pixso.
	</desc>
	<defs>
		<clipPath id="clip117_153">
			<rect id="11#湖仓构建-LakeFormation" width="72.000000" height="72.000000" fill="white" fill-opacity="0"/>
		</clipPath>
	</defs>
	<g clip-path="url(#clip117_153)">
		<path id="矩形备份-19" d="M16 0L56 0C64.8 0 72 7.2 72 16L72 56C72 64.79 64.8 72 56 72L16 72C7.19 72 0 64.79 0 56L0 16C0 7.2 7.19 0 16 0Z" fill="#00ABED" fill-opacity="1.000000" fill-rule="evenodd"/>
		<path id="形状结合" d="M25.14 35.31C27.82 37.98 32.16 37.98 34.84 35.31C38.39 31.77 44.13 31.77 47.67 35.31C50.22 37.87 54.32 38 57.03 35.61L59.02 34.28C59.1 34.26 59.16 34.28 59.21 34.34C59.25 34.92 59.27 35.5 59.27 36.08C59.11 49.08 48.63 59.8 35.63 59.98C26.39 59.88 18.02 54.24 14.18 45.84C12.64 42.48 11.94 38.89 12.02 35.34L14.31 33.78C17.86 31.82 22.28 32.44 25.14 35.31ZM38.45 50.3C37.71 50.3 37.33 50.72 36.89 51.71L36.78 51.96C36.73 52.08 36.68 52.17 36.64 52.24C36.61 52.19 36.55 52.13 36.51 52.07L36.46 51.96L36.3 51.61C35.88 50.7 35.5 50.29 34.78 50.29C34.06 50.29 33.68 50.7 33.26 51.61L33.11 51.95C33.06 52.07 33.01 52.16 32.97 52.23C32.94 52.18 32.88 52.13 32.84 52.06L32.79 51.95L32.63 51.59L32.55 51.42C32.19 50.67 31.77 50.28 31.11 50.28C30.37 50.28 29.99 50.7 29.55 51.69L29.44 51.94C29.39 52.06 29.34 52.15 29.3 52.22C29.27 52.16 29.18 52.07 29.14 51.99L29.08 51.87L28.96 51.61C28.56 50.73 28.15 50.29 27.44 50.29C26.7 50.29 26.32 50.71 25.88 51.7L25.8 51.87C25.65 52.2 25.57 52.34 25.58 52.37L25.04 52.54L25.04 54.19L26.02 53.87C26.5 53.7 26.8 53.33 27.13 52.62L27.28 52.28C27.33 52.16 27.38 52.07 27.42 52C27.45 52.05 27.51 52.1 27.55 52.17L27.6 52.28L27.75 52.63C28.15 53.51 28.56 53.95 29.27 53.95C29.99 53.95 30.37 53.54 30.79 52.63L30.94 52.29C30.99 52.17 31.04 52.08 31.08 52.01C31.11 52.07 31.2 52.16 31.24 52.24L31.3 52.36L31.42 52.62C31.82 53.5 32.23 53.94 32.94 53.94C33.68 53.94 34.06 53.52 34.5 52.53L34.61 52.28C34.66 52.16 34.71 52.07 34.75 52C34.78 52.05 34.84 52.1 34.88 52.17L34.93 52.28L35.08 52.63C35.48 53.51 35.89 53.95 36.6 53.95C37.29 53.95 37.7 53.53 38.09 52.71L38.28 52.29C38.33 52.17 38.38 52.08 38.42 52.01C38.45 52.07 38.54 52.16 38.58 52.24L38.64 52.36L38.76 52.63C39.04 53.23 39.35 53.67 39.8 53.86L40.86 54.26L40.86 52.56L40.33 52.4C40.34 52.39 40.28 52.28 40.15 52L40.1 51.89C39.63 50.82 39.22 50.3 38.45 50.3ZM49.2 45.29C48.46 45.29 48.08 45.71 47.64 46.7L47.53 46.95C47.48 47.07 47.43 47.16 47.39 47.23C47.36 47.18 47.3 47.12 47.26 47.06L47.21 46.95L47.05 46.6C46.63 45.69 46.25 45.28 45.53 45.28C44.81 45.28 44.43 45.69 44.01 46.6L43.86 46.94C43.81 47.06 43.76 47.15 43.72 47.22C43.69 47.17 43.63 47.12 43.59 47.05L43.54 46.94L43.38 46.58L43.3 46.41C42.94 45.66 42.52 45.27 41.86 45.27C41.12 45.27 40.74 45.69 40.3 46.68L40.19 46.93C40.14 47.05 40.09 47.14 40.05 47.21L39.92 47.07L39.83 46.88L39.71 46.62C39.31 45.74 38.9 45.3 38.19 45.3C37.45 45.3 37.07 45.72 36.63 46.71L36.55 46.88C36.4 47.21 36.32 47.35 36.33 47.38L35.79 47.55L35.79 49.2L36.77 48.88C37.25 48.71 37.55 48.34 37.88 47.63L38.02 47.27C38.07 47.15 38.12 47.06 38.16 46.99C38.19 47.04 38.25 47.09 38.29 47.16L38.34 47.27L38.49 47.62C38.89 48.5 39.3 48.94 40.01 48.94C40.73 48.94 41.11 48.53 41.53 47.62L41.68 47.28C41.73 47.16 41.78 47.07 41.82 47L41.94 47.16L42.03 47.35L42.15 47.61C42.55 48.49 42.96 48.93 43.67 48.93C44.41 48.93 44.79 48.51 45.23 47.52L45.34 47.27C45.39 47.15 45.44 47.06 45.48 46.99C45.51 47.04 45.57 47.09 45.61 47.16L45.66 47.27L45.81 47.62C46.21 48.5 46.62 48.94 47.33 48.94C48.02 48.94 48.43 48.52 48.82 47.7L49.01 47.28C49.06 47.16 49.11 47.07 49.15 47L49.27 47.16L49.36 47.35L49.48 47.62C49.76 48.22 50.07 48.66 50.52 48.85L51.58 49.25L51.58 47.55L51.05 47.39C51.06 47.38 51 47.27 50.87 46.99L50.82 46.88C50.37 45.81 49.97 45.29 49.2 45.29ZM33.44 41.7C32.7 41.7 32.32 42.12 31.88 43.11L31.77 43.36C31.72 43.48 31.67 43.57 31.63 43.64C31.6 43.59 31.54 43.53 31.5 43.47L31.45 43.36L31.29 43.01C30.87 42.1 30.49 41.69 29.77 41.69C29.05 41.69 28.67 42.1 28.25 43.01L28.1 43.35C28.05 43.47 28 43.56 27.96 43.63C27.93 43.58 27.87 43.53 27.83 43.46L27.78 43.35L27.62 42.99L27.54 42.82C27.18 42.07 26.76 41.68 26.1 41.68C25.36 41.68 24.98 42.1 24.54 43.09L24.43 43.34C24.38 43.46 24.33 43.55 24.29 43.62C24.26 43.56 24.17 43.47 24.13 43.39L24.07 43.27L23.95 43.01C23.55 42.13 23.14 41.69 22.43 41.69C21.69 41.69 21.31 42.11 20.87 43.1L20.79 43.27C20.64 43.6 20.56 43.74 20.57 43.77L20.02 43.96L20.02 45.61L21 45.29C21.48 45.12 21.78 44.75 22.11 44.04L22.26 43.7C22.31 43.58 22.36 43.49 22.4 43.42C22.43 43.47 22.49 43.52 22.53 43.59L22.58 43.7L22.73 44.05C23.13 44.93 23.54 45.37 24.25 45.37C24.97 45.37 25.35 44.96 25.77 44.05L25.92 43.71C25.97 43.59 26.02 43.5 26.06 43.43C26.09 43.49 26.18 43.58 26.22 43.66L26.28 43.78L26.4 44.04C26.8 44.92 27.21 45.36 27.92 45.36C28.66 45.36 29.04 44.94 29.48 43.95L29.59 43.7C29.64 43.58 29.69 43.49 29.73 43.42C29.76 43.47 29.82 43.52 29.86 43.59L29.91 43.7L30.06 44.05C30.46 44.93 30.87 45.37 31.58 45.37C32.27 45.37 32.68 44.95 33.07 44.13L33.26 43.71C33.3 43.63 33.33 43.56 33.36 43.51L33.42 43.39C33.45 43.45 33.52 43.58 33.56 43.66L33.62 43.78L33.74 44.05C34.02 44.65 34.33 45.09 34.78 45.28L35.84 45.68L35.84 43.98L35.31 43.82C35.32 43.81 35.26 43.7 35.13 43.42L35.08 43.31C34.61 42.22 34.2 41.7 33.44 41.7ZM29.57 14.59C29.72 17.22 30.45 19.12 31.73 20.32C33.01 21.52 35.52 22.3 39.24 22.6C39.91 22.65 39.89 23.65 39.21 23.67C35.49 23.8 33.02 24.63 31.76 26.13C30.47 27.66 29.7 30.27 29.48 33.95C29.44 34.61 28.48 34.63 28.41 33.97C27.99 29.94 27.25 27.31 26.25 26.13C25.27 24.98 22.62 24.13 18.34 23.66C17.67 23.59 17.72 22.59 18.4 22.59C22.08 22.59 24.61 21.9 26.01 20.56C27.43 19.2 28.26 17.21 28.49 14.56C28.56 13.91 29.53 13.92 29.57 14.59ZM50.17 23.8C50.4 25.1 50.78 26.03 51.29 26.58C51.78 27.11 52.46 27.36 53.35 27.32C53.81 27.3 53.86 27.98 53.4 28.03C52.25 28.15 51.44 28.55 50.95 29.21C50.45 29.89 50.18 30.98 50.16 32.47C50.16 32.93 49.48 32.95 49.44 32.49C49.32 30.8 49.05 29.66 48.65 29.09C48.27 28.55 47.52 28.19 46.38 28.02C45.91 27.95 46.01 27.25 46.48 27.31C47.19 27.41 47.79 27.17 48.31 26.57C48.86 25.94 49.24 25.02 49.44 23.79C49.52 23.41 50.1 23.41 50.17 23.8ZM28.99 17.68L28.95 17.79C28.49 19.17 27.8 20.32 26.87 21.24L26.76 21.35C25.82 22.25 24.5 22.88 22.8 23.26L22.64 23.29L22.8 23.26C24.84 23.76 26.22 24.5 27 25.37C27.76 26.27 28.42 27.81 28.87 29.88L28.91 30.05L28.87 29.88C29.29 28.04 29.99 26.62 30.85 25.55L30.94 25.44C31.87 24.33 33.3 23.55 35.21 23.09L35.02 23.04C33.24 22.59 31.9 21.95 31 21.1C30.11 20.27 29.37 19.14 28.95 17.79L28.99 17.68ZM49.82 25.36L49.76 25.52C49.53 26.13 49.24 26.64 48.87 27.06C48.62 27.35 48.34 27.57 48.05 27.74C48.52 27.96 48.93 28.26 49.2 28.61C49.41 28.91 49.65 29.4 49.79 29.91C49.92 29.5 50.12 29.19 50.33 28.88C50.66 28.43 51.16 27.99 51.7 27.74C51.42 27.6 51.08 27.36 50.85 27.14C50.48 26.74 50.05 26.03 49.82 25.36ZM44.08 14.98C44.12 16.01 44.27 16.7 44.5 17.03C44.71 17.34 45.45 17.58 46.7 17.69L46.9 17.71C47.35 17.74 47.34 18.4 46.91 18.42C45.58 18.37 44.77 18.65 44.54 19.19C44.33 19.68 44.19 20.39 44.12 21.33L44.1 21.58C44.1 21.91 44.09 22.29 44.08 22.66L44.07 22.89C44.04 23.35 43.35 23.33 43.35 22.87C43.35 22.5 43.36 22.14 43.37 21.81L43.38 21.56C43.36 20.42 43.21 19.56 42.96 19.19C42.62 18.76 41.83 18.47 40.62 18.43L40.49 18.43L40.35 18.43C39.89 18.43 39.88 17.76 40.31 17.72L40.49 17.72C41.72 17.7 42.5 17.48 42.85 17.1C43.11 16.72 43.34 16.02 43.36 15.14L43.36 14.99C43.37 14.53 44.06 14.51 44.08 14.98ZM43.72 17.06C43.69 17.12 43.63 17.22 43.6 17.28L43.5 17.43C43.34 17.66 43.11 17.85 42.81 18L42.64 18.08C42.94 18.21 43.18 18.37 43.37 18.57L43.49 18.71C43.57 18.82 43.65 18.94 43.71 19.08L43.76 19.19L43.71 19.08L43.84 19L43.88 18.9C44.03 18.56 44.27 18.29 44.6 18.09L44.75 18.01C44.39 17.86 44.08 17.65 43.92 17.41C43.87 17.33 43.77 17.16 43.72 17.06Z" fill="#FFFFFF" fill-opacity="1.000000" fill-rule="nonzero"/>
	</g>
</svg>
