<svg width="72.000000" height="72.000000" viewBox="0 0 72 72" fill="none" xmlns="http://www.w3.org/2000/svg" xmlns:xlink="http://www.w3.org/1999/xlink">
	<desc>
			Created with Pixso.
	</desc>
	<defs>
		<clipPath id="clip117_149">
			<rect id="12#数据接入服务-DIS" width="72.000000" height="72.000000" fill="white" fill-opacity="0"/>
		</clipPath>
	</defs>
	<g clip-path="url(#clip117_149)">
		<path id="矩形备份-19" d="M16 0L56 0C64.8 0 72 7.2 72 16L72 56C72 64.79 64.8 72 56 72L16 72C7.19 72 0 64.79 0 56L0 16C0 7.2 7.19 0 16 0Z" fill="#00ABED" fill-opacity="1.000000" fill-rule="evenodd"/>
		<path id="形状结合" d="M33.4 12.6C34.8 11.79 37.1 11.79 38.5 12.6L55.1 21.79C56.6 22.7 57.7 24.5 57.7 26.2L57.7 45.79C57.7 47.39 56.5 49.39 55.1 50.2L38.5 59.39C37.8 59.79 36.9 60 36 60C35.1 60 34.2 59.79 33.5 59.29L16.9 50.1C15.4 49.2 14.3 47.39 14.3 45.7L14.3 26.2C14.3 24.6 15.4 22.7 16.9 21.79L33.4 12.6ZM37.5 41.39C36.7 40.6 35.5 40.6 34.7 41.39L28.9 47.1C28.5 47.5 28.5 48.1 28.9 48.5C29.3 48.89 29.9 48.89 30.3 48.5L36.1 42.79L41.8 48.5C42.2 48.89 42.8 48.89 43.2 48.5C43.6 48.1 43.6 47.5 43.2 47.1L37.5 41.39ZM48.8 28.79C48.4 28.39 47.8 28.39 47.4 28.79L41.7 34.5C40.9 35.29 40.9 36.5 41.7 37.29L47.4 43.1C47.8 43.5 48.4 43.5 48.8 43.1C49.2 42.7 49.2 42.1 48.8 41.7L43.1 35.89L48.8 30.2C49.2 29.79 49.2 29.2 48.8 28.79ZM24.7 28.79C24.3 28.39 23.7 28.39 23.3 28.79C22.9 29.2 22.9 29.79 23.3 30.2L29 36L23.3 41.7C22.9 42.1 22.9 42.7 23.3 43.1C23.7 43.5 24.3 43.5 24.7 43.1L30.4 37.39C31.2 36.6 31.2 35.39 30.4 34.6L24.7 28.79ZM43.2 23.39C42.8 23 42.2 23 41.8 23.39L36 29L30.3 23.29C29.9 22.89 29.3 22.89 28.9 23.29C28.5 23.7 28.5 24.29 28.9 24.7L34.6 30.39C35.4 31.2 36.6 31.2 37.4 30.39L43.2 24.7C43.6 24.39 43.6 23.79 43.2 23.39Z" fill="#FFFFFF" fill-opacity="1.000000" fill-rule="nonzero"/>
	</g>
</svg>
