<svg width="72.000000" height="72.000000" viewBox="0 0 72 72" fill="none" xmlns="http://www.w3.org/2000/svg" xmlns:xlink="http://www.w3.org/1999/xlink">
	<desc>
			Created with Pixso.
	</desc>
	<defs>
		<clipPath id="clip117_299">
			<rect id="13#智能数据洞察-DataArts-Insight" width="72.000000" height="72.000000" fill="white" fill-opacity="0"/>
		</clipPath>
	</defs>
	<g clip-path="url(#clip117_299)">
		<path id="矩形备份-19" d="M16 0L56 0C64.8 0 72 7.2 72 16L72 56C72 64.79 64.8 72 56 72L16 72C7.19 72 0 64.79 0 56L0 16C0 7.2 7.19 0 16 0Z" fill="#F85835" fill-opacity="1.000000" fill-rule="evenodd"/>
		<path id="形状结合" d="M12.89 20L18.79 20C19.1 20 19.39 20.2 19.5 20.6C20.8 27.6 21.5 32.7 21.8 36C22 39.29 22.1 44.39 21.8 51.29C21.8 51.7 21.5 52 21.1 52L12.89 52C12.6 52 12.5 52 12.3 51.89C12.2 51.79 12.1 51.7 12 51.6C12 51.5 12 51.39 12 51.1L12 20.89C12 20.6 12 20.5 12.1 20.39C12.2 20.29 12.3 20.2 12.39 20.1C12.5 20 12.6 20 12.89 20ZM24.89 20L35.1 20C35.39 20 35.5 20 35.7 20.1C35.8 20.2 35.89 20.29 36 20.39C36.1 20.5 36.1 20.6 36.1 20.89L36.1 51.1C36.1 51.39 36.1 51.5 36 51.6C35.89 51.7 35.8 51.79 35.7 51.89C35.6 52 35.39 52 35.1 52L27 52C26.6 52 26.3 51.7 26.3 51.29C25.89 45.29 25.5 40.2 25.2 36C24.89 31.89 24.6 26.79 24.2 20.7C24.2 20.39 24.5 20 24.89 20ZM59.1 20C59.39 20 59.5 20 59.7 20.1C59.8 20.2 59.89 20.29 60 20.39C60.1 20.5 60.1 20.6 60.1 20.89L60.1 51.1C60.1 51.39 60.1 51.5 60 51.6C59.89 51.7 59.8 51.79 59.7 51.89C59.5 52 59.39 52 59.1 52L48.7 52C48.3 52 48 51.7 48 51.29C49.1 44.29 49.8 38.5 50.1 34.2C50.39 29.89 50.89 25.39 51.6 20.6C51.7 20.29 52 20 52.3 20L59.1 20ZM43.5 20C46.3 20 48.5 22.2 48.5 25C48.5 27.79 46.3 30 43.5 30C40.7 30 38.5 27.79 38.5 25C38.5 22.2 40.8 20 43.5 20Z" fill="#FFFFFF" fill-opacity="1.000000" fill-rule="evenodd"/>
	</g>
</svg>
