<svg width="72.000000" height="72.000000" viewBox="0 0 72 72" fill="none" xmlns="http://www.w3.org/2000/svg" xmlns:xlink="http://www.w3.org/1999/xlink">
	<desc>
			Created with Pixso.
	</desc>
	<defs>
		<clipPath id="clip117_147">
			<rect id="2#云搜索服务-CSS" width="72.000000" height="72.000000" fill="white" fill-opacity="0"/>
		</clipPath>
	</defs>
	<g clip-path="url(#clip117_147)">
		<path id="矩形备份-19" d="M16 0L56 0C64.8 0 72 7.2 72 16L72 56C72 64.79 64.8 72 56 72L16 72C7.19 72 0 64.79 0 56L0 16C0 7.2 7.19 0 16 0Z" fill="#9F53E6" fill-opacity="1.000000" fill-rule="evenodd"/>
		<path id="形状结合" d="M35.39 12C48.3 12 58.8 22.5 58.8 35.39C58.8 41.39 56.5 47 52.7 51.1L59.6 58C60 58.39 60 59.1 59.6 59.6C59.39 59.79 59 59.89 58.8 59.89C58.6 59.89 58.2 59.79 58 59.6L51.1 52.7C47 56.5 41.39 58.79 35.39 58.79C22.5 58.89 12 48.39 12 35.39C12 22.39 22.5 12 35.39 12ZM35.39 14.29C23.7 14.29 14.3 23.79 14.3 35.39C14.3 47 23.8 56.5 35.39 56.5C47 56.5 56.5 47 56.5 35.39C56.5 23.79 47.1 14.29 35.39 14.29ZM35.39 16.29C46 16.29 54.5 24.89 54.5 35.39C54.5 45.89 46 54.6 35.39 54.6C24.8 54.6 16.29 46 16.29 35.39C16.29 24.79 24.89 16.29 35.39 16.29ZM35.39 24.6C32.2 24.6 29.5 26.6 28.6 29.5C25.39 30 22.89 32.79 22.89 36.1C22.89 39.79 26 42.79 29.6 42.79L41.2 42.79C44.89 42.79 47.89 39.7 47.89 36.1C47.89 32.7 45.39 29.89 42.2 29.5C41.3 26.6 38.6 24.6 35.39 24.6Z" fill="#FFFFFF" fill-opacity="1.000000" fill-rule="evenodd"/>
	</g>
</svg>
