<svg width="72.000000" height="72.000000" viewBox="0 0 72 72" fill="none" xmlns="http://www.w3.org/2000/svg" xmlns:xlink="http://www.w3.org/1999/xlink">
	<desc>
			Created with Pixso.
	</desc>
	<defs>
		<clipPath id="clip117_148">
			<rect id="3#数据治理中心-DataArts-Studio" width="72.000000" height="72.000000" fill="white" fill-opacity="0"/>
		</clipPath>
	</defs>
	<g clip-path="url(#clip117_148)">
		<path id="矩形备份-19" d="M16 0L56 0C64.8 0 72 7.2 72 16L72 56C72 64.79 64.8 72 56 72L16 72C7.19 72 0 64.79 0 56L0 16C0 7.2 7.19 0 16 0Z" fill="#1476FF" fill-opacity="1.000000" fill-rule="evenodd"/>
		<path id="形状结合" d="M25.87 46.21C26.41 46.84 26.35 47.78 25.72 48.33C24.58 49.33 24 50.41 24 51.49C24 54.73 29.25 57.76 35.97 57.76C42.69 57.76 47.94 54.73 47.94 51.49C47.94 50.42 47.37 49.33 46.23 48.34C45.61 47.8 45.54 46.85 46.09 46.22C46.63 45.6 47.58 45.53 48.21 46.08C49.96 47.61 50.95 49.48 50.95 51.49C50.95 56.83 44.14 60.76 35.98 60.76C27.82 60.76 21.01 56.83 21.01 51.49C21.01 49.47 22.01 47.6 23.76 46.07C24.38 45.52 25.33 45.58 25.87 46.21ZM35.98 46.8C36.81 46.8 37.48 47.47 37.48 48.3L37.48 55.01C37.48 55.84 36.81 56.51 35.98 56.51C35.15 56.51 34.48 55.84 34.48 55.01L34.48 48.3C34.48 47.47 35.15 46.8 35.98 46.8ZM28.34 43.62C29.17 43.62 29.84 44.29 29.84 45.12L29.84 51.83C29.84 52.66 29.17 53.33 28.34 53.33C27.51 53.33 26.84 52.66 26.84 51.83L26.84 45.12C26.84 44.29 27.51 43.62 28.34 43.62ZM43.62 43.62C44.45 43.62 45.12 44.29 45.12 45.12L45.12 51.83C45.12 52.66 44.45 53.33 43.62 53.33C42.79 53.33 42.12 52.66 42.12 51.83L42.12 45.12C42.12 44.29 42.79 43.62 43.62 43.62ZM48.81 26.37L57.7 30.95C58.76 31.5 58.79 33.01 57.74 33.59L39.63 43.68C37.36 44.94 34.6 44.94 32.33 43.68L14.22 33.59C13.17 33.01 13.2 31.49 14.27 30.95L22.89 26.53C23.63 26.15 24.53 26.44 24.91 27.18C25.29 27.92 25 28.82 24.26 29.2L18.14 32.34L33.8 41.06C35.09 41.78 36.65 41.82 37.97 41.17L38.18 41.06L53.85 32.33L47.45 29.03C46.76 28.67 46.46 27.85 46.74 27.14L46.8 27.01C47.16 26.28 48.07 25.99 48.81 26.37ZM35.98 12.83C37.93 12.83 39.51 14.41 39.51 16.35C39.51 17.76 38.68 18.98 37.48 19.54L37.48 37.72C37.48 38.55 36.81 39.22 35.98 39.22C35.15 39.22 34.48 38.55 34.48 37.72L34.48 19.54C33.28 18.98 32.45 17.76 32.45 16.35C32.45 14.41 34.03 12.83 35.98 12.83ZM21.32 16.04C22.05 16.04 22.7 16.37 23.14 16.89L24.35 16.89C27.39 16.89 29.85 19.35 29.85 22.39L29.85 34.03C29.85 34.86 29.18 35.53 28.35 35.53C27.52 35.53 26.85 34.86 26.85 34.03L26.85 22.39C26.85 21.01 25.73 19.89 24.35 19.89L23.18 19.89C22.75 20.43 22.08 20.78 21.32 20.78C20.01 20.78 18.95 19.72 18.95 18.41C18.95 17.1 20.01 16.04 21.32 16.04ZM51.21 16.04C52.52 16.04 53.58 17.1 53.58 18.41C53.58 19.72 52.52 20.78 51.21 20.78C50.46 20.78 49.79 20.43 49.35 19.89L47.61 19.89C46.23 19.89 45.11 21.01 45.11 22.39L45.11 34.03C45.11 34.86 44.44 35.53 43.61 35.53C42.78 35.53 42.11 34.86 42.11 34.03L42.11 22.39C42.11 19.35 44.57 16.89 47.61 16.89L49.39 16.89C49.83 16.37 50.48 16.04 51.21 16.04Z" fill="#FFFFFF" fill-opacity="1.000000" fill-rule="nonzero"/>
	</g>
</svg>
