<svg width="72.000000" height="72.000000" viewBox="0 0 72 72" fill="none" xmlns="http://www.w3.org/2000/svg" xmlns:xlink="http://www.w3.org/1999/xlink">
	<desc>
			Created with Pixso.
	</desc>
	<defs>
		<clipPath id="clip117_150">
			<rect id="4#数据湖探索-DLI" width="72.000000" height="72.000000" fill="white" fill-opacity="0"/>
		</clipPath>
	</defs>
	<g clip-path="url(#clip117_150)">
		<path id="矩形备份-19" d="M16 0L56 0C64.8 0 72 7.2 72 16L72 56C72 64.79 64.8 72 56 72L16 72C7.19 72 0 64.79 0 56L0 16C0 7.2 7.19 0 16 0Z" fill="#25C251" fill-opacity="1.000000" fill-rule="evenodd"/>
		<path id="形状结合" d="M36 12C37.3 12 38.5 12.29 39.5 12.89L54 21.39C55.9 22.5 57.4 25.2 57.4 27.5L57.4 44.5C57.4 46.79 55.9 49.39 54 50.6L39.5 59.1C38.5 59.7 37.3 60 36 60C34.7 60 33.4 59.7 32.5 59.1L18 50.6C16.1 49.39 14.6 46.79 14.6 44.5L14.6 27.5C14.6 25.2 16.1 22.5 18 21.39L32.5 12.89C33.5 12.29 34.7 12 36 12ZM36 23.1C32 23.1 28.5 25.7 27.3 29.29C23.3 29.89 20.1 33.5 20.1 37.79C20.1 42.1 23.4 45.7 27.5 46.29L27.5 42.2C27.5 41.6 27.9 41.2 28.5 41.2C29.1 41.2 29.5 41.6 29.5 42.2L29.5 46.29L32.6 46.39L32.6 40.79C32.6 40.2 33 39.79 33.6 39.79C34.2 39.79 34.6 40.2 34.6 40.79L34.6 46.29L37.6 46.39L37.6 42.6C37.6 42 38 41.6 38.6 41.6C39.2 41.6 39.6 42 39.6 42.6L39.6 46.29L42.7 46.39L42.7 39.79C42.7 39.2 43.1 38.79 43.7 38.79C44.3 38.79 44.7 39.2 44.7 39.79L44.7 46.29C48.8 45.7 52.1 42.1 52.1 37.79C52.1 33.5 48.9 30 44.9 29.29C43.5 25.7 40 23.1 36 23.1ZM35.3 28.1C38.1 28.1 40.5 30.39 40.5 33.29C40.5 34.39 40.1 35.5 39.5 36.39L41 37.89C41.4 38.29 41.4 38.89 41 39.29C40.6 39.7 40 39.7 39.6 39.29L38 37.7C37.2 38.2 36.3 38.39 35.3 38.39C32.5 38.39 30.1 36.1 30.1 33.2C30.1 30.29 32.4 28.1 35.3 28.1ZM35.3 30.1C33.6 30.1 32.1 31.5 32.1 33.29C32.1 35 33.5 36.5 35.3 36.5C37 36.5 38.5 35.1 38.5 33.29C38.4 31.5 37 30.1 35.3 30.1Z" fill="#FFFFFF" fill-opacity="1.000000" fill-rule="evenodd"/>
	</g>
</svg>
