<svg width="72.000000" height="72.000000" viewBox="0 0 72 72" fill="none" xmlns="http://www.w3.org/2000/svg" xmlns:xlink="http://www.w3.org/1999/xlink">
	<desc>
			Created with Pixso.
	</desc>
	<defs>
		<clipPath id="clip117_146">
			<rect id="5#实时流计算服务-CS" width="72.000000" height="72.000000" fill="white" fill-opacity="0"/>
		</clipPath>
	</defs>
	<g clip-path="url(#clip117_146)">
		<path id="矩形备份-19" d="M16 0L56 0C64.8 0 72 7.2 72 16L72 56C72 64.79 64.8 72 56 72L16 72C7.19 72 0 64.79 0 56L0 16C0 7.2 7.19 0 16 0Z" fill="#1476FF" fill-opacity="1.000000" fill-rule="evenodd"/>
		<path id="形状结合" d="M33.4 12.6C34.8 11.79 37.1 11.79 38.5 12.6L55.1 21.79C56.6 22.7 57.7 24.5 57.7 26.2L57.7 45.79C57.7 47.39 56.5 49.39 55.1 50.2L38.5 59.39C37.8 59.79 36.9 60 36 60C35.1 60 34.2 59.79 33.5 59.29L16.9 50.1C15.4 49.2 14.3 47.39 14.3 45.7L14.3 26.2C14.3 24.6 15.4 22.7 16.9 21.79L33.4 12.6ZM25.1 40.2C24.1 40.2 23.3 41 23.3 42C23.3 43 24.1 43.79 25.1 43.79C25.7 43.79 26.2 43.5 26.5 43.1L33 43.1L38.1 46.89L38.4 47.1L44.6 47.1C44.9 47.6 45.4 47.79 46 47.79C47 47.79 47.8 47 47.8 46C47.8 45 47 44.2 46 44.2C45.4 44.2 44.9 44.5 44.6 44.89L39 44.89L34 41.2L33.7 41L26.6 41C26.3 40.5 25.7 40.2 25.1 40.2ZM46.2 34.2C45.6 34.2 45.1 34.5 44.8 34.89L26.6 34.89C26.3 34.39 25.8 34.2 25.2 34.2C24.2 34.2 23.4 35 23.4 36C23.4 37 24.2 37.79 25.2 37.79C25.8 37.79 26.3 37.5 26.6 37.1L44.7 37.1C45 37.6 45.5 37.79 46.1 37.79C47.1 37.79 47.9 37 47.9 36C47.9 35 47.1 34.2 46.2 34.2ZM46.2 24.2C45.6 24.2 45.1 24.5 44.8 24.89L38.6 24.89L38.3 25.1L33.1 29L26.6 29C26.3 28.5 25.8 28.29 25.2 28.29C24.2 28.29 23.4 29.1 23.4 30.1C23.4 31.1 24.2 31.89 25.2 31.89C25.8 31.89 26.3 31.6 26.6 31.2L33.7 31.2L34 31L39.1 27.2L44.7 27.2C45 27.7 45.5 27.89 46.1 27.89C47.1 27.89 47.9 27.1 47.9 26.1C47.9 25.1 47.1 24.2 46.2 24.2Z" fill="#FFFFFF" fill-opacity="1.000000" fill-rule="evenodd"/>
	</g>
</svg>
