<svg width="72.000000" height="72.000000" viewBox="0 0 72 72" fill="none" xmlns="http://www.w3.org/2000/svg" xmlns:xlink="http://www.w3.org/1999/xlink">
	<desc>
			Created with Pixso.
	</desc>
	<defs>
		<clipPath id="clip117_144">
			<rect id="6#可信智能计算服务-TICS" width="72.000000" height="72.000000" fill="white" fill-opacity="0"/>
		</clipPath>
	</defs>
	<g clip-path="url(#clip117_144)">
		<path id="矩形备份-19" d="M16 0L56 0C64.8 0 72 7.2 72 16L72 56C72 64.79 64.8 72 56 72L16 72C7.19 72 0 64.79 0 56L0 16C0 7.2 7.19 0 16 0Z" fill="#9F53E6" fill-opacity="1.000000" fill-rule="evenodd"/>
		<path id="形状结合" d="M36.22 12C36.98 12 37.64 12.22 38.29 12.76L39.82 13.96C41.24 15.05 43.09 16.25 46.37 17.89C48.33 18.76 51.82 20.07 54.33 20.84L55.53 21.28C56.95 21.72 57.93 23.13 57.82 24.77L57.71 25.64C57.16 30.66 55.96 39.6 53.24 45.28C49.75 52.15 41.13 57.5 37.75 59.57C37.2 59.89 36.65 60 36 60C35.35 60 34.8 59.89 34.25 59.56L33.27 58.91C29.45 56.51 22.03 51.49 18.76 45.27C15.81 39.27 14.61 29.56 14.18 24.54C14.07 23.01 14.94 21.7 16.47 21.16L18.22 20.61C20.62 19.85 23.89 18.65 25.64 17.77C30.22 15.48 31.97 13.95 33.71 12.64C34.26 12.2 34.91 11.99 35.67 11.99L36.22 12ZM36 20.73C34.48 20.73 33.25 21.96 33.25 23.48C33.25 24.65 33.99 25.66 35.02 26.05L35.02 31.57C33 32.02 31.5 33.81 31.5 35.96C31.5 36.56 31.62 37.14 31.83 37.66L27.2 40.85C26.76 40.54 26.21 40.36 25.63 40.36C24.11 40.36 22.88 41.59 22.88 43.11C22.88 44.63 24.11 45.86 25.63 45.86C27.15 45.86 28.38 44.63 28.38 43.11C28.38 42.9 28.36 42.7 28.31 42.51L32.97 39.29C33.77 40.01 34.83 40.45 35.99 40.45C37.15 40.45 38.21 40.01 39.01 39.29L43.68 42.48C43.63 42.68 43.61 42.89 43.61 43.11C43.61 44.63 44.84 45.86 46.36 45.86C47.88 45.86 49.11 44.63 49.11 43.11C49.11 41.59 47.88 40.36 46.36 40.36C45.79 40.36 45.26 40.53 44.82 40.83L40.17 37.65C40.38 37.13 40.5 36.55 40.5 35.95C40.5 33.82 39.02 32.03 37.02 31.57L37.02 26.02C38.03 25.61 38.75 24.62 38.75 23.47C38.75 21.96 37.52 20.73 36 20.73ZM41.63 41.29C41.28 40.86 40.65 40.79 40.22 41.14C39.03 42.09 37.56 42.62 36 42.62C34.45 42.62 32.98 42.1 31.79 41.15C31.36 40.81 30.73 40.88 30.38 41.31C30.04 41.74 30.11 42.37 30.54 42.72C32.08 43.95 33.99 44.63 36 44.63C38.02 44.63 39.93 43.94 41.47 42.71C41.91 42.35 41.97 41.73 41.63 41.29ZM25.64 42.36C26.05 42.36 26.39 42.7 26.39 43.11C26.39 43.52 26.05 43.86 25.64 43.86C25.23 43.86 24.89 43.52 24.89 43.11C24.89 42.7 25.22 42.36 25.64 42.36ZM46.36 42.36C46.77 42.36 47.11 42.7 47.11 43.11C47.11 43.52 46.77 43.86 46.36 43.86C45.95 43.86 45.61 43.52 45.61 43.11C45.61 42.7 45.95 42.36 46.36 42.36ZM34.73 28.16C34.57 27.63 34.01 27.33 33.48 27.49C29.81 28.59 27.25 31.98 27.25 35.87C27.25 36.78 27.39 37.67 27.66 38.52C27.83 39.05 28.39 39.34 28.92 39.17C29.45 39 29.74 38.44 29.57 37.91C29.36 37.25 29.25 36.57 29.25 35.86C29.25 32.86 31.23 30.24 34.06 29.39C34.59 29.25 34.89 28.69 34.73 28.16ZM38.63 27.52C38.1 27.35 37.54 27.65 37.38 28.17C37.21 28.7 37.51 29.26 38.03 29.42C40.82 30.3 42.75 32.89 42.75 35.86C42.75 36.52 42.66 37.16 42.47 37.78C42.31 38.31 42.62 38.87 43.14 39.02C43.66 39.17 44.23 38.87 44.38 38.35C44.62 37.55 44.74 36.71 44.74 35.86C44.75 32.02 42.24 28.66 38.63 27.52ZM36 33.46C37.38 33.46 38.5 34.58 38.5 35.96C38.5 37.34 37.38 38.46 36 38.46C34.62 38.46 33.5 37.34 33.5 35.96C33.5 34.58 34.62 33.46 36 33.46ZM36 22.73C36.41 22.73 36.75 23.07 36.75 23.48C36.75 23.89 36.41 24.23 36 24.23C35.59 24.23 35.25 23.89 35.25 23.48C35.25 23.06 35.59 22.73 36 22.73Z" fill="#FFFFFF" fill-opacity="1.000000" fill-rule="nonzero"/>
	</g>
</svg>
