<svg width="72.000000" height="72.000000" viewBox="0 0 72 72" fill="none" xmlns="http://www.w3.org/2000/svg" xmlns:xlink="http://www.w3.org/1999/xlink">
	<desc>
			Created with Pixso.
	</desc>
	<defs>
		<clipPath id="clip117_154">
			<rect id="7#日志分析服务-LOG" width="72.000000" height="72.000000" fill="white" fill-opacity="0"/>
		</clipPath>
	</defs>
	<g clip-path="url(#clip117_154)">
		<path id="矩形备份-19" d="M16 0L56 0C64.8 0 72 7.2 72 16L72 56C72 64.79 64.8 72 56 72L16 72C7.19 72 0 64.79 0 56L0 16C0 7.2 7.19 0 16 0Z" fill="#00C4BE" fill-opacity="1.000000" fill-rule="evenodd"/>
		<path id="形状结合" d="M33.38 12.62C35 11.84 36.88 11.84 38.5 12.62L55.16 21.84C56.68 22.78 57.64 24.41 57.74 26.2L57.74 45.81C57.64 47.6 56.68 49.23 55.16 50.17L38.5 59.44C36.89 60.25 35 60.25 33.38 59.44L16.73 50.18C15.21 49.24 14.25 47.61 14.15 45.82L14.15 26.2C14.25 24.41 15.21 22.78 16.73 21.84L33.38 12.62ZM23.36 35.95C22.81 35.95 22.36 36.4 22.36 36.95L22.36 45.74C22.36 46.29 22.81 46.74 23.36 46.74L28.87 46.74C29.42 46.74 29.87 46.29 29.87 45.74L29.86 45.62C29.8 45.12 29.38 44.74 28.87 44.74L24.36 44.74L24.36 36.95C24.36 36.4 23.91 35.95 23.36 35.95ZM38.62 35.95L32.08 35.95C31.53 35.95 31.08 36.4 31.08 36.95L31.08 45.74C31.08 46.29 31.53 46.74 32.08 46.74L38.62 46.74C39.17 46.74 39.62 46.29 39.62 45.74L39.62 36.95C39.62 36.4 39.18 35.95 38.62 35.95ZM48.53 35.95L41.93 35.95C41.38 35.95 40.93 36.4 40.93 36.95L40.93 45.74C40.93 46.29 41.38 46.74 41.93 46.74L48.53 46.74C49.07 46.74 49.53 46.29 49.53 45.74L49.53 41.45C49.53 40.9 49.07 40.45 48.53 40.45L45.16 40.45C44.61 40.45 44.16 40.9 44.16 41.45L44.17 41.57C44.24 42.07 44.65 42.45 45.16 42.45L47.53 42.45L47.53 44.75L42.93 44.75L42.93 37.96L48.53 37.96C49.07 37.96 49.53 37.51 49.53 36.96C49.53 36.41 49.07 35.95 48.53 35.95ZM37.62 37.95L37.62 44.74L33.08 44.74L33.08 37.95L37.62 37.95ZM48.48 23.54L44.23 23.73C43.67 23.75 43.25 24.22 43.27 24.77L43.28 24.89C43.36 25.38 43.8 25.75 44.31 25.73L45.53 25.68L38.07 30.91L33.2 27.54C32.86 27.31 32.45 27.3 32.1 27.51L22.84 33.2C22.37 33.49 22.23 34.1 22.52 34.58C22.82 34.97 23.46 35.18 23.89 34.91L32.6 29.56L37.52 32.95C37.85 33.19 38.31 33.19 38.65 32.95L47.17 26.98L46.9 28.89C46.82 29.44 47.21 29.94 47.76 30.02C48.3 30.1 48.8 29.72 48.88 29.17L49.52 24.69C49.6 24.06 49.1 23.51 48.48 23.54Z" fill="#FFFFFF" fill-opacity="1.000000" fill-rule="nonzero"/>
	</g>
</svg>
