<svg width="72.000000" height="72.000000" viewBox="0 0 72 72" fill="none" xmlns="http://www.w3.org/2000/svg" xmlns:xlink="http://www.w3.org/1999/xlink">
	<desc>
			Created with Pixso.
	</desc>
	<defs>
		<clipPath id="clip117_152">
			<rect id="8#云数据仓库-GaussDB-DWS" width="72.000000" height="72.000000" fill="white" fill-opacity="0"/>
		</clipPath>
	</defs>
	<g clip-path="url(#clip117_152)">
		<path id="矩形备份-19" d="M16 0L56 0C64.8 0 72 7.2 72 16L72 56C72 64.79 64.8 72 56 72L16 72C7.19 72 0 64.79 0 56L0 16C0 7.2 7.19 0 16 0Z" fill="#25C251" fill-opacity="1.000000" fill-rule="evenodd"/>
		<path id="形状结合" d="M39.1 13.89L54.8 23.39C56 24.1 56.7 25.39 56.7 26.79L56.7 54C56.7 55.1 55.8 56 54.7 56L17.29 56C16.2 56 15.3 55.1 15.3 54L15.3 26.79C15.3 25.39 16 24.1 17.2 23.39L32.9 13.89C34.8 12.7 37.2 12.7 39.1 13.89ZM50.5 48.79L21.5 48.79C20.9 48.79 20.5 49.2 20.5 49.79C20.5 50.39 20.9 50.79 21.5 50.79L50.5 50.79C51.1 50.79 51.5 50.39 51.5 49.79C51.5 49.2 51.1 48.79 50.5 48.79ZM50.5 43.29L21.5 43.29C20.9 43.29 20.5 43.7 20.5 44.29C20.5 44.89 20.9 45.29 21.5 45.29L50.5 45.29C51.1 45.29 51.5 44.89 51.5 44.29C51.5 43.7 51.1 43.29 50.5 43.29ZM50.5 37.79L21.5 37.79C20.9 37.79 20.5 38.2 20.5 38.79C20.5 39.39 20.9 39.79 21.5 39.79L50.5 39.79C51.1 39.79 51.5 39.39 51.5 38.79C51.5 38.2 51.1 37.79 50.5 37.79ZM50.5 32.39L21.5 32.39C20.9 32.39 20.5 32.79 20.5 33.39C20.5 34 20.9 34.39 21.5 34.39L50.5 34.39C51.1 34.39 51.5 34 51.5 33.39C51.5 32.79 51.1 32.39 50.5 32.39ZM50.5 26.89L21.5 26.89C20.9 26.89 20.5 27.29 20.5 27.89C20.5 28.5 20.9 28.89 21.5 28.89L50.5 28.89C51.1 28.89 51.5 28.5 51.5 27.89C51.5 27.29 51.1 26.89 50.5 26.89Z" fill="#FFFFFF" fill-opacity="1.000000" fill-rule="evenodd"/>
	</g>
</svg>
