<svg width="72.000000" height="72.000000" viewBox="0 0 72 72" fill="none" xmlns="http://www.w3.org/2000/svg" xmlns:xlink="http://www.w3.org/1999/xlink">
	<desc>
			Created with Pixso.
	</desc>
	<defs>
		<clipPath id="clip117_145">
			<rect id="9#表格存储服务-CloudTable" width="72.000000" height="72.000000" fill="white" fill-opacity="0"/>
		</clipPath>
	</defs>
	<g clip-path="url(#clip117_145)">
		<path id="矩形备份-19" d="M16 0L56 0C64.8 0 72 7.2 72 16L72 56C72 64.79 64.8 72 56 72L16 72C7.19 72 0 64.79 0 56L0 16C0 7.2 7.19 0 16 0Z" fill="#FF9A2E" fill-opacity="1.000000" fill-rule="evenodd"/>
		<path id="形状结合" d="M36 12C37.29 12 38.47 12.33 39.55 12.87L54.06 21.37C55.99 22.47 57.5 25.2 57.5 27.49L57.5 44.5C57.5 46.79 55.99 49.41 54.06 50.62L39.55 59.12C38.47 59.66 37.29 60 36 60C34.71 60 33.41 59.66 32.45 59.12L17.93 50.62C16 49.41 14.5 46.79 14.5 44.5L14.5 27.49C14.5 25.2 16 22.47 17.93 21.37L32.45 12.87C33.53 12.33 34.71 12 36 12ZM52.77 23.79C52.37 23.6 51.96 23.64 51.61 23.91C51.46 24.06 51.03 24.37 50.53 24.6C49.67 24.99 48.67 25.23 47.53 25.23C47.29 25.25 46.93 25.35 46.6 25.58L46.48 25.66C46.01 25.33 45.64 25.22 45.32 25.22C44.36 25.37 42.59 24.73 41.12 23.91C40.74 23.73 40.34 23.73 39.97 23.91C39.54 24.12 39.46 24.39 39.46 24.91C39.46 25.91 41.11 29.04 42.88 29.89L43.18 30.1C43.23 30.12 43.28 30.14 43.34 30.18L43.53 30.27C43.62 30.31 43.7 30.35 43.73 30.35C43.85 30.41 43.95 30.47 44.04 30.52C44.07 30.52 44.16 30.6 44.18 30.6C44.18 31.27 44.18 31.48 43.95 31.95C43.79 32.33 42.46 32.89 41.64 32.81C39.62 32.6 37.79 31.99 35.53 30.81L35.1 30.62C32.12 29.27 30.52 28.75 28.27 28.62L27.97 28.6C24.62 28.49 22.13 29.29 20.48 31.02C19.2 32.39 18.59 34.23 18.7 36.27L18.74 36.54C19.25 41 23.37 44.54 28.72 45.12L29.21 45.12C29.74 45.81 30.28 46.35 30.81 46.74C31.67 47.47 33.88 48.31 34.95 48.31C35.41 48.31 35.78 48.14 36.12 47.83C36.34 47.56 36.5 47.14 36.38 46.79L36.33 46.58C36.22 46.1 36 45.62 35.74 45.2L35.62 45.04L36.11 45.04C40.15 44.77 43.22 43.18 45.4 40.68C46.87 39 47.8 37.06 48.13 35.58C48.29 35.12 48.39 34.58 48.48 33.97L48.51 33.7C48.59 32.99 48.61 32.33 48.62 31.41L48.62 31L48.82 31C48.87 30.98 49.66 30.58 49.98 30.43C50.31 30.25 50.62 30.04 50.87 29.85C51.72 29.25 52.35 28.22 52.8 26.93L52.86 26.77C53.07 26.12 53.23 25.43 53.27 25.08L53.3 24.97C53.37 24.66 53.29 24.37 53.12 24.14L53.04 24.04C53 23.99 52.97 23.96 52.9 23.89L52.77 23.79ZM22.23 32.43C23.38 31.2 25.33 30.64 28.15 30.75C30.16 30.85 31.73 31.33 34.47 32.58L34.85 32.75C35.22 32.91 35.34 32.97 35.52 33.06C38.06 34.21 39.78 34.75 41.8 34.83C43.48 34.98 45.72 34.02 46.25 32.72L46.35 32.49C46.37 32.41 46.4 32.33 46.43 32.25L46.35 32.49C46.34 32.83 46.38 33.12 46.36 33.48C46.31 34.06 46.23 34.58 46.12 35C45.77 36.25 45.03 37.79 43.82 39.18C41.99 41.31 39.45 42.66 36.07 42.89L33.77 42.89C33.34 42.89 32.93 43.12 32.74 43.5C32.62 43.73 32.61 43.97 32.66 44.2C32.71 44.33 32.75 44.43 32.85 44.64L33 44.81C33.04 44.85 33.12 44.91 33.22 45C33.38 45.16 33.57 45.35 33.73 45.54L33.84 45.68C33.31 45.49 32.72 45.25 32.45 45.04L32.28 44.91C31.68 44.45 31.34 43.95 31.21 43.74C31.1 43.29 30.66 43.02 30.15 43.02L29.11 43.02L28.82 42.99C24.54 42.46 21.3 39.6 21.09 36.12L27.12 36.08C27.74 36.08 28.2 35.64 28.2 35.02L28.2 34.89C28.12 34.35 27.62 33.83 27.12 33.83L21.37 33.83L21.42 33.71C21.63 33.16 21.89 32.75 22.23 32.43ZM31.21 33.83L30.04 33.83C29.41 33.83 28.96 34.29 28.96 34.91C28.96 35.52 29.41 35.98 30.04 35.98L31.21 35.98C31.83 35.98 32.29 35.52 32.29 34.91C32.29 34.29 31.75 33.83 31.21 33.83ZM42.88 26.95C43.62 27.18 44.37 27.35 44.96 27.37L45.14 27.37C45.23 27.43 45.37 27.56 45.4 27.6C45.49 27.68 45.55 27.75 45.61 27.83C45.96 28.18 46.08 28.27 46.37 28.27C46.5 28.27 46.58 28.27 46.67 28.25C46.87 28.22 47.04 28.14 47.17 28.02L47.3 27.93C47.42 27.85 47.57 27.73 47.71 27.6L47.85 27.47L48.03 27.47C48.79 27.43 49.5 27.31 50.18 27.12L50.33 27.08C50.15 27.35 49.97 27.64 49.8 27.83L49.66 27.96L49.55 28.06C49.12 28.41 48.76 28.58 47.92 28.91L47.74 29C47 29.35 46.65 29.56 46.53 29.85C46.27 29.27 45.62 28.85 44.37 28.24L44.07 28.04C43.67 27.85 43.32 27.52 42.99 27.1L42.88 26.95Z" fill="#FFFFFF" fill-opacity="1.000000" fill-rule="evenodd"/>
	</g>
</svg>
