<svg width="72.000000" height="72.000000" viewBox="0 0 72 72" fill="none" xmlns="http://www.w3.org/2000/svg" xmlns:xlink="http://www.w3.org/1999/xlink">
	<desc>
			Created with Pixso.
	</desc>
	<defs>
		<clipPath id="clip117_235">
			<rect id="1#软件开发生产线-CodeArts" width="72.000000" height="72.000000" fill="white" fill-opacity="0"/>
		</clipPath>
	</defs>
	<g clip-path="url(#clip117_235)">
		<path id="矩形备份-19" d="M16 0L56 0C64.8 0 72 7.2 72 16L72 56C72 64.79 64.8 72 56 72L16 72C7.19 72 0 64.79 0 56L0 16C0 7.2 7.19 0 16 0Z" fill="#1476FF" fill-opacity="1.000000" fill-rule="evenodd"/>
		<path id="形状结合" d="M35.5 17C41.18 17 46.32 20.62 48.18 26.1C48.4 26.77 48.07 27.31 47.52 27.54C46.86 27.75 46.32 27.43 46.1 26.87C44.46 22.27 40.31 19.2 35.5 19.2C30.69 19.2 26.43 22.27 24.9 26.87C24.79 27.31 24.46 27.64 24.03 27.64C20.42 27.98 17.36 30.16 15.61 33.14C15.06 37.41 16.05 40.93 18.23 43.12C20.09 44.87 22.82 45.75 25.12 45.2C26.21 44.98 28.07 43.43 30.15 41.68C35.72 37.08 44.14 30.16 53.43 33.89C59.99 36.52 60.1 44.1 59.99 44.21C59.99 44.43 59.88 44.75 59.66 44.98C59.22 45.41 58.57 45.41 58.13 44.98C56.49 43.22 54.74 42.46 53.1 42.56C50.59 42.79 48.95 45.2 48.95 45.2L48.08 46.52L47.21 45.31C46.34 43.99 45.24 43.33 43.93 43.12C40.87 42.68 37.48 45.31 36.39 46.18C35.52 46.85 33.88 48.27 33.88 48.27C30.25 50.89 27.19 52 24.02 52C17.79 52 12 45.64 12 38.93C12 32.24 16.81 26.54 23.04 25.54C25.12 20.39 30.03 17 35.5 17ZM54 46C55.66 46 57 47.33 57 49C57 50.66 55.66 52 54 52C52.34 52 51 50.66 51 49C51 47.33 52.34 46 54 46Z" fill="#FFFFFF" fill-opacity="1.000000" fill-rule="evenodd"/>
	</g>
</svg>
