<svg width="72.000000" height="72.000000" viewBox="0 0 72 72" fill="none" xmlns="http://www.w3.org/2000/svg" xmlns:xlink="http://www.w3.org/1999/xlink">
	<desc>
			Created with Pixso.
	</desc>
	<defs>
		<clipPath id="clip117_218">
			<rect id="10#Astro大屏应用-Astro-Canvas" width="72.000000" height="72.000000" fill="white" fill-opacity="0"/>
		</clipPath>
	</defs>
	<g clip-path="url(#clip117_218)">
		<path id="矩形备份-19" d="M16 0L56 0C64.8 0 72 7.2 72 16L72 56C72 64.79 64.8 72 56 72L16 72C7.19 72 0 64.79 0 56L0 16C0 7.2 7.19 0 16 0Z" fill="#1476FF" fill-opacity="1.000000" fill-rule="evenodd"/>
		<path id="形状结合" d="M58.51 14.83C59.46 15.85 59.58 17.54 58.98 19.7C59.27 20.14 59.44 20.67 59.44 21.24C59.44 22.6 58.48 23.73 57.2 23.99C56.92 24.51 56.62 25.05 56.3 25.6L55.92 26.22L55.14 27.45C55.03 27.61 54.92 27.78 54.81 27.94C57.59 35.73 54.06 45.14 45.94 50.21C40.34 53.71 33.85 54.34 28.46 52.46C28.23 52.59 28 52.72 27.77 52.85L26.82 53.37L25.58 53.99C20.72 56.34 16.91 56.91 15.28 55.16C13.58 53.33 14.55 49.34 17.5 44.39L17.88 43.77L18.5 42.8C15.62 34.98 19.15 25.5 27.32 20.39C32.81 16.96 39.16 16.28 44.49 18.03C44.98 17.74 45.46 17.46 45.93 17.2L46.99 16.62L48.23 16C53.07 13.65 56.88 13.08 58.51 14.83ZM19.95 45.77L19.81 46.01C18.59 48.09 17.78 49.93 17.44 51.37C17.16 52.54 17.23 53.13 17.34 53.24C17.43 53.33 17.89 53.44 18.88 53.32C20.13 53.17 21.75 52.65 23.61 51.81L24.32 51.48L25.31 50.98C23.17 49.71 21.33 47.96 19.95 45.77ZM28.8 22.78C20.84 27.75 18.03 37.39 22.31 44.24C26.59 51.09 36.49 52.79 44.45 47.82C52.41 42.85 55.22 33.21 50.94 26.36C46.65 19.51 36.76 17.81 28.8 22.78ZM38.15 25.06C41.27 25.06 43.63 27.48 44.41 30.99L40.54 31.94C40.18 30.04 39.18 28.94 38.15 28.94C36.08 28.94 33.33 32.03 32.75 36.11C32.22 39.86 33.66 42.23 35.17 42.23C36.36 42.23 37.77 41.21 38.87 39.57L42.72 40.89C40.91 44.01 38.07 46.1 35.17 46.1C30.81 46.1 27.95 41.39 28.77 35.58C29.6 29.77 33.8 25.06 38.15 25.06ZM56.46 16.75C56.37 16.66 55.91 16.55 54.92 16.67C53.67 16.82 52.05 17.34 50.19 18.18L49.48 18.51L48.24 19.13L47.66 19.44C49.92 20.73 51.87 22.55 53.32 24.86L53.38 24.96L53.53 24.73C53.88 24.16 54.21 23.6 54.5 23.06C54.07 22.57 53.82 21.92 53.82 21.22C53.82 19.74 54.96 18.53 56.41 18.42C56.63 17.39 56.56 16.86 56.46 16.75Z" fill="#FFFFFF" fill-opacity="1.000000" fill-rule="evenodd"/>
	</g>
</svg>
