<svg width="72.000000" height="72.000000" viewBox="0 0 72 72" fill="none" xmlns="http://www.w3.org/2000/svg" xmlns:xlink="http://www.w3.org/1999/xlink">
	<desc>
			Created with Pixso.
	</desc>
	<defs>
		<clipPath id="clip117_237">
			<rect id="11#Astro工作流-Astro-Flow" width="72.000000" height="72.000000" fill="white" fill-opacity="0"/>
		</clipPath>
	</defs>
	<g clip-path="url(#clip117_237)">
		<path id="矩形备份-19" d="M16 0L56 0C64.8 0 72 7.2 72 16L72 56C72 64.79 64.8 72 56 72L16 72C7.19 72 0 64.79 0 56L0 16C0 7.2 7.19 0 16 0Z" fill="#25C251" fill-opacity="1.000000" fill-rule="evenodd"/>
		<path id="形状结合" d="M58.98 19.7C59.57 17.54 59.46 15.85 58.51 14.83C56.87 13.08 53.07 13.65 48.21 16L46.97 16.62L45.91 17.2C45.44 17.46 44.96 17.74 44.47 18.03C39.14 16.28 32.79 16.96 27.3 20.39C19.13 25.49 15.61 34.98 18.48 42.8L17.86 43.77L17.48 44.39C14.54 49.34 13.56 53.33 15.26 55.16C16.9 56.91 20.7 56.34 25.56 53.99L26.8 53.37L27.75 52.85C27.98 52.72 28.21 52.59 28.44 52.46C33.85 54.34 40.34 53.71 45.94 50.21C54.06 45.14 57.59 35.74 54.81 27.94C54.92 27.78 55.03 27.61 55.14 27.45L55.92 26.22L56.3 25.6C56.63 25.05 56.93 24.52 57.2 23.99C58.48 23.73 59.44 22.59 59.44 21.24C59.44 20.67 59.27 20.14 58.98 19.7ZM50.18 18.18C52.04 17.34 53.66 16.82 54.91 16.67C55.9 16.55 56.36 16.66 56.45 16.75C56.55 16.86 56.62 17.39 56.4 18.43C54.95 18.55 53.81 19.76 53.81 21.23C53.81 21.93 54.07 22.58 54.49 23.07C54.2 23.61 53.87 24.16 53.52 24.74L53.38 24.97L53.32 24.87C51.88 22.56 49.93 20.75 47.67 19.45L48.25 19.14L49.49 18.52L50.18 18.18ZM22.31 44.24C18.03 37.39 20.84 27.75 28.8 22.78C36.76 17.81 46.65 19.51 50.94 26.36C55.22 33.21 52.41 42.85 44.45 47.82C36.49 52.8 26.59 51.1 22.31 44.24ZM45.07 24.67L44.48 28.02L37.2 28.02L36.22 33.56L42.77 33.56L42.18 36.88L35.63 36.88L34.17 45.26L30.4 45.26L34.03 24.67L45.07 24.67ZM19.95 45.77L19.81 46.01C18.59 48.09 17.78 49.93 17.44 51.37C17.16 52.54 17.23 53.13 17.34 53.24C17.43 53.33 17.89 53.44 18.88 53.32C20.13 53.17 21.75 52.65 23.61 51.81L24.32 51.48L25.31 50.98C23.17 49.71 21.33 47.96 19.95 45.77Z" fill="#FFFFFF" fill-opacity="1.000000" fill-rule="evenodd"/>
	</g>
</svg>
