<svg width="72.000000" height="72.000000" viewBox="0 0 72 72" fill="none" xmlns="http://www.w3.org/2000/svg" xmlns:xlink="http://www.w3.org/1999/xlink">
	<desc>
			Created with Pixso.
	</desc>
	<defs>
		<clipPath id="clip117_229">
			<rect id="12#CodeArts架构建模-CodeArts-Modeling" width="72.000000" height="72.000000" fill="white" fill-opacity="0"/>
		</clipPath>
	</defs>
	<g clip-path="url(#clip117_229)">
		<path id="矩形备份-19" d="M16 0L56 0C64.79 0 72 7.2 72 16L72 56C72 64.79 64.79 72 56 72L16 72C7.2 72 0 64.79 0 56L0 16C0 7.2 7.2 0 16 0Z" fill="#00ABED" fill-opacity="1.000000" fill-rule="evenodd"/>
		<path id="形状结合" d="M56.21 12C58.29 12 60 13.7 60 15.79L60 43.96C60 45.79 58.75 47.93 57.16 48.85L38.81 59.31C38.04 59.75 37.04 60 36 60C34.95 60 33.95 59.75 33.18 59.31L14.83 48.83C13.24 47.93 12 45.79 12 43.96L12 15.79C12 13.71 13.7 12 15.79 12L56.21 12ZM47.1 19.08C46.91 18.98 46.68 18.98 46.48 19.08L41.79 21.62L38.58 19.7C37.81 19.24 36.87 19.2 36.06 19.58C33.79 20.68 32 21.54 30.71 22.18L25.5 19.1C25.31 18.99 25.06 18.98 24.87 19.08L18.33 22.54C18.1 22.68 17.99 22.91 18 23.14L18 30.71C18 31.06 18.18 31.37 18.48 31.56L24.87 35.56C24.93 35.6 24.99 35.62 25.06 35.64L25.06 37.98C25.06 38.87 25.5 39.71 26.25 40.2C27.5 41 28.5 41.66 29.24 42.14L29.24 46.02C29.24 46.37 29.41 46.7 29.72 46.89L35.99 50.81C36.06 50.89 36.16 50.95 36.27 50.98C36.43 51.02 36.62 51 36.79 50.91L43.18 47.04C43.37 46.93 43.5 46.73 43.5 46.5L43.5 42.08C44.18 41.68 45 41.18 45.97 40.58L46.12 40.49C46.79 40 47.22 39.25 47.25 38.41L47.35 35.52L53.68 31.7C53.87 31.58 54 31.37 54 31.14L54 23.43C54 23.39 54 23.35 53.99 23.33C53.97 23.2 53.89 23.08 53.79 22.98L47.1 19.08ZM42.22 39.91L42.22 41.81C42.22 41.91 42.22 42 42.22 42.08L42.22 46.14L37.1 49.24L37.12 42.91L42.22 39.91ZM30.14 43.83C30.14 43.49 30.43 43.37 30.77 43.58L34.62 45.95C34.97 46.16 35.25 46.62 35.25 46.98C35.25 47.33 34.97 47.43 34.62 47.23L30.77 44.87C30.43 44.66 30.14 44.2 30.14 43.83ZM30.14 41.29C30.14 40.93 30.43 40.83 30.77 41.04L34.62 43.39C34.97 43.62 35.25 44.08 35.25 44.43C35.25 44.77 34.97 44.89 34.62 44.68L30.77 42.31C30.43 42.1 30.14 41.64 30.14 41.29ZM36.27 35.72L41.58 38.79L36.73 41.62L31.21 38.46L36.27 35.72ZM36.64 20.75C37.04 20.54 37.52 20.56 37.91 20.81C38.95 21.43 39.79 21.93 40.47 22.33L40.08 22.54C39.85 22.66 39.74 22.91 39.75 23.14L39.75 30.75C39.75 31.1 39.93 31.43 40.23 31.62L46.06 35.18L45.93 38.37C45.91 38.81 45.68 39.24 45.29 39.48C44.6 39.89 44 40.25 43.49 40.56L43.49 38.79C43.49 38.75 43.49 38.71 43.48 38.68C43.46 38.54 43.39 38.43 43.29 38.33L36.6 34.43C36.41 34.33 36.16 34.33 35.97 34.43L29.56 37.89C29.33 38.02 29.22 38.25 29.23 38.49L29.23 40.58C28.64 40.21 27.89 39.71 26.96 39.1C26.58 38.85 26.35 38.43 26.35 37.97L26.33 35.06L31.91 31.7C32.1 31.58 32.23 31.37 32.23 31.14L32.23 23.43L32.22 23.31C32.2 23.18 32.12 23.06 32.02 22.97C33.2 22.41 34.74 21.66 36.64 20.75ZM52.72 24.56L52.72 30.79L47.6 33.87L47.62 27.54L52.72 24.56ZM30.97 24.56L30.97 30.79L25.85 33.87L25.87 27.54L30.97 24.56ZM46.77 20.37L52.08 23.43L47.23 26.27L41.71 23.1L46.77 20.37ZM25.16 20.37L30.35 23.43L25.48 26.29L19.97 23.12L25.16 20.37Z" fill="#FFFFFF" fill-opacity="1.000000" fill-rule="evenodd"/>
	</g>
</svg>
