<svg width="72.000000" height="72.000000" viewBox="0 0 72 72" fill="none" xmlns="http://www.w3.org/2000/svg" xmlns:xlink="http://www.w3.org/1999/xlink">
	<desc>
			Created with Pixso.
	</desc>
	<defs>
		<clipPath id="clip117_316">
			<rect id="13#CodeArts缺陷管理-CodeArts-Defect" width="72.000000" height="72.000000" fill="white" fill-opacity="0"/>
		</clipPath>
	</defs>
	<g clip-path="url(#clip117_316)">
		<path id="矩形-1" d="M16 0L56 0C64.83 0 72 7.16 72 16L72 56C72 64.83 64.83 72 56 72L16 72C7.16 72 0 64.83 0 56L0 16C0 7.16 7.16 0 16 0Z" fill="#1476FF" fill-opacity="1.000000" fill-rule="nonzero"/>
		<path id="形状结合" d="M55.64 21.25C53.31 20.45 48.73 18.97 46.41 17.81C41.77 15.54 40.02 13.98 38.31 12.68C37.7 12.23 36.87 12 36.02 12C35.18 12 34.29 12.23 33.68 12.68C31.97 13.99 30.22 15.54 25.58 17.83C23.27 18.97 18.68 20.47 16.35 21.25C14.93 21.73 14 22.95 14 24.39C14 24.49 14 24.58 14 24.68C14.41 29.54 15.62 39.27 18.64 45.24C22.1 52.08 30.81 57.46 34.25 59.52C34.81 59.83 35.39 60 36 60C36.6 60 37.18 59.83 37.73 59.5C41.16 57.45 49.87 52.08 53.35 45.23C56.37 39.27 57.58 29.54 57.98 24.66C58 24.58 58 24.49 58 24.39C58 22.95 57.06 21.73 55.64 21.25ZM32.16 28.52C32.16 26.31 34.04 24.54 36.35 24.54C38.58 24.54 40.43 26.18 40.54 28.31L40.56 28.52L40.56 29.21C41.74 29.62 42.68 30.54 43.12 31.73C44.45 31.2 45.39 29.97 45.39 28.66C45.39 28.16 45.79 27.77 46.27 27.77C46.77 27.77 47.16 28.16 47.16 28.66C47.16 30.85 45.58 32.81 43.39 33.52L43.39 35.66L45.85 35.66C46.33 35.66 46.74 36.06 46.74 36.54C46.74 36.98 46.43 37.33 45.98 37.43L45.85 37.43L43.39 37.43L43.39 39.33C43.39 39.64 43.37 39.93 43.33 40.22C45.56 40.89 47.18 42.89 47.18 45.1C47.18 45.58 46.77 45.99 46.29 45.99C45.79 45.99 45.39 45.58 45.39 45.1C45.39 43.72 44.35 42.43 42.89 41.95C41.87 44.54 39.33 46.37 36.37 46.37C33.41 46.37 30.89 44.54 29.85 41.97C28.43 42.47 27.41 43.74 27.41 45.1C27.41 45.58 27.02 45.99 26.52 45.99C26.04 45.99 25.64 45.58 25.64 45.1C25.64 42.91 27.22 40.95 29.39 40.25C29.37 40.08 29.35 39.93 29.35 39.75L29.33 39.52L29.33 39.35L29.33 37.45L26.87 37.45C26.39 37.45 25.99 37.04 25.99 36.56C25.99 36.12 26.29 35.77 26.75 35.68L26.87 35.66L29.33 35.66L29.33 33.5C27.18 32.77 25.64 30.81 25.64 28.66C25.64 28.16 26.04 27.77 26.52 27.77C27.02 27.77 27.41 28.16 27.41 28.66C27.41 29.93 28.33 31.14 29.62 31.7C30.06 30.54 30.99 29.62 32.16 29.21L32.16 28.52ZM33.87 28.97L38.85 28.97L38.85 28.52C38.85 27.27 37.75 26.25 36.37 26.25C35.04 26.25 33.97 27.18 33.87 28.35L33.87 28.52L33.87 28.97ZM31.1 36.56L31.1 33.2L31.1 33.08L31.12 32.93C31.25 31.7 32.29 30.75 33.56 30.75L39.14 30.75C40.5 30.75 41.6 31.85 41.6 33.21L41.6 39.35L41.6 39.5L41.58 39.72C41.39 42.45 39.12 44.6 36.35 44.6C33.46 44.6 31.1 42.25 31.1 39.35L31.1 36.56ZM37.18 33.66C37.12 33.25 36.77 32.93 36.35 32.93C35.89 32.93 35.52 33.29 35.52 33.75L35.52 40.46C35.58 40.87 35.93 41.29 36.35 41.29C36.81 41.29 37.18 40.91 37.18 40.46L37.18 33.66Z" fill="#FFFFFF" fill-opacity="1.000000" fill-rule="evenodd"/>
	</g>
</svg>
