<svg width="72.000000" height="72.000000" viewBox="0 0 72 72" fill="none" xmlns="http://www.w3.org/2000/svg" xmlns:xlink="http://www.w3.org/1999/xlink">
	<desc>
			Created with Pixso.
	</desc>
	<defs>
		<clipPath id="clip117_315">
			<rect id="14#CodeArts效能洞察-CodeArts-Board" width="72.000000" height="72.000000" fill="white" fill-opacity="0"/>
		</clipPath>
	</defs>
	<g clip-path="url(#clip117_315)">
		<path id="矩形-1" d="M16 0L56 0C64.83 0 72 7.16 72 16L72 56C72 64.83 64.83 72 56 72L16 72C7.16 72 0 64.83 0 56L0 16C0 7.16 7.16 0 16 0Z" fill="#00C4BE" fill-opacity="1.000000" fill-rule="nonzero"/>
		<path id="形状结合" d="M56.37 12.18L16 12.18C13.93 12.18 12.18 13.93 12.18 16L12.18 44.15C12.18 46 13.38 48.08 15.02 49.06L33.35 59.53C34.11 59.97 35.1 60.18 36.18 60.18C37.28 60.18 38.26 59.96 39.03 59.53L57.36 49.06C59 48.18 60.2 46.01 60.2 44.15L60.2 16C60.18 13.93 58.43 12.18 56.37 12.18ZM48.58 21.68C49.87 21.68 50.93 22.66 50.93 23.9L50.93 41.73C50.93 42.96 49.87 43.93 48.58 43.93L37.22 43.93L37.22 47.1L45.55 47.1C45.8 47.1 46.02 47.22 46.16 47.41C46.24 47.5 46.29 47.62 46.3 47.75C46.3 47.78 46.3 47.88 46.29 47.91C46.26 48.27 45.97 48.56 45.61 48.59L27.43 48.59C27.04 48.59 26.72 48.28 26.68 47.89C26.68 47.74 26.73 47.52 26.82 47.41C26.93 47.24 27.14 47.12 27.36 47.1L35.71 47.1L35.71 43.93L24.04 43.93C22.79 43.93 21.75 43.02 21.68 41.84L21.68 23.89C21.68 22.66 22.75 21.68 24.04 21.68L48.58 21.68ZM43.66 29.62C43.3 29.18 42.63 29.14 42.21 29.53L37.02 34.12L34.1 31.42C33.71 31.12 33.04 31.07 32.68 31.42L29.1 34.76C28.74 35.18 28.68 35.83 29.05 36.23L29.18 36.36L29.3 36.43C29.71 36.64 30.18 36.59 30.51 36.28L33.39 33.6L36.3 36.28C36.71 36.59 37.32 36.63 37.68 36.3L43.58 31.09C43.93 30.7 44.02 30.02 43.66 29.62Z" fill="#FFFFFF" fill-opacity="1.000000" fill-rule="evenodd"/>
	</g>
</svg>
