<svg width="72.000000" height="72.000000" viewBox="0 0 72 72" fill="none" xmlns="http://www.w3.org/2000/svg" xmlns:xlink="http://www.w3.org/1999/xlink">
	<desc>
			Created with Pixso.
	</desc>
	<defs>
		<clipPath id="clip117_317">
			<rect id="15#CodeArts发布管理-CodeArts-Release" width="72.000000" height="72.000000" fill="white" fill-opacity="0"/>
		</clipPath>
	</defs>
	<g clip-path="url(#clip117_317)">
		<path id="矩形-1" d="M16 0L56 0C64.83 0 72 7.16 72 16L72 56C72 64.83 64.83 72 56 72L16 72C7.16 72 0 64.83 0 56L0 16C0 7.16 7.16 0 16 0Z" fill="#F85835" fill-opacity="1.000000" fill-rule="nonzero"/>
		<path id="形状结合" d="M15.79 12C13.7 12 12 13.7 12 15.79L12 43.96C12 45.79 13.24 47.93 14.83 48.83L33.18 59.31C33.95 59.75 34.95 60 36 60C37.04 60 38.04 59.75 38.81 59.31L57.16 48.83C58.75 47.93 60 45.79 60 43.96L60 15.79C60 13.71 58.29 12 56.21 12L15.79 12ZM51.47 17.04C51.64 17.22 51.66 17.64 51.58 18.27L51.52 18.64L51.43 19.04L51.33 19.49L51.2 19.95L51.04 20.45L50.87 20.99L50.68 21.54L50.48 22.12L50.25 22.74L49.93 23.52L49.58 24.33L49.43 24.66L49.12 25.33L48.97 25.66L48.64 26.35L48.1 27.39L47.74 28.1L47.35 28.79C47.14 29.14 46.95 29.5 46.74 29.85L46.31 30.54C46.02 31 45.74 31.46 45.43 31.91L44.97 32.58C44.27 33.56 43.52 34.52 42.75 35.37L43.12 37.04C43.27 37.68 43.14 38.35 42.75 38.87L36.58 47.52C36.21 48.04 35.5 48.16 34.99 47.79C34.79 47.66 34.64 47.46 34.56 47.23L32.66 41.5C31.16 41.43 29.89 40.75 28.81 39.66C27.72 38.56 27.04 37.31 26.97 35.81L21.24 33.89C21 33.81 20.81 33.68 20.66 33.48C20.33 33 20.41 32.35 20.83 31.97L20.93 31.89L29.58 25.71C30.06 25.37 30.64 25.22 31.23 25.31L31.41 25.35L33.08 25.73C34.14 24.77 35.31 23.87 36.54 23.04L37.23 22.6L37.91 22.16L38.27 21.95L38.97 21.52L39.31 21.33L40.02 20.93L40.72 20.56L41.41 20.2L41.77 20.02L42.46 19.68L43.14 19.35L43.81 19.06L44.47 18.77L45.1 18.5L45.74 18.25L46.35 18.02L46.93 17.81L47.21 17.7L47.75 17.52L48.27 17.37L48.77 17.23L49.33 17.08L49.87 17C50.71 16.83 51.27 16.85 51.47 17.04ZM49.49 18.83C49.5 19.1 49.49 19.37 49.45 19.66C49.41 19.97 49.35 20.24 49.27 20.5L49.1 21L48.89 21.56L48.68 22.14L48.37 22.91L48.04 23.68L47.62 24.64L47.14 25.64L46.64 26.64L46.27 27.31L45.87 28L45.6 28.5L45.29 29L44.89 29.68L44.6 30.12C44.41 30.41 44.23 30.7 44.04 30.98L43.58 31.62L43.25 32.1C42.68 32.87 42.08 33.6 41.5 34.25C41.12 34.66 40.98 35.24 41.1 35.77L41.49 37.43L35.85 45.66L34.29 40.97C34.1 40.52 33.89 40.27 33.64 40.1C33.37 39.93 33.08 39.83 32.75 39.81C31.77 39.77 30.89 39.33 30.04 38.48C29.18 37.62 28.74 36.74 28.7 35.75C28.64 35.27 28.5 34.98 28.31 34.75C28.1 34.5 27.85 34.33 27.54 34.22L22.83 32.64L30.54 27.14L32.75 27.39C33.41 27.49 33.89 27.33 34.25 27C35.22 26.14 36.33 25.29 37.54 24.47L38.2 24.02L38.85 23.6L39.85 23L40.87 22.43L41.54 22.06L42.22 21.72L43.22 21.22L43.87 20.91L44.52 20.62L45.16 20.33L45.77 20.08L46.37 19.83L46.96 19.62L47.52 19.41L48.31 19.16L48.79 19L49.49 18.83ZM40.81 23.91C41.85 22.85 43.54 22.85 44.6 23.91C45.64 24.96 45.64 26.64 44.6 27.7C43.54 28.75 41.85 28.75 40.81 27.7C39.75 26.66 39.75 24.96 40.81 23.91ZM41.87 24.99C42.33 24.54 43.06 24.54 43.5 24.99C43.96 25.43 43.96 26.16 43.5 26.62C43.06 27.06 42.33 27.06 41.87 26.62C41.43 26.18 41.43 25.43 41.87 24.99ZM37.31 30.37C37.58 30.37 37.83 30.47 38.02 30.66C38.22 30.85 38.31 31.1 38.31 31.37C38.31 31.62 38.22 31.87 38.02 32.08L32.6 37.5C32.41 37.68 32.14 37.79 31.89 37.79C31.62 37.79 31.37 37.68 31.18 37.5C30.99 37.31 30.89 37.04 30.89 36.79C30.89 36.52 30.99 36.27 31.18 36.08L36.6 30.66C36.81 30.47 37.06 30.37 37.31 30.37ZM27.58 44.18C29.14 42.62 28.93 41.37 28.04 40.49C27.14 39.6 25.91 39.39 24.35 40.95C22.79 42.5 21.98 45.74 22.37 46.14C22.77 46.54 26 45.74 27.58 44.18Z" fill="#FFFFFF" fill-opacity="1.000000" fill-rule="evenodd"/>
	</g>
</svg>
