<svg width="72.000000" height="72.000000" viewBox="0 0 72 72" fill="none" xmlns="http://www.w3.org/2000/svg" xmlns:xlink="http://www.w3.org/1999/xlink">
	<desc>
			Created with Pixso.
	</desc>
	<defs>
		<clipPath id="clip117_318">
			<rect id="16#CodeArts盘古助手-CodeArts-Snap" width="72.000000" height="72.000000" fill="white" fill-opacity="0"/>
		</clipPath>
	</defs>
	<g clip-path="url(#clip117_318)">
		<path id="矩形-1" d="M16 0L56 0C64.83 0 72 7.16 72 16L72 56C72 64.83 64.83 72 56 72L16 72C7.16 72 0 64.83 0 56L0 16C0 7.16 7.16 0 16 0Z" fill="#25C251" fill-opacity="1.000000" fill-rule="nonzero"/>
		<path id="形状结合" d="M50.27 25.37C51.65 26.89 51.52 29.24 49.98 30.6L45.94 34.24C46.56 34.45 47.12 34.81 47.6 35.33C48.66 36.52 48.88 38.18 48.27 39.54C49.06 39.72 49.79 40.12 50.35 40.75C51.38 41.89 51.62 43.48 51.1 44.81C51.89 44.97 52.64 45.37 53.23 46.02C54.68 47.64 54.56 50.12 52.94 51.58L52.06 52.37L51.37 53L50.91 53.39L50.75 53.54L42.12 61.18C41.58 61.68 40.87 61.95 40.12 61.95L28.1 61.95C27.25 61.95 26.44 61.58 25.87 60.93L19.71 53.98C17.85 51.91 18.08 48.62 20.17 46.75L21.31 45.73C21.52 45.54 21.58 45.29 21.52 45.04L18.23 33.31C17.69 31.39 18.73 29.37 20.6 28.68C22.21 28.08 24.04 28.64 25.04 30.02L30.71 37.89C32.79 36.02 34.58 34.41 36.08 33.06C36.98 32.25 38.21 31.14 39.68 29.81C40.83 28.77 42.1 27.64 43.33 26.52C43.77 26.14 44.16 25.77 44.52 25.46C44.79 25.22 44.87 25.14 44.92 25.1C46.46 23.75 48.89 23.85 50.27 25.37ZM46.31 26.54C46.23 26.62 46.23 26.62 45.87 26.96C45.5 27.27 45.1 27.64 44.67 28.02C43.44 29.14 42.21 30.25 41.06 31.29C39.6 32.62 38.33 33.75 37.41 34.56C35.85 35.97 33.96 37.66 31.77 39.64C31.83 39.83 31.91 40.06 32 40.29C32.56 42.04 32.71 44.02 32.23 46.1C32.12 46.64 31.58 46.99 31.04 46.85C30.5 46.74 30.15 46.2 30.29 45.66C30.67 43.95 30.54 42.33 30.08 40.89C29.94 40.47 29.81 40.16 29.73 39.98L23.4 31.2C22.96 30.58 22.17 30.31 21.44 30.5L21.29 30.56C20.38 30.89 19.89 31.85 20.15 32.77L23.43 44.5C23.71 45.49 23.39 46.52 22.64 47.21L21.5 48.24C20.21 49.39 20.08 51.39 21.19 52.64L27.35 59.6C27.54 59.81 27.81 59.93 28.1 59.93L40.1 59.93C40.35 59.93 40.58 59.85 40.77 59.68L47 54.2C46.39 53.99 45.83 53.62 45.37 53.12C44.58 52.25 44.27 51.1 44.39 50.02C43.33 50.02 42.27 49.58 41.5 48.74C40.73 47.87 40.39 46.75 40.52 45.68C39.42 45.68 38.35 45.25 37.56 44.39C36.1 42.77 36.23 40.29 37.85 38.85L42.04 35.06L42.16 34.95L48.63 29.12C49.35 28.49 49.41 27.41 48.77 26.72C48.14 26 47.02 25.93 46.31 26.54ZM49.04 47.23L47 49.06C46.21 49.77 46.15 50.99 46.87 51.77C47.54 52.52 48.71 52.62 49.48 51.99L50.02 51.5L51.6 50.08C52.38 49.37 52.44 48.16 51.73 47.35C51.04 46.58 49.81 46.52 49.04 47.23ZM46.16 41.96L43.14 44.66C42.35 45.37 42.27 46.6 43 47.39C43.71 48.18 44.92 48.25 45.71 47.54L48.73 44.83C49.52 44.12 49.58 42.91 48.85 42.1C48.15 41.31 46.96 41.24 46.16 41.96ZM43.48 36.46L41.52 38.22L39.19 40.31C38.4 41.02 38.35 42.24 39.06 43.04C39.77 43.81 40.98 43.87 41.77 43.16L45.96 39.37C46.75 38.68 46.81 37.46 46.1 36.66C45.41 35.91 44.27 35.83 43.48 36.46ZM43.37 20.71C44.37 21.6 44.44 23.12 43.56 24.1L41.35 26.54C40.46 27.54 38.94 27.62 37.96 26.73C36.96 25.83 36.88 24.31 37.77 23.33L39.98 20.89C40.87 19.89 42.38 19.81 43.37 20.71ZM25.98 20.79L28.52 23.06C29.48 23.93 29.56 25.41 28.68 26.39C27.83 27.35 26.29 27.49 25.33 26.62L22.81 24.37C21.83 23.5 21.75 22 22.62 21.04C23.5 20.08 25.02 19.93 25.98 20.79ZM33.16 15.43C34.48 15.43 35.56 16.5 35.56 17.83L35.56 24.6C35.56 25.93 34.5 27 33.16 27C31.85 27 30.77 25.93 30.77 24.6L30.77 17.83C30.77 16.52 31.83 15.43 33.16 15.43ZM41.08 21.89L38.88 24.33C38.54 24.7 38.58 25.27 38.96 25.6C39.33 25.93 39.9 25.91 40.23 25.54L42.43 23.1C42.77 22.73 42.75 22.14 42.37 21.81C41.98 21.49 41.42 21.52 41.08 21.89ZM24.37 21.71C24.25 21.71 24.14 21.74 24.04 21.79C23.98 21.81 23.92 21.85 23.87 21.89L23.73 22.04C23.65 22.12 23.6 22.23 23.56 22.33C23.52 22.43 23.52 22.54 23.52 22.66C23.52 22.77 23.56 22.87 23.6 22.98C23.64 23.08 23.71 23.16 23.81 23.25L26.33 25.5C26.41 25.58 26.52 25.64 26.62 25.68C26.73 25.72 26.83 25.73 26.93 25.72C27.06 25.72 27.16 25.68 27.27 25.64C27.35 25.6 27.44 25.52 27.52 25.45C27.6 25.37 27.71 25.21 27.75 25.1C27.79 25 27.79 24.89 27.79 24.77C27.79 24.64 27.77 24.54 27.71 24.45C27.66 24.35 27.6 24.25 27.5 24.18L24.98 21.91C24.89 21.83 24.79 21.77 24.68 21.75C24.6 21.71 24.48 21.7 24.37 21.71ZM33.16 16.93C32.66 16.93 32.27 17.33 32.27 17.83L32.27 24.6C32.27 25.1 32.66 25.5 33.16 25.5C33.66 25.5 34.06 25.1 34.06 24.6L34.06 17.83C34.06 17.33 33.65 16.93 33.16 16.93ZM47 16.64C47.98 17.52 48.1 19.04 47.23 20.02C46.37 20.98 44.83 21.12 43.87 20.25C42.9 19.39 42.77 17.83 43.64 16.87C44.52 15.91 46.04 15.77 47 16.64ZM22.43 16.64C23.4 17.52 23.54 19.04 22.66 20.02C21.81 20.98 20.27 21.12 19.31 20.25C18.35 19.39 18.2 17.83 19.08 16.87C19.93 15.91 21.48 15.77 22.43 16.64ZM45.52 17.54L45.39 17.54C45.27 17.54 45.17 17.56 45.08 17.6C44.98 17.66 44.88 17.73 44.81 17.81C44.73 17.91 44.62 18.06 44.58 18.16C44.54 18.27 44.54 18.37 44.54 18.49C44.54 18.62 44.58 18.73 44.62 18.83C44.66 18.91 44.73 19 44.81 19.08C44.89 19.16 45.06 19.27 45.15 19.31C45.25 19.35 45.37 19.35 45.48 19.35C45.6 19.35 45.71 19.31 45.79 19.27C45.89 19.23 46 19.16 46.08 19.08C46.15 18.99 46.27 18.83 46.29 18.72C46.33 18.62 46.35 18.52 46.35 18.39C46.33 18.29 46.31 18.18 46.27 18.08C46.21 17.98 46.15 17.89 46.06 17.81C45.98 17.74 45.83 17.62 45.73 17.58C45.62 17.54 45.52 17.52 45.39 17.54L45.52 17.54ZM20.83 17.54C20.71 17.54 20.6 17.56 20.5 17.62C20.43 17.64 20.37 17.68 20.33 17.74L20.18 17.87C20.1 17.97 20.04 18.06 20.02 18.16C19.98 18.27 19.96 18.37 19.96 18.49C19.98 18.6 20 18.72 20.04 18.81C20.1 18.91 20.16 19 20.25 19.08C20.33 19.16 20.5 19.27 20.6 19.31C20.71 19.35 20.81 19.35 20.92 19.35C21.04 19.35 21.14 19.31 21.25 19.27C21.35 19.23 21.42 19.16 21.5 19.08C21.58 19 21.69 18.83 21.73 18.74C21.77 18.62 21.79 18.52 21.77 18.39C21.77 18.29 21.75 18.18 21.69 18.08C21.65 17.98 21.58 17.89 21.5 17.81C21.4 17.73 21.25 17.62 21.14 17.58C21.04 17.54 20.93 17.52 20.83 17.54ZM33.17 10C34.48 10 35.56 11.06 35.56 12.37C35.56 13.68 34.48 14.75 33.17 14.75C31.87 14.75 30.75 13.68 30.75 12.37C30.75 11.06 31.85 10 33.17 10ZM33.17 11.5C32.68 11.5 32.25 11.89 32.25 12.37C32.25 12.87 32.64 13.25 33.13 13.25C33.62 13.25 34.06 12.87 34.06 12.37C34.06 11.89 33.66 11.5 33.17 11.5Z" fill="#FFFFFF" fill-opacity="1.000000" fill-rule="nonzero"/>
	</g>
</svg>
