<svg width="72.000000" height="72.000000" viewBox="0 0 72 72" fill="none" xmlns="http://www.w3.org/2000/svg" xmlns:xlink="http://www.w3.org/1999/xlink">
	<desc>
			Created with Pixso.
	</desc>
	<defs>
		<clipPath id="clip117_224">
			<rect id="17#CodeArts代码检查-CodeArts-Check" width="72.000000" height="72.000000" fill="white" fill-opacity="0"/>
		</clipPath>
	</defs>
	<g clip-path="url(#clip117_224)">
		<path id="矩形备份-19" d="M16 0L56 0C64.8 0 72 7.2 72 16L72 56C72 64.79 64.8 72 56 72L16 72C7.19 72 0 64.79 0 56L0 16C0 7.2 7.19 0 16 0Z" fill="#FF9A2E" fill-opacity="1.000000" fill-rule="evenodd"/>
		<path id="形状结合" d="M56.21 12C58.3 12 60 13.7 60 15.79L60 43.96C60 45.79 58.76 47.93 57.16 48.85L38.82 59.31C38.05 59.75 37.05 60 36 60C34.95 60 33.95 59.75 33.17 59.31L14.83 48.83C13.24 47.93 12 45.79 12 43.96L12 15.79C12 13.71 13.7 12 15.79 12L56.21 12ZM36 18C27.15 18 20 25.16 20 34C20 42.83 27.15 50 36 50C44.84 50 52 42.83 52 34C52 25.16 44.84 18 36 18ZM31.52 42.04C32.57 42.64 33.75 43.02 35 43.16L35 47.97C32.72 47.81 30.59 47.1 28.74 45.98L31.52 42.04ZM49.96 35C49.47 41.93 43.93 47.47 37 47.96L37 43.14C40.62 42.75 43.62 40.25 44.74 36.89C45.71 36.64 46.49 35.93 46.82 34.99L49.96 35ZM26.84 35C27.09 37.33 28.22 39.41 29.88 40.89L27.11 44.81C24.23 42.43 22.31 38.93 22.03 34.99L26.84 35ZM35 37.14L35 41.14C34.17 41.02 33.39 40.77 32.68 40.39L35 37.14ZM41.16 35C41.42 35.75 41.98 36.35 42.68 36.7C41.74 39.04 39.59 40.77 37 41.14L37 35L41.16 35ZM34.06 35L31.05 39.25C29.87 38.14 29.08 36.66 28.85 35L34.06 35ZM35 20.04L35 24.85C30.71 25.31 27.3 28.72 26.84 33L22.03 33C22.52 26.06 28.07 20.52 35 20.04ZM35 26.85L35 33L28.86 33C29.3 29.81 31.82 27.29 35 26.85ZM37 26.85C39.59 27.22 41.74 28.95 42.68 31.29C41.99 31.64 41.42 32.25 41.16 33L37 33L37 26.85ZM37 20.04C43.92 20.52 49.47 26.06 49.96 33L46.82 33C46.49 32.06 45.71 31.33 44.74 31.08C43.62 27.73 40.62 25.23 37 24.83L37 20.04ZM27.31 24C26.21 24 25.31 24.89 25.31 26C25.31 27.1 26.21 28 27.31 28C28.4 28 29.31 27.1 29.31 26C29.31 24.89 28.4 24 27.31 24Z" fill="#FFFFFF" fill-opacity="1.000000" fill-rule="evenodd"/>
	</g>
</svg>
