<svg width="72.000000" height="72.000000" viewBox="0 0 72 72" fill="none" xmlns="http://www.w3.org/2000/svg" xmlns:xlink="http://www.w3.org/1999/xlink">
	<desc>
			Created with Pixso.
	</desc>
	<defs>
		<clipPath id="clip117_225">
			<rect id="19#CodeArts部署-CodeArts-Deploy" width="72.000000" height="72.000000" fill="white" fill-opacity="0"/>
		</clipPath>
	</defs>
	<g clip-path="url(#clip117_225)">
		<path id="矩形备份-19" d="M16 0L56 0C64.8 0 72 7.2 72 16L72 56C72 64.79 64.8 72 56 72L16 72C7.19 72 0 64.79 0 56L0 16C0 7.2 7.19 0 16 0Z" fill="#25C251" fill-opacity="1.000000" fill-rule="evenodd"/>
		<path id="形状结合" d="M56.2 12C58.3 12 60 13.7 60 15.79L60 44C60 45.79 58.8 48 57.2 48.89L38.8 59.29C38 59.79 37 60 36 60C35 60 34 59.79 33.2 59.29L14.8 48.79C13.2 47.89 12 45.79 12 44L12 15.79C12 13.7 13.7 12 15.8 12L56.2 12ZM32 18L22 18C20.89 18 20 18.89 20 20L20 42C20 43.1 20.89 44 22 44L32 44C33.1 44 34 43.1 34 42L34 20C34 18.89 33.1 18 32 18ZM50 32L38 32C36.89 32 36 32.89 36 34L36 42C36 43.1 36.89 44 38 44L50 44C51.1 44 52 43.1 52 42L52 34C52 32.89 51.1 32 50 32ZM50 18L38 18C36.89 18 36 18.89 36 20L36 28C36 29.1 36.89 30 38 30L50 30C51.1 30 52 29.1 52 28L52 20C52 18.89 51.1 18 50 18Z" fill="#FFFFFF" fill-opacity="1.000000" fill-rule="evenodd"/>
	</g>
</svg>
