<svg width="72.000000" height="72.000000" viewBox="0 0 72 72" fill="none" xmlns="http://www.w3.org/2000/svg" xmlns:xlink="http://www.w3.org/1999/xlink">
	<desc>
			Created with Pixso.
	</desc>
	<defs>
		<clipPath id="clip117_233">
			<rect id="2#需求管理-CodeArts-Req" width="72.000000" height="72.000000" fill="white" fill-opacity="0"/>
		</clipPath>
	</defs>
	<g clip-path="url(#clip117_233)">
		<path id="矩形备份-19" d="M16 0L56 0C64.8 0 72 7.2 72 16L72 56C72 64.79 64.8 72 56 72L16 72C7.19 72 0 64.79 0 56L0 16C0 7.2 7.19 0 16 0Z" fill="#9F53E6" fill-opacity="1.000000" fill-rule="evenodd"/>
		<path id="形状结合" d="M56.2 12C58.3 12 60 13.7 60 15.79L60 44C60 45.79 58.8 48 57.2 48.89L38.8 59.29C38 59.79 37 60 36 60C35 60 34 59.79 33.2 59.29L14.8 48.79C13.2 47.89 12 45.79 12 44L12 15.79C12 13.7 13.7 12 15.8 12L56.2 12ZM26 33L22 33C20.89 33 20 33.89 20 35L20 39C20 40.1 20.89 41 22 41L26 41C27.1 41 28 40.1 28 39L28 35C28 33.89 27.1 33 26 33ZM51.5 38.79L31.5 38.79C31.1 38.79 30.7 39.1 30.7 39.6C30.7 40.1 31 40.39 31.5 40.39L51.5 40.39C51.89 40.39 52.3 40.1 52.3 39.6C52.3 39.1 51.89 38.79 51.5 38.79ZM51.5 34.79L31.5 34.79C31.1 34.79 30.7 35.1 30.7 35.6C30.7 36.1 31 36.39 31.5 36.39L51.5 36.39C51.89 36.39 52.3 36.1 52.3 35.6C52.3 35.1 51.89 34.79 51.5 34.79ZM26 21L22 21C20.89 21 20 21.89 20 23L20 27C20 28.1 20.89 29 22 29L26 29C27.1 29 28 28.1 28 27L28 23C28 21.89 27.1 21 26 21ZM51.5 26.79L31.5 26.79C31.1 26.79 30.7 27.1 30.7 27.6C30.7 28.1 31 28.39 31.5 28.39L51.5 28.39C51.89 28.39 52.3 28.1 52.3 27.6C52.3 27.1 51.89 26.79 51.5 26.79ZM51.5 22.79L31.5 22.79C31.1 22.79 30.7 23.1 30.7 23.6C30.7 24.1 31 24.39 31.5 24.39L51.5 24.39C51.89 24.39 52.3 24.1 52.3 23.6C52.3 23.1 51.89 22.79 51.5 22.79Z" fill="#FFFFFF" fill-opacity="1.000000" fill-rule="evenodd"/>
	</g>
</svg>
