<svg width="72.000000" height="72.000000" viewBox="0 0 72 72" fill="none" xmlns="http://www.w3.org/2000/svg" xmlns:xlink="http://www.w3.org/1999/xlink">
	<desc>
			Created with Pixso.
	</desc>
	<defs>
		<clipPath id="clip117_234">
			<rect id="20#CodeArts测试计划-CodeArts-TestPlan" width="72.000000" height="72.000000" fill="white" fill-opacity="0"/>
		</clipPath>
	</defs>
	<g clip-path="url(#clip117_234)">
		<path id="矩形备份-19" d="M16 0L56 0C64.8 0 72 7.2 72 16L72 56C72 64.79 64.8 72 56 72L16 72C7.19 72 0 64.79 0 56L0 16C0 7.2 7.19 0 16 0Z" fill="#7DCC29" fill-opacity="1.000000" fill-rule="evenodd"/>
		<path id="形状结合" d="M56.2 12C58.3 12 60 13.7 60 15.79L60 44C60 45.79 58.8 48 57.2 48.89L38.8 59.29C38 59.79 37 60 36 60C35 60 34 59.79 33.2 59.29L14.8 48.79C13.2 47.89 12 45.79 12 44L12 15.79C12 13.7 13.7 12 15.8 12L56.2 12ZM24.5 18.5C23.1 18.5 22 19.6 22 21C22 22.39 23.1 23.5 24.5 23.5C25.5 23.5 26.39 22.89 26.8 22L48 22C49.7 22 51 23.29 51 25C51 26.7 49.7 28 48 28L33.39 28C33 27.1 32.1 26.5 31.1 26.5C30.1 26.5 29.2 27.1 28.8 28L23 28C20.8 28 19 29.79 19 32C19 34.2 20.8 36 23 36L38.8 36C39.2 36.89 40.1 37.5 41.1 37.5C42.1 37.5 43 36.89 43.39 36L48 36C49.7 36 51 37.29 51 39C51 40.7 49.7 42 48 42L26.8 42C26.39 41.1 25.5 40.5 24.5 40.5C23.1 40.5 22 41.6 22 43C22 44.39 23.1 45.5 24.5 45.5C25.5 45.5 26.39 44.89 26.8 44L48 44C50.8 44 53 41.79 53 39C53 36.2 50.8 34 48 34L43.39 34C43 33.1 42.1 32.5 41.1 32.5C40.1 32.5 39.2 33.1 38.8 34L23 34C21.89 34 21 33.1 21 32C21 30.89 21.89 30 23 30L28.89 30C29.3 30.89 30.2 31.5 31.2 31.5C32.2 31.5 33.1 30.89 33.5 30L48 30C50.8 30 53 27.79 53 25C53 22.2 50.8 20 48 20L26.8 20C26.39 19.1 25.5 18.5 24.5 18.5Z" fill="#FFFFFF" fill-opacity="1.000000" fill-rule="evenodd"/>
	</g>
</svg>
