<svg width="72.000000" height="72.000000" viewBox="0 0 72 72" fill="none" xmlns="http://www.w3.org/2000/svg" xmlns:xlink="http://www.w3.org/1999/xlink">
	<desc>
			Created with Pixso.
	</desc>
	<defs>
		<clipPath id="clip117_221">
			<rect id="22#课堂教学-Classroom" width="72.000000" height="72.000000" fill="white" fill-opacity="0"/>
		</clipPath>
	</defs>
	<g clip-path="url(#clip117_221)">
		<path id="矩形备份-19" d="M16 0L56 0C64.8 0 72 7.2 72 16L72 56C72 64.79 64.8 72 56 72L16 72C7.19 72 0 64.79 0 56L0 16C0 7.2 7.19 0 16 0Z" fill="#9F53E6" fill-opacity="1.000000" fill-rule="evenodd"/>
		<path id="形状结合" d="M15.2 21.7C15.5 21.6 16.29 21.6 16.59 21.79L34.79 30.39C35.2 30.6 35.7 30.79 35.89 31.2C36.09 30.89 36.59 30.6 37 30.39L55.29 21.89C55.59 21.7 56.39 21.7 56.7 21.79C57.59 22 57.89 22.79 57.89 23.79L57.89 48.89C57.89 50.1 56.79 50.6 55.7 51.1L37 60C36.7 60.1 36.29 59.89 36 59.7C35.79 60 35.39 60.1 35 60L16.29 51.2C15.2 50.6 14.09 50.2 14.09 49L14.09 23.7C14 22.79 14.29 22 15.2 21.7ZM55.79 23.89L37 32.7L37 57.39L55.7 48.7L55.79 23.89ZM16.09 23.89L16.09 49L34.79 57.39L34.79 32.5L16.09 23.89ZM36.09 12C36.7 12 37.2 12.39 37.2 13.1L37.2 24.7C37.2 25.29 36.79 25.79 36.09 25.79C35.39 25.79 35 25.29 35 24.7L35 13.1C35 12.6 35.39 12 36.09 12ZM23.79 14.2C24.09 14.2 24.5 14.39 24.7 14.6L32.5 23.79C32.89 24.2 32.79 24.89 32.39 25.29L32.29 25.39C31.89 25.7 31.2 25.6 30.89 25.2L24.89 18.2L24.89 21.89C24.89 22.39 24.5 22.89 23.89 23L23.79 23L23.7 23C23.09 22.89 22.7 22.39 22.7 21.89L22.7 15.29C22.7 14.79 23.2 14.2 23.79 14.2ZM48.59 14.29C49 14.6 49.09 14.89 49.09 15.29L49.09 21.89C49.09 22.39 48.59 22.89 48.09 23C47.39 23 46.89 22.39 46.89 21.89L46.89 18.1L40.89 25.1C40.59 25.6 39.89 25.6 39.39 25.29L39.29 25.2C38.89 24.79 38.7 24.1 39.2 23.7L47 14.5C47.59 14.1 48.2 14 48.59 14.29Z" fill="#FFFFFF" fill-opacity="1.000000" fill-rule="evenodd"/>
	</g>
</svg>
