<svg width="72.000000" height="72.000000" viewBox="0 0 72 72" fill="none" xmlns="http://www.w3.org/2000/svg" xmlns:xlink="http://www.w3.org/1999/xlink">
	<desc>
			Created with Pixso.
	</desc>
	<defs>
		<clipPath id="clip117_220">
			<rect id="23#云应用引擎-CAE" width="72.000000" height="72.000000" fill="white" fill-opacity="0"/>
		</clipPath>
	</defs>
	<g clip-path="url(#clip117_220)">
		<path id="矩形备份-19" d="M16 0L56 0C64.8 0 72 7.2 72 16L72 56C72 64.79 64.8 72 56 72L16 72C7.19 72 0 64.79 0 56L0 16C0 7.2 7.19 0 16 0Z" fill="#00ABED" fill-opacity="1.000000" fill-rule="evenodd"/>
		<path id="形状结合" d="M37 21.59L47.6 27.79C48.2 28.19 48.6 28.89 48.6 29.59L48.6 42.09C48.6 42.79 48.2 43.59 47.6 43.89L37 50.29L37 59C37 59.69 36.2 60.29 35.5 60L15 47.59C14.39 47.29 14.1 46.59 14 45.89L14 30.59C14 30 14.39 29.5 15 29.5C15.5 29.5 15.89 29.89 16 30.5L16 45.79L35 57L35 50.29L24.39 44.09C23.8 43.69 23.39 43 23.39 42.29L23.39 29.69C23.39 29 23.8 28.19 24.39 27.89L35 21.59C35.6 21.19 36.39 21.19 37 21.59ZM58 25.5L58 47.39C58 48.09 57.7 48.79 57.1 49.09L41.8 58.29C41.3 58.59 40.6 58.39 40.3 57.89C40 57.5 40.2 56.79 40.6 56.5L55.89 47.39L55.89 27.5L51.89 30C51.5 30.29 50.89 30.19 50.5 29.79C50.2 29.39 50.2 28.59 50.6 28.29L56.3 24.69C57.1 24.19 57.89 24.59 58 25.5ZM35 28.09L29.89 31.09C29.3 31.39 28.89 32.19 28.89 32.89L28.89 39C28.89 39.69 29.3 40.39 29.89 40.79L35 43.79C35.6 44.19 36.3 44.19 37 43.89L42.3 40.69C42.89 40.39 43.3 39.59 43.3 38.89L43.3 32.79C43.3 32.09 42.89 31.39 42.3 31L37 28C36.39 27.59 35.6 27.59 35 28.09ZM37.39 12.29L37.6 12.39L52.3 21C52.8 21.29 52.89 22 52.7 22.5C52.39 22.89 51.89 23.09 51.3 22.89L51.2 22.79L36.39 14.19C36.1 14 35.8 14 35.5 14.09L35.39 14.19L16.79 25.09L21.1 27.59C21.6 27.89 21.8 28.59 21.5 29.09C21.2 29.5 20.7 29.69 20.1 29.5L20 29.39L15.8 27C14.8 26.5 14.39 25.09 15 24.09C15.1 23.79 15.39 23.59 15.6 23.39L15.8 23.29L34.39 12.5C35.39 11.89 36.39 11.89 37.39 12.29Z" fill="#FFFFFF" fill-opacity="1.000000" fill-rule="nonzero"/>
	</g>
</svg>
