<svg width="72.000000" height="72.000000" viewBox="0 0 72 72" fill="none" xmlns="http://www.w3.org/2000/svg" xmlns:xlink="http://www.w3.org/1999/xlink">
	<desc>
			Created with Pixso.
	</desc>
	<defs>
		<clipPath id="clip117_238">
			<rect id="24#华为开源镜像站-Mirrors" width="72.000000" height="72.000000" fill="white" fill-opacity="0"/>
		</clipPath>
	</defs>
	<g clip-path="url(#clip117_238)">
		<path id="矩形备份-19" d="M16 0L56 0C64.8 0 72 7.2 72 16L72 56C72 64.79 64.8 72 56 72L16 72C7.19 72 0 64.79 0 56L0 16C0 7.2 7.19 0 16 0Z" fill="#1476FF" fill-opacity="1.000000" fill-rule="evenodd"/>
		<path id="形状结合" d="M56.21 12C58.3 12 60 13.7 60 15.79L60 43.96C60 45.79 58.76 47.93 57.16 48.85L38.82 59.31C38.05 59.75 37.05 60 36 60C34.95 60 33.95 59.75 33.17 59.31L14.83 48.83C13.24 47.93 12 45.79 12 43.96L12 15.79C12 13.71 13.7 12 15.79 12L56.21 12ZM45.97 44.04L45.53 46L48.45 46.66L48.89 44.72L45.97 44.04ZM23.45 18.37C22.64 18.37 22 19.02 22 19.83L22 45.18C22 45.29 22.01 45.39 22.04 45.5C22.22 46.27 23 46.77 23.78 46.58L35.87 43.81L38.7 44.43L39.14 42.48L37 42L37 22.7L37.08 23.04L40 22.35L39.55 20.41L36.62 21.08L36.84 21.98C36.64 21.62 36.31 21.33 35.87 21.24L23.78 18.41C23.66 18.39 23.56 18.37 23.45 18.37ZM41.1 42.93L40.64 44.89L43.57 45.56L44.02 43.6L41.1 42.93ZM51 41.25L49 41.25L49 44.25L51 44.25L51 41.25ZM51 36.25L49 36.25L49 39.25L51 39.25L51 36.25ZM51 31.25L49 31.25L49 34.25L51 34.25L51 31.25ZM51 26.25L49 26.25L49 29.25L51 29.25L51 26.25ZM51 21.25L49 21.25L49 24.25L51 24.25L51 21.25ZM44.41 19.27L41.5 19.95L41.95 21.91L44.87 21.23L44.41 19.27ZM49.55 18.37L48.55 18.37C48.36 18.37 48.17 18.39 47.99 18.43L46.37 18.81L46.82 20.77L48.43 20.39L49.54 20.37L49.55 18.37Z" fill="#FFFFFF" fill-opacity="1.000000" fill-rule="evenodd"/>
	</g>
</svg>
