<svg width="72.000000" height="72.000000" viewBox="0 0 72 72" fill="none" xmlns="http://www.w3.org/2000/svg" xmlns:xlink="http://www.w3.org/1999/xlink">
	<desc>
			Created with Pixso.
	</desc>
	<defs>
		<clipPath id="clip117_227">
			<rect id="26#CodeArts集成环境-CodeArts-IDE" width="72.000000" height="72.000000" fill="white" fill-opacity="0"/>
		</clipPath>
	</defs>
	<g clip-path="url(#clip117_227)">
		<path id="矩形备份-19" d="M16 0L56 0C64.8 0 72 7.2 72 16L72 56C72 64.79 64.8 72 56 72L16 72C7.19 72 0 64.79 0 56L0 16C0 7.2 7.19 0 16 0Z" fill="#F85835" fill-opacity="1.000000" fill-rule="evenodd"/>
		<g opacity="0.425300">
			<path id="形状结合" d="M16.48 25.5C18.65 31.84 19.77 35.8 19.82 37.38L19.82 37.49L19.82 38.75C19.82 43.78 20 47.26 22.61 49.97C23.19 50.57 23.71 51.16 24.22 51.74C25.06 52.7 25.86 53.61 26.78 54.4C29.87 54.97 32.97 54.9 36.15 54.7C38.68 54.54 40.89 53.9 42.89 53.32C45.18 52.65 47.2 52.04 49.15 52.43C50.54 52.7 51.89 53.49 53.28 55.11C52.44 56.07 51.07 57.35 48.96 58.75C48.85 58.84 48.73 58.91 48.59 59L48.38 59.13C47.93 59.41 47.37 59.72 46.85 59.97C45.25 60.79 43.8 61.31 42.69 61.64C42.29 61.76 41.89 61.87 41.66 61.92C39.27 62.49 34.86 63.09 30.12 61.8C25.34 60.5 20.87 57.62 18.14 54.24C17.4 53.44 16.17 51.82 15.05 49.6C14.08 47.73 13.35 45.45 13.07 44.04C12.69 42.52 12.43 40.09 12.48 38.23C12.53 36.37 12.83 34 13.52 31.75C14.14 29.68 15.13 27.6 16.48 25.5ZM43.69 16.13C50.44 18.34 54.25 23.01 56.06 26.05C57.88 29.09 58.86 32.21 59.15 33.69C59.45 35.18 59.74 37.29 59.65 39.66C59.57 41.82 59.19 43.68 58.86 44.94C57.08 44.63 55.34 44.31 54.14 43.59C53.36 43.12 52.81 42.47 52.81 41.51C52.81 39.08 53.09 37.98 53.27 37.26C53.52 36.26 53.63 35.9 52.77 34.11C51.31 31.07 47.66 25.21 43.13 24.2C39.39 23.37 35.8 22.75 32.68 22.21C28.41 21.47 25.04 20.9 23.48 20.14C23.2 20.01 22.99 19.87 22.85 19.72C22.74 19.16 23.09 18.85 23.63 18.48C24.2 18.17 36.96 13.93 43.69 16.13Z" fill="#FFFFFF" fill-opacity="1.000000" fill-rule="nonzero"/>
		</g>
		<path id="形状结合_00000042697570967489638260000004551753467203936907_" d="M54.8 36.43C55.79 36.68 56.6 37.11 57.23 37.65L57.35 37.75L57.23 37.65C57.16 37.64 57.01 37.67 56.94 37.66L56.71 37.64C55.38 37.56 53.62 38.25 51.42 39.77L51.12 39.98L50.37 40.54L49.57 41.17L48.73 41.87L48.15 42.37L47.25 43.17L46.63 43.74L45.35 44.97L44.69 45.63L44.01 46.31L43.32 47.02L42.61 47.76L41.89 48.53L41.15 49.33L40.4 50.16L39.24 51.45L38.45 52.34L37.64 53.26L36.82 54.21L35.72 55.5L35.44 55.7L35.16 55.9L34.57 56.32L34.13 56.62L33.7 56.91L33.13 57.28L32.85 57.45L32.57 57.62L32.01 57.95C29.21 59.54 26.75 60.31 24.92 59.66L24.72 59.58L23.66 58.97C21.52 57.45 21.27 57.25 21.14 57.15L20.7 56.78C20.39 56.51 20.08 56.22 19.76 55.91L19.44 55.59L18.78 54.9L18.19 54.25C18.01 54.04 17.84 53.84 17.68 53.65C17.38 53.28 17.3 53.18 17.26 53.12L16.75 52.34C18.75 53.63 19.69 53.78 20.74 53.72C21.67 53.63 22.34 53.49 23.03 53.27L23.29 53.19L25.27 52.36L26 51.99L26.5 51.72L27.27 51.28L27.53 51.12L27.8 50.95L28.35 50.61L28.91 50.25L29.49 49.86L30.09 49.45L30.7 49.02L31.65 48.33L32.64 47.59L33.32 47.07L34.02 46.52L34.74 45.95L35.86 45.05L37.03 44.1C37.29 43.88 37.56 43.66 37.84 43.43C42.79 39.31 46.84 37.25 50.04 36.51C51.92 36.08 53.51 36.1 54.8 36.43ZM56.61 38.45C57.19 38.47 57.66 38.67 58.05 39.05C58.46 39.46 58.75 40.07 58.95 40.87C59.01 41.1 59.06 41.33 59.11 41.55C59.36 44.1 58.5 46.85 56.76 50.2L56.55 50.6L56.04 51.46L55.43 52.37L55.35 52.48L55.43 52.37C55.64 51.35 55.67 50.33 55.61 49.44L55.58 49.11C55.4 47.34 54.71 45.93 53.65 45.1C52.65 44.32 51.31 44.04 49.72 44.48C48.45 44.83 47.01 45.65 45.44 47.06L45.14 47.33L44 48.43L43.08 49.3L42.16 50.15L41.55 50.71L40.63 51.53L40.02 52.06L39.41 52.58L39.04 52.89L39.83 51.99L40.99 50.71L41.74 49.89L42.48 49.1L43.2 48.34L43.9 47.6L44.59 46.89L45.26 46.21L45.92 45.56L46.56 44.94L46.88 44.64L47.19 44.35L47.8 43.79L48.4 43.25L49.27 42.5L49.83 42.04L50.64 41.4L51.39 40.84C53.55 39.22 55.29 38.4 56.61 38.45ZM31.42 22.04C35.45 22.72 38.05 24.06 39.97 25.51L39.79 25.43C38.24 24.73 36.7 24.34 35.21 24.19L34.95 24.17C31.34 23.89 28.06 25.05 25.74 26.74C24.15 27.9 23.01 29.31 22.51 30.69C22.25 31.39 22.16 32.09 22.24 32.74C22.32 33.38 22.58 33.98 23.03 34.51C24.38 36.1 27.61 37.1 33.54 36.31C35.95 35.99 38.14 35.8 40.11 35.72L40.7 35.7L41.6 35.68C44.29 35.63 46.58 35.8 48.52 36.11C45.66 37.03 42.22 38.89 38.17 42.14L37.73 42.49L37.18 42.95C36.18 43.06 35.29 43.2 34.53 43.35C29.2 44.51 24.56 43.59 21.07 41.65C16.94 39.35 14.4 35.61 14.29 32.2C14.28 31.94 14.28 31.69 14.3 31.44C14.99 28.06 17.19 25.42 20.19 23.76C23.32 22.02 27.33 21.36 31.42 22.04ZM36.04 6.68C40.02 12.5 44.59 17.76 50.44 21.82L51.05 22.24L50.01 22.91L53.25 27.79L44.83 28.97C44.39 28.58 43.95 28.13 43.48 27.65C43.33 27.5 43.18 27.34 43.02 27.18L42.7 26.86C40.53 24.71 37.57 22.26 31.54 21.24C27.26 20.52 23.07 21.23 19.79 23.05C18.41 23.81 17.2 24.77 16.2 25.9C17.19 24.27 18.66 22.47 20.8 20.58C25.92 16.07 32.19 14.54 38.25 15.07C38.45 15.09 38.66 15.11 38.86 15.13C38.8 14.93 38.73 14.74 38.67 14.55L38.23 13.21L37.78 11.87L36.04 6.68Z" fill="#FFFFFF" fill-opacity="1.000000" fill-rule="nonzero"/>
	</g>
</svg>
