<svg width="72.000000" height="72.000000" viewBox="0 0 72 72" fill="none" xmlns="http://www.w3.org/2000/svg" xmlns:xlink="http://www.w3.org/1999/xlink">
	<desc>
			Created with Pixso.
	</desc>
	<defs>
		<clipPath id="clip117_228">
			<rect id="27#CodeArts联接-CodeArts-Link" width="72.000000" height="72.000000" fill="white" fill-opacity="0"/>
		</clipPath>
	</defs>
	<g clip-path="url(#clip117_228)">
		<path id="矩形备份-19" d="M16 0L56 0C64.8 0 72 7.2 72 16L72 56C72 64.79 64.8 72 56 72L16 72C7.19 72 0 64.79 0 56L0 16C0 7.2 7.19 0 16 0Z" fill="#1476FF" fill-opacity="1.000000" fill-rule="evenodd"/>
		<path id="形状结合" d="M56.2 12C58.3 12 60 13.7 60 15.79L60 44C60 45.79 58.8 48 57.2 48.89L38.8 59.29C38 59.79 37 60 36 60C35 60 34 59.79 33.2 59.29L14.8 48.79C13.2 47.89 12 45.79 12 44L12 15.79C12 13.7 13.7 12 15.8 12L56.2 12ZM27.39 18C25.89 18 24.7 19.2 24.7 20.7C24.7 22.2 25.89 23.39 27.39 23.39C27.6 23.39 27.89 23.39 28.1 23.29L32.8 30.5C32.8 30.6 32.8 30.6 32.8 30.7C31.7 30.89 30.8 32 30.89 33.1L30.89 33.29C31.1 34.39 32 35.2 33.1 35.2L36.1 35.2L38.8 44.1C38.3 44.6 37.89 45.29 37.89 46.1C37.89 47.6 39.1 48.79 40.6 48.79C42.1 48.79 43.3 47.6 43.3 46.1C43.3 44.6 42.1 43.39 40.6 43.39C40.39 43.39 40.2 43.39 40 43.5L37.5 35.2L37.8 35.2C38.8 35.2 39.6 34.5 39.8 33.5C40 32.5 39.39 31.6 38.5 31.2C38.39 29.6 37.2 28.29 35.6 28.29C34.8 28.29 34.1 28.6 33.6 29.2L29.3 22.6C29.8 22.1 30.1 21.39 30.1 20.6C30.1 19.2 28.89 18 27.39 18ZM50 18.89C48.5 18.89 47.3 20.1 47.3 21.6C47.3 22.1 47.39 22.5 47.6 22.89L42.39 26.7C41.1 24.5 38.7 23 36 23C34.5 23 33.1 23.39 32 24.2L32.8 25.29C33.7 24.79 34.7 24.39 35.8 24.39L36.1 24.39L36.39 24.39C39.6 24.6 42.2 27.2 42.3 30.5L42.3 31.39L43.2 31.7L43.39 31.79C45.1 32.5 46 34.29 45.7 36.1C45.39 38 43.8 39.39 41.89 39.39L40.1 39.39L40.5 40.79L41.89 40.79L42.2 40.79C43.7 40.7 45.1 40 46 38.89L48.89 40.1C48.8 40.29 48.8 40.6 48.8 40.79C48.8 42.29 50 43.5 51.5 43.5C53 43.5 54.2 42.29 54.2 40.79C54.2 39.29 53 38.1 51.5 38.1C50.8 38.1 50.1 38.39 49.6 38.89L46.7 37.7C46.89 37.29 47 36.79 47.1 36.39C47.5 33.79 46.1 31.29 43.7 30.5C43.7 29.6 43.5 28.79 43.2 28.1L48.7 24C49.1 24.29 49.6 24.39 50.1 24.39C51.6 24.39 52.8 23.2 52.8 21.7C52.7 20.1 51.5 18.89 50 18.89ZM29.2 27.29C28.89 27.79 28.7 28.39 28.6 29C25.6 29.5 23.5 32.29 23.8 35.29C23.89 35.89 24 36.5 24.2 37.1L22.3 38.6C21.8 38.2 21.3 38 20.7 38C19.2 38 18 39.2 18 40.7C18 42.2 19.2 43.39 20.7 43.39C22.2 43.39 23.39 42.2 23.39 40.7C23.39 40.29 23.3 40 23.2 39.6L24.89 38.2C26 39.7 27.7 40.7 29.6 40.7L36.2 40.7L35.8 39.5C35.8 39.39 35.8 39.39 35.8 39.29L29.6 39.29L29.39 39.29C27.2 39.2 25.39 37.39 25.2 35.1C25 32.7 26.6 30.6 28.89 30.2L29.8 30L30 29.1C30 28.89 30.1 28.7 30.1 28.6L29.2 27.29ZM51.3 39.39C52 39.39 52.6 40 52.6 40.79C52.6 41.6 52 42.2 51.3 42.2C50.6 42.2 50 41.6 50 40.79C50 40 50.6 39.39 51.3 39.39ZM20.7 39.39C21.39 39.39 22 40 22 40.79C22 41.6 21.39 42.2 20.7 42.2C20 42.2 19.39 41.6 19.39 40.79C19.29 40 19.89 39.39 20.7 39.39ZM50 20.29C50.7 20.29 51.3 20.89 51.3 21.7C51.3 22.5 50.7 23.1 50 23.1C49.3 23.1 48.7 22.5 48.7 21.7C48.7 20.89 49.3 20.29 50 20.29Z" fill="#FFFFFF" fill-opacity="1.000000" fill-rule="evenodd"/>
	</g>
</svg>
