<svg width="72.000000" height="72.000000" viewBox="0 0 72 72" fill="none" xmlns="http://www.w3.org/2000/svg" xmlns:xlink="http://www.w3.org/1999/xlink">
	<desc>
			Created with Pixso.
	</desc>
	<defs>
		<clipPath id="clip117_314">
			<rect id="28#Astro企业引用-AstroPro" width="72.000000" height="72.000000" fill="white" fill-opacity="0"/>
		</clipPath>
	</defs>
	<g clip-path="url(#clip117_314)">
		<path id="矩形-1" d="M16 0L56 0C64.83 0 72 7.16 72 16L72 56C72 64.83 64.83 72 56 72L16 72C7.16 72 0 64.83 0 56L0 16C0 7.16 7.16 0 16 0Z" fill="#FF9A2E" fill-opacity="1.000000" fill-rule="nonzero"/>
		<path id="形状结合" d="M54.77 14.51L54.98 14.52C56.1 14.57 56.98 14.89 57.57 15.54C58.52 16.56 58.64 18.25 58.04 20.41C58.33 20.85 58.5 21.38 58.5 21.95C58.5 23.31 57.54 24.43 56.26 24.7C55.98 25.22 55.68 25.76 55.36 26.31L54.98 26.93L54.2 28.16C54.09 28.32 53.98 28.49 53.87 28.65C56.65 36.43 53.12 45.85 45 50.91C41.56 53.07 37.79 54.14 34.15 54.21L33.75 54.21C31.73 54.21 29.75 53.9 27.9 53.3L27.53 53.18C27.3 53.31 27.07 53.43 26.84 53.57L25.89 54.09L24.65 54.71C21.89 56.05 19.47 56.81 17.59 56.89L17.37 56.9L17.15 56.9C15.93 56.89 14.98 56.55 14.35 55.88C12.65 54.05 13.62 50.06 16.57 45.11L16.95 44.49L17.57 43.52C14.69 35.7 18.22 26.22 26.39 21.11C29.97 18.88 33.9 17.81 37.69 17.82L38.09 17.83C39.98 17.87 41.82 18.18 43.55 18.76C44.04 18.47 44.52 18.18 44.99 17.93L46.05 17.35L47.29 16.73C50.25 15.26 52.84 14.49 54.77 14.51ZM19.01 46.47L18.87 46.71C17.65 48.79 16.84 50.63 16.5 52.07C16.22 53.24 16.29 53.83 16.4 53.93C16.46 54 16.68 54.07 17.12 54.08L17.26 54.08C17.45 54.08 17.68 54.06 17.94 54.03C19.19 53.88 20.81 53.36 22.67 52.52L23.38 52.18L24.37 51.68C22.23 50.41 20.39 48.66 19.01 46.47ZM37.6 20.61L37.28 20.61C34.14 20.66 30.86 21.6 27.87 23.47C19.91 28.43 17.1 38.08 21.38 44.93C23.99 49.11 28.7 51.38 33.78 51.37L34.1 51.37C37.24 51.31 40.52 50.38 43.51 48.51C51.47 43.54 54.28 33.89 50 27.05C47.38 22.88 42.68 20.61 37.6 20.61ZM38.47 25.37L38.68 25.37C40.58 25.41 42.05 25.93 43.09 26.93C43.41 27.23 43.67 27.57 43.9 27.93C44.44 28.8 44.71 29.84 44.71 31.05C44.71 31.5 44.66 32.01 44.57 32.57C44.29 34.08 43.72 35.32 42.85 36.3C42.6 36.59 42.31 36.85 42.01 37.09C41.97 37.12 41.93 37.15 41.89 37.18C40.56 38.2 38.84 38.7 36.75 38.7L34.5 38.7L33.21 45.96L29.44 45.96L33.07 25.37L38.47 25.37ZM37.86 28.63L36.28 28.63L35.07 35.41L36.93 35.41C37.72 35.41 38.4 35.25 38.97 34.91L39.18 34.79C39.25 34.74 39.32 34.68 39.39 34.63C40.04 34.11 40.45 33.32 40.64 32.25C40.7 31.93 40.72 31.64 40.72 31.38C40.72 30.66 40.55 30.08 40.2 29.63C40.12 29.53 40.03 29.43 39.93 29.34L39.81 29.24L39.68 29.14C39.2 28.8 38.59 28.63 37.86 28.63ZM54.8 17.31L54.66 17.31C54.47 17.31 54.24 17.33 53.98 17.36C52.73 17.51 51.11 18.03 49.25 18.87L48.54 19.2L47.3 19.82L46.72 20.13C48.98 21.41 50.93 23.24 52.38 25.55L52.44 25.64L52.59 25.41C52.94 24.85 53.27 24.29 53.56 23.75C53.13 23.26 52.88 22.61 52.88 21.91C52.88 20.43 54.02 19.22 55.47 19.11C55.7 18.06 55.63 17.54 55.52 17.43C55.46 17.39 55.23 17.32 54.8 17.31Z" fill="#FFFFFF" fill-opacity="1.000000" fill-rule="evenodd"/>
	</g>
</svg>
