<svg width="72.000000" height="72.000000" viewBox="0 0 72 72" fill="none" xmlns="http://www.w3.org/2000/svg" xmlns:xlink="http://www.w3.org/1999/xlink">
	<desc>
			Created with Pixso.
	</desc>
	<defs>
		<clipPath id="clip117_232">
			<rect id="3#代码托管-CodeArts-Repo" width="72.000000" height="72.000000" fill="white" fill-opacity="0"/>
		</clipPath>
	</defs>
	<g clip-path="url(#clip117_232)">
		<path id="矩形备份-19" d="M16 0L56 0C64.8 0 72 7.2 72 16L72 56C72 64.79 64.8 72 56 72L16 72C7.19 72 0 64.79 0 56L0 16C0 7.2 7.19 0 16 0Z" fill="#00C4BE" fill-opacity="1.000000" fill-rule="evenodd"/>
		<path id="形状" d="M14.56 17.14C13.61 17.18 12.72 17.49 11.99 18L11.99 15.79C11.99 13.71 13.69 12 15.78 12L56.2 12C58.29 12 59.99 13.71 59.99 15.79L59.99 18C59.22 17.45 58.28 17.14 57.28 17.14L14.7 17.14L14.56 17.14ZM60 20.12L60 43.95C60 45.77 58.76 47.93 57.17 48.83L38.81 59.31C38.04 59.75 37.04 60 35.99 60C34.94 60 33.94 59.75 33.17 59.31L14.83 48.83C13.24 47.93 12 45.79 12 43.96L12 20.12C12.58 19.23 13.58 18.64 14.71 18.64L57.29 18.64L57.41 18.64C58.49 18.68 59.44 19.27 60 20.12ZM49.99 29C44.91 28.04 40.11 25.45 37.91 23.39C37.5 23.12 36.95 22.99 36.67 22.99C36.39 22.99 35.71 22.99 35.3 23.39C32.97 25.45 28.3 27.91 23.22 29C22.32 29.25 21.98 30.5 21.98 31.2C21.98 31.75 22.04 32.25 22.12 32.98C22.53 36.54 22.94 41.73 26.51 46.52C28.84 49.79 32.69 53.08 35.84 54.85C36.02 54.95 36.24 55.04 36.67 55.04C37.08 55.04 37.2 54.91 37.36 54.85C40.66 53.08 44.36 49.79 46.69 46.52C49.85 42.14 50.61 36.54 50.89 32.98C50.93 32.37 50.96 31.75 50.99 31.16C51 30.74 51.14 29.29 49.99 29ZM44.24 40.5C44.24 40.08 43.9 39.75 43.49 39.75L29.49 39.75C29.07 39.75 28.74 40.08 28.74 40.5C28.74 40.91 29.08 41.25 29.49 41.25L43.49 41.25C43.91 41.24 44.24 40.91 44.24 40.5ZM37.24 40.5L37.24 32.5C37.24 32.08 36.9 31.75 36.49 31.75C36.07 31.75 35.74 32.08 35.74 32.5L35.74 40.5C35.74 40.91 36.08 41.25 36.49 41.25C36.91 41.24 37.24 40.91 37.24 40.5Z" fill="#FFFFFF" fill-opacity="1.000000" fill-rule="nonzero"/>
	</g>
</svg>
