<svg width="72.000000" height="72.000000" viewBox="0 0 72 72" fill="none" xmlns="http://www.w3.org/2000/svg" xmlns:xlink="http://www.w3.org/1999/xlink">
	<desc>
			Created with Pixso.
	</desc>
	<defs>
		<clipPath id="clip117_231">
			<rect id="4#流水线-CodeArts-Pipeline" width="72.000000" height="72.000000" fill="white" fill-opacity="0"/>
		</clipPath>
	</defs>
	<g clip-path="url(#clip117_231)">
		<path id="矩形备份-19" d="M16 0L56 0C64.8 0 72 7.2 72 16L72 56C72 64.79 64.8 72 56 72L16 72C7.19 72 0 64.79 0 56L0 16C0 7.2 7.19 0 16 0Z" fill="#00ABED" fill-opacity="1.000000" fill-rule="evenodd"/>
		<path id="形状结合" d="M56.2 12C58.3 12 60 13.7 60 15.79L60 44C60 45.79 58.8 48 57.2 48.89L38.8 59.29C38 59.79 37 60 36 60C35 60 34 59.79 33.2 59.29L14.8 48.79C13.2 47.89 12 45.79 12 44L12 15.79C12 13.7 13.7 12 15.8 12L56.2 12ZM27 24.2C22.6 24.2 18.89 27.1 17.7 31L17.79 31C16.1 31 14.8 32.29 14.8 34C14.8 35.6 16.1 37 17.79 37C17.89 37.39 18.1 37.79 18.29 38.2L19.6 37.5C19.5 37.2 19.29 36.89 19.2 36.6C20.1 36.1 20.8 35.1 20.8 34C20.8 32.79 20.1 31.79 19.2 31.29C20.29 28 23.39 25.6 27 25.6C30.6 25.6 33.6 27.89 34.8 31.1C33.6 31.5 32.8 32.6 32.8 33.89C32.8 35.5 34.1 36.89 35.8 36.89C37.1 40.79 40.7 43.6 45.1 43.6C49.39 43.6 53.1 40.79 54.39 36.89C55.8 36.7 56.89 35.39 56.89 33.89C56.89 32.2 55.6 30.89 53.89 30.89C52.2 30.89 50.89 32.2 50.89 33.89C50.89 35.2 51.7 36.29 52.89 36.7C51.7 39.79 48.7 42.1 45.2 42.1C41.6 42.1 38.5 39.79 37.39 36.6C38.3 36.1 39 35.1 39 34C39 32.79 38.3 31.79 37.39 31.29C37.5 31 37.6 30.6 37.8 30.29L36.5 29.6L36 30.1L36 30.2C34.5 26.7 31.1 24.2 27 24.2ZM28.89 42C28.3 42.1 27.7 42.2 27.1 42.2L27.1 43.7C27.8 43.7 28.6 43.6 29.3 43.39L28.89 42ZM23.5 41.5L22.89 42.89C23.6 43.2 24.2 43.39 25 43.6L25.3 42.1C24.6 41.89 24 41.7 23.5 41.5ZM32.2 40.39C31.7 40.79 31.2 41.1 30.7 41.39L31.39 42.7C32.1 42.39 32.7 42 33.2 41.5L32.2 40.39ZM20.6 39.2L19.39 40.1C19.89 40.7 20.39 41.2 20.89 41.6L21.8 40.39C21.39 40.1 21 39.7 20.6 39.2ZM34.39 37.6C34.1 38.2 33.8 38.7 33.39 39.2L34.6 40.1C35.1 39.5 35.39 38.89 35.8 38.29L34.39 37.6ZM52.6 27.89L51.39 28.79C51.8 29.29 52.1 29.79 52.39 30.39L53.8 29.7C53.5 29.1 53.1 28.5 52.6 27.89ZM39 26.29C38.39 26.7 37.89 27.29 37.5 27.79L38.7 28.7C39.1 28.2 39.5 27.79 40 27.39L39 26.29ZM49.3 25.2L48.6 26.5C49.2 26.79 49.7 27.1 50.1 27.5L51 26.29C50.5 25.89 49.89 25.5 49.3 25.2ZM42.89 24.5C42.2 24.7 41.5 24.89 40.8 25.2L41.39 26.6C42 26.29 42.5 26.1 43.1 26L42.89 24.5ZM45.1 24.29L45.1 25.79C45.7 25.79 46.3 25.89 46.89 26L47.2 24.5C46.5 24.29 45.8 24.29 45.1 24.29Z" fill="#FFFFFF" fill-opacity="1.000000" fill-rule="evenodd"/>
	</g>
</svg>
