<svg width="72.000000" height="72.000000" viewBox="0 0 72 72" fill="none" xmlns="http://www.w3.org/2000/svg" xmlns:xlink="http://www.w3.org/1999/xlink">
	<desc>
			Created with Pixso.
	</desc>
	<defs>
		<clipPath id="clip117_222">
			<rect id="5#制品仓库-CodeArts-Artifact" width="72.000000" height="72.000000" fill="white" fill-opacity="0"/>
		</clipPath>
	</defs>
	<g clip-path="url(#clip117_222)">
		<path id="矩形备份-19" d="M16 0L56 0C64.8 0 72 7.2 72 16L72 56C72 64.79 64.8 72 56 72L16 72C7.19 72 0 64.79 0 56L0 16C0 7.2 7.19 0 16 0Z" fill="#F85835" fill-opacity="1.000000" fill-rule="evenodd"/>
		<path id="形状结合" d="M56.21 12C58.3 12 60 13.7 60 15.79L60 43.96C60 45.79 58.76 47.93 57.16 48.85L38.82 59.31C38.05 59.75 37.05 60 36 60C34.95 60 33.95 59.75 33.17 59.31L14.83 48.83C13.24 47.93 12 45.79 12 43.96L12 15.79C12 13.71 13.7 12 15.79 12L56.21 12ZM38.68 19.79L36 23.08L33.31 19.79C32.65 18.99 31.54 18.77 30.62 19.25L21.12 24.45C19.93 25.08 19.63 26.64 20.49 27.68L23.14 30.95L21.29 35.39C20.92 36.25 21.31 37.23 22.13 37.62L23.39 38.23L23.34 41.83C23.33 42.1 23.49 42.37 23.74 42.5L35.58 48.87C35.64 48.91 35.75 48.97 35.84 48.99C35.89 49 35.95 49 36 49C36.05 49 36.12 49 36.16 48.99C36.25 48.97 36.33 48.93 36.39 48.89L48.27 42.5C48.52 42.37 48.66 42.1 48.66 41.83L48.61 38.23L49.87 37.62C50.71 37.23 51.08 36.24 50.72 35.39L48.86 30.95L51.52 27.68C52.37 26.64 52.06 25.08 50.88 24.45L41.37 19.25C40.47 18.77 39.34 18.99 38.68 19.79ZM47.12 38.93L47.16 41.37L36.75 46.97L36.75 40.22L37.31 41.58C37.68 42.5 38.75 42.93 39.65 42.5L47.12 38.93ZM24.87 38.93L32.33 42.49C33.23 42.91 34.3 42.5 34.67 41.58L35.24 40.21L35.24 46.97L24.82 41.37L24.87 38.93ZM24.38 31.83L35.04 36.79L33.52 40.48C33.35 40.89 32.87 41.06 32.48 40.87L23.36 36.52C22.91 36.31 22.72 35.79 22.9 35.35L24.38 31.83ZM47.61 31.83L49.1 35.37C49.29 35.81 49.09 36.31 48.65 36.52L39.55 40.87C39.13 41.06 38.63 40.87 38.47 40.45L36.96 36.77L47.61 31.83ZM36 25.14L46.08 30.62L36 35.54L25.91 30.62L36 25.14ZM32.36 21L34.84 24.04L24.18 29.85L21.93 27.1C21.53 26.6 21.67 25.87 22.24 25.56L31.05 20.75C31.5 20.5 32.04 20.6 32.36 21ZM40.67 20.6L49.51 25.43C50.18 25.79 50.37 26.71 49.87 27.31L47.8 29.85L37.14 24.04L39.81 20.77C40.03 20.52 40.38 20.45 40.67 20.6Z" fill="#FFFFFF" fill-opacity="1.000000" fill-rule="evenodd"/>
	</g>
</svg>
