<svg width="72.000000" height="72.000000" viewBox="0 0 72 72" fill="none" xmlns="http://www.w3.org/2000/svg" xmlns:xlink="http://www.w3.org/1999/xlink">
	<desc>
			Created with Pixso.
	</desc>
	<defs>
		<clipPath id="clip117_226">
			<rect id="6#集成开发环境-CodeArts-IDE-Online" width="72.000000" height="72.000000" fill="white" fill-opacity="0"/>
		</clipPath>
	</defs>
	<g clip-path="url(#clip117_226)">
		<path id="矩形备份-19" d="M16 0L56 0C64.8 0 72 7.2 72 16L72 56C72 64.79 64.8 72 56 72L16 72C7.19 72 0 64.79 0 56L0 16C0 7.2 7.19 0 16 0Z" fill="#FF9A2E" fill-opacity="1.000000" fill-rule="evenodd"/>
		<path id="形状结合" d="M24 54C17.29 53.6 12 47.79 12 40.6C12 33.29 17.5 27.39 24.39 27.2C26 21.89 30.8 18 36.5 18C42.2 18 47 21.89 48.6 27.29C55 28 60 33.7 60 40.6C60 47.89 54.5 53.79 47.6 54L47.3 54L24 54ZM45.8 34.1C47.39 34.1 48.7 35.39 48.7 37L48.7 37.5C48.7 38 48.3 38.39 47.8 38.39C47.3 38.39 46.89 38 46.89 37.5L46.89 37C46.89 36.39 46.39 35.89 45.8 35.89L26.2 35.89C25.6 35.89 25.1 36.39 25.1 37L25.1 37.5C25.1 38 24.7 38.39 24.2 38.39C23.7 38.39 23.3 38 23.3 37.5L23.3 37C23.3 35.39 24.6 34.1 26.2 34.1L45.8 34.1ZM45.8 46.89C47.39 46.89 48.7 45.6 48.7 44L48.7 43.5C48.7 43 48.3 42.6 47.8 42.6C47.3 42.6 46.89 43 46.89 43.5L46.89 44C46.89 44.6 46.39 45.1 45.8 45.1L26.2 45.1C25.6 45.1 25.1 44.6 25.1 44L25.1 43.5C25.1 43 24.7 42.6 24.2 42.6C23.7 42.6 23.3 43 23.3 43.5L23.3 44C23.3 45.6 24.6 46.89 26.2 46.89L45.8 46.89Z" fill="#FFFFFF" fill-opacity="1.000000" fill-rule="evenodd"/>
	</g>
</svg>
