<svg width="72.000000" height="72.000000" viewBox="0 0 72 72" fill="none" xmlns="http://www.w3.org/2000/svg" xmlns:xlink="http://www.w3.org/1999/xlink">
	<desc>
			Created with Pixso.
	</desc>
	<defs>
		<clipPath id="clip117_217">
			<rect id="7#应用管理与运维平台-ServiceStage" width="72.000000" height="72.000000" fill="white" fill-opacity="0"/>
		</clipPath>
	</defs>
	<g clip-path="url(#clip117_217)">
		<path id="矩形备份-19" d="M16 0L56 0C64.8 0 72 7.2 72 16L72 56C72 64.79 64.8 72 56 72L16 72C7.19 72 0 64.79 0 56L0 16C0 7.2 7.19 0 16 0Z" fill="#00C4BE" fill-opacity="1.000000" fill-rule="evenodd"/>
		<path id="形状结合" d="M36.49 18C42.17 18 47 21.91 48.62 27.33C55.02 28.04 60 33.73 60 40.62C60 47.91 54.46 53.83 47.57 54L47.27 54L24.01 54C17.31 53.6 12 47.75 12 40.62C12 33.37 17.5 27.47 24.37 27.25C26.02 21.89 30.82 18 36.49 18ZM41.96 42.56C39.79 40.35 35.57 39.85 30.8 41.23C30.46 41.33 30.31 41.68 30.45 41.96C30.55 42.27 30.89 42.41 31.16 42.27L31.61 42.16C33.64 41.62 35.68 41.48 37.42 41.73L37.61 41.75L37.32 41.87C35.77 42.54 34.59 43.6 34.03 44.89L33.82 44.79C31.9 43.37 30.36 42.66 28.4 42.52C28.05 42.52 27.81 42.75 27.81 43.1C27.81 43.43 28.05 43.68 28.39 43.68C30.77 43.89 32.45 44.93 34.92 47.25C35.66 47.91 35.87 48.1 36.11 48.29L36.6 48.68C37.87 49.66 38.91 50.14 40.1 50.14C40.21 50.14 40.29 50.14 40.35 50.14L40.47 50.12C40.6 50.12 40.72 50.08 40.85 50.04C42.1 49.87 43.02 49.06 43.38 47.79C43.93 46.06 43.45 44.02 42.12 42.73L41.96 42.56ZM42.47 46.54L42.46 46.68C42.43 46.85 42.4 47.04 42.36 47.25L42.31 47.45L42.26 47.6C42 48.27 41.41 48.73 40.67 48.89L40.49 48.91C40.1 48.93 39.73 48.89 39.25 48.77L39.28 48.54C39.89 47.29 40.83 46.71 42.47 46.54ZM37.06 47.41C37.55 45.46 39.62 44.21 41.87 44.5L42 44.52L42.07 44.68C42.16 44.91 42.26 45.14 42.33 45.35C40.3 45.56 38.99 46.47 38.13 48.25L37.87 48.16C37.77 48.08 37.66 48 37.54 47.91L37.06 47.41ZM39.88 42.48L40.08 42.56C40.37 42.72 40.65 42.91 40.95 43.16L41.11 43.29C38.92 43.39 36.88 44.6 36.09 46.43L36 46.62L35.85 46.47L35.61 46.24L35.24 45.91L35.02 45.73L35.05 45.62C35.59 43.89 37.55 42.66 39.67 42.49L39.88 42.48ZM45.65 29.43C43.53 28.47 40.35 28.72 36.81 30.12L36.45 30.27C33.21 31.77 30.75 34.33 28.96 38.04L29.1 38.1L28.96 38.04L28.7 38.64C26.77 42.58 25.98 43.52 24.32 43.29C24.16 43.29 24.01 42.89 24.01 42.41C24.01 41.23 25.03 40.12 26.91 40.06L27.02 40.04C27.31 40 27.5 39.77 27.5 39.48C27.5 39.18 27.3 38.95 27.01 38.91L26.9 38.89L26.75 38.89C26.5 38.89 26.34 38.91 26.17 38.96C25.38 38.16 24.84 36.52 25.06 34.91C25.06 34.56 24.91 34.33 24.61 34.24C24.22 34.23 24 34.37 23.89 34.68L23.87 34.98C23.72 36.56 24.13 38.14 24.9 39.27C23.68 39.87 22.93 41.08 22.85 42.31C22.76 43.41 23.33 44.35 24.21 44.45L24.65 44.45C26.8 44.45 27.87 43.12 29.77 39.1L30.03 38.49C31.75 34.93 34.15 32.52 37.28 31.24C40.45 29.97 43.31 29.7 45.2 30.46C46.05 30.87 46.62 31.47 46.95 32.27L46.98 32.39C47.21 33.39 46.21 34.56 44.28 35.74L44.11 35.83L43.87 35.74C43 35.41 42 35.18 41.07 35.1C38.63 34.89 34.99 35.52 33.87 36.62C33.55 36.93 33.39 37.37 33.39 37.75C33.39 38.08 33.59 38.41 34 38.66C35.1 39.41 38.49 39.52 40.24 38.93C40.35 38.89 41.39 38.48 41.82 38.29L42.32 38.08C42.82 37.87 43.29 37.66 43.74 37.43L44.12 37.25C44.71 37.56 45.1 37.89 45.1 38.1C45.1 38.24 45.1 38.29 45.07 38.37C45.04 38.46 44.99 38.52 44.89 38.58C44.22 39.33 42.43 39.85 40.88 39.77C40.54 39.77 40.3 40 40.3 40.35C40.3 40.68 40.54 40.93 40.88 40.93C42.62 41.02 44.86 40.33 45.8 39.33C46.2 38.83 46.37 38.37 46.27 37.91L46.24 37.75C46.12 37.37 45.84 36.97 45.41 36.6L45.26 36.48L45.54 36.29C47.59 34.89 48.55 33.43 48.02 31.93C47.63 30.83 46.81 29.95 45.65 29.43ZM23.05 36.96C23.05 36.6 22.68 36.37 22.33 36.49C22.01 36.48 21.77 36.83 21.88 37.2L21.92 37.39C22.13 38.27 22.66 39.02 23.6 39.77L23.96 39.79C24.09 39.79 24.3 39.7 24.41 39.58C24.64 39.35 24.58 39 24.33 38.75C23.52 38.16 23.12 37.58 23.05 36.96ZM34.65 37.64C34.66 37.58 34.71 37.5 34.79 37.43C35.47 36.77 37.95 36.27 40.27 36.27L41.06 36.27L41.52 36.33C42.02 36.41 42.36 36.47 42.67 36.56C41.83 36.99 41.03 37.37 39.87 37.79C38.6 38.27 35.95 38.24 34.88 37.79L34.65 37.64Z" fill="#FFFFFF" fill-opacity="1.000000" fill-rule="evenodd"/>
	</g>
</svg>
