<svg width="72.000000" height="72.000000" viewBox="0 0 72 72" fill="none" xmlns="http://www.w3.org/2000/svg" xmlns:xlink="http://www.w3.org/1999/xlink">
	<desc>
			Created with Pixso.
	</desc>
	<defs>
		<clipPath id="clip117_230">
			<rect id="8#性能测试-CodeArts-PerfTest" width="72.000000" height="72.000000" fill="white" fill-opacity="0"/>
		</clipPath>
	</defs>
	<g clip-path="url(#clip117_230)">
		<path id="矩形备份-19" d="M16 0L56 0C64.8 0 72 7.2 72 16L72 56C72 64.79 64.8 72 56 72L16 72C7.19 72 0 64.79 0 56L0 16C0 7.2 7.19 0 16 0Z" fill="#25C251" fill-opacity="1.000000" fill-rule="evenodd"/>
		<path id="形状结合" d="M56 11C58.76 11 61 13.24 61 16L61 56C61 58.75 58.76 61 56 61L47.87 61C47.42 62.72 45.86 64 44 64C41.79 64 40 62.21 40 60C40 57.79 41.79 56 44 56C45.86 56 47.42 57.27 47.87 59L56 59C57.65 59 59 57.66 59 56L59 16C59 14.33 57.65 13 56 13L36 13C35.45 13 35 12.54 35 12C35 11.45 35.45 11 36 11L56 11ZM28 8C30.21 8 32 9.79 32 12C32 14.21 30.21 16 28 16C26.13 16 24.57 14.73 24.12 13L16 13C14.34 13 13 14.33 13 16L13 56C13 57.66 14.34 59 16 59L36 59C36.55 59 37 59.45 37 60C37 60.54 36.55 61 36 61L16 61C13.24 61 11 58.75 11 56L11 16C11 13.24 13.24 11 16 11L24.12 11C24.57 9.27 26.13 8 28 8ZM35.2 36.02C35.74 36.12 36.09 36.66 35.98 37.2C35 42.02 32.57 43.62 28.62 43.62C28.18 43.62 27.82 43.6 27.35 43.56L26.5 43.48C25.54 43.39 25.39 43.49 25.04 43.98C24.99 44.04 24.93 44.12 24.87 44.22L24.8 44.35C23.88 45.99 22.38 47.18 20.34 47.93C19.82 48.12 19.25 47.87 19.06 47.35C18.87 46.83 19.12 46.25 19.64 46.06C21.16 45.5 22.25 44.68 22.92 43.6L23.06 43.39C23.17 43.18 23.29 43 23.4 42.83C24.34 41.52 25.06 41.35 27.01 41.52L27.76 41.6C28.07 41.62 28.33 41.64 28.62 41.64C31.67 41.64 33.24 40.6 34.02 36.81C34.12 36.25 34.65 35.91 35.2 36.02ZM47 36.91C47.29 40.31 48.75 41.48 51.79 40.81C52.33 40.7 52.86 41.04 52.98 41.58C53.1 42.12 52.75 42.66 52.21 42.77C47.95 43.7 45.39 41.66 45 37.08C44.95 36.52 45.36 36.04 45.9 36C46.46 35.95 46.95 36.35 47 36.91ZM51.7 33C52.25 33 52.7 33.45 52.7 34C52.7 34.54 52.25 35 51.7 35L20.29 35C19.75 35 19.29 34.54 19.29 34C19.29 33.45 19.75 33 20.29 33L51.7 33ZM46 30.93C46.04 31.48 45.62 31.96 45.08 32C44.53 32.04 44.05 31.62 44.01 31.08C43.66 26.37 42.6 24.66 40.98 25.08C38.96 25.6 37.61 27.56 36.99 31.18C36.89 31.72 36.37 32.08 35.83 32C35.29 31.91 34.91 31.39 35 30.83C35.75 26.54 37.55 23.91 40.47 23.14C43.79 22.27 45.58 25.14 46 30.93Z" fill="#FFFFFF" fill-opacity="1.000000" fill-rule="nonzero"/>
	</g>
</svg>
