<svg width="72.000000" height="72.000000" viewBox="0 0 72 72" fill="none" xmlns="http://www.w3.org/2000/svg" xmlns:xlink="http://www.w3.org/1999/xlink">
	<desc>
			Created with Pixso.
	</desc>
	<defs>
		<clipPath id="clip117_181">
			<rect id="1#企业主机安全-HSS" width="72.000000" height="72.000000" fill="white" fill-opacity="0"/>
		</clipPath>
	</defs>
	<g clip-path="url(#clip117_181)">
		<path id="矩形备份-19" d="M15.95 0L55.95 0C64.75 0 71.95 7.2 71.95 16L71.95 56C71.95 64.79 64.75 72 55.95 72L15.95 72C7.15 72 -0.05 64.79 -0.05 56L-0.05 16C-0.05 7.2 7.15 0 15.95 0Z" fill="#1476FF" fill-opacity="1.000000" fill-rule="evenodd"/>
		<path id="形状结合" d="M35.95 12C36.85 12 37.65 12.2 38.25 12.7C39.95 14 41.75 15.6 46.35 17.79C48.65 18.89 53.25 20.39 55.55 21.2C57.05 21.7 58.05 23.1 57.85 24.6C57.45 29.5 56.25 39.2 53.25 45.2C49.75 52.1 41.05 57.39 37.65 59.5C37.15 59.79 36.55 60 35.95 60C35.35 60 34.75 59.79 34.25 59.5C30.85 57.39 22.05 52.1 18.65 45.2C15.65 39.2 14.45 29.5 14.05 24.6C13.95 23 14.85 21.7 16.35 21.2C18.65 20.39 23.25 18.89 25.55 17.79C30.15 15.5 31.95 14 33.65 12.7C34.25 12.2 35.05 12 35.95 12ZM43.65 22.89L28.25 22.89C27.05 22.89 26.05 23.89 26.05 25.1L26.05 46.89C26.05 48.1 27.05 49.1 28.25 49.1L43.65 49.1C44.85 49.1 45.85 48.1 45.85 46.89L45.85 25.1C45.85 23.89 44.85 22.89 43.65 22.89ZM35.95 38.29C37.85 38.29 39.35 39.79 39.35 41.6C39.35 43.39 37.85 44.89 35.95 44.89C34.05 44.89 32.55 43.39 32.55 41.6C32.55 39.79 34.05 38.29 35.95 38.29ZM35.95 40.29C35.15 40.29 34.55 40.89 34.55 41.6C34.55 42.29 35.15 42.89 35.95 42.89C36.75 42.89 37.35 42.29 37.35 41.6C37.25 40.89 36.65 40.29 35.95 40.29ZM41.55 32.39C42.15 32.39 42.55 32.79 42.55 33.39C42.55 34 42.15 34.39 41.55 34.39L30.35 34.39C29.75 34.39 29.35 34 29.35 33.39C29.35 32.79 29.75 32.39 30.35 32.39L41.55 32.39ZM41.55 28.39C42.15 28.39 42.55 28.79 42.55 29.39C42.55 30 42.15 30.39 41.55 30.39L30.35 30.39C29.75 30.39 29.35 30 29.35 29.39C29.35 28.79 29.75 28.39 30.35 28.39L41.55 28.39Z" fill="#FFFFFF" fill-opacity="1.000000" fill-rule="evenodd"/>
	</g>
</svg>
