<svg width="72.000000" height="72.000000" viewBox="0 0 72 72" fill="none" xmlns="http://www.w3.org/2000/svg" xmlns:xlink="http://www.w3.org/1999/xlink">
	<desc>
			Created with Pixso.
	</desc>
	<defs>
		<clipPath id="clip117_297">
			<rect id="10#密钥管理服务-KMS" width="72.000000" height="72.000000" fill="white" fill-opacity="0"/>
		</clipPath>
	</defs>
	<g clip-path="url(#clip117_297)">
		<path id="矩形备份-19" d="M16 0L56 0C64.8 0 72 7.2 72 16L72 56C72 64.79 64.8 72 56 72L16 72C7.19 72 0 64.79 0 56L0 16C0 7.2 7.19 0 16 0Z" fill="#25C251" fill-opacity="1.000000" fill-rule="evenodd"/>
		<path id="形状结合" d="M36.3 12C36.7 12 37.5 12.2 38.2 12.6C41.5 15.7 48.8 19.6 56.5 21C57.7 21.2 58.2 23.5 58 24.5C58 25.29 57.8 26.1 57.8 27C57.4 32.29 56.3 40.7 51.6 47.29C48.1 52.2 42.4 57.1 37.4 59.79C37.2 59.79 37 60 36.4 60C35.8 60 35.4 60 35.2 59.79C30.4 57.1 24.6 52.2 21 47.29C15.6 40.1 15 32.29 14.3 27C14.3 26 14.1 25.2 14.1 24.29C14.1 23.29 14.9 21.2 16 21C23.7 19.39 30.8 15.7 34.3 12.6C34.8 12 35.9 12 36.3 12ZM36 22C31.8 22 28.4 25.39 28.4 29.6C28.4 33.5 31.3 36.7 35 37.1L35 50.5L37 50.5L37 48.6L40.7 48.6L40.7 46.6L37 46.6L37 45.29L40.7 45.29L40.7 43.29L37 43.29L37 37.1C40.7 36.6 43.5 33.39 43.5 29.6C43.6 25.39 40.2 22 36 22ZM36 24C39.1 24 41.6 26.5 41.6 29.6C41.6 32.7 39.1 35.2 36 35.2C32.9 35.2 30.4 32.7 30.4 29.6C30.4 26.5 32.9 24 36 24Z" fill="#FFFFFF" fill-opacity="1.000000" fill-rule="evenodd"/>
	</g>
</svg>
