<svg width="72.000000" height="72.000000" viewBox="0 0 72 72" fill="none" xmlns="http://www.w3.org/2000/svg" xmlns:xlink="http://www.w3.org/1999/xlink">
	<desc>
			Created with Pixso.
	</desc>
	<defs>
		<clipPath id="clip117_183">
			<rect id="11#态势感知-SSA" width="72.000000" height="72.000000" fill="white" fill-opacity="0"/>
		</clipPath>
	</defs>
	<g clip-path="url(#clip117_183)">
		<path id="矩形备份-19" d="M16 0L56 0C64.8 0 72 7.2 72 16L72 56C72 64.79 64.8 72 56 72L16 72C7.19 72 0 64.79 0 56L0 16C0 7.2 7.19 0 16 0Z" fill="#7DCC29" fill-opacity="1.000000" fill-rule="evenodd"/>
		<path id="形状结合" d="M36 12C36.8 12 37.7 12.2 38.3 12.7C40 14 41.8 15.6 46.4 17.79C48.7 18.89 53.3 20.39 55.6 21.2C57.1 21.7 58.1 23.1 57.9 24.6C57.5 29.5 56.3 39.2 53.3 45.2C49.8 52.1 41.1 57.39 37.7 59.5C37.2 59.79 36.6 60 36 60C35.4 60 34.8 59.79 34.3 59.5C30.9 57.39 22.1 52.1 18.7 45.2C15.7 39.2 14.5 29.5 14.1 24.6C14 23 14.9 21.7 16.4 21.2C18.7 20.39 23.3 18.89 25.6 17.79C30.2 15.5 32 14 33.7 12.7C34.3 12.2 35.1 12 36 12ZM47 25.1L25 25.1C23.8 25.1 22.8 26.1 22.8 27.29L22.8 42.6C22.8 43.79 23.8 44.79 25 44.79L26.5 44.79L26.5 40.6C26.5 40 26.9 39.6 27.5 39.6C28.1 39.6 28.5 40 28.5 40.6L28.5 44.79L32 44.79L32 38.39C32 37.79 32.4 37.39 33 37.39C33.6 37.39 34 37.79 34 38.39L34 44.79L37.7 44.79L37.7 39.7C37.7 39.1 38.1 38.7 38.7 38.7C39.3 38.7 39.7 39.1 39.7 39.7L39.7 44.79L43.4 44.79L43.4 36.39C43.4 35.79 43.8 35.39 44.4 35.39C45 35.39 45.4 35.79 45.4 36.39L45.4 44.79L47 44.79C48.2 44.79 49.2 43.79 49.2 42.6L49.2 27.29C49.2 26.1 48.2 25.1 47 25.1ZM43 27.7C43.4 27.39 44.1 27.5 44.4 27.89C44.7 28.29 44.6 29 44.2 29.29L39.2 33.1C39 33.2 38.8 33.29 38.6 33.29L33.4 33.29L28.7 36.79C28.3 37.1 27.7 37.1 27.4 36.7L27.3 36.6C27 36.2 27.1 35.5 27.5 35.2L32.5 31.5C32.7 31.39 32.9 31.29 33.1 31.29L38.3 31.29L43 27.7Z" fill="#FFFFFF" fill-opacity="1.000000" fill-rule="evenodd"/>
	</g>
</svg>
