<svg width="72.000000" height="72.000000" viewBox="0 0 72 72" fill="none" xmlns="http://www.w3.org/2000/svg" xmlns:xlink="http://www.w3.org/1999/xlink">
	<desc>
			Created with Pixso.
	</desc>
	<defs>
		<clipPath id="clip117_177">
			<rect id="12#数据库安全服务-DBSS" width="72.000000" height="72.000000" fill="white" fill-opacity="0"/>
		</clipPath>
	</defs>
	<g clip-path="url(#clip117_177)">
		<path id="矩形备份-19" d="M16 0L56 0C64.8 0 72 7.2 72 16L72 56C72 64.79 64.8 72 56 72L16 72C7.19 72 0 64.79 0 56L0 16C0 7.2 7.19 0 16 0Z" fill="#1476FF" fill-opacity="1.000000" fill-rule="evenodd"/>
		<path id="形状结合" d="M36 12C36.89 12 37.8 12.2 38.7 12.7L54.8 22C56.5 23 57.5 24.79 57.5 26.7L57.5 45.2C57.5 47.2 56.5 49 54.8 49.89L38.7 59.2C37.8 59.79 36.89 60 36 60C35.1 60 34.2 59.79 33.3 59.29L17.2 50C15.5 49 14.5 47.2 14.5 45.29L14.5 26.79C14.5 24.79 15.5 23 17.2 22.1L33.3 12.79C34.2 12.2 35.1 12 36 12ZM36 21.79C35.5 21.79 35 21.89 34.6 22.2C33.6 23 32.6 23.89 29.8 25.2C28.39 25.89 25.8 26.79 24.39 27.2C23.5 27.5 22.89 28.29 23 29.2C23.2 32.1 23.89 37.79 25.7 41.39C27.7 45.5 32.8 48.6 34.89 49.79C35.2 50 35.6 50.1 35.89 50.1C36.2 50.1 36.6 50 36.89 49.79C38.89 48.6 44 45.39 46.1 41.39C47.89 37.89 48.6 32.1 48.8 29.2C48.89 28.29 48.3 27.5 47.39 27.2C46 26.7 43.3 25.79 42 25.2C39.3 23.79 38.3 22.89 37.2 22.2C37 21.89 36.5 21.79 36 21.79ZM36 26.2C36.3 26.2 36.7 26.29 36.89 26.5C37.6 27 38.3 27.7 40.1 28.6C41 29.1 42.8 29.7 43.7 30C44.3 30.2 44.7 30.79 44.6 31.39C44.39 33.39 44 37.39 42.8 39.79C41.39 42.6 38 44.79 36.7 45.6C36.5 45.7 36.3 45.79 36 45.79C35.7 45.79 35.5 45.7 35.3 45.6C34 44.79 30.5 42.6 29.2 39.79C28 37.39 27.5 33.39 27.39 31.39C27.3 30.79 27.7 30.2 28.3 30C29.2 29.7 31 29.1 31.89 28.6C33.7 27.7 34.39 27 35.1 26.5C35.3 26.29 35.7 26.2 36 26.2ZM36 27.6C35.8 27.6 35.8 27.6 35.7 27.6L35.39 27.79C34.8 28.29 34 28.89 32.39 29.7C31.6 30.1 30.1 30.7 29.1 31L28.8 31.1C28.7 31.1 28.6 31.2 28.6 31.39C28.7 32.6 29.1 36.79 30.2 39.1C31 40.79 32.89 42.5 35.7 44.29L35.89 44.29C38.7 42.5 40.6 40.79 41.39 39.1C42.5 36.7 42.89 32.6 43 31.39C43 31.2 42.89 31.2 42.8 31.1L42.5 31C41.5 30.7 40.1 30.1 39.2 29.7C37.6 28.89 36.8 28.29 36.2 27.79L36 27.6Z" fill="#FFFFFF" fill-opacity="1.000000" fill-rule="evenodd"/>
	</g>
</svg>
