<svg width="72.000000" height="72.000000" viewBox="0 0 72 72" fill="none" xmlns="http://www.w3.org/2000/svg" xmlns:xlink="http://www.w3.org/1999/xlink">
	<desc>
			Created with Pixso.
	</desc>
	<defs>
		<clipPath id="clip117_174">
			<rect id="13#云防火墙-CFW" width="72.000000" height="72.000000" fill="white" fill-opacity="0"/>
		</clipPath>
	</defs>
	<g clip-path="url(#clip117_174)">
		<path id="矩形备份-19" d="M16 0L56 0C64.8 0 72 7.2 72 16L72 56C72 64.79 64.8 72 56 72L16 72C7.19 72 0 64.79 0 56L0 16C0 7.2 7.19 0 16 0Z" fill="#F85835" fill-opacity="1.000000" fill-rule="evenodd"/>
		<path id="形状结合" d="M36 12C36.8 12 37.59 12.2 38.3 12.7C40.8 14.7 43.5 16.5 46.39 17.79C49.39 19.1 52.5 20.2 55.59 21.2C57.09 21.6 58.09 23.1 58 24.6C57.59 29.5 56.39 39.2 53.39 45.2C49.89 52.1 41.2 57.39 37.8 59.5C36.7 60.2 35.39 60.2 34.3 59.5C30.89 57.39 22.2 52.1 18.7 45.2C15.7 39.2 14.5 29.5 14 24.6C13.89 23 14.8 21.6 16.39 21.2C19.5 20.2 22.59 19.1 25.59 17.79C28.5 16.39 31.2 14.7 33.7 12.7C34.3 12.29 35 12 35.7 12L36 12ZM30 40.2L30 44.2L42.89 44.2C45.7 44.2 48.09 42.6 49.09 40.2L30 40.2ZM28 40.2L22.8 40.2C23.09 41 23.59 41.7 24.2 42.29C25.2 43.29 26.59 44 28 44.1L28 40.2ZM48.8 34.39L44.39 34.39L44.39 38.29L49.7 38.29C49.7 38.1 49.7 37.89 49.7 37.79C49.7 36.5 49.39 35.29 48.8 34.39ZM42.39 34.39L23.09 34.39C22.5 35.39 22.2 36.5 22.3 37.7C22.3 37.89 22.3 38.1 22.3 38.29L42.39 38.29L42.39 34.39ZM36 25.6L35.8 25.6C35.39 25.6 35 25.7 34.59 25.79L34.59 32.39L47 32.39C46.09 31.79 45 31.29 43.8 31.2C43.2 31.1 42.59 30.7 42.39 30.1C41.5 27.5 39.09 25.79 36.3 25.7L36 25.6ZM32.5 26.6C31.2 27.39 30.2 28.6 29.7 30C29.5 30.6 28.89 31 28.3 31.1C27 31.2 25.89 31.7 25 32.39L32.59 32.39L32.5 26.6Z" fill="#FFFFFF" fill-opacity="1.000000" fill-rule="nonzero"/>
	</g>
</svg>
