<svg width="72.000000" height="72.000000" viewBox="0 0 72 72" fill="none" xmlns="http://www.w3.org/2000/svg" xmlns:xlink="http://www.w3.org/1999/xlink">
	<desc>
			Created with Pixso.
	</desc>
	<defs>
		<clipPath id="clip117_190">
			<rect id="14#云堡垒机-CBH" width="72.000000" height="72.000000" fill="white" fill-opacity="0"/>
		</clipPath>
	</defs>
	<g clip-path="url(#clip117_190)">
		<path id="矩形备份-19" d="M16 0L56 0C64.8 0 72 7.2 72 16L72 56C72 64.79 64.8 72 56 72L16 72C7.19 72 0 64.79 0 56L0 16C0 7.2 7.19 0 16 0Z" fill="#00C4BE" fill-opacity="1.000000" fill-rule="evenodd"/>
		<path id="形状结合" d="M36.09 12C37.2 12 38.2 12.29 39 12.89L39.7 13.5C41.09 14.6 42.79 15.89 46.5 17.7C48.5 18.6 52.09 19.89 54.29 20.7L55.09 20.89C57.2 21.5 58.29 23.29 58.09 25.2C57.79 29.2 56.7 39 53.59 45.2C50 52.29 41.2 57.5 38.29 59.29C37.7 59.79 36.89 60 36.09 60C35.29 60 34.5 59.79 33.79 59.29C30.89 57.6 22.09 52.29 18.5 45.39C15.39 39.2 14.39 29.39 14 25.39C13.79 23.29 15 21.6 17 20.89L17.89 20.7C20.09 19.89 23.89 18.6 25.7 17.7C29.39 15.89 31 14.6 32.5 13.5L33.2 12.89C34 12.29 34.89 12 36.09 12ZM25.7 35.1L25.7 44.5C25.7 44.79 25.89 45.1 26.29 45.1L32 45.1C32.29 45.1 32.59 44.89 32.59 44.5L32.59 41.6C32.59 39.7 34.09 38.2 36 38.2C38 38.2 39.39 39.7 39.39 41.6L39.39 44.5C39.39 44.79 39.59 45.1 40 45.1L45.7 45.1C46 45.1 46.29 44.89 46.29 44.5L46.29 35.1L25.7 35.1ZM25.7 33.7L46.39 33.7L46.39 27.39C46.39 27.1 46.2 26.79 45.79 26.79L43.5 26.79C43.2 26.79 42.89 27 42.89 27.39L42.89 29.1L41.8 29.1L41.8 27.39C41.8 27.1 41.59 26.79 41.2 26.79L37.8 26.79C37.5 26.79 37.2 27 37.2 27.39L37.2 29.1L34.89 29.1L34.89 27.39C34.89 27.1 34.7 26.79 34.3 26.79L30.89 26.79C30.59 26.79 30.3 27 30.3 27.39L30.3 29.1L29.2 29.1L29.2 27.39C29.2 27.1 29 26.79 28.59 26.79L26.3 26.79C26 26.79 25.7 27 25.7 27.39L25.7 33.7Z" fill="#FFFFFF" fill-opacity="1.000000" fill-rule="evenodd"/>
	</g>
</svg>
