<svg width="72.000000" height="72.000000" viewBox="0 0 72 72" fill="none" xmlns="http://www.w3.org/2000/svg" xmlns:xlink="http://www.w3.org/1999/xlink">
	<desc>
			Created with Pixso.
	</desc>
	<defs>
		<clipPath id="clip117_182">
			<rect id="15#威胁检测服务-MTD" width="72.000000" height="72.000000" fill="white" fill-opacity="0"/>
		</clipPath>
	</defs>
	<g clip-path="url(#clip117_182)">
		<path id="矩形备份-19" d="M15.95 0L55.95 0C64.75 0 71.95 7.2 71.95 16L71.95 56C71.95 64.79 64.75 72 55.95 72L15.95 72C7.15 72 -0.05 64.79 -0.05 56L-0.05 16C-0.05 7.2 7.15 0 15.95 0Z" fill="#FF9A2E" fill-opacity="1.000000" fill-rule="evenodd"/>
		<path id="形状结合" d="M35.95 12.01C36.79 12.01 37.66 12.24 38.27 12.7C39.99 14 41.74 15.55 46.37 17.84C48.68 18.98 53.27 20.48 55.6 21.27C57.11 21.78 58.08 23.12 57.95 24.7C57.55 29.57 56.34 39.3 53.32 45.26C49.85 52.11 41.14 57.48 37.7 59.54C37.15 59.85 36.55 60.01 35.96 60.01C35.36 60.01 34.77 59.85 34.23 59.52C30.79 57.46 22.08 52.1 18.61 45.24C15.59 39.28 14.38 29.55 13.98 24.68C13.85 23.11 14.82 21.76 16.32 21.25C18.65 20.46 23.23 18.97 25.55 17.82C30.18 15.54 31.93 13.98 33.65 12.68C34.26 12.22 35.11 12.01 35.95 12.01ZM36.39 25.51C35.91 25.53 35.5 25.87 35.41 26.35L33.59 34.29L32.52 34.29C32.36 34 32.05 33.77 31.72 33.75L31.35 33.75C30.98 33.05 30.33 32.49 29.56 32.26L26.27 31.27L26.13 31.25L25.98 31.25C25.3 31.11 24.51 31.24 23.82 31.62C23.1 32.04 22.61 32.74 22.47 33.55C22.42 33.81 22.47 34.09 22.63 34.32C22.79 34.55 23.02 34.71 23.3 34.77C23.57 34.83 23.85 34.78 24.09 34.62C24.33 34.46 24.49 34.22 24.54 33.94C24.58 33.73 24.71 33.56 24.89 33.46C25.17 33.32 25.5 33.28 25.81 33.35L29.08 34.31L29.18 34.35C29.33 34.42 29.46 34.54 29.55 34.7L29.57 34.8L29.57 36.03C29.48 36.22 29.29 36.41 29.09 36.48L25.81 37.48L25.69 37.5C25.29 37.56 24.89 37.38 24.67 37.03C24.67 36.45 24.19 35.95 23.61 35.95C23.03 35.95 22.56 36.42 22.56 37L22.56 37.44L22.6 37.64C23.1 38.8 24.23 39.55 25.5 39.57C25.81 39.57 26.11 39.52 26.4 39.42L29.68 38.44L29.86 38.37C30.52 38.09 31.04 37.58 31.34 36.95L31.7 36.95L31.82 36.94C32.13 36.89 32.38 36.71 32.52 36.46L34.45 36.4C34.94 36.4 35.37 36.06 35.48 35.58L36.18 32.46L37.47 41.86C37.55 42.34 37.93 42.7 38.4 42.76L38.52 42.76L38.64 42.75C39.04 42.71 39.38 42.43 39.51 42.04L41.46 36.4L42.24 36.4C42.8 37.93 44.27 39.03 46 39.03C48.21 39.03 50 37.24 50 35.03C50 32.82 48.21 31.03 46 31.03C44.04 31.03 42.41 32.44 42.07 34.31L40.73 34.31L40.61 34.32C40.21 34.37 39.88 34.64 39.74 35.02L38.97 37.23L37.49 26.44C37.42 25.96 37.03 25.59 36.55 25.54L36.39 25.51ZM45.96 33.01C47.06 33.01 47.96 33.91 47.96 35.01C47.96 36.11 47.06 37.01 45.96 37.01C44.86 37.01 43.96 36.11 43.96 35.01C43.96 33.91 44.85 33.01 45.96 33.01Z" fill="#FFFFFF" fill-opacity="1.000000" fill-rule="evenodd"/>
	</g>
</svg>
