<svg width="72.000000" height="72.000000" viewBox="0 0 72 72" fill="none" xmlns="http://www.w3.org/2000/svg" xmlns:xlink="http://www.w3.org/1999/xlink">
	<desc>
			Created with Pixso.
	</desc>
	<defs>
		<clipPath id="clip117_176">
			<rect id="16#安全治理云图-Compass" width="72.000000" height="72.000000" fill="white" fill-opacity="0"/>
		</clipPath>
	</defs>
	<g clip-path="url(#clip117_176)">
		<path id="矩形备份-19" d="M16 0L56 0C64.8 0 72 7.2 72 16L72 56C72 64.79 64.8 72 56 72L16 72C7.19 72 0 64.79 0 56L0 16C0 7.2 7.19 0 16 0Z" fill="#00ABED" fill-opacity="1.000000" fill-rule="evenodd"/>
		<path id="形状结合" d="M36 12C36.9 12 37.7 12.2 38.3 12.7C40 14 41.8 15.6 46.4 17.79C48.7 18.89 53.3 20.39 55.6 21.2C57.1 21.7 58.1 23.1 57.9 24.6C57.5 29.5 56.3 39.2 53.3 45.2C49.8 52.1 41.1 57.39 37.7 59.5C37.2 59.79 36.6 60 36 60C35.4 60 34.8 59.79 34.3 59.5C30.9 57.39 22.1 52.1 18.7 45.2C15.7 39.2 14.5 29.5 14.1 24.6C14 23 14.9 21.7 16.4 21.2C18.7 20.39 23.3 18.89 25.6 17.79C30.2 15.5 32 14 33.7 12.7C34.3 12.2 35.1 12 36 12ZM36 26C33.2 26 30.7 27.79 29.8 30.29C26.6 30.7 24 33.39 24 36.7C24 40.2 26.9 43.1 30.5 43.1L41.7 43.1C45.2 42.89 48 40.1 48 36.7C48 33.29 45.5 30.6 42.2 30.29C41.3 27.79 38.8 26 36 26ZM38.2 39C38.6 39 39 39.29 39 39.79C39 40.29 38.7 40.6 38.2 40.6L33.7 40.6C33.3 40.6 32.9 40.29 32.9 39.79C32.9 39.29 33.2 39 33.7 39L38.2 39ZM38.1 30.79C38.7 31.29 39 32.1 39 32.89C39 33.7 38.5 34.29 38.1 35L36 38L33.9 34.89C33.5 34.29 33 33.6 33 32.79C33 32 33.3 31.29 33.9 30.7C35.1 29.7 36.9 29.7 38.1 30.79ZM36 32C35.4 32 35 32.39 35 33C35 33.6 35.4 34 36 34C36.6 34 37 33.6 37 33C37 32.39 36.6 32 36 32Z" fill="#FFFFFF" fill-opacity="1.000000" fill-rule="evenodd"/>
	</g>
</svg>
