<svg width="72.000000" height="72.000000" viewBox="0 0 72 72" fill="none" xmlns="http://www.w3.org/2000/svg" xmlns:xlink="http://www.w3.org/1999/xlink">
	<desc>
			Created with Pixso.
	</desc>
	<defs>
		<clipPath id="clip117_186">
			<rect id="17#漏洞管理服务-CodeArts Inspector" width="72.000000" height="72.000000" fill="white" fill-opacity="0"/>
		</clipPath>
	</defs>
	<g clip-path="url(#clip117_186)">
		<path id="矩形备份-19" d="M16 0L56 0C64.8 0 72 7.2 72 16L72 56C72 64.79 64.8 72 56 72L16 72C7.19 72 0 64.79 0 56L0 16C0 7.2 7.19 0 16 0Z" fill="#1476FF" fill-opacity="1.000000" fill-rule="evenodd"/>
		<path id="形状结合" d="M36 12C36.9 12 37.7 12.2 38.3 12.7C40 14 41.8 15.6 46.4 17.79C48.7 18.89 53.3 20.39 55.6 21.2C57.1 21.7 58.1 23.1 57.9 24.6C57.5 29.5 56.3 39.2 53.3 45.2C49.8 52.1 41.1 57.39 37.7 59.5C37.2 59.79 36.6 60 36 60C35.4 60 34.8 59.79 34.3 59.5C30.9 57.39 22.1 52.1 18.7 45.2C15.7 39.2 14.5 29.5 14.1 24.6C14 23 14.9 21.7 16.4 21.2C18.7 20.39 23.3 18.89 25.6 17.79C30.2 15.5 32 14 33.7 12.7C34.3 12.2 35.1 12 36 12ZM36.1 25.2C33.5 25.2 31.1 26.2 29.3 27.7L27.4 26C27.1 25.7 26.6 25.7 26.3 26C26 26.29 26 26.79 26.3 27.1L28.1 28.89C26.5 30.7 25.6 33.1 25.6 35.7C25.6 37.79 26.2 39.79 27.3 41.5L25.4 43.39C25.1 43.7 25.1 44.2 25.4 44.5C25.7 44.79 26.2 44.79 26.5 44.5L28.3 42.7C30.2 44.79 33 46.2 36.1 46.2C39.1 46.2 41.9 44.89 43.8 42.79L45.5 44.5C45.8 44.79 46.3 44.79 46.6 44.5C46.9 44.2 46.9 43.7 46.6 43.39L44.8 41.6C45.9 39.89 46.6 37.89 46.6 35.7C46.6 35.29 46.3 34.89 45.8 34.89C45.3 34.89 45 35.29 45 35.7C45 37.5 44.5 39.1 43.6 40.5L43.4 40.29C43.1 40 42.6 40 42.3 40.29C42 40.6 42 41.1 42.3 41.39L42.7 41.79C41.1 43.6 38.7 44.7 36.1 44.7C33.4 44.7 31 43.5 29.4 41.7L29.7 41.39C30 41.1 30 40.6 29.7 40.29C29.4 40 28.9 40 28.6 40.29L28.5 40.39C27.7 39 27.2 37.39 27.2 35.7C27.2 33.5 28 31.5 29.3 29.89L29.5 30.1C29.8 30.39 30.3 30.39 30.6 30.1C30.9 29.79 30.9 29.29 30.6 29L30.4 28.79C32 27.5 34 26.7 36.2 26.7C38.3 26.7 40.4 27.5 42 28.79L40.8 30C39.5 29 37.9 28.39 36.3 28.39C32.3 28.39 29.1 31.6 29.1 35.6C29.1 39.6 32.3 42.79 36.3 42.79C40.3 42.79 43.5 39.6 43.5 35.6C43.5 35.2 43.2 34.79 42.7 34.79C42.3 34.79 41.9 35.1 41.9 35.6C41.9 38.79 39.3 41.29 36.2 41.29C33 41.29 30.5 38.7 30.5 35.6C30.5 32.39 33.1 29.89 36.2 29.89C37.5 29.89 38.7 30.29 39.7 31.1L38.5 32.29C37.8 31.89 37.1 31.6 36.3 31.6C34.1 31.6 32.3 33.39 32.3 35.6C32.3 37.79 34.1 39.6 36.3 39.6C38.5 39.6 40.3 37.79 40.3 35.6C40.3 35.2 40 34.79 39.5 34.79C39.1 34.79 38.7 35.1 38.7 35.6C38.7 37 37.6 38.1 36.2 38.1C34.8 38.1 33.7 37 33.7 35.6C33.7 34.2 34.8 33.1 36.2 33.1C36.6 33.1 37 33.2 37.3 33.39L36.7 34C36.5 33.89 36.3 33.89 36.1 33.89C35.1 33.89 34.3 34.7 34.3 35.7C34.3 36.7 35.1 37.5 36.1 37.5C37.1 37.5 37.9 36.7 37.9 35.7C37.9 35.5 37.9 35.29 37.8 35.1L45.9 27C46.2 26.7 46.2 26.2 45.9 25.89C45.6 25.6 45.1 25.6 44.8 25.89L42.9 27.79C41 26.2 38.6 25.2 36.1 25.2Z" fill="#FFFFFF" fill-opacity="1.000000" fill-rule="evenodd"/>
	</g>
</svg>
