<svg width="72.000000" height="72.000000" viewBox="0 0 72 72" fill="none" xmlns="http://www.w3.org/2000/svg" xmlns:xlink="http://www.w3.org/1999/xlink">
	<desc>
			Created with Pixso.
	</desc>
	<defs>
		<clipPath id="clip117_180">
			<rect id="18#边缘安全-EdgeSec" width="72.000000" height="72.000000" fill="white" fill-opacity="0"/>
		</clipPath>
	</defs>
	<g clip-path="url(#clip117_180)">
		<path id="矩形备份-19" d="M16 0L56 0C64.8 0 72 7.2 72 16L72 56C72 64.79 64.8 72 56 72L16 72C7.19 72 0 64.79 0 56L0 16C0 7.2 7.19 0 16 0Z" fill="#1476FF" fill-opacity="1.000000" fill-rule="evenodd"/>
		<path id="形状结合" d="M36.36 11.99C36.78 11.99 37.61 12.2 38.23 12.61C41.56 15.69 48.85 19.58 56.56 21.02C57.81 21.23 58.23 23.48 58.02 24.51C58.02 25.33 57.81 26.15 57.81 26.97C57.39 32.3 56.35 40.71 51.56 47.28C48.02 52.2 42.4 57.13 37.4 59.79C37.19 59.79 36.98 60 36.36 60C35.74 60 35.32 60 35.11 59.79C30.32 57.12 24.49 52.2 20.95 47.28C15.53 40.1 14.91 32.31 14.28 26.97C14.28 25.94 14.07 25.12 14.07 24.3C14.07 23.27 14.9 21.22 15.94 21.02C23.65 19.38 30.73 15.69 34.27 12.61C34.9 11.99 35.94 11.99 36.36 11.99ZM36.07 22.48C34.64 22.48 33.48 23.64 33.48 25.07C33.48 25.14 33.48 25.2 33.49 25.27C31.84 26.09 30.56 27.6 29.99 29.44C26.4 29.55 23.53 32.63 23.53 36.42C23.53 38.25 24.2 39.91 25.29 41.15C25.08 41.52 24.97 41.95 24.97 42.4C24.97 43.83 26.13 44.99 27.56 44.99C28.64 44.99 29.56 44.33 29.95 43.4L41.96 43.4L42.12 43.4C42.34 43.39 42.57 43.38 42.78 43.35C43.16 44.31 44.1 44.99 45.19 44.99C46.62 44.99 47.78 43.83 47.78 42.4C47.78 41.77 47.55 41.19 47.18 40.74C48.08 39.55 48.61 38.05 48.61 36.41C48.61 32.81 46.01 29.84 42.67 29.47C42.05 27.42 40.56 25.78 38.66 25.04C38.65 23.62 37.49 22.48 36.07 22.48ZM36.07 22.98C37.22 22.98 38.16 23.92 38.16 25.07C38.16 25.81 37.78 26.46 37.19 26.83L37.19 31.89C38.32 32.34 39.11 33.45 39.11 34.73C39.11 35.11 39.04 35.48 38.91 35.81L44.44 40.45C44.67 40.36 44.92 40.31 45.18 40.31C46.33 40.31 47.27 41.25 47.27 42.4C47.27 43.55 46.33 44.49 45.18 44.49C44.03 44.49 43.09 43.55 43.09 42.4C43.09 42.25 43.11 42.11 43.13 41.97L37.63 37.35C37.17 37.63 36.62 37.79 36.04 37.79C35.49 37.79 34.97 37.64 34.52 37.39L29.53 41.73C29.6 41.94 29.64 42.17 29.64 42.4C29.64 43.55 28.7 44.49 27.55 44.49C26.4 44.49 25.46 43.55 25.46 42.4C25.46 41.25 26.4 40.31 27.55 40.31C27.72 40.31 27.89 40.33 28.04 40.37L33.2 35.89C33.05 35.53 32.97 35.14 32.97 34.73C32.97 33.33 33.9 32.16 35.18 31.79L35.18 26.97C34.46 26.64 33.97 25.91 33.97 25.07C33.98 23.91 34.92 22.98 36.07 22.98Z" fill="#FFFFFF" fill-opacity="1.000000" fill-rule="evenodd"/>
	</g>
</svg>
