<svg width="72.000000" height="72.000000" viewBox="0 0 72 72" fill="none" xmlns="http://www.w3.org/2000/svg" xmlns:xlink="http://www.w3.org/1999/xlink">
	<desc>
			Created with Pixso.
	</desc>
	<defs>
		<clipPath id="clip117_298">
			<rect id="19#管理检测与响应-MDR" width="72.000000" height="72.000000" fill="white" fill-opacity="0"/>
		</clipPath>
	</defs>
	<g clip-path="url(#clip117_298)">
		<path id="矩形备份-19" d="M16 0L56 0C64.8 0 72 7.2 72 16L72 56C72 64.79 64.8 72 56 72L16 72C7.19 72 0 64.79 0 56L0 16C0 7.2 7.19 0 16 0Z" fill="#00C4BE" fill-opacity="1.000000" fill-rule="evenodd"/>
		<path id="形状结合" d="M56.5 21C48.8 19.6 41.5 15.7 38.2 12.6C37.6 12.2 36.7 12 36.3 12C35.89 12 34.8 12 34.2 12.6C30.7 15.7 23.6 19.39 15.89 21C14.89 21.2 14 23.29 14 24.29C14 25.1 14.2 25.89 14.2 27C14.8 32.29 15.39 40.1 20.89 47.29C24.39 52.2 30.3 57.1 35.1 59.79C35.3 60 35.7 60 36.3 60C36.89 60 37.1 59.79 37.3 59.79C42.3 57.1 47.89 52.2 51.5 47.29C56.3 40.7 57.3 32.29 57.7 27C57.7 26.2 57.89 25.39 57.89 24.5C58.2 23.5 57.7 21.2 56.5 21ZM32.2 31.89L31 31.2L45.5 31.2C45.89 31.2 46.3 31.5 46.3 32L46.3 37C46.3 37.7 46.89 38.2 47.5 38.2C48.2 38.2 48.8 37.6 48.8 37L48.8 32C48.8 30.2 47.39 28.79 45.6 28.79L26.6 28.79C26 28.79 25.5 29.2 25.39 29.7C25.3 30.2 25.5 30.79 26 31.1L31 34.1C31.6 34.39 32.39 34.29 32.7 33.7C32.89 33 32.7 32.2 32.2 31.89ZM24.5 32.2C25.2 32.2 25.7 32.79 25.7 33.39L25.7 38.39C25.7 38.79 26 39.2 26.5 39.2L41 39.2L39.89 38.5C39.39 38.2 39.2 37.5 39.39 37L39.6 36.79C40 36.2 40.7 36.1 41.3 36.39L46.1 39.29C46.5 39.5 46.8 40 46.8 40.39C46.8 41.1 46.2 41.6 45.6 41.6L26.6 41.6C24.8 41.6 23.39 40.1 23.39 38.39L23.39 33.39C23.2 32.79 23.8 32.2 24.5 32.2Z" fill="#FFFFFF" fill-opacity="1.000000" fill-rule="evenodd"/>
	</g>
</svg>
