<svg width="72.000000" height="72.000000" viewBox="0 0 72 72" fill="none" xmlns="http://www.w3.org/2000/svg" xmlns:xlink="http://www.w3.org/1999/xlink">
	<desc>
			Created with Pixso.
	</desc>
	<defs>
		<clipPath id="clip117_187">
			<rect id="2#Web应用防火墙-WAF" width="72.000000" height="72.000000" fill="white" fill-opacity="0"/>
		</clipPath>
	</defs>
	<g clip-path="url(#clip117_187)">
		<path id="矩形备份-19" d="M16 0L56 0C64.8 0 72 7.2 72 16L72 56C72 64.79 64.8 72 56 72L16 72C7.19 72 0 64.79 0 56L0 16C0 7.2 7.19 0 16 0Z" fill="#25C251" fill-opacity="1.000000" fill-rule="evenodd"/>
		<path id="形状结合" d="M36.3 12C36.7 12 37.5 12.2 38.2 12.6C41.5 15.7 48.8 19.6 56.5 21C57.7 21.2 58.2 23.5 58 24.5C58 25.29 57.8 26.1 57.8 27C57.4 32.29 56.3 40.7 51.6 47.29C48.1 52.2 42.4 57.1 37.4 59.79C37.2 59.79 37 60 36.4 60C35.8 60 35.4 60 35.2 59.79C30.4 57.1 24.6 52.2 21 47.29C15.6 40.1 15 32.29 14.3 27C14.3 26 14.1 25.2 14.1 24.29C14.1 23.29 14.9 21.2 16 21C23.7 19.39 30.8 15.7 34.3 12.6C34.8 12 35.9 12 36.3 12ZM33.1 41.6L33.1 49.2C33.9 49.79 34.7 50.39 35.4 50.89C35.5 51 35.8 51 36.1 51C36.5 51 36.6 50.89 36.7 50.89C39.7 49.2 43 46.2 45.1 43.1C45.4 42.6 45.7 42.2 46 41.7L33.1 41.6ZM31.1 41.6L26.1 41.6C26.4 42.1 26.7 42.6 27 43C28.1 44.6 29.5 46.2 31.1 47.6L31.1 41.6ZM48.7 32.29C48.5 32.39 48.4 32.39 48.3 32.39L42.4 32.39L42.4 39.6L46.1 39.6C46.4 39.6 46.7 39.7 46.9 40C47.9 37.39 48.4 34.6 48.7 32.29ZM40.3 32.39L23.3 32.39C23.6 34.6 24 37.1 25.1 39.6L40.3 39.6L40.3 32.39ZM36.2 21C36 21 35.3 21 35 21.39C34.5 21.89 33.9 22.39 33.1 22.89L33.2 30.39L48.3 30.39C48.5 30.39 48.7 30.5 48.9 30.6C48.9 30.5 48.9 30.5 48.9 30.39C48.9 29.89 49 29.39 49 28.89C49.1 28.29 48.9 26.79 48.1 26.7C43.5 25.79 39.2 23.39 37.3 21.39C36.9 21.1 36.4 21 36.2 21ZM31.1 24C29.1 25.1 26.7 26 24.1 26.6C23.5 26.7 23 28 23 28.7L23 29C23 29.39 23.1 29.89 23.1 30.39L31.1 30.39L31.1 24Z" fill="#FFFFFF" fill-opacity="1.000000" fill-rule="evenodd"/>
	</g>
</svg>
