<svg width="72.000000" height="72.000000" viewBox="0 0 72 72" fill="none" xmlns="http://www.w3.org/2000/svg" xmlns:xlink="http://www.w3.org/1999/xlink">
	<desc>
			Created with Pixso.
	</desc>
	<defs>
		<clipPath id="clip117_325">
			<rect id="20#网络检测与响应服务-NDR" width="72.000000" height="72.000000" fill="white" fill-opacity="0"/>
		</clipPath>
	</defs>
	<g clip-path="url(#clip117_325)">
		<path id="矩形备份-19" d="M16 0L56 0C64.8 0 72 7.2 72 16L72 56C72 64.79 64.8 72 56 72L16 72C7.19 72 0 64.79 0 56L0 16C0 7.2 7.19 0 16 0Z" fill="#9F53E6" fill-opacity="1.000000" fill-rule="evenodd"/>
		<path id="形状结合" d="M35.99 12C36.82 12 37.7 12.23 38.31 12.68C40.03 13.99 41.78 15.54 46.4 17.83C48.72 18.97 53.31 20.47 55.63 21.25C57.14 21.77 58.11 23.1 57.99 24.68C57.58 29.56 56.37 39.29 53.35 45.25C49.88 52.1 41.17 57.47 37.74 59.52C37.18 59.83 36.59 60 36 60C35.39 60 34.81 59.83 34.27 59.5C30.82 57.45 22.11 52.08 18.64 45.23C15.62 39.27 14.41 29.54 14.02 24.66C13.88 23.1 14.85 21.75 16.35 21.24C18.68 20.45 23.27 18.95 25.58 17.81C30.22 15.52 31.97 13.97 33.68 12.66C34.3 12.23 35.13 12 35.99 12ZM36.97 34.81C36.82 34.27 36.28 33.96 35.75 34.08C35.39 34.18 35.11 34.46 35.03 34.81C34.18 38.08 33.17 41.93 32 46.31C33.25 46.75 34.59 46.99 36 46.99C37.39 46.99 38.75 46.75 40 46.31C38.81 41.93 37.81 38.08 36.97 34.81ZM36 23C29.36 23 24 28.37 24 35C24 39.5 26.48 43.43 30.15 45.48L30.51 44.16C30.66 43.58 30.81 43.02 30.97 42.46C28.56 40.83 27 38.1 27 35C27 30.02 31.03 26 36 26C40.97 26 45 30.02 45 35C45 38.1 43.42 40.83 41.04 42.46L41.84 45.48C45.52 43.43 48 39.5 48 35C48 28.37 42.62 23 36 23ZM36 28.5C32.4 28.5 29.5 31.41 29.5 35C29.5 36.91 30.32 38.64 31.65 39.83C31.92 38.79 32.18 37.81 32.43 36.85L32.65 36C32.56 35.68 32.5 35.33 32.5 34.99C32.5 33.06 34.07 31.49 36 31.49C37.93 31.49 39.5 33.06 39.5 34.99C39.5 35.35 39.46 35.68 39.35 36L39.75 37.52C39.93 38.27 40.13 39.02 40.34 39.81C41.66 38.62 42.51 36.89 42.51 34.98C42.5 31.41 39.58 28.5 36 28.5Z" fill="#FFFFFF" fill-opacity="1.000000" fill-rule="nonzero"/>
	</g>
</svg>
