<svg width="72.000000" height="72.000000" viewBox="0 0 72 72" fill="none" xmlns="http://www.w3.org/2000/svg" xmlns:xlink="http://www.w3.org/1999/xlink">
	<desc>
			Created with Pixso.
	</desc>
	<defs>
		<clipPath id="clip117_188">
			<rect id="3#DDoS防护-AAD" width="72.000000" height="72.000000" fill="white" fill-opacity="0"/>
		</clipPath>
	</defs>
	<g clip-path="url(#clip117_188)">
		<path id="矩形备份-19" d="M16 0L56 0C64.8 0 72 7.2 72 16L72 56C72 64.79 64.8 72 56 72L16 72C7.19 72 0 64.79 0 56L0 16C0 7.2 7.19 0 16 0Z" fill="#00ABED" fill-opacity="1.000000" fill-rule="evenodd"/>
		<path id="形状结合" d="M36 12C36.8 12 37.7 12.2 38.3 12.7C40 14 41.8 15.6 46.4 17.79C48.7 18.89 53.3 20.39 55.6 21.2C57.1 21.7 58.1 23.1 57.9 24.6C57.5 29.5 56.3 39.2 53.3 45.2C49.8 52.1 41.1 57.39 37.7 59.5C37.2 59.79 36.6 60 36 60C35.4 60 34.8 59.79 34.3 59.5C30.9 57.39 22.1 52.1 18.7 45.2C15.7 39.2 14.5 29.5 14.1 24.6C14 23 14.9 21.7 16.4 21.2C18.7 20.39 23.3 18.89 25.6 17.79C30.2 15.5 32 14 33.7 12.7C34.3 12.2 35.1 12 36 12ZM46.1 27.79L25.9 27.79C25.6 27.79 25.4 27.89 25.1 28C24.3 28.39 24.1 29.39 24.5 30.1L34.6 47.79C34.7 48 34.9 48.2 35.2 48.39C36 48.79 36.9 48.6 37.3 47.79L47.4 30.1C47.5 29.89 47.6 29.6 47.6 29.29C47.7 28.5 47 27.79 46.1 27.79Z" fill="#FFFFFF" fill-opacity="1.000000" fill-rule="evenodd"/>
	</g>
</svg>
