<svg width="72.000000" height="72.000000" viewBox="0 0 72 72" fill="none" xmlns="http://www.w3.org/2000/svg" xmlns:xlink="http://www.w3.org/1999/xlink">
	<desc>
			Created with Pixso.
	</desc>
	<defs>
		<clipPath id="clip117_185">
			<rect id="4#云证书管理服务-CCM" width="72.000000" height="72.000000" fill="white" fill-opacity="0"/>
		</clipPath>
	</defs>
	<g clip-path="url(#clip117_185)">
		<path id="矩形备份-19" d="M16 0L56 0C64.8 0 72 7.2 72 16L72 56C72 64.79 64.8 72 56 72L16 72C7.19 72 0 64.79 0 56L0 16C0 7.2 7.19 0 16 0Z" fill="#00C4BE" fill-opacity="1.000000" fill-rule="evenodd"/>
		<path id="形状结合" d="M36 12C36.9 12 37.7 12.2 38.3 12.7C40 14 41.8 15.6 46.4 17.79C48.7 18.89 53.3 20.39 55.6 21.2C57.1 21.7 58.1 23.1 57.9 24.6C57.5 29.5 56.3 39.2 53.3 45.2C49.8 52.1 41.1 57.39 37.7 59.5C37.2 59.79 36.6 60 36 60C35.4 60 34.8 59.79 34.3 59.5C30.9 57.39 22.1 52.1 18.7 45.2C15.7 39.2 14.5 29.5 14.1 24.6C14 23 14.9 21.7 16.4 21.2C18.7 20.39 23.3 18.89 25.6 17.79C30.2 15.5 32 14 33.7 12.7C34.3 12.2 35.1 12 36 12ZM48.1 25.1L23.9 25.1C22.7 25.1 21.7 26.1 21.7 27.29L21.7 42.6C21.7 43.79 22.7 44.79 23.9 44.79L48.1 44.79C49.3 44.79 50.3 43.79 50.3 42.6L50.3 27.29C50.3 26.1 49.3 25.1 48.1 25.1ZM41.5 27.1C44.6 27.1 47.2 29.6 47.2 32.7C47.2 33.89 46.8 35 46.1 36L46.1 42C46.1 42.6 45.5 42.89 45 42.7L41.5 40.7L38 42.7C37.5 43 37 42.7 36.9 42.1L36.9 36C36.2 35.1 35.9 34 35.9 32.7C35.8 29.6 38.4 27.1 41.5 27.1ZM38.4 37.39L38.4 40.7L41.2 39.2C41.4 39.1 41.6 39.1 41.8 39.2L44.6 40.7L44.6 37.39C43.7 38 42.6 38.29 41.5 38.29C40.3 38.29 39.3 38 38.4 37.39ZM33.3 36.89C33.7 36.89 34.1 37.2 34.1 37.7C34.1 38.2 33.8 38.5 33.3 38.5L25.5 38.5C25.1 38.5 24.7 38.2 24.7 37.7C24.7 37.2 25 36.89 25.5 36.89L33.3 36.89ZM41.5 28.6C39.2 28.6 37.3 30.39 37.3 32.7C37.3 35 39.2 36.79 41.5 36.79C43.8 36.79 45.7 35 45.7 32.7C45.7 30.39 43.8 28.6 41.5 28.6ZM41.5 30C43 30 44.2 31.2 44.2 32.7C44.2 34.2 43 35.39 41.5 35.39C40 35.39 38.8 34.2 38.8 32.7C38.8 31.2 40 30 41.5 30ZM41.5 31.5C40.8 31.5 40.3 32.1 40.3 32.7C40.3 33.39 40.9 33.89 41.5 33.89C42.2 33.89 42.7 33.29 42.7 32.7C42.7 32 42.2 31.5 41.5 31.5ZM33.3 31.39C33.7 31.39 34.1 31.7 34.1 32.2C34.1 32.6 33.8 33 33.3 33L25.5 33C25.1 33 24.7 32.7 24.7 32.2C24.7 31.79 25 31.39 25.5 31.39L33.3 31.39Z" fill="#FFFFFF" fill-opacity="1.000000" fill-rule="evenodd"/>
	</g>
</svg>
