<svg width="72.000000" height="72.000000" viewBox="0 0 72 72" fill="none" xmlns="http://www.w3.org/2000/svg" xmlns:xlink="http://www.w3.org/1999/xlink">
	<desc>
			Created with Pixso.
	</desc>
	<defs>
		<clipPath id="clip117_175">
			<rect id="5#容器安全服务-CGS" width="72.000000" height="72.000000" fill="white" fill-opacity="0"/>
		</clipPath>
	</defs>
	<g clip-path="url(#clip117_175)">
		<path id="矩形备份-19" d="M15.95 0L55.95 0C64.75 0 71.95 7.2 71.95 16L71.95 56C71.95 64.79 64.75 72 55.95 72L15.95 72C7.15 72 -0.05 64.79 -0.05 56L-0.05 16C-0.05 7.2 7.15 0 15.95 0Z" fill="#FF9A2E" fill-opacity="1.000000" fill-rule="evenodd"/>
		<path id="形状结合" d="M35.95 12C36.85 12 37.65 12.2 38.25 12.7C39.95 14 41.75 15.6 46.35 17.79C48.65 18.89 53.25 20.39 55.55 21.2C57.05 21.7 58.05 23.1 57.85 24.6C57.45 29.5 56.25 39.2 53.25 45.2C49.75 52.1 41.05 57.39 37.65 59.5C37.15 59.79 36.55 60 35.95 60C35.35 60 34.75 59.79 34.25 59.5C30.85 57.39 22.05 52.1 18.65 45.2C15.65 39.2 14.45 29.5 14.05 24.6C13.95 23 14.85 21.7 16.35 21.2C18.65 20.39 23.25 18.89 25.55 17.79C30.15 15.5 31.95 14 33.65 12.7C34.25 12.2 35.15 12 35.95 12ZM36.95 22.6C36.35 22.2 35.55 22.2 34.95 22.6L25.65 27.89C25.05 28.29 24.65 28.89 24.65 29.6L24.65 40.29C24.65 41 25.05 41.7 25.65 42L34.95 47.29C35.55 47.7 36.35 47.7 36.95 47.29L46.25 42C46.85 41.6 47.25 41 47.25 40.29L47.25 29.7C47.25 29 46.85 28.29 46.25 28L36.95 22.6ZM36.45 26.5L43.25 30.39C43.75 30.7 43.95 31.29 43.65 31.79C43.55 32 43.35 32.1 43.25 32.2L36.35 35.39C36.05 35.5 35.75 35.5 35.55 35.39L28.35 32.2C27.85 32 27.65 31.39 27.85 30.89C27.95 30.7 28.05 30.5 28.25 30.39L35.45 26.5C35.85 26.39 36.15 26.39 36.45 26.5Z" fill="#FFFFFF" fill-opacity="1.000000" fill-rule="evenodd"/>
	</g>
</svg>
