<svg width="72.000000" height="72.000000" viewBox="0 0 72 72" fill="none" xmlns="http://www.w3.org/2000/svg" xmlns:xlink="http://www.w3.org/1999/xlink">
	<desc>
			Created with Pixso.
	</desc>
	<defs>
		<clipPath id="clip117_178">
			<rect id="6#数据加密服务-DEW" width="72.000000" height="72.000000" fill="white" fill-opacity="0"/>
		</clipPath>
	</defs>
	<g clip-path="url(#clip117_178)">
		<path id="矩形备份-19" d="M16 0L56 0C64.8 0 72 7.2 72 16L72 56C72 64.79 64.8 72 56 72L16 72C7.19 72 0 64.79 0 56L0 16C0 7.2 7.19 0 16 0Z" fill="#F85835" fill-opacity="1.000000" fill-rule="evenodd"/>
		<path id="形状结合" d="M36 12C36.9 12 37.7 12.2 38.3 12.7C40 14 41.8 15.6 46.4 17.79C48.7 18.89 53.3 20.39 55.6 21.2C57.1 21.7 58.1 23.1 57.9 24.6C57.5 29.5 56.3 39.2 53.3 45.2C49.8 52.1 41.1 57.39 37.7 59.5C37.2 59.79 36.6 60 36 60C35.4 60 34.8 59.79 34.3 59.5C30.9 57.39 22.1 52.1 18.7 45.2C15.7 39.2 14.5 29.5 14.1 24.6C14 23 14.9 21.7 16.4 21.2C18.7 20.39 23.3 18.89 25.6 17.79C30.2 15.5 32 14 33.7 12.7C34.3 12.2 35.1 12 36 12ZM36.2 24.2C32.6 24.2 29.7 26.79 29.5 30.2L29.1 30.2C28 30.2 27.1 31.1 27.1 32.2L27.1 45.2C27.1 46.29 28 47.2 29.1 47.2L43.1 47.2C44.2 47.2 45.1 46.29 45.1 45.2L45.1 42.7L42.9 42.7C42.5 42.7 42.1 42.39 42.1 41.89C42.1 41.5 42.4 41.1 42.9 41.1L45 41.1L45 39.6L42.8 39.6C42.4 39.6 42 39.29 42 38.79C42 38.39 42.3 38 42.8 38L45 38L45 36.5L42.8 36.5C42.4 36.5 42 36.2 42 35.7C42 35.29 42.3 34.89 42.8 34.89L45 34.89L45 31.89C45 30.79 44.1 29.89 43 29.89C42.7 26.89 39.7 24.2 36.2 24.2ZM46.2 41.2L45 41.1L45.1 42.7L46.2 42.7C46.6 42.7 47 42.39 47 41.89C47 41.6 46.7 41.2 46.2 41.2ZM46.2 38.2L45 38.2L45 39.6L46.2 39.7C46.6 39.7 47 39.39 47 38.89C47 38.6 46.7 38.2 46.2 38.2ZM46.2 35.2L45 35.2L45 36.7L46.2 36.7C46.6 36.7 47 36.39 47 35.89C47 35.6 46.7 35.2 46.2 35.2ZM36.2 25.79C38.9 25.79 41.2 27.79 41.4 30.29L30.9 30.29C31.2 27.7 33.4 25.79 36.2 25.79Z" fill="#FFFFFF" fill-opacity="1.000000" fill-rule="evenodd"/>
	</g>
</svg>
