<svg width="72.000000" height="72.000000" viewBox="0 0 72 72" fill="none" xmlns="http://www.w3.org/2000/svg" xmlns:xlink="http://www.w3.org/1999/xlink">
	<desc>
			Created with Pixso.
	</desc>
	<defs>
		<clipPath id="clip117_179">
			<rect id="7#数据安全中心-DSC" width="72.000000" height="72.000000" fill="white" fill-opacity="0"/>
		</clipPath>
	</defs>
	<g clip-path="url(#clip117_179)">
		<path id="矩形备份-19" d="M15.95 0L55.95 0C64.75 0 71.95 7.2 71.95 16L71.95 56C71.95 64.79 64.75 72 55.95 72L15.95 72C7.15 72 -0.05 64.79 -0.05 56L-0.05 16C-0.05 7.2 7.15 0 15.95 0Z" fill="#9F53E6" fill-opacity="1.000000" fill-rule="evenodd"/>
		<path id="形状结合" d="M35.95 12C36.79 12 37.66 12.23 38.27 12.68C39.99 13.99 41.74 15.54 46.37 17.83C48.68 18.97 53.27 20.47 55.6 21.25C57.11 21.77 58.08 23.1 57.95 24.68C57.55 29.56 56.34 39.29 53.32 45.25C49.85 52.1 41.14 57.47 37.7 59.52C37.15 59.83 36.56 60 35.96 60C35.36 60 34.77 59.83 34.23 59.5C30.79 57.45 22.08 52.08 18.61 45.23C15.59 39.27 14.38 29.54 13.98 24.66C13.85 23.1 14.82 21.75 16.32 21.24C18.65 20.45 23.23 18.95 25.55 17.81C30.18 15.52 31.93 13.97 33.65 12.66C34.26 12.23 35.1 12 35.95 12ZM46.28 34C45.91 34 45.6 34.29 45.6 34.66C45.6 39.25 42.22 43.06 37.79 43.75C37.46 42.77 36.53 42.06 35.43 42.06C34.06 42.06 32.95 43.16 32.95 44.54C32.95 45.91 34.07 47 35.44 47C36.62 47 37.6 46.18 37.86 45.1C43 44.37 46.96 39.98 46.96 34.66C46.96 34.29 46.66 34 46.28 34ZM35.44 43.41C36.06 43.41 36.57 43.91 36.57 44.52C36.57 45.14 36.06 45.64 35.44 45.64C34.82 45.64 34.31 45.14 34.31 44.52C34.31 43.91 34.82 43.41 35.44 43.41ZM28.5 26.99C27.29 26.29 25.75 26.71 25.05 27.91C24.45 28.95 24.68 30.25 25.53 31.02C23.69 35.74 25.51 41.23 30.03 43.83C30.35 44 30.75 43.89 30.94 43.58C31.12 43.27 31.01 42.87 30.7 42.68C26.8 40.43 25.2 35.72 26.73 31.64C27.77 31.85 28.87 31.39 29.43 30.43C30.12 29.23 29.71 27.68 28.5 26.99ZM35.96 32C34.3 32 32.96 33.33 32.96 35C32.95 35.79 33.27 36.56 33.83 37.12C34.39 37.7 35.16 38 35.96 38C37.62 38 38.96 36.66 38.96 35C38.96 33.33 37.62 32 35.96 32ZM44.08 27.41C40.93 23.41 35.23 22.22 30.69 24.83C30.37 25.02 30.26 25.43 30.45 25.75C30.63 26.06 31.04 26.18 31.36 25.99C35.29 23.72 40.2 24.72 42.96 28.14C42.29 28.89 42.14 30.04 42.68 30.97C43.35 32.14 44.84 32.54 46.01 31.85C47.18 31.18 47.58 29.7 46.9 28.52C46.34 27.56 45.12 27.14 44.08 27.41ZM44.23 28.79C44.76 28.49 45.44 28.68 45.74 29.21C46.05 29.74 45.86 30.41 45.33 30.72C44.8 31.02 44.12 30.83 43.82 30.31C43.52 29.77 43.7 29.1 44.23 28.79ZM26.35 28.66C26.63 28.16 27.26 28 27.75 28.29C28.24 28.56 28.41 29.2 28.12 29.68C27.84 30.18 27.21 30.35 26.72 30.06C26.23 29.77 26.07 29.14 26.35 28.66Z" fill="#FFFFFF" fill-opacity="1.000000" fill-rule="evenodd"/>
	</g>
</svg>
