<svg width="72.000000" height="72.000000" viewBox="0 0 72 72" fill="none" xmlns="http://www.w3.org/2000/svg" xmlns:xlink="http://www.w3.org/1999/xlink">
	<desc>
			Created with Pixso.
	</desc>
	<defs>
		<clipPath id="clip117_184">
			<rect id="8#安全云脑-SecMaster" width="72.000000" height="72.000000" fill="white" fill-opacity="0"/>
		</clipPath>
	</defs>
	<g clip-path="url(#clip117_184)">
		<path id="矩形备份-19" d="M16 0L56 0C64.8 0 72 7.2 72 16L72 56C72 64.79 64.8 72 56 72L16 72C7.19 72 0 64.79 0 56L0 16C0 7.2 7.19 0 16 0Z" fill="#00ABED" fill-opacity="1.000000" fill-rule="evenodd"/>
		<path id="形状结合" d="M36.3 12C36.7 12 37.5 12.2 38.2 12.6C41.5 15.7 48.8 19.6 56.5 21C57.7 21.2 58.2 23.5 58 24.5C58 25.29 57.8 26.1 57.8 27C57.4 32.29 56.3 40.7 51.6 47.29C48.1 52.2 42.4 57.1 37.4 59.79C37.2 59.79 37 60 36.4 60C35.8 60 35.5 60 35.2 59.79C30.4 57.1 24.6 52.2 21 47.29C15.6 40.1 15 32.29 14.3 27C14.3 26 14.1 25.2 14.1 24.29C14.1 23.29 14.9 21.2 16 21C23.7 19.39 30.8 15.7 34.3 12.6C34.8 12 35.9 12 36.3 12ZM40.3 24L35.7 24C30.5 24 25.1 26.7 24.6 31.79L26.7 31.79C27.1 30.7 28.3 30.1 29.4 30.29C30.6 30.5 31.4 31.5 31.4 32.7C31.4 33.89 30.6 34.79 29.4 35.1C28.2 35.29 27.1 34.7 26.7 33.6L24.3 33.6C23.1 33.6 22.1 34.2 21.5 35.2C20.9 36.29 20.9 37.6 21.5 38.6C22.1 39.6 23.3 40.29 24.6 40.2L30.7 40.2C31.1 37.39 33.6 35.39 36.4 35.39L41.6 35.39C43.3 35.39 44.7 34 44.7 32.39C44.7 30.79 43.3 29.39 41.6 29.39L38.5 29.39C38.1 30.5 37 31.1 35.8 31C34.6 30.79 33.8 29.79 33.8 28.7C33.8 27.5 34.6 26.5 35.8 26.29C37 26.1 38.1 26.7 38.5 27.79L41.6 27.79C44.3 27.79 46.4 29.89 46.4 32.5C46.4 35.1 44.2 37 41.5 37L36.3 37C34.4 37 32.7 38.29 32.3 40.2L39.3 40.2C39.7 39.1 40.9 38.5 42 38.7C43.2 38.89 44 39.89 44 41.1C44 42.29 43.1 43.29 42 43.5C40.8 43.7 39.7 43.1 39.3 42L32.3 42C32.7 43.89 34.4 45.2 36.3 45.2L40.2 45.2C46.2 45 51 40.29 51 34.5C51 28.7 46.2 24 40.3 24Z" fill="#FFFFFF" fill-opacity="1.000000" fill-rule="evenodd"/>
	</g>
</svg>
