<svg width="72.000000" height="72.000000" viewBox="0 0 72 72" fill="none" xmlns="http://www.w3.org/2000/svg" xmlns:xlink="http://www.w3.org/1999/xlink">
	<desc>
			Created with Pixso.
	</desc>
	<defs>
		<clipPath id="clip117_1288">
			<rect id="1#行业AI大赛培训专业服务-acts" width="72.000000" height="72.000000" fill="white" fill-opacity="0"/>
		</clipPath>
	</defs>
	<g clip-path="url(#clip117_1288)">
		<path id="矩形备份-19" d="M16 0L56 0C64.8 0 72 7.2 72 16L72 56C72 64.8 64.8 72 56 72L16 72C7.2 72 0 64.8 0 56L0 16C0 7.2 7.2 0 16 0Z" fill="#00C4BE" fill-opacity="1.000000" fill-rule="evenodd"/>
		<path id="合并" d="M35.99 25.21L52.1 16.42C52.77 16.06 53.58 16.54 53.58 17.3L53.58 45.4C53.58 45.76 53.38 46.1 53.06 46.27L35.99 55.58L35.99 50L35.99 55.58L18.93 46.27C18.61 46.1 18.41 45.76 18.41 45.4L18.41 17.3C18.41 16.54 19.22 16.06 19.89 16.42L35.99 25.21L35.99 29L31.6 29C31.13 29 30.73 29.32 30.62 29.77L28.6 38.54C28.53 38.83 28.6 39.13 28.77 39.37L34.49 47L34.49 40.5C34.49 39.67 35.17 39 35.99 39C36.82 39 37.49 39.67 37.49 40.5L37.49 47L43.22 39.37C43.39 39.13 43.46 38.83 43.39 38.54L41.37 29.77C41.26 29.32 40.86 29 40.39 29L35.99 29L35.99 25.21ZM48.01 54.09C45.55 54.5 43.09 55.11 41.05 55.69L56.01 47.53L56.01 22.92L59 22.92C59.55 22.92 60 23.37 60 23.92L60 52.26C60 52.82 59.53 53.28 58.96 53.28C56.99 53.27 52.5 53.34 48.01 54.09ZM30.94 55.69C28.9 55.11 26.44 54.5 23.98 54.09C19.49 53.34 15 53.27 13.03 53.28C12.46 53.28 11.99 52.82 11.99 52.26L11.99 23.92C11.99 23.37 12.44 22.92 12.99 22.92L15.98 22.92L15.98 47.53L30.94 55.69Z" fill="#FFFFFF" fill-opacity="1.000000" fill-rule="evenodd"/>
	</g>
</svg>
