<svg width="72.000000" height="72.000000" viewBox="0 0 72 72" fill="none" xmlns="http://www.w3.org/2000/svg" xmlns:xlink="http://www.w3.org/1999/xlink">
	<desc>
			Created with Pixso.
	</desc>
	<defs>
		<clipPath id="clip117_208">
			<rect id="1#应用身份管理服务-OneAccess" width="72.000000" height="72.000000" fill="white" fill-opacity="0"/>
		</clipPath>
	</defs>
	<g clip-path="url(#clip117_208)">
		<path id="矩形备份-19" d="M16 0L56 0C64.8 0 72 7.2 72 16L72 56C72 64.79 64.8 72 56 72L16 72C7.19 72 0 64.79 0 56L0 16C0 7.2 7.19 0 16 0Z" fill="#7DCC29" fill-opacity="1.000000" fill-rule="evenodd"/>
		<path id="形状结合" d="M51.9 41.71C54.04 41.71 55.78 43.45 55.78 45.59C55.78 47.73 54.04 49.47 51.9 49.47C51.51 49.47 51.14 49.41 50.78 49.31L50.63 49.47C50 50.16 49.28 50.9 48.46 51.67L47.96 52.14C47.45 52.61 46.91 53.09 46.34 53.58L45.76 54.07C45.66 54.15 45.56 54.24 45.47 54.32L44.87 54.82L44.56 55.07L43.94 55.58L43.3 56.1L42.65 56.62L41.98 57.14L41.3 57.67L40.61 58.2L39.91 58.73L39.22 59.25C37.31 60.68 34.68 60.68 32.77 59.25L32.14 58.77L31.71 58.43L31.26 58.08L30.8 57.71L30.32 57.32L29.82 56.92L29.31 56.5L28.79 56.06L28.25 55.6L27.7 55.13L27.13 54.64L26.54 54.13L25.94 53.6L25.63 53.33C25.32 53.08 25.13 52.71 25.1 52.32C25.07 51.92 25.19 51.53 25.44 51.24C25.68 50.94 26.04 50.75 26.43 50.71C26.82 50.68 27.2 50.81 27.49 51.07L27.86 51.4L28.59 52.04L29.3 52.65L30 53.24L30.68 53.81L31.34 54.36L31.99 54.89L32.62 55.4C32.72 55.48 32.83 55.57 32.93 55.65L33.54 56.13L34.14 56.6C34.24 56.68 34.34 56.75 34.44 56.83C35.34 57.51 36.59 57.51 37.49 56.83L38.15 56.34L38.81 55.84L39.46 55.34L40.11 54.84L40.75 54.34C40.86 54.26 40.96 54.17 41.07 54.09L41.7 53.59L42.32 53.09L42.92 52.59L43.51 52.1C43.61 52.02 43.7 51.94 43.8 51.85L44.37 51.36C44.46 51.28 44.56 51.2 44.65 51.12L45.19 50.64C45.28 50.56 45.37 50.48 45.45 50.4L45.98 49.92C46.15 49.77 46.31 49.61 46.47 49.46L46.94 49.01C47.4 48.57 47.82 48.14 48.21 47.74L48.4 47.54C48.1 46.99 48.02 46.25 48.02 45.58C48.02 43.45 49.75 41.71 51.9 41.71ZM29.06 16.53C29.43 16.66 29.72 16.94 29.87 17.29C30.22 18 29.95 18.84 29.28 19.23L24.32 21.71C22.64 22.49 20.93 23.18 19.2 23.77C18.09 24.23 17.42 25.36 17.55 26.54L17.57 26.66C18.23 31.65 19.21 36.59 20.5 41.46L20.57 41.73C22.59 41.86 24.19 43.54 24.19 45.6C24.19 47.74 22.45 49.48 20.31 49.48C18.17 49.48 16.43 47.74 16.43 45.6C16.43 44.42 16.96 43.37 17.78 42.66L17.69 42.35C16.52 37.96 15.59 33.52 14.91 29.03L14.77 28.07L14.63 27.11C14.22 24.49 15.7 21.95 18.19 20.98L19.58 20.46L20.59 20.07L21.3 19.79L21.92 19.54L22.19 19.42L22.55 19.26L22.76 19.16L22.95 19.07L27.91 16.6C28.29 16.42 28.69 16.4 29.06 16.53ZM45.91 38.5C46.35 38.5 46.71 38.86 46.71 39.3L46.71 42.92C46.71 44.35 45.54 45.5 44.1 45.5L39.59 45.5C39.15 45.5 38.79 45.14 38.79 44.7C38.79 44.26 39.15 43.9 39.59 43.9L44.1 43.9C44.66 43.9 45.11 43.45 45.11 42.91L45.11 39.34C45.11 38.9 45.47 38.5 45.91 38.5ZM26.07 38.5C26.51 38.5 26.87 38.86 26.87 39.3L26.87 42.87C26.87 43.13 26.98 43.39 27.16 43.57C27.35 43.76 27.61 43.86 27.87 43.86L32.38 43.86C32.82 43.86 33.18 44.22 33.18 44.66C33.18 45.1 32.82 45.46 32.38 45.46L27.87 45.46C26.43 45.46 25.26 44.3 25.26 42.88L25.26 39.31C25.27 38.85 25.63 38.5 26.07 38.5ZM35.99 27.49L36.21 27.5C38.18 27.61 39.89 28.94 40.43 30.84C40.94 32.6 40.35 34.46 38.97 35.62L38.83 35.73C40.99 36.7 42.54 38.75 42.82 41.09L42.85 41.35C42.87 41.74 42.62 42.09 42.22 42.19L42.11 42.21C41.88 42.23 41.64 42.15 41.48 41.98C41.31 41.81 41.23 41.58 41.25 41.39C41 38.7 38.72 36.65 35.99 36.66C33.26 36.65 30.98 38.7 30.73 41.38C30.71 41.59 30.61 41.79 30.45 41.93C30.29 42.07 30.08 42.13 29.86 42.12C29.47 42.08 29.16 41.78 29.13 41.35C29.35 39.01 30.78 36.96 32.87 35.92L33.15 35.79L33.01 35.68C31.64 34.58 31.01 32.79 31.41 31.06L31.47 30.84C32.02 28.9 33.77 27.56 35.79 27.48L35.99 27.49ZM35.98 11.11C37.93 11.11 39.54 12.54 39.81 14.41L48.81 19.01C50 19.55 51.2 20.05 52.43 20.51L53.05 20.73L53.67 20.95C56.15 21.87 57.67 24.34 57.35 26.93L57.33 27.09L57.08 28.84L56.47 32.83L56.35 33.59L56.23 34.32L56.11 35.01L55.99 35.68L55.93 36L55.8 36.64L55.74 36.95C55.65 37.37 55.56 37.79 55.47 38.19C55.33 38.81 54.81 39.27 54.22 39.34C54.11 39.36 53.89 39.37 53.73 39.34C52.95 39.14 52.47 38.35 52.65 37.57L52.8 36.86L52.9 36.39L53.04 35.68L53.13 35.2L53.26 34.46L53.35 33.96L53.44 33.44L53.57 32.63L53.75 31.47L53.98 29.88L54.18 28.46L54.43 26.71C54.6 25.48 53.89 24.3 52.72 23.87C51.19 23.34 49.68 22.74 48.19 22.08L47.55 21.79L39.01 17.43C38.36 18.23 37.41 18.77 36.33 18.86L36.21 18.86C36.14 18.86 36.07 18.87 35.99 18.87L36.21 18.86L35.99 18.87L35.79 18.85C33.74 18.75 32.11 17.05 32.11 14.98C32.1 12.85 33.84 11.11 35.98 11.11ZM36.03 29.35C34.51 29.35 33.28 30.58 33.28 32.1C33.28 33.62 34.51 34.85 36.03 34.85C37.55 34.85 38.78 33.62 38.78 32.1C38.78 30.58 37.55 29.35 36.03 29.35ZM44.1 24.27C45.54 24.27 46.71 25.43 46.71 26.85L46.71 30.42C46.71 30.86 46.35 31.22 45.91 31.22C45.47 31.22 45.11 30.86 45.11 30.42L45.11 26.85C45.11 26.3 44.66 25.86 44.1 25.86L39.59 25.86C39.15 25.86 38.79 25.5 38.79 25.06C38.79 24.62 39.15 24.26 39.59 24.26L44.1 24.27ZM32.39 24.22C32.83 24.22 33.19 24.58 33.19 25.02C33.19 25.46 32.83 25.82 32.39 25.82L27.88 25.82C27.32 25.82 26.87 26.27 26.87 26.81L26.87 30.38C26.87 30.82 26.51 31.18 26.07 31.18C25.63 31.18 25.27 30.82 25.27 30.38L25.27 26.81C25.27 26.12 25.55 25.47 26.03 24.98C26.52 24.5 27.18 24.22 27.87 24.22L32.39 24.22Z" fill="#FFFFFF" fill-opacity="1.000000" fill-rule="nonzero"/>
	</g>
</svg>
