<svg width="72.000000" height="72.000000" viewBox="0 0 72 72" fill="none" xmlns="http://www.w3.org/2000/svg" xmlns:xlink="http://www.w3.org/1999/xlink">
	<desc>
			Created with Pixso.
	</desc>
	<defs>
		<clipPath id="clip117_321">
			<rect id="10#资源治理中心-RGC" width="72.000000" height="72.000000" fill="white" fill-opacity="0"/>
		</clipPath>
	</defs>
	<g clip-path="url(#clip117_321)">
		<path id="矩形备份-15" d="M16 0L56 0C64.84 0 72 7.16 72 16L72 56C72 64.83 64.84 72 56 72L16 72C7.15 72 0 64.83 0 56L0 16C0 7.16 7.15 0 16 0Z" fill="#00ABED" fill-opacity="1.000000" fill-rule="evenodd"/>
		<path id="形状结合" d="M16.31 23.49C17 23.49 17.5 24.06 17.5 24.62C17.5 24.97 17.33 25.58 17.03 26C16.92 26.18 16.84 26.35 16.75 26.56C16.64 26.75 16.56 26.95 16.46 27.14C16.29 27.54 16.12 27.95 15.97 28.35C15.82 28.75 15.66 29.16 15.54 29.58C15.4 29.99 15.29 30.41 15.18 30.83C15.09 31.25 14.99 31.68 14.91 32.1C14.84 32.52 14.78 32.96 14.72 33.39C14.66 33.81 14.62 34.25 14.6 34.68C14.57 35.12 14.56 35.56 14.56 35.99C14.56 36.16 14.56 36.35 14.57 36.52C14.57 36.7 14.58 36.87 14.59 37.04C14.61 37.39 14.62 37.75 14.66 38.1C14.7 38.45 14.75 38.79 14.8 39.14C14.85 39.49 14.9 39.83 14.98 40.18C15.05 40.52 15.12 40.87 15.21 41.21C15.3 41.54 15.38 41.89 15.49 42.22C15.59 42.56 15.7 42.89 15.82 43.22C15.93 43.54 16.06 43.87 16.2 44.2C16.33 44.52 16.48 44.83 16.62 45.16C16.78 45.48 16.93 45.79 17.1 46.1C17.27 46.41 17.43 46.71 17.62 47.02C17.79 47.31 17.99 47.62 18.17 47.91C18.37 48.2 18.58 48.49 18.79 48.77C19 49.04 19.2 49.33 19.43 49.6C19.65 49.87 19.88 50.14 20.12 50.39C20.37 50.66 20.61 50.91 20.86 51.16C21.11 51.41 21.36 51.64 21.62 51.89C21.74 52 21.87 52.1 21.99 52.22C22.12 52.33 22.27 52.46 22.4 52.58C22.67 52.79 22.96 53.02 23.24 53.23C23.52 53.43 23.81 53.64 24.1 53.83C24.38 54.02 24.68 54.22 24.99 54.39C25.29 54.58 25.6 54.75 25.9 54.91C26.22 55.08 26.53 55.24 26.85 55.39C27.16 55.54 27.49 55.68 27.81 55.81C28.12 55.95 28.46 56.08 28.79 56.2C28.96 56.25 29.12 56.31 29.31 56.37C29.47 56.43 29.62 56.48 29.79 56.52C30.12 56.62 30.46 56.73 30.8 56.81C31.13 56.89 31.48 56.97 31.83 57.04C32.16 57.1 32.52 57.16 32.87 57.22C33.22 57.27 33.57 57.31 33.9 57.35C34.09 57.37 34.25 57.37 34.43 57.39C34.62 57.41 34.79 57.41 34.96 57.43C35.31 57.45 35.65 57.46 36 57.46C36.53 57.46 37.04 57.43 37.56 57.39C38.08 57.35 38.59 57.31 39.1 57.23C39.61 57.16 40.12 57.06 40.62 56.95C41.13 56.83 41.63 56.71 42.12 56.56C42.62 56.41 43.12 56.25 43.6 56.06C44.08 55.87 44.56 55.68 45.03 55.46C45.5 55.24 45.96 55 46.4 54.75C46.71 54.58 47.01 54.41 47.3 54.24L47.71 53.98C47.67 53.91 47.64 53.85 47.62 53.79C47.6 53.71 47.57 53.62 47.54 53.56C47.51 53.48 47.49 53.39 47.46 53.31C47.43 53.24 47.4 53.16 47.38 53.08C47.37 53 47.35 52.91 47.34 52.83C47.33 52.79 47.32 52.75 47.32 52.72C47.31 52.68 47.31 52.64 47.3 52.6C47.29 52.56 47.29 52.52 47.28 52.47L47.27 52.35L47.26 52.22C47.26 52.18 47.25 52.14 47.25 52.1C47.25 52.02 47.24 51.93 47.24 51.85C47.24 51.77 47.24 51.68 47.25 51.6C47.25 51.52 47.26 51.43 47.27 51.35C47.28 51.27 47.29 51.18 47.3 51.1C47.31 51.02 47.33 50.93 47.34 50.85C47.36 50.77 47.37 50.68 47.38 50.6C47.4 50.52 47.42 50.45 47.46 50.37C47.47 50.33 47.48 50.29 47.5 50.25L47.54 50.12C47.57 50.04 47.6 49.97 47.62 49.89C47.65 49.81 47.7 49.75 47.73 49.66C47.77 49.58 47.8 49.52 47.84 49.45C47.86 49.41 47.87 49.37 47.89 49.33L47.96 49.23C48 49.16 48.05 49.08 48.09 49.02C48.13 48.95 48.17 48.87 48.23 48.81L48.37 48.62C48.42 48.56 48.49 48.49 48.54 48.43C48.6 48.37 48.64 48.31 48.71 48.25C48.77 48.18 48.83 48.12 48.88 48.08L49 47.96L49.13 47.83L49.29 47.72C49.36 47.66 49.42 47.62 49.49 47.58C49.56 47.52 49.62 47.49 49.7 47.45C49.74 47.43 49.77 47.41 49.81 47.39L49.92 47.33C50 47.29 50.08 47.25 50.14 47.22C50.23 47.18 50.3 47.14 50.37 47.12C50.46 47.08 50.54 47.06 50.61 47.02C50.64 47.02 50.68 47 50.73 46.99L50.85 46.95C50.92 46.93 51.01 46.89 51.09 46.87C51.16 46.85 51.25 46.83 51.33 46.83C51.4 46.81 51.49 46.79 51.58 46.79C51.65 46.77 51.75 46.77 51.83 46.75C51.9 46.75 52 46.75 52.08 46.74C52.15 46.74 52.25 46.73 52.33 46.73C52.4 46.73 52.5 46.73 52.58 46.74C52.62 46.74 52.65 46.74 52.7 46.75C52.74 46.75 52.79 46.75 52.83 46.75C52.87 46.75 52.9 46.77 52.95 46.77C52.99 46.77 53.04 46.77 53.08 46.79C53.12 46.79 53.15 46.79 53.2 46.81L53.32 46.83C53.39 46.85 53.48 46.85 53.56 46.87C53.63 46.89 53.72 46.91 53.8 46.95C53.87 46.97 53.96 47 54.04 47.02C54.12 47.06 54.2 47.08 54.27 47.12C54.35 47.14 54.41 47.18 54.5 47.22C54.58 47.25 54.64 47.29 54.72 47.33C54.76 47.35 54.89 47.43 54.93 47.45C55.01 47.49 55.08 47.54 55.14 47.58C55.22 47.62 55.29 47.66 55.35 47.72C55.38 47.75 55.41 47.77 55.46 47.79C55.52 47.85 55.68 47.99 55.75 48.04C55.81 48.1 55.87 48.14 55.92 48.21C55.99 48.27 56.05 48.33 56.1 48.39C56.15 48.45 56.21 48.52 56.26 48.58C56.29 48.62 56.32 48.66 56.35 48.7C56.39 48.77 56.51 48.91 56.55 48.98C56.6 49.04 56.63 49.12 56.67 49.18C56.72 49.25 56.76 49.33 56.8 49.41C56.84 49.48 56.87 49.56 56.9 49.62C56.95 49.71 56.98 49.77 57.01 49.85C57.04 49.93 57.07 50.02 57.1 50.08C57.12 50.16 57.14 50.25 57.17 50.33C57.2 50.41 57.23 50.49 57.25 50.56C57.27 50.64 57.29 50.73 57.3 50.81C57.32 50.89 57.33 50.97 57.34 51.06C57.35 51.14 57.36 51.23 57.37 51.31C57.37 51.39 57.37 51.48 57.38 51.56C57.38 51.64 57.39 51.73 57.39 51.81C57.39 51.89 57.39 51.98 57.38 52.06C57.38 52.1 57.38 52.14 57.37 52.18C57.37 52.23 57.37 52.27 57.37 52.31C57.36 52.39 57.35 52.48 57.34 52.56C57.33 52.64 57.31 52.72 57.3 52.81C57.28 52.89 57.27 52.97 57.25 53.04C57.23 53.12 57.21 53.21 57.17 53.29C57.15 53.37 57.13 53.45 57.1 53.52C57.07 53.6 57.04 53.68 57.01 53.75C56.98 53.83 56.93 53.91 56.9 53.99C56.87 54.06 56.84 54.14 56.8 54.21C56.76 54.27 56.72 54.35 56.67 54.43C56.63 54.5 56.59 54.56 56.55 54.64C56.5 54.71 56.46 54.77 56.4 54.83C56.38 54.87 56.28 55 56.25 55.04C56.2 55.1 56.13 55.16 56.09 55.23C56.03 55.29 55.98 55.35 55.91 55.41C55.86 55.47 55.8 55.52 55.74 55.58C55.67 55.64 55.61 55.68 55.55 55.74C55.51 55.77 55.48 55.79 55.43 55.83C55.37 55.87 55.21 56 55.14 56.04C55.08 56.08 55.01 56.12 54.93 56.16C54.87 56.21 54.8 56.25 54.72 56.29C54.64 56.33 54.57 56.37 54.5 56.39C54.42 56.43 54.35 56.47 54.27 56.5C54.18 56.52 54.11 56.56 54.04 56.58C53.96 56.62 53.88 56.64 53.8 56.66C53.72 56.68 53.63 56.72 53.56 56.74C53.48 56.75 53.39 56.77 53.32 56.79C53.24 56.81 53.15 56.81 53.07 56.83C52.99 56.83 52.89 56.85 52.82 56.85C52.78 56.85 52.74 56.87 52.7 56.87C52.65 56.87 52.62 56.87 52.57 56.87C52.49 56.87 52.39 56.89 52.32 56.89C52.24 56.89 52.14 56.89 52.07 56.87C51.99 56.87 51.89 56.87 51.82 56.85C51.74 56.85 51.64 56.83 51.57 56.83C51.49 56.81 51.4 56.79 51.32 56.79C51.24 56.77 51.15 56.75 51.08 56.74C51 56.72 50.91 56.7 50.84 56.66C50.76 56.64 50.67 56.62 50.6 56.58C50.52 56.56 50.43 56.52 50.37 56.5C50.29 56.47 50.22 56.43 50.13 56.39C50.06 56.35 49.99 56.33 49.91 56.29C49.85 56.25 49.77 56.21 49.7 56.16C49.62 56.12 49.56 56.08 49.49 56.04C49.41 55.99 49.35 55.95 49.29 55.89C48.83 56.21 48.37 56.52 47.89 56.81C47.37 57.1 46.86 57.37 46.32 57.64C45.78 57.89 45.24 58.12 44.68 58.35C44.13 58.56 43.58 58.75 43.01 58.93C42.43 59.1 41.87 59.25 41.29 59.39C41 59.46 40.7 59.52 40.4 59.56C40.11 59.62 39.83 59.66 39.54 59.72C38.95 59.81 38.36 59.87 37.77 59.91C37.18 59.98 36.59 60 36 60C35.61 60 35.21 59.99 34.82 59.97C34.42 59.95 34.04 59.91 33.64 59.87C33.25 59.83 32.87 59.79 32.48 59.74C32.09 59.68 31.7 59.62 31.32 59.54C30.92 59.46 30.55 59.37 30.16 59.27C29.79 59.18 29.4 59.08 29.03 58.97C28.64 58.85 28.28 58.73 27.9 58.6C27.54 58.47 27.16 58.33 26.81 58.18C26.45 58.02 26.09 57.87 25.73 57.7C25.37 57.52 25.02 57.35 24.67 57.16C24.33 56.99 23.99 56.79 23.65 56.58C23.32 56.39 22.99 56.18 22.65 55.96C22.33 55.74 22.01 55.52 21.7 55.27C21.37 55.04 21.07 54.79 20.77 54.56C20.46 54.31 20.16 54.04 19.87 53.79C19.59 53.52 19.29 53.25 19.03 52.98C18.75 52.7 18.48 52.41 18.21 52.12C17.95 51.83 17.7 51.54 17.45 51.24C17.2 50.93 16.95 50.62 16.73 50.31C16.61 50.14 16.49 49.98 16.37 49.81C16.26 49.66 16.14 49.5 16.04 49.33C15.83 49 15.62 48.68 15.41 48.33C15.22 48 15.02 47.66 14.84 47.31C14.75 47.14 14.65 46.97 14.57 46.79C14.48 46.62 14.38 46.45 14.31 46.27C14.13 45.91 13.98 45.56 13.83 45.18C13.67 44.83 13.54 44.46 13.4 44.08C13.28 43.72 13.14 43.35 13.04 42.97C12.92 42.58 12.82 42.22 12.73 41.83C12.62 41.45 12.55 41.06 12.47 40.68C12.38 40.29 12.33 39.91 12.27 39.52C12.21 39.12 12.15 38.74 12.12 38.35C12.09 37.96 12.06 37.56 12.04 37.18C12.01 36.77 12 36.39 12 36C12 35.48 12.02 34.96 12.05 34.43C12.08 33.91 12.12 33.39 12.2 32.87C12.27 32.35 12.35 31.85 12.45 31.33C12.55 30.83 12.66 30.31 12.8 29.81C12.86 29.58 12.92 29.33 13 29.1C13.08 28.83 13.15 28.58 13.25 28.31C13.34 28.06 13.41 27.81 13.52 27.56L13.65 27.21L13.8 26.85C14 26.37 14.21 25.89 14.43 25.41C14.56 25.18 14.67 24.93 14.81 24.68C14.87 24.56 14.95 24.43 15.02 24.29C15.05 24.21 15.1 24.12 15.15 24.04C15.41 23.74 15.86 23.49 16.31 23.49ZM52.34 49.27C52.3 49.27 52.26 49.27 52.21 49.27C52.16 49.27 52.12 49.29 52.08 49.29C52.04 49.29 52 49.29 51.96 49.31C51.91 49.31 51.87 49.31 51.84 49.33C51.8 49.33 51.76 49.35 51.72 49.35C51.67 49.37 51.63 49.37 51.6 49.39C51.56 49.39 51.52 49.41 51.48 49.43C51.43 49.43 51.39 49.46 51.36 49.48C51.32 49.5 51.28 49.5 51.25 49.52C51.21 49.54 51.16 49.56 51.13 49.58C51.1 49.6 51.07 49.62 51.03 49.64C50.99 49.66 50.96 49.68 50.91 49.72C50.88 49.74 50.75 49.83 50.72 49.87C50.68 49.89 50.57 50 50.54 50.04C50.51 50.06 50.38 50.18 50.37 50.22C50.35 50.25 50.24 50.39 50.22 50.41C50.2 50.45 50.16 50.49 50.14 50.52C50.12 50.56 50.11 50.6 50.09 50.64C50.07 50.68 50.05 50.71 50.03 50.75C50.01 50.79 50 50.83 49.98 50.85C49.96 50.89 49.95 50.93 49.92 50.98C49.91 51.02 49.89 51.06 49.88 51.1C49.87 51.14 49.87 51.18 49.86 51.22C49.85 51.25 49.84 51.29 49.83 51.33C49.82 51.37 49.81 51.41 49.81 51.46C49.8 51.5 49.8 51.54 49.79 51.58C49.79 51.62 49.78 51.66 49.78 51.7C49.78 51.74 49.78 51.77 49.78 51.83C49.78 51.87 49.78 51.91 49.78 51.96C49.78 51.97 49.79 52.06 49.79 52.08C49.79 52.12 49.8 52.16 49.81 52.2C49.82 52.24 49.82 52.27 49.83 52.31C49.84 52.35 49.85 52.39 49.86 52.43C49.87 52.48 49.87 52.52 49.88 52.56C49.89 52.6 49.91 52.64 49.92 52.68C49.93 52.7 49.97 52.77 49.98 52.79C50 52.83 50.01 52.87 50.03 52.89C50.05 52.93 50.07 52.97 50.09 53C50.11 53.04 50.12 53.08 50.14 53.12C50.16 53.16 50.18 53.18 50.22 53.23C50.24 53.25 50.34 53.39 50.37 53.43C50.39 53.46 50.51 53.58 50.54 53.6C50.57 53.64 50.68 53.75 50.72 53.77L50.87 53.89L51.08 54.02C51.12 54.04 51.2 54.1 51.24 54.12C51.28 54.14 51.32 54.14 51.35 54.16L51.53 54.23C51.57 54.24 51.66 54.27 51.71 54.27C51.75 54.29 51.79 54.29 51.83 54.31C51.87 54.31 51.9 54.33 51.95 54.33C51.99 54.33 52.03 54.33 52.07 54.35C52.11 54.35 52.14 54.35 52.2 54.35C52.23 54.35 52.3 54.35 52.33 54.35C52.37 54.35 52.4 54.35 52.46 54.35C52.5 54.35 52.54 54.35 52.58 54.35C52.62 54.35 52.65 54.33 52.7 54.33C52.74 54.31 52.78 54.31 52.82 54.31C52.86 54.29 52.89 54.29 52.93 54.27C52.98 54.27 53.02 54.25 53.06 54.25C53.1 54.24 53.13 54.22 53.17 54.21C53.2 54.2 53.28 54.16 53.3 54.16C53.34 54.14 53.37 54.12 53.4 54.1C53.45 54.08 53.49 54.06 53.52 54.04C53.56 54.02 53.59 54 53.62 53.99C53.66 53.97 53.7 53.95 53.74 53.91C53.77 53.89 53.9 53.79 53.93 53.77C53.97 53.74 54.09 53.62 54.12 53.6C54.14 53.56 54.27 53.45 54.29 53.41C54.32 53.39 54.41 53.25 54.43 53.22C54.46 53.18 54.49 53.14 54.51 53.1C54.53 53.06 54.55 53.04 54.57 53C54.59 52.96 54.61 52.93 54.62 52.89C54.64 52.85 54.65 52.81 54.67 52.77C54.7 52.74 54.71 52.7 54.73 52.66C54.74 52.62 54.76 52.58 54.77 52.54C54.78 52.52 54.79 52.43 54.8 52.41C54.81 52.37 54.82 52.33 54.83 52.29C54.84 52.25 54.85 52.21 54.85 52.16C54.86 52.12 54.86 52.08 54.87 52.04C54.87 52.02 54.87 51.95 54.87 51.91L54.87 51.73C54.87 51.68 54.87 51.58 54.87 51.54C54.87 51.5 54.86 51.47 54.85 51.43C54.84 51.39 54.84 51.35 54.83 51.31C54.82 51.27 54.81 51.23 54.8 51.18C54.79 51.14 54.78 51.1 54.77 51.06C54.76 51.02 54.74 50.99 54.73 50.95C54.72 50.91 54.7 50.87 54.67 50.83C54.65 50.79 54.64 50.75 54.62 50.72C54.61 50.68 54.59 50.64 54.57 50.6C54.55 50.56 54.53 50.54 54.51 50.5C54.49 50.46 54.47 50.43 54.43 50.39C54.41 50.35 54.32 50.22 54.29 50.18C54.26 50.16 54.14 50.04 54.12 50C54.09 49.98 53.97 49.85 53.93 49.83C53.9 49.81 53.77 49.71 53.74 49.68C53.71 49.66 53.66 49.64 53.62 49.62C53.59 49.6 53.56 49.58 53.52 49.56C53.48 49.54 53.45 49.52 53.4 49.5C53.37 49.48 53.33 49.47 53.3 49.45C53.28 49.43 53.2 49.41 53.18 49.39C53.14 49.39 53.11 49.37 53.07 49.35C53.03 49.35 52.99 49.33 52.95 49.33C52.9 49.31 52.87 49.31 52.83 49.29C52.79 49.29 52.75 49.27 52.71 49.27C52.66 49.27 52.62 49.27 52.59 49.25C52.55 49.25 52.51 49.25 52.47 49.25C52.41 49.27 52.37 49.27 52.34 49.27ZM48.49 31.41L48.49 37.91C48.49 38.85 48.23 39.77 47.73 40.56L46.7 42.23L49.1 43.58L38.37 49.25C38.09 49.41 37.74 49.39 37.46 49.24C37.16 49.08 37 48.79 37 48.47L36.98 36.71L41.47 39.25L47.12 31C47.53 30.37 48.49 30.68 48.49 31.41ZM24.26 30.33L35.47 36.23L35.47 48C35.47 48.66 34.72 49.1 34.11 48.77L23.37 43.12C23.09 42.97 22.89 42.66 22.89 42.33L22.89 31.1C22.9 30.43 23.64 30 24.26 30.33ZM36 12C36.17 12 36.36 12 36.54 12C36.75 12 36.96 12.02 37.16 12.02C37.56 12.04 37.95 12.08 38.34 12.12C38.73 12.16 39.12 12.21 39.5 12.25C39.89 12.31 40.29 12.37 40.66 12.46C41.06 12.54 41.43 12.62 41.82 12.72C42.2 12.81 42.58 12.91 42.96 13.02C43.34 13.14 43.71 13.27 44.08 13.39C44.27 13.47 44.47 13.54 44.65 13.62C44.83 13.68 45.01 13.75 45.17 13.83C45.54 13.98 45.89 14.14 46.26 14.31C46.61 14.48 46.97 14.64 47.31 14.83C47.65 15.02 48 15.22 48.33 15.41C48.66 15.62 49 15.83 49.33 16.04C49.65 16.27 49.98 16.49 50.29 16.73C50.61 16.95 50.91 17.2 51.22 17.45C51.52 17.7 51.82 17.95 52.11 18.22C52.39 18.48 52.68 18.75 52.96 19.02C53.24 19.31 53.51 19.58 53.77 19.87C54.03 20.16 54.29 20.47 54.54 20.77C54.79 21.06 55.03 21.37 55.26 21.7C55.49 22.02 55.72 22.33 55.93 22.66C56.15 22.99 56.37 23.31 56.57 23.66C56.77 24 56.97 24.33 57.14 24.68C57.24 24.85 57.34 25.04 57.42 25.22C57.52 25.39 57.6 25.56 57.67 25.74C57.85 26.1 58.01 26.45 58.15 26.81C58.31 27.18 58.45 27.54 58.58 27.91C58.71 28.29 58.84 28.66 58.95 29.04C59.06 29.41 59.16 29.79 59.26 30.18C59.36 30.56 59.43 30.93 59.52 31.33C59.6 31.72 59.65 32.1 59.72 32.49C59.78 32.87 59.83 33.27 59.86 33.66C59.89 34.04 59.92 34.43 59.95 34.83C59.99 35.21 60 35.6 60 36C60 36.75 59.97 37.49 59.89 38.23C59.83 38.97 59.73 39.71 59.59 40.43C59.52 40.81 59.43 41.16 59.36 41.52C59.27 41.89 59.17 42.25 59.08 42.6C58.87 43.33 58.63 44.02 58.37 44.73C58.33 44.79 58.29 44.87 58.25 44.91C57.91 45.37 57.04 45.6 56.48 45.18C55.93 44.77 55.81 44.1 56.11 43.5C56.33 42.89 56.53 42.29 56.7 41.68C56.87 41.06 57.01 40.43 57.12 39.81C57.23 39.18 57.32 38.54 57.37 37.91C57.43 37.27 57.47 36.64 57.47 36C57.47 35.64 57.46 35.29 57.43 34.95C57.41 34.6 57.39 34.25 57.36 33.89C57.33 33.54 57.28 33.2 57.23 32.85C57.17 32.5 57.12 32.16 57.05 31.81C56.98 31.48 56.89 31.12 56.82 30.79C56.73 30.45 56.63 30.1 56.54 29.77C56.43 29.43 56.33 29.1 56.21 28.77C56.09 28.45 55.97 28.12 55.83 27.79C55.7 27.48 55.55 27.14 55.39 26.83C55.25 26.52 55.09 26.21 54.92 25.89C54.76 25.58 54.59 25.29 54.4 24.98C54.23 24.68 54.04 24.37 53.85 24.08C53.64 23.79 53.45 23.5 53.24 23.23C53.03 22.95 52.81 22.66 52.59 22.39C52.36 22.12 52.13 21.85 51.89 21.6C51.65 21.33 51.41 21.08 51.16 20.83C50.91 20.58 50.66 20.35 50.4 20.1C50.28 19.99 50.13 19.87 50.01 19.75C49.87 19.64 49.75 19.54 49.61 19.43C49.34 19.2 49.06 18.99 48.78 18.77C48.62 18.66 48.48 18.56 48.33 18.45C48.18 18.35 48.06 18.25 47.91 18.16C47.62 17.98 47.33 17.79 47.03 17.6C46.86 17.5 46.71 17.41 46.55 17.33C46.4 17.25 46.26 17.16 46.11 17.08C45.81 16.91 45.5 16.77 45.17 16.62C44.86 16.47 44.54 16.33 44.22 16.18C43.89 16.06 43.57 15.93 43.24 15.81C42.9 15.68 42.58 15.58 42.24 15.48C41.89 15.37 41.57 15.27 41.23 15.2C40.88 15.1 40.55 15.04 40.2 14.97C39.86 14.89 39.5 14.83 39.15 14.79C38.81 14.74 38.46 14.7 38.12 14.66C37.77 14.62 37.41 14.6 37.07 14.58C36.72 14.56 36.37 14.54 36.02 14.54C35.27 14.54 34.52 14.58 33.78 14.66C33.03 14.75 32.29 14.87 31.56 15.02C30.83 15.18 30.1 15.37 29.38 15.6C29.03 15.72 28.67 15.83 28.33 15.98L27.81 16.18C27.83 16.23 27.8 16.29 27.82 16.33L27.87 16.45C27.9 16.52 27.93 16.6 27.97 16.68C28 16.75 28.03 16.83 28.06 16.91C28.09 16.99 28.11 17.06 28.13 17.14C28.15 17.23 28.18 17.31 28.21 17.39C28.23 17.47 28.25 17.54 28.26 17.62C28.28 17.7 28.29 17.79 28.3 17.87C28.31 17.95 28.32 18.04 28.33 18.12C28.34 18.2 28.34 18.29 28.35 18.37C28.35 18.45 28.36 18.54 28.36 18.62C28.36 18.7 28.36 18.79 28.35 18.87C28.35 18.91 28.35 18.95 28.34 19C28.34 19.04 28.33 19.08 28.33 19.12C28.32 19.2 28.31 19.29 28.3 19.37C28.29 19.45 28.27 19.54 28.26 19.62C28.24 19.7 28.23 19.79 28.21 19.87C28.18 19.95 28.16 20.02 28.13 20.1C28.12 20.18 28.09 20.27 28.06 20.35C28.03 20.43 28 20.5 27.97 20.58C27.93 20.66 27.89 20.73 27.87 20.81C27.83 20.89 27.8 20.96 27.76 21.02C27.72 21.1 27.67 21.18 27.63 21.25C27.6 21.31 27.55 21.39 27.51 21.46C27.46 21.52 27.41 21.6 27.37 21.66C27.34 21.7 27.24 21.83 27.21 21.85C27.15 21.91 27.1 21.99 27.05 22.04C26.99 22.1 26.93 22.16 26.87 22.23C26.82 22.29 26.76 22.35 26.7 22.39C26.63 22.46 26.57 22.5 26.51 22.56L26.39 22.64C26.33 22.7 26.16 22.81 26.11 22.85C26.04 22.91 25.97 22.95 25.89 22.99C25.83 23.02 25.76 23.06 25.67 23.1C25.61 23.14 25.53 23.18 25.46 23.22C25.37 23.25 25.31 23.29 25.23 23.31C25.14 23.35 25.07 23.37 25 23.41C24.91 23.43 24.84 23.46 24.76 23.49C24.67 23.5 24.6 23.54 24.52 23.56C24.43 23.58 24.36 23.6 24.28 23.6C24.2 23.62 24.12 23.64 24.03 23.64C23.95 23.66 23.86 23.66 23.78 23.68C23.74 23.68 23.7 23.68 23.65 23.68L23.53 23.7C23.45 23.7 23.36 23.71 23.28 23.71C23.2 23.71 23.11 23.71 23.03 23.7C22.95 23.7 22.86 23.68 22.78 23.68C22.7 23.66 22.61 23.66 22.53 23.64C22.45 23.64 22.37 23.62 22.28 23.6C22.2 23.58 22.12 23.58 22.04 23.56C21.96 23.54 21.87 23.52 21.8 23.49C21.72 23.47 21.63 23.43 21.56 23.41C21.48 23.37 21.39 23.35 21.33 23.31C21.25 23.29 21.17 23.25 21.1 23.22C21.02 23.18 20.95 23.14 20.87 23.1C20.81 23.06 20.73 23.02 20.65 22.99C20.59 22.95 20.52 22.89 20.45 22.85C20.37 22.81 20.31 22.77 20.25 22.72C20.2 22.68 20.09 22.6 20.04 22.56C19.99 22.52 19.91 22.46 19.86 22.41C19.79 22.35 19.74 22.29 19.67 22.24C19.62 22.18 19.56 22.12 19.51 22.06C19.45 22 19.39 21.93 19.35 21.87C19.32 21.83 19.21 21.71 19.2 21.66C19.14 21.6 19.1 21.52 19.06 21.47C19.01 21.39 18.96 21.33 18.92 21.25C18.89 21.22 18.87 21.16 18.86 21.12C18.82 21.06 18.73 20.89 18.7 20.81C18.65 20.74 18.62 20.66 18.6 20.58C18.57 20.5 18.54 20.43 18.51 20.35C18.48 20.27 18.45 20.2 18.42 20.12C18.4 20.04 18.37 19.95 18.36 19.87C18.34 19.79 18.32 19.72 18.31 19.64C18.29 19.6 18.29 19.56 18.29 19.52L18.27 19.39C18.26 19.35 18.26 19.31 18.25 19.27L18.24 19.14L18.23 19.02C18.23 18.98 18.21 18.93 18.21 18.89C18.21 18.81 18.2 18.73 18.2 18.64C18.2 18.56 18.2 18.48 18.21 18.39C18.21 18.31 18.23 18.23 18.24 18.14C18.25 18.06 18.26 17.98 18.27 17.89C18.28 17.81 18.29 17.74 18.31 17.64C18.33 17.56 18.34 17.49 18.36 17.41C18.37 17.33 18.39 17.25 18.42 17.16C18.43 17.12 18.45 17.08 18.46 17.04C18.48 17 18.5 16.97 18.51 16.93C18.54 16.85 18.57 16.77 18.6 16.7C18.62 16.62 18.66 16.54 18.7 16.47C18.74 16.39 18.77 16.31 18.81 16.25C18.83 16.2 18.85 16.18 18.87 16.14L18.92 16.02C18.96 15.96 19.02 15.89 19.06 15.81C19.11 15.75 19.14 15.68 19.2 15.62C19.21 15.58 19.25 15.54 19.27 15.52L19.35 15.41C19.39 15.35 19.45 15.29 19.51 15.23C19.57 15.16 19.62 15.1 19.67 15.04C19.74 14.99 19.79 14.93 19.86 14.87C19.91 14.81 19.99 14.77 20.04 14.72C20.08 14.68 20.11 14.66 20.14 14.64L20.25 14.56C20.32 14.5 20.38 14.46 20.45 14.41C20.52 14.37 20.59 14.33 20.65 14.29C20.7 14.27 20.73 14.25 20.77 14.23L20.88 14.16C20.96 14.12 21.04 14.08 21.11 14.06C21.18 14.02 21.26 13.99 21.34 13.96C21.41 13.93 21.5 13.89 21.57 13.87C21.61 13.85 21.64 13.83 21.68 13.83L21.81 13.79C21.88 13.77 21.97 13.74 22.05 13.72C22.12 13.7 22.21 13.68 22.29 13.66C22.37 13.64 22.45 13.64 22.54 13.62C22.62 13.62 22.71 13.6 22.79 13.6C22.87 13.58 22.96 13.58 23.04 13.58C23.12 13.58 23.21 13.56 23.29 13.56C23.37 13.56 23.46 13.56 23.54 13.58C23.58 13.58 23.62 13.58 23.65 13.58C23.7 13.58 23.75 13.6 23.79 13.6C23.83 13.6 23.87 13.6 23.9 13.6C23.95 13.62 24 13.62 24.04 13.62C24.08 13.64 24.12 13.64 24.15 13.64C24.2 13.66 24.24 13.66 24.28 13.66C24.36 13.68 24.43 13.7 24.52 13.72C24.6 13.74 24.67 13.75 24.76 13.79C24.84 13.81 24.91 13.83 25 13.87C25.08 13.89 25.15 13.93 25.23 13.96C25.31 13.99 25.37 14.02 25.46 14.06C25.54 14.1 25.61 14.12 25.67 14.16C25.72 14.18 25.86 14.27 25.89 14.29C26.17 14.16 26.46 14.02 26.75 13.89C26.97 13.81 27.17 13.72 27.39 13.64C27.6 13.56 27.81 13.48 28.02 13.41C28.24 13.33 28.46 13.25 28.66 13.18C28.87 13.12 29.1 13.06 29.31 12.99C29.75 12.85 30.18 12.75 30.62 12.64C31.07 12.54 31.52 12.45 31.97 12.37C32.41 12.29 32.87 12.23 33.32 12.18C33.55 12.14 33.77 12.12 34 12.1C34.23 12.08 34.45 12.06 34.67 12.06C34.89 12.04 35.11 12.04 35.33 12.02C35.52 12 35.75 12 36 12ZM36.84 22.47L47.56 27.54C47.85 27.68 48.04 27.99 48.04 28.31C48.04 28.62 47.86 28.93 47.56 29.08L36.48 34.87L25.32 29.04C25.03 28.89 24.84 28.58 24.84 28.27C24.84 27.95 25.02 27.64 25.32 27.5L35.96 22.47C36.24 22.33 36.57 22.33 36.84 22.47ZM23.23 16.08C23.18 16.08 23.14 16.08 23.1 16.08C23.06 16.08 23.02 16.1 22.97 16.1L22.79 16.12C22.75 16.14 22.64 16.16 22.61 16.16C22.57 16.18 22.53 16.18 22.49 16.2C22.45 16.2 22.4 16.23 22.37 16.24C22.33 16.25 22.29 16.27 22.25 16.29C22.21 16.31 22.16 16.31 22.13 16.33C22.1 16.35 22.06 16.37 22.03 16.39C21.99 16.41 21.96 16.43 21.91 16.45C21.87 16.48 21.85 16.5 21.81 16.52C21.78 16.54 21.74 16.58 21.71 16.6C21.67 16.62 21.63 16.64 21.61 16.68C21.58 16.7 21.46 16.81 21.42 16.85C21.39 16.87 21.28 17 21.26 17.02C21.23 17.06 21.21 17.1 21.17 17.12C21.15 17.16 21.12 17.2 21.11 17.23C21.09 17.25 21.06 17.29 21.04 17.33C21.02 17.37 21 17.41 20.98 17.45C20.96 17.49 20.93 17.52 20.91 17.56C20.89 17.6 20.88 17.64 20.87 17.66C20.85 17.7 20.84 17.75 20.82 17.79C20.81 17.83 20.79 17.87 20.78 17.91C20.77 17.95 20.76 17.99 20.75 18.02C20.74 18.06 20.73 18.1 20.72 18.14C20.71 18.18 20.7 18.23 20.7 18.27C20.68 18.31 20.68 18.35 20.67 18.39C20.67 18.43 20.66 18.47 20.66 18.5C20.66 18.54 20.66 18.58 20.66 18.64C20.66 18.68 20.66 18.72 20.66 18.77C20.66 18.77 20.67 18.87 20.67 18.89C20.67 18.93 20.68 18.97 20.7 19C20.71 19.04 20.71 19.08 20.72 19.12C20.73 19.16 20.74 19.2 20.75 19.25C20.76 19.29 20.77 19.33 20.78 19.37C20.79 19.41 20.81 19.45 20.82 19.49C20.83 19.51 20.86 19.58 20.87 19.6C20.88 19.64 20.89 19.68 20.91 19.7C20.93 19.75 20.96 19.77 20.98 19.81C21 19.85 21.02 19.89 21.04 19.93C21.06 19.97 21.08 20 21.11 20.04L21.17 20.14C21.2 20.16 21.23 20.2 21.26 20.24C21.29 20.27 21.39 20.39 21.42 20.41L21.61 20.58C21.63 20.62 21.67 20.64 21.71 20.66C21.74 20.68 21.78 20.72 21.81 20.74C21.84 20.76 21.87 20.79 21.91 20.81C21.96 20.83 21.99 20.85 22.03 20.87C22.07 20.89 22.1 20.91 22.13 20.93C22.17 20.95 22.22 20.96 22.25 20.98C22.29 21 22.33 21.01 22.37 21.02C22.4 21.02 22.45 21.04 22.49 21.06C22.53 21.06 22.57 21.08 22.61 21.08C22.64 21.1 22.68 21.1 22.73 21.12C22.77 21.12 22.81 21.14 22.85 21.14C22.88 21.14 22.92 21.14 22.97 21.16C23.01 21.16 23.05 21.16 23.1 21.16C23.12 21.16 23.2 21.16 23.23 21.16C23.27 21.16 23.31 21.16 23.36 21.16C23.39 21.16 23.43 21.16 23.48 21.16C23.52 21.16 23.56 21.14 23.6 21.14C23.63 21.12 23.67 21.12 23.72 21.12C23.76 21.1 23.8 21.1 23.84 21.08C23.88 21.08 23.91 21.06 23.96 21.06C24 21.04 24.04 21.02 24.08 21.02C24.1 21.01 24.17 20.98 24.2 20.97C24.24 20.95 24.28 20.93 24.31 20.91C24.35 20.89 24.38 20.87 24.41 20.85C24.46 20.83 24.49 20.81 24.53 20.79C24.57 20.77 24.6 20.76 24.63 20.73L24.74 20.66C24.77 20.64 24.81 20.6 24.84 20.58C24.87 20.54 24.99 20.43 25.02 20.41C25.05 20.37 25.16 20.26 25.18 20.23C25.22 20.2 25.24 20.16 25.27 20.12C25.29 20.1 25.32 20.06 25.34 20.02C25.36 20 25.38 19.95 25.4 19.91C25.42 19.87 25.45 19.85 25.47 19.81C25.49 19.77 25.51 19.74 25.53 19.7C25.55 19.66 25.56 19.62 25.58 19.58C25.6 19.56 25.61 19.51 25.63 19.47C25.63 19.43 25.65 19.39 25.66 19.35L25.7 19.22C25.71 19.18 25.72 19.14 25.73 19.1C25.74 19.06 25.75 19.02 25.75 18.98L25.77 18.83C25.77 18.81 25.77 18.75 25.78 18.73L25.78 18.54C25.78 18.5 25.77 18.39 25.77 18.35C25.77 18.31 25.76 18.27 25.75 18.24C25.74 18.2 25.74 18.16 25.73 18.12C25.72 18.08 25.71 18.04 25.7 18C25.68 17.95 25.67 17.91 25.66 17.87C25.65 17.83 25.63 17.79 25.63 17.75C25.62 17.72 25.6 17.68 25.58 17.64C25.56 17.6 25.55 17.56 25.53 17.52C25.51 17.49 25.49 17.45 25.47 17.41C25.45 17.37 25.42 17.35 25.4 17.31C25.38 17.27 25.37 17.24 25.34 17.2C25.32 17.16 25.29 17.12 25.27 17.1C25.25 17.06 25.22 17.02 25.18 17C25.15 16.97 25.05 16.85 25.02 16.81C24.99 16.79 24.87 16.66 24.84 16.64C24.81 16.62 24.77 16.6 24.74 16.56L24.63 16.5C24.61 16.48 24.57 16.45 24.53 16.43C24.49 16.41 24.46 16.39 24.41 16.37L24.31 16.31C24.27 16.29 24.23 16.27 24.2 16.25C24.17 16.25 24.1 16.22 24.09 16.2C24.05 16.2 24.01 16.18 23.97 16.16C23.92 16.16 23.88 16.14 23.85 16.14C23.81 16.12 23.77 16.12 23.73 16.1L23.55 16.08C23.51 16.08 23.4 16.06 23.37 16.06C23.32 16.08 23.27 16.08 23.23 16.08Z" fill="#FFFFFF" fill-opacity="1.000000" fill-rule="evenodd"/>
	</g>
</svg>
