<svg width="72.000000" height="72.000000" viewBox="0 0 72 72" fill="none" xmlns="http://www.w3.org/2000/svg" xmlns:xlink="http://www.w3.org/1999/xlink">
	<desc>
			Created with Pixso.
	</desc>
	<defs>
		<clipPath id="clip117_206">
			<rect id="11#统一身份认证服务-IAM" width="72.000000" height="72.000000" fill="white" fill-opacity="0"/>
		</clipPath>
	</defs>
	<g clip-path="url(#clip117_206)">
		<path id="矩形备份-19" d="M16 0L56 0C64.8 0 72 7.2 72 16L72 56C72 64.79 64.8 72 56 72L16 72C7.19 72 0 64.79 0 56L0 16C0 7.2 7.19 0 16 0Z" fill="#1476FF" fill-opacity="1.000000" fill-rule="evenodd"/>
		<path id="形状结合" d="M56.7 18C58.39 18 60 19.5 60 21.39L60 50.6C60 52.5 58.6 54 56.7 54L15.3 54C13.6 54 12 52.39 12 50.6L12 21.39C12 19.5 13.39 18 15.3 18L56.7 18ZM24.8 26C22.3 26 20.2 28.1 20.2 30.7L20.2 34.1C20.2 35.5 20.8 36.79 21.89 37.7L21.89 38.2C21.7 38.29 21.1 38.5 20.7 38.6C19.2 39 17 39.7 17 41.7L17 43.39C17 43.7 17.2 43.89 17.5 43.89L32.1 43.89C32.39 43.89 32.6 43.7 32.6 43.39L32.6 41.7C32.6 39.7 30.39 39 28.89 38.6C28.5 38.5 27.89 38.29 27.7 38.2L27.7 37.7C28.8 36.79 29.39 35.5 29.39 34.1L29.39 30.7C29.39 28.1 27.3 26 24.8 26ZM53.2 40L38.8 40C38.39 40 38 40.29 38 40.79L38 41.29C38 41.7 38.3 42.1 38.8 42.1L53.3 42.1C53.7 42.1 54.1 41.79 54.1 41.29L54.1 40.79C54 40.29 53.7 40 53.2 40ZM53.2 35L38.8 35C38.39 35 38 35.29 38 35.79L38 36.29C38 36.7 38.3 37.1 38.8 37.1L53.3 37.1C53.7 37.1 54.1 36.79 54.1 36.29L54.1 35.79C54 35.29 53.7 35 53.2 35ZM53.2 30L38.8 30C38.39 30 38 30.29 38 30.79L38 31.29C38 31.7 38.3 32.1 38.8 32.1L53.3 32.1C53.7 32.1 54.1 31.79 54.1 31.29L54.1 30.79C54 30.29 53.7 30 53.2 30Z" fill="#FFFFFF" fill-opacity="1.000000" fill-rule="nonzero"/>
	</g>
</svg>
