<svg width="72.000000" height="72.000000" viewBox="0 0 72 72" fill="none" xmlns="http://www.w3.org/2000/svg" xmlns:xlink="http://www.w3.org/1999/xlink">
	<desc>
			Created with Pixso.
	</desc>
	<defs>
		<clipPath id="clip117_210">
			<rect id="12#资源访问管理-RAM" width="72.000000" height="72.000000" fill="white" fill-opacity="0"/>
		</clipPath>
	</defs>
	<g clip-path="url(#clip117_210)">
		<path id="矩形备份-19" d="M16 0L56 0C64.8 0 72 7.2 72 16L72 56C72 64.79 64.8 72 56 72L16 72C7.19 72 0 64.79 0 56L0 16C0 7.2 7.19 0 16 0Z" fill="#00C4BE" fill-opacity="1.000000" fill-rule="evenodd"/>
		<path id="形状结合" d="M55.87 32.67C57.67 32.67 59.04 34.57 59.04 36.83L59.04 38.93L60.55 38.93C61.38 38.93 62.05 39.63 62.05 40.49L62.05 48.85C62.05 49.26 61.89 49.66 61.61 49.95C61.33 50.24 60.95 50.41 60.55 50.41L50 50.41C49.16 50.41 48.5 49.71 48.5 48.85L48.5 40.49C48.5 39.63 49.16 38.93 50 38.93L51.51 38.93L51.51 36.83C51.51 34.57 52.87 32.67 54.67 32.67L55.87 32.67ZM50.84 15.97C54.15 15.97 56.84 18.66 56.84 21.97L56.84 30.26C56.53 30.2 56.2 30.17 55.87 30.17L54.67 30.17L54.52 30.17L54.36 30.18C51.29 30.36 49.15 33.2 49.01 36.49L48.82 36.6C47.17 37.11 45.98 38.67 45.98 40.49L45.98 48.32L20.04 48.32C16.74 48.32 14.05 45.63 14.05 42.32L14.05 21.97C14.05 18.66 16.74 15.97 20.04 15.97L50.84 15.97ZM55.28 42.06C54.43 42.06 53.77 42.76 53.77 43.63C53.77 44.21 54.07 44.72 54.52 44.99L54.52 46.76C54.52 47.04 54.66 47.3 54.89 47.44C55.12 47.58 55.41 47.58 55.64 47.44C55.87 47.3 56.02 47.04 56.02 46.76L56.02 44.99C56.47 44.72 56.77 44.21 56.77 43.63C56.78 42.75 56.11 42.06 55.28 42.06ZM25.38 34.37L22.52 38.95C22.32 39.27 22.22 39.64 22.22 40.01C22.22 41.11 23.12 42.01 24.22 42.01L29.95 42.01C30.32 42.01 30.68 41.9 31.01 41.71C31.95 41.12 32.23 39.89 31.65 38.95L28.79 34.37C28.63 34.11 28.41 33.89 28.15 33.73C27.2 33.15 25.97 33.43 25.38 34.37ZM27.08 35.43L29.93 40.01L24.21 40.01L27.08 35.43ZM55.87 34.23L54.67 34.23C53.81 34.23 53.02 35.35 53.02 36.82L53.02 38.92L57.54 38.92L57.54 36.82C57.54 35.35 56.74 34.23 55.87 34.23ZM27.08 21.23C24.47 21.23 22.35 23.35 22.35 25.96C22.35 28.57 24.47 30.69 27.08 30.69C29.68 30.69 31.81 28.57 31.81 25.96C31.81 23.35 29.68 21.23 27.08 21.23ZM43.86 21.23L40.39 21.23C38.73 21.23 37.39 22.57 37.39 24.23L37.39 27.7C37.39 29.36 38.73 30.7 40.39 30.7L43.86 30.7C45.52 30.7 46.86 29.36 46.86 27.7L46.86 24.23C46.86 22.57 45.52 21.23 43.86 21.23ZM27.08 23.23C28.59 23.23 29.81 24.45 29.81 25.96C29.81 27.47 28.59 28.69 27.08 28.69C25.57 28.69 24.35 27.47 24.35 25.96C24.34 24.46 25.57 23.23 27.08 23.23ZM43.86 23.23C44.41 23.23 44.86 23.68 44.86 24.23L44.86 27.7C44.86 28.25 44.41 28.7 43.86 28.7L40.39 28.7C39.84 28.7 39.39 28.25 39.39 27.7L39.39 24.23C39.39 23.68 39.84 23.23 40.39 23.23L43.86 23.23ZM21.82 52.49L48.04 52.49C48.87 52.49 49.54 53.16 49.54 53.99L49.54 54.12C49.54 54.95 48.87 55.62 48.04 55.62L21.82 55.62C20.99 55.62 20.32 54.95 20.32 54.12L20.32 53.99C20.32 53.16 20.99 52.49 21.82 52.49Z" fill="#FFFFFF" fill-opacity="1.000000" fill-rule="evenodd"/>
	</g>
</svg>
