<svg width="72.000000" height="72.000000" viewBox="0 0 72 72" fill="none" xmlns="http://www.w3.org/2000/svg" xmlns:xlink="http://www.w3.org/1999/xlink">
	<desc>
			Created with Pixso.
	</desc>
	<defs>
		<clipPath id="clip117_209">
			<rect id="13#组织-Organizations" width="72.000000" height="72.000000" fill="white" fill-opacity="0"/>
		</clipPath>
	</defs>
	<g clip-path="url(#clip117_209)">
		<path id="矩形备份-19" d="M16 0L56 0C64.8 0 72 7.2 72 16L72 56C72 64.79 64.8 72 56 72L16 72C7.19 72 0 64.79 0 56L0 16C0 7.2 7.19 0 16 0Z" fill="#1476FF" fill-opacity="1.000000" fill-rule="evenodd"/>
		<path id="形状结合" d="M36.5 15C40.39 15 43.6 18.1 43.6 22C43.6 25.39 41.2 28.2 38 28.79L38 33.89L51.6 33.89C54.6 33.89 57.1 36.39 57.1 39.39L57.1 44.5C58.8 45.1 60 46.7 60 48.5C60 50.89 58 52.79 55.6 52.79C53.2 52.79 51.2 50.89 51.2 48.5C51.2 46.6 52.39 45.1 54.1 44.5L54.1 39.39C54.1 38 53 36.89 51.6 36.89L38 37L38 44.6C40 45.2 41.39 47.1 41.39 49.2C41.39 51.89 39.2 54 36.5 54C33.8 54 31.6 51.79 31.6 49.2C31.6 47 33 45.2 35 44.6L35 37L20.29 37C18.89 37 17.79 38.1 17.79 39.5L17.79 44.6C19.5 45.2 20.7 46.79 20.7 48.6C20.7 51 18.7 52.89 16.29 52.89C13.89 52.89 12 51 12 48.6C12 46.7 13.2 45.2 14.89 44.6L14.89 39.5C14.89 36.5 17.39 34 20.39 34L35 34L35 28.89C31.8 28.2 29.39 25.39 29.39 22.1C29.5 18.1 32.6 15 36.5 15Z" fill="#FFFFFF" fill-opacity="1.000000" fill-rule="nonzero"/>
	</g>
</svg>
