<svg width="72.000000" height="72.000000" viewBox="0 0 72 72" fill="none" xmlns="http://www.w3.org/2000/svg" xmlns:xlink="http://www.w3.org/1999/xlink">
	<desc>
			Created with Pixso.
	</desc>
	<defs>
		<clipPath id="clip117_212">
			<rect id="14#配置审计-Config" width="72.000000" height="72.000000" fill="white" fill-opacity="0"/>
		</clipPath>
	</defs>
	<g clip-path="url(#clip117_212)">
		<path id="矩形备份-19" d="M16 0L56 0C64.8 0 72 7.2 72 16L72 56C72 64.79 64.8 72 56 72L16 72C7.19 72 0 64.79 0 56L0 16C0 7.2 7.19 0 16 0Z" fill="#F85835" fill-opacity="1.000000" fill-rule="evenodd"/>
		<path id="形状结合" d="M36 12C37.32 12 38.53 12.33 39.62 12.87L54.48 21.37C56.46 22.47 58 25.2 58 27.49L58 44.5C58 46.79 56.46 49.41 54.48 50.62L39.62 59.12C38.53 59.66 37.32 60 36 60C34.67 60 33.36 59.66 32.37 59.12L17.52 50.62C15.54 49.41 14 46.79 14 44.5L14 27.49C14 25.2 15.54 22.47 17.52 21.37L32.37 12.87C33.47 12.33 34.67 12 36 12ZM36.17 41.25C33.42 41.25 31.25 43.46 31.25 46.23C31.25 49 33.43 51.21 36.17 51.21L36.43 51.2C37.29 51.16 38.1 50.89 38.8 50.43L39.9 51.48C40.02 51.6 40.16 51.68 40.34 51.72C40.43 51.75 40.5 51.75 40.61 51.75C40.74 51.75 40.83 51.74 40.97 51.7L41.08 51.64C41.23 51.58 41.36 51.47 41.46 51.31C41.78 50.91 41.76 50.31 41.37 49.93L40.35 48.93C40.84 48.16 41.11 47.22 41.11 46.22C41.12 43.46 38.92 41.25 36.17 41.25ZM36.17 42.75C38.1 42.75 39.61 44.27 39.61 46.23C39.61 47.04 39.37 47.77 38.92 48.33L38.36 48.87C37.79 49.41 37 49.71 36.17 49.71C34.25 49.71 32.75 48.18 32.75 46.23C32.75 44.27 34.27 42.75 36.17 42.75ZM36 20C34.34 20 33 21.33 33 23L33 23.18C33.08 24.41 33.88 25.43 35 25.83L35 31.6L27.91 35.7C27.39 35.25 26.73 35 26 35C24.34 35 23 36.33 23 38C23 39.66 24.34 41 26 41C27.65 41 29 39.66 29 38C29 37.79 28.98 37.6 28.93 37.41L36 33.35L43.06 37.41C43.02 37.6 43 37.79 43 38C43 39.66 44.34 41 46 41C47.65 41 49 39.66 49 38C49 36.33 47.65 35 46 35C45.27 35 44.6 35.25 44.08 35.7L37 31.6L37 25.83C38.15 25.41 39 24.31 39 23C39 21.33 37.65 20 36 20Z" fill="#FFFFFF" fill-opacity="1.000000" fill-rule="evenodd"/>
	</g>
</svg>
