<svg width="72.000000" height="72.000000" viewBox="0 0 72 72" fill="none" xmlns="http://www.w3.org/2000/svg" xmlns:xlink="http://www.w3.org/1999/xlink">
	<desc>
			Created with Pixso.
	</desc>
	<defs>
		<clipPath id="clip117_211">
			<rect id="15#资源编排服务-RFS" width="72.000000" height="72.000000" fill="white" fill-opacity="0"/>
		</clipPath>
	</defs>
	<g clip-path="url(#clip117_211)">
		<path id="矩形备份-19" d="M16 0L56 0C64.8 0 72 7.2 72 16L72 56C72 64.79 64.8 72 56 72L16 72C7.19 72 0 64.79 0 56L0 16C0 7.2 7.19 0 16 0Z" fill="#00ABED" fill-opacity="1.000000" fill-rule="evenodd"/>
		<path id="形状结合" d="M57.64 34C58.41 34 59.04 34.6 59.04 35.34C59.04 45.96 50.85 54.74 40.19 56.2C39.66 58.38 37.62 60 35.18 60C32.34 60 30.04 57.79 30.04 55.07C30.04 52.35 32.34 50.14 35.19 50.14C37.46 50.14 39.38 51.55 40.07 53.5C49.23 52.12 56.24 44.52 56.24 35.35C56.23 34.6 56.86 34 57.64 34ZM35.19 52.83C33.9 52.83 32.85 53.83 32.85 55.07C32.85 56.31 33.9 57.31 35.19 57.31C36.48 57.31 37.53 56.31 37.53 55.07C37.53 53.83 36.48 52.83 35.19 52.83ZM21.07 20.8C23.43 22.16 24.23 25.17 22.87 27.53C21.78 29.41 19.64 30.31 17.63 29.9C14.44 38.19 17.66 47.8 25.6 52.38C26.24 52.75 26.46 53.57 26.09 54.22C25.72 54.86 24.9 55.08 24.25 54.71C15.06 49.41 11.39 38.22 15.23 28.66C13.6 27.13 13.17 24.63 14.34 22.61C15.69 20.24 18.71 19.44 21.07 20.8ZM45.49 38.5L46.58 39.14C46.73 39.23 46.85 39.35 46.94 39.5C47.22 39.98 47.06 40.59 46.58 40.87L36.55 46.71C36.24 46.89 35.85 46.89 35.54 46.71L25.51 40.87C25.36 40.78 25.24 40.66 25.15 40.51C24.87 40.03 25.03 39.42 25.51 39.14L26.6 38.5L35.54 43.71C35.85 43.89 36.24 43.89 36.55 43.71L45.49 38.5ZM44.64 34L46.59 35.14C46.74 35.23 46.86 35.35 46.95 35.5C47.23 35.98 47.07 36.59 46.59 36.87L36.56 42.71C36.25 42.89 35.86 42.89 35.55 42.71L25.52 36.87C25.37 36.78 25.25 36.66 25.16 36.51C24.88 36.03 25.04 35.42 25.52 35.14L27.47 34L35.55 38.71C35.86 38.89 36.25 38.89 36.56 38.71L44.64 34ZM36.56 24.29L46.59 30.13C46.74 30.22 46.86 30.34 46.95 30.49C47.23 30.97 47.07 31.58 46.59 31.86L36.56 37.7C36.25 37.88 35.86 37.88 35.55 37.7L25.52 31.86C25.37 31.77 25.25 31.65 25.16 31.5C24.88 31.02 25.04 30.41 25.52 30.13L35.55 24.29C35.86 24.11 36.25 24.11 36.56 24.29ZM51.98 20.57C54.1 19.94 56.46 20.83 57.63 22.85C58.99 25.21 58.21 28.21 55.88 29.55C53.55 30.89 50.56 30.07 49.2 27.71C48.11 25.83 48.39 23.54 49.73 22.01C44.16 15.09 34.31 13.03 26.47 17.55C25.84 17.92 25.02 17.69 24.65 17.05C24.28 16.41 24.49 15.59 25.13 15.22C34.21 9.98 45.63 12.45 51.98 20.57ZM52.29 23.34C51.23 23.95 50.88 25.31 51.5 26.39C52.12 27.46 53.48 27.84 54.54 27.22C55.6 26.61 55.95 25.25 55.33 24.17C54.71 23.09 53.35 22.73 52.29 23.34ZM16.66 23.95C16.04 25.02 16.41 26.39 17.48 27.01C18.55 27.63 19.92 27.26 20.54 26.19C21.16 25.12 20.79 23.75 19.72 23.13C18.65 22.51 17.28 22.87 16.66 23.95Z" fill="#FFFFFF" fill-opacity="1.000000" fill-rule="evenodd"/>
	</g>
</svg>
