<svg width="72.000000" height="72.000000" viewBox="0 0 72 72" fill="none" xmlns="http://www.w3.org/2000/svg" xmlns:xlink="http://www.w3.org/1999/xlink">
	<desc>
			Created with Pixso.
	</desc>
	<defs>
		<clipPath id="clip117_214">
			<rect id="16#优化顾问-OA" width="72.000000" height="72.000000" fill="white" fill-opacity="0"/>
		</clipPath>
	</defs>
	<g clip-path="url(#clip117_214)">
		<path id="矩形备份-19" d="M16 0L56 0C64.8 0 72 7.2 72 16L72 56C72 64.79 64.8 72 56 72L16 72C7.19 72 0 64.79 0 56L0 16C0 7.2 7.19 0 16 0Z" fill="#25C251" fill-opacity="1.000000" fill-rule="evenodd"/>
		<path id="形状结合" d="M36 12C37.29 12 38.47 12.31 39.54 12.87L54.06 21.37C55.99 22.47 57.5 25.2 57.5 27.49L57.5 44.5C57.5 46.79 55.99 49.41 54.06 50.6L39.54 59.12C38.47 59.66 37.29 60 36 60C34.71 60 33.4 59.66 32.45 59.12L17.93 50.6C16 49.41 14.5 46.79 14.5 44.5L14.5 27.49C14.5 25.2 16 22.47 17.93 21.37L32.45 12.87C33.52 12.31 34.71 12 36 12ZM35.49 23.1C31.45 23.1 28.02 25.68 26.8 29.35C22.75 29.96 19.57 33.52 19.57 37.79C19.57 42.46 23.49 46.37 28.13 46.37L42.84 46.37C47.5 46.37 51.41 42.46 51.41 37.79C51.41 33.52 48.23 29.96 44.18 29.35C42.97 25.68 39.54 23.1 35.49 23.1ZM36.92 31L37.04 31C37.13 31 37.25 31.04 37.35 31.08C37.4 31.12 37.55 31.24 37.61 31.29C37.64 31.33 37.68 31.39 37.72 31.45C37.74 31.49 37.75 31.52 37.78 31.58L40.06 38.46L42.27 38.46C42.29 38.41 42.32 38.35 42.34 38.31C42.39 38.21 42.46 38.1 42.53 38.02C42.59 37.91 42.66 37.83 42.75 37.75C42.83 37.66 42.91 37.6 43.01 37.52C43.11 37.46 43.21 37.39 43.31 37.35C43.4 37.29 43.52 37.25 43.62 37.21C43.72 37.18 43.8 37.16 43.88 37.14C44.04 37.1 44.18 37.1 44.35 37.1C44.52 37.1 44.7 37.12 44.87 37.16C44.99 37.18 45.11 37.22 45.22 37.27C45.36 37.33 45.48 37.39 45.6 37.47C45.72 37.54 45.83 37.64 45.93 37.75C46.04 37.85 46.13 37.97 46.22 38.08C46.3 38.21 46.36 38.33 46.41 38.47C46.47 38.58 46.51 38.7 46.53 38.81C46.57 38.99 46.6 39.16 46.6 39.35C46.6 39.52 46.57 39.7 46.53 39.87C46.51 39.99 46.47 40.1 46.41 40.23C46.36 40.35 46.3 40.48 46.22 40.6C46.13 40.72 46.04 40.83 45.93 40.93C45.83 41.04 45.72 41.14 45.6 41.22C45.48 41.29 45.36 41.37 45.22 41.41C45.11 41.47 44.99 41.5 44.87 41.54C44.7 41.58 44.52 41.6 44.35 41.6C44.18 41.6 44.03 41.58 43.87 41.54C43.78 41.52 43.68 41.5 43.6 41.47C43.48 41.43 43.37 41.37 43.27 41.33C43.15 41.27 43.06 41.2 42.96 41.12C42.86 41.04 42.77 40.97 42.68 40.87C42.61 40.79 42.54 40.7 42.47 40.58C42.39 40.49 42.34 40.39 42.29 40.27L42.23 40.1L39.4 40.1C39.29 40.1 39.18 40.08 39.08 40.04C39 40.02 38.92 39.98 38.85 39.93C38.77 39.85 38.7 39.77 38.64 39.68C38.6 39.62 38.58 39.54 38.56 39.47L36.93 34.58L34.62 41.56C34.6 41.66 34.55 41.74 34.5 41.81C34.41 41.91 34.33 41.99 34.21 42.04C34.1 42.1 34 42.12 33.9 42.14C33.8 42.14 33.67 42.14 33.57 42.12C33.5 42.1 33.45 42.08 33.38 42.04C33.34 42.02 33.28 42 33.23 41.96C33.16 41.91 33.1 41.85 33.07 41.79C33.04 41.75 33 41.71 32.99 41.66L31.29 38.14L30.21 39.73C30.17 39.77 30.13 39.83 30.1 39.87C30.04 39.93 29.96 39.98 29.86 40.02C29.82 40.04 29.75 40.06 29.68 40.08C29.6 40.1 29.54 40.1 29.45 40.1L26.64 40.1C26.61 40.14 26.58 40.18 26.55 40.21C26.48 40.27 26.39 40.31 26.31 40.35C26.23 40.39 26.14 40.43 26.07 40.46C25.96 40.48 25.85 40.5 25.75 40.5C25.64 40.5 25.55 40.49 25.46 40.46C25.38 40.45 25.32 40.43 25.26 40.39C25.17 40.37 25.1 40.33 25.05 40.29C24.98 40.24 24.91 40.18 24.85 40.12C24.8 40.06 24.75 40 24.7 39.93C24.65 39.87 24.61 39.81 24.59 39.73C24.57 39.66 24.54 39.6 24.53 39.52C24.51 39.43 24.5 39.35 24.5 39.25C24.5 39.14 24.51 39.04 24.53 38.96C24.54 38.89 24.57 38.81 24.59 38.75C24.62 38.68 24.65 38.62 24.7 38.54C24.75 38.48 24.8 38.41 24.86 38.35C24.91 38.29 24.98 38.25 25.05 38.21C25.11 38.16 25.17 38.12 25.26 38.08C25.32 38.06 25.38 38.04 25.46 38.02C25.55 38 25.64 38 25.75 38C25.87 38 25.98 38 26.09 38.04C26.18 38.06 26.28 38.1 26.36 38.16C26.46 38.21 26.54 38.27 26.61 38.33C26.64 38.37 26.68 38.41 26.72 38.47L29 38.46L30.64 36.02C30.68 35.95 30.74 35.89 30.79 35.83C30.87 35.75 30.96 35.7 31.07 35.66C31.13 35.62 31.22 35.6 31.29 35.6C31.37 35.58 31.48 35.58 31.57 35.6C31.66 35.62 31.77 35.64 31.85 35.7C31.9 35.73 31.96 35.75 32.02 35.81C32.11 35.89 32.18 36 32.23 36.1L33.63 39.02L36.11 31.58C36.12 31.5 36.25 31.33 36.3 31.27C36.34 31.23 36.37 31.18 36.42 31.16C36.5 31.1 36.6 31.06 36.68 31.02C36.81 31 36.92 30.99 37.04 31L36.92 31ZM44.35 38.6C44.24 38.6 44.12 38.62 44.04 38.66C43.96 38.68 43.87 38.75 43.81 38.81C43.74 38.87 43.68 38.96 43.64 39.04C43.61 39.14 43.6 39.24 43.6 39.35C43.6 39.46 43.61 39.56 43.64 39.64C43.68 39.73 43.74 39.81 43.81 39.87C43.87 39.95 43.96 40 44.04 40.04C44.13 40.08 44.24 40.1 44.35 40.1C44.45 40.1 44.56 40.08 44.64 40.04C44.73 40 44.81 39.95 44.87 39.87C44.95 39.81 45 39.73 45.04 39.64C45.08 39.56 45.1 39.46 45.1 39.35C45.1 39.24 45.08 39.14 45.04 39.04C45 38.96 44.95 38.87 44.87 38.81C44.81 38.75 44.73 38.68 44.64 38.66C44.55 38.62 44.45 38.6 44.35 38.6Z" fill="#FFFFFF" fill-opacity="1.000000" fill-rule="evenodd"/>
	</g>
</svg>
