<svg width="72.000000" height="72.000000" viewBox="0 0 72 72" fill="none" xmlns="http://www.w3.org/2000/svg" xmlns:xlink="http://www.w3.org/1999/xlink">
	<desc>
			Created with Pixso.
	</desc>
	<defs>
		<clipPath id="clip117_204">
			<rect id="3#云监控服务-CES" width="72.000000" height="72.000000" fill="white" fill-opacity="0"/>
		</clipPath>
	</defs>
	<g clip-path="url(#clip117_204)">
		<path id="矩形备份-19" d="M16 0L56 0C64.8 0 72 7.2 72 16L72 56C72 64.79 64.8 72 56 72L16 72C7.19 72 0 64.79 0 56L0 16C0 7.2 7.19 0 16 0Z" fill="#1476FF" fill-opacity="1.000000" fill-rule="evenodd"/>
		<path id="形状结合" d="M36 17.5C47.7 17.5 57.5 25.39 60 36C57.5 46.6 47.7 54.5 36 54.5C24.3 54.5 14.5 46.6 12 36C14.5 25.39 24.3 17.5 36 17.5ZM36 23C28.5 23 22.5 29 22.5 36.5C22.5 44 28.5 50 36 50C43.5 50 49.5 44 49.5 36.5C49.5 29 43.5 23 36 23ZM36 26C41.8 26 46.5 30.7 46.5 36.5C46.5 42.29 41.8 47 36 47C30.2 47 25.5 42.29 25.5 36.5C25.5 30.7 30.2 26 36 26ZM41.2 30.1L38 33.29C37.5 33 36.8 32.79 36 32.79C34.1 32.79 32.6 34.2 32.6 36.1C32.6 38 34.1 39.39 36 39.39C37.89 39.39 39.39 38 39.39 36.1C39.39 35.39 39.2 34.79 38.7 34.29L42 31C42.2 30.79 42.2 30.5 42 30.2C41.8 29.89 41.5 30 41.2 30.1Z" fill="#FFFFFF" fill-opacity="1.000000" fill-rule="nonzero"/>
	</g>
</svg>
