<svg width="72.000000" height="72.000000" viewBox="0 0 72 72" fill="none" xmlns="http://www.w3.org/2000/svg" xmlns:xlink="http://www.w3.org/1999/xlink">
	<desc>
			Created with Pixso.
	</desc>
	<defs>
		<clipPath id="clip117_202">
			<rect id="4#应用运维管理-AOM" width="72.000000" height="72.000000" fill="white" fill-opacity="0"/>
		</clipPath>
	</defs>
	<g clip-path="url(#clip117_202)">
		<path id="矩形备份-19" d="M16 0L56 0C64.8 0 72 7.2 72 16L72 56C72 64.79 64.8 72 56 72L16 72C7.19 72 0 64.79 0 56L0 16C0 7.2 7.19 0 16 0Z" fill="#25C251" fill-opacity="1.000000" fill-rule="evenodd"/>
		<path id="形状结合" d="M12.5 49C13.36 49 14 49.64 14 50.5L14 57.1C14 57.56 14.43 58 14.89 58L21.5 58C22.36 58 23 58.64 23 59.5C23 60.35 22.36 61 21.5 61L14.89 61C12.72 61 11 59.27 11 57.1L11 50.5C11 49.64 11.63 49 12.5 49ZM59.5 49C60.36 49 61 49.64 61 50.5L61 57.1C61 59.27 59.28 61 57.1 61L50.5 61C49.63 61 49 60.35 49 59.5C49 58.64 49.63 58 50.5 58L57.1 58C57.56 58 58 57.56 58 57.1L58 50.5C58 49.64 58.63 49 59.5 49ZM36 12C49.2 12 60 22.79 60 36C60 49.2 49.2 60 36 60C22.8 60 12 49.2 12 36C12 22.79 22.8 12 36 12ZM50.39 27.68C48.56 27.68 47.08 29.18 47.08 31C47.08 31.66 47.27 32.29 47.61 32.81L42.43 37.99C42 37.77 41.51 37.66 40.99 37.66C40.37 37.66 39.8 37.83 39.3 38.12L33.87 32.7C34.16 32.21 34.34 31.62 34.34 31C34.34 29.16 32.85 27.68 31.02 27.68C29.18 27.68 27.7 29.18 27.7 31C27.7 31.72 27.91 32.37 28.3 32.91L23.16 38.04C22.7 37.79 22.16 37.66 21.6 37.66C19.76 37.66 18.28 39.14 18.28 40.98C18.28 42.81 19.77 44.29 21.6 44.29C23.42 44.29 24.91 42.81 24.91 40.98C24.91 40.31 24.73 39.7 24.38 39.18L29.57 34C30.01 34.21 30.5 34.33 31.02 34.33C31.63 34.33 32.21 34.16 32.71 33.87L38.12 39.29C37.84 39.77 37.66 40.35 37.66 40.98C37.66 42.81 39.15 44.29 40.99 44.29C42.82 44.29 44.31 42.81 44.31 40.98C44.31 40.27 44.09 39.6 43.71 39.06L48.84 33.93C49.31 34.18 49.84 34.33 50.4 34.33C52.25 34.33 53.73 32.83 53.73 31C53.73 29.18 52.24 27.68 50.39 27.68ZM21.6 39.31C22.52 39.31 23.26 40.06 23.26 40.98C23.26 41.89 22.52 42.64 21.6 42.64C20.67 42.64 19.93 41.89 19.93 40.98C19.93 40.06 20.67 39.31 21.6 39.31ZM40.98 39.31C41.89 39.31 42.63 40.06 42.63 40.98C42.63 41.89 41.89 42.64 40.98 42.64C40.06 42.64 39.32 41.89 39.32 40.98C39.32 40.06 40.07 39.31 40.98 39.31ZM31.02 29.35C31.93 29.35 32.67 30.08 32.67 31C32.67 31.93 31.93 32.66 31.02 32.66C30.1 32.66 29.36 31.93 29.36 31C29.36 30.08 30.1 29.35 31.02 29.35ZM50.39 29.35C51.32 29.35 52.06 30.08 52.06 31C52.06 31.93 51.32 32.66 50.39 32.66C49.48 32.66 48.74 31.93 48.74 31C48.74 30.08 49.48 29.35 50.39 29.35ZM21.6 11.1C22.46 11.1 23.1 11.74 23.1 12.6C23.1 13.46 22.46 14.1 21.6 14.1L15 14.1C14.54 14.1 14.1 14.54 14.1 15L14.1 21.6C14.1 22.46 13.46 23.1 12.6 23.1C11.74 23.1 11.1 22.46 11.1 21.6L11.1 15C11.1 12.81 12.82 11.1 15 11.1L21.6 11.1ZM57.1 11C59.28 11 61 12.72 61 14.89L61 21.5C61 22.35 60.36 23 59.5 23C58.63 23 58 22.35 58 21.5L58 14.89C58 14.43 57.56 14 57.1 14L50.5 14C49.63 14 49 13.35 49 12.5C49 11.64 49.63 11 50.5 11L57.1 11Z" fill="#FFFFFF" fill-opacity="1.000000" fill-rule="nonzero"/>
	</g>
</svg>
