<svg width="72.000000" height="72.000000" viewBox="0 0 72 72" fill="none" xmlns="http://www.w3.org/2000/svg" xmlns:xlink="http://www.w3.org/1999/xlink">
	<desc>
			Created with Pixso.
	</desc>
	<defs>
		<clipPath id="clip117_203">
			<rect id="5#应用性能管理-APM" width="72.000000" height="72.000000" fill="white" fill-opacity="0"/>
		</clipPath>
	</defs>
	<g clip-path="url(#clip117_203)">
		<path id="矩形备份-19" d="M16 0L56 0C64.8 0 72 7.2 72 16L72 56C72 64.79 64.8 72 56 72L16 72C7.19 72 0 64.79 0 56L0 16C0 7.2 7.19 0 16 0Z" fill="#00ABED" fill-opacity="1.000000" fill-rule="evenodd"/>
		<path id="形状结合" d="M14.78 42.1C15.72 42.1 16.39 42.75 16.39 43.7L16.39 54.7C16.39 54.97 16.73 55.29 17.02 55.29L28.17 55.29C29.12 55.29 29.8 55.96 29.8 56.89C29.8 57.83 29.13 58.5 28.17 58.5L17.01 58.5C14.95 58.5 13.15 56.74 13.15 54.7L13.15 43.7C13.15 42.75 13.84 42.1 14.78 42.1ZM57.2 42.1C58.13 42.1 58.82 42.75 58.82 43.7L58.82 54.7C58.82 56.74 57.03 58.5 54.97 58.5L43.8 58.5C42.86 58.5 42.17 57.83 42.17 56.89C42.17 55.96 42.85 55.29 43.8 55.29L54.96 55.29C55.24 55.29 55.58 54.97 55.58 54.7L55.58 43.7C55.58 42.75 56.26 42.1 57.2 42.1ZM41.01 22.89C41.65 22.89 42.17 23.33 42.46 23.89L42.53 24.06L46.81 38.58L48.61 34.77C48.87 34.27 49.37 33.96 49.9 33.91L50.06 33.89L59.43 33.89C60.32 33.89 61 34.56 61 35.45C61 36.33 60.33 37 59.43 37L51.03 37L47.93 43.6C47.67 44.1 47.17 44.41 46.63 44.47L46.49 44.48L46.26 44.48L46.05 44.37C45.63 44.16 45.36 43.91 45.14 43.5L45.09 43.33L40.88 29.75L37.98 38.77C37.85 39.35 37.28 39.79 36.68 39.85L36.56 39.87C35.96 39.87 35.38 39.54 35.09 38.96L33.85 36.27L30.23 45.71C29.89 46.35 29.46 46.89 28.74 46.89C28.05 46.89 27.65 46.52 27.37 45.98C27.36 45.93 27.3 45.81 27.29 45.79L27.23 45.64L23.79 34.02L23.02 37.02L22.93 37.23C22.65 37.79 22.09 38.1 21.49 38.1L12.56 38.1C11.67 38.1 11 37.45 11 36.56C11 35.66 11.66 35 12.56 35L20.25 35L21.97 27.54L22 27.41L22.06 27.31C22.34 26.75 22.86 26.31 23.51 26.31C24.15 26.31 24.67 26.75 24.96 27.31L25.03 27.48L28.79 40.12L32.23 31.5C32.49 30.99 32.99 30.68 33.53 30.62L33.67 30.62C34.28 30.62 34.85 30.93 35.13 31.52L36.29 33.96L39.53 23.93L39.59 23.79C39.85 23.22 40.4 22.89 41.01 22.89ZM28.17 13.5C29.12 13.5 29.8 14.16 29.8 15.1C29.8 16.04 29.13 16.7 28.17 16.7L17.01 16.7C16.73 16.7 16.38 17.02 16.38 17.29L16.38 28.29C16.38 29.24 15.72 29.89 14.77 29.89C13.83 29.89 13.14 29.24 13.14 28.29L13.14 17.29C13.14 15.25 14.93 13.5 17 13.5L28.17 13.5ZM54.97 13.5C57.03 13.5 58.82 15.25 58.82 17.29L58.82 28.29C58.82 29.24 58.14 29.89 57.2 29.89C56.25 29.89 55.58 29.24 55.58 28.29L55.58 17.29C55.58 17.02 55.25 16.7 54.96 16.7L43.8 16.7C42.86 16.7 42.17 16.04 42.17 15.1C42.17 14.16 42.85 13.5 43.8 13.5L54.97 13.5Z" fill="#FFFFFF" fill-opacity="1.000000" fill-rule="nonzero"/>
	</g>
</svg>
