<svg width="72.000000" height="72.000000" viewBox="0 0 72 72" fill="none" xmlns="http://www.w3.org/2000/svg" xmlns:xlink="http://www.w3.org/1999/xlink">
	<desc>
			Created with Pixso.
	</desc>
	<defs>
		<clipPath id="clip117_207">
			<rect id="6#云日志服务-LTS" width="72.000000" height="72.000000" fill="white" fill-opacity="0"/>
		</clipPath>
	</defs>
	<g clip-path="url(#clip117_207)">
		<path id="矩形备份-19" d="M16 0L56 0C64.8 0 72 7.2 72 16L72 56C72 64.79 64.8 72 56 72L16 72C7.19 72 0 64.79 0 56L0 16C0 7.2 7.19 0 16 0Z" fill="#F85835" fill-opacity="1.000000" fill-rule="evenodd"/>
		<path id="形状结合" d="M41.2 12L56 26.7L56 55C56 57.79 53.5 60.1 50.89 60.1L20.39 60.1C17.79 60.1 16 57.79 16 55L16 17.1C16 14.29 17.79 12 20.39 12L41.2 12ZM29.8 38.29C25.6 38.29 22.3 41.6 22.3 45.79C22.3 50 25.6 53.29 29.8 53.29L30.1 53.29C31.6 53.2 33 52.7 34.1 51.89L36.5 54C36.6 54.1 36.8 54.2 37 54.2C37.1 54.2 37.1 54.2 37.2 54.2C37.3 54.2 37.39 54.2 37.6 54.1C37.7 54 37.89 53.89 38 53.79C38.3 53.39 38.3 52.89 37.89 52.5L35.7 50.39C36.6 49.2 37.2 47.5 37.2 45.79C37.2 41.7 33.89 38.29 29.8 38.29ZM29.8 39.6C33.2 39.6 36 42.39 36 45.79C36 49.2 33.2 52 29.8 52C26.39 52 23.6 49.2 23.6 45.79C23.6 42.39 26.39 39.6 29.8 39.6ZM47.2 31L23.8 31C23.39 31 23 31.29 23 31.79L23 32.29C23 32.7 23.3 33.1 23.8 33.1L47.3 33.1C47.7 33.1 48.1 32.79 48.1 32.29L48.1 31.79C48 31.29 47.7 31 47.2 31ZM41 15L41 24C41 25.79 41.89 27.2 43.5 27.2L52.6 27.2L41 15ZM36.2 23L23.8 23C23.39 23 23 23.29 23 23.79L23 24.29C23 24.7 23.3 25.1 23.8 25.1L36.3 25.1C36.7 25.1 37.1 24.79 37.1 24.29L37.1 23.79C37 23.29 36.7 23 36.2 23Z" fill="#FFFFFF" fill-opacity="1.000000" fill-rule="nonzero"/>
	</g>
</svg>
