<svg width="72.000000" height="72.000000" viewBox="0 0 72 72" fill="none" xmlns="http://www.w3.org/2000/svg" xmlns:xlink="http://www.w3.org/1999/xlink">
	<desc>
			Created with Pixso.
	</desc>
	<defs>
		<clipPath id="clip117_205">
			<rect id="7#云审计服务-CTS" width="72.000000" height="72.000000" fill="white" fill-opacity="0"/>
		</clipPath>
	</defs>
	<g clip-path="url(#clip117_205)">
		<path id="矩形备份-19" d="M16 0L56 0C64.8 0 72 7.2 72 16L72 56C72 64.79 64.8 72 56 72L16 72C7.19 72 0 64.79 0 56L0 16C0 7.2 7.19 0 16 0Z" fill="#9F53E6" fill-opacity="1.000000" fill-rule="evenodd"/>
		<path id="形状结合" d="M36.49 18C42.17 18 47 21.91 48.62 27.33C55.02 28.04 60 33.73 60 40.62C60 47.91 54.46 53.83 47.57 54L47.27 54L39.36 54C34.81 53.08 32.09 50.79 30.82 47.52C30.02 45.45 29.88 43.23 30.14 41.23L30.21 40.81L30.25 40.62C30.34 40.22 30.1 39.74 29.7 39.64C29.3 39.56 28.88 39.81 28.8 40.21C28.79 40.25 28.77 40.33 28.76 40.41L28.71 40.68L28.65 41.02C28.37 43.25 28.51 45.71 29.41 48.04C30.4 50.62 32.16 52.64 34.78 53.99L24.01 53.99C17.31 53.6 12 47.75 12 40.62C12 33.37 17.5 27.47 24.37 27.25C26.02 21.89 30.82 18 36.49 18ZM39 28.31L26.43 34.04L29.28 36.06L30.05 38.85L31.9 37.5L35.08 39.41L39 28.31Z" fill="#FFFFFF" fill-opacity="1.000000" fill-rule="evenodd"/>
	</g>
</svg>
