<svg width="72.000000" height="72.000000" viewBox="0 0 72 72" fill="none" xmlns="http://www.w3.org/2000/svg" xmlns:xlink="http://www.w3.org/1999/xlink">
	<desc>
			Created with Pixso.
	</desc>
	<defs>
		<clipPath id="clip117_319">
			<rect id="8#云运维中心-COC" width="72.000000" height="72.000000" fill="white" fill-opacity="0"/>
		</clipPath>
	</defs>
	<g clip-path="url(#clip117_319)">
		<path id="矩形备份-15" d="M16 0L56 0C64.84 0 72 7.16 72 16L72 56C72 64.83 64.84 72 56 72L16 72C7.15 72 0 64.83 0 56L0 16C0 7.16 7.15 0 16 0Z" fill="#1476FF" fill-opacity="1.000000" fill-rule="evenodd"/>
		<path id="形状结合" d="M18.77 42.85C19.84 43.25 20.7 44.04 21.17 45.08C21.65 46.12 21.7 47.28 21.31 48.35C21.14 48.78 20.93 49.16 20.66 49.51C20.72 49.54 20.76 49.6 20.8 49.64C21.91 51.04 23.24 52.26 24.68 53.29C27.99 55.62 31.86 56.85 35.92 56.85C39.7 56.85 43.35 55.77 46.51 53.73C47.23 53.26 48.2 53.47 48.66 54.18C49.13 54.91 48.92 55.87 48.21 56.35C44.55 58.71 40.3 59.97 35.91 59.97C31.21 59.97 26.71 58.54 22.87 55.83C21.18 54.64 19.66 53.22 18.36 51.6C18.24 51.45 18.13 51.27 18.09 51.08C17.82 51.12 17.54 51.16 17.28 51.16C16.79 51.16 16.29 51.06 15.8 50.89C14.72 50.5 13.86 49.71 13.38 48.66C12.9 47.62 12.86 46.47 13.26 45.39C13.65 44.31 14.45 43.47 15.49 42.99C16.53 42.49 17.7 42.45 18.77 42.85ZM44.83 18.23C45.25 17.48 46.2 17.2 46.95 17.62C54.09 21.62 58.55 29.18 58.55 37.37C58.55 39.53 58.24 41.66 57.63 43.73C58.86 44.87 59.35 46.68 58.74 48.35C58.34 49.43 57.55 50.28 56.51 50.76C55.93 51.02 55.33 51.16 54.72 51.16C54.22 51.16 53.72 51.06 53.24 50.89C52.15 50.49 51.31 49.7 50.83 48.66C50.34 47.62 50.31 46.46 50.7 45.39C51.09 44.31 51.88 43.46 52.92 42.98C53.5 42.71 54.1 42.58 54.72 42.58C55.18 40.89 55.42 39.14 55.42 37.37C55.42 30.31 51.59 23.79 45.43 20.35C44.67 19.93 44.39 18.98 44.83 18.23ZM54.71 44.91C54.42 44.91 54.14 44.98 53.89 45.1C53.42 45.31 53.07 45.7 52.88 46.2C52.71 46.68 52.73 47.22 52.95 47.68C53.16 48.16 53.55 48.52 54.05 48.7C54.54 48.87 55.07 48.85 55.54 48.64C56.01 48.41 56.36 48.04 56.55 47.54C56.91 46.53 56.4 45.41 55.38 45.04C55.15 44.95 54.92 44.91 54.71 44.91ZM17.29 44.91C17.01 44.91 16.73 44.97 16.48 45.08C16.01 45.31 15.64 45.68 15.47 46.18C15.29 46.68 15.31 47.21 15.53 47.68C15.75 48.14 16.12 48.51 16.62 48.68C17.63 49.06 18.76 48.54 19.12 47.53C19.31 47.04 19.29 46.51 19.07 46.04C18.84 45.56 18.46 45.21 17.96 45.03C17.74 44.95 17.51 44.91 17.29 44.91ZM35.99 26.04C39 26.04 41.57 28.16 42.43 31.06C45.83 31.46 48.47 34.51 48.47 38.23C48.47 42.14 45.53 45.33 41.86 45.43L29.36 45.43C25.81 45.21 23 42.06 23 38.22C23 34.31 25.91 31.14 29.56 31.03C30.43 28.12 32.99 26.04 35.99 26.04ZM34.92 33.08C34.14 33.93 33.73 35.18 33.93 36.31L31.07 38.64C31.05 38.66 30.96 38.73 30.93 38.76C30.11 39.58 30.24 41.08 31.09 41.93C31.12 41.96 31.16 42 31.2 42.03C32.1 42.76 33.61 42.83 34.35 41.98L36.72 39.16C37.88 39.39 39.18 39.04 40.03 38.18C40.95 37.27 41.31 35.91 40.95 34.66C40.83 34.24 40.25 34.14 39.98 34.43L39.08 35.33C38.73 35.64 38.14 35.66 37.81 35.33C37.63 35.16 37.54 34.93 37.54 34.68C37.54 34.45 37.62 34.22 37.81 34.04L38.7 33.16C38.99 32.87 38.86 32.28 38.45 32.16C37.18 31.81 35.84 32.16 34.92 33.08ZM36.71 12.04C39.07 12.04 41 13.96 41 16.33C41 18.7 39.07 20.62 36.71 20.62C34.99 20.62 33.5 19.6 32.82 18.14C23.58 19.62 16.59 27.62 16.43 37.06L16.43 37.37C16.45 38.24 15.74 38.93 14.87 38.93C14.02 38.93 13.32 38.23 13.32 37.37L13.32 37.01C13.49 25.97 21.76 16.6 32.61 15.02C33.17 13.29 34.8 12.04 36.71 12.04ZM36.71 14.37C35.62 14.37 34.75 15.25 34.75 16.33C34.75 17.41 35.62 18.28 36.71 18.28C37.79 18.28 38.65 17.41 38.65 16.33C38.65 15.25 37.79 14.37 36.71 14.37Z" fill="#FFFFFF" fill-opacity="1.000000" fill-rule="evenodd"/>
	</g>
</svg>
