<svg width="72.000000" height="72.000000" viewBox="0 0 72 72" fill="none" xmlns="http://www.w3.org/2000/svg" xmlns:xlink="http://www.w3.org/1999/xlink">
	<desc>
			Created with Pixso.
	</desc>
	<defs>
		<clipPath id="clip117_320">
			<rect id="9#工业互联网联盟-IIC" width="72.000000" height="72.000000" fill="white" fill-opacity="0"/>
		</clipPath>
	</defs>
	<g clip-path="url(#clip117_320)">
		<path id="矩形备份-15" d="M16 0L56 0C64.84 0 72 7.16 72 16L72 56C72 64.83 64.84 72 56 72L16 72C7.15 72 0 64.83 0 56L0 16C0 7.16 7.15 0 16 0Z" fill="#1476FF" fill-opacity="1.000000" fill-rule="evenodd"/>
		<path id="形状结合" d="M24.01 54C17.31 53.6 12 47.75 12 40.62C12 33.37 17.5 27.47 24.37 27.25C26.02 21.89 30.82 18 36.49 18C42.17 18 47 21.91 48.62 27.33C55.02 28.04 60 33.73 60 40.62C60 47.91 54.46 53.83 47.57 54L47.27 54L24.01 54ZM35.64 41.79C35.75 41.5 35.84 41.21 35.89 40.91L38.52 40.91L38.52 42.89C38.52 43.68 39.15 44.33 39.95 44.33C40.74 44.33 41.37 43.68 41.37 42.91L41.37 40.91L44.79 40.91L44.79 45.2C44.79 45.99 45.42 46.62 46.22 46.62C47.01 46.62 47.63 45.99 47.63 45.21L47.63 40.93L48.49 40.93C49.28 40.93 49.9 40.29 49.9 39.52C49.9 38.73 49.27 38.08 48.48 38.08L35.81 38.08C35.74 37.81 35.64 37.54 35.55 37.29C35.5 37.16 35.43 37.04 35.37 36.91C35.32 36.77 35.25 36.66 35.17 36.54C35.04 36.29 34.88 36.06 34.72 35.85C34.63 35.74 34.55 35.62 34.46 35.52C34.37 35.43 34.27 35.31 34.17 35.23C34.11 35.16 34.03 35.08 33.96 35.02C33.88 34.95 33.81 34.87 33.73 34.81C33.64 34.75 33.57 34.68 33.49 34.62C33.4 34.56 33.32 34.5 33.24 34.45C33.14 34.39 33.07 34.33 32.98 34.29C32.88 34.24 32.8 34.18 32.71 34.14C32.62 34.08 32.53 34.04 32.43 34C32.35 33.96 32.25 33.91 32.15 33.87C32.07 33.83 31.97 33.79 31.87 33.77C31.77 33.74 31.67 33.7 31.58 33.66C31.48 33.64 31.37 33.6 31.28 33.58C31.17 33.56 31.08 33.54 30.98 33.52C30.87 33.5 30.78 33.48 30.67 33.47C30.58 33.46 30.48 33.43 30.37 33.43C30.27 33.41 30.16 33.41 30.06 33.41C29.96 33.41 29.85 33.39 29.75 33.39C29.64 33.39 29.54 33.39 29.43 33.41C29.34 33.41 29.24 33.41 29.13 33.43C29.03 33.43 28.92 33.45 28.82 33.47C28.72 33.48 28.62 33.5 28.52 33.52C28.41 33.54 28.32 33.56 28.22 33.58C28.12 33.6 28.02 33.64 27.91 33.66C27.82 33.7 27.72 33.73 27.63 33.77C27.53 33.79 27.43 33.83 27.34 33.87C27.25 33.91 27.14 33.96 27.06 34C27.02 34.02 26.99 34.04 26.95 34.04C26.89 34.08 26.84 34.1 26.79 34.12C26.7 34.18 26.61 34.23 26.52 34.27C26.42 34.33 26.35 34.39 26.26 34.43C26.16 34.5 26.09 34.56 26.01 34.62C25.92 34.68 25.85 34.74 25.77 34.81C25.68 34.87 25.61 34.93 25.54 35C25.46 35.08 25.38 35.14 25.32 35.22C25.25 35.29 25.17 35.37 25.11 35.43C25.04 35.52 24.97 35.58 24.9 35.66C24.84 35.75 24.78 35.83 24.72 35.91C24.65 35.99 24.6 36.08 24.54 36.16C24.48 36.25 24.42 36.33 24.38 36.41C24.33 36.5 24.28 36.6 24.23 36.68C24.17 36.77 24.13 36.87 24.09 36.96C24.07 37 24.05 37.04 24.03 37.08C24.01 37.14 23.99 37.18 23.97 37.24C23.95 37.29 23.92 37.33 23.91 37.37C23.89 37.43 23.88 37.48 23.86 37.52C23.83 37.62 23.79 37.72 23.76 37.81C23.73 37.91 23.7 38.02 23.67 38.12C23.65 38.22 23.63 38.31 23.61 38.41C23.59 38.52 23.57 38.62 23.56 38.72C23.55 38.77 23.55 38.81 23.54 38.87C23.53 38.91 23.53 38.97 23.52 39.02C23.51 39.12 23.5 39.23 23.5 39.33C23.5 39.43 23.49 39.54 23.49 39.64C23.49 39.75 23.49 39.85 23.5 39.96C23.51 40.06 23.51 40.16 23.52 40.27C23.53 40.37 23.54 40.47 23.56 40.58C23.57 40.62 23.57 40.68 23.58 40.72C23.59 40.77 23.6 40.83 23.61 40.87C23.63 40.98 23.64 41.08 23.67 41.18C23.7 41.27 23.73 41.37 23.76 41.48C23.77 41.52 23.79 41.56 23.8 41.62C23.82 41.66 23.83 41.72 23.85 41.77C23.88 41.87 23.91 41.96 23.96 42.06C23.98 42.1 24 42.14 24.02 42.2C24.04 42.25 24.06 42.29 24.08 42.33C24.1 42.39 24.12 42.43 24.14 42.48C24.16 42.52 24.2 42.56 24.22 42.62C24.27 42.71 24.32 42.79 24.37 42.89C24.39 42.93 24.42 42.99 24.46 43.04C24.48 43.08 24.51 43.1 24.53 43.14C24.56 43.2 24.59 43.24 24.62 43.29C24.64 43.33 24.66 43.37 24.7 43.41C24.76 43.49 24.82 43.56 24.88 43.64C24.91 43.68 24.95 43.72 24.98 43.76C25.02 43.79 25.05 43.83 25.09 43.87C25.15 43.96 25.23 44.02 25.3 44.1C25.37 44.16 25.45 44.24 25.52 44.31C25.6 44.37 25.66 44.45 25.75 44.51C25.8 44.54 25.93 44.66 25.99 44.7C26.03 44.73 26.06 44.75 26.1 44.77C26.14 44.81 26.18 44.83 26.24 44.87C26.33 44.93 26.4 44.98 26.5 45.02C26.59 45.08 26.67 45.12 26.77 45.18C26.83 45.21 26.88 45.24 26.93 45.27C26.97 45.29 27.01 45.29 27.04 45.31C27.13 45.35 27.23 45.41 27.32 45.43C27.4 45.48 27.51 45.52 27.61 45.54C27.71 45.58 27.8 45.62 27.89 45.64C28 45.68 28.1 45.71 28.2 45.73C28.25 45.74 28.3 45.76 28.36 45.77C28.4 45.77 28.46 45.79 28.5 45.79C28.6 45.81 28.7 45.83 28.8 45.85C28.89 45.85 29 45.87 29.11 45.89C29.21 45.89 29.31 45.91 29.41 45.91C29.52 45.91 29.63 45.91 29.73 45.91C29.83 45.91 29.93 45.91 30.04 45.91C30.13 45.91 30.24 45.89 30.35 45.89C30.45 45.87 30.55 45.87 30.65 45.85C30.76 45.83 30.86 45.81 30.96 45.79C31.06 45.77 31.15 45.76 31.26 45.73C31.36 45.71 31.46 45.68 31.56 45.64C31.65 45.62 31.76 45.58 31.85 45.54C31.95 45.52 32.04 45.48 32.13 45.43C32.23 45.39 32.33 45.35 32.41 45.31C32.5 45.27 32.6 45.23 32.68 45.18C32.78 45.12 32.87 45.08 32.96 45.02C33.05 44.98 33.12 44.91 33.22 44.87C33.31 44.81 33.38 44.75 33.47 44.68C33.55 44.62 33.62 44.56 33.71 44.5C33.79 44.43 33.87 44.37 33.93 44.29C34.02 44.23 34.09 44.16 34.15 44.08C34.38 43.87 34.57 43.64 34.75 43.39C34.93 43.16 35.1 42.89 35.25 42.62C35.41 42.35 35.55 42.06 35.64 41.79ZM32.11 37.29C32.14 37.33 32.18 37.37 32.22 37.41C32.25 37.45 32.29 37.49 32.33 37.52C32.36 37.56 32.39 37.62 32.42 37.66C32.46 37.7 32.49 37.75 32.52 37.79C32.55 37.83 32.58 37.87 32.61 37.93C32.63 37.98 32.65 38.02 32.68 38.06C32.72 38.12 32.74 38.16 32.75 38.22C32.78 38.27 32.81 38.31 32.83 38.37C32.85 38.41 32.87 38.47 32.88 38.52C32.89 38.54 32.92 38.64 32.93 38.68C32.95 38.71 32.98 38.81 32.99 38.83C33 38.89 33.02 38.95 33.03 39C33.04 39.04 33.05 39.1 33.06 39.16C33.07 39.21 33.07 39.27 33.08 39.31C33.09 39.37 33.09 39.43 33.09 39.48C33.09 39.52 33.09 39.58 33.09 39.64C33.09 39.68 33.09 39.75 33.09 39.79C33.09 39.85 33.08 39.91 33.08 39.96C33.07 40 33.07 40.06 33.06 40.12C33.05 40.16 33.04 40.23 33.03 40.27C33.02 40.31 33 40.35 33 40.41C32.99 40.46 32.96 40.54 32.95 40.6C32.92 40.64 32.91 40.7 32.89 40.75C32.87 40.81 32.86 40.85 32.84 40.91C32.82 40.96 32.8 41 32.77 41.06C32.75 41.08 32.7 41.18 32.68 41.21C32.65 41.25 32.63 41.31 32.61 41.35C32.58 41.39 32.55 41.43 32.52 41.49C32.49 41.54 32.46 41.58 32.42 41.62C32.39 41.66 32.36 41.71 32.33 41.75C32.3 41.79 32.25 41.83 32.22 41.87C32.17 41.91 32.14 41.95 32.11 41.99C32.07 42.02 32.03 42.06 31.99 42.1C31.95 42.14 31.9 42.16 31.87 42.21C31.83 42.24 31.78 42.27 31.74 42.31C31.7 42.33 31.64 42.37 31.61 42.39C31.56 42.43 31.52 42.46 31.47 42.49C31.41 42.52 31.37 42.54 31.33 42.56C31.3 42.58 31.22 42.62 31.17 42.64C31.13 42.66 31.08 42.7 31.03 42.72C30.98 42.74 30.92 42.75 30.88 42.77C30.83 42.79 30.78 42.81 30.72 42.83C30.66 42.85 30.62 42.85 30.56 42.87C30.51 42.87 30.45 42.89 30.39 42.91C30.37 42.91 30.27 42.93 30.24 42.93C30.18 42.93 30.13 42.93 30.08 42.95C30.03 42.96 29.97 42.96 29.91 42.96C29.87 42.96 29.81 42.96 29.76 42.96C29.71 42.96 29.64 42.96 29.6 42.96C29.55 42.96 29.49 42.95 29.43 42.95C29.38 42.93 29.33 42.93 29.28 42.93C29.23 42.91 29.16 42.91 29.12 42.89C29.07 42.89 29.01 42.87 28.96 42.85C28.9 42.85 28.85 42.83 28.8 42.81C28.75 42.79 28.7 42.79 28.63 42.77C28.59 42.75 28.54 42.73 28.49 42.71C28.43 42.68 28.38 42.66 28.34 42.64C28.29 42.62 28.24 42.58 28.18 42.56C28.13 42.54 28.09 42.52 28.05 42.49C28.03 42.48 27.92 42.41 27.9 42.41C27.86 42.37 27.82 42.35 27.78 42.31C27.74 42.29 27.68 42.25 27.64 42.22C27.61 42.18 27.57 42.14 27.53 42.1C27.49 42.06 27.45 42.04 27.4 42C27.37 41.96 27.33 41.91 27.3 41.87C27.26 41.83 27.23 41.79 27.18 41.75C27.15 41.72 27.12 41.66 27.09 41.62C27.06 41.58 27.03 41.54 27 41.5C26.97 41.45 26.93 41.41 26.9 41.35C26.88 41.31 26.86 41.27 26.83 41.22C26.8 41.16 26.78 41.12 26.76 41.06C26.74 41.02 26.71 40.97 26.68 40.91C26.66 40.87 26.64 40.81 26.63 40.77C26.61 40.72 26.59 40.66 26.58 40.6C26.56 40.56 26.55 40.5 26.54 40.45C26.53 40.39 26.51 40.33 26.5 40.29C26.49 40.24 26.48 40.18 26.47 40.12C26.46 40.08 26.46 40.02 26.45 39.97C26.45 39.95 26.43 39.83 26.43 39.81C26.43 39.75 26.43 39.7 26.43 39.64C26.43 39.6 26.43 39.54 26.43 39.49C26.43 39.43 26.45 39.37 26.45 39.33C26.46 39.27 26.46 39.22 26.47 39.16C26.48 39.12 26.49 39.06 26.5 39C26.51 38.96 26.52 38.89 26.54 38.85C26.55 38.79 26.57 38.74 26.58 38.68C26.6 38.64 26.61 38.58 26.63 38.52C26.63 38.5 26.67 38.39 26.68 38.37C26.71 38.33 26.73 38.27 26.76 38.23C26.78 38.18 26.81 38.12 26.83 38.08C26.86 38.02 26.88 37.98 26.9 37.93C26.93 37.89 26.97 37.85 27 37.79C27.03 37.75 27.06 37.71 27.09 37.66C27.12 37.62 27.15 37.58 27.18 37.54C27.22 37.5 27.26 37.46 27.3 37.41C27.32 37.39 27.38 37.31 27.4 37.29C27.45 37.25 27.49 37.22 27.53 37.18C27.57 37.14 27.61 37.12 27.64 37.08C27.68 37.04 27.74 37 27.78 36.98C27.82 36.95 27.87 36.91 27.9 36.89C27.96 36.85 28 36.83 28.05 36.79C28.1 36.77 28.13 36.75 28.18 36.72C28.24 36.68 28.29 36.66 28.34 36.64C28.38 36.62 28.43 36.6 28.49 36.58C28.54 36.56 28.59 36.54 28.63 36.52C28.68 36.5 28.74 36.48 28.8 36.47C28.85 36.45 28.89 36.43 28.96 36.43C29.01 36.41 29.07 36.41 29.12 36.39C29.16 36.37 29.23 36.37 29.28 36.35C29.33 36.35 29.38 36.35 29.43 36.33C29.49 36.33 29.55 36.33 29.6 36.33C29.64 36.33 29.71 36.33 29.76 36.33C29.81 36.33 29.87 36.33 29.91 36.33C29.97 36.33 30.03 36.33 30.08 36.33C30.13 36.35 30.18 36.35 30.24 36.35C30.29 36.37 30.35 36.37 30.39 36.39C30.45 36.39 30.51 36.41 30.56 36.43C30.61 36.43 30.66 36.46 30.72 36.47C30.77 36.49 30.82 36.5 30.88 36.52C30.92 36.54 30.98 36.56 31.03 36.58C31.08 36.6 31.13 36.62 31.17 36.64C31.23 36.66 31.28 36.7 31.33 36.72C31.37 36.75 31.42 36.77 31.47 36.79C31.52 36.83 31.56 36.85 31.61 36.89C31.65 36.91 31.7 36.95 31.74 36.98C31.78 37 31.83 37.04 31.87 37.08C31.9 37.1 31.95 37.14 31.99 37.18C32.03 37.22 32.07 37.25 32.11 37.29Z" fill="#FFFFFF" fill-opacity="1.000000" fill-rule="evenodd"/>
	</g>
</svg>
