<svg viewBox="0 0 24 24" xmlns="http://www.w3.org/2000/svg" xmlns:xlink="http://www.w3.org/1999/xlink">
	<defs>
		<clipPath id="clip377_46829">
			<rect id="color-icon-activitys" width="24.000000" height="24.000000" fill="white" fill-opacity="0"/>
		</clipPath>
	</defs>
	<g clip-path="url(#clip377_46829)">
		<path id="合并" d="M16.99 11.8888L12.2053 7.15094C12.1555 7.10187 12.1023 7.05804 12.0452 7.01947C11.9922 6.9837 11.9358 6.95245 11.8765 6.92566C11.7566 6.87183 11.6306 6.83954 11.4988 6.8288C11.3667 6.81812 11.2371 6.82965 11.1096 6.86346C11.0486 6.87964 10.9897 6.90045 10.9333 6.92596C10.8679 6.95538 10.8057 6.99103 10.7463 7.03284L6.91602 9.73718C6.85913 9.78827 6.75 9.89075 6.70605 9.95068C6.66284 10.0094 6.62622 10.0723 6.59546 10.1395C6.53589 10.2703 6.50415 10.4073 6.50049 10.5504C6.49658 10.6947 6.52148 10.8339 6.5752 10.9682C6.60132 11.0338 6.6333 11.0958 6.67139 11.1542C6.71436 11.2206 6.76514 11.2823 6.82349 11.3394L10.6973 15.1305L7.69873 18.3474C7.64722 18.4026 7.60229 18.4618 7.56421 18.5247C7.34009 18.7175 7.08765 18.8687 6.80688 18.9781C6.66895 19.0319 6.52832 19.0741 6.38501 19.1046C6.19653 19.1447 6.00317 19.1647 5.80518 19.1647C5.60474 19.1647 5.40918 19.1442 5.21899 19.1032C5.07349 19.0718 4.93091 19.0286 4.79126 18.9733C4.64746 18.9163 4.51123 18.8484 4.38232 18.7698C4.23242 18.678 4.09253 18.5714 3.96289 18.4501C3.8335 18.3289 3.71973 18.1979 3.62158 18.0573C3.5376 17.9368 3.46533 17.8091 3.4043 17.6744C3.34546 17.5437 3.29907 17.4102 3.26562 17.2739C3.22192 17.0956 3.19995 16.9127 3.19995 16.725C3.19995 16.5372 3.22192 16.3542 3.26562 16.176C3.29907 16.0397 3.34546 15.9062 3.4043 15.7755C3.53613 15.4836 3.72241 15.2251 3.96289 14.9998C4.09253 14.8785 4.23242 14.772 4.38232 14.6802C4.51123 14.6015 4.64746 14.5337 4.79126 14.4767C4.93091 14.4214 5.07349 14.3781 5.21899 14.3467C5.40918 14.3057 5.60474 14.2852 5.80518 14.2852C5.88281 14.2852 5.95898 14.2778 6.03345 14.2631C6.10156 14.2495 6.16821 14.2299 6.2334 14.204C6.36523 14.1519 6.48169 14.0784 6.58301 13.9835C6.68408 13.8886 6.7627 13.7795 6.81836 13.6562C6.87622 13.5283 6.90503 13.3945 6.90503 13.2551C6.90503 13.1822 6.89722 13.1109 6.88135 13.0411C6.86694 12.9774 6.84595 12.915 6.81836 12.8539C6.7627 12.7306 6.68408 12.6215 6.58301 12.5267C6.48169 12.4318 6.36523 12.3583 6.2334 12.3062C6.09668 12.252 5.9541 12.225 5.80518 12.225C5.44897 12.225 5.10132 12.2602 4.76196 12.3307C4.48047 12.3892 4.20459 12.4719 3.93457 12.5789C3.66235 12.6866 3.40503 12.8154 3.1626 12.9651C2.89258 13.1317 2.64087 13.3243 2.40747 13.543C2.17383 13.7616 1.96826 13.9973 1.79028 14.2502C1.63037 14.4774 1.49292 14.7184 1.37793 14.9732C1.26367 15.2261 1.17529 15.4844 1.11279 15.7481C1.104 15.7856 1.0957 15.8232 1.08789 15.8608C1.0293 16.1428 1 16.4308 1 16.725C1 17.0584 1.0376 17.384 1.11279 17.7018C1.17529 17.9655 1.26367 18.2238 1.37793 18.4767C1.49292 18.7316 1.63037 18.9725 1.79028 19.1997C1.96826 19.4526 2.17383 19.6884 2.40747 19.9069C2.64087 20.1255 2.89258 20.3182 3.1626 20.4849C3.40503 20.6346 3.66235 20.7633 3.93457 20.8711C4.20459 20.9781 4.48047 21.0608 4.76196 21.1193C5.10132 21.1898 5.44897 21.225 5.80518 21.225C6.15063 21.225 6.48853 21.1917 6.8186 21.1252C7.10229 21.068 7.38013 20.9863 7.65259 20.8801C7.92554 20.7736 8.18384 20.6461 8.42725 20.4974C8.66016 20.3553 8.87964 20.1938 9.08569 20.0131C9.18823 19.9564 9.27979 19.8849 9.36011 19.7985L13.1028 15.7789C13.2581 15.5658 13.373 15.2706 13.3518 15.0102C13.3301 14.7474 13.2234 14.5222 13.0317 14.3347L9.3291 10.7114L11.2815 9.33508L15.8701 13.8785C15.95 13.9577 16.0381 14.0226 16.134 14.0732C16.23 14.1239 16.334 14.1603 16.4458 14.1825C16.6699 14.2268 16.8875 14.2066 17.0986 14.1218C17.4211 13.9924 17.7593 13.9276 18.1125 13.9276C18.3164 13.9276 18.5151 13.9492 18.7087 13.9923C18.8569 14.0253 19.0017 14.0708 19.1438 14.129C19.4607 14.2587 19.7417 14.4421 19.9863 14.679C20.231 14.916 20.4204 15.1878 20.5544 15.4947C20.6145 15.6321 20.6616 15.7725 20.6956 15.9158C20.7402 16.1033 20.7625 16.2957 20.7625 16.4931C20.7625 16.6904 20.7402 16.8829 20.6956 17.0703C20.6616 17.2136 20.6145 17.354 20.5544 17.4915C20.4204 17.7983 20.231 18.0703 19.9863 18.3071C19.7417 18.5441 19.4607 18.7274 19.1438 18.8572C18.8159 18.9915 18.4724 19.0585 18.1125 19.0585C17.9087 19.0585 17.71 19.037 17.5164 18.9939C17.3684 18.9609 17.2234 18.9153 17.0813 18.8572C16.7644 18.7274 16.4836 18.5441 16.239 18.3071C15.9941 18.0703 15.8049 17.7983 15.6707 17.4915C15.6106 17.354 15.5637 17.2136 15.5295 17.0703C15.4851 16.8829 15.4629 16.6904 15.4629 16.4931C15.4629 16.2946 15.4854 16.1011 15.5303 15.9127C15.563 15.7762 15.6072 15.6425 15.6633 15.5114C15.7214 15.3759 15.75 15.2352 15.7488 15.0891C15.7478 14.9482 15.7195 14.8127 15.6638 14.6823C15.6079 14.552 15.5291 14.4366 15.4272 14.3363C15.3213 14.2322 15.1985 14.152 15.0583 14.0959C14.9185 14.0397 14.7732 14.0121 14.6223 14.0132C14.4768 14.0142 14.3367 14.0416 14.2021 14.0956C14.0676 14.1495 13.9485 14.2258 13.8447 14.3246C13.7373 14.4271 13.6545 14.5461 13.5964 14.6816C13.4834 14.9454 13.3962 15.2147 13.3347 15.4894C13.2617 15.8163 13.2251 16.1509 13.2251 16.4931C13.2251 16.8437 13.2634 17.1861 13.3401 17.5203C13.4036 17.7975 13.4934 18.0692 13.6096 18.3351C13.7266 18.6031 13.8665 18.8564 14.0291 19.0953C14.21 19.3612 14.4192 19.6091 14.6567 19.839C14.894 20.0689 15.1501 20.2715 15.4248 20.4467C15.6716 20.6041 15.9333 20.7395 16.21 20.8528C16.8157 21.1009 17.45 21.225 18.1125 21.225C18.4749 21.225 18.8284 21.1879 19.1736 21.1138C19.46 21.0523 19.7405 20.9653 20.0151 20.8528C20.292 20.7395 20.5537 20.6042 20.8003 20.4468C21.075 20.2715 21.3311 20.0689 21.5686 19.839C21.8059 19.6091 22.0151 19.3613 22.1963 19.0953C22.3589 18.8565 22.4985 18.6031 22.6157 18.3351C22.8718 17.7486 23 17.1346 23 16.4931C23 16.1425 22.9617 15.8 22.8853 15.4658C22.8218 15.1885 22.7319 14.917 22.6157 14.651C22.4985 14.3831 22.3589 14.1297 22.1963 13.8908C22.0151 13.6249 21.8059 13.377 21.5686 13.1472C21.1177 12.7108 20.6001 12.3728 20.0151 12.1333C19.7942 12.0428 19.5686 11.9688 19.3389 11.9113C18.9387 11.8113 18.5254 11.7613 18.0986 11.7614L17.8972 11.7657C17.5969 11.7784 17.2947 11.8195 16.99 11.8888Z" clip-rule="evenodd" fill="var(--aui-first-color,  rgba(0,103,209,1))" fill-opacity="1.000000" fill-rule="evenodd"/>
		<ellipse id="path8" cx="14.979248" cy="5.250000" rx="2.291667" ry="2.250000" fill="var(--aui-second-color,  rgba(0,103,209,0.7))" fill-opacity="1.000000"/>
	</g>
</svg>
