<svg viewBox="0 0 24 24" xmlns="http://www.w3.org/2000/svg" xmlns:xlink="http://www.w3.org/1999/xlink">
	<defs>
		<clipPath id="clip377_46782">
			<rect id="color-icon-administrative-fees" width="24.000000" height="24.000000" fill="white" fill-opacity="0"/>
		</clipPath>
	</defs>
	<g clip-path="url(#clip377_46782)">
		<path id="合并" d="M7 19.7344L7 8.26556C7 8.05075 6.96313 7.85416 6.88916 7.67577C6.85815 7.60078 6.82031 7.52901 6.77637 7.46045C6.70679 7.35249 6.62573 7.2623 6.53271 7.18983C6.44971 7.13531 6.29858 7.0499 6.20874 7.02647C6.19849 7.0238 6.18823 7.02133 6.17798 7.01906L6.17798 7.01906L6.17798 7.01906C6.12012 7.00635 6.06079 7 6 7C5.93921 7 5.87988 7.00635 5.82202 7.01906L5.82202 7.01906L5.82202 7.01906L5.82202 7.01906L5.82202 7.01906C5.81177 7.02133 5.80151 7.0238 5.79126 7.02647C5.70142 7.0499 5.61499 7.08887 5.53198 7.14339C5.43921 7.21585 5.29321 7.35249 5.22363 7.46045C5.19556 7.50423 5.16992 7.54932 5.14722 7.59572L5.14722 7.59575L5.14722 7.59578L5.14722 7.59579C5.13428 7.62204 5.12207 7.6487 5.11084 7.67577C5.03687 7.85416 5 8.05075 5 8.26556L5 19.7344C5 20.0396 5.07446 20.3079 5.22363 20.5396C5.30884 20.6719 5.41162 20.7776 5.53198 20.8566C5.61499 20.9111 5.70142 20.9501 5.79126 20.9735C5.80151 20.9762 5.81177 20.9787 5.82202 20.9809L5.82227 20.981C5.88013 20.9937 5.93945 21 6 21C6.06055 21 6.11987 20.9937 6.17773 20.981L6.17798 20.9809C6.18115 20.9802 6.18433 20.9795 6.18774 20.9787C6.19482 20.9771 6.20166 20.9754 6.20874 20.9735C6.29858 20.9501 6.38501 20.9111 6.46802 20.8566C6.58838 20.7776 6.69116 20.6719 6.77637 20.5396C6.92554 20.3079 7 20.0396 7 19.7344ZM11 19.7344L11 8.26556C11 8.05075 10.9631 7.85416 10.8892 7.67577C10.8582 7.60078 10.8203 7.52901 10.7764 7.46045C10.7068 7.35249 10.6257 7.2623 10.5327 7.18983C10.4497 7.13531 10.2986 7.0499 10.2087 7.02647C10.1985 7.0238 10.1882 7.02133 10.178 7.01906L10.178 7.01906C10.1201 7.00635 10.0608 7 10 7C9.93921 7 9.87988 7.00635 9.82202 7.01906L9.82202 7.01906C9.81177 7.02133 9.80151 7.0238 9.79126 7.02647C9.70142 7.0499 9.61499 7.08887 9.53198 7.14339C9.43921 7.21585 9.29321 7.35249 9.22363 7.46045C9.19556 7.50423 9.16992 7.5493 9.14722 7.5957L9.14722 7.59572L9.14722 7.59578C9.13428 7.62202 9.12207 7.6487 9.11084 7.67577C9.03687 7.85416 9 8.05075 9 8.26556L9 19.7344C9 20.0396 9.07446 20.3079 9.22363 20.5396C9.30884 20.6719 9.41162 20.7776 9.53198 20.8566C9.61499 20.9111 9.70142 20.9501 9.79126 20.9735C9.80127 20.9762 9.81128 20.9786 9.82153 20.9808L9.82202 20.9809C9.87988 20.9937 9.93921 21 10 21C10.0608 21 10.1201 20.9937 10.178 20.9809C10.1882 20.9787 10.1985 20.9762 10.2087 20.9735C10.2986 20.9501 10.385 20.9111 10.468 20.8566C10.5884 20.7776 10.6912 20.6719 10.7764 20.5396C10.9255 20.3079 11 20.0396 11 19.7344ZM15 8.26556L15 19.7344C15 20.0396 14.9255 20.3079 14.7764 20.5396C14.6912 20.6719 14.5884 20.7776 14.468 20.8566C14.385 20.9111 14.2986 20.9501 14.2087 20.9735C14.1411 20.9912 14.0715 21 14 21C13.9392 21 13.8801 20.9937 13.822 20.9809L13.822 20.9809L13.8215 20.9808C13.8113 20.9786 13.8013 20.9762 13.7913 20.9735C13.7014 20.9501 13.615 20.9111 13.532 20.8566C13.4116 20.7776 13.3088 20.6719 13.2236 20.5396C13.0745 20.3079 13 20.0396 13 19.7344L13 8.26556C13 8.05075 13.0369 7.85416 13.1108 7.67577C13.1418 7.60078 13.1797 7.52901 13.2236 7.46045C13.2932 7.35249 13.4392 7.21585 13.532 7.14339C13.615 7.08887 13.7014 7.0499 13.7913 7.02647C13.8013 7.02385 13.8113 7.02142 13.8215 7.01918L13.822 7.01906C13.8799 7.00635 13.9392 7 14 7C14.0608 7 14.1201 7.00635 14.178 7.01906L14.1785 7.0192C14.1887 7.02142 14.1987 7.02385 14.2087 7.02647C14.2986 7.0499 14.4497 7.13531 14.5327 7.18983C14.6255 7.2623 14.7068 7.35249 14.7764 7.46045C14.8203 7.52901 14.8582 7.60078 14.8892 7.67577C14.9631 7.85416 15 8.05075 15 8.26556ZM19 8.26556L19 19.7344C19 20.0396 18.9255 20.3079 18.7764 20.5396C18.6912 20.6719 18.5884 20.7776 18.468 20.8566C18.385 20.9111 18.2986 20.9501 18.2087 20.9735C18.1411 20.9912 18.0715 21 18 21C17.9392 21 17.8799 20.9937 17.822 20.9809C17.8118 20.9787 17.8015 20.9762 17.7913 20.9735C17.7014 20.9501 17.615 20.9111 17.532 20.8566C17.4116 20.7776 17.3088 20.6719 17.2236 20.5396C17.0745 20.3079 17 20.0396 17 19.7344L17 8.26556C17 8.05075 17.0369 7.85416 17.1108 7.67577C17.1418 7.60078 17.1797 7.52901 17.2236 7.46045C17.2932 7.35249 17.4392 7.21585 17.532 7.14339C17.615 7.08887 17.7014 7.0499 17.7913 7.02647C17.8015 7.0238 17.8118 7.02133 17.822 7.01906C17.8799 7.00635 17.9392 7 18 7C18.0608 7 18.1201 7.00635 18.178 7.01906C18.1882 7.02133 18.1985 7.0238 18.2087 7.02647C18.2986 7.0499 18.4497 7.13531 18.5327 7.18983C18.6255 7.2623 18.7068 7.35249 18.7764 7.46045C18.8203 7.52901 18.8582 7.60078 18.8892 7.67577C18.9631 7.85416 19 8.05075 19 8.26556Z" clip-rule="evenodd" fill="var(--aui-second-color,  rgba(0,103,209,0.7))" fill-opacity="1.000000" fill-rule="evenodd"/>
		<path id="path6" d="M3.8 18L20.2 18C20.64 18 21 18.35 21 18.79L21 21.2C21 21.64 20.64 22 20.2 22L3.8 22C3.35 22 3 21.64 3 21.2L3 18.79C3 18.35 3.35 18 3.8 18Z" fill="var(--aui-first-color,  rgba(0,103,209,1))" fill-opacity="1.000000" fill-rule="evenodd"/>
		<path id="path7" d="M12.65 2.21L21.54 8.08C21.98 8.36 22.13 9 21.87 9.49C21.7 9.8 21.4 10 21.07 10L2.92 10C2.41 10 2 9.53 2 8.96C2 8.6 2.17 8.26 2.44 8.08L11.24 2.21C11.68 1.92 12.22 1.92 12.65 2.21Z" fill="var(--aui-first-color,  rgba(0,103,209,1))" fill-opacity="1.000000" fill-rule="evenodd"/>
	</g>
</svg>
