<svg viewBox="0 0 24 24" xmlns="http://www.w3.org/2000/svg" xmlns:xlink="http://www.w3.org/1999/xlink">
	<defs>
		<clipPath id="clip377_46907">
			<rect id="color-icon-air-fares" width="24.000000" height="24.000000" fill="white" fill-opacity="0"/>
		</clipPath>
	</defs>
	<g clip-path="url(#clip377_46907)">
		<path id="形状结合-path" d="M19.99 19C20.55 19 21 19.44 21 20C21 20.55 20.55 21 20 21L3.99 21C3.44 21 3 20.55 3 20C3 19.45 3.44 19 3.99 19L19.99 19Z" fill="var(--aui-second-color,  rgba(0,103,209,0.7))" fill-opacity="1.000000" fill-rule="evenodd"/>
		<path id="形状结合-path" d="M6.03 3.02C6.13 2.98 6.24 2.99 6.34 3.03L6.34 3.03L14.53 7.02L19.04 5.31C19.45 5.15 19.89 5.11 20.32 5.18L20.32 5.18L20.53 5.22L21.84 5.55C22.97 5.84 23.38 7.29 22.58 8.17C22.3 8.48 21.96 8.72 21.59 8.86L21.59 8.86L5.69 14.9C5.16 15.1 4.57 14.97 4.16 14.57L4.16 14.57L1.12 11.57C0.9 11.35 0.98 10.97 1.26 10.86L1.26 10.86L3.67 9.94C3.79 9.9 3.92 9.91 4.03 9.99L4.03 9.99L5.01 10.64L8.94 9.15L3.38 4.72C3.14 4.54 3.17 4.18 3.41 4.03L3.41 4.03L3.48 3.99L6.03 3.02Z" fill="var(--aui-first-color,  rgba(0,103,209,1))" fill-opacity="1.000000" fill-rule="evenodd"/>
	</g>
</svg>
