<svg viewBox="0 0 24 24" xmlns="http://www.w3.org/2000/svg" xmlns:xlink="http://www.w3.org/1999/xlink">
	<defs>
		<clipPath id="clip28_16773">
			<rect id="color-icon-analysis-report" width="24.000000" height="24.000000" fill="white" fill-opacity="0"/>
		</clipPath>
	</defs>
	<g clip-path="url(#clip28_16773)">
		<path id="减去顶层" d="M3 4.60867L3 19.3913C3 20.832 4.34326 22 6 22L18 22C19.6567 22 21 20.832 21 19.3913L21 4.60867C21 3.16792 19.6567 1.99997 18 1.99997L6 1.99997C4.34326 1.99997 3 3.16792 3 4.60867ZM5.75 7.78354L9.06274 7.79576C9.22412 7.79576 9.36157 7.82977 9.47559 7.89779C9.58936 7.96581 9.67969 8.06783 9.74609 8.20387L10.4761 9.69787L12.9172 5.40252C13.0334 5.19775 13.176 5.07109 13.345 5.02256C13.5137 4.97402 13.7087 5.0036 13.9299 5.1113C13.9841 5.13764 14.0334 5.16902 14.0779 5.20544C14.1226 5.24186 14.1621 5.28331 14.197 5.3298L16.4949 8.39331L18.25 8.39331C18.6699 8.39331 19 8.69871 19 9.08741C19 9.4761 18.6699 9.78151 18.25 9.78151L16.1025 9.78152C15.8411 9.78152 15.6357 9.68209 15.4866 9.48323L13.6694 7.06089L11.0891 11.6015C11.009 11.7423 10.8909 11.8454 10.7344 11.9109C10.5066 12.0062 10.3098 12.025 10.1445 11.9673C9.97925 11.9095 9.84497 11.7752 9.74194 11.5644L8.57886 9.18397L5.75 9.17174C5.33008 9.17174 5 8.86634 5 8.47764C5 8.08894 5.33008 7.78354 5.75 7.78354ZM17.5 14.25L11.5 14.25C11.0801 14.25 10.75 14.58 10.75 15C10.75 15.42 11.0801 15.75 11.5 15.75L17.5 15.75C17.9199 15.75 18.25 15.42 18.25 15C18.25 14.58 17.9199 14.25 17.5 14.25ZM9.5 17.75L17.5 17.75C17.9199 17.75 18.25 18.08 18.25 18.5C18.25 18.92 17.9199 19.25 17.5 19.25L9.5 19.25C9.08008 19.25 8.75 18.92 8.75 18.5C8.75 18.08 9.08008 17.75 9.5 17.75Z" clip-rule="evenodd" fill="var(--aui-first-color,  rgba(0,103,209,1))" fill-opacity="1.000000" fill-opacity="1.000000" fill-rule="evenodd"/>
		<path id="path9 (边框)" d="M9.06 7.79L5.75 7.78C5.33 7.78 5 8.08 5 8.47C5 8.86 5.33 9.17 5.75 9.17L8.57 9.18L9.74 11.56C9.84 11.77 9.97 11.9 10.14 11.96C10.3 12.02 10.5 12 10.73 11.91C10.89 11.84 11 11.74 11.08 11.6L13.66 7.06L15.48 9.48C15.63 9.68 15.84 9.78 16.1 9.78L18.25 9.78C18.66 9.78 19 9.47 19 9.08C19 8.69 18.66 8.39 18.25 8.39L16.49 8.39L14.19 5.32C14.16 5.28 14.12 5.24 14.07 5.2C14.03 5.16 13.98 5.13 13.92 5.11C13.7 5 13.51 4.97 13.34 5.02C13.17 5.07 13.03 5.19 12.91 5.4L10.47 9.69L9.74 8.2C9.67 8.06 9.58 7.96 9.47 7.89C9.36 7.82 9.22 7.79 9.06 7.79Z" fill="var(--aui-second-color,  rgba(0,103,209,0.7))" fill-opacity="0.5" fill-rule="evenodd"/>
	</g>
</svg>
