<svg viewBox="0 0 24 24" xmlns="http://www.w3.org/2000/svg" xmlns:xlink="http://www.w3.org/1999/xlink">
	<defs>
		<clipPath id="clip28_16766">
			<rect id="color-icon-analysis-report" width="24.000000" height="24.000000" fill="white" fill-opacity="0"/>
		</clipPath>
	</defs>
	<g clip-path="url(#clip28_16766)">
		<path id="减去顶层" d="M5 22L11.79 22C10.9834 20.9482 10.5 19.6072 10.5 18.1467C10.5 14.7682 13.0869 12.0293 16.2778 12.0293L16.2803 11.9395C16.3242 11.1367 16.9529 10.5 17.7222 10.5C18.9395 10.5 20.0686 10.8985 21 11.579L21 5C21 3.34315 19.6567 2 18 2L5 2C3.34326 2 2 3.34315 2 5L2 19C2 20.6569 3.34326 22 5 22ZM6 5.25L13 5.25C13.4199 5.25 13.75 5.58 13.75 6C13.75 6.42 13.4199 6.75 13 6.75L6 6.75C5.58008 6.75 5.25 6.42 5.25 6C5.25 5.58 5.58008 5.25 6 5.25ZM10 8.75L6 8.75C5.58008 8.75 5.25 9.08 5.25 9.5C5.25 9.92 5.58008 10.25 6 10.25L10 10.25C10.4199 10.25 10.75 9.92 10.75 9.5C10.75 9.08 10.4199 8.75 10 8.75Z" clip-rule="evenodd" fill="var(--aui-second-color,  rgba(0,103,209,0.7))" fill-opacity="1.000000" fill-opacity="1.000000" fill-rule="evenodd"/>
		<path id="合并" d="M21.8767 16.0872C21.8357 16.1283 21.7903 16.1591 21.7407 16.1797C21.6912 16.2003 21.6372 16.2105 21.5791 16.2105L18.585 16.2105C18.5283 16.2105 18.4729 16.2048 18.4189 16.1932C18.3699 16.1828 18.322 16.1677 18.2751 16.1478C18.229 16.1283 18.1853 16.1049 18.1443 16.0775C18.1008 16.0486 18.0603 16.0153 18.0225 15.9776C17.9849 15.9399 17.9514 15.8993 17.9226 15.8558C17.8953 15.8148 17.8718 15.7711 17.8523 15.7249C17.8325 15.678 17.8174 15.6301 17.8069 15.5812C17.7954 15.5271 17.7896 15.4718 17.7896 15.4152L17.7896 12.4211C17.7896 12.3048 17.8308 12.2055 17.9128 12.1233C17.9541 12.0822 17.9995 12.0514 18.0491 12.0308C18.0986 12.0103 18.1526 12 18.2107 12C18.4919 12 18.7668 12.0298 19.0349 12.0894C19.2563 12.1386 19.4734 12.2081 19.6858 12.298C19.9001 12.3886 20.1028 12.4968 20.2937 12.6227L20.2947 12.6232C20.5076 12.7636 20.7061 12.9258 20.8901 13.1099C21.0745 13.2943 21.2371 13.493 21.3774 13.7063C21.5034 13.8974 21.6116 14.1 21.7021 14.3143C21.792 14.5267 21.8616 14.7437 21.9109 14.9651C21.9705 15.2333 22 15.5081 22 15.7895C22 15.9058 21.959 16.005 21.8767 16.0872ZM16.2742 14.0472L16.2742 16.944C16.2742 17.0522 16.2932 17.1524 16.3315 17.2448C16.3699 17.3371 16.4272 17.4215 16.5037 17.498C16.5803 17.5745 16.6648 17.6319 16.7571 17.6701C16.8494 17.7084 16.9497 17.7275 17.0581 17.7275L19.9558 17.7278C20.0852 17.7278 20.1956 17.7735 20.2869 17.8649C20.3782 17.9562 20.4211 18.1179 20.4211 18.2471C20.3918 18.5118 20.3389 18.7692 20.262 19.0193C20.1875 19.2613 20.0908 19.4964 19.9719 19.7247C19.8599 19.9405 19.731 20.1437 19.5857 20.3343C19.4268 20.543 19.2483 20.7366 19.05 20.9153C18.8469 21.0981 18.6304 21.2588 18.4006 21.3971C18.1987 21.5187 17.9863 21.6232 17.7637 21.7104C17.5454 21.7959 17.323 21.8624 17.0969 21.9101C16.812 21.97 16.521 22 16.2234 22C15.9106 22 15.6052 21.967 15.3071 21.901L15.3047 21.9004C15.0579 21.8456 14.8162 21.7682 14.5793 21.6681C14.3406 21.5671 14.1147 21.4465 13.9016 21.3063L13.9001 21.3053L13.9001 21.3052C13.6631 21.149 13.4421 20.9684 13.2371 20.7635C13.0315 20.5581 12.8506 20.3366 12.6941 20.099C12.5537 19.8862 12.4331 19.6604 12.332 19.4217C12.2319 19.185 12.1545 18.9434 12.0996 18.6966C12.0332 18.3979 12 18.0917 12 17.7782C12 17.4809 12.03 17.1898 12.0901 16.9051C12.1377 16.6789 12.2043 16.4567 12.2898 16.2385C12.377 16.0159 12.4814 15.8037 12.6033 15.6017L12.6035 15.601C12.7419 15.3715 12.9026 15.1554 13.0852 14.9526C13.2642 14.7544 13.4578 14.5759 13.6665 14.4171C13.6677 14.4161 13.6689 14.4152 13.6702 14.4143L13.6702 14.4143C13.8599 14.2702 14.062 14.1424 14.2764 14.0309C14.5049 13.9121 14.7402 13.8156 14.9822 13.7413C15.2324 13.6645 15.49 13.6114 15.7549 13.5822C15.8191 13.5751 15.8799 13.5798 15.9373 13.5965C15.9946 13.6131 16.0483 13.6416 16.0989 13.682C16.1997 13.7628 16.26 13.9188 16.2742 14.0472Z" clip-rule="evenodd" fill="var(--aui-first-color,  rgba(0,103,209,1))" fill-opacity="1.000000" fill-opacity="1.000000" fill-rule="evenodd"/>
	</g>
</svg>
