<svg viewBox="0 0 24 24" xmlns="http://www.w3.org/2000/svg" xmlns:xlink="http://www.w3.org/1999/xlink">
	<defs>
		<clipPath id="clip449_148631">
			<rect id="color-icon-apply" width="24.000000" height="24.000000" fill="white" fill-opacity="0"/>
		</clipPath>
	</defs>
	<g clip-path="url(#clip449_148631)">
		<path id="形状结合-path" d="M8.84 13C10.03 13 11 13.96 11 15.15L11 19.84C11 21.03 10.03 22 8.84 22L4.15 22C2.96 22 2 21.03 2 19.84L2 15.15C2 13.96 2.96 13 4.15 13L8.84 13Z" fill="var(--aui-first-color,  rgba(0,103,209,1))" fill-opacity="1.000000" fill-rule="evenodd"/>
		<path id="形状结合-path备份" d="M19.84 13C21.03 13 22 13.96 22 15.15L22 19.84C22 21.03 21.03 22 19.84 22L15.15 22C13.96 22 13 21.03 13 19.84L13 15.15C13 13.96 13.96 13 15.15 13L19.84 13Z" fill="var(--aui-first-color,  rgba(0,103,209,1))" fill-opacity="1.000000" fill-rule="evenodd"/>
		<path id="形状结合-path" d="M8.84 2C10.03 2 11 2.96 11 4.15L11 8.84C11 10.03 10.03 11 8.84 11L4.15 11C2.96 11 2 10.03 2 8.84L2 4.15C2 2.96 2.96 2 4.15 2L8.84 2Z" fill="var(--aui-first-color,  rgba(0,103,209,1))" fill-opacity="1.000000" fill-rule="evenodd"/>
		<path id="形状结合-path备份 2" d="M21.7 5.04C22.45 5.79 22.47 7.03 21.75 7.8L18.91 10.84C18.18 11.62 16.99 11.64 16.24 10.89L13.3 7.94C12.55 7.2 12.53 5.96 13.25 5.19L16.09 2.15C16.82 1.37 18.01 1.35 18.76 2.1L21.7 5.04Z" fill="var(--aui-second-color,  rgba(0,103,209,0.7))" fill-opacity="1.000000" fill-rule="evenodd"/>
	</g>
</svg>
