<svg viewBox="0 0 24 24.0002" xmlns="http://www.w3.org/2000/svg" xmlns:xlink="http://www.w3.org/1999/xlink">
	<defs>
		<clipPath id="clip377_46886">
			<rect id="color-icon-archives" width="24.000000" height="24.000244" fill="white" fill-opacity="0"/>
		</clipPath>
	</defs>
	<g clip-path="url(#clip377_46886)">
		<path id="path4" d="M2 15.81L8.51 15.81L8.55 15.9C9.08 16.97 10.75 17.71 12.01 17.71C13.27 17.71 14.93 16.95 15.44 15.91L15.48 15.81L22 15.81L22 18.66C22 20.5 20.5 22 18.66 22L5.33 22C3.49 22 2 20.5 2 18.66L2 15.81Z" fill="var(--aui-second-color,  rgba(0,103,209,0.7))" fill-opacity="1.000000" fill-rule="evenodd"/>
		<path id="减去顶层" d="M22 5.33063C22 3.48969 20.5076 1.99731 18.6667 1.99731L5.33325 1.99731C3.49243 1.99731 2 3.48969 2 5.33063L2 13.9026L9.67261 13.903L9.77417 14.2433C10.0381 15.1296 11.0054 15.8078 12.0171 15.8078C13.0193 15.8078 13.9595 15.1388 14.2268 14.2469L14.3286 13.9075L22 13.9073L22 5.33063ZM15.25 5L8.75 5C8.33569 5 8 5.33582 8 5.75C8 6.16425 8.33569 6.5 8.75 6.5L15.25 6.5C15.6643 6.5 16 6.16425 16 5.75C16 5.33582 15.6643 5 15.25 5ZM6.75 8L17.25 8C17.6643 8 18 8.33582 18 8.75C18 9.16425 17.6643 9.5 17.25 9.5L6.75 9.5C6.33569 9.5 6 9.16425 6 8.75C6 8.33582 6.33569 8 6.75 8Z" clip-rule="evenodd" fill="var(--aui-first-color,  rgba(0,103,209,1))" fill-opacity="1.000000" fill-rule="evenodd"/>
	</g>
</svg>
