<svg viewBox="0 0 24 24" xmlns="http://www.w3.org/2000/svg" xmlns:xlink="http://www.w3.org/1999/xlink">
	<defs>
		<clipPath id="clip377_46648">
			<rect id="color-icon-baggage-fees" width="24.000000" height="24.000000" fill="white" fill-opacity="0"/>
		</clipPath>
	</defs>
	<g clip-path="url(#clip377_46648)">
		<path id="path6 (边框)" d="M8.1 22.31L8.1 20.68C8.1 20.6 8.09 20.52 8.08 20.44C8.07 20.37 8.05 20.31 8.03 20.25C8 20.17 7.97 20.09 7.93 20.03C7.89 19.97 7.86 19.92 7.82 19.87C7.76 19.81 7.71 19.75 7.64 19.7C7.59 19.66 7.54 19.63 7.48 19.6C7.41 19.57 7.34 19.54 7.27 19.52C7.2 19.5 7.12 19.5 7.05 19.5C6.97 19.5 6.9 19.5 6.83 19.52C6.75 19.54 6.68 19.57 6.61 19.6C6.56 19.63 6.5 19.66 6.45 19.7C6.39 19.75 6.33 19.81 6.28 19.87C6.24 19.92 6.2 19.97 6.17 20.03C6.13 20.09 6.1 20.17 6.07 20.25C6.05 20.31 6.03 20.37 6.02 20.44C6 20.52 6 20.6 6 20.68L6 22.31C6 22.39 6 22.47 6.02 22.55C6.03 22.62 6.05 22.68 6.07 22.74C6.1 22.82 6.13 22.9 6.17 22.96C6.2 23.02 6.24 23.07 6.28 23.12C6.33 23.18 6.39 23.24 6.45 23.29C6.5 23.33 6.56 23.36 6.61 23.39C6.68 23.42 6.75 23.45 6.83 23.47C6.9 23.49 6.97 23.5 7.05 23.5C7.12 23.5 7.2 23.49 7.27 23.47C7.34 23.45 7.41 23.42 7.48 23.39C7.54 23.36 7.59 23.33 7.64 23.29C7.71 23.24 7.76 23.18 7.82 23.12C7.86 23.07 7.89 23.02 7.93 22.96C7.97 22.9 8 22.82 8.03 22.74C8.05 22.68 8.07 22.62 8.08 22.55C8.09 22.47 8.1 22.39 8.1 22.31ZM18 22.31L18 20.68C18 20.6 17.99 20.52 17.97 20.44C17.96 20.37 17.94 20.31 17.92 20.25C17.89 20.17 17.86 20.09 17.82 20.03C17.79 19.97 17.75 19.92 17.71 19.87C17.66 19.81 17.6 19.75 17.54 19.7C17.49 19.66 17.43 19.63 17.38 19.6C17.31 19.57 17.24 19.54 17.16 19.52C17.09 19.5 17.02 19.5 16.94 19.5C16.87 19.5 16.79 19.5 16.72 19.52C16.65 19.54 16.58 19.57 16.51 19.6C16.45 19.63 16.4 19.66 16.35 19.7C16.28 19.75 16.23 19.81 16.17 19.87C16.13 19.92 16.1 19.97 16.06 20.03C16.02 20.09 15.99 20.17 15.96 20.25C15.94 20.31 15.92 20.37 15.91 20.44C15.9 20.52 15.89 20.6 15.89 20.68L15.89 22.31C15.89 22.39 15.9 22.47 15.91 22.55C15.92 22.62 15.94 22.68 15.96 22.74C15.99 22.82 16.02 22.9 16.06 22.96C16.1 23.02 16.13 23.07 16.17 23.12C16.23 23.18 16.28 23.24 16.35 23.29C16.4 23.33 16.45 23.36 16.51 23.39C16.58 23.42 16.65 23.45 16.72 23.47C16.79 23.49 16.87 23.5 16.94 23.5C17.02 23.5 17.09 23.49 17.16 23.47C17.24 23.45 17.31 23.42 17.38 23.39C17.43 23.36 17.49 23.33 17.54 23.29C17.6 23.24 17.66 23.18 17.71 23.12C17.75 23.07 17.79 23.02 17.82 22.96C17.86 22.9 17.89 22.82 17.92 22.74C17.94 22.68 17.96 22.62 17.97 22.55C17.99 22.47 18 22.39 18 22.31Z" fill="var(--aui-second-color,  rgba(0,103,209,0.7))" fill-opacity="1.000000" fill-rule="evenodd"/>
		<path id="path7 (边框)" d="M17 4.33L17 2.33C17 2.19 16.98 2.05 16.95 1.91C16.92 1.82 16.9 1.73 16.86 1.64C16.8 1.51 16.73 1.38 16.65 1.27C16.6 1.2 16.54 1.13 16.47 1.06C16.37 0.95 16.25 0.86 16.12 0.78C16.04 0.73 15.96 0.69 15.87 0.65C15.75 0.6 15.62 0.56 15.49 0.53C15.37 0.51 15.24 0.5 15.11 0.5L8.88 0.5C8.75 0.5 8.62 0.51 8.5 0.53C8.37 0.56 8.24 0.6 8.12 0.65C8.03 0.69 7.95 0.73 7.87 0.78C7.74 0.86 7.62 0.95 7.52 1.06C7.45 1.13 7.39 1.2 7.34 1.27C7.26 1.38 7.19 1.51 7.13 1.64C7.09 1.73 7.07 1.82 7.04 1.91C7.01 2.05 7 2.19 7 2.33L7 4.33C7 4.41 7 4.49 7.02 4.57C7.04 4.63 7.06 4.7 7.08 4.76C7.11 4.83 7.15 4.91 7.2 4.97C7.24 5.03 7.28 5.08 7.32 5.12C7.39 5.19 7.46 5.25 7.53 5.29C7.59 5.33 7.65 5.36 7.72 5.39C7.8 5.43 7.88 5.45 7.97 5.47C8.05 5.49 8.14 5.5 8.22 5.5C8.31 5.5 8.39 5.49 8.48 5.47C8.56 5.45 8.65 5.43 8.73 5.39C8.79 5.36 8.85 5.33 8.91 5.29C8.99 5.25 9.06 5.19 9.12 5.12C9.17 5.08 9.21 5.03 9.25 4.97C9.29 4.91 9.33 4.83 9.36 4.76C9.39 4.7 9.41 4.63 9.42 4.57C9.44 4.49 9.45 4.41 9.45 4.33L9.42 2.5L14.54 2.5L14.54 4.33C14.54 4.41 14.55 4.49 14.57 4.57C14.58 4.63 14.6 4.7 14.63 4.76C14.66 4.83 14.7 4.91 14.74 4.97C14.78 5.03 14.82 5.08 14.87 5.12C14.93 5.19 15 5.25 15.08 5.29C15.14 5.33 15.2 5.36 15.26 5.39C15.34 5.43 15.43 5.45 15.51 5.47C15.6 5.49 15.68 5.5 15.77 5.5C15.85 5.5 15.94 5.49 16.02 5.47C16.11 5.45 16.19 5.43 16.27 5.39C16.34 5.36 16.4 5.33 16.46 5.29C16.53 5.25 16.6 5.19 16.66 5.12C16.71 5.08 16.75 5.03 16.79 4.97C16.84 4.91 16.88 4.83 16.91 4.76C16.93 4.7 16.95 4.63 16.97 4.57C16.99 4.49 17 4.41 17 4.33Z" fill="var(--aui-second-color,  rgba(0,103,209,0.7))" fill-opacity="1.000000" fill-rule="evenodd"/>
		<path id="减去顶层" d="M17.752 3.58252C17.4673 3.52753 17.1758 3.5 16.8774 3.5L7.12256 3.5C6.82422 3.5 6.53271 3.52753 6.24805 3.58252C5.99805 3.6308 5.75366 3.70013 5.51416 3.79077C5.29028 3.87555 5.07764 3.9762 4.87695 4.09253C4.6355 4.23254 4.41162 4.39532 4.2041 4.58105C4.01367 4.75153 3.84448 4.93475 3.69727 5.13062C3.55127 5.32471 3.42676 5.53143 3.32324 5.75049C3.22681 5.95428 3.15186 6.16223 3.09863 6.37451C3.03296 6.6366 3 6.90521 3 7.18018L3 18.3198C3 18.5948 3.03296 18.8633 3.09863 19.1254C3.15186 19.3377 3.22656 19.5457 3.323 19.7496Q3.3916 19.895 3.4729 20.0332L3.4729 20.0334L3.47314 20.0337Q3.5752 20.2073 3.69702 20.3693C3.84448 20.5652 4.01343 20.7484 4.20386 20.9189C4.41138 21.1046 4.63574 21.2674 4.8772 21.4074C5.07788 21.5238 5.29004 21.6244 5.51416 21.7092Q5.76611 21.8045 6.02563 21.8686Q6.55786 22 7.12256 22L16.8774 22C17.1758 22 17.467 21.9725 17.7517 21.9175C18.0017 21.8693 18.2463 21.7998 18.4858 21.7092C18.9795 21.5223 19.4163 21.2589 19.7961 20.9189C20.1755 20.5795 20.469 20.1897 20.677 19.7496C20.8923 19.2941 21 18.8175 21 18.3198L21 7.18018C21 6.90521 20.967 6.6366 20.9014 6.37451C20.8481 6.16223 20.7732 5.95428 20.6768 5.75049C20.4688 5.31036 20.175 4.92047 19.7959 4.58105C19.416 4.24103 18.9795 3.9776 18.4858 3.79077C18.2463 3.70013 18.002 3.6308 17.752 3.58252ZM10 17.5L10 7.5C10 6.94 9.56006 6.5 9 6.5C8.43994 6.5 8 6.94 8 7.5L8 17.5C8 18.06 8.43994 18.5 9 18.5C9.56006 18.5 10 18.06 10 17.5ZM15 6.5C15.5601 6.5 16 6.94 16 7.5L16 17.5C16 18.06 15.5601 18.5 15 18.5C14.4399 18.5 14 18.06 14 17.5L14 7.5C14 6.94 14.4399 6.5 15 6.5Z" clip-rule="evenodd" fill="var(--aui-first-color,  rgba(0,103,209,1))" fill-opacity="1.000000" fill-rule="evenodd"/>
	</g>
</svg>
