<svg viewBox="0 0 24 24" xmlns="http://www.w3.org/2000/svg" xmlns:xlink="http://www.w3.org/1999/xlink">
	<defs>
		<clipPath id="clip377_46778">
			<rect id="color-icon-car-insurance" width="24.000000" height="24.000000" fill="white" fill-opacity="0"/>
		</clipPath>
	</defs>
	<g clip-path="url(#clip377_46778)">
		<path id="减去顶层" d="M11.7729 3C13.9177 3 16.1233 3.30917 18.3882 3.92704C18.5437 3.96932 18.6909 4.02574 18.8301 4.0963C19.0332 4.19923 19.2188 4.33226 19.3872 4.49538C19.4951 4.59998 19.5908 4.71209 19.6743 4.8317C19.8054 5.01927 19.9062 5.22528 19.9773 5.44975L21.104 9.02759L18.906 8.17088C18.8997 8.16842 18.8933 8.16599 18.887 8.16359L18.1951 5.96597C18.1729 5.89567 18.1389 5.83422 18.0935 5.78163C18.0474 5.73705 17.9658 5.67241 17.9099 5.65224C15.811 5.07955 13.7446 4.78338 11.7729 4.78338C10.5959 4.78338 9.43945 4.88548 8.3042 5.08968C8.15552 5.11641 8.00732 5.14489 7.85938 5.17512L7.85913 5.17516L7.8584 5.17533C7.27148 5.29532 6.69019 5.44286 6.1145 5.61795C6.05688 5.63901 5.98413 5.67989 5.93726 5.72684C5.89209 5.77937 5.83252 5.86909 5.81055 5.93898L4.32837 10.6501C7.21753 10.233 9.77466 10.0244 11.9995 10.0244C12.2368 10.0244 12.4778 10.0268 12.7227 10.0315C12.7156 10.0372 12.7085 10.043 12.7014 10.0488C12.5833 10.146 12.4727 10.2511 12.3701 10.3638C12.2566 10.4884 12.1523 10.6225 12.0579 10.7661C11.9685 10.9014 11.8899 11.0422 11.8215 11.1883C11.7522 11.3365 11.6934 11.4902 11.6455 11.6494C11.5991 11.8038 11.564 11.9601 11.5396 12.1182C11.5132 12.2908 11.5 12.4655 11.5 12.6425L11.5 15.135L8.99536 15.135C8.61206 15.135 8.31079 15.4361 8.31079 15.8194C8.31079 16.2027 8.61206 16.5038 8.99536 16.5038L11.5051 16.5038C11.5139 16.7283 11.5334 16.9511 11.564 17.1723C11.6021 17.4495 11.6572 17.7241 11.7295 17.9962C11.8062 18.2842 11.9004 18.5641 12.0125 18.8361C12.0901 19.0247 12.1763 19.2094 12.271 19.3903L7.22217 19.3903L6.47827 20.6589C6.4165 20.7641 6.33057 20.8472 6.22021 20.9083C6.11011 20.9694 5.99097 21 5.86304 21L2.98145 21C2.87085 21 2.76245 20.9898 2.65649 20.9694C2.55322 20.9495 2.45215 20.92 2.35303 20.8808C2.27002 20.8478 2.19092 20.8091 2.11572 20.7645C2.01685 20.7059 1.92456 20.6372 1.83936 20.5584C1.771 20.4953 1.70923 20.4278 1.65405 20.3559C1.58936 20.2715 1.53369 20.181 1.48706 20.0844C1.44824 20.0036 1.41675 19.921 1.39282 19.8365C1.3623 19.729 1.34375 19.6184 1.33765 19.5047L1.00317 13.4228C0.995117 13.2733 1.00049 13.1253 1.01953 12.9789C1.03296 12.8747 1.05347 12.7713 1.08081 12.6687C1.10596 12.5748 1.13623 12.4831 1.17212 12.3935L1.17236 12.3929L1.17261 12.392C1.18628 12.358 1.20068 12.3242 1.21582 12.2908C1.2627 12.1876 1.31689 12.0873 1.37842 11.9899C1.45825 11.8638 1.54834 11.7459 1.64893 11.6364C1.71655 11.5626 1.78882 11.4926 1.86572 11.4263C1.97705 11.3305 2.09521 11.245 2.22021 11.1699L4.02759 5.42526C4.0813 5.25331 4.15308 5.09199 4.24268 4.94128L4.24268 4.94128L4.24268 4.94125C4.2644 4.90442 4.28735 4.86822 4.31152 4.83266C4.39258 4.71245 4.48608 4.59949 4.5918 4.49377C4.75269 4.33259 4.93091 4.19946 5.12622 4.09436C5.25928 4.02285 5.40015 3.96432 5.54883 3.91878C6.22314 3.7137 6.9043 3.54295 7.59229 3.40654L7.59229 3.40652L7.59351 3.40627L7.59521 3.40594C7.75317 3.37464 7.91162 3.34515 8.07031 3.31747C9.28345 3.10582 10.5178 3 11.7729 3ZM2.73779 15.135L5.86646 15.135C6.24976 15.135 6.55103 15.4361 6.55103 15.8194C6.55103 16.2027 6.24976 16.5038 5.86646 16.5038L2.73779 16.5038C2.35449 16.5038 2.05347 16.2027 2.05347 15.8194C2.05347 15.4361 2.35449 15.135 2.73779 15.135Z" clip-rule="evenodd" fill="var(--aui-second-color,  rgba(0,103,209,0.7))" fill-opacity="1.000000" fill-rule="evenodd"/>
		<path id="减去顶层" d="M14.0332 11.368L17.636 10.0638C17.8711 9.97874 18.1289 9.97874 18.364 10.0638L21.9668 11.368C22.5876 11.5927 23 12.1738 23 12.8237L23 16.2059C23 17.9129 22.0374 19.4794 20.5 20.2745L18.2451 21.4405C18.0918 21.5198 17.9082 21.5198 17.7549 21.4405L15.5 20.2745C13.9626 19.4794 13 17.9129 13 16.2059L13 12.8237C13 12.1738 13.4124 11.5927 14.0332 11.368ZM17.9331 17.4786L20.6938 14.7409C20.9661 14.4711 20.9678 14.0452 20.698 13.773C20.4282 13.5009 20.0022 13.4991 19.7302 13.769L17.4512 16.0287L16.1311 14.7197C15.8591 14.4499 15.4331 14.4516 15.1633 14.7238C14.8936 14.9959 14.8953 15.4218 15.1675 15.6917L16.9695 17.4786C17.1299 17.6379 17.2905 17.7175 17.4512 17.7175C17.6118 17.7175 17.7725 17.6379 17.9331 17.4786Z" clip-rule="evenodd" fill="var(--aui-first-color,  rgba(0,103,209,1))" fill-opacity="1.000000" fill-rule="evenodd"/>
		<path id="path8备份 (边框)" d="M20.69 14.74L17.93 17.47C17.77 17.63 17.61 17.71 17.45 17.71C17.29 17.71 17.13 17.63 16.96 17.47L15.16 15.69C14.89 15.42 14.89 14.99 15.16 14.72C15.43 14.45 15.85 14.44 16.13 14.71L17.45 16.02L19.73 13.76C20 13.49 20.42 13.5 20.69 13.77C20.96 14.04 20.96 14.47 20.69 14.74Z" fill="var(--aui-second-color,  rgba(0,103,209,0.7))"  fill-opacity="0.5" fill-rule="evenodd"/>
	</g>
</svg>
