<svg viewBox="0 0 24 24" xmlns="http://www.w3.org/2000/svg" xmlns:xlink="http://www.w3.org/1999/xlink">
	<defs>
		<clipPath id="clip377_46758">
			<rect id="color-icon-car-rental" width="24.000000" height="24.000000" fill="white" fill-opacity="0"/>
		</clipPath>
	</defs>
	<g clip-path="url(#clip377_46758)">
		<path id="减去顶层" d="M11.2651 2C13.4922 2 15.7825 2.30838 18.1343 2.92461C18.321 2.9734 18.4968 3.04112 18.6616 3.12778C18.8503 3.22692 19.0244 3.35085 19.1843 3.49957Q19.3901 3.69104 19.5408 3.91586C19.658 4.09045 19.75 4.28013 19.8174 4.48489L21.5156 9.66433C20.7629 9.18623 19.9192 8.8386 19.0161 8.65326L17.8555 5.42513C17.7273 5.06976 17.4055 4.79674 17.001 4.70064Q14.0664 4 11.2981 4Q8.90405 4 6.63086 4.52393L6.63062 4.52399L6.63062 4.52399Q6.29956 4.60032 5.97095 4.68777C5.58203 4.79188 5.27539 5.0601 5.1521 5.40506L3.50024 10Q7.66895 9.30971 11.3059 9.30971Q12.571 9.30971 13.9475 9.39323C12.1672 10.3526 10.8188 12.0105 10.2698 14L9.75293 14C9.37427 14 9.07666 14.3301 9.07666 14.7501C9.07666 15.1701 9.37427 15.5 9.75293 15.5L10.0166 15.5C10.0059 15.6653 10.0002 15.832 10.0002 16C10.0002 16.8313 10.1355 17.631 10.3853 18.3784L6.79443 18.3784L6.07495 19.622C6.00757 19.7386 5.91357 19.8307 5.79321 19.8984C5.67261 19.9661 5.54248 20 5.40259 20L2.53955 20Q2.36792 20 2.20312 19.9679C2.09595 19.947 1.99072 19.9159 1.88794 19.8746C1.80127 19.8399 1.71899 19.7989 1.64062 19.7517C1.53857 19.6904 1.4436 19.6185 1.35571 19.5361Q1.24902 19.4363 1.16309 19.3225C1.09644 19.2342 1.03906 19.1396 0.991211 19.0386C0.950439 18.9533 0.917725 18.866 0.892822 18.7767Q0.889648 18.7651 0.886475 18.7533Q0.885498 18.7498 0.884766 18.7462L0.884033 18.7438L0.883545 18.7413L0.882568 18.7384Q0.844971 18.5882 0.836426 18.4307L0.50415 12.304Q0.487549 11.999 0.541748 11.7069L0.541992 11.7048Q0.54248 11.7027 0.542725 11.7007Q0.546631 11.681 0.550537 11.6614Q0.605225 11.3939 0.719482 11.1375C0.809082 10.9363 0.921143 10.7513 1.05566 10.5824C1.11816 10.5041 1.1853 10.4292 1.25732 10.3579L3.18896 4.46052Q3.26758 4.21905 3.39307 4.00501Q3.41895 3.96093 3.44678 3.91801Q3.59326 3.69221 3.79468 3.49863Q3.98389 3.31657 4.20239 3.18177L4.20239 3.18176L4.20264 3.18171Q4.24707 3.15432 4.29248 3.12888C4.45142 3.04034 4.62109 2.96952 4.80151 2.91644Q5.69336 2.65598 6.6001 2.46955Q6.81104 2.42621 7.02271 2.38686Q9.104 2 11.2651 2ZM6.50659 14L4.17651 14C3.79785 14 3.50024 14.3301 3.50024 14.7501C3.50024 15.1701 3.79785 15.5 4.17651 15.5L6.50659 15.5C6.88525 15.5 7.18311 15.1701 7.18311 14.7501C7.18311 14.3301 6.88525 14 6.50659 14Z" clip-rule="evenodd" fill="var(--aui-second-color,  rgba(0,103,209,0.7))" fill-opacity="1.000000" fill-rule="evenodd"/>
		<path id="减去顶层" d="M17.5 10C14.1863 10 11.5 12.6863 11.5 16C11.5 19.3137 14.1863 22 17.5 22C20.8137 22 23.5 19.3137 23.5 16C23.5 12.6863 20.8137 10 17.5 10ZM16.8333 16.6364L16.8333 13.6818C16.8333 13.3 16.54 13 16.1667 13C15.7932 13 15.5 13.3 15.5 13.6818L15.5 17.3182C15.5 17.5455 15.5557 17.7159 15.6667 17.8295C15.7778 17.9432 15.9443 18 16.1667 18L18.8333 18C19.2068 18 19.5 17.7 19.5 17.3182C19.5 16.9364 19.2068 16.6364 18.8333 16.6364L16.8333 16.6364Z" clip-rule="evenodd" fill="var(--aui-first-color,  rgba(0,103,209,1))" fill-opacity="1.000000" fill-rule="evenodd"/>
		<path id="路径 16 (边框)" d="M16.83 13.68L16.83 16.63L18.83 16.63C19.2 16.63 19.5 16.93 19.5 17.31C19.5 17.7 19.2 18 18.83 18L16.16 18C15.94 18 15.77 17.94 15.66 17.82C15.55 17.71 15.5 17.54 15.5 17.31L15.5 13.68C15.5 13.3 15.79 13 16.16 13C16.54 13 16.83 13.3 16.83 13.68Z" fill="var(--aui-second-color,  rgba(0,103,209,0.7))"  fill-opacity="0.5" fill-rule="evenodd"/>
	</g>
</svg>
