<svg viewBox="0 0 24 24" xmlns="http://www.w3.org/2000/svg" xmlns:xlink="http://www.w3.org/1999/xlink">
	<defs>
		<clipPath id="clip28_16754">
			<rect id="color-icon-case-study" width="24.000000" height="24.000000" fill="white" fill-opacity="0"/>
		</clipPath>
	</defs>
	<g clip-path="url(#clip28_16754)">
		<rect id="矩形 2" x="11.000000" y="15.500000" rx="1.000000" width="2.000000" height="5.000000" fill="var(--aui-second-color,  rgba(0,103,209,0.7))" fill-opacity="1.000000" fill-opacity="1.000000"/>
		<path id="减去顶层" d="M2 13.875L2 5.125C2 3.67525 3.19385 2.5 4.66675 2.5L19.3333 2.5C20.8062 2.5 22 3.67525 22 5.125L22 13.875C22 15.3247 20.8062 16.5 19.3333 16.5L4.66675 16.5C3.19385 16.5 2 15.3247 2 13.875ZM17.1226 5.44229C17.019 5.50898 16.9233 5.5868 16.834 5.67573L16.2856 6.22433L18.5308 8.46962L18.7605 8.6992L19.3091 8.15062C19.3979 8.06167 19.4756 7.96556 19.5425 7.86226C19.6016 7.7709 19.6519 7.67392 19.6934 7.57132C19.7346 7.46979 19.7659 7.36625 19.7871 7.2607L19.7871 7.26031C19.8101 7.14691 19.8218 7.0312 19.8218 6.91317C19.8218 6.79515 19.8101 6.67942 19.7871 6.56604L19.7871 6.56565L19.7871 6.56539C19.7659 6.45993 19.7346 6.35648 19.6934 6.25503C19.6519 6.15243 19.6016 6.05545 19.5425 5.96409C19.4756 5.86079 19.3979 5.76468 19.3091 5.67573C19.2202 5.5868 19.124 5.50898 19.0205 5.44227C18.9292 5.38328 18.8325 5.33297 18.73 5.29136C18.6279 5.25015 18.5244 5.21885 18.4185 5.19751C18.3052 5.17462 18.1897 5.16317 18.0718 5.16317C17.9536 5.16317 17.8379 5.17463 17.7246 5.19754C17.6187 5.21888 17.5151 5.25015 17.4136 5.29136C17.311 5.33297 17.2139 5.38328 17.1226 5.44229ZM12.1201 10.3898L15.2249 7.28501L17.6997 9.75988L14.5952 12.8647C14.5591 12.9006 14.52 12.9325 14.4775 12.9605C14.4351 12.9884 14.3901 13.0118 14.3433 13.0307L11.9863 13.9735C11.7939 14.0504 11.6025 14.0481 11.4121 13.9665C11.2217 13.8849 11.0884 13.748 11.0112 13.5557C10.9756 13.4663 10.9575 13.3734 10.9575 13.2771C10.9575 13.1808 10.9756 13.088 11.0112 12.9986L11.9541 10.6416C11.9731 10.5944 11.9966 10.5496 12.0244 10.5072C12.0522 10.4648 12.084 10.4257 12.1201 10.3898ZM5 11.25L9 11.25C9.41992 11.25 9.75 11.58 9.75 12C9.75 12.42 9.41992 12.75 9 12.75L5 12.75C4.58008 12.75 4.25 12.42 4.25 12C4.25 11.58 4.58008 11.25 5 11.25Z" clip-rule="evenodd" fill="var(--aui-first-color,  rgba(0,103,209,1))" fill-opacity="1.000000" fill-opacity="1.000000" fill-rule="evenodd"/>
		<path id="path10 (边框)" d="M5 11.25L9 11.25C9.41 11.25 9.75 11.58 9.75 12C9.75 12.42 9.41 12.75 9 12.75L5 12.75C4.58 12.75 4.25 12.42 4.25 12C4.25 11.58 4.58 11.25 5 11.25Z" fill="var(--aui-second-color,  rgba(0,103,209,0.7))" fill-opacity="0.5" fill-rule="evenodd"/>
		<path id="矩形 2" d="M5 19.5L19 19.5C19.55 19.5 20 19.94 20 20.5C20 21.05 19.55 21.5 19 21.5L5 21.5C4.44 21.5 4 21.05 4 20.5C4 19.94 4.44 19.5 5 19.5Z" fill="var(--aui-first-color,  rgba(0,103,209,1))" fill-opacity="1.000000" fill-opacity="1.000000" fill-rule="evenodd"/>
	</g>
</svg>
