<svg viewBox="0 0 24 24" xmlns="http://www.w3.org/2000/svg" xmlns:xlink="http://www.w3.org/1999/xlink">
	<defs>
		<clipPath id="clip377_46843">
			<rect id="color-icon-ceremony-fees" width="24.000000" height="24.000000" fill="white" fill-opacity="0"/>
		</clipPath>
	</defs>
	<g clip-path="url(#clip377_46843)">
		<path id="减去顶层" d="M5.05127 13.6665C5.11084 13.8464 5.19165 14.0098 5.2937 14.1566C5.38062 14.2817 5.47998 14.392 5.59229 14.4874C5.70166 14.5807 5.82324 14.66 5.95679 14.7251C6.19312 14.8401 6.45508 14.9035 6.74292 14.9152L17.2061 14.9165C17.4846 14.9052 17.7898 14.8444 18.02 14.7363C18.1553 14.6729 18.2783 14.595 18.3896 14.5027C18.4971 14.4138 18.5933 14.3114 18.6785 14.1956C18.7922 14.041 18.8818 13.8646 18.9473 13.6665L21.1667 13.6665L21.375 13.6665C21.7251 13.6665 22 13.9415 22 14.2915C22 14.6415 21.7251 14.9165 21.375 14.9165L21.1667 14.9165L21.1667 20.9998C21.1667 21.5521 20.719 21.9998 20.1667 21.9998L3.83325 21.9998C3.28101 21.9998 2.83325 21.5521 2.83325 20.9998L2.83325 14.9165L2.625 14.9165C2.2749 14.9165 2 14.6415 2 14.2915C2 13.9415 2.2749 13.6665 2.625 13.6665L2.83325 13.6665L2.83325 13.6665L5.05127 13.6665L5.05127 13.6665ZM16.3562 13.6665L17.2068 13.6665L17.2061 13.6665L16.3562 13.6665Z" clip-rule="evenodd" fill="var(--aui-second-color,  rgba(0,103,209,0.7))" fill-opacity="1.000000" fill-rule="evenodd"/>
		<path id="减去顶层" d="M11.9998 2C10.0256 2 9.32568 3.37927 9.32568 5.08069C9.32568 5.17407 9.32861 5.2677 9.33398 5.36121C9.09229 5.56891 9.00928 5.99194 9.15332 6.40961C9.27441 6.76007 9.52344 7.01526 9.78906 7.09747C9.86426 7.24414 9.94849 7.38373 10.0417 7.51434L10.1035 7.59686C10.4543 8.07153 10.5725 8.45502 10.458 8.74738C10.394 8.91064 10.2576 9.04547 10.0483 9.15186C10.0103 9.1712 9.96924 9.19073 9.92505 9.21063L9.78491 9.27112L9.54639 9.36597L8.89258 9.61267L8.68921 9.69128L8.48193 9.77411L8.27271 9.86157L8.06323 9.95404C7.08838 10.3976 6.17065 11.0151 6.17358 11.9695L6.16699 12.5288L6.16699 12.6814C6.16748 12.7062 6.16772 12.7306 6.16846 12.7547L6.17432 12.895C6.20337 13.3476 6.32837 13.6475 6.79395 13.6664L8.13379 13.6664L8.96704 11.39C9.00122 11.2967 9.05005 11.2175 9.11304 11.1525C9.16675 11.0974 9.23096 11.0523 9.30542 11.0175C9.34863 10.9974 9.39282 10.9823 9.43823 10.9724C9.47485 10.9645 9.51196 10.9598 9.55005 10.9586C9.58911 10.9572 9.62744 10.9594 9.66553 10.9652C9.71338 10.9725 9.7605 10.9855 9.80664 11.0042C9.87695 11.0326 9.93921 11.0705 9.99268 11.1178C10.0564 11.1739 10.1084 11.2433 10.1487 11.326C10.1846 11.3998 10.2068 11.4752 10.2151 11.5521C10.2236 11.6299 10.1975 11.7772 10.1777 11.8582L9.51587 13.6664L14.4846 13.6666L13.8247 11.8636C13.7625 11.6936 13.7666 11.5253 13.8369 11.3588C13.8757 11.2673 13.9282 11.1907 13.9946 11.129C14.051 11.0767 14.1174 11.035 14.1938 11.0042C14.272 10.9725 14.3501 10.9567 14.4285 10.9566C14.5063 10.9565 14.5842 10.9721 14.6621 11.0032C14.8147 11.0643 14.9565 11.2346 15.0312 11.3845L15.8667 13.6666L17.2065 13.6667C17.6589 13.6483 17.7898 13.3648 17.8232 12.9337L17.8311 12.7928L17.8337 12.6429L17.8269 11.9698C17.8296 11.0836 17.0386 10.4878 16.145 10.0521L15.9373 9.95428L15.7278 9.86188C15.6929 9.84686 15.658 9.83209 15.623 9.8175L15.3113 9.69153L14.9102 9.53827L14.3711 9.33405L14.2156 9.27142L14.0752 9.21088C14.0312 9.19104 13.9902 9.17151 13.9521 9.15216C13.7429 9.04578 13.6064 8.91089 13.5425 8.74762C13.4324 8.46667 13.5371 8.10156 13.8569 7.65222L13.897 7.59717C14.0149 7.4425 14.1194 7.27515 14.2104 7.09735C14.4758 7.01508 14.7249 6.76001 14.8457 6.40961C14.99 5.99207 14.907 5.56921 14.6653 5.36096C14.6709 5.2677 14.6736 5.17407 14.6736 5.08069C14.6736 3.37927 13.9739 2 11.9998 2Z" clip-rule="evenodd" fill="var(--aui-first-color,  rgba(0,103,209,1))" fill-opacity="1.000000" fill-rule="evenodd"/>
	</g>
</svg>
