<svg viewBox="0 0 24 24" xmlns="http://www.w3.org/2000/svg" xmlns:xlink="http://www.w3.org/1999/xlink">
	<defs>
		<clipPath id="clip379_46360">
			<rect id="color-icon-condolences" width="23.999908" height="24.000000" fill="white" fill-opacity="0"/>
		</clipPath>
	</defs>
	<g clip-path="url(#clip379_46360)">
		<path id="减去顶层" d="M10.3567 22L2.69507 21.985C2.42798 21.9736 2.19629 21.9018 2.00024 21.7702C1.43994 21.394 1.17041 20.5277 1.19092 19.1713C1.19458 18.9359 1.19653 18.7574 1.19653 18.6359C1.19629 18.5395 1.20117 18.4438 1.21143 18.3486C1.38232 16.7449 3.03174 15.3197 6.15942 14.0731C6.77563 13.8276 7.17651 13.6547 7.36206 13.5541C7.57568 13.4384 7.69849 13.2703 7.72217 13.1204C7.73755 12.8663 7.5415 12.4363 7.24072 11.9862C7.0896 11.7751 6.95093 11.5497 6.82422 11.3099C6.71899 11.2587 6.61987 11.1982 6.52686 11.1285C6.16895 10.8597 5.90161 10.4536 5.72534 9.90997C5.51343 9.25555 5.50244 8.69348 5.69238 8.22345C5.75684 8.0639 5.84448 7.9151 5.95532 7.77679C5.9541 7.72375 5.95312 7.62488 5.95288 7.57208C5.95288 5.48413 6.43945 3.98303 7.4126 3.0686C8.17065 2.3562 9.00781 2 10.3567 2C11.7056 2 12.5427 2.3562 13.3008 3.0686C14.2739 3.98303 14.7603 5.48413 14.7603 7.57208C14.76 7.62488 14.7593 7.72375 14.7581 7.77679C14.8687 7.9151 14.9565 8.0639 15.021 8.22345C15.2109 8.69348 15.2 9.25555 14.988 9.90997C14.9626 9.98816 14.9353 10.0635 14.9062 10.1361C14.7896 10.1255 14.6714 10.1201 14.552 10.1201C12.2153 10.1201 10.321 12.1898 10.321 14.7429C10.321 17.2855 12.5603 20.2122 14.6155 21.9916L10.3567 22Z" clip-rule="evenodd" fill="var(--aui-second-color,  rgba(0,103,209,0.7))" fill-opacity="1.000000" fill-rule="evenodd"/>
		<path id="减去顶层" d="M15.1458 11.6201C15.9775 11.6201 16.7383 12.1 17.3213 12.6201C17.9043 12.1 18.665 11.6201 19.4968 11.6201C21.333 11.6201 22.8213 13.1533 22.8213 15.0444C22.8213 17.9017 18.772 21.4137 17.3213 21.6201C15.8706 21.4137 11.8213 17.9017 11.8213 15.0444C11.8213 13.1533 13.3213 11.6201 15.1458 11.6201Z" clip-rule="evenodd" fill="var(--aui-first-color,  rgba(0,103,209,1))" fill-opacity="1.000000" fill-rule="evenodd"/>
	</g>
</svg>
