<svg viewBox="0 0 24 24" xmlns="http://www.w3.org/2000/svg" xmlns:xlink="http://www.w3.org/1999/xlink">
	<defs>
		<clipPath id="clip477_143114">
			<rect id="color-icon-entertainment-expense" width="24.000000" height="24.000000" fill="white" fill-opacity="0"/>
		</clipPath>
	</defs>
	<g clip-path="url(#clip477_143114)">
		<path id="减去顶层" d="M18.644 8.72104C19.1079 9.32126 19.3594 10.107 19.3979 11.0782C19.4673 11.0732 19.5371 11.0706 19.6079 11.0706C19.8345 11.0706 20.0557 11.0966 20.271 11.1484C20.4243 11.1853 20.5747 11.2353 20.7222 11.2983C20.9189 11.3821 21.1025 11.4858 21.2739 11.6093C21.4033 11.7027 21.5259 11.8074 21.6406 11.9234C21.8052 12.0897 21.9473 12.2714 22.0669 12.4686C22.1431 12.5938 22.21 12.7253 22.2676 12.863C22.3447 13.0473 22.4023 13.2359 22.4414 13.4289C22.4805 13.6234 22.5 13.8224 22.5 14.0258C22.5 14.2291 22.4805 14.428 22.4414 14.6226C22.4023 14.8156 22.3447 15.0042 22.2676 15.1884C22.2095 15.3261 22.1426 15.4576 22.0669 15.5828C21.9473 15.78 21.8052 15.9618 21.6406 16.1281C21.5259 16.2441 21.4033 16.3488 21.2739 16.4423C21.1025 16.5657 20.9189 16.6694 20.7222 16.7532C20.5747 16.8163 20.4243 16.8662 20.271 16.903C20.0552 16.9549 19.8345 16.9808 19.6079 16.9808C18.9722 16.9808 18.4326 16.8949 17.9888 16.7229C17.7334 17.174 17.4492 17.5962 17.1353 17.9894C16.6509 18.5972 16.104 19.1219 15.5078 19.5558C15.2852 19.7172 15.0566 19.8653 14.8223 19.9999L7.08008 19.9999C6.82861 19.8531 6.58691 19.6914 6.35596 19.5146C5.80908 19.096 5.31934 18.5934 4.88672 18.0066Q3.94434 16.7282 3.45508 15.0486C3.4082 14.8853 3.36426 14.721 3.32422 14.5557C3.10791 13.6643 3 12.7433 3 11.7929Q3 10.4638 3.41309 9.54709Q3.60596 9.12027 3.8877 8.77704Q3.94824 8.70361 4.0127 8.634Q4.29102 8.33432 4.64502 8.10553C4.67334 8.09247 4.78516 8.03607 4.81543 8.02716C4.875 8.00928 4.93604 8.00037 4.99854 8.00037L17.6509 8C17.7202 8 17.7891 8.01117 17.8555 8.03351C17.9224 8.05585 17.9839 8.08832 18.0415 8.13092Q18.3115 8.33231 18.5283 8.58051L18.5288 8.58069L18.5288 8.58102Q18.5884 8.64926 18.644 8.72104ZM20.0117 12.5395C19.9165 12.5131 19.8184 12.5 19.7178 12.5C19.71 12.5 19.6943 12.4998 19.6748 12.4996C19.6167 12.499 19.5229 12.4981 19.5 12.5C19.5 13.4999 19.5 13.9999 19 15.4999C19.1274 15.5565 19.2729 15.5398 19.436 15.521C19.5249 15.5108 19.6187 15.5 19.7178 15.5C19.8184 15.5 19.9165 15.4868 20.0117 15.4605C20.0796 15.4418 20.1465 15.4164 20.2119 15.3844C20.2993 15.3419 20.3804 15.2892 20.4565 15.2266C20.5137 15.1792 20.5679 15.126 20.6191 15.0671C20.6919 14.9827 20.7549 14.8904 20.8081 14.7903C20.8418 14.7267 20.8711 14.66 20.897 14.5901C20.9312 14.4966 20.957 14.4009 20.9741 14.3029C20.9912 14.2042 21 14.1032 21 14C21 13.8967 20.9912 13.7957 20.9741 13.697C20.957 13.5991 20.9312 13.5033 20.897 13.4098C20.8716 13.3399 20.8418 13.2731 20.8081 13.2096C20.7549 13.1095 20.6919 13.0172 20.6191 12.9328C20.5679 12.8739 20.5137 12.8208 20.4565 12.7734C20.3804 12.7107 20.2993 12.6581 20.2119 12.6155C20.1465 12.5835 20.0796 12.5582 20.0117 12.5395Z" clip-rule="evenodd" fill="var(--aui-first-color,  rgba(0,103,209,1))" fill-opacity="1.000000" fill-rule="evenodd"/>
		<path id="path5 (边框)" d="M3 20L21 20C21.56 20 22 20.44 22 21C22 21.56 21.56 22 21 22L3 22C2.43 22 2 21.56 2 21C2 20.44 2.43 20 3 20Z" fill="var(--aui-second-color,  rgba(0,103,209,0.7))" fill-opacity="1.000000" fill-rule="evenodd"/>
		<path id="path6 (边框)" d="M8.5 3.28C8.33 3.37 8.19 3.45 8.08 3.54C8.02 3.59 7.97 3.63 7.94 3.67C8 3.75 8.07 3.84 8.16 3.91C8.22 3.97 8.32 4.06 8.47 4.17C8.66 4.31 8.8 4.43 8.89 4.52C9.07 4.7 9.19 4.9 9.26 5.11C9.3 5.22 9.32 5.34 9.32 5.45C9.32 5.55 9.31 5.64 9.28 5.74C9.24 5.92 9.14 6.09 9.01 6.25C8.8 6.49 8.49 6.71 8.06 6.92C7.7 7.09 7.28 6.96 7.1 6.62C6.92 6.28 7.06 5.88 7.42 5.7C7.61 5.61 7.75 5.52 7.84 5.45C7.79 5.4 7.7 5.33 7.58 5.24C7.4 5.1 7.26 4.98 7.16 4.89C6.98 4.73 6.83 4.55 6.71 4.35C6.6 4.19 6.53 4.02 6.51 3.84C6.5 3.78 6.5 3.73 6.5 3.67C6.5 3.61 6.5 3.55 6.51 3.5C6.53 3.32 6.6 3.15 6.71 2.98C6.91 2.66 7.28 2.36 7.82 2.08C8.17 1.9 8.6 2.02 8.79 2.35C8.98 2.69 8.85 3.09 8.5 3.28ZM12.31 3.28C12.14 3.37 12 3.45 11.89 3.54C11.83 3.59 11.78 3.63 11.75 3.67C11.8 3.75 11.88 3.84 11.96 3.91C12.03 3.97 12.13 4.06 12.27 4.17C12.47 4.31 12.6 4.43 12.69 4.52C12.87 4.7 13 4.9 13.07 5.11C13.11 5.22 13.13 5.34 13.13 5.45C13.13 5.55 13.12 5.64 13.09 5.74C13.04 5.92 12.95 6.09 12.81 6.25C12.61 6.49 12.29 6.71 11.87 6.92C11.51 7.09 11.09 6.96 10.91 6.62C10.73 6.28 10.87 5.88 11.22 5.7C11.42 5.61 11.56 5.52 11.65 5.45C11.6 5.4 11.51 5.33 11.39 5.24C11.21 5.1 11.07 4.98 10.97 4.89C10.79 4.73 10.63 4.55 10.51 4.35C10.41 4.19 10.34 4.02 10.31 3.84C10.31 3.78 10.3 3.73 10.3 3.67C10.3 3.61 10.31 3.55 10.31 3.5C10.34 3.32 10.41 3.15 10.51 2.98C10.72 2.66 11.09 2.36 11.62 2.08C11.98 1.9 12.4 2.02 12.59 2.35C12.79 2.69 12.66 3.09 12.31 3.28ZM15.68 3.28C15.5 3.37 15.37 3.45 15.26 3.54C15.19 3.59 15.15 3.63 15.12 3.67C15.17 3.75 15.24 3.84 15.33 3.91C15.39 3.97 15.5 4.06 15.64 4.17C15.83 4.31 15.97 4.43 16.06 4.52C16.24 4.7 16.37 4.9 16.44 5.11C16.47 5.22 16.49 5.34 16.5 5.45C16.5 5.55 16.48 5.64 16.46 5.74C16.41 5.92 16.32 6.09 16.18 6.25C15.98 6.49 15.66 6.71 15.23 6.92C14.88 7.09 14.45 6.96 14.27 6.62C14.09 6.28 14.23 5.88 14.59 5.7C14.79 5.61 14.93 5.52 15.02 5.45C14.96 5.4 14.88 5.33 14.76 5.24C14.57 5.1 14.43 4.98 14.33 4.89C14.15 4.73 14 4.55 13.88 4.35C13.77 4.19 13.71 4.02 13.68 3.84C13.67 3.78 13.67 3.73 13.67 3.67C13.67 3.61 13.67 3.55 13.68 3.5C13.71 3.32 13.77 3.15 13.88 2.98C14.09 2.66 14.46 2.36 14.99 2.08C15.34 1.9 15.77 2.02 15.96 2.35C16.15 2.69 16.03 3.09 15.68 3.28Z" fill="var(--aui-second-color,  rgba(0,103,209,0.7))" fill-opacity="0.5" fill-rule="evenodd"/>
	</g>
</svg>
