<svg viewBox="0 0 24 24" xmlns="http://www.w3.org/2000/svg" xmlns:xlink="http://www.w3.org/1999/xlink">
	<defs>
		<clipPath id="clip474_143460">
			<rect id="color-icon-expert-reimburse-form" width="24.000000" height="24.000000" fill="white" fill-opacity="0"/>
		</clipPath>
	</defs>
	<g clip-path="url(#clip474_143460)">
		<path id="减去顶层" d="M8.57861 14.0404L9 14L10.5 16L13.5 16L14.9692 14.041L15 14.0409L15.5 14.1235L15.7642 14.209L15.958 14.2962L16.2739 14.4316L17.1035 14.7745L17.4878 14.9351L17.8823 15.1053L18.1489 15.2247L18.417 15.3489C18.4619 15.3701 18.5063 15.3914 18.5513 15.413L18.8188 15.5452C20.4639 16.3777 21.9932 17.5331 21.9888 19.3052L21.9897 19.5367L21.9985 20.2L22 20.611L21.9971 20.8057C21.9961 20.8375 21.9951 20.869 21.9941 20.9001L21.9849 21.0828C21.9316 21.9153 21.7124 22.4649 20.9248 22.5L3.0752 22.4995C2.3125 22.4655 2.08301 21.9492 2.02051 21.1606L2.00928 20.981C2.00781 20.9503 2.00684 20.9193 2.00586 20.8879L2.00098 20.6959L2 20.3934L2.0083 19.7437L2.01172 19.3046C2.00732 17.7241 3.22363 16.6342 4.65381 15.8264L4.91602 15.6826C5.00391 15.6356 5.09229 15.5897 5.18115 15.5447L5.44873 15.4125C5.49365 15.3909 5.53809 15.3695 5.58301 15.3484L5.85107 15.2241L6.11768 15.1049L6.38184 14.9902L6.77002 14.8265L7.38428 14.5731L7.93994 14.3401L8.14062 14.2518C8.17334 14.2372 8.20508 14.2228 8.23633 14.2085L8.41553 14.1235L8.57861 14.0404ZM13.2422 20.9089L12.7778 17.9089C12.769 17.8497 12.7524 17.7957 12.7285 17.7468C12.7046 17.6979 12.6733 17.6541 12.6343 17.6156C12.5957 17.5771 12.5542 17.5482 12.5098 17.5289Q12.4902 17.5206 12.4702 17.5146Q12.4209 17.5 12.3672 17.5L11.625 17.5Q11.5713 17.5 11.522 17.5146Q11.502 17.5206 11.4824 17.5289C11.438 17.5482 11.3965 17.5771 11.3579 17.6156C11.3193 17.6541 11.2876 17.6979 11.2637 17.7468C11.2397 17.7957 11.2231 17.8497 11.2144 17.9089L10.75 20.9089C10.75 21.047 10.7837 21.2559 10.8652 21.3536C10.9062 21.4023 10.9512 21.439 11.0005 21.4634C11.0498 21.4878 11.103 21.5 11.1606 21.5L12.8315 21.5C12.9448 21.4749 13.1104 21.397 13.1758 21.2833C13.2412 21.1695 13.2632 21.0447 13.2422 20.9089Z" clip-rule="evenodd" fill="var(--aui-second-color,  rgba(0,103,209,0.7))" fill-opacity="1.000000" fill-rule="evenodd"/>
		<path id="path5" d="M11.99 1.5C8.61 1.5 7.41 3.98 7.41 7.04C7.41 7.21 7.41 7.38 7.42 7.55C7.01 7.92 6.87 8.68 7.11 9.43C7.32 10.06 7.75 10.52 8.2 10.67C8.33 10.93 8.48 11.19 8.64 11.42L8.74 11.62C8.74 11.62 9.49 13 11.99 13C14.5 13 15.18 11.62 15.18 11.62L15.25 11.57C15.45 11.29 15.63 10.99 15.78 10.67C16.24 10.52 16.67 10.06 16.87 9.43C17.12 8.68 16.98 7.92 16.56 7.54C16.57 7.38 16.58 7.21 16.58 7.04C16.58 3.98 15.38 1.5 11.99 1.5Z" fill="var(--aui-first-color,  rgba(0,103,209,1))" fill-opacity="1.000000" fill-rule="evenodd"/>
	</g>
</svg>
