<svg viewBox="0 0 24 24" xmlns="http://www.w3.org/2000/svg" xmlns:xlink="http://www.w3.org/1999/xlink">
	<defs>
		<clipPath id="clip377_46872">
			<rect id="color-icon-expert-consultation-fees" width="24.000000" height="24.000000" fill="white" fill-opacity="0"/>
		</clipPath>
	</defs>
	<g clip-path="url(#clip377_46872)">
		<path id="减去顶层" d="M3.70068 9.8606C2.75122 9.91766 2 10.6618 2 11.5714L2 16.7142C2 17.661 2.81396 18.4285 3.81812 18.4285L12.5759 18.4285L12.4761 15.6862C12.353 15.6328 12.2322 15.5663 12.1233 15.4913C12.0117 15.4144 11.9075 15.3261 11.8108 15.2265C11.7139 15.1269 11.6282 15.0197 11.5532 14.9049C11.4802 14.7929 11.418 14.6737 11.366 14.5472C11.3123 14.4171 11.272 14.2842 11.2446 14.1484C11.2161 14.0068 11.2017 13.8621 11.2017 13.7143C11.2017 13.694 11.2053 13.6131 11.2061 13.5929L11.3472 11.5538C11.3169 11.5575 11.2864 11.5605 11.2554 11.5628C11.2356 11.5635 11.1567 11.5671 11.137 11.5671L5.36328 11.5671C5.14453 11.5671 4.94092 11.5292 4.75293 11.4534C4.5459 11.3701 4.35767 11.241 4.18774 11.0662C4.0332 10.9074 3.91553 10.733 3.83472 10.543C3.83057 10.5332 3.82642 10.5234 3.82251 10.5135C3.7417 10.313 3.70117 10.0953 3.70068 9.8606ZM19.3408 18.4285L19.4409 15.6864C19.4878 15.6661 19.5342 15.6439 19.5801 15.6198C19.6992 15.5574 19.8103 15.4848 19.9136 15.4019C20.0198 15.317 20.1174 15.2213 20.2073 15.1149C20.2856 15.0217 20.3552 14.9234 20.4163 14.8199L20.4163 14.8198C20.4248 14.8051 20.4333 14.7902 20.4417 14.7753C20.5068 14.6582 20.5608 14.5347 20.604 14.4048C20.6482 14.2711 20.6794 14.1355 20.6973 13.9981C20.7158 13.8547 20.72 13.7093 20.71 13.562L20.4539 9.87616C21.3291 9.99994 22 10.7118 22 11.5714L22 16.7142C22 17.661 21.186 18.4285 20.1819 18.4285L19.3408 18.4285Z" clip-rule="evenodd" fill="var(--aui-second-color,  rgba(0,103,209,0.7))" fill-opacity="1.000000" fill-rule="evenodd"/>
		<path id="合并" d="M9.9165 4.71429C9.9165 3.76752 9.17041 3 8.25 3C7.32935 3 6.58325 3.76752 6.58325 4.71429C6.58325 5.66107 7.32935 6.42859 8.25 6.42859C9.17041 6.42859 9.9165 5.66107 9.9165 4.71429ZM15.9583 3.85712C16.8787 3.85712 17.625 4.62463 17.625 5.57141C17.625 6.51819 16.8787 7.28571 15.9583 7.28571C15.0378 7.28571 14.2915 6.51819 14.2915 5.57141C14.2915 4.62463 15.0378 3.85712 15.9583 3.85712ZM9.8103 7.28571L6.68945 7.28571C6.0271 7.28571 5.47705 7.80707 5.42993 8.47992L5.33325 9.85706L11.1665 9.85712L11.0701 8.47992C11.0227 7.80707 10.4729 7.28571 9.8103 7.28571ZM13.2805 14.1429C13.0505 14.1429 12.864 13.951 12.864 13.7143L13.167 9.33698C13.2136 8.66412 13.7578 8.14288 14.4138 8.14288L17.5027 8.14288C18.1584 8.14288 18.7026 8.66412 18.7495 9.33698L19.0513 13.6838C19.0676 13.9199 18.8948 14.1249 18.6653 14.1418L17.8333 14.1429L17.6133 20.175C17.5964 20.6356 17.2285 21 16.7805 21L15.1357 21C14.6877 21 14.3198 20.6356 14.303 20.175L14.0833 14.1429L13.2805 14.1429Z" clip-rule="evenodd" fill="var(--aui-first-color,  rgba(0,103,209,1))" fill-opacity="1.000000" fill-rule="evenodd"/>
	</g>
</svg>
