<svg viewBox="0 0 23.9973 24" xmlns="http://www.w3.org/2000/svg" xmlns:xlink="http://www.w3.org/1999/xlink">
	<defs>
		<clipPath id="clip377_46861">
			<rect id="color-icon-expert-teaching-fees" width="23.997284" height="24.000000" fill="white" fill-opacity="0"/>
		</clipPath>
	</defs>
	<g clip-path="url(#clip377_46861)">
		<path id="减去顶层" d="M13.6675 4.50018C13.6675 5.55591 14.0605 6.51984 14.7083 7.2536C14.5986 7.30621 14.4937 7.36603 14.3938 7.43317C14.2524 7.52808 14.1206 7.63745 13.9988 7.76141L12.2412 9.5484L10.666 8.30255C10.5469 8.20837 10.4211 8.12756 10.2883 8.06006C10.1667 7.99823 10.0396 7.94757 9.90649 7.90808C9.77271 7.86835 9.6377 7.84131 9.50122 7.82697C9.36206 7.81232 9.22168 7.81079 9.07983 7.82245C8.93921 7.83398 8.802 7.85809 8.66821 7.89465L8.66821 7.89465L8.66821 7.89471L8.66821 7.89471C8.53491 7.93115 8.40527 7.98004 8.27905 8.04132C8.15503 8.10144 8.03833 8.17151 7.9292 8.25159C7.80884 8.3396 7.69775 8.4397 7.59521 8.55188C7.49707 8.65924 7.41064 8.7738 7.33594 8.89551C7.26221 9.01587 7.19971 9.14331 7.14868 9.27771C7.10059 9.40436 7.06445 9.5332 7.03979 9.66425L7.03979 9.66431L7.03979 9.66431C7.01392 9.80188 7.00098 9.94196 7.00098 10.0844C7.00073 10.2268 7.01367 10.3669 7.03955 10.5045C7.06396 10.6356 7.1001 10.7645 7.14819 10.8912C7.19897 11.0256 7.26123 11.153 7.33521 11.2734C7.40967 11.3952 7.49609 11.5098 7.59399 11.6173L10.6345 14.9498C10.7466 15.0726 10.8679 15.1824 10.999 15.2795C11.115 15.3655 11.2385 15.4413 11.3694 15.5071C11.5054 15.5754 11.6453 15.6308 11.7888 15.6732C11.9324 15.7156 12.0798 15.745 12.2312 15.7614C12.3845 15.7781 12.5369 15.7809 12.6882 15.7698C12.8359 15.759 12.9824 15.7349 13.1282 15.6978C13.2717 15.6611 13.4102 15.6127 13.543 15.5526L13.5432 15.5526C13.6233 15.5164 13.7014 15.476 13.7776 15.4313L13.7776 20.3315L4.28955 20.3315C4.12402 20.3315 3.96191 20.3143 3.80371 20.28L3.80371 20.28C3.66553 20.2501 3.53052 20.2072 3.39819 20.1512C3.2666 20.0955 3.14209 20.0289 3.02515 19.9513C2.89844 19.8673 2.78027 19.7705 2.67065 19.6609C2.56104 19.5513 2.46411 19.4331 2.38013 19.3064C2.30249 19.1893 2.23584 19.065 2.18018 18.9333C2.12427 18.801 2.0813 18.6658 2.05151 18.5278C2.01709 18.3696 2 18.2076 2 18.0419C2 17.8762 2.01709 17.7142 2.05151 17.556C2.0813 17.418 2.12427 17.2828 2.18018 17.1505C2.23584 17.0188 2.30249 16.8945 2.38013 16.7774C2.46411 16.6507 2.56104 16.5326 2.67065 16.4229C2.78027 16.3133 2.89844 16.2165 3.02515 16.1325C3.14209 16.0549 3.2666 15.9883 3.39819 15.9326C3.48633 15.8953 3.57568 15.8638 3.6665 15.838L3.6665 6.24756C3.6665 5.99646 3.69287 5.75116 3.74536 5.51166C3.78979 5.31042 3.85254 5.11328 3.93384 4.92023C4.01685 4.72308 4.11646 4.5368 4.23267 4.36151L4.23267 4.36151C4.35693 4.17383 4.5 3.99872 4.66211 3.83606C4.82812 3.66937 5.00757 3.52252 5.19995 3.39563L5.19995 3.39563L5.19995 3.39563L5.19995 3.39557C5.37085 3.2829 5.552 3.18591 5.74341 3.10455C5.93872 3.02173 6.13818 2.95801 6.3418 2.91345L6.3418 2.91339L6.34204 2.91333C6.57886 2.86157 6.82129 2.83569 7.06934 2.83569L14.0137 2.83569C13.791 3.34546 13.6675 3.90839 13.6675 4.50018Z" clip-rule="evenodd" fill="var(--aui-second-color,  rgba(0,103,209,0.7))" fill-opacity="1.000000" fill-rule="evenodd"/>
		<path id="矢量 326" d="M17.83 7C16.44 7 15.33 5.88 15.33 4.5C15.33 3.11 16.44 2 17.83 2C19.21 2 20.33 3.11 20.33 4.5C20.33 5.88 19.21 7 17.83 7ZM11.77 11.29L9.63 9.6C9.38 9.41 9.03 9.44 8.82 9.67C8.61 9.9 8.61 10.26 8.82 10.49L11.86 13.82C12.15 14.15 12.64 14.2 13 13.95L14.75 12.71C14.82 12.65 14.91 12.63 15 12.63C15.24 12.63 15.44 12.82 15.44 13.07L15.44 21.55C15.44 21.8 15.63 22 15.87 22L19.37 22C19.61 22 19.81 21.8 19.81 21.55L19.81 16.22C19.81 15.97 20 15.77 20.24 15.77L21.12 15.77C21.6 15.77 21.99 15.37 21.99 14.88L21.99 10C21.99 9.26 21.4 8.66 20.68 8.66L15.8 8.66C15.57 8.66 15.34 8.76 15.18 8.92L12.92 11.22C12.61 11.53 12.11 11.57 11.77 11.29Z" fill="var(--aui-first-color,  rgba(0,103,209,1))" fill-opacity="1.000000" fill-rule="evenodd"/>
	</g>
</svg>
