<svg viewBox="0 0 24 24" xmlns="http://www.w3.org/2000/svg" xmlns:xlink="http://www.w3.org/1999/xlink">
	<defs>
		<clipPath id="clip377_46920">
			<rect id="color-icon-express-delivery" width="24.000000" height="24.000000" fill="white" fill-opacity="0"/>
		</clipPath>
	</defs>
	<g clip-path="url(#clip377_46920)">
		<path id="减去顶层" d="M21.9011 3.01213L12.2188 3.00037L12.2175 3.00037L12.0891 3.00807C11.542 3.07419 11.1172 3.55803 11.1172 4.14507L11.1172 13.3807C11.1165 13.8542 10.7471 14.2376 10.292 14.2369C9.83618 14.2363 9.4668 13.8516 9.4668 13.3773L9.4668 6.94606L9.45801 6.83392C9.40601 6.50771 9.1333 6.25925 8.80518 6.25998L5.85303 6.26663C5.46606 6.30975 5.11182 6.52232 4.88208 6.85536L1.36084 11.2348L1.26709 11.3847C1.09277 11.6921 1 12.0434 1 12.4024L1 15.9986L1.00635 16.1629C1.05054 16.7288 1.64893 17.2899 2.09424 17.633C2.49023 15.8407 4.08862 14.5 6 14.5C8.0332 14.5 9.71191 16.0169 9.96655 17.9807L13.0327 17.9857C13.2852 16.0195 14.9651 14.5 17 14.5C19.0393 14.5 20.7222 16.026 20.9688 17.9985L21.6714 17.9996L21.8997 18.0004C22.5073 18.0002 23 17.4877 23 16.8556L23 4.15683C23 3.52515 22.5083 3.01286 21.9011 3.01213Z" clip-rule="evenodd" fill="var(--aui-first-color,  rgba(0,103,209,1))" fill-opacity="1.000000" fill-rule="evenodd"/>
		<circle id="椭圆 38" cx="6.000000" cy="18.500000" r="2.500000" fill="var(--aui-second-color,  rgba(0,103,209,0.7))" fill-opacity="1.000000"/>
		<circle id="椭圆 43" cx="17.000000" cy="18.500000" r="2.500000" fill="var(--aui-second-color,  rgba(0,103,209,0.7))" fill-opacity="1.000000"/>
	</g>
</svg>
