<svg viewBox="0 0 24 24" xmlns="http://www.w3.org/2000/svg" xmlns:xlink="http://www.w3.org/1999/xlink">
	<defs>
		<clipPath id="clip377_46626">
			<rect id="color-icon-ferry-fares" width="24.000000" height="24.000000" fill="white" fill-opacity="0"/>
		</clipPath>
	</defs>
	<g clip-path="url(#clip377_46626)">
		<path id="B3" d="M15.48 18.66C16.33 19.22 17.86 20.16 18.72 20.16C19.07 20.16 20.3 20.1 20.63 20C21.04 19.88 21.46 20.16 21.57 20.62C21.67 21.09 21.43 21.56 21.02 21.68C20.56 21.82 19.2 21.89 18.72 21.89C17.75 21.89 16.23 21.13 15.42 20.69C15.08 20.5 14.67 20.5 14.33 20.68C13.46 21.14 11.78 21.97 10.77 21.97C9.85 21.97 8.49 21.24 7.73 20.78C7.37 20.56 6.93 20.55 6.57 20.75C5.73 21.22 4.17 21.99 3.21 21.99C2.72 21.99 2.24 21.92 1.77 21.78C1.36 21.66 1.12 21.19 1.23 20.72C1.34 20.26 1.76 19.98 2.17 20.11C2.5 20.21 2.85 20.26 3.21 20.26C4.04 20.26 5.64 19.35 6.52 18.81C6.9 18.58 7.39 18.59 7.76 18.84C8.55 19.38 9.93 20.23 10.77 20.23C11.59 20.23 13.33 19.22 14.26 18.64C14.63 18.41 15.11 18.42 15.48 18.66Z" fill="var(--aui-second-color,  rgba(0,103,209,0.7))"  fill-opacity="0.5" fill-rule="evenodd"/>
		<path id="B2" d="M12.68 2L10 2C9.47 2 9.04 2.46 9.04 3.04L9.04 4.49L5.4 4.49C4.87 4.49 4.44 4.96 4.44 5.54L4.44 9.49L18.24 9.49L18.24 5.54C18.24 4.96 17.81 4.49 17.28 4.49L13.64 4.49L13.64 3.04C13.64 2.46 13.21 2 12.68 2Z" fill="var(--aui-second-color,  rgba(0,103,209,0.7))" fill-opacity="1.000000" fill-rule="evenodd"/>
		<path id="A1" d="M2.43 10.74L21.56 10.74C22.76 10.74 23.43 12.25 22.68 13.28L18.46 19.06C17.52 18.58 16.43 17.85 15.66 17.31C15.08 16.9 14.3 16.96 13.77 17.45C12.95 18.19 11.75 19.13 10.95 19.13C10.14 19.13 9.07 18.28 8.3 17.56C7.73 17.03 6.89 16.96 6.28 17.43C5.33 18.17 3.95 19.14 3.05 19.34L1.07 12.79C0.76 11.78 1.45 10.74 2.43 10.74ZM16.7 20.2L17 20.2C16.88 20.14 16.76 20.08 16.64 20.02C16.67 20.08 16.69 20.14 16.7 20.2Z" fill="var(--aui-first-color,  rgba(0,103,209,1))" fill-opacity="1.000000" fill-rule="evenodd"/>
	</g>
</svg>
