<svg viewBox="0 0 24 24" xmlns="http://www.w3.org/2000/svg" xmlns:xlink="http://www.w3.org/1999/xlink">
	<defs>
		<clipPath id="clip463_141072">
			<rect id="color-icon-file-upload" width="24.000000" height="24.000000" fill="white" fill-opacity="0"/>
		</clipPath>
	</defs>
	<g clip-path="url(#clip463_141072)">
		<path id="矢量 336" d="M6 3.5L18 3.5C19.65 3.5 21 4.84 21 6.5L21 8L6 8L6 3.5Z" fill="var(--aui-second-color,  rgba(0,103,209,0.7))" fill-opacity="1.000000" fill-rule="evenodd"/>
		<path id="减去顶层" d="M3.86963 2L5.9165 2C6.44263 2 6.94653 2.20532 7.31445 2.5697L10.9465 6.16711C11.3145 6.53149 11.8184 6.73682 12.3445 6.73682L20.0667 6.73682C21.6868 6.73682 23 8.00928 23 9.57898L23 11.4993C21.6316 9.67798 19.4534 8.5 17 8.5C12.8579 8.5 9.5 11.8579 9.5 16C9.5 17.4706 9.92334 18.8423 10.6545 20L3.93335 20C2.31323 20 1 18.7275 1 17.1578L1 4.78027C1 3.24475 2.28467 2 3.86963 2Z" clip-rule="evenodd" fill="var(--aui-first-color,  rgba(0,103,209,1))" fill-opacity="1.000000" fill-rule="evenodd"/>
		<path id="减去顶层" d="M17 10C13.6863 10 11 12.6863 11 16C11 19.3137 13.6863 22 17 22C20.3137 22 23 19.3137 23 16C23 12.6863 20.3137 10 17 10ZM17.75 15.0607L18.9697 16.2803C19.2666 16.5773 19.7334 16.5773 20.0303 16.2803C20.3274 15.9834 20.3274 15.5166 20.0303 15.2197L17.5303 12.7197C17.3838 12.5732 17.207 12.5 17 12.5C16.8965 12.5 16.8005 12.5183 16.7122 12.5549C16.6238 12.5916 16.543 12.6465 16.4697 12.7197L13.9697 15.2197C13.6726 15.5166 13.6726 15.9834 13.9697 16.2803C14.2666 16.5773 14.7334 16.5773 15.0303 16.2803L16.25 15.0607L16.25 18.75C16.25 19.17 16.5801 19.5 17 19.5C17.4199 19.5 17.75 19.17 17.75 18.75L17.75 15.0607Z" clip-rule="evenodd" fill="var(--aui-first-color,  rgba(0,103,209,1))" fill-opacity="1.000000" fill-rule="evenodd"/>
		<path id="合并" d="M18.9697 16.2803L17.75 15.0607L17.75 18.75C17.75 19.17 17.4202 19.5 17 19.5C16.5801 19.5 16.25 19.17 16.25 18.75L16.25 15.0607L15.0305 16.2803C14.7334 16.5773 14.2668 16.5773 13.9697 16.2803C13.6729 15.9834 13.6729 15.5166 13.9697 15.2197L16.4697 12.7197C16.6162 12.5732 16.793 12.5 17 12.5C17.2073 12.5 17.384 12.5732 17.5305 12.7197L20.0305 15.2197C20.3274 15.5166 20.3274 15.9834 20.0305 16.2803C19.7334 16.5773 19.2668 16.5773 18.9697 16.2803Z" clip-rule="evenodd" fill="var(--aui-second-color,  rgba(0,103,209,0.7))" fill-opacity="0.5" fill-rule="evenodd"/>
	</g>
</svg>
