<svg viewBox="0 0 24 24" xmlns="http://www.w3.org/2000/svg" xmlns:xlink="http://www.w3.org/1999/xlink">
	<defs>
		<clipPath id="clip377_46747">
			<rect id="color-icon-fuel-cost" width="24.000000" height="24.000000" fill="white" fill-opacity="0"/>
		</clipPath>
	</defs>
	<g clip-path="url(#clip377_46747)">
		<path id="path5 (边框)" d="M21.5 5.4L18.36 2.22C18.32 2.19 18.29 2.16 18.25 2.13C18.2 2.1 18.15 2.07 18.1 2.05C18.06 2.03 18.02 2.02 17.97 2.01C17.92 2 17.87 2 17.82 2C17.77 2 17.72 2 17.67 2.01C17.63 2.02 17.58 2.03 17.54 2.05C17.49 2.07 17.44 2.1 17.4 2.13C17.36 2.16 17.32 2.19 17.28 2.22L17.21 2.31C17.17 2.37 17.13 2.44 17.11 2.52C17.08 2.61 17.06 2.7 17.05 2.8C17.05 2.88 17.06 2.96 17.07 3.03C17.1 3.1 17.15 3.24 17.18 3.3C17.21 3.34 17.25 3.39 17.28 3.42L19.26 5.42L18.67 5.42C18.61 5.42 18.56 5.43 18.51 5.44C18.44 5.45 18.38 5.48 18.32 5.51C18.29 5.53 18.26 5.55 18.24 5.57C18.18 5.61 18.13 5.66 18.09 5.72C18.06 5.76 18.03 5.8 18.01 5.84C17.98 5.88 17.96 5.93 17.95 5.98C17.92 6.05 17.9 6.12 17.9 6.19C17.89 6.22 17.89 6.25 17.89 6.29L17.9 6.4C17.92 6.5 17.95 6.59 17.99 6.66C18.04 6.75 18.1 6.83 18.18 6.89C18.25 6.96 18.33 7 18.41 7.03C18.49 7.06 18.58 7.08 18.67 7.08L20.43 7.09L20.43 14.45C20.43 14.51 20.43 14.56 20.42 14.61C20.41 14.67 20.39 14.73 20.37 14.78C20.33 14.87 20.25 15 20.18 15.06C20.11 15.12 19.97 15.23 19.89 15.26C19.85 15.28 19.82 15.29 19.78 15.3C19.7 15.33 19.61 15.34 19.52 15.34C19.43 15.34 19.34 15.33 19.25 15.3C19.22 15.29 19.18 15.28 19.15 15.26C19.07 15.23 19 15.18 18.93 15.13C18.86 15.06 18.73 14.92 18.69 14.84C18.67 14.78 18.63 14.67 18.62 14.61C18.61 14.56 18.6 14.51 18.6 14.45L18.6 10.1C18.6 9.96 18.59 9.82 18.56 9.68C18.53 9.54 18.49 9.4 18.43 9.26C18.39 9.17 18.35 9.08 18.3 9C18.21 8.85 18.11 8.71 17.99 8.59C17.91 8.51 17.83 8.44 17.75 8.38C17.62 8.29 17.48 8.21 17.33 8.15C17.23 8.1 17.13 8.07 17.03 8.04C16.87 8.01 16.71 7.99 16.55 7.99L15.28 7.99C15.22 7.99 15.17 7.99 15.12 8C15.07 8.01 15.03 8.03 14.98 8.05C14.93 8.07 14.89 8.09 14.84 8.12C14.81 8.15 14.77 8.18 14.74 8.21C14.7 8.26 14.66 8.3 14.63 8.35C14.6 8.39 14.58 8.43 14.56 8.48C14.54 8.53 14.52 8.59 14.51 8.64C14.5 8.7 14.5 8.76 14.5 8.82C14.5 8.87 14.5 8.93 14.51 8.99C14.52 9.04 14.54 9.1 14.56 9.15C14.58 9.2 14.6 9.24 14.63 9.28C14.66 9.33 14.7 9.37 14.74 9.42C14.77 9.45 14.81 9.48 14.84 9.51C14.89 9.54 14.93 9.56 14.98 9.58C15.03 9.6 15.07 9.62 15.12 9.63C15.17 9.64 15.22 9.64 15.28 9.64L16.55 9.64C16.64 9.64 16.72 9.66 16.79 9.7C16.83 9.73 16.87 9.76 16.91 9.79C16.97 9.85 17 9.91 17.02 9.98C17.03 10.02 17.04 10.06 17.04 10.1L17.04 14.45C17.04 14.63 17.06 14.79 17.09 14.96C17.12 15.13 17.17 15.29 17.24 15.46C17.29 15.57 17.34 15.67 17.4 15.77C17.5 15.95 17.63 16.12 17.78 16.27C17.87 16.36 17.97 16.44 18.07 16.51C18.22 16.63 18.39 16.72 18.57 16.8C18.69 16.85 18.81 16.89 18.93 16.92C19.12 16.97 19.32 17 19.52 17C19.72 17 19.91 16.97 20.1 16.92C20.23 16.89 20.35 16.85 20.47 16.8C20.65 16.72 20.82 16.63 20.97 16.51C21.07 16.44 21.17 16.36 21.26 16.27C21.4 16.12 21.53 15.95 21.64 15.77C21.7 15.67 21.75 15.57 21.79 15.46C21.86 15.29 21.91 15.13 21.95 14.96C21.98 14.79 22 14.63 22 14.45L22 6.59C21.99 6.51 21.98 6.42 21.97 6.34C21.95 6.21 21.91 6.08 21.86 5.95C21.79 5.77 21.7 5.62 21.59 5.49C21.56 5.46 21.53 5.43 21.5 5.4Z" fill="var(--aui-second-color,  rgba(0,103,209,0.7))" fill-opacity="1.000000" fill-rule="evenodd"/>
		<path id="合并" d="M6 2L13 2C14.6567 2 16 3.24944 16 4.7907L16 20L16.2104 20C16.6526 20 17 20.44 17 21C17 21.56 16.6526 22 16.2104 22L2.78955 22C2.34741 22 2 21.56 2 21C2 20.44 2.34741 20 2.78955 20L3 20L3 4.7907C3 3.24944 4.34326 2 6 2ZM6.5 4L12.5 4C13.0522 4 13.5 4.44772 13.5 5L13.5 8C13.5 8.55228 13.0522 9 12.5 9L6.5 9C5.94775 9 5.5 8.55228 5.5 8L5.5 5C5.5 4.44772 5.94775 4 6.5 4ZM10.3789 11.6986L10.1594 13.8806L11.9661 14.0925C12.04 14.1012 12.1077 14.1216 12.1694 14.1539C12.2449 14.1934 12.3113 14.2507 12.3682 14.3257C12.4717 14.4619 12.5142 14.6167 12.4958 14.79C12.4897 14.8477 12.4763 14.9034 12.4556 14.9571C12.4351 15.0109 12.4077 15.0607 12.374 15.1066L9.69214 18.7544C9.59082 18.8923 9.45776 18.9723 9.29346 18.9943C9.12915 19.0164 8.98145 18.974 8.85059 18.8673C8.76831 18.8003 8.70679 18.7165 8.66602 18.6158C8.625 18.5151 8.61011 18.4103 8.62109 18.3014L8.84058 16.1196L7.03418 15.9083C6.86938 15.889 6.73535 15.8113 6.63184 15.6751C6.52832 15.539 6.48584 15.3842 6.50415 15.2109C6.51025 15.1533 6.52368 15.0975 6.54419 15.0437C6.56494 14.99 6.59229 14.9401 6.62598 14.8942L9.30786 11.2456C9.40918 11.1077 9.54199 11.0277 9.7063 11.0057C9.87085 10.9836 10.0183 11.0259 10.1494 11.1326C10.2317 11.1996 10.2932 11.2835 10.334 11.3842C10.375 11.4849 10.3899 11.5897 10.3789 11.6986Z" clip-rule="evenodd" fill="var(--aui-first-color,  rgba(0,103,209,1))" fill-opacity="1.000000" fill-rule="evenodd"/>
		<path id="path9 (边框)" d="M10.15 13.88L10.37 11.69C10.38 11.58 10.37 11.48 10.33 11.38C10.29 11.28 10.23 11.19 10.14 11.13C10.01 11.02 9.87 10.98 9.7 11C9.54 11.02 9.4 11.1 9.3 11.24L6.62 14.89C6.59 14.94 6.56 14.99 6.54 15.04C6.52 15.09 6.51 15.15 6.5 15.21C6.48 15.38 6.52 15.53 6.63 15.67C6.73 15.81 6.86 15.88 7.03 15.9L8.84 16.11L8.62 18.3C8.61 18.41 8.62 18.51 8.66 18.61C8.7 18.71 8.76 18.8 8.85 18.86C8.98 18.97 9.12 19.01 9.29 18.99C9.45 18.97 9.59 18.89 9.69 18.75L12.37 15.1C12.4 15.06 12.43 15.01 12.45 14.95C12.47 14.9 12.48 14.84 12.49 14.79C12.51 14.61 12.47 14.46 12.36 14.32C12.26 14.18 12.13 14.11 11.96 14.09L10.15 13.88Z" fill="var(--aui-second-color,  rgba(0,103,209,0.7))"  fill-opacity="0.5" fill-rule="evenodd"/>
	</g>
</svg>
