<svg viewBox="0 0 24 24" xmlns="http://www.w3.org/2000/svg" xmlns:xlink="http://www.w3.org/1999/xlink">
	<defs>
		<clipPath id="clip377_46642">
			<rect id="color-icon-gift-cost" width="24.000000" height="24.000000" fill="white" fill-opacity="0"/>
		</clipPath>
	</defs>
	<g clip-path="url(#clip377_46642)">
		<path id="path5 (边框)" d="M18.54 3.52C18.51 3.48 18.48 3.44 18.45 3.4C18.38 3.31 18.31 3.22 18.23 3.14C18 2.91 17.73 2.72 17.42 2.57C17.38 2.55 17.34 2.53 17.3 2.51C16.94 2.35 16.55 2.25 16.14 2.22C15.97 2.21 15.8 2.2 15.63 2.21C15.34 2.22 15.06 2.26 14.77 2.34C14.49 2.41 14.23 2.51 13.98 2.63C13.8 2.72 13.64 2.81 13.48 2.92C13.08 3.2 12.75 3.49 12.49 3.8C12.31 3.99 12.15 4.22 12 4.47C11.84 4.22 11.68 3.99 11.5 3.8C11.24 3.49 10.91 3.2 10.51 2.92C10.35 2.81 10.19 2.72 10.01 2.63C9.76 2.51 9.5 2.41 9.22 2.34C8.93 2.26 8.65 2.22 8.36 2.21C8.19 2.2 8.02 2.21 7.85 2.22C7.44 2.25 7.05 2.35 6.69 2.51C6.65 2.53 6.61 2.55 6.57 2.57C6.26 2.72 5.99 2.91 5.76 3.14C5.68 3.22 5.61 3.31 5.54 3.4C5.51 3.44 5.48 3.48 5.45 3.52C5.32 3.71 5.22 3.93 5.14 4.15C5.06 4.4 5 4.71 5 4.98C4.99 5.04 4.99 5.1 5 5.16C5 5.38 5.03 5.6 5.09 5.81C5.12 5.94 5.16 6.07 5.21 6.19C5.26 6.34 5.33 6.48 5.41 6.62C5.54 6.86 5.68 7.06 5.83 7.22C5.97 7.37 6.16 7.53 6.4 7.7C6.73 7.94 7.13 8.1 7.6 8.19C7.66 8.2 7.72 8.21 7.79 8.2C7.85 8.2 7.91 8.2 7.97 8.19C8.03 8.17 8.08 8.16 8.14 8.14C8.19 8.11 8.25 8.08 8.3 8.05C8.35 8.02 8.4 7.98 8.44 7.94C8.48 7.9 8.52 7.86 8.55 7.81C8.58 7.76 8.61 7.71 8.64 7.66C8.66 7.6 8.68 7.54 8.69 7.48C8.7 7.42 8.71 7.36 8.71 7.3C8.71 7.24 8.7 7.19 8.69 7.13C8.68 7.07 8.66 7.02 8.64 6.97C8.61 6.91 8.58 6.86 8.55 6.82C8.52 6.77 8.48 6.72 8.43 6.68C8.39 6.64 8.35 6.61 8.3 6.57C8.25 6.54 8.19 6.51 8.14 6.49C8.08 6.47 8.02 6.45 7.95 6.44C7.77 6.4 7.63 6.35 7.52 6.27C7.38 6.17 7.28 6.09 7.23 6.03C7.17 5.97 7.12 5.89 7.05 5.77C6.96 5.62 6.9 5.45 6.88 5.28C6.86 5.2 6.86 5.12 6.86 5.03C6.87 4.8 6.93 4.61 7.04 4.45C7.14 4.33 7.27 4.23 7.43 4.15C7.61 4.06 7.81 4.01 8.03 4C8.09 3.99 8.15 3.99 8.21 3.99C8.39 3.99 8.57 4.01 8.74 4.06C8.91 4.1 9.06 4.16 9.21 4.24C9.28 4.28 9.35 4.32 9.41 4.37C9.69 4.56 9.91 4.75 10.07 4.94C10.25 5.15 10.42 5.41 10.59 5.75C10.74 6.04 10.92 6.42 11.15 6.9C11.19 6.98 11.24 7.06 11.31 7.13C11.36 7.19 11.43 7.25 11.51 7.29C11.58 7.34 11.66 7.37 11.74 7.39C11.83 7.41 11.91 7.43 12.01 7.42C12.1 7.42 12.19 7.41 12.27 7.39C12.35 7.36 12.43 7.33 12.5 7.28C12.58 7.24 12.64 7.18 12.7 7.12C12.77 7.05 12.82 6.97 12.86 6.88C13.01 6.53 13.19 6.16 13.4 5.75C13.57 5.41 13.74 5.15 13.92 4.94C14.08 4.75 14.3 4.56 14.58 4.37C14.64 4.32 14.71 4.28 14.78 4.24C14.93 4.16 15.08 4.1 15.25 4.06C15.42 4.01 15.6 3.99 15.78 3.99C15.84 3.99 15.9 3.99 15.96 4C16.18 4.01 16.38 4.06 16.56 4.15C16.72 4.23 16.85 4.33 16.94 4.45C17.06 4.6 17.12 4.8 17.13 5.03C17.13 5.12 17.13 5.2 17.11 5.28C17.09 5.45 17.03 5.62 16.94 5.77C16.87 5.89 16.82 5.97 16.76 6.03C16.71 6.09 16.61 6.17 16.47 6.27C16.36 6.35 16.22 6.4 16.04 6.44C15.97 6.45 15.91 6.47 15.85 6.49C15.8 6.51 15.74 6.54 15.69 6.57C15.64 6.61 15.6 6.64 15.56 6.68C15.51 6.72 15.47 6.77 15.44 6.82C15.41 6.86 15.38 6.91 15.35 6.97C15.33 7.02 15.31 7.07 15.3 7.13C15.29 7.19 15.28 7.24 15.28 7.3C15.28 7.36 15.29 7.42 15.3 7.48C15.31 7.54 15.33 7.6 15.35 7.66C15.38 7.71 15.41 7.76 15.44 7.81C15.47 7.86 15.51 7.9 15.55 7.94C15.59 7.98 15.64 8.02 15.69 8.05C15.74 8.08 15.8 8.11 15.85 8.14C15.91 8.16 15.96 8.17 16.02 8.19C16.08 8.2 16.14 8.2 16.2 8.2C16.27 8.21 16.33 8.2 16.39 8.19C16.86 8.1 17.26 7.94 17.59 7.7C17.83 7.53 18.02 7.37 18.16 7.22C18.31 7.06 18.45 6.86 18.58 6.62C18.66 6.48 18.73 6.34 18.78 6.19C18.83 6.07 18.87 5.94 18.9 5.81C18.96 5.6 18.99 5.38 18.99 5.16C19 5.1 19 5.04 18.99 4.98C18.99 4.71 18.94 4.45 18.87 4.21C18.79 3.98 18.67 3.71 18.54 3.52Z" fill="var(--aui-second-color,  rgba(0,103,209,0.7))"  fill-opacity="0.5" fill-rule="evenodd"/>
		<path id="减去顶层" d="M11.1667 15.9601L3.66675 15.9601L3.66675 19.8984C3.66675 20.0408 3.68262 20.1799 3.7146 20.3157C3.7395 20.422 3.77441 20.5263 3.81885 20.6285C3.86499 20.7345 3.91992 20.8348 3.98413 20.9296C4.05005 21.0219 4.15259 21.1487 4.23633 21.23C4.34033 21.3312 4.45361 21.4193 4.57568 21.4945C4.66699 21.5505 4.76294 21.5993 4.86426 21.6409C4.98511 21.6906 5.10889 21.7281 5.23535 21.7535C5.36768 21.7801 5.50293 21.7934 5.64136 21.7934L11.1667 21.7934L11.1667 15.9601ZM12.8335 21.7934L18.3589 21.7934C18.4971 21.7934 18.6323 21.7802 18.7646 21.7536C18.8914 21.7281 19.0149 21.6906 19.136 21.6409C19.2371 21.5993 19.3333 21.5505 19.4243 21.4945C19.5466 21.4193 19.6597 21.3312 19.7639 21.23C19.8474 21.1487 19.9224 21.062 19.9883 20.9695C20.0645 20.8632 20.1287 20.7496 20.1814 20.6286C20.2258 20.5263 20.2605 20.422 20.2856 20.3157C20.3176 20.1799 20.3335 20.0408 20.3335 19.8984L20.3335 15.9601L13.1016 15.9601L12.8335 15.9601L12.8335 21.7934Z" clip-rule="evenodd" fill="var(--aui-second-color,  rgba(0,103,209,0.7))" fill-opacity="1.000000" fill-rule="evenodd"/>
		<path id="减去顶层" d="M11.1667 7.21002L4.05566 7.21002C3.91187 7.21002 3.74829 7.22778 3.6106 7.25439C3.58691 7.25922 3.56348 7.2644 3.54028 7.26996C3.44067 7.29376 3.34277 7.32465 3.24683 7.36261C3.14136 7.40424 2.9978 7.47943 2.90308 7.53546C2.86182 7.56122 2.82153 7.58844 2.78223 7.617L2.78223 7.617L2.78223 7.61707C2.71631 7.66522 2.65332 7.71741 2.59302 7.77362C2.50586 7.85486 2.39893 7.98187 2.33032 8.07422C2.3064 8.10815 2.28369 8.14282 2.26221 8.17822L2.26221 8.17822C2.22363 8.24158 2.18921 8.30725 2.1582 8.37524C2.11206 8.47754 2.0708 8.60315 2.04468 8.70953C2.01489 8.83862 2 8.97064 2 9.10565L2 12.8144C2 12.9568 2.0166 13.0959 2.0498 13.2318C2.07568 13.3381 2.11206 13.4425 2.1582 13.5448C2.21313 13.6659 2.28003 13.7796 2.35938 13.886C2.42798 13.9783 2.50586 14.0652 2.59302 14.1464C2.70142 14.2476 2.81909 14.3358 2.94653 14.411C3.04126 14.467 3.14136 14.5158 3.24683 14.5574C3.37256 14.6072 3.50146 14.6447 3.6333 14.6702C3.77075 14.6967 3.91162 14.71 4.05566 14.71L11.1667 14.71L11.1667 7.21002L11.1667 7.21002ZM12.8333 14.71L19.9443 14.71C20.0884 14.71 20.2292 14.6967 20.3667 14.6702C20.4985 14.6447 20.6274 14.6072 20.7532 14.5574C20.8586 14.5158 20.9587 14.467 21.0535 14.411C21.1809 14.3358 21.2986 14.2476 21.407 14.1464C21.4939 14.0652 21.572 13.9784 21.6406 13.886C21.7197 13.7797 21.7869 13.6659 21.8416 13.5448C21.8879 13.4425 21.9243 13.3381 21.9502 13.2318C21.9834 13.0959 22 12.9568 22 12.8144L22 9.10565C22 8.97064 21.98 8.81732 21.9502 8.68823C21.9243 8.58191 21.8879 8.47754 21.8416 8.37524C21.7869 8.25415 21.7197 8.14038 21.6406 8.034C21.572 7.94165 21.4939 7.85486 21.407 7.77362C21.2986 7.67242 21.1809 7.58423 21.0535 7.50903C20.9587 7.45306 20.8586 7.40424 20.7532 7.36261C20.6274 7.31287 20.4985 7.27533 20.3667 7.24988C20.2292 7.22333 20.0884 7.21002 19.9443 7.21002L12.8333 7.21002L12.8333 14.71Z" clip-rule="evenodd" fill="var(--aui-first-color,  rgba(0,103,209,1))" fill-opacity="1.000000" fill-rule="evenodd"/>
	</g>
</svg>
