<svg viewBox="0 0 24 24" xmlns="http://www.w3.org/2000/svg" xmlns:xlink="http://www.w3.org/1999/xlink">
	<defs>
		<clipPath id="clip521_151981">
			<rect id="color-icon-home-page" width="24.000000" height="24.000000" fill="white" fill-opacity="0"/>
		</clipPath>
	</defs>
	<g clip-path="url(#clip521_151981)">
		<rect id="矩形 1840" x="8.000000" y="16.500000" rx="0.500000" width="8.000000" height="1.500000" fill="var(--aui-second-color,  rgba(0,103,209,0.7))" fill-opacity="1.000000" fill-opacity="1.000000"/>
		<path id="矢量 356" d="M1.51 9.43L10.28 1.88C10.4 1.77 10.53 1.68 10.67 1.6C10.81 1.52 10.95 1.46 11.09 1.4C11.23 1.35 11.37 1.32 11.51 1.29C11.67 1.26 11.83 1.25 12 1.25C12.16 1.25 12.32 1.26 12.48 1.29C12.62 1.32 12.76 1.35 12.9 1.4C13.04 1.46 13.18 1.52 13.32 1.6C13.46 1.68 13.59 1.77 13.71 1.88L22.48 9.43C22.8 9.7 22.84 10.17 22.56 10.48C22.29 10.8 21.82 10.84 21.51 10.56L20.75 9.91L20.75 19C20.75 19.2 20.72 19.39 20.68 19.58C20.65 19.75 20.6 19.91 20.53 20.07C20.46 20.22 20.38 20.37 20.29 20.51C20.19 20.66 20.07 20.81 19.94 20.94C19.81 21.07 19.66 21.19 19.51 21.29C19.37 21.38 19.22 21.46 19.07 21.53C18.91 21.6 18.75 21.65 18.58 21.68C18.39 21.72 18.2 21.75 18 21.75L6 21.75C5.79 21.75 5.6 21.72 5.41 21.68C5.24 21.65 5.08 21.6 4.92 21.53C4.77 21.46 4.62 21.38 4.48 21.29C4.33 21.19 4.18 21.07 4.05 20.94C3.92 20.81 3.8 20.66 3.7 20.51C3.61 20.37 3.53 20.22 3.46 20.07C3.39 19.91 3.34 19.75 3.31 19.58C3.27 19.39 3.25 19.2 3.25 19L3.25 9.91L2.48 10.56C2.17 10.84 1.7 10.8 1.43 10.48C1.15 10.17 1.19 9.7 1.51 9.43ZM4.75 8.62L4.75 19C4.75 19.09 4.76 19.19 4.78 19.29C4.79 19.35 4.82 19.42 4.84 19.48C4.87 19.55 4.91 19.61 4.94 19.67C4.99 19.75 5.05 19.82 5.11 19.88C5.17 19.94 5.24 20 5.32 20.05C5.38 20.08 5.44 20.12 5.51 20.15C5.57 20.17 5.64 20.2 5.7 20.21C5.8 20.23 5.9 20.25 6 20.25L18 20.25C18.09 20.25 18.19 20.23 18.29 20.21C18.35 20.2 18.42 20.17 18.48 20.15C18.55 20.12 18.61 20.08 18.67 20.05C18.75 20 18.82 19.94 18.88 19.88C18.94 19.82 19 19.75 19.05 19.67C19.08 19.61 19.12 19.55 19.15 19.48C19.17 19.42 19.2 19.35 19.21 19.29C19.23 19.19 19.25 19.09 19.25 19L19.25 8.62L12.73 3.02C12.63 2.93 12.52 2.86 12.41 2.82C12.28 2.77 12.14 2.75 12 2.75C11.85 2.75 11.71 2.77 11.59 2.82C11.47 2.86 11.36 2.93 11.26 3.02L4.75 8.62Z" fill="var(--aui-first-color,  rgba(0,103,209,1))" fill-opacity="1.000000" fill-rule="evenodd"/>
	</g>
</svg>
