<svg viewBox="0 0 24 24" xmlns="http://www.w3.org/2000/svg" xmlns:xlink="http://www.w3.org/1999/xlink">
	<defs>
		<clipPath id="clip379_46346">
			<rect id="color-icon-housing-subsidy" width="24.000000" height="24.000000" fill="white" fill-opacity="0"/>
		</clipPath>
	</defs>
	<g clip-path="url(#clip379_46346)">
		<path id="减去顶层" d="M1 9.31009C1 9.96725 1.65674 10.5 2.46655 10.5L3.5 10.5L3.5 19.9C3.5 21.3359 4.51465 22.5 5.7666 22.5L18.2334 22.5C19.4854 22.5 20.5 21.3359 20.5 19.9L20.5 10.5L21.5332 10.5C21.9568 10.5 22.3599 10.3514 22.6384 10.0925C23.1709 9.59738 23.1079 8.8457 22.4978 8.4136L13.2859 1.8912C12.5491 1.3696 11.4509 1.3696 10.7141 1.8912L1.5022 8.4136C1.18311 8.63956 1 8.96643 1 9.31009ZM13.8691 8.37839C14.0742 8.0043 14.5081 7.88739 14.8403 8.11908C15.1716 8.34973 15.2747 8.84177 15.0703 9.21588L13.1191 11.7198L15.2939 11.7198C15.6836 11.7198 16 12.0769 16 12.5169C16 12.9569 15.6836 13.314 15.2939 13.314L12.7061 13.314L12.7058 14.8322L15.2942 14.8322C15.6838 14.8322 16 15.1866 16 15.6266C16 16.0667 15.6838 16.4211 15.2942 16.4211L12.7058 16.4211L12.7058 18.2029C12.7058 18.6429 12.3896 19 12 19C11.6104 19 11.2942 18.6429 11.2942 18.2029L11.2942 16.4211L8.70581 16.4211C8.31616 16.4211 8 16.0667 8 15.6266C8 15.1866 8.31616 14.8322 8.70581 14.8322L11.2942 14.8322L11.2939 13.314L8.70605 13.314C8.31641 13.314 8 12.9569 8 12.5169C8 12.0769 8.31641 11.7198 8.70605 11.7198L10.8809 11.7198L8.92969 9.21588C8.72534 8.84177 8.82837 8.34973 9.15967 8.11908C9.49097 7.88739 9.92651 8.0043 10.1309 8.37839L12 10.7346L13.8691 8.37839Z" clip-rule="evenodd" fill="var(--aui-first-color,  rgba(0,103,209,1))" fill-opacity="1.000000" fill-rule="evenodd"/>
		<path id="形状结合-path" d="M14.84 8.11C14.5 7.88 14.07 8 13.86 8.37L12 10.73L10.13 8.37C9.92 8 9.49 7.88 9.15 8.11C8.82 8.34 8.72 8.84 8.92 9.21L10.88 11.71L8.7 11.71C8.31 11.71 8 12.07 8 12.51C8 12.95 8.31 13.31 8.7 13.31L11.29 13.31L11.29 14.83L8.7 14.83C8.31 14.83 8 15.18 8 15.62C8 16.06 8.31 16.42 8.7 16.42L11.29 16.42L11.29 18.2C11.29 18.64 11.61 19 12 19C12.38 19 12.7 18.64 12.7 18.2L12.7 16.42L15.29 16.42C15.68 16.42 16 16.06 16 15.62C16 15.18 15.68 14.83 15.29 14.83L12.7 14.83L12.7 13.31L15.29 13.31C15.68 13.31 16 12.95 16 12.51C16 12.07 15.68 11.71 15.29 11.71L13.11 11.71L15.07 9.21C15.27 8.84 15.17 8.34 14.84 8.11Z" fill="var(--aui-second-color,  rgba(0,103,209,0.7))"  fill-opacity="0.5" fill-rule="evenodd"/>
	</g>
</svg>
