<svg viewBox="0 0 24 24" xmlns="http://www.w3.org/2000/svg" xmlns:xlink="http://www.w3.org/1999/xlink">
	<defs>
		<clipPath id="clip377_46737">
			<rect id="color-icon-incidental-expenses" width="24.000000" height="24.000000" fill="white" fill-opacity="0"/>
		</clipPath>
	</defs>
	<g clip-path="url(#clip377_46737)">
		<path id="减去顶层" d="M7.62134 22.2196C7.65332 22.3145 7.6897 22.408 7.73022 22.5L5.52783 22.5C5.26831 22.5 5.01465 22.4728 4.76709 22.4185C4.55811 22.3726 4.35327 22.3074 4.15259 22.2227C3.95166 22.1379 3.76147 22.0364 3.58228 21.9184C3.38501 21.7883 3.20093 21.6382 3.03027 21.4678C2.85938 21.2975 2.70898 21.1139 2.57861 20.9169C2.46021 20.7382 2.35864 20.5485 2.27344 20.3479C2.18872 20.1478 2.12329 19.9435 2.07739 19.7349C2.02295 19.4879 1.99561 19.2349 1.99561 18.976L1.99561 5.02403C1.99561 4.76508 2.02295 4.5121 2.07739 4.26509C2.12329 4.05649 2.18872 3.85216 2.27344 3.65208C2.3584 3.45146 2.46021 3.26178 2.57861 3.08307C2.70898 2.88614 2.85962 2.7025 3.03027 2.53217C3.20093 2.36183 3.38477 2.21164 3.58228 2.08157C3.76147 1.96355 3.95142 1.86211 4.15259 1.77725C4.35303 1.69263 4.55811 1.62738 4.76709 1.5815C5.01465 1.52718 5.26831 1.5 5.52783 1.5L13.5986 1.5L13.5986 4.92157C13.5986 5.15665 13.6245 5.38582 13.676 5.60909C13.7153 5.77965 13.7695 5.94675 13.8389 6.11041C13.9104 6.27904 13.9956 6.4388 14.0942 6.58968C14.2095 6.76575 14.3433 6.92973 14.4956 7.08165C14.6477 7.23355 14.812 7.36694 14.9885 7.48186C15.1399 7.58037 15.3 7.6653 15.469 7.73663C15.6331 7.80585 15.8005 7.86008 15.9714 7.89932C16.1953 7.9507 16.425 7.97638 16.6606 7.97638L21.0864 7.97638L21.0864 10.8458C20.9968 10.7696 20.9043 10.6978 20.8083 10.6305C20.7346 10.5788 20.6589 10.5296 20.5815 10.4832C20.4949 10.4314 20.4065 10.3831 20.3162 10.3386L20.3159 10.3384C20.1243 10.2439 19.9248 10.1658 19.7168 10.1042L19.7156 10.1039C18.5776 9.76617 17.4329 9.5701 16.2815 9.51562L16.2786 9.51549C16.1155 9.5078 15.9524 9.50296 15.7888 9.50095L15.6663 9.50006L15.6096 9.50008C14.9399 9.50603 14.2622 9.55898 13.5769 9.65892C12.8694 9.76212 12.1907 9.91002 11.5408 10.1026C11.3276 10.1654 11.1233 10.2454 10.9272 10.3427L10.926 10.3433C10.8403 10.3859 10.7563 10.4318 10.6738 10.481C10.6055 10.5218 10.5388 10.5647 10.4731 10.6097L10.4705 10.6116L10.47 10.6119C10.2581 10.7579 10.0613 10.9257 9.87939 11.1155C9.66479 11.3395 9.47485 11.5945 9.30908 11.8807C9.2478 11.9892 9.19189 12.1002 9.1416 12.2137L9.14136 12.2138L9.14136 12.2138L9.14136 12.2139L9.14136 12.2139C9.06079 12.3956 8.99438 12.5836 8.94214 12.7778L8.36816 14.893C8.27295 14.9905 8.18286 15.0933 8.09766 15.2015C7.95776 15.3789 7.8291 15.5769 7.71167 15.7954C7.68677 15.8424 7.66309 15.8898 7.64038 15.9378L7.64014 15.9379L7.64014 15.9379L7.64014 15.938C7.56738 16.0912 7.50464 16.2492 7.4519 16.412C7.39917 16.5747 7.35767 16.7395 7.3269 16.9062L7.32666 16.9063C7.31836 16.9523 7.31055 16.9985 7.30396 17.0448C7.29492 17.1047 7.2876 17.1647 7.28149 17.2249L7.28149 17.2253C7.26196 17.4215 7.25708 17.6191 7.26733 17.8182L7.44849 21.3143C7.46045 21.5383 7.49341 21.7565 7.54736 21.9688C7.56885 22.0534 7.59326 22.1369 7.62109 22.2193L7.62134 22.2196ZM21.0864 18.976C21.0864 19.2349 21.0593 19.4879 21.0049 19.7349C20.9587 19.9435 20.8936 20.1478 20.8086 20.3479C20.7236 20.5486 20.6218 20.7383 20.5034 20.917C20.3733 21.1139 20.2227 21.2975 20.052 21.4678C19.8813 21.6381 19.6973 21.7883 19.4998 21.9184C19.3208 22.0364 19.1306 22.1379 18.9294 22.2227C18.7849 22.2837 18.6382 22.3346 18.4893 22.3755C18.3669 22.2993 18.2703 22.1972 18.1995 22.0692L17.9304 21.5823L13.321 21.5823L13.052 22.0692C12.9785 22.2023 12.877 22.3074 12.7476 22.3844C12.6816 22.4237 12.613 22.453 12.5415 22.4722C12.4731 22.4907 12.4023 22.5 12.3289 22.5L10.7812 22.5C10.6924 22.5 10.6055 22.4914 10.5203 22.4741C10.4397 22.4574 10.355 22.4319 10.2776 22.3997C10.2014 22.3682 10.1294 22.3302 10.061 22.2858C9.98999 22.2394 9.9231 22.1861 9.86084 22.1258C9.79858 22.0654 9.74268 22.0003 9.6936 21.9303C9.64648 21.8633 9.60547 21.7919 9.57056 21.716C9.53491 21.6388 9.50684 21.5596 9.48633 21.4784C9.46411 21.3908 9.45068 21.3009 9.4458 21.2086L9.26465 17.7148C9.25806 17.5868 9.26416 17.4607 9.28247 17.3365C9.29785 17.2324 9.32178 17.1296 9.35474 17.0282C9.38843 16.9235 9.43066 16.8234 9.48096 16.7278C9.53247 16.6321 9.60059 16.5256 9.6687 16.4391C9.74048 16.3479 9.81934 16.2649 9.90479 16.19C9.97681 16.127 10.0535 16.0697 10.135 16.0183L10.8723 13.3016C10.9141 13.1461 10.9734 13.0008 11.0498 12.8657C11.123 12.7394 11.22 12.6073 11.3237 12.499C11.438 12.3796 11.5635 12.2793 11.6997 12.1979C11.8257 12.1227 11.9612 12.0637 12.106 12.0211C13.2432 11.6841 14.4875 11.5101 15.6274 11.5C15.6763 11.5 15.7249 11.5003 15.7737 11.5009C16.9001 11.5147 18.0251 11.6883 19.1479 12.0216C19.2927 12.0645 19.4282 12.1237 19.5544 12.1992C19.6899 12.2805 19.8145 12.3806 19.9285 12.4995C20.0339 12.6095 20.1233 12.729 20.1973 12.8579C20.2761 12.9955 20.3369 13.1438 20.3796 13.3028L21.0864 15.9078L21.0864 18.976ZM12.8362 13.6469L12.0105 16.0834L19.2832 16.0834L18.4573 13.6467C17.519 13.4378 16.5828 13.3334 15.6484 13.3334C14.7139 13.3334 13.7764 13.4379 12.8362 13.6469ZM11.8342 17.9166L13.9705 17.9166C14.3848 17.9166 14.7205 18.2524 14.7205 18.6666C14.7205 19.0808 14.3848 19.4166 13.9705 19.4166L11.8342 19.4166C11.4199 19.4166 11.0842 19.0808 11.0842 18.6666C11.0842 18.2524 11.4199 17.9166 11.8342 17.9166ZM19.425 17.9166L17.2888 17.9166C16.8745 17.9166 16.5388 18.2524 16.5388 18.6666C16.5388 19.0808 16.8745 19.4166 17.2888 19.4166L19.425 19.4166C19.8394 19.4166 20.175 19.0808 20.175 18.6666C20.175 18.2524 19.8394 17.9166 19.425 17.9166Z" clip-rule="evenodd" fill="var(--aui-second-color,  rgba(0,103,209,0.7))" fill-opacity="1.000000" fill-rule="evenodd"/>
		<path id="减去顶层" d="M15.7837 11.5009C16.9102 11.5147 18.0352 11.6883 19.158 12.0215C19.3027 12.0645 19.4382 12.1237 19.5645 12.1993C19.7 12.2805 19.8247 12.3806 19.9385 12.4995C20.0369 12.6021 20.1213 12.7129 20.1921 12.8318C20.1926 12.8328 20.1931 12.8337 20.1938 12.8347L20.1943 12.8355C20.1987 12.843 20.2031 12.8504 20.2073 12.8579C20.2861 12.9955 20.3469 13.1438 20.3896 13.3028L21.1267 16.0183C21.1982 16.0636 21.2661 16.1132 21.3303 16.1673L21.3306 16.1674C21.3394 16.1748 21.3481 16.1824 21.3567 16.19C21.4424 16.2649 21.521 16.348 21.593 16.4391C21.6648 16.5303 21.7273 16.6265 21.7808 16.7278C21.8311 16.8234 21.873 16.9236 21.907 17.0282C21.9412 17.1337 21.9658 17.2406 21.981 17.3488C21.9978 17.4688 22.0032 17.5905 21.9968 17.7139L21.8159 21.2087C21.811 21.3009 21.7976 21.3908 21.7754 21.4784C21.7546 21.5596 21.7266 21.6388 21.6912 21.7161C21.6562 21.7919 21.6152 21.8633 21.5681 21.9303C21.519 22.0003 21.4631 22.0655 21.4009 22.1258C21.3384 22.1862 21.2715 22.2395 21.2004 22.2859C21.1323 22.3303 21.0603 22.3682 20.9841 22.3998C20.9065 22.4319 20.8274 22.4563 20.7468 22.473C20.6599 22.491 20.571 22.5 20.4805 22.5L18.9329 22.5C18.783 22.5 18.6433 22.4615 18.5139 22.3844C18.4541 22.3487 18.4001 22.307 18.3523 22.2593L18.3518 22.259L18.3518 22.2589C18.2964 22.2037 18.249 22.1405 18.2097 22.0693L17.9404 21.5824L13.3311 21.5824L13.062 22.0693C12.9885 22.2023 12.887 22.3074 12.7576 22.3844C12.6907 22.4243 12.6211 22.4538 12.5488 22.4731L12.5486 22.4731L12.5486 22.4731L12.5486 22.4732C12.481 22.4911 12.4111 22.5 12.3389 22.5L10.7913 22.5C10.7043 22.5 10.6189 22.4917 10.5352 22.4751L10.5349 22.4751L10.5344 22.4749C10.5312 22.4743 10.5281 22.4737 10.5249 22.473C10.4441 22.4563 10.3652 22.4319 10.2876 22.3998C10.2114 22.3682 10.1394 22.3302 10.0713 22.2859C10 22.2395 9.93335 22.1862 9.87085 22.1258C9.80859 22.0655 9.75269 22.0004 9.70361 21.9304C9.65649 21.8634 9.61548 21.7919 9.58057 21.7161C9.54492 21.6389 9.51685 21.5597 9.49634 21.4785C9.47412 21.3909 9.46069 21.3009 9.45581 21.2087L9.27466 17.7148C9.26831 17.5868 9.27417 17.4607 9.29248 17.3365C9.30786 17.2324 9.33203 17.1297 9.36475 17.0282C9.39868 16.9236 9.44067 16.8234 9.49097 16.7278C9.54443 16.6265 9.60693 16.5303 9.67871 16.4391C9.75073 16.348 9.82935 16.2649 9.91479 16.19C9.98682 16.127 10.0635 16.0698 10.145 16.0183L10.8823 13.3016C10.9241 13.1461 10.9834 13.0008 11.0598 12.8657C11.0649 12.857 11.0698 12.8483 11.075 12.8397L11.075 12.8397C11.1467 12.7176 11.2332 12.604 11.3337 12.499C11.4482 12.3796 11.5735 12.2792 11.7097 12.1979C11.8359 12.1227 11.9712 12.0637 12.116 12.0211C13.2532 11.6841 14.4976 11.5101 15.6375 11.5C15.6863 11.5 15.7349 11.5003 15.7837 11.5009ZM12.8259 13.6469L12.0002 16.0834L19.2729 16.0834L18.447 13.6467C17.5088 13.4378 16.5728 13.3334 15.6384 13.3334C14.7036 13.3334 13.7661 13.4379 12.8259 13.6469ZM11.8401 17.9166L13.9766 17.9166C14.3909 17.9166 14.7266 18.2524 14.7266 18.6666C14.7266 19.0808 14.3909 19.4166 13.9766 19.4166L11.8401 19.4166C11.426 19.4166 11.0901 19.0808 11.0901 18.6666C11.0901 18.2524 11.426 17.9166 11.8401 17.9166ZM19.4314 17.9166L17.2949 17.9166C16.8809 17.9166 16.5449 18.2524 16.5449 18.6666C16.5449 19.0808 16.8809 19.4166 17.2949 19.4166L19.4314 19.4166C19.8455 19.4166 20.1814 19.0808 20.1814 18.6666C20.1814 18.2524 19.8455 17.9166 19.4314 17.9166Z" clip-rule="evenodd" fill="var(--aui-first-color,  rgba(0,103,209,1))" fill-opacity="1.000000" fill-rule="evenodd"/>
		<path id="path7" d="M15 1.5L20 6.5L16.66 6.5C15.74 6.5 15 5.75 15 4.83L15 1.5Z" fill="var(--aui-second-color,  rgba(0,103,209,0.7))"  fill-opacity="0.5" fill-rule="evenodd"/>
		<path id="path10 (边框)" d="M12 16.08L12.82 13.64C13.76 13.43 14.7 13.33 15.63 13.33C16.57 13.33 17.5 13.43 18.44 13.64L19.27 16.08L12 16.08Z" fill="var(--aui-second-color,  rgba(0,103,209,0.7))"  fill-opacity="0.5" fill-rule="evenodd"/>
	</g>
</svg>
