<svg viewBox="0 0 24 24" xmlns="http://www.w3.org/2000/svg" xmlns:xlink="http://www.w3.org/1999/xlink">
	<defs>
		<clipPath id="clip446_150250">
			<rect id="color-icon-landline-phone" width="24.000000" height="24.000000" fill="white" fill-opacity="0"/>
		</clipPath>
	</defs>
	<g clip-path="url(#clip446_150250)">
		<path id="减去顶层" d="M2.0625 4.29636L2.0625 4.29675L2.0625 4.29675C2.021 4.49286 2 4.69339 2 4.89835C2 4.98853 2.00415 5.07684 2.0127 5.16245C2.18066 7.09995 2.50635 8.72507 2.98975 10.0378C3.55469 12.0743 4.43457 13.868 5.62964 15.419C6.01074 15.9136 6.42383 16.3836 6.86914 16.8289C8.69922 18.6588 11.05 20.0476 13.9219 20.9953C15.2417 21.4869 16.8804 21.8176 18.8376 21.9873C18.9233 21.9958 19.0112 22 19.1016 22C19.3066 21.9999 19.5073 21.9791 19.7036 21.9374C19.8828 21.8994 20.0586 21.844 20.2305 21.7713C20.3992 21.6999 20.5583 21.6142 20.708 21.5144C20.8662 21.409 21.0139 21.2878 21.1509 21.1507C21.2878 21.0138 21.4087 20.8665 21.5142 20.7086C21.614 20.5586 21.6997 20.3991 21.7712 20.2301C21.8386 20.071 21.8911 19.9086 21.9287 19.7428C21.9761 19.5334 22 19.3187 22 19.0986L21.9963 16.7195C21.9961 16.5384 21.9792 16.3605 21.946 16.1856C21.9153 16.0235 21.8706 15.8641 21.8115 15.7073C21.7534 15.5523 21.6831 15.4044 21.6008 15.2635C21.5149 15.1169 21.4163 14.978 21.3042 14.8467C21.1924 14.7152 21.0706 14.5955 20.9392 14.4875C20.8135 14.384 20.6787 14.2912 20.5349 14.2092C20.387 14.1248 20.2339 14.0543 20.0757 13.9977C19.9111 13.9388 19.7407 13.895 19.5652 13.8664C18.9866 13.7721 18.531 13.6851 18.1982 13.6056C17.6865 13.4833 16.9006 13.2445 15.8411 12.8893C15.3318 12.7185 14.8523 12.6648 14.4028 12.7282C14.2039 12.7563 14.0139 12.8066 13.833 12.8791C13.7742 12.9027 13.7161 12.9286 13.6589 12.9569C13.5647 13.0037 13.4744 13.0562 13.3879 13.1145C13.2949 13.1772 13.2065 13.2466 13.1223 13.3228C12.9343 13.2001 12.7466 13.0653 12.5588 12.9183C11.9963 12.4774 11.5208 11.9981 11.1326 11.4802C10.9719 11.266 10.8318 11.052 10.7122 10.838C10.7747 10.7659 10.8325 10.6905 10.8855 10.612C10.9438 10.5255 10.9963 10.4352 11.043 10.341C11.0713 10.2839 11.0974 10.226 11.1208 10.167C11.1934 9.98599 11.2437 9.79608 11.2717 9.59729C11.3352 9.14777 11.2815 8.6683 11.1108 8.15887C10.7556 7.0993 10.5168 6.31357 10.3943 5.80173C10.3149 5.46915 10.228 5.01367 10.1338 4.43539C10.1045 4.25665 10.0598 4.08359 9.99927 3.91617C9.94336 3.76096 9.87378 3.61057 9.79077 3.46509C9.70874 3.32141 9.61597 3.18658 9.51245 3.06064C9.40454 2.92935 9.28467 2.80771 9.15332 2.69571C9.02197 2.58386 8.88306 2.48505 8.73657 2.39935C8.5957 2.31699 8.44775 2.24661 8.29272 2.18839C8.14185 2.13168 7.98828 2.08804 7.83228 2.05743C7.65137 2.02197 7.46704 2.00403 7.2793 2.0036L4.89819 2C4.69312 2.00009 4.49268 2.02094 4.29663 2.06256L4.29639 2.06259L4.2959 2.06274C4.1167 2.10077 3.94141 2.1561 3.76978 2.22873C3.60083 2.30023 3.44141 2.38599 3.2915 2.48596C3.13354 2.59122 2.98608 2.71225 2.84937 2.84906C2.71216 2.98608 2.59106 3.1337 2.4856 3.29184C2.38574 3.44165 2.30005 3.60092 2.22876 3.76965C2.15601 3.9415 2.10059 4.11707 2.0625 4.2963L2.0625 4.29636ZM3.53687 4.75815C3.51221 4.86993 3.5 4.98441 3.5 5.10156C3.5 5.15143 3.50244 5.19907 3.50708 5.2442C3.66284 7.04593 3.96167 8.53806 4.40381 9.72058C4.92358 11.6172 5.74438 13.2764 6.86597 14.6982C7.17871 15.0947 7.51489 15.4727 7.87451 15.8323C9.52075 17.4785 11.6523 18.7319 14.2698 19.5925C15.4539 20.0367 16.9492 20.3368 18.7559 20.4929C18.801 20.4977 18.8486 20.5 18.8984 20.5C19.1155 20.4999 19.3232 20.4579 19.522 20.3738C19.7136 20.2927 19.8831 20.1783 20.0308 20.0307C20.1785 19.8831 20.2927 19.7134 20.3738 19.5218C20.4578 19.3232 20.5 19.1151 20.5 18.8976L20.4966 16.5874C20.4961 16.3945 20.4622 16.2082 20.3945 16.0284C20.3289 15.8537 20.2356 15.6953 20.1143 15.5529C19.9929 15.4106 19.8513 15.2932 19.6892 15.2008C19.5225 15.1056 19.3438 15.0425 19.1536 15.0116C18.5623 14.9151 18.0908 14.8249 17.7388 14.7408C17.2065 14.6135 16.4089 14.3717 15.3455 14.0152C15.0317 13.91 14.7512 13.8749 14.5039 13.9098C14.2561 13.9448 14.0461 14.0464 13.8738 14.2149C13.7427 14.3429 13.6375 14.5078 13.5579 14.7098C13.5391 14.7576 13.521 14.8099 13.5037 14.8667C13.4348 14.8432 13.355 14.811 13.2642 14.7703C13.0588 14.6781 12.8354 14.5574 12.594 14.4081C12.3257 14.2422 12.0588 14.0555 11.7939 13.8478C11.1633 13.3536 10.6272 12.8122 10.1858 12.2234C9.75171 11.6445 9.43921 11.056 9.24854 10.4578C9.45044 10.3784 9.65723 10.2574 9.78516 10.1263C9.85352 10.0564 9.91064 9.98029 9.95703 9.89801C10.0251 9.77737 10.0693 9.64343 10.0901 9.49619C10.125 9.24881 10.0901 8.96826 9.98486 8.6546C9.62842 7.59119 9.38647 6.79333 9.25928 6.26114C9.17505 5.9093 9.08496 5.43777 8.98853 4.84656C8.95752 4.65616 8.89429 4.47757 8.79932 4.31073C8.70679 4.14868 8.58936 4.00705 8.44702 3.88577C8.37329 3.823 8.29541 3.7677 8.21313 3.71985C8.13647 3.67523 8.05591 3.63712 7.97168 3.60547C7.88916 3.57446 7.80518 3.55054 7.71997 3.53369C7.61938 3.51379 7.51685 3.50375 7.41235 3.50351L5.10156 3.5C4.98438 3.50006 4.87012 3.51233 4.7583 3.53683C4.66309 3.55774 4.56958 3.58752 4.47827 3.62619C4.38672 3.66492 4.30029 3.71121 4.21875 3.76511L4.21851 3.76529C4.12939 3.82422 4.04639 3.89218 3.96924 3.96924C3.89185 4.04657 3.82373 4.12994 3.76465 4.21933C3.71094 4.3006 3.66479 4.38684 3.62622 4.47809C3.5874 4.56949 3.55762 4.66284 3.53687 4.75815Z" clip-rule="evenodd" fill="var(--aui-first-color,  rgba(0,103,209,1))" fill-opacity="1.000000" fill-rule="evenodd"/>
		<path id="矢量 330" d="M3.5 5.1C3.5 4.98 3.51 4.86 3.53 4.75C3.55 4.66 3.58 4.56 3.62 4.47C3.66 4.38 3.71 4.3 3.76 4.21C3.82 4.12 3.89 4.04 3.96 3.96C4.04 3.89 4.12 3.82 4.21 3.76C4.3 3.71 4.38 3.66 4.47 3.62C4.56 3.58 4.66 3.55 4.75 3.53C4.87 3.51 4.98 3.5 5.1 3.5L7.41 3.5C7.51 3.5 7.61 3.51 7.71 3.53C7.8 3.55 7.88 3.57 7.97 3.6C8.05 3.63 8.13 3.67 8.21 3.71C8.29 3.76 8.37 3.82 8.44 3.88C8.58 4 8.7 4.14 8.79 4.31C8.89 4.47 8.95 4.65 8.98 4.84C9.08 5.43 9.17 5.9 9.25 6.26C9.38 6.79 9.62 7.59 9.98 8.65C10.09 8.96 10.12 9.24 10.09 9.49C10.06 9.64 10.02 9.77 9.95 9.89C9.91 9.98 9.85 10.05 9.78 10.12C9.65 10.25 9.45 10.37 9.24 10.45C9.43 11.05 9.75 11.64 10.18 12.22C10.62 12.81 11.16 13.35 11.79 13.84C12.05 14.05 12.32 14.24 12.59 14.4C12.83 14.55 13.05 14.67 13.26 14.77C13.35 14.81 13.43 14.84 13.5 14.86C13.52 14.8 13.53 14.75 13.55 14.7C13.63 14.5 13.74 14.34 13.87 14.21C14.04 14.04 14.25 13.94 14.5 13.9C14.75 13.87 15.03 13.91 15.34 14.01C16.4 14.37 17.2 14.61 17.73 14.74C18.09 14.82 18.56 14.91 19.15 15.01C19.34 15.04 19.52 15.1 19.68 15.2C19.85 15.29 19.99 15.41 20.11 15.55C20.23 15.69 20.32 15.85 20.39 16.02C20.46 16.2 20.49 16.39 20.49 16.58L20.5 18.89C20.5 19.11 20.45 19.32 20.37 19.52C20.29 19.71 20.17 19.88 20.03 20.03C19.88 20.17 19.71 20.29 19.52 20.37C19.32 20.45 19.11 20.49 18.89 20.5C18.84 20.5 18.8 20.49 18.75 20.49C16.94 20.33 15.45 20.03 14.26 19.59C11.65 18.73 9.52 17.47 7.87 15.83C7.51 15.47 7.17 15.09 6.86 14.69C5.74 13.27 4.92 11.61 4.4 9.72C3.96 8.53 3.66 7.04 3.5 5.24C3.5 5.19 3.5 5.15 3.5 5.1Z" fill="var(--aui-second-color,  rgba(0,103,209,0.7))" fill-opacity="1.000000" fill-rule="evenodd"/>
	</g>
</svg>
