<svg viewBox="0 0 24 24" xmlns="http://www.w3.org/2000/svg" xmlns:xlink="http://www.w3.org/1999/xlink">
	<defs>
		<clipPath id="clip377_46721">
			<rect id="color-icon-line-rental" width="24.000000" height="24.000000" fill="white" fill-opacity="0"/>
		</clipPath>
	</defs>
	<g clip-path="url(#clip377_46721)">
		<rect id="矩形 2" x="11.000000" y="15.500000" rx="1.000000" width="2.000000" height="5.000000" fill="var(--aui-second-color,  rgba(0,103,209,0.7))" fill-opacity="1.000000"/>
		<path id="减去顶层" d="M2 5.125L2 13.875C2 15.3248 3.19385 16.5 4.66675 16.5L19.3333 16.5C20.8062 16.5 22 15.3248 22 13.875L22 5.125C22 3.67525 20.8062 2.5 19.3333 2.5L4.66675 2.5C3.19385 2.5 2 3.67525 2 5.125ZM5.75 8.72359L9.06274 8.7368Q9.30469 8.7368 9.47559 8.84705C9.58936 8.92053 9.67969 9.03078 9.74609 9.17776L10.4761 10.7921L12.9172 6.15082C13.0334 5.92957 13.176 5.79271 13.345 5.74026C13.5137 5.68781 13.7087 5.71977 13.9299 5.83615Q14.0112 5.87885 14.0779 5.93787Q14.1448 5.99689 14.197 6.07225L16.4949 9.38246L18.25 9.38246C18.6699 9.38246 19 9.71246 19 10.1325C19 10.5525 18.6699 10.8825 18.25 10.8825L16.1025 10.8825C15.8411 10.8825 15.6357 10.775 15.4866 10.5602L13.6694 7.94275L11.0891 12.8491C11.009 13.0011 10.8909 13.1125 10.7344 13.1833C10.5066 13.2863 10.3098 13.3066 10.1445 13.2442C9.97925 13.1819 9.84497 13.0368 9.74194 12.809L8.57886 10.2368L5.75 10.2236C5.33008 10.2236 5 9.89359 5 9.47359C5 9.05359 5.33008 8.72359 5.75 8.72359Z" clip-rule="evenodd" fill="var(--aui-first-color,  rgba(0,103,209,1))" fill-opacity="1.000000" fill-rule="evenodd"/>
		<path id="矩形 2" d="M5 19.5L19 19.5C19.55 19.5 20 19.94 20 20.5C20 21.05 19.55 21.5 19 21.5L5 21.5C4.44 21.5 4 21.05 4 20.5C4 19.94 4.44 19.5 5 19.5Z" fill="var(--aui-first-color,  rgba(0,103,209,1))" fill-opacity="1.000000" fill-rule="evenodd"/>
	</g>
</svg>
