<svg viewBox="0 0 24 24" xmlns="http://www.w3.org/2000/svg" xmlns:xlink="http://www.w3.org/1999/xlink">
	<defs>
		<clipPath id="clip377_46685">
			<rect id="color-icon-living-subsidy" width="24.000000" height="24.000000" fill="white" fill-opacity="0"/>
		</clipPath>
	</defs>
	<g clip-path="url(#clip377_46685)">
		<path id="减去顶层" d="M2.46655 12.9091C1.65674 12.9091 1 12.2633 1 11.4668C1 11.0502 1.18311 10.654 1.5022 10.3801L10.7141 2.47418C11.4509 1.84192 12.5491 1.84192 13.2859 2.47418L22.4978 10.3801C23.1079 10.9039 23.1709 11.815 22.6384 12.4152C22.4119 12.6703 22.1033 12.837 21.7683 12.8905C20.4851 11.4253 18.6006 10.5 16.5 10.5C12.634 10.5 9.5 13.634 9.5 17.4999C9.5 19.2134 10.1157 20.7832 11.1379 22L6.5 22C5.39551 22 4.5 21.186 4.5 20.1818L4.5 12.9091L2.46655 12.9091Z" clip-rule="evenodd" fill="var(--tiny-second-color,  rgba(0,103,209,0.7))" fill-opacity="1.000000" fill-rule="evenodd"/>
		<path id="减去顶层" d="M11.0015 17.4999C11.0015 14.4624 13.4639 12 16.5015 12C19.5388 12 22.0012 14.4624 22.0012 17.4999C22.0012 20.5374 19.5388 22.9998 16.5015 22.9998C13.4639 22.9998 11.0015 20.5374 11.0015 17.4999ZM17.9019 14.008C18.0557 13.7529 18.3809 13.6732 18.6301 13.8312C18.8787 13.9884 18.9558 14.3239 18.8027 14.579L17.3394 16.2863L18.9705 16.2863C19.2627 16.2863 19.5 16.5297 19.5 16.8297C19.5 17.1297 19.2627 17.3732 18.9705 17.3732L17.0295 17.3732L17.0293 18.4083L18.9705 18.4083C19.2627 18.4083 19.5 18.65 19.5 18.95C19.5 19.25 19.2627 19.4917 18.9705 19.4917L17.0293 19.4917L17.0293 20.7065C17.0293 21.0065 16.7922 21.25 16.5 21.25C16.2078 21.25 15.9705 21.0065 15.9705 20.7065L15.9705 19.4917L14.0293 19.4917C13.7371 19.4917 13.5 19.25 13.5 18.95C13.5 18.65 13.7371 18.4083 14.0293 18.4083L15.9705 18.4083L15.9705 17.3732L14.0295 17.3732C13.7373 17.3732 13.5 17.1297 13.5 16.8297C13.5 16.5297 13.7373 16.2863 14.0295 16.2863L15.6606 16.2863L14.1973 14.579C14.0439 14.3239 14.1211 13.9884 14.3696 13.8312C14.6182 13.6732 14.9448 13.7529 15.0981 14.008L16.5 15.6145L17.9019 14.008Z" clip-rule="evenodd" fill="var(--tiny-first-color,  rgba(0,103,209,1))" fill-opacity="1.000000" fill-rule="evenodd"/>
	</g>
</svg>
