<svg viewBox="0 0 24 24" xmlns="http://www.w3.org/2000/svg" xmlns:xlink="http://www.w3.org/1999/xlink">
	<defs>
		<clipPath id="clip477_143062">
			<rect id="color-icon-living-subsidy" width="24.000000" height="24.000000" fill="white" fill-opacity="0"/>
		</clipPath>
	</defs>
	<g clip-path="url(#clip477_143062)">
		<path id="减去顶层" d="M2.4668 12.9091C1.65674 12.9091 1 12.2633 1 11.4668C1 11.0502 1.18311 10.654 1.50244 10.3801L10.7144 2.47418C11.4507 1.84195 12.5493 1.84195 13.2856 2.47418L22.4976 10.3801C23.1079 10.9039 23.1709 11.815 22.6382 12.4152C22.4121 12.6703 22.1035 12.837 21.7681 12.8905C20.4854 11.4253 18.6006 10.5 16.5 10.5C12.6338 10.5 9.5 13.634 9.5 17.4999C9.5 19.2134 10.1157 20.7832 11.1382 22L6.5 22C5.39551 22 4.5 21.186 4.5 20.1818L4.5 12.9091L2.4668 12.9091Z" clip-rule="evenodd" fill="var(--aui-second-color,  rgba(0,103,209,0.7))" fill-opacity="1.000000" fill-rule="evenodd"/>
		<path id="减去顶层" d="M11.002 17.4999C11.002 14.4624 13.4644 12 16.502 12C19.5396 12 22.002 14.4624 22.002 17.4999C22.002 20.5374 19.5396 22.9998 16.502 22.9998C13.4644 22.9998 11.002 20.5374 11.002 17.4999ZM17.9019 14.008C18.0557 13.7529 18.3813 13.6732 18.6304 13.8312C18.8789 13.9884 18.9561 14.3239 18.8027 14.579L17.3394 16.2863L18.9707 16.2863C19.2627 16.2863 19.5 16.5297 19.5 16.8297C19.5 17.1297 19.2627 17.3732 18.9707 17.3732L17.0298 17.3732L17.0298 18.4083L18.9707 18.4083C19.2627 18.4083 19.5 18.65 19.5 18.95C19.5 19.25 19.2627 19.4917 18.9707 19.4917L17.0298 19.4917L17.0298 20.7065C17.0298 21.0065 16.7925 21.25 16.5 21.25C16.208 21.25 15.9707 21.0065 15.9707 20.7065L15.9707 19.4917L14.0298 19.4917C13.7373 19.4917 13.5 19.25 13.5 18.95C13.5 18.65 13.7373 18.4083 14.0298 18.4083L15.9707 18.4083L15.9707 17.3732L14.0298 17.3732C13.7373 17.3732 13.5 17.1297 13.5 16.8297C13.5 16.5297 13.7373 16.2863 14.0298 16.2863L15.6606 16.2863L14.1973 14.579C14.0444 14.3239 14.1216 13.9884 14.3701 13.8312C14.6182 13.6732 14.9453 13.7529 15.0981 14.008L16.5 15.6145L17.9019 14.008Z" clip-rule="evenodd" fill="var(--aui-first-color,  rgba(0,103,209,1))" fill-opacity="1.000000" fill-rule="evenodd"/>
		<path id="形状结合-path" d="M18.63 13.83C18.38 13.67 18.05 13.75 17.9 14L16.5 15.61L15.09 14C14.94 13.75 14.61 13.67 14.36 13.83C14.12 13.98 14.04 14.32 14.19 14.57L15.66 16.28L14.02 16.28C13.73 16.28 13.5 16.52 13.5 16.82C13.5 17.12 13.73 17.37 14.02 17.37L15.97 17.37L15.97 18.4L14.02 18.4C13.73 18.4 13.5 18.65 13.5 18.95C13.5 19.25 13.73 19.49 14.02 19.49L15.97 19.49L15.97 20.7C15.97 21 16.2 21.25 16.5 21.25C16.79 21.25 17.02 21 17.02 20.7L17.02 19.49L18.97 19.49C19.26 19.49 19.5 19.25 19.5 18.95C19.5 18.65 19.26 18.4 18.97 18.4L17.02 18.4L17.02 17.37L18.97 17.37C19.26 17.37 19.5 17.12 19.5 16.82C19.5 16.52 19.26 16.28 18.97 16.28L17.33 16.28L18.8 14.57C18.95 14.32 18.87 13.98 18.63 13.83Z" fill="var(--aui-second-color,  rgba(0,103,209,0.7))" fill-opacity="0.5" fill-rule="evenodd"/>
	</g>
</svg>
