<svg viewBox="0 0 24 24" xmlns="http://www.w3.org/2000/svg" xmlns:xlink="http://www.w3.org/1999/xlink">
	<defs>
		<clipPath id="clip377_46634">
			<rect id="color-icon-lodging-fees" width="24.000000" height="24.000000" fill="white" fill-opacity="0"/>
		</clipPath>
	</defs>
	<g clip-path="url(#clip377_46634)">
		<path id="B2" d="M21.4639 12.2883C21.353 12.1866 21.2278 12.1008 21.0881 12.031L17.3718 10.1725C17.2568 10.115 17.1387 10.0719 17.0168 10.0432C17.0151 10.0427 17.0134 10.0423 17.0117 10.0419L17.0117 10.0419C16.8918 10.014 16.7686 10 16.6418 10C16.5256 10 16.4121 10.0118 16.301 10.0356L16.301 10.0356C16.2993 10.0359 16.2976 10.0363 16.2961 10.0366C16.1963 10.0582 16.0984 10.0895 16.0027 10.1303C15.9111 10.1693 15.8247 10.2156 15.7432 10.2694L15.7432 10.2694C15.74 10.2715 15.7368 10.2735 15.7339 10.2756C15.6436 10.3361 15.5591 10.4057 15.481 10.4846C15.4053 10.5607 15.3384 10.6425 15.2798 10.73C15.2776 10.7331 15.2756 10.7362 15.2734 10.7393C15.2175 10.8243 15.1694 10.9146 15.1294 11.0101C15.0889 11.1067 15.0579 11.2053 15.0364 11.3059C15.0122 11.4194 15 11.5355 15 11.6543L15 21.2716C15 21.4727 15.0706 21.6444 15.2117 21.7867C15.2832 21.8587 15.3623 21.9125 15.4487 21.948C15.533 21.9827 15.6245 22 15.7229 22L21.2771 22C21.4768 22 21.647 21.9289 21.7883 21.7867C21.9294 21.6444 22 21.4727 22 21.2716L22 13.5128C22 13.3557 21.9795 13.2045 21.9385 13.0592C21.8972 12.9139 21.8357 12.7745 21.7534 12.641C21.6714 12.5075 21.575 12.39 21.4639 12.2883ZM17.2141 16.5L19.7859 16.5C20.1858 16.5 20.5 16.17 20.5 15.75C20.5 15.33 20.1858 15 19.7859 15L17.2141 15C16.8142 15 16.5 15.33 16.5 15.75C16.5 16.17 16.8142 16.5 17.2141 16.5Z" clip-rule="evenodd" fill="var(--aui-second-color,  rgba(0,103,209,0.7))" fill-opacity="1.000000" fill-rule="evenodd"/>
		<path id="A1" d="M10.3921 2.13068C10.5266 2.07477 10.6628 2.0368 10.801 2.01678C10.9209 1.99939 11.0422 1.99548 11.165 2.00519C11.239 2.01099 11.3118 2.02161 11.3835 2.03699C11.4307 2.047 11.4771 2.05908 11.5232 2.07318C11.6494 2.11194 11.7725 2.16602 11.8923 2.23547C12.0122 2.30487 12.124 2.3869 12.2278 2.48151C12.3235 2.56885 12.4124 2.66681 12.4944 2.77557C12.5767 2.88477 12.6494 3.0011 12.7124 3.12451C12.7849 3.26654 12.8445 3.41809 12.8914 3.57898C12.9124 3.65186 12.9304 3.7254 12.9456 3.79956L12.9456 3.79962C12.9561 3.85236 12.9653 3.90546 12.9727 3.9588C12.991 4.0874 13 4.21783 13 4.35016L13 20.6779C13 20.7711 12.9922 20.8624 12.9763 20.9517C12.9619 21.0337 12.9407 21.1141 12.9128 21.1927C12.8857 21.27 12.8528 21.3428 12.8147 21.4113C12.7747 21.4833 12.7285 21.5504 12.6765 21.6128C12.6243 21.6751 12.5681 21.7303 12.5081 21.7783C12.4509 21.824 12.3899 21.8631 12.3254 21.8958C12.2598 21.9291 12.1926 21.9543 12.124 21.9717C12.0493 21.9906 11.9731 22 11.8953 22L4.10474 22C4.0498 22 3.99561 21.9953 3.94214 21.9859L3.94189 21.9858L3.94189 21.9858L3.94189 21.9858C3.91968 21.9819 3.89795 21.9772 3.87598 21.9717C3.80737 21.9543 3.74023 21.9291 3.67456 21.8958C3.61011 21.8631 3.54907 21.824 3.49194 21.7783C3.43188 21.7303 3.37573 21.6751 3.32349 21.6128C3.27148 21.5504 3.22534 21.4833 3.1853 21.4114C3.14722 21.3428 3.1145 21.27 3.08716 21.1927C3.05933 21.1141 3.03809 21.0336 3.02368 20.9516C3.00781 20.8624 3 20.7711 3 20.6779L3 6.50995C3 6.31458 3.02368 6.12817 3.07104 5.95087C3.08887 5.88403 3.11011 5.81842 3.13452 5.75415L3.13452 5.75415C3.17529 5.64789 3.22485 5.54517 3.28394 5.44598C3.37866 5.28674 3.48804 5.15125 3.61255 5.03955C3.67578 4.98273 3.74292 4.93207 3.81396 4.88757C3.88257 4.8446 3.95483 4.80731 4.03052 4.77582L10.3921 2.13068ZM10.2859 9.5L5.71411 9.5C5.31421 9.5 5 9.16998 5 8.75C5 8.33002 5.31421 8 5.71411 8L10.2859 8C10.6858 8 11 8.33002 11 8.75C11 9.16998 10.6858 9.5 10.2859 9.5ZM5.71411 12.5L10.2859 12.5C10.6858 12.5 11 12.17 11 11.75C11 11.33 10.6858 11 10.2859 11L5.71411 11C5.31421 11 5 11.33 5 11.75C5 12.17 5.31421 12.5 5.71411 12.5Z" clip-rule="evenodd" fill="var(--aui-first-color,  rgba(0,103,209,1))" fill-opacity="1.000000" fill-rule="evenodd"/>
		<path id="A1" d="M22.94 21.34C22.98 21.23 23 21.12 23 21C23 20.93 22.99 20.86 22.97 20.79C22.96 20.73 22.94 20.67 22.92 20.61C22.89 20.55 22.86 20.49 22.83 20.44C22.8 20.38 22.76 20.33 22.71 20.29C22.66 20.24 22.62 20.2 22.56 20.16C22.51 20.13 22.46 20.1 22.4 20.07C22.34 20.05 22.28 20.03 22.22 20.02C22.16 20 22.09 20 22.02 20L1.86 20C1.75 20.02 1.58 20.07 1.48 20.13C1.39 20.18 1.3 20.26 1.22 20.35C1.15 20.44 1.09 20.54 1.05 20.65C1.01 20.76 1 20.87 1 21C1 21.06 1 21.13 1.02 21.2C1.03 21.26 1.05 21.32 1.07 21.38C1.1 21.44 1.13 21.5 1.16 21.55C1.19 21.61 1.23 21.66 1.28 21.7C1.33 21.75 1.37 21.79 1.43 21.83C1.48 21.86 1.53 21.89 1.59 21.92C1.65 21.94 1.71 21.96 1.77 21.97C1.83 21.99 1.9 22 1.97 22L22.13 21.99C22.24 21.97 22.41 21.92 22.51 21.86C22.6 21.81 22.69 21.73 22.77 21.64C22.84 21.55 22.9 21.45 22.94 21.34Z" fill="var(--aui-first-color,  rgba(0,103,209,1))" fill-opacity="1.000000" fill-rule="evenodd"/>
	</g>
</svg>
