<svg viewBox="0 0 24 24" xmlns="http://www.w3.org/2000/svg" xmlns:xlink="http://www.w3.org/1999/xlink">
	<defs>
		<clipPath id="clip377_46769">
			<rect id="color-icon-maintenance-service" width="24.000000" height="24.000000" fill="white" fill-opacity="0"/>
		</clipPath>
	</defs>
	<g clip-path="url(#clip377_46769)">
		<path id="减去顶层" d="M11.7734 3C13.9182 3 16.1238 3.30917 18.3887 3.92704C18.5442 3.96932 18.6914 4.02574 18.8306 4.0963C19.0337 4.19923 19.2192 4.33226 19.3877 4.49538C19.4956 4.59998 19.5913 4.71209 19.6748 4.83171C19.8059 5.01927 19.9067 5.22528 19.9778 5.44975L20.7544 7.91639C20.7234 7.90376 20.6919 7.89141 20.6599 7.87933C20.1218 7.67731 19.5647 7.55592 18.988 7.51514C18.885 7.50784 18.7817 7.50318 18.679 7.50116L18.1956 5.96597C18.1733 5.89567 18.1394 5.83422 18.094 5.78163C18.0479 5.73704 17.9663 5.67241 17.9104 5.65224C15.8115 5.07955 13.7451 4.78337 11.7734 4.78337C10.5964 4.78337 9.43994 4.88548 8.30469 5.08968C8.15601 5.11641 8.00781 5.14489 7.85986 5.17512L7.85962 5.17516L7.85889 5.17533C7.27197 5.29532 6.69067 5.44286 6.11499 5.61795C6.05737 5.63901 5.98462 5.67989 5.93774 5.72683C5.89258 5.77937 5.83301 5.86909 5.81104 5.93898L4.32886 10.6501C7.21802 10.233 9.77515 10.0244 12 10.0244C12.5178 10.0244 13.0535 10.0357 13.6072 10.0583C13.6013 10.0664 13.5955 10.0745 13.5896 10.0827C13.4512 10.2774 13.3237 10.4803 13.208 10.6914C13.0728 10.938 12.9553 11.1914 12.8557 11.4516C12.7563 11.7117 12.6748 11.9786 12.6111 12.2523C12.5439 12.5403 12.498 12.8301 12.4731 13.1217C12.4514 13.3765 12.4458 13.6327 12.4563 13.8902C12.4668 14.1464 12.4932 14.3993 12.5352 14.649L12.1155 15.0714L9.08765 15.0714C8.70264 15.0714 8.40015 15.3739 8.40015 15.7589C8.40015 16.1439 8.70264 16.4464 9.08765 16.4464L10.7495 16.4464L10.4866 16.7111C10.3196 16.8793 10.1729 17.0606 10.0466 17.2552C9.92871 17.4367 9.82861 17.6298 9.74634 17.8343C9.66699 18.0312 9.60669 18.2319 9.56592 18.4365C9.52197 18.6554 9.5 18.8787 9.5 19.1064C9.5 19.2018 9.50391 19.2964 9.51147 19.3903L7.22266 19.3903L6.47876 20.6589C6.41699 20.7641 6.33105 20.8472 6.2207 20.9083C6.1106 20.9694 5.99146 21 5.86353 21L2.98193 21C2.87134 21 2.76294 20.9898 2.65698 20.9694C2.55371 20.9495 2.45264 20.92 2.35352 20.8808C2.27051 20.8478 2.19141 20.8091 2.11621 20.7645C2.01733 20.7059 1.92505 20.6372 1.83984 20.5584C1.77148 20.4953 1.70972 20.4278 1.65454 20.3559C1.58984 20.2715 1.53418 20.181 1.48755 20.0844C1.44873 20.0036 1.41724 19.921 1.39331 19.8365C1.36279 19.729 1.34424 19.6184 1.33813 19.5047L1.00366 13.4228C0.995605 13.2733 1.00098 13.1253 1.02002 12.9789C1.03345 12.8747 1.05396 12.7713 1.0813 12.6687C1.10645 12.5748 1.13672 12.4831 1.17261 12.3935L1.17285 12.3929L1.1731 12.392C1.18677 12.358 1.20117 12.3242 1.21631 12.2908C1.26318 12.1876 1.31738 12.0873 1.37891 11.9899C1.45874 11.8638 1.54883 11.7459 1.64941 11.6364C1.71704 11.5626 1.78931 11.4926 1.86621 11.4263C1.97754 11.3305 2.0957 11.245 2.2207 11.1699L4.02808 5.42526C4.08179 5.25331 4.15356 5.09199 4.24316 4.94128L4.24316 4.94128L4.24316 4.94125C4.26489 4.90442 4.28784 4.86822 4.31201 4.83266C4.39307 4.71245 4.48657 4.59949 4.59229 4.49378C4.75317 4.33259 4.9314 4.19946 5.12671 4.09436C5.25977 4.02285 5.40063 3.96432 5.54932 3.91878C6.22363 3.7137 6.90479 3.54295 7.59277 3.40654L7.59277 3.40652L7.59399 3.40628L7.5957 3.40594C7.75366 3.37464 7.91211 3.34515 8.0708 3.31746C9.28394 3.10582 10.5183 3 11.7734 3ZM17.0002 19.7704L17.5212 20.6589C17.583 20.7641 17.6689 20.8472 17.7793 20.9083C17.8274 20.935 17.8772 20.9559 17.9287 20.9709L17.9287 20.9709C17.9951 20.9903 18.0645 21 18.1365 21L21.0181 21C21.1287 21 21.2371 20.9898 21.343 20.9694C21.4463 20.9495 21.5474 20.92 21.6465 20.8808C21.7295 20.8478 21.8086 20.8091 21.8838 20.7645C21.9827 20.7059 22.075 20.6372 22.1602 20.5584C22.2285 20.4953 22.2903 20.4278 22.3455 20.3559C22.4102 20.2715 22.4658 20.181 22.5125 20.0844C22.5513 20.0037 22.5828 19.9212 22.6067 19.8368C22.6372 19.7291 22.6558 19.6184 22.6619 19.5047L22.7588 17.7441C22.7419 17.7613 22.7253 17.7784 22.7085 17.7954C22.2927 18.2139 21.8291 18.5644 21.3174 18.847C20.8201 19.1218 20.2949 19.3227 19.7422 19.4499C19.1968 19.5754 18.6453 19.6243 18.0879 19.5965C17.8113 19.5828 17.5383 19.5504 17.2695 19.4993L17.0002 19.7704ZM2.802 15.0714L5.94482 15.0714C6.32983 15.0714 6.63232 15.3739 6.63232 15.7589C6.63232 16.1439 6.32983 16.4464 5.94482 16.4464L2.802 16.4464C2.41699 16.4464 2.1145 16.1439 2.1145 15.7589C2.1145 15.3739 2.41699 15.0714 2.802 15.0714Z" clip-rule="evenodd" fill="var(--aui-second-color,  rgba(0,103,209,0.7))" fill-opacity="1.000000" fill-rule="evenodd"/>
		<path id="矢量 328" d="M14.12 15.22C14.07 15.06 14.03 14.91 14 14.75C13.95 14.5 13.92 14.25 13.9 13.99C13.9 13.8 13.9 13.61 13.92 13.42C13.93 13.2 13.97 12.97 14.02 12.75C14.07 12.54 14.13 12.34 14.21 12.14C14.28 11.94 14.37 11.75 14.48 11.56C14.56 11.41 14.65 11.27 14.75 11.13C14.9 10.91 15.07 10.7 15.26 10.51C15.47 10.3 15.69 10.12 15.93 9.95C16.07 9.86 16.2 9.78 16.35 9.7C16.55 9.59 16.76 9.49 16.98 9.41C17.17 9.34 17.37 9.29 17.57 9.24C17.81 9.19 18.04 9.16 18.28 9.15C18.47 9.14 18.66 9.14 18.85 9.15C19.11 9.17 19.36 9.21 19.61 9.27C19.78 9.31 19.95 9.36 20.11 9.43C20.26 9.48 20.35 9.56 20.4 9.66C20.44 9.75 20.44 9.88 20.38 10.02C20.37 10.05 20.29 10.16 20.28 10.18L18.82 11.65C18.7 11.77 18.61 11.9 18.55 12.06C18.49 12.2 18.46 12.36 18.46 12.52C18.45 12.68 18.48 12.83 18.54 12.97C18.57 13.04 18.6 13.11 18.64 13.17C18.69 13.24 18.74 13.31 18.8 13.37C18.91 13.48 19.03 13.56 19.17 13.62C19.31 13.68 19.45 13.71 19.6 13.71C19.75 13.71 19.9 13.69 20.04 13.64C20.18 13.58 20.38 13.44 20.5 13.34L21.95 11.88C22.17 11.66 22.39 11.66 22.6 11.88C22.65 11.92 22.69 11.98 22.71 12.04C22.86 12.45 22.95 12.87 22.98 13.31C23.01 13.74 22.98 14.17 22.89 14.59C22.8 15.03 22.65 15.44 22.44 15.83C22.36 15.99 22.26 16.14 22.16 16.29C22 16.51 21.83 16.72 21.63 16.92C21.32 17.24 20.96 17.5 20.58 17.72C20.2 17.92 19.8 18.08 19.38 18.17C19.16 18.23 18.93 18.26 18.7 18.28C18.51 18.29 18.32 18.29 18.14 18.28C17.71 18.26 17.24 18.16 16.84 18.03L14.32 20.57C14.13 20.75 13.92 20.9 13.68 21C13.44 21.09 13.2 21.14 12.94 21.14C12.81 21.14 12.68 21.13 12.55 21.1C12.44 21.08 12.32 21.04 12.21 21C11.97 20.9 11.75 20.75 11.56 20.57C11.47 20.47 11.38 20.36 11.31 20.24C11.24 20.14 11.18 20.03 11.14 19.92C11.04 19.68 11 19.44 11 19.18C11 18.93 11.04 18.68 11.14 18.45C11.24 18.2 11.38 17.99 11.56 17.8L14.12 15.22Z" fill="var(--aui-first-color,  rgba(0,103,209,1))" fill-opacity="1.000000" fill-rule="evenodd"/>
	</g>
</svg>
