<svg viewBox="0 0 24 24" xmlns="http://www.w3.org/2000/svg" xmlns:xlink="http://www.w3.org/1999/xlink">
	<defs>
		<clipPath id="clip377_46676">
			<rect id="color-icon-meal-allowance" width="24.000000" height="24.000000" fill="white" fill-opacity="0"/>
		</clipPath>
	</defs>
	<g clip-path="url(#clip377_46676)">
		<path id="path4 (边框)" d="M14.05 5.83C14.05 5.27 13.61 4.83 13.05 4.83C12.49 4.83 12.05 5.27 12.05 5.83L12.05 11.07C12.05 11.63 12.49 12.07 13.05 12.07C13.61 12.07 14.05 11.63 14.05 11.07L14.05 5.83ZM10.71 6.43L10.71 11.07C10.71 11.63 10.27 12.07 9.71 12.07C9.15 12.07 8.71 11.63 8.71 11.07L8.71 6.43C8.71 5.87 9.15 5.43 9.71 5.43C10.27 5.43 10.71 5.87 10.71 6.43ZM7.37 7.02C7.37 6.46 6.93 6.02 6.37 6.02C5.81 6.02 5.37 6.46 5.37 7.02L5.37 11.07C5.37 11.63 5.81 12.07 6.37 12.07C6.93 12.07 7.37 11.63 7.37 11.07L7.37 7.02Z" fill="var(--aui-second-color,  rgba(0,103,209,0.7))"  fill-opacity="0.5" fill-rule="evenodd"/>
		<path id="path6 (边框)" d="M21.36 11L2.69 11C2.46 11 2.28 11.05 2.17 11.17C2.05 11.29 2 11.46 2 11.7C2 13.34 2.33 14.37 3.01 15.64C3.15 15.9 3.3 16.15 3.46 16.39C4.42 17.8 5.84 19.35 7.72 20.21L7.91 20.49C8.01 20.65 8.15 20.77 8.31 20.86C8.47 20.95 8.65 21 8.84 21L15.15 21C15.25 20.99 15.35 20.98 15.44 20.96C15.52 20.93 15.6 20.9 15.68 20.86C15.84 20.77 15.98 20.65 16.08 20.49L16.25 20.23C17.37 19.83 18.33 18.82 19.14 18.06C19.53 17.68 19.89 17.27 20.2 16.81C21.19 15.39 21.79 13.99 21.99 11.76C22.03 11.3 21.82 11.04 21.36 11Z" fill="var(--aui-first-color,  rgba(0,103,209,1))" fill-opacity="1.000000" fill-rule="evenodd"/>
		<path id="path4 (边框)" d="M21.28 3.15L2.38 6.47C1.88 6.56 1.57 7.06 1.67 7.61C1.77 8.17 2.23 8.53 2.73 8.44L21.62 5.12C22.12 5.03 22.43 4.53 22.33 3.98C22.24 3.43 21.77 3.06 21.28 3.15Z" fill="var(--aui-first-color,  rgba(0,103,209,1))" fill-opacity="1.000000" fill-rule="evenodd"/>
	</g>
</svg>
