<svg viewBox="0 0 24 24" xmlns="http://www.w3.org/2000/svg" xmlns:xlink="http://www.w3.org/1999/xlink">
	<defs>
		<clipPath id="clip377_46680">
			<rect id="color-icon-meal-subsidy" width="24.000000" height="24.000000" fill="white" fill-opacity="0"/>
		</clipPath>
	</defs>
	<g clip-path="url(#clip377_46680)">
		<path id="path4 (边框)" d="M11 7.15L11 2.43C11 2.36 10.99 2.3 10.98 2.24C10.96 2.18 10.94 2.12 10.92 2.06C10.9 2.01 10.87 1.96 10.83 1.91C10.8 1.86 10.76 1.81 10.71 1.77C10.67 1.72 10.62 1.69 10.57 1.65C10.52 1.62 10.47 1.59 10.41 1.57C10.35 1.54 10.29 1.53 10.23 1.51C10.17 1.5 10.1 1.5 10.03 1.5C9.97 1.5 9.9 1.5 9.84 1.51C9.78 1.53 9.72 1.54 9.66 1.57C9.6 1.59 9.55 1.62 9.5 1.65C9.45 1.69 9.4 1.72 9.36 1.77C9.31 1.81 9.27 1.86 9.24 1.91C9.2 1.96 9.17 2.01 9.15 2.06C9.13 2.12 9.11 2.18 9.09 2.24C9.08 2.3 9.07 2.36 9.07 2.43L9.07 7.15C9.07 7.4 9.04 7.63 8.97 7.86C8.9 8.08 8.8 8.29 8.67 8.49C8.54 8.69 8.39 8.86 8.22 9.01C8.04 9.17 7.82 9.31 7.59 9.42L7.31 9.55C7.18 9.6 7.07 9.67 6.97 9.76C6.87 9.84 6.79 9.94 6.71 10.06C6.64 10.17 6.58 10.29 6.55 10.41C6.53 10.48 6.51 10.55 6.5 10.61C6.49 10.54 6.57 10.48 6.55 10.41C6.51 10.29 6.36 10.17 6.29 10.05C6.21 9.93 6.12 9.83 6.01 9.74C5.91 9.66 5.81 9.6 5.69 9.55L5.38 9.41C5.16 9.3 4.95 9.17 4.78 9.02C4.6 8.86 4.45 8.69 4.31 8.49C4.18 8.29 4.09 8.08 4.02 7.86C3.95 7.63 3.92 7.39 3.92 7.15L3.92 2.43C3.92 2.36 3.91 2.3 3.9 2.24C3.88 2.18 3.86 2.12 3.84 2.06C3.82 2.01 3.79 1.96 3.75 1.91C3.72 1.86 3.68 1.81 3.63 1.77C3.59 1.72 3.54 1.69 3.49 1.65C3.44 1.62 3.39 1.59 3.33 1.57C3.27 1.54 3.21 1.53 3.15 1.51C3.09 1.5 3.02 1.5 2.96 1.5C2.89 1.5 2.82 1.5 2.76 1.51C2.7 1.53 2.64 1.54 2.58 1.57C2.52 1.59 2.47 1.62 2.42 1.65C2.37 1.69 2.32 1.72 2.28 1.77C2.23 1.81 2.19 1.86 2.16 1.91C2.12 1.96 2.09 2.01 2.07 2.06C2.05 2.12 2.03 2.18 2.02 2.24C2 2.3 2 2.36 2 2.43L2 7.15C2 7.38 2.01 7.61 2.05 7.83C2.08 8.02 2.12 8.2 2.18 8.38C2.23 8.57 2.3 8.75 2.39 8.93C2.47 9.12 2.58 9.3 2.69 9.48C2.8 9.65 2.93 9.82 3.06 9.97C3.2 10.12 3.34 10.27 3.5 10.4C3.61 10.5 3.73 10.59 3.85 10.68C4.07 10.84 4.44 10.97 4.69 11.09L4.78 20.65C4.78 20.78 4.79 20.91 4.82 21.04C4.84 21.15 4.88 21.26 4.93 21.37C4.97 21.47 5.03 21.57 5.09 21.67C5.16 21.77 5.24 21.86 5.34 21.95C5.43 22.04 5.52 22.12 5.63 22.19C5.73 22.25 5.83 22.3 5.94 22.35C6.05 22.39 6.16 22.43 6.28 22.45C6.41 22.48 6.36 22.5 6.5 22.5C6.64 22.5 6.63 22.48 6.76 22.45C6.87 22.43 6.98 22.39 7.1 22.35C7.2 22.3 7.31 22.25 7.41 22.19C7.51 22.12 7.61 22.04 7.7 21.95C7.79 21.86 7.87 21.77 7.94 21.67C8.01 21.57 8.06 21.47 8.11 21.37C8.16 21.26 8.19 21.15 8.22 21.04C8.25 20.91 8.26 20.78 8.26 20.65L8.26 11.09C8.46 11 8.8 10.9 8.98 10.79C9.15 10.68 9.32 10.56 9.47 10.42C9.63 10.29 9.78 10.14 9.91 9.99C10.05 9.83 10.17 9.67 10.29 9.5C10.41 9.32 10.51 9.13 10.6 8.94C10.68 8.76 10.75 8.58 10.81 8.39C10.87 8.21 10.91 8.02 10.94 7.84C10.98 7.61 11 7.38 11 7.15ZM7.46 7.42L7.46 2.43C7.46 2.36 7.45 2.3 7.44 2.24C7.42 2.18 7.4 2.12 7.38 2.06C7.36 2.01 7.33 1.96 7.29 1.91C7.26 1.86 7.22 1.81 7.17 1.77C7.13 1.72 7.08 1.69 7.03 1.65C6.98 1.62 6.93 1.59 6.87 1.57C6.81 1.54 6.75 1.53 6.69 1.51C6.63 1.5 6.56 1.5 6.5 1.5C6.43 1.5 6.36 1.5 6.3 1.51C6.24 1.53 6.18 1.54 6.12 1.57C6.06 1.59 6.01 1.62 5.96 1.65C5.91 1.69 5.86 1.72 5.82 1.77C5.77 1.81 5.73 1.86 5.7 1.91C5.66 1.96 5.63 2.01 5.61 2.06C5.59 2.12 5.57 2.18 5.55 2.24C5.54 2.3 5.53 2.36 5.53 2.43L5.53 7.42C5.53 7.49 5.54 7.55 5.55 7.61C5.57 7.67 5.59 7.73 5.61 7.78C5.63 7.84 5.66 7.89 5.7 7.94C5.73 7.99 5.77 8.04 5.82 8.08C5.86 8.12 5.91 8.16 5.96 8.2C6.01 8.23 6.06 8.26 6.12 8.28C6.18 8.3 6.24 8.32 6.3 8.33C6.36 8.35 6.43 8.35 6.5 8.35C6.56 8.35 6.63 8.35 6.69 8.33C6.75 8.32 6.81 8.3 6.87 8.28C6.93 8.26 6.98 8.23 7.03 8.2C7.08 8.16 7.13 8.12 7.17 8.08C7.22 8.04 7.26 7.99 7.29 7.94C7.33 7.89 7.36 7.84 7.38 7.78C7.4 7.73 7.42 7.67 7.44 7.61C7.45 7.55 7.46 7.49 7.46 7.42Z" fill="var(--aui-first-color,  rgba(0,103,209,1))" fill-opacity="1.000000" fill-rule="evenodd"/>
		<path id="path5 (边框)" d="M21.8 8.92C21.93 8.39 22 7.87 22 7.35C22 6.66 21.89 5.96 21.67 5.26C21.49 4.67 21.25 4.12 20.94 3.62C20.9 3.55 20.86 3.49 20.82 3.42C20.45 2.85 20.03 2.4 19.57 2.06C19.09 1.72 18.6 1.53 18.1 1.5C18.05 1.5 18.01 1.5 17.97 1.5C17.9 1.5 17.84 1.5 17.77 1.5C17.29 1.54 16.83 1.73 16.37 2.06C15.91 2.39 15.5 2.84 15.14 3.41C14.78 3.96 14.51 4.57 14.31 5.25C14.1 5.93 14 6.62 14 7.31C14 7.83 14.06 8.4 14.18 8.92C14.26 9.28 14.37 9.62 14.5 9.96C14.55 10.1 14.62 10.24 14.68 10.37C14.9 10.83 15.16 11.24 15.46 11.61C15.72 11.93 16.01 12.2 16.32 12.42L16.32 20.61C16.32 20.73 16.33 20.85 16.35 20.96C16.37 21.09 16.41 21.22 16.46 21.34C16.49 21.43 16.53 21.51 16.58 21.59C16.65 21.71 16.73 21.83 16.83 21.93C16.91 22.02 16.99 22.09 17.08 22.16C17.17 22.23 17.26 22.28 17.37 22.33C17.48 22.39 17.6 22.43 17.72 22.46C17.82 22.48 17.92 22.49 18.02 22.5L18.13 22.49C18.24 22.48 18.37 22.46 18.47 22.43C18.57 22.4 18.67 22.37 18.76 22.32C18.85 22.27 18.94 22.21 19.02 22.15C19.11 22.08 19.19 22.01 19.26 21.92C19.33 21.83 19.4 21.74 19.46 21.64C19.51 21.55 19.55 21.45 19.59 21.35C19.63 21.25 19.66 21.16 19.68 21.05C19.7 20.93 19.71 20.8 19.71 20.67L19.7 12.35C19.98 12.15 20.23 11.9 20.48 11.61C20.78 11.25 21.05 10.83 21.28 10.37C21.4 10.13 21.5 9.88 21.59 9.62C21.68 9.39 21.75 9.16 21.8 8.92Z" fill="var(--aui-second-color,  rgba(0,103,209,0.7))" fill-opacity="1.000000" fill-rule="evenodd"/>
		<path id="path6 (边框)" d="M7.23 9.54C7.02 9.63 6.78 9.68 6.5 9.68C6.21 9.68 5.97 9.63 5.76 9.54C5.73 9.53 5.7 9.51 5.66 9.51C5.63 9.5 5.6 9.5 5.57 9.5C5.41 9.5 5.27 9.57 5.16 9.7C5.05 9.84 5 10 5 10.2L5 20.66C5 20.79 5.01 20.92 5.03 21.05C5.05 21.16 5.08 21.27 5.11 21.37C5.15 21.48 5.19 21.58 5.24 21.67C5.3 21.77 5.36 21.87 5.43 21.96C5.51 22.04 5.58 22.12 5.67 22.19C5.74 22.25 5.82 22.31 5.91 22.35C6 22.4 6.09 22.43 6.18 22.45C6.28 22.48 6.39 22.5 6.5 22.5C6.6 22.5 6.71 22.48 6.81 22.45C6.9 22.43 6.99 22.4 7.08 22.35C7.17 22.31 7.25 22.25 7.32 22.19C7.41 22.12 7.48 22.04 7.56 21.96C7.63 21.87 7.69 21.77 7.75 21.67C7.8 21.58 7.84 21.48 7.88 21.37C7.91 21.27 7.94 21.16 7.96 21.05C7.98 20.92 8 20.79 8 20.66L8 10.2C8 10.16 7.99 10.12 7.99 10.08C7.98 10.04 7.97 10 7.96 9.96C7.91 9.78 7.81 9.64 7.67 9.56C7.52 9.48 7.38 9.47 7.23 9.54ZM6.14 11.06C6.25 11.07 6.37 11.08 6.5 11.08C6.62 11.08 6.74 11.07 6.85 11.06L6.85 20.66C6.85 20.72 6.85 20.77 6.83 20.82C6.81 20.88 6.78 20.92 6.75 20.97C6.71 21.01 6.68 21.04 6.63 21.06C6.59 21.09 6.54 21.1 6.5 21.1C6.45 21.1 6.4 21.09 6.36 21.06C6.31 21.04 6.28 21.01 6.24 20.97C6.21 20.92 6.18 20.88 6.16 20.82C6.14 20.77 6.14 20.72 6.14 20.66L6.14 11.06Z" fill="var(--aui-first-color,  rgba(0,103,209,1))" fill-opacity="1.000000" fill-rule="evenodd"/>
	</g>
</svg>
