<svg viewBox="0 0 24 24" xmlns="http://www.w3.org/2000/svg" xmlns:xlink="http://www.w3.org/1999/xlink">
	<defs>
		<clipPath id="clip377_46804">
			<rect id="color-icon-meeting-expenses" width="24.000000" height="24.000000" fill="white" fill-opacity="0"/>
		</clipPath>
	</defs>
	<g clip-path="url(#clip377_46804)">
		<path id="减去顶层" d="M15.6384 11.1398C15.5178 11.0955 15.4121 11.0524 15.3169 11.0163C15.3716 10.941 15.4434 10.8383 15.4944 10.7591C15.6477 10.6583 15.7917 10.5376 15.9263 10.3969C16.0046 10.3148 16.0771 10.2285 16.144 10.1381C16.1531 10.1257 16.1621 10.1133 16.1709 10.1008C16.3174 9.89487 16.4343 9.66785 16.5215 9.41971C16.6304 9.11029 16.6826 8.80164 16.6782 8.49377C16.6763 8.35281 16.6624 8.21201 16.6367 8.07138C16.5964 7.85071 16.498 7.58676 16.4009 7.39362C16.3933 6.82874 16.3257 6.30725 16.1982 5.82922C16.0388 5.23102 15.7888 4.71088 15.4482 4.2688C15.2976 4.07333 15.1321 3.89609 14.9514 3.737C15.3914 3.27713 16.0403 3 16.9497 3C18.9973 3 19.7231 4.40448 19.7231 6.13702C19.7231 6.23212 19.7202 6.32742 19.7146 6.42242C19.9651 6.63449 20.051 7.06506 19.9016 7.49026C19.7761 7.84702 19.5178 8.10678 19.2427 8.19058C19.1482 8.37158 19.0398 8.54205 18.9175 8.69949L18.876 8.75555C18.3516 9.47906 18.3845 9.98819 18.9746 10.2829C19.0364 10.3137 19.106 10.345 19.1824 10.3772L19.3438 10.4426L19.521 10.5107L20.3445 10.8169L20.5679 10.904L20.7937 10.9961L21.02 11.0937L21.2446 11.1972C22.1731 11.6411 22.9961 12.2482 22.9934 13.1521L22.9949 13.339L23 13.693L22.9993 13.9377C22.9868 14.4852 22.886 14.8586 22.3501 14.88L19.9558 14.8799C19.9421 14.7277 19.9163 14.5783 19.8789 14.4319C19.7839 14.0616 19.6133 13.7101 19.3669 13.3772C19.0708 12.9771 18.6655 12.6126 18.1509 12.2837C17.7849 12.0497 17.3455 11.8232 16.8328 11.604C16.552 11.484 16.1538 11.3293 15.6384 11.1398ZM4.04565 14.8798C4.05884 14.7338 4.08301 14.5905 4.11816 14.4498C4.21191 14.0735 4.38428 13.7161 4.63477 13.3775C4.93091 12.9774 5.33618 12.6129 5.85083 12.284C6.2168 12.05 6.65625 11.8235 7.16895 11.6043C7.44971 11.4843 7.8479 11.3296 8.36328 11.1401C8.48413 11.0957 8.59229 11.0554 8.6875 11.0192C8.62524 10.9348 8.56543 10.8479 8.5083 10.7587C8.35474 10.6579 8.21094 10.5372 8.07666 10.3965C7.99829 10.3145 7.92578 10.2282 7.85889 10.1378C7.69995 9.92218 7.57397 9.68277 7.48169 9.41968C7.37305 9.11066 7.3208 8.80237 7.32495 8.49481C7.3269 8.35367 7.34058 8.21271 7.36621 8.0719C7.40454 7.86252 7.46826 7.6655 7.55737 7.48087C7.56226 7.47116 7.56689 7.46149 7.57178 7.45184C7.57935 6.88684 7.677 6.30734 7.80444 5.82922C7.96387 5.23102 8.21387 4.71088 8.55469 4.2688C8.70459 4.07401 8.86963 3.89731 9.04956 3.73868C8.60938 3.27777 7.96021 3 7.04956 3C5.00195 3 4.27637 4.40448 4.27637 6.13702C4.27637 6.23212 4.27905 6.32742 4.28491 6.4227C4.03418 6.63419 3.948 7.06491 4.09741 7.49026C4.2229 7.84714 4.48145 8.10693 4.75684 8.1907C4.83472 8.34003 4.92212 8.48218 5.0188 8.61517L5.08301 8.69922C5.44409 9.1788 5.56763 9.56702 5.45337 9.8638C5.38818 10.0332 5.24561 10.1728 5.02563 10.2827C4.98462 10.3032 4.93994 10.3239 4.89233 10.345L4.7395 10.4093L4.57007 10.476L3.65601 10.8166L3.43262 10.9037C3.39502 10.9186 3.35742 10.9337 3.31982 10.9491L3.09326 11.0439C2.03662 11.4993 1.00391 12.1395 1.00684 13.1519L1 13.7327L1.00049 13.8929C1.00854 14.4645 1.1001 14.8578 1.65039 14.8797L4.04565 14.8798Z" clip-rule="evenodd" fill="var(--aui-second-color,  rgba(0,103,209,0.7))" fill-opacity="1.000000" fill-rule="evenodd"/>
		<path id="path7" d="M12 4.08C14.23 4.08 15.02 5.61 15.02 7.5C15.02 7.6 15.02 7.71 15.01 7.81C15.29 8.04 15.38 8.51 15.22 8.97C15.08 9.36 14.8 9.65 14.5 9.74C14.41 9.9 14.32 10.06 14.21 10.2L14.14 10.29C13.52 11.12 13.54 11.69 14.2 12.02C15.28 12.56 18.59 13.26 18.59 15.15L18.59 15.41C18.6 16.32 18.65 17.01 17.89 17.04C10.8 17.04 6.87 17.04 6.11 17.04C5.27 17 5.4 16.19 5.4 15.15C5.4 13.26 8.71 12.56 9.79 12.02C10.43 11.7 10.47 11.14 9.9 10.36L9.85 10.29C9.72 10.12 9.6 9.94 9.5 9.74C9.2 9.65 8.91 9.36 8.78 8.97C8.61 8.51 8.71 8.04 8.98 7.81C8.97 7.71 8.97 7.6 8.97 7.5C8.97 5.61 9.76 4.08 12 4.08Z" fill="var(--aui-first-color,  rgba(0,103,209,1))" fill-opacity="1.000000" fill-rule="evenodd"/>
		<path id="path8 (边框)" d="M1.91 19.2L22.08 19.2C22.59 19.2 23 19.59 23 20.1C23 20.6 22.59 21 22.08 21L1.91 21C1.4 21 1 20.6 1 20.1C1 19.59 1.4 19.2 1.91 19.2Z" fill="var(--aui-second-color,  rgba(0,103,209,0.7))" fill-opacity="1.000000" fill-rule="evenodd"/>
	</g>
</svg>
