<svg viewBox="0 0 24 24" xmlns="http://www.w3.org/2000/svg" xmlns:xlink="http://www.w3.org/1999/xlink">
	<defs>
		<clipPath id="clip476_142960">
			<rect id="color-icon-meeting-reimburse-form" width="24.000000" height="24.000000" fill="white" fill-opacity="0"/>
		</clipPath>
	</defs>
	<g clip-path="url(#clip476_142960)">
		<path id="减去顶层" d="M21 3L3 3L3 15.0968C3 16.7002 4.27246 18 5.84229 18L18.1577 18C19.7275 18 21 16.7002 21 15.0968L21 3ZM9.3374 6.5C11.0845 6.78607 12.4644 8.1731 12.75 9.92725L9.3374 9.92737L9.3374 6.5ZM8.31104 10.4856C8.33203 7.82788 8.33057 6.50031 8.30762 6.50281C6.30713 6.72107 4.75049 8.42273 4.75049 10.4896C4.75049 12.7045 6.53809 14.5 8.74365 14.5C10.8032 14.5 12.4985 12.9341 12.7139 10.923L8.74268 10.923C8.50439 10.923 8.31104 10.7251 8.31104 10.4856ZM15.001 6.75L18.5005 6.75C18.915 6.75 19.2505 7.08582 19.2505 7.5C19.2505 7.91418 18.915 8.25 18.5005 8.25L15.001 8.25C14.5864 8.25 14.251 7.91431 14.251 7.50012C14.251 7.08588 14.5864 6.75 15.001 6.75ZM18.5005 9.75L15.001 9.75C14.5864 9.75 14.251 10.0859 14.251 10.5001C14.251 10.9143 14.5864 11.25 15.001 11.25L18.5005 11.25C18.915 11.25 19.2505 10.9142 19.2505 10.5C19.2505 10.0858 18.915 9.75 18.5005 9.75ZM15.001 12.75L18.5005 12.75C18.915 12.75 19.2505 13.0858 19.2505 13.5C19.2505 13.9142 18.915 14.25 18.5005 14.25L15.001 14.25C14.5864 14.25 14.251 13.9143 14.251 13.5001C14.251 13.0859 14.5864 12.75 15.001 12.75Z" clip-rule="evenodd" fill="var(--aui-second-color,  rgba(0,103,209,0.7))" fill-opacity="1.000000" fill-rule="evenodd"/>
		<path id="path6 (边框)" d="M21 2L3 2C2.44 2 2 2.44 2 3C2 3.55 2.44 4 3 4L21 4C21.55 4 22 3.55 22 3C22 2.44 21.55 2 21 2Z" fill="var(--aui-first-color,  rgba(0,103,209,1))" fill-opacity="1.000000" fill-rule="evenodd"/>
		<rect id="矩形 1836" x="11.000000" y="18.000000" width="2.000000" height="4.000000" fill="var(--aui-second-color,  rgba(0,103,209,0.7))" fill-opacity="0.5"/>
		<rect id="矩形 1837" x="5.000000" y="20.000000" rx="1.000000" width="14.000000" height="2.000000" fill="var(--aui-first-color,  rgba(0,103,209,1))" fill-opacity="1.000000"/>
	</g>
</svg>
