<svg viewBox="0 0 24 24" xmlns="http://www.w3.org/2000/svg" xmlns:xlink="http://www.w3.org/1999/xlink">
	<defs>
		<clipPath id="clip377_46834">
			<rect id="color-icon-newspaper-subscription" width="24.000000" height="24.000000" fill="white" fill-opacity="0"/>
		</clipPath>
	</defs>
	<g clip-path="url(#clip377_46834)">
		<path id="减去顶层" d="M6 2L4.72729 2C3.22095 2 2 3.22107 2 4.72729L2 19.2727C2 20.7789 3.22095 22 4.72729 22L19.2727 22C20.7791 22 22 20.7789 22 19.2727L22 4.72729C22 3.22107 20.7791 2 19.2727 2L12 2L12 10.7991C12 11.2437 11.4641 11.4664 11.1499 11.1517C10.4993 10.5001 9.62573 9.6192 9.09155 9.0575C9.06128 9.02563 9.01953 9.02527 8.98901 9.05658C8.43164 9.62726 7.51636 10.525 6.84546 11.1791C6.5293 11.4871 6 11.2629 6 10.8216L6 2Z" clip-rule="evenodd" fill="var(--aui-first-color,  rgba(0,103,209,1))" fill-opacity="1.000000" fill-rule="evenodd"/>
		<path id="path5" d="M6 2L6 10.82C6 11.26 6.52 11.48 6.84 11.17C7.51 10.52 8.43 9.62 8.98 9.05C9.01 9.02 9.06 9.02 9.09 9.05C9.62 9.61 10.49 10.5 11.14 11.15C11.46 11.46 12 11.24 12 10.79L12 2L6 2Z" fill="var(--aui-second-color,  rgba(0,103,209,0.7))"  fill-opacity="0.5" fill-rule="evenodd"/>
	</g>
</svg>
