<svg viewBox="0 0 24 24" xmlns="http://www.w3.org/2000/svg" xmlns:xlink="http://www.w3.org/1999/xlink">
	<defs>
		<clipPath id="clip377_46796">
			<rect id="color-icon-office-equipments" width="24.000000" height="24.000000" fill="white" fill-opacity="0"/>
		</clipPath>
	</defs>
	<g clip-path="url(#clip377_46796)">
		<path id="path5" d="M8.68 2L15.31 2C16.01 2 16.58 2.58 16.58 3.31L16.58 5.19L7.41 5.19L7.41 3.31C7.41 2.58 7.98 2 8.68 2Z" fill="var(--aui-second-color,  rgba(0,103,209,0.7))" fill-opacity="1.000000" fill-rule="evenodd"/>
		<path id="减去顶层" d="M4.70264 7L19.2974 7C20.79 7 22 8.16794 22 9.6087L22 16.3913C22 17.5974 21.1519 18.6124 20 18.9109L20 18.5192C20 18.2339 19.967 17.9551 19.9009 17.6827C19.8318 17.3973 19.7263 17.119 19.5845 16.8479C19.4753 16.6389 19.3481 16.4413 19.2029 16.255C19.0095 16.0066 18.7839 15.7783 18.5266 15.57C18.3418 15.4205 18.1462 15.286 17.9399 15.1666C17.6714 15.0112 17.3845 14.8813 17.0793 14.7769C16.8386 14.6945 16.5935 14.6304 16.3442 14.5848C16.0354 14.5283 15.7202 14.5 15.3987 14.5L8.60132 14.5C8.27979 14.5 7.96436 14.5283 7.65552 14.5848C7.58569 14.5976 7.51636 14.6118 7.44702 14.6275C7.26953 14.6678 7.09399 14.7175 6.92065 14.7769C6.61548 14.8813 6.32861 15.0112 6.06006 15.1666C5.85376 15.286 5.6582 15.4205 5.47339 15.57C5.21606 15.7783 4.99048 16.0066 4.79712 16.2549C4.65186 16.4413 4.52466 16.6389 4.41553 16.8479C4.27368 17.1191 4.16821 17.3973 4.09912 17.6827C4.03296 17.9551 4 18.2339 4 18.5192L4 18.9109C2.84814 18.6124 2 17.5974 2 16.3913L2 9.6087C2 8.16794 3.20996 7 4.70264 7ZM16.5835 10.1444C16.6221 9.16977 17.4033 8.39136 18.4163 8.39136C19.4292 8.39136 20.2502 9.20892 20.2502 10.2174C20.2502 11.226 19.4292 12.0435 18.4163 12.0435C17.4033 12.0435 16.5452 11.1191 16.5835 10.1444Z" clip-rule="evenodd" fill="var(--aui-first-color,  rgba(0,103,209,1))" fill-opacity="1.000000" fill-rule="evenodd"/>
		<path id="path9" d="M8 16L16 16C17.38 16 18.5 17.11 18.5 18.5L18.5 19.5C18.5 20.88 17.38 22 16 22L8 22C6.61 22 5.5 20.88 5.5 19.5L5.5 18.5C5.5 17.11 6.61 16 8 16Z" fill="var(--aui-second-color,  rgba(0,103,209,0.7))"  fill-opacity="0.5" fill-rule="evenodd"/>
		<path id="path10" d="M17.5 10.18C17.51 9.69 17.9 9.3 18.41 9.3C18.92 9.3 19.33 9.71 19.33 10.21C19.33 10.72 18.92 11.13 18.41 11.13C17.9 11.13 17.48 10.66 17.5 10.18Z" fill="var(--aui-first-color,  rgba(0,103,209,1))" fill-opacity="1.000000" fill-rule="evenodd"/>
	</g>
</svg>
