<svg viewBox="0 0 24 24" xmlns="http://www.w3.org/2000/svg" xmlns:xlink="http://www.w3.org/1999/xlink">
	<defs>
		<clipPath id="clip407_67798">
			<rect id="color-icon-office-supplies" width="24.000000" height="24.000000" fill="white" fill-opacity="0"/>
		</clipPath>
	</defs>
	<g clip-path="url(#clip407_67798)">
		<path id="形状结合" d="M19.5835 7.14101L9.87988 16.8728C9.83984 16.912 9.80298 16.9546 9.76978 17.0006C9.73657 17.0478 9.70898 17.0973 9.68604 17.1491L7.88159 21L5.5 21C3.84326 21 2.5 19.6569 2.5 18L2.5 4.99854C2.5 3.34167 3.84326 1.99854 5.5 1.99854L16.5835 1.99854C18.2405 1.99854 19.5835 3.34169 19.5835 4.99854L19.5835 7.14101ZM13.5032 6.25L5.50317 6.25C5.08325 6.25 4.75317 6.58 4.75317 7C4.75317 7.42 5.08325 7.75 5.50317 7.75L13.5032 7.75C13.9231 7.75 14.2532 7.42 14.2532 7C14.2532 6.58 13.9231 6.25 13.5032 6.25ZM5.50244 9.25L11.5024 9.25C11.9224 9.25 12.2524 9.58 12.2524 10C12.2524 10.42 11.9224 10.75 11.5024 10.75L5.50244 10.75C5.08252 10.75 4.75244 10.42 4.75244 10C4.75244 9.58 5.08252 9.25 5.50244 9.25ZM19.5835 16.733L19.5835 18C19.5835 19.6569 18.2402 21 16.5835 21L15.3284 21L19.5835 16.733Z" clip-rule="evenodd" fill="var(--aui-second-color,  rgba(0,103,209,0.7))" fill-opacity="1.000000" fill-rule="evenodd"/>
		<path id="形状结合备份 6" d="M21.8752 9.58029C21.0713 8.79727 19.7712 8.80852 18.9785 9.60278L18.6729 9.90926L21.5935 12.8382L21.8982 12.5317C22.2922 12.1367 22.5073 11.6109 22.5032 11.0508C22.4983 10.4912 22.2761 9.96899 21.8752 9.58029ZM17.9297 10.6546L20.8501 13.5829L14.48 19.9707C14.4182 20.0326 14.3518 20.0734 14.2795 20.0994L10.2476 21.9515C10.1768 21.9838 10.1025 22 10.0288 22C9.89087 22 9.7561 21.9452 9.65454 21.8432C9.49976 21.6858 9.45898 21.4482 9.55298 21.2479L11.4468 17.2063C11.4607 17.1746 11.4775 17.1444 11.4978 17.1156C11.5181 17.0875 11.5405 17.0615 11.5652 17.0376L17.9297 10.6546Z" clip-rule="evenodd" fill="var(--aui-first-color,  rgba(0,103,209,1))" fill-opacity="1.000000" fill-rule="evenodd"/>
	</g>
</svg>
