<svg viewBox="0 0 24 24" xmlns="http://www.w3.org/2000/svg" xmlns:xlink="http://www.w3.org/1999/xlink">
	<defs>
		<clipPath id="clip377_46701">
			<rect id="color-icon-others" width="24.000000" height="24.000000" fill="white" fill-opacity="0"/>
		</clipPath>
	</defs>
	<g clip-path="url(#clip377_46701)">
		<path id="减去顶层" d="M12 1.25C6.06299 1.25 1.25 6.06293 1.25 12C1.25 17.9371 6.06299 22.75 12 22.75C17.937 22.75 22.75 17.9371 22.75 12C22.75 6.06293 17.937 1.25 12 1.25ZM7.5 12C7.5 11.171 6.8291 10.5 6 10.5C5.1709 10.5 4.5 11.171 4.5 12C4.5 12.829 5.1709 13.5 6 13.5C6.8291 13.5 7.5 12.829 7.5 12ZM13.5 12C13.5 11.171 12.8291 10.5 12 10.5C11.1709 10.5 10.5 11.171 10.5 12C10.5 12.829 11.1709 13.5 12 13.5C12.8291 13.5 13.5 12.829 13.5 12ZM18 10.5C18.8291 10.5 19.5 11.171 19.5 12C19.5 12.829 18.8291 13.5 18 13.5C17.1709 13.5 16.5 12.829 16.5 12C16.5 11.171 17.1709 10.5 18 10.5Z" clip-rule="evenodd" fill="var(--aui-first-color,  rgba(0,103,209,1))" fill-opacity="1.000000" fill-rule="evenodd"/>
		<path id="合并" d="M6 10.5C6.8291 10.5 7.5 11.171 7.5 12C7.5 12.829 6.8291 13.5 6 13.5C5.1709 13.5 4.5 12.829 4.5 12C4.5 11.171 5.1709 10.5 6 10.5ZM12 10.5C12.8291 10.5 13.5 11.171 13.5 12C13.5 12.829 12.8291 13.5 12 13.5C11.1709 13.5 10.5 12.829 10.5 12C10.5 11.171 11.1709 10.5 12 10.5ZM19.5 12C19.5 11.171 18.8291 10.5 18 10.5C17.1709 10.5 16.5 11.171 16.5 12C16.5 12.829 17.1709 13.5 18 13.5C18.8291 13.5 19.5 12.829 19.5 12Z" clip-rule="evenodd" fill="var(--aui-second-color,  rgba(0,103,209,0.7))"  fill-opacity="0.5" fill-rule="evenodd"/>
	</g>
</svg>
