<svg viewBox="0 0 24 24" xmlns="http://www.w3.org/2000/svg" xmlns:xlink="http://www.w3.org/1999/xlink">
	<defs>
		<clipPath id="clip377_46712">
			<rect id="color-icon-phone-bills" width="24.000000" height="24.000000" fill="white" fill-opacity="0"/>
		</clipPath>
	</defs>
	<g clip-path="url(#clip377_46712)">
		<path id="减去顶层" d="M17.8667 1L6.1333 1C4.95508 1 4 1.88736 4 2.98199L4 21.018C4 22.1126 4.95508 23 6.1333 23L17.8667 23C19.0449 23 20 22.1126 20 21.018L20 2.98199C20 1.88736 19.0449 1 17.8667 1ZM7.2334 2.5L16.7666 2.5C17.7239 2.5 18.5 3.27643 18.5 4.23422L7.2334 21.75C6.27612 21.75 5.5 20.9735 5.5 20.0158L5.5 4.23422C5.5 3.27643 6.27612 2.5 7.2334 2.5ZM9 20.25C8.58008 20.25 8.25 20.58 8.25 21C8.25 21.42 8.58008 21.75 9 21.75L15 21.75C15.4199 21.75 15.75 21.42 15.75 21C15.75 20.58 15.4199 20.25 15 20.25L9 20.25Z" clip-rule="evenodd" fill="var(--aui-first-color,  rgba(0,103,209,1))" fill-opacity="1.000000" fill-rule="evenodd"/>
		<g opacity="0.700000">
			<path id="减去顶层" d="M16.7666 2.5L7.2334 2.5C6.27612 2.5 5.5 3.27643 5.5 4.23422L5.5 20.0158C5.5 20.9735 6.27612 21.75 7.2334 21.75L18.5 4.23422C18.5 3.27643 17.7239 2.5 16.7666 2.5ZM13 5C13 5.55228 12.5522 6 12 6C11.4478 6 11 5.55228 11 5C11 4.44772 11.4478 4 12 4C12.5522 4 13 4.44772 13 5Z" clip-rule="evenodd" fill="var(--aui-second-color,  rgba(0,103,209,0.7))" fill-opacity="1.000000" fill-rule="evenodd"/>
		</g>
	</g>
</svg>
