<svg viewBox="0 0 24 24" xmlns="http://www.w3.org/2000/svg" xmlns:xlink="http://www.w3.org/1999/xlink">
	<defs>
		<clipPath id="clip462_231026">
			<rect id="color-icon-photo-identification" width="24.000000" height="24.000000" fill="white" fill-opacity="0"/>
		</clipPath>
	</defs>
	<g clip-path="url(#clip462_231026)">
		<path id="减去顶层" d="M6.62231 6.3158L3.854 6.3158C2.27783 6.3158 1 7.57031 1 9.11792L1 18.1979C1 19.7455 2.27783 21 3.854 21L20.146 21C21.7222 21 23 19.7455 23 18.1979L23 9.11792C23 7.57031 21.7222 6.3158 20.146 6.3158L17.3777 6.3158L16.6982 4.01147C16.5215 3.41235 15.9629 3 15.3276 3L8.67236 3C8.03711 3 7.47852 3.41235 7.30176 4.01147L6.62231 6.3158ZM7 13C7 10.2385 9.23853 8 12 8C14.7615 8 17 10.2385 17 13C17 15.7615 14.7615 18 12 18C9.23853 18 7 15.7615 7 13ZM3.99951 8.05005C3.46045 8.05005 3.021 8.47632 3 9.01001C3.021 9.54382 3.46045 10.05 3.99951 10.05C4.552 10.05 5 9.60229 5 9.05005C5 8.4978 4.552 8.05005 3.99951 8.05005Z" clip-rule="evenodd" fill="var(--aui-first-color,  rgba(0,103,209,1))" fill-opacity="1.000000" fill-rule="evenodd"/>
		<circle id="path5" cx="12.000000" cy="13.000000" r="3.500000" fill="var(--aui-second-color,  rgba(0,103,209,0.7))" fill-opacity="1.000000"/>
	</g>
</svg>
