<svg viewBox="0 0 24 24" xmlns="http://www.w3.org/2000/svg" xmlns:xlink="http://www.w3.org/1999/xlink">
	<defs>
		<clipPath id="clip379_46365">
			<rect id="color-icon-physical-examination" width="24.000000" height="24.000000" fill="white" fill-opacity="0"/>
		</clipPath>
	</defs>
	<g clip-path="url(#clip379_46365)">
		<path id="ic_ict_detection_2_5" d="M2.75 9.15C2.75 12.33 5.35 14.92 8.6 14.99L8.75 15C12.06 15 14.75 12.38 14.75 9.15L14.75 7C14.75 7 11.75 9 8.75 9C5.75 9 2.75 7 2.75 7L2.75 9.15Z" fill="var(--aui-second-color,  rgba(0,103,209,0.7))"  fill-opacity="0.5" fill-rule="evenodd"/>
		<path id="矢量 333" d="M7.76 3.11C7.76 3.19 7.75 3.27 7.73 3.34C7.72 3.41 7.7 3.48 7.67 3.55C7.64 3.61 7.61 3.67 7.57 3.73C7.53 3.79 7.49 3.85 7.44 3.9C7.38 3.95 7.33 4 7.27 4.04C7.21 4.08 7.15 4.11 7.09 4.14C7.02 4.17 6.96 4.19 6.89 4.21C6.81 4.22 6.74 4.23 6.66 4.23L3.94 4.23L3.94 9.02C3.94 9.4 3.98 9.76 4.06 10.12C4.12 10.39 4.2 10.65 4.31 10.92C4.42 11.19 4.55 11.45 4.71 11.7C4.88 11.97 5.09 12.23 5.32 12.47C5.55 12.71 5.81 12.93 6.08 13.12C6.31 13.28 6.56 13.41 6.81 13.53C7.08 13.65 7.35 13.75 7.63 13.81C7.96 13.9 8.3 13.94 8.65 13.95L8.78 13.95C9.11 13.95 9.43 13.92 9.75 13.85C10.05 13.79 10.35 13.69 10.65 13.57C10.91 13.45 11.16 13.32 11.4 13.16C11.68 12.97 11.94 12.76 12.18 12.51C12.42 12.27 12.63 12.01 12.81 11.73C12.97 11.48 13.1 11.22 13.22 10.94C13.33 10.68 13.42 10.4 13.48 10.13C13.56 9.77 13.6 9.4 13.6 9.02L13.6 4.23L10.89 4.23C10.82 4.23 10.74 4.22 10.67 4.21C10.61 4.2 10.55 4.18 10.49 4.15C10.43 4.13 10.37 4.1 10.32 4.07C10.26 4.03 10.21 3.99 10.16 3.94C10.11 3.9 10.06 3.85 10.02 3.8C9.98 3.74 9.95 3.69 9.92 3.63C9.88 3.57 9.86 3.51 9.84 3.44C9.82 3.38 9.8 3.29 9.8 3.22C9.8 3.22 9.79 3.12 9.79 3.11C9.79 3.03 9.8 2.96 9.81 2.88C9.83 2.81 9.85 2.74 9.88 2.68C9.9 2.61 9.94 2.55 9.97 2.49C10.01 2.43 10.06 2.37 10.11 2.32C10.16 2.27 10.22 2.22 10.28 2.18C10.34 2.14 10.4 2.11 10.46 2.08C10.53 2.05 10.59 2.03 10.66 2.02C10.74 2 10.81 2 10.89 2L14.7 2C14.77 2 14.85 2 14.92 2.02C14.99 2.03 15.06 2.05 15.12 2.08C15.19 2.11 15.25 2.14 15.3 2.18C15.36 2.22 15.42 2.27 15.47 2.32C15.52 2.37 15.57 2.43 15.61 2.49C15.65 2.55 15.68 2.61 15.71 2.68C15.73 2.74 15.76 2.81 15.77 2.88C15.79 2.96 15.79 3.03 15.79 3.11L15.79 9.02C15.79 9.55 15.74 10.06 15.63 10.56C15.54 10.97 15.42 11.36 15.27 11.75C15.1 12.15 14.91 12.53 14.68 12.89C14.44 13.29 14.15 13.66 13.82 14C13.49 14.35 13.13 14.66 12.75 14.93C12.41 15.17 12.05 15.37 11.67 15.55C11.28 15.73 10.88 15.87 10.47 15.98C10.2 16.04 9.93 16.1 9.66 16.13C9.67 16.31 9.69 16.49 9.73 16.67C9.78 16.91 9.86 17.14 9.96 17.37C10.03 17.55 10.12 17.72 10.23 17.89C10.39 18.15 10.58 18.39 10.8 18.61C10.97 18.78 11.15 18.93 11.34 19.06C11.56 19.21 11.8 19.34 12.06 19.45C12.26 19.53 12.46 19.6 12.66 19.65C12.97 19.72 13.29 19.76 13.61 19.76C13.91 19.76 14.2 19.73 14.49 19.66C14.69 19.62 14.88 19.56 15.07 19.49C15.32 19.39 15.55 19.27 15.77 19.13C15.95 19.01 16.13 18.88 16.29 18.73C16.51 18.53 16.71 18.31 16.88 18.07C16.98 17.92 17.07 17.76 17.15 17.6C17.27 17.38 17.36 17.15 17.43 16.91C17.49 16.68 17.53 16.45 17.55 16.21C17.56 16.13 17.58 16.06 17.6 15.98C17.62 15.91 17.65 15.85 17.68 15.79C17.71 15.72 17.75 15.67 17.79 15.61C17.84 15.55 17.89 15.5 17.95 15.45C18 15.41 18.06 15.37 18.13 15.33C18.19 15.3 18.25 15.27 18.31 15.25C18.38 15.23 18.45 15.21 18.52 15.2C18.6 15.2 18.67 15.19 18.75 15.2C18.83 15.21 18.9 15.22 18.97 15.25C19.04 15.27 19.1 15.3 19.17 15.33C19.23 15.36 19.28 15.4 19.34 15.45C19.39 15.49 19.44 15.54 19.49 15.6C19.54 15.66 19.58 15.72 19.61 15.78C19.65 15.84 19.67 15.91 19.69 15.98C19.71 16.04 19.73 16.11 19.74 16.18C19.75 16.26 19.75 16.34 19.74 16.42C19.7 16.81 19.63 17.19 19.53 17.55C19.42 17.92 19.28 18.28 19.11 18.62C18.96 18.9 18.8 19.17 18.62 19.42C18.37 19.77 18.08 20.1 17.76 20.39C17.49 20.63 17.21 20.85 16.91 21.04C16.58 21.25 16.24 21.42 15.87 21.57C15.55 21.69 15.23 21.79 14.9 21.86C14.48 21.95 14.05 22 13.61 22C13.14 22 12.67 21.94 12.22 21.84C11.88 21.76 11.55 21.65 11.22 21.51C10.83 21.35 10.47 21.16 10.13 20.93C9.82 20.71 9.53 20.47 9.26 20.2C8.93 19.88 8.65 19.52 8.41 19.14C8.23 18.86 8.07 18.56 7.94 18.25C7.79 17.89 7.67 17.53 7.59 17.15C7.51 16.79 7.47 16.43 7.46 16.06C7.22 16.02 6.99 15.96 6.76 15.89C6.35 15.77 5.96 15.6 5.57 15.4C5.22 15.22 4.88 15 4.56 14.76C4.21 14.49 3.88 14.18 3.57 13.84C3.27 13.5 3 13.13 2.77 12.75C2.56 12.4 2.38 12.03 2.23 11.65C2.09 11.28 1.98 10.9 1.9 10.52C1.8 10.03 1.75 9.53 1.75 9.02L1.75 3.11C1.75 3.03 1.75 2.96 1.77 2.88C1.78 2.81 1.8 2.74 1.83 2.68C1.86 2.61 1.89 2.55 1.93 2.49C1.97 2.43 2.01 2.37 2.07 2.32C2.12 2.27 2.17 2.22 2.23 2.18C2.29 2.14 2.35 2.11 2.42 2.08C2.48 2.05 2.55 2.03 2.62 2.02C2.69 2 2.77 2 2.84 2L6.66 2C6.74 2 6.81 2 6.89 2.02C6.96 2.03 7.02 2.06 7.09 2.08C7.15 2.11 7.21 2.14 7.27 2.18C7.33 2.22 7.38 2.27 7.44 2.32C7.49 2.37 7.53 2.43 7.57 2.49C7.61 2.55 7.64 2.61 7.67 2.68C7.7 2.74 7.72 2.81 7.73 2.88C7.75 2.96 7.76 3.03 7.76 3.11Z" fill="var(--aui-first-color,  rgba(0,103,209,1))" fill-opacity="1.000000" fill-rule="evenodd"/>
		<circle id="ic_ict_detection_2_6" cx="19.250000" cy="15.000000" r="3.000000" fill="var(--aui-first-color,  rgba(0,103,209,1))" fill-opacity="1.000000"/>
	</g>
</svg>
