<svg viewBox="0 0 24 24" xmlns="http://www.w3.org/2000/svg" xmlns:xlink="http://www.w3.org/1999/xlink">
	<defs>
		<clipPath id="clip377_46763">
			<rect id="color-icon-private-vehicle-allowance" width="24.000000" height="24.000000" fill="white" fill-opacity="0"/>
		</clipPath>
	</defs>
	<g clip-path="url(#clip377_46763)">
		<path id="减去顶层" d="M19.5925 4.48756C19.4473 4.34632 19.2893 4.2269 19.1182 4.1293C18.9478 4.03236 18.7625 3.95584 18.5664 3.90208C16.4236 3.31266 14.2786 3.01199 12.1326 3.00037C12.0894 3.00012 12.0461 3 12.0032 3C9.8125 3 7.62134 3.3011 5.42969 3.90331C5.23242 3.95789 5.0481 4.03428 4.87695 4.13244C4.70752 4.22979 4.5498 4.34899 4.40601 4.48916C4.26196 4.62954 4.13965 4.78258 4.03931 4.94834C3.93848 5.11523 3.85938 5.29583 3.80273 5.48841L2.15625 11.1132C2.06909 11.1699 1.98608 11.2314 1.90698 11.2976C1.7854 11.3997 1.67285 11.5134 1.5708 11.6379C1.46924 11.7615 1.3811 11.892 1.30591 12.0294C1.23584 12.1577 1.17554 12.2955 1.12866 12.4358C1.0813 12.5769 1.04688 12.7199 1.02563 12.8648C1.00195 13.0275 0.994385 13.1964 1.00366 13.3636L1.33813 19.4709C1.34961 19.6815 1.40088 19.8818 1.49219 20.0718C1.58057 20.2553 1.7002 20.4171 1.85083 20.557C2.00171 20.6969 2.17334 20.805 2.36548 20.8814C2.45898 20.9186 2.55469 20.9471 2.6521 20.9668C2.76123 20.9889 2.8728 21 2.98682 21L5.8667 21C6.00366 21 6.12329 20.9709 6.22559 20.9127C6.32788 20.8546 6.41309 20.7674 6.48096 20.6511L7.22095 19.3845L9.71265 19.3845L9.71338 19.3241C9.71191 18.8452 9.79492 18.4025 9.96216 17.9959C10.105 17.6484 10.3096 17.3273 10.5757 17.0325C10.6318 16.9705 10.6907 16.9094 10.7527 16.8493L8.69775 16.8508C8.30151 16.8511 7.98999 16.5466 7.9895 16.1589C7.98926 15.7712 8.30054 15.4665 8.69678 15.4661L12.3469 15.4636C12.345 15.459 12.3433 15.4544 12.3413 15.4498L12.2947 15.3212C12.252 15.1953 12.2175 15.0677 12.1914 14.9383C12.1406 14.688 12.1211 14.4312 12.1326 14.1678C12.147 13.8343 12.2217 13.4886 12.333 13.193C12.3611 12.6025 12.4626 12.0588 12.6375 11.562C12.8237 11.0326 13.103 10.5541 13.4426 10.1636C13.5061 10.0917 13.5715 10.0227 13.6394 9.9566C13.0784 9.93425 12.5317 9.92308 11.9998 9.92308C9.69897 9.92308 7.1272 10.132 4.28418 10.5499L5.6167 5.99719C5.62793 5.95933 5.64331 5.92393 5.66309 5.89099C5.72119 5.83444 5.86353 5.70187 5.94165 5.68023C7.96533 5.12417 9.98584 4.84613 12.0032 4.84613C14.019 4.84613 16.0369 5.12394 18.0566 5.67956C18.1353 5.70113 18.2039 5.74016 18.2617 5.79658C18.3198 5.85294 18.3599 5.91969 18.3826 5.99676L19.5488 9.98157C19.613 10.0449 19.6741 10.1084 19.7278 10.1674C20.0671 10.5532 20.3308 11.0081 20.519 11.532C20.7002 12.0362 20.8052 12.5877 20.834 13.1863C20.853 13.2335 20.8708 13.2812 20.8875 13.3294C20.9739 13.5814 21.0247 13.8462 21.0396 14.1237C21.0461 14.2422 21.0459 14.3603 21.0388 14.478C21.0249 14.7175 20.9832 14.9553 20.9138 15.1914L20.8777 15.3063C20.8264 15.4569 20.7666 15.6005 20.6982 15.7372C21.0571 15.9032 21.3738 16.0742 21.6482 16.2501C22.0225 16.4899 22.3362 16.7496 22.5896 17.0293C22.658 17.1047 22.7222 17.1818 22.7825 17.2606L22.9958 13.3641C23.0134 13.0462 22.9717 12.7368 22.8708 12.4358C22.8237 12.2954 22.7654 12.1612 22.6953 12.0328C22.6201 11.8951 22.5303 11.7618 22.4287 11.6379C22.2603 11.4325 22.0649 11.2575 21.843 11.1132L20.1968 5.48872C20.1404 5.29616 20.0618 5.11638 19.9612 4.94951C19.8604 4.7827 19.7375 4.62874 19.5925 4.48756ZM3.98071 16.8508L6.81128 16.8462C7.20776 16.8455 7.51855 16.5404 7.51782 16.1527C7.51709 15.765 7.20532 15.4609 6.80908 15.4615L3.97827 15.4661C3.58203 15.4668 3.27124 15.7719 3.27197 16.1596C3.27246 16.5473 3.58447 16.8514 3.98071 16.8508Z" clip-rule="evenodd" fill="var(--aui-second-color,  rgba(0,103,209,0.7))" fill-opacity="1.000000" fill-rule="evenodd"/>
		<path id="矢量 288" d="M14.4 11.15C13.99 11.68 13.79 12.45 13.79 13.34C13.7 13.47 13.63 13.62 13.6 13.8C13.59 13.86 13.58 13.93 13.58 13.99C13.57 14.18 13.6 14.36 13.67 14.55C13.74 14.77 13.85 14.95 14 15.1C14.1 15.21 14.21 15.29 14.33 15.36C14.38 15.44 14.5 15.61 14.55 15.69C14.65 15.81 14.71 15.92 14.75 16.02C14.78 16.08 14.8 16.14 14.8 16.17C14.79 16.2 14.76 16.23 14.68 16.27C14.58 16.32 14.36 16.41 14.01 16.54C13.63 16.68 13.34 16.79 13.13 16.88C12.77 17.03 12.47 17.19 12.21 17.35C11.62 17.73 11.26 18.16 11.14 18.66C11.1 18.79 11.08 18.93 11.08 19.08L11.08 19.36C11.08 19.57 11.08 19.73 11.08 19.83C11.09 20.03 11.12 20.19 11.16 20.32C11.23 20.52 11.34 20.68 11.49 20.8C11.65 20.92 11.87 20.99 12.11 21L21.06 20.99C21.3 20.99 21.5 20.92 21.66 20.8C21.82 20.68 21.93 20.52 22 20.32C22.04 20.19 22.07 20.03 22.07 19.83C22.08 19.73 22.08 19.57 22.08 19.36C22.07 19.23 22.07 19.14 22.07 19.08C22.07 18.93 22.06 18.79 22.02 18.66C21.9 18.17 21.54 17.73 20.94 17.35C20.69 17.19 20.38 17.03 20.02 16.88C19.82 16.79 19.53 16.68 19.14 16.54C18.8 16.41 18.58 16.32 18.48 16.27C18.4 16.23 18.36 16.2 18.36 16.18C18.36 16.14 18.37 16.1 18.39 16.04C18.43 15.95 18.52 15.8 18.6 15.69C18.68 15.58 18.76 15.47 18.83 15.35C18.95 15.29 19.06 15.21 19.16 15.1C19.19 15.07 19.22 15.03 19.25 14.99C19.35 14.86 19.43 14.72 19.49 14.55C19.56 14.36 19.58 14.18 19.58 13.99C19.57 13.93 19.57 13.86 19.55 13.8C19.52 13.62 19.46 13.41 19.37 13.28C19.37 12.39 19.16 11.68 18.76 11.15C18.64 11 18.51 10.87 18.37 10.75C18.22 10.63 18.04 10.53 17.86 10.44C17.49 10.28 17.06 10.2 16.58 10.2C16.1 10.2 15.67 10.28 15.3 10.44C15.11 10.53 14.94 10.63 14.78 10.75C14.64 10.87 14.51 11 14.4 11.15Z" fill="var(--aui-first-color,  rgba(0,103,209,1))" fill-opacity="1.000000" fill-rule="evenodd"/>
	</g>
</svg>
