<svg viewBox="0 0 24 24" xmlns="http://www.w3.org/2000/svg" xmlns:xlink="http://www.w3.org/1999/xlink">
	<defs>
		<clipPath id="clip28_16783">
			<rect id="color-icon-professional-terminology" width="24.000000" height="24.000000" fill="white" fill-opacity="0"/>
		</clipPath>
	</defs>
	<g clip-path="url(#clip28_16783)">
		<path id="减去顶层" d="M12.0024 1.99999C13.0288 1.99999 14.019 2.15374 14.9514 2.4394C15.1152 2.75419 15.2703 3.07283 15.417 3.39521C15.77 4.1711 16.074 4.96932 16.3286 5.78986C15.8748 5.88793 15.4182 5.97034 14.9597 6.03706C13.9836 6.17902 12.9976 6.25001 12.001 6.25001C11.0132 6.25001 10.0344 6.1801 9.06665 6.04061C8.59985 5.97331 8.1355 5.88978 7.67334 5.79002C7.92749 4.9722 8.23022 4.1765 8.58154 3.40299C8.72925 3.07825 8.88525 2.75741 9.05005 2.44048C9.23389 2.38408 9.41992 2.3328 9.60815 2.28683C9.85938 2.22547 10.1143 2.17355 10.3723 2.13146C10.7629 2.06811 11.1614 2.02656 11.5657 2.00932C11.7104 2.00312 11.8562 1.99999 12.0024 1.99999ZM17.0334 3.34769C17.8044 3.79437 18.51 4.34055 19.1328 4.96859C18.7673 5.10455 18.4001 5.22993 18.0376 5.34272C17.9534 5.36875 17.8689 5.39422 17.7842 5.41914C17.5676 4.71338 17.3174 4.02288 17.0334 3.34769ZM4.86963 4.97121C5.49219 4.34307 6.19727 3.79675 6.96777 3.34985C6.68408 4.02447 6.43433 4.71434 6.21802 5.41946C6.12598 5.3924 6.03418 5.36471 5.94263 5.33636C5.58179 5.22468 5.22412 5.10296 4.86963 4.97121ZM20.1594 6.182C21.2002 7.63053 21.8625 9.36779 22.0024 11.25L19.2915 11.25C19.1135 11.1991 18.9321 11.1555 18.7483 11.1198C18.7073 10.0447 18.5906 8.9834 18.3987 7.93598C18.3333 7.57821 18.2588 7.22205 18.1755 6.86752C18.3074 6.82894 18.439 6.78913 18.5698 6.74809C19.1062 6.58009 19.636 6.3914 20.1594 6.182ZM17.2419 11.0051C17.1968 10.0349 17.0833 9.06235 16.9072 8.11935C16.8518 7.82481 16.7903 7.53147 16.7222 7.23934C16.1929 7.35566 15.6606 7.4521 15.1257 7.52866L15.1194 7.52955C14.0906 7.67652 13.051 7.75001 12.001 7.75001C10.9578 7.75001 9.92456 7.67745 8.90186 7.53233C8.3584 7.45521 7.81763 7.3576 7.28003 7.23949C7.20996 7.5396 7.14673 7.84156 7.09033 8.14419C6.90015 9.16513 6.78662 10.2004 6.75 11.25L15.7085 11.25C16.1985 11.1099 16.7122 11.0257 17.2419 11.0051ZM13.063 12.75L6.75 12.75C6.78662 13.8007 6.90015 14.837 7.09082 15.859C7.14697 16.1601 7.21021 16.4617 7.27979 16.7603C7.80859 16.6441 8.34033 16.5478 8.87476 16.4713C9.61646 16.3651 10.364 16.2972 11.1167 16.2674C11.3809 14.8914 12.0789 13.6696 13.063 12.75ZM11.0056 17.7737C10.3486 17.8051 9.69629 17.8678 9.04834 17.9618L9.04077 17.9629C8.58276 18.0295 8.12671 18.1118 7.67334 18.2098C7.92798 19.0303 8.23193 19.8284 8.58472 20.6043C8.73145 20.9265 8.88647 21.2449 9.05005 21.5595C9.47925 21.6912 9.9209 21.795 10.3726 21.8686C10.5723 21.9011 10.7739 21.9278 10.9773 21.9484C11.3142 21.9825 11.6562 22 12.0024 22C12.158 22 12.3125 21.9965 12.4663 21.9895C12.5715 21.9847 12.6768 21.9783 12.7812 21.9703C11.7356 20.8669 11.073 19.3972 11.0056 17.7737ZM21.998 12.8077C21.9995 12.7885 22.0012 12.7693 22.0024 12.75L21.9373 12.75C21.9575 12.7691 21.9778 12.7884 21.998 12.8077ZM2.00244 11.25C2.14233 9.36843 2.80444 7.63173 3.84448 6.18349C4.37549 6.39576 4.91309 6.58672 5.45752 6.75639C5.58008 6.79461 5.70312 6.83176 5.82642 6.86782C5.74292 7.22359 5.66846 7.58102 5.60254 7.94003C5.40332 9.02845 5.28564 10.1318 5.24927 11.25L2.00244 11.25ZM3.84448 17.8165C2.80444 16.3683 2.14233 14.6316 2.00244 12.75L5.24927 12.75C5.28564 13.8697 5.40381 14.9747 5.60352 16.0645C5.66895 16.4219 5.74316 16.7777 5.82642 17.132C5.15576 17.3281 4.49512 17.5563 3.84448 17.8165ZM6.96777 20.6501C6.19727 20.2032 5.49194 19.6569 4.86963 19.0287C5.31396 18.8635 5.76343 18.714 6.21777 18.5803C6.43408 19.2854 6.68408 19.9755 6.96777 20.6501Z" clip-rule="evenodd" fill="var(--aui-second-color,  rgba(0,103,209,0.7))" fill-opacity="1.000000" fill-opacity="1.000000" fill-rule="evenodd"/>
		<path id="减去顶层" d="M17.499 12.5C14.7375 12.5 12.499 14.7386 12.499 17.5C12.499 20.2614 14.7375 22.5 17.499 22.5C20.2605 22.5 22.499 20.2614 22.499 17.5C22.499 14.7386 20.2605 12.5 17.499 12.5ZM18.9114 20.6359L18.5845 19.7501L16.4141 19.7501L16.0903 20.6342C15.9458 21.0286 15.5225 21.225 15.1282 21.0805C14.7336 20.9361 14.5374 20.5127 14.6819 20.1183L16.7886 14.3664C16.8074 14.3148 16.8313 14.2663 16.8601 14.221C16.8892 14.1757 16.9229 14.1336 16.9617 14.0946C17.0005 14.0557 17.0427 14.0217 17.0879 13.9927C17.1331 13.9638 17.1814 13.9397 17.2332 13.9207C17.3303 13.8849 17.4265 13.8688 17.5222 13.8726L17.5222 13.8726C17.6179 13.8763 17.7126 13.8999 17.8066 13.9432C17.9006 13.9866 17.9802 14.0434 18.0452 14.1136C18.1101 14.1839 18.1604 14.2676 18.1963 14.3647L20.3186 20.1167C20.4639 20.5107 20.2686 20.9345 19.8745 21.0799C19.4805 21.2253 19.0566 21.0299 18.9114 20.6359ZM17.4954 16.798L18.031 18.2501L16.9634 18.2501L17.4954 16.798Z" clip-rule="evenodd" fill="var(--aui-first-color,  rgba(0,103,209,1))" fill-opacity="1.000000" fill-opacity="1.000000" fill-rule="evenodd"/>
	</g>
</svg>
