<svg viewBox="0 0 24 24" xmlns="http://www.w3.org/2000/svg" xmlns:xlink="http://www.w3.org/1999/xlink">
	<defs>
		<clipPath id="clip474_143476">
			<rect id="color-icon-reception-reimburse-form" width="24.000000" height="24.000000" fill="white" fill-opacity="0"/>
		</clipPath>
	</defs>
	<g clip-path="url(#clip474_143476)">
		<path id="path" d="M1.64 14.97L2.79 14.97L3.59 13.93C4.31 13 5.61 12.88 6.48 13.64C6.79 13.93 7.04 14.31 7.15 14.73C7.84 14.92 8.38 15.49 8.58 16.23C9.07 16.39 9.52 16.72 9.77 17.22C10.19 17.29 10.6 17.5 10.91 17.84C11.56 18.57 11.69 19.66 11.2 20.54L11.09 20.75L11.09 20.78C11.63 21.15 12.34 21.04 12.72 20.47C12.9 20.18 12.97 19.85 12.9 19.52L12.9 19.5L12.92 19.5L13.01 19.59C13.42 20.02 14.07 20.09 14.54 19.76C14.92 19.47 15.09 18.97 15.01 18.5L15.01 18.48L15.03 18.48L15.12 18.57C15.52 19 16.15 19.07 16.64 18.74C17.02 18.45 17.22 17.96 17.13 17.48L17.13 17.46L17.15 17.46L17.24 17.55C17.62 17.96 18.23 18.03 18.68 17.74C19.24 17.39 19.41 16.63 19.08 16.04C19.03 15.96 18.99 15.89 18.94 15.85L18.23 14.92L12.43 7.46C12.36 7.38 12.27 7.36 12.19 7.41L9.41 9.04C8.52 9.57 7.46 9.66 6.5 9.28C5.96 9.09 5.56 8.64 5.36 8.1C5.2 7.53 5.27 6.91 5.56 6.41C5.63 6.27 5.58 6.1 5.45 6.03C5.4 6.01 5.36 6.01 5.31 6.01L1.53 6.01C1.24 6.01 1 6.25 1 6.56L1 14.45C1.11 14.73 1.35 14.97 1.64 14.97Z" fill="var(--aui-first-color,  rgba(0,103,209,1))" fill-opacity="1.000000" fill-rule="nonzero"/>
		<path id="path" d="M6.66 6.89L10.48 3.81C11.54 2.98 12.92 2.76 14.13 3.26L20.22 5.73C20.62 5.89 21.05 5.96 21.45 5.96L22.46 5.96C22.75 5.96 23 6.2 23 6.51L23 14.42C23 14.73 22.75 14.99 22.46 14.99L21.14 14.99C20.96 14.99 20.76 15.06 20.62 15.18L20.33 15.44C20.26 15.51 20.15 15.49 20.09 15.42L12.99 6.27C12.81 6.03 12.5 5.99 12.25 6.13L9.01 8.05C8.36 8.43 7.58 8.47 6.88 8.17C6.52 8 6.34 7.55 6.5 7.15C6.5 7.05 6.57 6.96 6.66 6.89ZM5.67 14.4C5.22 14.14 4.69 14.26 4.37 14.68L3.59 15.7C3.26 16.15 3.3 16.82 3.73 17.17L3.75 17.17L3.86 17.27C4.17 17.53 4.62 17.55 4.96 17.36C4.98 17.34 5 17.36 5.02 17.39L5.02 17.43C4.96 17.81 5.09 18.22 5.38 18.45L5.47 18.52C5.78 18.78 6.19 18.81 6.55 18.64C6.57 18.62 6.61 18.64 6.61 18.67L6.61 18.69C6.57 19.05 6.72 19.4 6.99 19.64L7.06 19.69C7.37 19.95 7.78 19.99 8.13 19.78C8.16 19.76 8.2 19.78 8.2 19.8L8.2 19.83C8.25 20.09 8.38 20.33 8.58 20.49L8.63 20.51C9.07 20.87 9.7 20.8 10.04 20.33C10.06 20.28 10.1 20.23 10.13 20.21L10.26 19.95C10.51 19.5 10.44 18.95 10.08 18.6C9.79 18.31 9.37 18.24 8.98 18.41C8.96 18.41 8.96 18.41 8.94 18.38L8.94 18.36C8.96 17.79 8.54 17.29 8 17.24C7.87 17.24 7.73 17.27 7.6 17.32C7.44 17.34 7.49 17.2 7.49 17.2C7.69 16.65 7.46 16.06 6.95 15.82C6.68 15.7 6.34 15.73 6.1 15.87C5.99 15.89 6.01 15.77 6.01 15.77C6.3 15.32 6.14 14.68 5.67 14.4Z" fill="var(--aui-second-color,  rgba(0,103,209,0.7))" fill-opacity="1.000000" fill-rule="nonzero"/>
	</g>
</svg>
