<svg viewBox="0 0 24 24" xmlns="http://www.w3.org/2000/svg" xmlns:xlink="http://www.w3.org/1999/xlink">
	<defs>
		<clipPath id="clip474_143123">
			<rect id="color-icon-reimbursement-form" width="24.000000" height="24.000000" fill="white" fill-opacity="0"/>
		</clipPath>
	</defs>
	<g clip-path="url(#clip474_143123)">
		<path id="减去顶层" d="M20 11.2322L20 6C20 4.34351 18.6577 3.00073 17.001 3L17.0015 4.99988C17.0015 5.82837 16.3296 6.5 15.5015 6.5L6.50146 6.5C5.67285 6.5 5.00146 5.82837 5.00146 5L5.00146 3L5 3C3.34326 3 2 4.34314 2 6L2 18C2 19.6569 3.34326 21 5 21L11.876 21C11.0137 19.897 10.5 18.5085 10.5 17C10.5 16.1141 10.6772 15.2695 10.998 14.5L5.75 14.5C5.33594 14.5 5 14.1642 5 13.75C5 13.3358 5.33594 13 5.75 13L11.876 13C13.0659 11.4783 14.9185 10.5 17 10.5C18.082 10.5 19.1025 10.7644 20 11.2322ZM16.25 9L5.75 9C5.33594 9 5 9.33582 5 9.75C5 10.1642 5.33594 10.5 5.75 10.5L16.25 10.5C16.6641 10.5 17 10.1642 17 9.75C17 9.33582 16.6641 9 16.25 9Z" clip-rule="evenodd" fill="var(--aui-second-color,  rgba(0,103,209,0.7))" fill-opacity="1.000000" fill-rule="evenodd"/>
		<path id="矩形备份 4" d="M7.5 2L14.5 2C15.05 2 15.5 2.44 15.5 3L15.5 4C15.5 4.55 15.05 5 14.5 5L7.5 5C6.94 5 6.5 4.55 6.5 4L6.5 3C6.5 2.44 6.94 2 7.5 2Z" fill="var(--aui-second-color,  rgba(0,103,209,0.7))" fill-opacity="0.5" fill-rule="evenodd"/>
		<path id="减去顶层" d="M17 12C14.2388 12 12 14.2385 12 17C12 19.7615 14.2388 22 17 22C19.7612 22 22 19.7615 22 17C22 14.2385 19.7612 12 17 12ZM16.7339 19.0531L20.0068 16.0531C20.3164 15.7693 20.3364 15.303 20.0527 14.9934C19.769 14.6838 19.3027 14.6635 18.9932 14.9473L16.2134 17.4951L14.9917 16.434C14.6748 16.1586 14.209 16.1913 13.9336 16.5084C13.6582 16.8254 13.6909 17.291 14.0083 17.5664L15.7354 19.0664C15.8794 19.1914 16.0464 19.2527 16.2373 19.2501Q16.3799 19.2482 16.5044 19.199Q16.6284 19.1497 16.7339 19.0531Z" clip-rule="evenodd" fill="var(--aui-first-color,  rgba(0,103,209,1))" fill-opacity="1.000000" fill-rule="evenodd"/>
		<path id="矢量 342 (边框)" d="M20 16.05L16.73 19.05C16.59 19.18 16.42 19.24 16.23 19.24C16.04 19.25 15.87 19.19 15.73 19.06L14 17.56C13.69 17.29 13.65 16.82 13.93 16.5C14.2 16.19 14.67 16.15 14.99 16.43L16.21 17.49L18.99 14.94C19.3 14.66 19.76 14.68 20.05 14.99C20.33 15.3 20.31 15.76 20 16.05Z" fill="var(--aui-second-color,  rgba(0,103,209,0.7))" fill-opacity="0.5" fill-rule="evenodd"/>
	</g>
</svg>
