<svg viewBox="0 0 24 24" xmlns="http://www.w3.org/2000/svg" xmlns:xlink="http://www.w3.org/1999/xlink">
	<defs>
		<clipPath id="clip377_46664">
			<rect id="color-icon-service-charges" width="24.000000" height="24.000000" fill="white" fill-opacity="0"/>
		</clipPath>
	</defs>
	<g clip-path="url(#clip377_46664)">
		<path id="矢量 334" d="M1 9.5L23 9.5L23 18C23 19.65 21.68 21 20.06 21L3.93 21C2.31 21 1 19.65 1 18L1 9.5ZM9 13L6 13C5.44 13 5 13.44 5 14L5 17C5 17.55 5.44 18 6 18L9 18C9.55 18 10 17.55 10 17L10 14C10 13.44 9.55 13 9 13Z" fill="var(--aui-first-color,  rgba(0,103,209,1))" fill-opacity="1.000000" fill-rule="evenodd"/>
		<path id="矢量 334" d="M3.93 3L20.06 3C21.68 3 23 4.34 23 6L23 8L1 8L1 6C1 4.34 2.31 3 3.93 3Z" fill="var(--aui-second-color,  rgba(0,103,209,0.7))" fill-opacity="1.000000" fill-rule="evenodd"/>
	</g>
</svg>
