<svg viewBox="0 0 24 24" xmlns="http://www.w3.org/2000/svg" xmlns:xlink="http://www.w3.org/1999/xlink">
	<defs>
		<clipPath id="clip28_16799">
			<rect id="ic_public_share_arrow" width="24.000000" height="24.000000" fill="white" fill-opacity="0"/>
		</clipPath>
	</defs>
	<g clip-path="url(#clip28_16799)">
		<path id="减去顶层" d="M14 3.37024L4.00098 3.37024C2.34424 3.37024 1.00098 4.71338 1.00098 6.37024L1.00098 18.3702C1.00098 20.0271 2.34424 21.3702 4.00098 21.3702L18.001 21.3702C19.6577 21.3702 21.001 20.0271 21.001 18.3702L21.001 12.8571L18.001 15.2148L18.001 16.8702C18.001 17.6987 17.3293 18.3702 16.501 18.3702L5.50098 18.3702C4.67261 18.3702 4.00098 17.6987 4.00098 16.8702L4.00098 7.87024C4.00098 7.04181 4.67261 6.37024 5.50098 6.37024L8.88306 6.37024C10.2344 5.10774 11.8982 4.34928 13.9106 4.12831L14 4.1194L14 3.37024L14 3.37024Z" clip-rule="evenodd" fill="var(--aui-second-color,  rgba(0,103,209,0.7))" fill-opacity="1.000000" fill-opacity="1.000000" fill-rule="evenodd"/>
		<path id="矢量 363" d="M15.95 13.14L15.95 10.72C15.19 10.64 14.32 10.79 13.35 11.18C12.06 11.69 10.6 12.62 8.97 13.95C8.92 13.98 8.88 14.01 8.82 14.04C8.77 14.06 8.72 14.08 8.66 14.1C8.55 14.12 8.43 14.12 8.32 14.09C8.12 14.04 7.96 13.93 7.85 13.75C7.75 13.58 7.72 13.39 7.77 13.19C8.4 10.57 9.47 8.62 10.96 7.36C11.31 7.06 11.68 6.8 12.07 6.58C13.19 5.95 14.48 5.63 15.95 5.61L15.95 3.37C15.95 3.32 15.96 3.28 15.96 3.23C15.97 3.19 15.98 3.14 16 3.1C16.03 3.02 16.08 2.94 16.14 2.87C16.27 2.72 16.44 2.63 16.65 2.62C16.86 2.6 17.04 2.66 17.19 2.8L23.08 7.94C23.21 8.1 23.26 8.28 23.24 8.49C23.22 8.69 23.13 8.86 22.97 8.99L17.18 13.72C17.11 13.78 17.03 13.82 16.95 13.85C16.87 13.88 16.79 13.89 16.7 13.89C16.6 13.89 16.5 13.87 16.41 13.84C16.33 13.8 16.24 13.74 16.17 13.67C16.02 13.52 15.95 13.35 15.95 13.14Z" fill="var(--aui-first-color,  rgba(0,103,209,1))" fill-opacity="1.000000" fill-opacity="1.000000" fill-rule="evenodd"/>
	</g>
</svg>
