<svg viewBox="0 0 24 24" xmlns="http://www.w3.org/2000/svg" xmlns:xlink="http://www.w3.org/1999/xlink">
	<defs>
		<clipPath id="clip474_143273">
			<rect id="color-icon-ship" width="24.000000" height="24.000000" fill="white" fill-opacity="0"/>
		</clipPath>
	</defs>
	<g clip-path="url(#clip474_143273)">
		<path id="形状结合-path" d="M16.61 18.76C17.29 19.69 18.5 20.28 19.84 20.28C20.22 20.28 20.59 20.23 20.95 20.14C21.4 20.02 21.85 20.29 21.97 20.74C22.08 21.18 21.82 21.64 21.37 21.75C20.88 21.88 20.36 21.95 19.84 21.95C18.35 21.95 16.95 21.41 15.94 20.5C14.93 21.44 13.52 22 12 22C10.54 22 9.17 21.48 8.16 20.59L8.07 20.51C7.06 21.42 5.66 21.95 4.18 21.95C3.64 21.95 3.12 21.88 2.61 21.75C2.17 21.63 1.91 21.17 2.02 20.73C2.14 20.29 2.6 20.02 3.04 20.14C3.41 20.24 3.79 20.29 4.18 20.29C5.46 20.29 6.63 19.74 7.33 18.87C7.38 18.81 7.44 18.75 7.5 18.71L7.61 18.64C7.98 18.37 8.51 18.44 8.78 18.81C9.46 19.74 10.67 20.33 12 20.33C13.25 20.33 14.39 19.81 15.09 18.99L15.24 18.79C15.3 18.71 15.36 18.64 15.44 18.58C15.81 18.31 16.34 18.39 16.61 18.76Z" fill="var(--aui-second-color,  rgba(0,103,209,0.7))" fill-opacity="0.5" fill-rule="evenodd"/>
		<path id="形状结合-path" d="M11.33 10.21C11.25 10.32 11.19 10.45 11.17 10.6L11.16 10.71L11.16 19.11C10.67 18.98 10.25 18.75 9.92 18.44L9.79 18.3L9.67 18.16L9.56 18.02C8.94 17.32 7.9 17.16 7.1 17.65L6.95 17.74L6.92 17.76L6.78 17.86L6.66 17.97L6.66 17.97L6.55 18.07L6.46 18.18L6.34 18.31C5.84 18.85 5.05 19.17 4.18 19.17C4.03 19.17 3.89 19.16 3.75 19.15L3.53 19.11L3.49 19.1L3.27 18.57L2.16 15.28C1.81 14.25 2.32 13.13 3.31 12.7L3.47 12.64L11.33 10.21Z" fill="var(--aui-first-color,  rgba(0,103,209,1))" fill-opacity="1.000000" fill-rule="evenodd"/>
		<path id="形状结合-path" d="M12.65 10.2L20.47 12.45C21.46 12.74 22.09 13.71 21.96 14.72L21.93 14.89L21.14 18.56L20.99 19.01L20.84 19.03L20.67 19.06L20.47 19.11C20.26 19.15 20.05 19.17 19.83 19.17C19.01 19.17 18.25 18.87 17.75 18.39L17.62 18.25L17.5 18.1L17.39 17.96C16.73 17.22 15.6 17.09 14.79 17.69C14.65 17.79 14.53 17.9 14.42 18.04L14.32 18.17L14.22 18.3L14.09 18.43C13.77 18.75 13.33 18.99 12.83 19.12L12.83 10.71L12.82 10.6C12.8 10.45 12.74 10.31 12.65 10.2Z" fill="var(--aui-first-color,  rgba(0,103,209,1))" fill-opacity="1.000000" fill-rule="evenodd"/>
		<path id="形状结合-path" d="M13.1 2C13.82 2 14.41 2.54 14.49 3.24L14.49 3.39L14.49 4.69L16.44 4.69C18.21 4.69 19.66 6.08 19.76 7.83L19.77 8.02L19.77 11.09L12.88 9.11L12.58 9.04L12.33 9C11.99 8.97 11.64 8.99 11.31 9.06L11.06 9.13L4.22 11.24L4.22 8.02C4.22 6.25 5.6 4.8 7.35 4.7L7.55 4.69L9.49 4.69L9.49 3.39C9.49 2.67 10.04 2.07 10.74 2L10.88 2L13.1 2Z" fill="var(--aui-second-color,  rgba(0,103,209,0.7))" fill-opacity="1.000000" fill-rule="evenodd"/>
	</g>
</svg>
