<svg viewBox="0 0 24 24" xmlns="http://www.w3.org/2000/svg" xmlns:xlink="http://www.w3.org/1999/xlink">
	<defs>
		<clipPath id="clip377_46621">
			<rect id="color-icon-taxi-fares" width="24.000000" height="24.000000" fill="white" fill-opacity="0"/>
		</clipPath>
	</defs>
	<g clip-path="url(#clip377_46621)">
		<path id="path7" d="M20 13L18.46 6.01C18.36 5.54 18.08 5.18 17.72 5.04C15.81 4.34 13.9 4 12 4C10.09 4 8.18 4.34 6.27 5.04C5.91 5.18 5.63 5.54 5.53 6.01L4 13L20 13Z" fill="var(--aui-second-color,  rgba(0,103,209,0.7))"  fill-opacity="0.5" fill-rule="evenodd"/>
		<path id="减去顶层" d="M18.1223 4.07117C18.2534 4.11707 18.3782 4.17603 18.4963 4.24829C18.7012 4.37378 18.8867 4.53906 19.052 4.74414C19.1387 4.85144 19.2161 4.96497 19.2842 5.08496C19.4158 5.31592 19.5134 5.57056 19.5771 5.84875L20.823 11.2708C20.9199 11.3317 21.0627 11.4304 21.1489 11.5043C21.2769 11.6138 21.3928 11.7373 21.4971 11.8751C21.5757 11.979 21.6453 12.0879 21.7061 12.2017C21.7793 12.3392 21.8396 12.484 21.8867 12.6361C21.9255 12.7621 21.9543 12.8896 21.9734 13.0188C21.9971 13.1823 22.0046 13.3483 21.9961 13.5167C22.0039 13.6072 22.0017 13.7761 21.9968 13.8694L21.6855 20.1075C21.6606 20.608 21.2751 21 20.8083 21L17.6082 21C17.501 21 17.4011 20.9722 17.3088 20.9165C17.2166 20.8608 17.1445 20.785 17.0928 20.6892L16.3977 19.4L7.60303 19.4L6.90796 20.6892C6.87646 20.7474 6.83765 20.7982 6.79126 20.8417L6.70703 21L3.75928 21C3.66211 21 3.56665 20.9902 3.47314 20.9707C3.38208 20.9517 3.29321 20.9233 3.20581 20.8857C3.13306 20.8544 3.06372 20.8175 2.9978 20.775C2.91016 20.7188 2.82861 20.6527 2.75317 20.5768C2.69312 20.5165 2.63867 20.4518 2.59009 20.3831C2.55176 20.3217 2.47241 20.1895 2.44238 20.1219C2.4082 20.0448 2.38037 19.9658 2.35938 19.8851C2.33228 19.7815 2.31592 19.675 2.3103 19.5656L2.00464 13.5164C1.99683 13.3629 2.00244 13.2115 2.02148 13.0623C2.04028 12.9312 2.07446 12.764 2.11401 12.6361C2.1499 12.5204 2.19336 12.4088 2.24438 12.3015C2.2605 12.2678 2.2771 12.2346 2.29468 12.2018C2.35547 12.0879 2.42505 11.979 2.50366 11.8751C2.58081 11.7732 2.66431 11.6791 2.75439 11.5927C2.78589 11.5623 2.8186 11.5328 2.85181 11.5043C2.93799 11.4304 3.0293 11.3632 3.12646 11.3022L4.42358 5.84851C4.48779 5.57007 4.58569 5.31531 4.71753 5.08411C4.7854 4.96521 4.86206 4.85254 4.94775 4.74609C5.11255 4.54175 5.29688 4.37671 5.50122 4.2511C5.61938 4.17847 5.74414 4.1189 5.87549 4.07263C7.91846 3.35754 9.96094 3 12.0034 3C12.0408 3 12.0781 3.00012 12.1152 3.00037C14.1191 3.01318 16.1221 3.37024 18.1223 4.07117ZM4.9458 10.8213C7.54565 10.4071 9.89722 10.2 12.0005 10.2C14.1035 10.2 16.4551 10.4071 19.0549 10.8213L18.0205 6.31921C17.9949 6.20776 17.9282 6.07886 17.8694 5.99658C17.8127 5.92615 17.7219 5.86523 17.6511 5.83496C15.7666 5.17456 13.884 4.84436 12.0034 4.84436C10.1218 4.84436 8.21704 5.18237 6.32886 5.84326C6.25562 5.87341 6.16382 5.95923 6.10498 6.0321C6.04712 6.11377 6.00537 6.20959 5.98022 6.31958L4.9458 10.8213ZM7.00757 15L5.67749 15C5.29883 15 5.00122 15.3301 5.00122 15.7501C5.00122 16.17 5.29883 16.5 5.67749 16.5L7.00757 16.5C7.38623 16.5 7.68408 16.17 7.68408 15.7501C7.68408 15.3301 7.38623 15 7.00757 15ZM10.2539 16.5L13.7485 16.5C14.1272 16.5 14.4248 16.17 14.4248 15.7501C14.4248 15.3301 14.1272 15 13.7485 15L10.2539 15C9.87524 15 9.57764 15.3301 9.57764 15.7501C9.57764 16.17 9.87524 16.5 10.2539 16.5ZM16.9949 16.5L18.325 16.5C18.7036 16.5 19.0012 16.17 19.0012 15.7501C19.0012 15.3301 18.7036 15 18.325 15L16.9949 15C16.6162 15 16.3186 15.3301 16.3186 15.7501C16.3186 16.17 16.6162 16.5 16.9949 16.5Z" clip-rule="evenodd" fill="var(--aui-first-color,  rgba(0,103,209,1))" fill-opacity="1.000000" fill-rule="evenodd"/>
	</g>
</svg>
