<svg viewBox="0 0 24 24" xmlns="http://www.w3.org/2000/svg" xmlns:xlink="http://www.w3.org/1999/xlink">
	<defs>
		<clipPath id="clip377_46904">
			<rect id="color-icon-train-fares" width="24.000000" height="24.000000" fill="white" fill-opacity="0"/>
		</clipPath>
	</defs>
	<g clip-path="url(#clip377_46904)">
		<path id="路径" d="M19 3L19 13L16.5 13L8.5 3L19 3Z" fill="var(--aui-second-color,  rgba(0,103,209,0.7))"  fill-opacity="0.5" fill-rule="evenodd"/>
		<path id="矩形" d="M16.5 13L5 13L5 3L8.5 3L16.5 13Z" fill="var(--aui-second-color,  rgba(0,103,209,0.7))" fill-opacity="1.000000" fill-rule="evenodd"/>
		<path id="形状结合" d="M16.5151 1.5C18.645 1.5 20.3845 3.15112 20.4944 5.22864L20.5 5.43774L20.5 16.4701C20.5 18.3834 19.1191 19.978 17.2883 20.3337L17.9229 20.8704C18.3157 21.2036 18.3608 21.7886 18.0237 22.1769C17.7144 22.5328 17.1914 22.6 16.8037 22.3521L16.7014 22.2765L14.5762 20.474L14.5066 20.4073L9.48999 20.4073L9.42188 20.474L7.29663 22.2765C6.90356 22.6099 6.31177 22.5652 5.97437 22.1769C5.66528 21.8209 5.67749 21.2998 5.98438 20.9587L6.0752 20.8704L6.70947 20.3334C4.94702 19.9899 3.60181 18.498 3.50562 16.6792L3.5 16.4701L3.5 5.43774C3.5 3.33313 5.1709 1.61414 7.27319 1.50549L7.48486 1.5L16.5151 1.5ZM7.33179 3L16.6682 3C17.9561 3 19 3.97864 19 5.18567L19 10.8143C19 12.0214 17.9561 13 16.6682 13L7.33179 13C6.04395 13 5 12.0214 5 10.8143L5 5.18567C5 3.97864 6.04395 3 7.33179 3ZM7 16C7 15.4478 7.44775 15 8 15C8.55225 15 9 15.4478 9 16C9 16.5522 8.55225 17 8 17C7.44775 17 7 16.5522 7 16ZM16 15C15.4478 15 15 15.4478 15 16C15 16.5522 15.4478 17 16 17C16.5522 17 17 16.5522 17 16C17 15.4478 16.5522 15 16 15Z" clip-rule="evenodd" fill="var(--aui-first-color,  rgba(0,103,209,1))" fill-opacity="1.000000" fill-rule="evenodd"/>
	</g>
</svg>
