<svg viewBox="0 0 24 24" xmlns="http://www.w3.org/2000/svg" xmlns:xlink="http://www.w3.org/1999/xlink">
	<defs>
		<clipPath id="clip28_16807">
			<rect id="color-icon-training" width="24.000000" height="24.000000" fill="white" fill-opacity="0"/>
		</clipPath>
	</defs>
	<g clip-path="url(#clip28_16807)">
		<path id="path4" d="M12 17L12 21M15.23 17L18 21M8.76 17L6 21" stroke="var(--aui-second-color,  rgba(0,103,209,0.7))" stroke-opacity="1.000000" stroke-width="2.000000" stroke-linejoin="round" stroke-linecap="round"/>
		<path id="减去顶层" d="M4.72803 1.99988L19.2734 1.99988C20.7798 1.99988 22.0007 3.30232 22.0007 4.90897L22.0007 15.0908C22.0007 16.6974 20.7798 17.9999 19.2734 17.9999L4.72803 17.9999C3.22168 17.9999 2.00073 16.6974 2.00073 15.0908L2.00073 4.90897C2.00073 3.30232 3.22168 1.99988 4.72803 1.99988ZM10.6543 9.96241C10.7275 9.93982 10.7979 9.90716 10.8652 9.86443L14.0581 7.83479C14.1152 7.79851 14.167 7.75707 14.2139 7.71046C14.291 7.63344 14.3545 7.54232 14.4038 7.43711C14.4531 7.3315 14.4839 7.22384 14.4961 7.11412C14.5093 6.99353 14.5 6.87046 14.4683 6.74488C14.4482 6.66413 14.4189 6.58809 14.3809 6.51676C14.334 6.44828 14.2251 6.29667 14.1646 6.24434C14.1313 6.21547 14.0957 6.18905 14.0581 6.1651L10.8652 4.13546C10.7866 4.08551 10.7043 4.04938 10.6187 4.02706C10.5493 4.00901 10.4775 3.99999 10.4038 3.99999C10.3423 3.99999 10.2822 4.00634 10.2236 4.01902C10.1558 4.03369 10.0896 4.05684 10.0254 4.08847C9.98926 4.1064 9.95459 4.12659 9.9209 4.14905C9.854 4.19423 9.79346 4.24859 9.73877 4.31215C9.6709 4.39122 9.61768 4.47644 9.57861 4.56784C9.52637 4.69084 9.5 4.825 9.5 4.97031L9.5 9.02958C9.5 9.11974 9.51123 9.20702 9.5332 9.29144C9.54883 9.35132 9.56982 9.40975 9.59668 9.46674C9.63477 9.54857 9.68213 9.62246 9.73926 9.68839C9.79639 9.74146 9.93213 9.86213 9.99854 9.89774C10.04 9.91976 10.083 9.93843 10.1274 9.95377C10.1929 9.97616 10.2593 9.99044 10.3257 9.99661C10.3838 10.002 10.4424 10.0012 10.5015 9.99436C10.5537 9.98829 10.6045 9.97763 10.6543 9.96241ZM12.3779 12.75C12.687 11.8761 13.5203 11.25 14.5 11.25C15.4797 11.25 16.313 11.8761 16.6221 12.75L18.5 12.75C18.9199 12.75 19.25 13.08 19.25 13.5C19.25 13.92 18.9199 14.25 18.5 14.25L16.6221 14.25C16.313 15.1239 15.4797 15.75 14.5 15.75C13.5203 15.75 12.687 15.1239 12.3779 14.25L5.5 14.25C5.08008 14.25 4.75 13.92 4.75 13.5C4.75 13.08 5.08008 12.75 5.5 12.75L12.3779 12.75ZM13.75 13.5C13.75 13.0858 14.0857 12.75 14.5 12.75C14.9143 12.75 15.25 13.0858 15.25 13.5C15.25 13.9142 14.9143 14.25 14.5 14.25C14.0857 14.25 13.75 13.9142 13.75 13.5Z" clip-rule="evenodd" fill="var(--aui-first-color,  rgba(0,103,209,1))" fill-opacity="1.000000" fill-opacity="1.000000" fill-rule="evenodd"/>
	</g>
</svg>
