<svg viewBox="0 0 24 24" xmlns="http://www.w3.org/2000/svg" xmlns:xlink="http://www.w3.org/1999/xlink">
	<defs>
		<clipPath id="clip407_67841">
			<rect id="color-icon-training-fees" width="24.000000" height="24.000000" fill="white" fill-opacity="0"/>
		</clipPath>
	</defs>
	<g clip-path="url(#clip407_67841)">
		<path id="减去顶层" d="M3 3L21 3L21 5.87805C20.9351 5.79663 20.865 5.71851 20.79 5.64355C20.6577 5.51123 20.5154 5.39441 20.3625 5.29297C20.2197 5.19812 20.0681 5.1167 19.9075 5.04883C19.7454 4.9801 19.5796 4.92761 19.4104 4.89136C19.22 4.85046 19.0251 4.82996 18.8259 4.82996C18.6267 4.82996 18.4319 4.85046 18.2415 4.89136C18.0723 4.92761 17.9067 4.9801 17.7444 5.04883C17.5837 5.1167 17.4321 5.19812 17.2893 5.29285C17.1367 5.39441 16.9941 5.51123 16.8618 5.64355C16.7295 5.77588 16.6125 5.91833 16.5112 6.07117C16.4163 6.21387 16.335 6.36548 16.2671 6.52612C16.1985 6.68835 16.146 6.85413 16.1096 7.02332C16.0686 7.21375 16.0483 7.40857 16.0483 7.60767C16.0483 7.80688 16.0686 8.00171 16.1096 8.19214C16.146 8.36133 16.1985 8.5271 16.2671 8.68933C16.335 8.84985 16.4163 9.00159 16.5112 9.14429C16.5732 9.23779 16.6411 9.32739 16.7146 9.41321L14.1167 9.41321C13.9988 9.41321 13.8831 9.42493 13.77 9.44849C13.6631 9.47083 13.5583 9.50366 13.4558 9.547C13.356 9.58923 13.2617 9.64001 13.1731 9.69934C13.0815 9.7605 12.9963 9.83081 12.917 9.91016C12.8376 9.9895 12.7673 10.075 12.7061 10.1664L12.7061 10.1664C12.6467 10.255 12.5959 10.3492 12.5537 10.4491C12.5105 10.5516 12.4775 10.6564 12.4553 10.7633C12.4316 10.8763 12.4199 10.9919 12.4199 11.11C12.4199 11.2102 12.4277 11.3091 12.4431 11.4067C12.458 11.5001 12.48 11.5924 12.509 11.6836C12.5376 11.7736 12.5728 11.8605 12.614 11.9443C12.6562 12.0303 12.7051 12.1129 12.7605 12.1923C12.8162 12.2717 12.877 12.3461 12.9431 12.4153C13.0076 12.4828 13.0771 12.5455 13.1519 12.6034C13.2275 12.662 13.3066 12.7144 13.3892 12.7604C13.4756 12.8085 13.5657 12.8499 13.6599 12.8843L16.2393 13.8284L16.2393 16L13 16L13 18.9999L11 18.9999L11 16L5.84204 16C4.27246 16 3 14.8735 3 13.4839L3 3ZM21 9.45618L21 9.33728C20.9719 9.37256 20.9429 9.4071 20.9128 9.44104C20.9421 9.44556 20.9712 9.45056 21 9.45618ZM5.625 7.00854L8.36035 7.00854C8.71045 7.00854 8.98535 7.28357 8.98535 7.63354C8.98535 7.98352 8.71045 8.25854 8.36035 8.25854L5.625 8.25854C5.27515 8.25854 5 7.98352 5 7.63354C5 7.28357 5.27515 7.00854 5.625 7.00854ZM5.625 10.1998L9.72852 10.1998C10.0784 10.1998 10.3535 10.4749 10.3535 10.8248C10.3535 11.1748 10.0784 11.4498 9.72852 11.4498L5.625 11.4498C5.27515 11.4498 5 11.1748 5 10.8248C5 10.4749 5.27515 10.1998 5.625 10.1998Z" clip-rule="evenodd" fill="var(--aui-second-color,  rgba(0,103,209,0.7))" fill-opacity="1.000000" fill-rule="evenodd"/>
		<path id="path6 (边框)" d="M21.22 2L2.77 2C2.34 2 2 2.37 2 2.83C2 3.3 2.34 3.67 2.77 3.67L21.22 3.67C21.65 3.67 22 3.3 22 2.83C22 2.37 21.65 2 21.22 2Z" fill="var(--aui-first-color,  rgba(0,103,209,1))" fill-opacity="1.000000" fill-rule="evenodd"/>
		<path id="path9" d="M18.82 6.08C19.66 6.08 20.35 6.76 20.35 7.61C20.35 8.45 19.66 9.13 18.82 9.13C17.97 9.13 17.29 8.45 17.29 7.61C17.29 6.76 17.97 6.08 18.82 6.08ZM14.11 10.66L20.54 10.66C21.17 10.66 21.68 11.17 21.68 11.81L21.68 14.86C21.68 15.28 21.34 15.63 20.92 15.63L20.15 15.63L20.15 18.68C20.15 18.89 19.98 19.06 19.77 19.06L17.86 19.06C17.65 19.06 17.48 18.89 17.48 18.68L17.48 12.95L14.08 11.71C13.83 11.62 13.66 11.38 13.66 11.11C13.66 10.86 13.86 10.66 14.11 10.66Z" fill="var(--aui-first-color,  rgba(0,103,209,1))" fill-opacity="1.000000" fill-rule="evenodd"/>
		<path id="path5" d="M12 22C13.1 22 14 21.1 14 20C14 18.89 13.1 18 12 18C10.89 18 10 18.89 10 20C10 21.1 10.89 22 12 22Z" fill="var(--aui-first-color,  rgba(0,103,209,1))" fill-opacity="1.000000" fill-rule="evenodd"/>
	</g>
</svg>
