<svg viewBox="0 0 24 24" xmlns="http://www.w3.org/2000/svg" xmlns:xlink="http://www.w3.org/1999/xlink">
	<defs>
		<clipPath id="clip477_143011">
			<rect id="color-icon-travel-order" width="24.000000" height="24.000000" fill="white" fill-opacity="0"/>
		</clipPath>
	</defs>
	<g clip-path="url(#clip477_143011)">
		<path id="减去顶层" d="M23 17.6301C23 18.0922 22.9062 18.5341 22.7188 18.9561C22.5396 19.3602 22.2866 19.7174 21.9609 20.0275C21.6387 20.3348 21.2686 20.5724 20.8516 20.7405C20.4219 20.9135 19.9727 21 19.5039 21L4.49609 21Q4.08545 21 3.69531 20.9116Q3.69141 20.9106 3.6875 20.9098C3.50439 20.8679 3.32471 20.8115 3.14844 20.7405Q2.79541 20.5981 2.4873 20.3893L2.48682 20.3892L2.48584 20.3883Q2.24902 20.2275 2.03906 20.0275Q1.7417 19.7448 1.52588 19.4097L1.52588 19.4097Q1.38672 19.1937 1.28125 18.9561C1.1875 18.7449 1.11719 18.5287 1.07031 18.3074Q1 17.9763 1 17.6301L1 6.36987Q1 6.02368 1.07031 5.6925Q1.0708 5.68921 1.07178 5.68591Q1.1416 5.35754 1.28125 5.04395C1.34912 4.89026 1.42822 4.74341 1.51758 4.60339Q1.51855 4.60193 1.51953 4.60034Q1.52246 4.59534 1.52588 4.59033Q1.7417 4.25525 2.03906 3.97253C2.17529 3.84265 2.31982 3.72522 2.47314 3.62024Q2.47998 3.61548 2.48682 3.61084L2.48682 3.61084Q2.79541 3.40186 3.14844 3.25952Q3.41309 3.15295 3.6875 3.09021Q3.69141 3.08936 3.69531 3.0885L3.69531 3.08838Q4.08545 3 4.49609 3L19.5039 3C19.9727 3 20.4219 3.08655 20.8516 3.25952C21.2686 3.42761 21.6387 3.66516 21.9609 3.97253C22.2866 4.28259 22.5396 4.63977 22.7188 5.04395C22.8125 5.25513 22.8828 5.47144 22.9297 5.69263C22.9766 5.91333 23 6.13916 23 6.36987L23 17.6301ZM7.85547 14.3015C7.83545 14.3256 7.65723 14.48 7.63525 14.5017C7.63477 14.5576 7.63818 14.6128 7.64551 14.667L7.8291 16.005C7.84131 16.0938 7.82129 16.1921 7.77295 16.2786L7.4873 16.7898C7.38672 16.9696 7.11133 16.965 6.97559 16.8837L6.16113 15.5011C6.07617 15.3568 5.93555 15.2728 5.77148 15.2689L4.20508 15.2317C4.04053 15.2278 3.93799 15.0645 3.97656 14.8671C3.98633 14.8187 4.00391 14.771 4.02832 14.7269L4.31396 14.2157C4.3623 14.1294 4.43457 14.062 4.51514 14.0286L5.729 13.5239C5.77832 13.5034 5.82715 13.4784 5.87402 13.4496L5.88916 13.3374C5.89307 13.3064 5.9248 13.1849 5.93164 13.1544C5.9917 12.9771 6.06006 12.804 6.13721 12.6348C6.19678 12.5048 6.26172 12.3774 6.33154 12.2522L6.41699 12.0991L3.64844 10.8799C3.57031 10.8456 3.50342 10.7998 3.44678 10.7428C3.36963 10.6644 3.3125 10.5645 3.27637 10.443C3.21338 10.2332 3.27002 9.94019 3.36621 9.72485L3.47754 9.52502C3.56689 9.36572 3.68701 9.24475 3.8374 9.16199C3.98828 9.07935 4.1416 9.05042 4.29834 9.07507L7.79688 9.62988L8.86475 7.72046C8.91064 7.6377 9.01611 7.5011 9.07471 7.43054C9.12158 7.38 9.17236 7.33289 9.22607 7.28918C9.28223 7.24377 9.34082 7.20361 9.40137 7.16858C9.48682 7.1189 9.57715 7.07971 9.67188 7.05127C9.73779 7.03137 9.80322 7.01721 9.86865 7.00891C9.95752 6.99768 10.0459 6.99695 10.1338 7.00684C10.2021 7.0144 10.2681 7.02771 10.3315 7.04724C10.4146 7.07227 10.4932 7.10742 10.5688 7.15259C10.6445 7.19763 10.7139 7.25085 10.7754 7.31213C10.8237 7.35938 10.8682 7.41162 10.9082 7.46851C10.9609 7.5426 11.0044 7.62207 11.0396 7.70679C11.0654 7.76978 11.0859 7.83557 11.1021 7.90442C11.1255 8.00305 11.1377 8.10327 11.1392 8.2052C11.1401 8.27673 11.1353 8.349 11.1255 8.42212C11.1123 8.51929 11.0898 8.61377 11.0591 8.70557C11.0293 8.79309 10.9912 8.8783 10.9448 8.96094L9.87744 10.8705L12.0918 13.723C12.1909 13.8505 12.2437 14.0023 12.2495 14.1787C12.2559 14.355 12.2144 14.5228 12.125 14.6821L12.0137 14.882C11.8989 15.0874 11.7393 15.2261 11.5352 15.2981C11.3311 15.37 11.0781 15.3104 10.9038 15.2069L8.49707 13.3398L8.41211 13.4928C8.34229 13.6177 8.26758 13.7391 8.18848 13.8572C8.08496 14.0112 7.97461 14.1593 7.85547 14.3015ZM15 9.25L20 9.25C20.4199 9.25 20.75 9.57996 20.75 10C20.75 10.42 20.4199 10.75 20 10.75L15 10.75C14.5801 10.75 14.25 10.42 14.25 10C14.25 9.57996 14.5801 9.25 15 9.25ZM15 13.25L18 13.25C18.4199 13.25 18.75 13.58 18.75 14C18.75 14.42 18.4199 14.75 18 14.75L15 14.75C14.5801 14.75 14.25 14.42 14.25 14C14.25 13.58 14.5801 13.25 15 13.25Z" clip-rule="evenodd" fill="var(--aui-first-color,  rgba(0,103,209,1))" fill-opacity="1.000000" fill-rule="evenodd"/>
		<path id="矢量 323 (边框)" d="M15 9.25L20 9.25C20.41 9.25 20.75 9.57 20.75 10C20.75 10.42 20.41 10.75 20 10.75L15 10.75C14.58 10.75 14.25 10.42 14.25 10C14.25 9.57 14.58 9.25 15 9.25ZM15 13.25L18 13.25C18.41 13.25 18.75 13.58 18.75 14C18.75 14.42 18.41 14.75 18 14.75L15 14.75C14.58 14.75 14.25 14.42 14.25 14C14.25 13.58 14.58 13.25 15 13.25Z" fill="var(--aui-second-color,  rgba(0,103,209,0.7))" fill-opacity="0.5" fill-rule="evenodd"/>
	</g>
</svg>
