<svg viewBox="0 0 24 24" xmlns="http://www.w3.org/2000/svg" xmlns:xlink="http://www.w3.org/1999/xlink">
	<defs>
		<clipPath id="clip377_46672">
			<rect id="color-icon-travel-expenses" width="24.000000" height="24.000000" fill="white" fill-opacity="0"/>
		</clipPath>
	</defs>
	<g clip-path="url(#clip377_46672)">
		<path id="减去顶层" d="M23 17.6301C23 18.0921 22.9062 18.5341 22.719 18.956C22.5393 19.3603 22.2869 19.7174 21.9612 20.0275C21.6384 20.3348 21.2686 20.5724 20.8516 20.7405C20.4219 20.9135 19.9727 21 19.5039 21L4.49609 21C4.22241 21 3.95557 20.9705 3.69531 20.9116C3.69263 20.911 3.69019 20.9104 3.6875 20.9098C3.50464 20.8679 3.32495 20.8115 3.14844 20.7405C2.91309 20.6456 2.69263 20.5286 2.4873 20.3893L2.48706 20.3891L2.48584 20.3883C2.32788 20.2811 2.17896 20.1609 2.03882 20.0275C1.84082 19.839 1.66992 19.6331 1.52588 19.4097L1.52588 19.4097C1.43311 19.2657 1.35156 19.1145 1.28101 18.956C1.18726 18.7449 1.11694 18.5286 1.07007 18.3074C1.02344 18.0867 1 17.8608 1 17.6301L1 6.36993C1 6.13916 1.02344 5.91333 1.07007 5.69257C1.07056 5.69037 1.07104 5.68817 1.07153 5.68597C1.11841 5.46704 1.18823 5.25305 1.28101 5.04401C1.34937 4.89032 1.42822 4.74347 1.51758 4.60339C1.51807 4.60242 1.5188 4.60138 1.51953 4.6004C1.52148 4.59705 1.52368 4.59369 1.52588 4.59033C1.66992 4.367 1.84082 4.16101 2.03882 3.97247C2.17529 3.84265 2.32007 3.72522 2.47314 3.62024C2.47778 3.61707 2.48242 3.61395 2.48706 3.61084L2.48706 3.61084C2.69238 3.47156 2.91284 3.35443 3.14844 3.25952C3.32495 3.18854 3.50464 3.13208 3.6875 3.09021C3.68994 3.0896 3.69263 3.08905 3.69531 3.08844L3.69531 3.08844C3.95557 3.02948 4.22241 3 4.49609 3L19.5039 3C19.9727 3 20.4219 3.08655 20.8516 3.25952C21.2686 3.42755 21.6384 3.66522 21.9612 3.97247C22.2869 4.28259 22.5393 4.63971 22.719 5.04401C22.8127 5.25519 22.8831 5.47137 22.9299 5.69263C22.9766 5.91339 23 6.13916 23 6.36993L23 17.6301ZM6.87939 14.5969C6.90601 14.5424 6.93628 14.4931 6.97046 14.4489L6.93945 14.3749C6.92798 14.3475 6.89648 14.2323 6.8877 14.2036C6.85352 14.0287 6.8291 13.8529 6.81421 13.676C6.80298 13.5401 6.79712 13.4036 6.79712 13.2665L6.79712 13.0989L3.80493 13.4537C3.60498 13.4774 3.42676 13.4185 3.27026 13.277C3.11401 13.1354 3.02124 12.8669 3 12.6431L3 12.4242C3 12.3173 3.01709 12.2166 3.05103 12.122C3.07251 12.0621 3.10083 12.0046 3.13623 11.9496C3.22681 11.8077 3.34595 11.7087 3.49365 11.6525L6.79712 10.3939L6.79712 8.30206C6.79712 8.21149 6.80542 8.12286 6.82202 8.03625C6.8396 7.94556 6.86597 7.85706 6.90161 7.77075C6.92847 7.70581 6.95972 7.64417 6.99512 7.58582C7.04565 7.50281 7.10474 7.42645 7.17285 7.35681C7.22021 7.30823 7.27026 7.2644 7.32324 7.22534C7.39453 7.17285 7.47095 7.12897 7.55249 7.09369C7.61475 7.06659 7.67847 7.04541 7.74316 7.03015C7.8269 7.01038 7.9126 7.00049 8 7.00049C8.0874 7.00049 8.1731 7.01038 8.25684 7.03015C8.32153 7.04541 8.38525 7.06659 8.44751 7.09369C8.52905 7.12897 8.60547 7.17285 8.67676 7.2254C8.72974 7.2644 8.77979 7.30823 8.82715 7.35681C8.89526 7.42645 8.95435 7.50281 9.00488 7.58582C9.04028 7.64417 9.07153 7.70581 9.09839 7.77075C9.13403 7.85706 9.1604 7.94556 9.17798 8.03625C9.19458 8.12286 9.20288 8.21143 9.20288 8.30206L9.20288 10.3939L12.5063 11.6525C12.6541 11.7087 12.7732 11.8077 12.8638 11.9496C12.8992 12.0046 12.9275 12.0621 12.949 12.122C12.9829 12.2166 13 12.3173 13 12.4242L13 12.6431C13 12.8682 12.929 13.0603 12.7866 13.2195C12.6445 13.3787 12.3962 13.4537 12.1951 13.4537L9.20288 13.0989L9.20288 13.2665C9.20288 13.4034 9.19702 13.5397 9.18579 13.6753C9.1709 13.8524 9.14648 14.0286 9.1123 14.2036C9.10645 14.2332 9.06909 14.3463 9.06055 14.3749L9.02954 14.4489C9.06372 14.4931 9.09399 14.5424 9.12061 14.5969L9.7063 15.7925C9.77954 15.9416 9.80811 16.1007 9.79199 16.2698C9.78198 16.3784 9.75464 16.4787 9.70996 16.5706C9.68506 16.6219 9.65503 16.6707 9.61938 16.7168C9.48804 16.8873 9.32227 16.9808 9.12183 16.9974C9.03638 17.0045 8.95532 16.9968 8.87866 16.9742C8.77539 16.9437 8.67993 16.8863 8.59253 16.8019L8 16.2299L7.40747 16.8019C7.32007 16.8863 7.22461 16.9437 7.12134 16.9742C7.04468 16.9968 6.96362 17.0045 6.87817 16.9974C6.67773 16.9808 6.51196 16.8873 6.38062 16.7168C6.28125 16.588 6.22388 16.439 6.20801 16.2698C6.19189 16.1007 6.22046 15.9416 6.2937 15.7925L6.87939 14.5969ZM15 9.25L20 9.25C20.4199 9.25 20.75 9.58002 20.75 10C20.75 10.42 20.4199 10.75 20 10.75L15 10.75C14.5801 10.75 14.25 10.42 14.25 10C14.25 9.58002 14.5801 9.25 15 9.25ZM15 13.25L18 13.25C18.4199 13.25 18.75 13.58 18.75 14C18.75 14.42 18.4199 14.75 18 14.75L15 14.75C14.5801 14.75 14.25 14.42 14.25 14C14.25 13.58 14.5801 13.25 15 13.25Z" clip-rule="evenodd" fill="var(--tiny-first-color,  rgba(0,103,209,1))" fill-opacity="1.000000" fill-rule="evenodd"/>
		<path id="矢量 323 (边框)" d="M15 9.25L20 9.25C20.41 9.25 20.75 9.58 20.75 10C20.75 10.42 20.41 10.75 20 10.75L15 10.75C14.58 10.75 14.25 10.42 14.25 10C14.25 9.58 14.58 9.25 15 9.25ZM15 13.25L18 13.25C18.41 13.25 18.75 13.58 18.75 14C18.75 14.42 18.41 14.75 18 14.75L15 14.75C14.58 14.75 14.25 14.42 14.25 14C14.25 13.58 14.58 13.25 15 13.25Z" fill="var(--tiny-second-color,  rgba(0,103,209,0.7))"  fill-opacity="0.5" fill-rule="evenodd"/>
	</g>
</svg>
