<svg viewBox="0 0 24 24" xmlns="http://www.w3.org/2000/svg" xmlns:xlink="http://www.w3.org/1999/xlink">
	<defs>
		<clipPath id="clip377_47029">
			<rect id="color-icon-travel-expenses" width="24.000000" height="24.000000" fill="white" fill-opacity="0"/>
		</clipPath>
	</defs>
	<g clip-path="url(#clip377_47029)">
		<path id="路径" d="M12 3C16.99 3 21 7 21 12C21 16.99 16.99 21 12 21C7 21 3 16.99 3 12C3 7 7 3 12 3Z" fill="var(--aui-second-color,  rgba(0,103,209,0.7))" fill-opacity="0.5" fill-rule="evenodd"/>
		<path id="形状结合" d="M2 12C2 6.49408 6.49414 2 12 2C17.5059 2 22 6.49408 22 12C22 17.5059 17.5059 22 12 22C6.49414 22 2 17.5059 2 12ZM19.5 12C19.5 7.84009 16.1597 4.5 12 4.5C7.84033 4.5 4.5 7.84009 4.5 12C4.5 16.1599 7.84033 19.5 12 19.5C16.1597 19.5 19.5 16.1599 19.5 12Z" clip-rule="evenodd" fill="var(--aui-first-color,  rgba(0,103,209,1))" fill-opacity="1.000000" fill-rule="evenodd"/>
		<path id="形状结合-path" d="M14.84 7.59C14.5 7.4 14.07 7.5 13.86 7.8L12 9.73L10.13 7.8C9.92 7.5 9.49 7.4 9.15 7.59C8.82 7.78 8.72 8.18 8.92 8.49L10.88 10.54L8.7 10.54C8.31 10.54 8 10.83 8 11.19C8 11.55 8.31 11.84 8.7 11.84L11.29 11.84L11.29 13.58L8.7 13.58C8.31 13.58 8 13.87 8 14.23C8 14.59 8.31 14.89 8.7 14.89L11.29 14.89L11.29 16.84C11.29 17.2 11.61 17.5 12 17.5C12.38 17.5 12.7 17.2 12.7 16.84L12.7 14.89L15.29 14.89C15.68 14.89 16 14.59 16 14.23C16 13.87 15.68 13.58 15.29 13.58L12.7 13.58L12.7 11.84L15.29 11.84C15.68 11.84 16 11.55 16 11.19C16 10.83 15.68 10.54 15.29 10.54L13.11 10.54L15.07 8.49C15.27 8.18 15.17 7.78 14.84 7.59Z" fill="var(--aui-first-color,  rgba(0,103,209,1))" fill-opacity="1.000000" fill-rule="evenodd"/>
	</g>
</svg>
