<svg viewBox="0 0 24 24" xmlns="http://www.w3.org/2000/svg" xmlns:xlink="http://www.w3.org/1999/xlink">
	<defs>
		<clipPath id="clip476_142976">
			<rect id="color-icon-travel-application-form" width="24.000000" height="24.000000" fill="white" fill-opacity="0"/>
		</clipPath>
	</defs>
	<g clip-path="url(#clip476_142976)">
		<path id="减去顶层" d="M6 5.0517L6 4.00006Q6 3.78607 6.04395 3.58136L6.04395 3.58136Q6.08301 3.39752 6.15771 3.22125Q6.23096 3.04724 6.33398 2.8927Q6.44336 2.72827 6.58594 2.58588Q6.72803 2.44342 6.89258 2.33405L6.89258 2.33405L6.89258 2.33405Q7.04736 2.23126 7.22119 2.15765Q7.39746 2.08307 7.58154 2.04382Q7.78613 2.00006 8 2.00006L13 2.00006Q13.2139 2.00006 13.4185 2.04382L13.4185 2.04382Q13.6025 2.08307 13.7788 2.15765Q13.9526 2.23126 14.1074 2.33405L14.1074 2.33411Q14.272 2.44342 14.4141 2.58588Q14.5566 2.72827 14.666 2.8927Q14.769 3.0473 14.8423 3.22125Q14.917 3.39752 14.9561 3.58136Q15 3.78607 15 4.00006L15 5.00006L13 5.00006L13 4.00006L8 4.00006L8 5.00006L6.6543 5.00006C6.43213 5.00006 6.21387 5.01727 6 5.0517Z" clip-rule="evenodd" fill="var(--aui-second-color,  rgba(0,103,209,0.7))" fill-opacity="0.5" fill-rule="evenodd"/>
		<path id="减去顶层" d="M15.3354 5.00006C15.6006 5.00006 15.8599 5.02386 16.1128 5.07141C16.335 5.11316 16.5522 5.17316 16.7651 5.25153C17.2041 5.41315 17.5918 5.64093 17.9297 5.935C18.2666 6.22858 18.5278 6.5658 18.7129 6.94641C18.7983 7.12268 18.8652 7.30255 18.9121 7.48615C18.9707 7.71277 19 7.94513 19 8.18292L19 10.8135C18.3701 10.61 17.6978 10.5001 17 10.5001C16.3022 10.5001 15.6299 10.61 15 10.8135L15 8.83337C15 8.3667 14.5601 8.00006 14 8.00006C13.4399 8.00006 13 8.3667 13 8.83337L13 11.8762C11.478 13.0659 10.5 14.9188 10.5 17.0001C10.5 18.5086 11.0137 19.8971 11.876 21.0001L6.09229 21.0001C6.08984 21.0197 6.08643 21.0392 6.08301 21.0587C6.0708 21.1235 6.0542 21.1873 6.03223 21.2499C6.00488 21.3276 5.9707 21.4008 5.93066 21.4693C5.89893 21.5233 5.86377 21.5743 5.82373 21.6225C5.76953 21.6879 5.71045 21.7453 5.646 21.7946C5.59668 21.8324 5.54395 21.8655 5.48877 21.8939C5.41797 21.93 5.3457 21.9568 5.27148 21.9745C5.2002 21.9915 5.12695 22.0001 5.05225 22.0001C4.97754 22.0001 4.90479 21.9915 4.8335 21.9745C4.75928 21.9568 4.68701 21.93 4.61621 21.8939C4.56104 21.8655 4.5083 21.8324 4.45898 21.7946C4.39453 21.7453 4.33545 21.6879 4.28125 21.6225C4.24121 21.5743 4.20605 21.5233 4.17432 21.4693C4.13428 21.4008 4.1001 21.3276 4.07275 21.2499C4.05078 21.1873 4.03418 21.1235 4.02197 21.0587C4.00732 20.9795 4 20.8987 4 20.8163L4 20.6536C3.88574 20.6031 3.77539 20.5477 3.66846 20.4875C3.4541 20.3665 3.25488 20.2256 3.07031 20.0651C2.90088 19.9176 2.75049 19.7591 2.61963 19.5897C2.48975 19.4218 2.37891 19.2432 2.28711 19.0537C2.20166 18.8774 2.13477 18.6975 2.0874 18.5139C2.02881 18.2872 2 18.055 2 17.8172L2 8.18292C2 7.94513 2.0293 7.71277 2.08789 7.48608C2.13525 7.30249 2.20166 7.12274 2.28711 6.94641C2.37891 6.75696 2.48975 6.57825 2.61963 6.41034C2.75049 6.24091 2.90088 6.08252 3.07031 5.93506C3.25488 5.77441 3.45361 5.63361 3.66846 5.51251C3.84668 5.41187 4.03564 5.32483 4.23486 5.25146C4.44775 5.1731 4.66504 5.11316 4.88721 5.07141C5.14014 5.02386 5.39941 5.00006 5.66455 5.00006L15.3354 5.00006ZM8 8.83344L8 17.1667C8 17.6334 7.56006 18.0001 7 18.0001C6.43994 18.0001 6 17.6334 6 17.1667L6 8.83344C6 8.36676 6.43994 8.00006 7 8.00006C7.56006 8.00006 8 8.36676 8 8.83344Z" clip-rule="evenodd" fill="var(--aui-second-color,  rgba(0,103,209,0.7))" fill-opacity="1.000000" fill-rule="evenodd"/>
		<path id="减去顶层" d="M17 12.0001C14.2388 12.0001 12 14.2386 12 17.0001C12 19.7615 14.2388 22.0001 17 22.0001C19.7612 22.0001 22 19.7615 22 17.0001C22 14.2386 19.7612 12.0001 17 12.0001ZM16.25 14.5001C16.25 14.0801 16.5801 13.7501 17 13.7501C17.4199 13.7501 17.75 14.0801 17.75 14.5001L17.75 16.2501L19.5 16.2501C19.9199 16.2501 20.25 16.5801 20.25 17.0001C20.25 17.42 19.9199 17.7501 19.5 17.7501L17.75 17.7501L17.75 19.5001C17.75 19.92 17.4199 20.2501 17 20.2501C16.5801 20.2501 16.25 19.92 16.25 19.5001L16.25 17.7501L14.5 17.7501C14.0801 17.7501 13.75 17.42 13.75 17.0001C13.75 16.5801 14.0801 16.2501 14.5 16.2501L16.25 16.2501L16.25 14.5001Z" clip-rule="evenodd" fill="var(--aui-first-color,  rgba(0,103,209,1))" fill-opacity="1.000000" fill-rule="evenodd"/>
		<path id="合并" d="M17 13.7501C16.5801 13.7501 16.25 14.0801 16.25 14.5001L16.25 16.2501L14.5 16.2501C14.0801 16.2501 13.75 16.5801 13.75 17.0001C13.75 17.42 14.0801 17.7501 14.5 17.7501L16.25 17.7501L16.25 19.5001C16.25 19.92 16.5801 20.2501 17 20.2501C17.4199 20.2501 17.75 19.92 17.75 19.5001L17.75 17.7501L19.5 17.7501C19.9199 17.7501 20.25 17.42 20.25 17.0001C20.25 16.5801 19.9199 16.2501 19.5 16.2501L17.75 16.2501L17.75 14.5001C17.75 14.0801 17.4199 13.7501 17 13.7501Z" clip-rule="evenodd" fill="var(--aui-second-color,  rgba(0,103,209,0.7))" fill-opacity="0.5" fill-rule="evenodd"/>
	</g>
</svg>
