<svg viewBox="0 0 24 24" xmlns="http://www.w3.org/2000/svg" xmlns:xlink="http://www.w3.org/1999/xlink">
	<defs>
		<clipPath id="clip377_47104">
			<rect id="color-icon-Venue-hospitality-fees" width="24.000000" height="24.000000" fill="white" fill-opacity="0"/>
		</clipPath>
	</defs>
	<g clip-path="url(#clip377_47104)">
		<path id="减去顶层" d="M3 3L21 3L21 7.50879C20.9392 7.50293 20.8777 7.5 20.8157 7.5L13.4846 7.5C13.4224 7.5 13.3606 7.50305 13.2988 7.50916C13.2432 7.51471 13.1877 7.52271 13.1323 7.5332C12.9934 7.55969 12.8608 7.60046 12.7344 7.65558C12.6414 7.69617 12.5518 7.74457 12.4653 7.80072C12.3586 7.87024 12.261 7.94897 12.1729 8.03693C12.0974 8.11218 12.0288 8.19415 11.967 8.28284C11.8914 8.39117 11.8293 8.50494 11.7805 8.62415C11.7417 8.71893 11.7112 8.81714 11.6892 8.91882C11.665 9.03143 11.6519 9.14417 11.6501 9.25714C11.6482 9.38403 11.6602 9.51117 11.6865 9.63849L13.0032 16L13 16L13 18.9999L11 18.9999L11 16L5.84204 16C4.27246 16 3 14.8735 3 13.4839L3 3ZM5.625 7.00842L8.36035 7.00842C8.71045 7.00842 8.98535 7.28345 8.98535 7.63342C8.98535 7.98346 8.71045 8.25842 8.36035 8.25842L5.625 8.25842C5.27515 8.25842 5 7.98346 5 7.63342C5 7.28345 5.27515 7.00842 5.625 7.00842ZM5.625 10.1998L9.72852 10.1998C10.0784 10.1998 10.3535 10.4748 10.3535 10.8248C10.3535 11.1748 10.0784 11.4498 9.72852 11.4498L5.625 11.4498C5.27515 11.4498 5 11.1748 5 10.8248C5 10.4748 5.27515 10.1998 5.625 10.1998Z" clip-rule="evenodd" fill="var(--aui-second-color,  rgba(0,103,209,0.7))" fill-opacity="1.000000" fill-rule="evenodd"/>
		<path id="path6 (边框)" d="M21.22 2L2.77 2C2.34 2 2 2.37 2 2.83C2 3.3 2.34 3.67 2.77 3.67L21.22 3.67C21.65 3.67 22 3.3 22 2.83C22 2.37 21.65 2 21.22 2Z" fill="var(--aui-first-color,  rgba(0,103,209,1))" fill-opacity="1.000000" fill-rule="evenodd"/>
		<path id="合并" d="M20.2158 8.99988C20.7317 8.99988 21.1499 9.3916 21.1499 9.87488C21.1499 9.93207 21.1438 9.98914 21.1321 10.0453L20.9993 10.6714C21.1589 10.7154 21.3108 10.7739 21.4551 10.8467C21.5833 10.9114 21.7056 10.9875 21.8215 11.075C21.9375 11.1624 22.0437 11.2582 22.1401 11.3623C22.2454 11.4763 22.3389 11.6003 22.4204 11.7344C22.502 11.8684 22.5684 12.0071 22.6199 12.1506C22.667 12.2817 22.7012 12.4167 22.7229 12.5557C22.7449 12.6947 22.7532 12.8329 22.748 12.9705C22.7422 13.1313 22.718 13.2911 22.6755 13.4498C22.6328 13.6086 22.574 13.759 22.4988 13.9012C22.4343 14.0228 22.3579 14.1384 22.2695 14.2479C22.1812 14.3574 22.084 14.4572 21.9778 14.5472C21.8616 14.6457 21.7346 14.7326 21.5969 14.8079C21.4592 14.8832 21.3162 14.9438 21.168 14.9899C21.0325 15.032 20.8928 15.0619 20.7485 15.0795C20.6042 15.0972 20.4604 15.1021 20.3171 15.094C20.2339 15.0894 20.1506 15.0803 20.0676 15.067L20.0193 15.2953C19.9326 15.7048 19.5488 15.9999 19.103 15.9999L15.197 15.9999C14.7512 15.9999 14.3674 15.7048 14.2808 15.2953L13.168 10.0453C13.0674 9.57129 13.3962 9.11072 13.9023 9.0166C13.9622 9.00549 14.0232 8.99988 14.0842 8.99988L20.2158 8.99988ZM20.323 13.8617C20.3425 13.8635 20.3621 13.8647 20.3816 13.8655C20.4402 13.8678 20.4985 13.8653 20.5574 13.8581C20.6191 13.8505 20.6792 13.838 20.7375 13.8205C20.8086 13.7991 20.8772 13.7704 20.9434 13.7344C21.0093 13.6982 21.0698 13.6564 21.125 13.6087C21.1702 13.5696 21.2117 13.5266 21.2495 13.4797C21.2854 13.4351 21.3169 13.3883 21.3442 13.3392C21.3826 13.2698 21.4124 13.1957 21.4336 13.1171C21.4546 13.0384 21.4658 12.9594 21.4673 12.8799C21.4683 12.8239 21.4644 12.7675 21.4556 12.711C21.446 12.6514 21.4316 12.5934 21.4121 12.5369C21.3882 12.4681 21.3567 12.4016 21.3176 12.3373C21.2786 12.273 21.2334 12.2139 21.1826 12.1599C21.1406 12.1155 21.095 12.0746 21.0452 12.0371C20.998 12.0016 20.9485 11.9702 20.8967 11.9429C20.8479 11.9171 20.7969 11.895 20.7437 11.8765L20.323 13.8617Z" clip-rule="evenodd" fill="var(--aui-first-color,  rgba(0,103,209,1))" fill-opacity="1.000000" fill-rule="evenodd"/>
		<path id="path5" d="M12 22C13.1 22 14 21.1 14 20C14 18.89 13.1 18 12 18C10.89 18 10 18.89 10 20C10 21.1 10.89 22 12 22Z" fill="var(--aui-first-color,  rgba(0,103,209,1))" fill-opacity="1.000000" fill-rule="evenodd"/>
	</g>
</svg>
