<svg viewBox="0 0 24 24" xmlns="http://www.w3.org/2000/svg" xmlns:xlink="http://www.w3.org/1999/xlink">
	<defs>
		<clipPath id="clip379_46353">
			<rect id="color-icon-venue-rental-fees" width="24.000000" height="24.000000" fill="white" fill-opacity="0"/>
		</clipPath>
	</defs>
	<g clip-path="url(#clip379_46353)">
		<path id="减去顶层" d="M19.0334 10.1155C18.1089 12.6935 15.7588 15.4883 11.9834 18.5Q6.33325 13.993 4.9397 10.1335C4.3125 10.3752 3.83032 10.9254 3.69556 11.6173L2.13574 19.6173C1.89502 20.8522 2.84058 22 4.09888 22L19.9756 22C21.239 22 22.1858 20.8433 21.9363 19.6049L20.3237 11.6049C20.1819 10.9007 19.6802 10.3456 19.0334 10.1155Z" clip-rule="evenodd" fill="var(--aui-first-color,  rgba(0,103,209,1))" fill-opacity="1.000000" fill-rule="evenodd"/>
		<path id="减去顶层" d="M17.9834 7.97974C17.9834 10.6696 15.9834 13.6763 11.9834 17Q5.9834 12.0145 5.9834 7.97974C5.9834 4.62125 8.66968 2 11.9834 2C15.2971 2 17.9834 4.62125 17.9834 7.97974ZM13.3853 5.27521C13.5391 5.00311 13.8645 4.91812 14.1138 5.08661C14.3621 5.25433 14.4392 5.61218 14.2861 5.88428L12.8228 7.70535L14.4539 7.70535C14.7461 7.70535 14.9834 7.96506 14.9834 8.28503C14.9834 8.60504 14.7461 8.86475 14.4539 8.86475L12.5129 8.86475L12.5129 9.96887L14.4539 9.96887C14.7461 9.96887 14.9834 10.2267 14.9834 10.5467C14.9834 10.8667 14.7461 11.1245 14.4539 11.1245L12.5129 11.1245L12.5127 12.4203C12.5127 12.7403 12.2756 13 11.9834 13C11.6912 13 11.4541 12.7403 11.4541 12.4203L11.4539 11.1245L9.51294 11.1245C9.2207 11.1245 8.9834 10.8667 8.9834 10.5467C8.9834 10.2267 9.2207 9.96887 9.51294 9.96887L11.4539 9.96887L11.4539 8.86475L9.51294 8.86475C9.2207 8.86475 8.9834 8.60504 8.9834 8.28503C8.9834 7.96506 9.2207 7.70535 9.51294 7.70535L11.144 7.70535L9.68066 5.88428C9.52759 5.61218 9.60474 5.25433 9.85303 5.08661C10.1016 4.91812 10.4285 5.00311 10.5815 5.27521L11.9834 6.98883L13.3853 5.27521Z" clip-rule="evenodd" fill="var(--aui-second-color,  rgba(0,103,209,0.7))" fill-opacity="1.000000" fill-rule="evenodd"/>
	</g>
</svg>
