<svg viewBox="0 0 24 24" xmlns="http://www.w3.org/2000/svg" xmlns:xlink="http://www.w3.org/1999/xlink">
	<defs>
		<clipPath id="clip377_46658">
			<rect id="color-icon-visa-fees" width="24.000000" height="24.000000" fill="white" fill-opacity="0"/>
		</clipPath>
	</defs>
	<g clip-path="url(#clip377_46658)">
		<path id="减去顶层" d="M5.84204 1L18.158 1C19.7275 1 21 2.31329 21 3.93335L21 20.0667C21 21.6867 19.7275 23 18.158 23L5.84204 23C4.27246 23 3 21.6867 3 20.0667L3 3.93335C3 2.31329 4.27246 1 5.84204 1ZM16.6135 14.9272C16.2874 15.2329 15.938 15.5017 15.5654 15.7336L15.5654 15.7336C15.2361 15.9387 14.8887 16.115 14.5234 16.2623C14.1636 16.4075 13.7966 16.5202 13.4229 16.6005L13.4229 16.6006L13.4224 16.6006C12.959 16.7002 12.4849 16.75 12 16.75C11.499 16.75 11.0098 16.697 10.5322 16.5909L10.5322 16.5909L10.5317 16.5908L10.5312 16.5907C10.137 16.5031 9.75073 16.3792 9.37231 16.2192C8.99072 16.0578 8.62964 15.865 8.28931 15.6408C7.90942 15.3906 7.55542 15.1013 7.22705 14.7729C6.89868 14.4446 6.60938 14.0905 6.35913 13.7107L6.35913 13.7106C6.13501 13.3703 5.94214 13.0093 5.78076 12.6276C5.62061 12.2493 5.49683 11.8628 5.40918 11.4683L5.40918 11.4683C5.30298 10.9907 5.25 10.5012 5.25 10C5.25 9.55682 5.29199 9.12183 5.37573 8.69507L5.37573 8.69501L5.37573 8.69501C5.43823 8.37604 5.52417 8.06158 5.63379 7.75177C5.76758 7.37274 5.93213 7.01123 6.12769 6.66724L6.12769 6.66724L6.12769 6.66724L6.12769 6.66718C6.34888 6.27789 6.60962 5.91101 6.90991 5.56665C7.23779 5.19037 7.5979 4.85742 7.98975 4.56781L7.98975 4.56775L7.98975 4.56775C8.35156 4.30042 8.74048 4.06995 9.15674 3.8764C9.57227 3.68317 9.99854 3.53467 10.4353 3.43085L10.4353 3.43085L10.4355 3.43079C10.9426 3.31024 11.4641 3.25 12 3.25C12.5012 3.25 12.9907 3.30304 13.4683 3.40918C13.8628 3.49689 14.2493 3.62073 14.6277 3.78076C15.0093 3.9422 15.3704 4.13501 15.7107 4.35919L15.7112 4.35956C16.0908 4.60968 16.4448 4.89886 16.7729 5.22705C17.1013 5.5553 17.3904 5.90924 17.6406 6.28894L17.6409 6.28937C17.865 6.6297 18.0579 6.99066 18.2192 7.37238C18.3792 7.75061 18.5029 8.1369 18.5908 8.53125L18.5908 8.53174L18.5908 8.53223C18.697 9.0097 18.75 9.49896 18.75 10C18.75 10.5177 18.6936 11.0224 18.5806 11.5142L18.5806 11.5147C18.4854 11.9293 18.3501 12.3348 18.1746 12.731C17.9983 13.1291 17.7878 13.5035 17.5437 13.8544L17.5437 13.8544L17.5432 13.855L17.5432 13.8551L17.5432 13.8551C17.2744 14.2411 16.9646 14.5984 16.6135 14.9272ZM8.48145 6.10217C8.32715 6.24213 8.18018 6.39215 8.04077 6.55225C7.80322 6.82471 7.59741 7.11505 7.42358 7.4234L7.42358 7.4234C7.27539 7.68634 7.15015 7.96228 7.0481 8.25128C6.96729 8.48035 6.90283 8.71283 6.85474 8.94861C6.78491 9.29199 6.75 9.64246 6.75 10C6.75 10.0461 6.75049 10.092 6.75171 10.1378C7.87036 9.98407 8.87915 9.88898 9.88599 10.2432C9.92114 10.2555 9.95532 10.2696 9.98877 10.2854L9.98877 10.2854C10.6628 10.6048 11 11.6357 11 13.3781L10.9995 15.1558C11.3259 15.2186 11.6594 15.25 12 15.25L12.0154 15.25C12.0151 15.2299 12.0146 15.2096 12.0144 15.1891C12.0012 14.4711 11.9841 13.5418 12.3145 12.9849C12.6211 12.468 13.0312 12.144 13.5447 12.0128C14.3542 12.0695 14.8669 11.9614 15.0825 11.6888C15.2346 11.4964 15.2229 11.2762 15.2095 11.0266C15.1946 10.7455 15.1775 10.427 15.3901 10.0686C15.7915 9.39185 15.8877 9.28949 16.6204 9.0965C16.769 9.05731 16.9485 9.03009 17.1587 9.01477C17.147 8.95288 17.134 8.8913 17.1201 8.82996L17.1199 8.8291C17.0522 8.53229 16.9583 8.24152 16.8376 7.95667C16.7144 7.66492 16.5671 7.38855 16.3965 7.12769L16.3965 7.12756L16.3965 7.1275C16.1997 6.82703 15.9717 6.54712 15.7124 6.28772C15.5828 6.15814 15.4482 6.03644 15.3083 5.92255C15.0806 6.04498 14.7815 6.1062 14.3513 6.1062C13.4104 6.1062 12.7832 6.69232 12.7832 7.27838C12.7832 7.86444 12.1951 9 11.2542 9C10.3132 9 9.33301 8.48718 9.33301 6.94873C9.33301 6.90704 9.33203 6.60333 9.2959 6.57336C9.06299 6.38074 8.7915 6.22363 8.48145 6.10217ZM16.75 20C16.75 19.58 16.4199 19.25 16 19.25L8 19.25C7.58008 19.25 7.25 19.58 7.25 20C7.25 20.42 7.58008 20.75 8 20.75L16 20.75C16.4199 20.75 16.75 20.42 16.75 20Z" clip-rule="evenodd" fill="var(--aui-first-color,  rgba(0,103,209,1))" fill-opacity="1.000000" fill-rule="evenodd"/>
		<path id="path6 (边框)" d="M8 19.25L16 19.25C16.41 19.25 16.75 19.58 16.75 20C16.75 20.42 16.41 20.75 16 20.75L8 20.75C7.58 20.75 7.25 20.42 7.25 20C7.25 19.58 7.58 19.25 8 19.25Z" fill="var(--aui-second-color,  rgba(0,103,209,0.7))"  fill-opacity="0.5" fill-rule="evenodd"/>
	</g>
</svg>
