<svg viewBox="0 0 24 24" xmlns="http://www.w3.org/2000/svg" xmlns:xlink="http://www.w3.org/1999/xlink">
	<defs>
		<clipPath id="clip28_16791">
			<rect id="color-icon-white-paper" width="24.000000" height="24.000000" fill="white" fill-opacity="0"/>
		</clipPath>
	</defs>
	<g clip-path="url(#clip28_16791)">
		<path id="减去顶层" d="M21 5.3849L21 15.5747C21 15.6127 20.9993 15.6507 20.9978 15.6886C20.9956 15.7412 20.9919 15.7937 20.9871 15.8461C20.9561 16.2011 20.8696 16.5441 20.7283 16.8749C20.6453 17.0692 20.5459 17.2528 20.4304 17.4259C20.3027 17.6172 20.1553 17.7956 19.988 17.9611C19.6694 18.2762 19.3035 18.5203 18.8901 18.6933C18.8274 18.7195 18.7642 18.7438 18.7007 18.7662C18.3542 18.9073 18.0056 18.9845 17.6543 18.998L17.6541 18.998C17.6169 18.9994 17.5798 19.0001 17.543 19.0001L4.84521 19.0001C4.86523 19.0756 4.89087 19.1498 4.92188 19.2227C5.0061 19.4195 5.125 19.5939 5.27881 19.746C5.43237 19.898 5.60864 20.0156 5.80762 20.0989C5.89526 20.1355 5.98462 20.1643 6.07593 20.1854C6.19873 20.2138 6.3252 20.228 6.45508 20.228L20.1042 20.228C20.2256 20.228 20.3418 20.2512 20.4531 20.2979C20.5603 20.3427 20.6553 20.4059 20.7378 20.4875C20.8201 20.569 20.884 20.6628 20.9294 20.7689C20.9521 20.8223 20.9695 20.8768 20.9812 20.9325C20.9937 20.9917 21 21.0522 21 21.114C21 21.2339 20.9766 21.349 20.9294 21.4591C20.884 21.5652 20.8201 21.659 20.7378 21.7406C20.6553 21.8221 20.5603 21.8853 20.4531 21.9302C20.3418 21.9768 20.2256 22.0001 20.1042 22.0001L6.45508 22.0001C6.20044 22.0001 5.95166 21.9736 5.70874 21.9206C5.50513 21.8762 5.30542 21.813 5.10986 21.7313C4.69653 21.5583 4.33057 21.3142 4.01196 20.9991C3.69336 20.6839 3.44653 20.3219 3.27173 19.9129C3.14575 19.6182 3.06348 19.3139 3.02515 19.0001L3 19.0001L3 5.3849C3 5.32811 3.00171 5.27143 3.00513 5.21488C3.00757 5.17268 3.01123 5.13053 3.01562 5.08844C3.02832 4.95562 3.04883 4.82451 3.0769 4.69509L3.0769 4.69508C3.07788 4.69131 3.07861 4.68754 3.07959 4.68378C3.07983 4.68242 3.08008 4.68106 3.08032 4.67971C3.12524 4.47815 3.18921 4.28064 3.27173 4.08731C3.35034 3.90384 3.44312 3.72982 3.55054 3.56523C3.55688 3.5556 3.56323 3.54601 3.56958 3.53644C3.69727 3.34506 3.84473 3.16663 4.01196 3.00114C4.17065 2.84414 4.34106 2.70477 4.52344 2.58305L4.52344 2.58302L4.52393 2.58264C4.53369 2.5762 4.54346 2.56981 4.55298 2.56346C4.72803 2.44925 4.91357 2.35108 5.10986 2.26895C5.302 2.18854 5.49829 2.12617 5.69849 2.08183C5.7019 2.08108 5.70532 2.08033 5.70874 2.07958C5.95166 2.0266 6.20044 2.00011 6.45508 2.00011L17.5452 2.00011C18.0134 2.00011 18.4617 2.08973 18.8901 2.26895C19.3035 2.44193 19.6694 2.686 19.988 3.00114C20.1553 3.1666 20.3027 3.34502 20.4304 3.53637C20.5459 3.70943 20.6453 3.89308 20.7283 4.08731C20.8108 4.28066 20.8748 4.47811 20.9197 4.67971C20.95 4.81525 20.9717 4.95265 20.9849 5.09191C20.989 5.13284 20.9924 5.17382 20.9949 5.21486C20.9983 5.27143 21 5.32811 21 5.3849ZM18 5.00005L12 5.00005L12 13L14.4448 10.7182C14.7649 10.4194 15.2351 10.4194 15.5552 10.7182L18 13L18 5.00005Z" clip-rule="evenodd" fill="var(--aui-first-color,  rgba(0,103,209,1))" fill-opacity="1.000000" fill-opacity="1.000000" fill-rule="evenodd"/>
		<path id="path7" d="M12 5L18 5L18 13L15.55 10.71C15.23 10.41 14.76 10.41 14.44 10.71L12 13L12 5Z" fill="var(--aui-second-color,  rgba(0,103,209,0.7))" fill-opacity="0.5" fill-rule="evenodd"/>
	</g>
</svg>
