<svg width="72.000000" height="72.000000" viewBox="0 0 72 72" fill="none" xmlns="http://www.w3.org/2000/svg" xmlns:xlink="http://www.w3.org/1999/xlink">
	<desc>
			Created with Pixso.
	</desc>
	<defs>
		<clipPath id="clip117_259">
			<rect id="1#域名注册-Domains" width="72.000000" height="72.000000" fill="white" fill-opacity="0"/>
		</clipPath>
	</defs>
	<g clip-path="url(#clip117_259)">
		<path id="矩形备份-19" d="M16 0L56 0C64.8 0 72 7.2 72 16L72 56C72 64.79 64.8 72 56 72L16 72C7.19 72 0 64.79 0 56L0 16C0 7.2 7.19 0 16 0Z" fill="#F85835" fill-opacity="1.000000" fill-rule="evenodd"/>
		<path id="形状结合" d="M36 11.07C49.74 11.07 60.92 22.25 60.92 36C60.92 49.74 49.74 60.92 36 60.92C22.25 60.92 11.07 49.74 11.07 36C11.06 22.25 22.24 11.07 36 11.07ZM22.43 41.62C22.14 40.91 21.33 40.58 20.62 40.87C19.91 41.16 19.58 41.97 19.87 42.68C22.55 49.15 28.87 53.45 35.99 53.45C43.07 53.45 49.36 49.2 52.07 42.79C52.37 42.09 52.04 41.27 51.33 40.98C50.63 40.68 49.81 41.01 49.52 41.72C47.68 46.06 43.89 49.23 39.37 50.3C40.44 48.25 41.26 46.2 41.82 44.13C42.02 43.39 41.58 42.63 40.85 42.43C40.11 42.23 39.35 42.67 39.15 43.4C38.49 45.82 37.44 48.25 35.98 50.68C35.82 50.68 35.67 50.68 35.51 50.67C34.11 48.23 33.05 45.79 32.34 43.37C32.12 42.64 31.35 42.22 30.62 42.43C29.89 42.65 29.47 43.42 29.68 44.15C30.27 46.16 31.07 48.16 32.08 50.15C27.77 48.96 24.18 45.84 22.43 41.62ZM28.91 32.61C28.32 32.54 27.75 32.9 27.58 33.49L26.94 35.6L26.06 33.39L25.95 33.17C25.42 32.33 24.08 32.43 23.72 33.44L23.05 35.34L22.5 33.49L22.42 33.28C22.15 32.76 21.53 32.48 20.95 32.66C20.29 32.85 19.91 33.55 20.11 34.21L21.77 39.74L21.86 39.95C22.33 40.89 23.77 40.85 24.14 39.79L24.99 37.4L25.96 39.84L26.07 40.04C26.61 40.92 28 40.79 28.31 39.74L29.97 34.21L30.02 33.99C30.08 33.4 29.72 32.83 29.14 32.66L28.91 32.61ZM39.86 32.61C39.27 32.54 38.71 32.9 38.53 33.49L37.89 35.6L37 33.39L36.89 33.17C36.36 32.33 35.02 32.43 34.67 33.44L34 35.35L33.44 33.49L33.36 33.28C33.09 32.76 32.48 32.48 31.89 32.66C31.23 32.85 30.86 33.55 31.06 34.21L32.72 39.74L32.8 39.95C33.27 40.89 34.71 40.85 35.09 39.79L35.92 37.4L36.9 39.84L37 40.04C37.54 40.92 38.93 40.79 39.25 39.74L40.91 34.21L40.95 33.99C41.02 33.4 40.66 32.83 40.07 32.66L39.86 32.61ZM50.82 32.61C50.23 32.54 49.66 32.9 49.49 33.49L48.85 35.6L47.97 33.39L47.86 33.17C47.33 32.33 45.99 32.43 45.64 33.44L44.97 35.34L44.41 33.49L44.33 33.28C44.06 32.76 43.45 32.48 42.86 32.66C42.2 32.85 41.83 33.55 42.02 34.21L43.68 39.74L43.77 39.95C44.24 40.89 45.68 40.85 46.05 39.79L46.89 37.4L47.87 39.84L47.97 40.04C48.51 40.92 49.9 40.79 50.22 39.74L51.88 34.21L51.92 33.99C51.99 33.4 51.63 32.83 51.04 32.66L50.82 32.61ZM35.99 19.11C29.53 19.11 23.69 22.65 20.66 28.22C20.29 28.89 20.54 29.73 21.21 30.1C21.88 30.47 22.72 30.22 23.09 29.55C24.96 26.11 28.1 23.59 31.79 22.49C30.94 24.11 30.24 26.1 29.66 28.46C29.48 29.2 29.93 29.95 30.68 30.13C31.42 30.31 32.17 29.86 32.35 29.11C33.15 25.82 34.2 23.43 35.44 21.93C35.61 21.92 35.81 21.87 35.98 21.87C37.45 24.3 38.5 26.72 39.13 29.13C39.32 29.87 40.08 30.31 40.82 30.12C41.56 29.93 42 29.17 41.81 28.43C41.27 26.37 40.46 24.32 39.38 22.27C43.41 23.23 46.88 25.86 48.88 29.55C49.25 30.22 50.09 30.47 50.76 30.11C51.43 29.74 51.68 28.9 51.32 28.23C48.3 22.66 42.46 19.11 35.99 19.11Z" fill="#FFFFFF" fill-opacity="1.000000" fill-rule="evenodd"/>
	</g>
</svg>
