<svg width="72.000000" height="72.000000" viewBox="0 0 72 72" fill="none" xmlns="http://www.w3.org/2000/svg" xmlns:xlink="http://www.w3.org/1999/xlink">
	<desc>
			Created with Pixso.
	</desc>
	<defs>
		<clipPath id="clip117_254">
			<rect id="10#云客服-CEC" width="72.000000" height="72.000000" fill="white" fill-opacity="0"/>
		</clipPath>
	</defs>
	<g clip-path="url(#clip117_254)">
		<path id="矩形备份-19" d="M16 0L56 0C64.8 0 72 7.2 72 16L72 56C72 64.79 64.8 72 56 72L16 72C7.19 72 0 64.79 0 56L0 16C0 7.2 7.19 0 16 0Z" fill="#00C4BE" fill-opacity="1.000000" fill-rule="evenodd"/>
		<path id="形状结合" d="M36 12C40.39 12 44.5 13.2 48 15.2L48 20C48 21.7 49.3 23 51 23L56.2 23C58.6 26.7 60 31.2 60 36C60 49.29 49.3 60 36 60C30.7 60 25.8 58.29 21.8 55.39C22.5 54.79 23 54 23 53L23 50L50 50C50 45 47.7 41.29 44.1 39.2L43.8 39C41.7 41.1 39 42.5 35.89 42.5C32.89 42.5 30.1 41.2 28 39.1C25.3 40.7 23.2 43.1 22.39 46.39C21.89 45.5 21 45 20 45L13.7 45C12.6 42.2 12 39.2 12 36C12 22.7 22.7 12 36 12ZM20 46C21.1 46 22 46.89 22 48L22 53C22 54.1 21.1 55 20 55L13 55C11.89 55 11 54.1 11 53L11 48C11 46.89 11.89 46 13 46L20 46ZM16.29 48L15 48L13 53.29L14.2 53.29L14.6 52.1L16.5 52.1L16.89 53.29L18.1 53.29L16.29 48ZM20 48L18.89 48L18.89 53.29L20 53.29L20 48ZM15.6 48.89C15.6 49.1 15.6 49.2 15.7 49.39L16.29 51.2L14.89 51.2L15.5 49.39C15.5 49.2 15.5 49.1 15.6 48.89ZM36 24C31.6 24 28 27.6 28 32C28 36.39 31.6 40 36 40C40.39 40 44 36.39 44 32C44 27.6 40.39 24 36 24ZM36 20C30.89 20 26.5 23.29 24.89 28C23.8 28.6 23 29.89 23 31.29C23 33.39 24.7 35.1 26.7 35.1L26.7 27.6C26.6 27.6 26.5 27.6 26.39 27.6C28 23.89 31.7 21.29 36 21.29C40.3 21.29 43.89 23.89 45.6 27.6C45.5 27.6 45.39 27.6 45.3 27.6L45.3 35C47.39 35 49 33.29 49 31.2C49 29.79 48.2 28.6 47.1 27.89C45.5 23.29 41.1 20 36 20ZM60 16L60 20C60 21.1 59.1 22 58 22L51 22C49.89 22 49 21.1 49 20L49 16L60 16ZM53.6 17.39C53.3 17.39 53 17.7 53 18L53 20C53 20.1 53 20.2 53.1 20.29C53.2 20.6 53.6 20.7 53.89 20.6L56 19.6C56.1 19.5 56.2 19.39 56.3 19.29C56.39 19 56.3 18.6 56 18.5L53.89 17.5C53.8 17.39 53.7 17.39 53.6 17.39ZM58 13C59.1 13 60 13.89 60 15L49 15C49 13.89 49.89 13 51 13L58 13Z" fill="#FFFFFF" fill-opacity="1.000000" fill-rule="evenodd"/>
	</g>
</svg>
