<svg width="72.000000" height="72.000000" viewBox="0 0 72 72" fill="none" xmlns="http://www.w3.org/2000/svg" xmlns:xlink="http://www.w3.org/1999/xlink">
	<desc>
			Created with Pixso.
	</desc>
	<defs>
		<clipPath id="clip117_257">
			<rect id="11#专属云-DEC" width="72.000000" height="72.000000" fill="white" fill-opacity="0"/>
		</clipPath>
	</defs>
	<g clip-path="url(#clip117_257)">
		<path id="矩形备份-19" d="M16 0L56 0C64.8 0 72 7.2 72 16L72 56C72 64.79 64.8 72 56 72L16 72C7.19 72 0 64.79 0 56L0 16C0 7.2 7.19 0 16 0Z" fill="#FF9A2E" fill-opacity="1.000000" fill-rule="evenodd"/>
		<path id="形状结合" d="M36.5 18C42.2 18 47 21.89 48.6 27.29C54.5 28 59.2 32.89 59.89 39L55.39 39L55.1 39C48.2 39.2 42.7 45.1 42.7 52.39C42.7 52.89 42.7 53.5 42.8 54L24 54C17.29 53.6 12 47.79 12 40.7C12 33.39 17.5 27.5 24.39 27.29C26 21.89 30.8 18 36.5 18Z" fill="#FFFFFF" fill-opacity="1.000000" fill-rule="evenodd"/>
		<g opacity="0.383300">
			<path id="形状结合备份" d="M42.7 52.39C42.7 45.1 48.2 39.2 55.09 39L55.39 39L60 39L42.7 54C42.7 53.5 42.7 52.89 42.7 52.39Z" fill="#FFFFFF" fill-opacity="1.000000" fill-rule="evenodd"/>
		</g>
	</g>
</svg>
