<svg width="72.000000" height="72.000000" viewBox="0 0 72 72" fill="none" xmlns="http://www.w3.org/2000/svg" xmlns:xlink="http://www.w3.org/1999/xlink">
	<desc>
			Created with Pixso.
	</desc>
	<defs>
		<clipPath id="clip117_245">
			<rect id="13#隐私保护通话-PrivateNumber" width="72.000000" height="72.000000" fill="white" fill-opacity="0"/>
		</clipPath>
	</defs>
	<g clip-path="url(#clip117_245)">
		<path id="矩形备份-19" d="M16 0L56 0C64.8 0 72 7.2 72 16L72 56C72 64.79 64.8 72 56 72L16 72C7.19 72 0 64.79 0 56L0 16C0 7.2 7.19 0 16 0Z" fill="#25C251" fill-opacity="1.000000" fill-rule="evenodd"/>
		<path id="形状结合" d="M36 11.5C44.5 11.5 49.5 18.1 49.5 24.79L49.5 28L54 28C56.2 28 58 29.79 58 32.1C58 33.5 57.89 35 57.89 36.6L57.89 37.39L57.89 38.2C57.89 41.1 57.89 44 57.89 46L57.89 46.5L57.89 47.79C57.89 47.89 57.89 47.89 57.89 48L57.89 48.39C56.6 50.1 48.89 58.39 47.2 60L18 60C15.8 60 14 58.2 14 55.89L14 32.1C14 29.79 15.8 28 18 28L22.5 28L22.5 24.79C22.5 18.2 27.8 11.7 35.7 11.5L36 11.5ZM30.7 46.79L24 46.79L24 50.6C24 51.39 24.7 52 25.5 52L30.7 52L30.7 46.79ZM48 46.79L41.3 46.79L41.3 52L46.5 52C47.3 52 48 51.29 48 50.6L48 46.79ZM40 35L32 35L32 52L40 52L40 35ZM30.7 41.5L24 41.5L24 45.39L30.7 45.39L30.7 41.5ZM48 41.5L41.3 41.5L41.3 45.39L48 45.39L48 41.5ZM30.7 35L25.5 35C24.7 35 24 35.7 24 36.39L24 40.2L30.7 40.2L30.7 35ZM46.5 35L41.3 35L41.3 40.2L48 40.2L48 36.39C48 35.7 47.3 35 46.5 35ZM36 14.5C29.8 14.5 25.5 19.6 25.5 24.79L25.5 28L46.5 28L46.5 24.79C46.5 19.89 42.89 14.89 36.6 14.5L36.3 14.5L36 14.5Z" fill="#FFFFFF" fill-opacity="1.000000" fill-rule="nonzero"/>
	</g>
</svg>
