<svg width="72.000000" height="72.000000" viewBox="0 0 72 72" fill="none" xmlns="http://www.w3.org/2000/svg" xmlns:xlink="http://www.w3.org/1999/xlink">
	<desc>
			Created with Pixso.
	</desc>
	<defs>
		<clipPath id="clip117_250">
			<rect id="14#语音通话-VoiceCall" width="72.000000" height="72.000000" fill="white" fill-opacity="0"/>
		</clipPath>
	</defs>
	<g clip-path="url(#clip117_250)">
		<path id="矩形备份-19" d="M16 0L56 0C64.8 0 72 7.2 72 16L72 56C72 64.79 64.8 72 56 72L16 72C7.19 72 0 64.79 0 56L0 16C0 7.2 7.19 0 16 0Z" fill="#9F53E6" fill-opacity="1.000000" fill-rule="evenodd"/>
		<path id="形状结合" d="M24 54C17.29 53.6 12 47.79 12 40.6C12 33.29 17.5 27.39 24.39 27.2C26 21.89 30.8 18 36.5 18C42.2 18 47 21.89 48.6 27.29C55 28 60 33.7 60 40.6C60 47.89 54.5 53.79 47.6 54L47.3 54L24 54ZM36 28.5C30.2 28.5 25.5 32.89 25.5 38.39L25.5 45.5C25.5 47 27 48.29 28.8 48.29C30.6 48.29 32.1 47.1 32.1 45.5L32.1 41.2C32.1 39.7 30.6 38.39 28.8 38.39L28.6 38.39C28.39 38.39 28.1 38.5 27.89 38.5L27.7 38.6C27.7 34.29 31.5 30.7 36.1 30.7L36.39 30.7C40.89 30.79 44.5 34.29 44.5 38.5L44.5 38.7C44.2 38.6 43.7 38.6 43.3 38.6C41.5 38.6 40 39.79 40 41.39L40 45.7C40 47.2 41.5 48.5 43.3 48.5C45.1 48.5 46.6 47.29 46.6 45.7L46.6 38.5C46.5 32.89 41.8 28.5 36 28.5Z" fill="#FFFFFF" fill-opacity="1.000000" fill-rule="evenodd"/>
	</g>
</svg>
