<svg width="72.000000" height="72.000000" viewBox="0 0 72 72" fill="none" xmlns="http://www.w3.org/2000/svg" xmlns:xlink="http://www.w3.org/1999/xlink">
	<desc>
			Created with Pixso.
	</desc>
	<defs>
		<clipPath id="clip117_244">
			<rect id="15#消息|短信-MSGSMS" width="72.000000" height="72.000000" fill="white" fill-opacity="0"/>
		</clipPath>
	</defs>
	<g clip-path="url(#clip117_244)">
		<path id="矩形备份-19" d="M16 0L56 0C64.8 0 72 7.2 72 16L72 56C72 64.79 64.8 72 56 72L16 72C7.19 72 0 64.79 0 56L0 16C0 7.2 7.19 0 16 0Z" fill="#7DCC29" fill-opacity="1.000000" fill-rule="evenodd"/>
		<path id="形状结合" d="M36.5 18C42.2 18 47 21.89 48.6 27.29C55 28 60 33.7 60 40.6C60 47.89 54.5 53.79 47.6 54L47.3 54L24 54C17.29 53.6 12 47.79 12 40.7C12 33.39 17.5 27.5 24.39 27.29C26 21.89 30.8 18 36.5 18ZM48 36.79L36.3 41.79L35.8 41.79L24.1 36.79L24.1 47.29C24.1 47.7 24.5 48 24.8 48L47.6 48C47.89 48 48.1 47.7 48.1 47.29L48 36.79ZM47.5 33L24.7 33C24.3 33 24 33.29 24 33.7L24 35.29L36 40.5L48 35.29L48 33.7C48 33.29 47.7 33 47.5 33Z" fill="#FFFFFF" fill-opacity="1.000000" fill-rule="evenodd"/>
	</g>
</svg>
