<svg width="72.000000" height="72.000000" viewBox="0 0 72 72" fill="none" xmlns="http://www.w3.org/2000/svg" xmlns:xlink="http://www.w3.org/1999/xlink">
	<desc>
			Created with Pixso.
	</desc>
	<defs>
		<clipPath id="clip117_241">
			<rect id="16#移动业务加速-HMSA" width="72.000000" height="72.000000" fill="white" fill-opacity="0"/>
		</clipPath>
	</defs>
	<g clip-path="url(#clip117_241)">
		<path id="矩形备份-19" d="M16 0L56 0C64.8 0 72 7.2 72 16L72 56C72 64.79 64.8 72 56 72L16 72C7.19 72 0 64.79 0 56L0 16C0 7.2 7.19 0 16 0Z" fill="#1476FF" fill-opacity="1.000000" fill-rule="evenodd"/>
		<path id="形状结合" d="M35.89 11C37.29 11 38.5 11.29 39.7 11.89L55.2 20.89C57.29 22.1 58.89 24.89 58.89 27.39L58.89 45.39C58.89 47.79 57.29 50.6 55.2 51.89L39.7 60.89C38.59 61.5 37.29 61.79 35.89 61.79C34.5 61.79 33.2 61.5 32.09 60.89L16.59 51.89C14.5 50.6 12.89 47.89 12.89 45.39L12.89 27.39C12.89 25 14.5 22.1 16.59 20.89L32.09 11.89C33.29 11.29 34.5 11 35.89 11ZM38.39 45.1C37.79 44.5 36.89 44.1 36 44.2C34.2 44.1 32.79 45.2 32.79 46.79C32.79 46.79 33.7 54.5 36 54.5C36.39 54.5 36.7 54.39 37 54.1C37.59 53.5 38 52.6 38.39 51C38.79 49.39 39.2 47.6 39.2 46.79C39.2 46.29 38.89 45.6 38.39 45.1ZM36.79 20.29C36.29 20 35.79 20 35.29 20.29C31.2 22.89 28.79 27.2 28.79 31.89C28.79 32.7 28.89 33.29 29 34C28 35.7 27.5 37.6 27.39 39.6C27.39 40.6 27.5 41.39 27.7 42.39C27.89 43 28.39 43.39 28.89 43.39C29.59 43.5 30.09 43.1 30.29 42.5C30.59 41.79 31.09 41.2 31.5 40.5C32 41.39 32.09 41.5 32.09 41.6L32.29 41.79L33 42C34 42.1 34.59 42.1 35.89 42.2C37.09 42.29 37.7 42.1 38.79 42L39.5 41.89L39.7 41.7C39.79 41.6 39.79 41.5 40.2 40.6C40.7 41.29 41.09 41.89 41.39 42.6C41.59 43.2 42.29 43.5 42.79 43.5C43.2 43.5 43.5 43.39 43.79 43.1C44 42.89 44.2 42.7 44.2 42.5C44.39 41.5 44.5 40.7 44.5 39.7C44.5 37.79 43.89 35.7 43 34C43.09 33.29 43.2 32.7 43.2 31.89C43.29 27.1 40.79 22.7 36.79 20.29ZM36 27.79C37.59 27.79 38.7 29 38.7 30.5C38.79 31.2 38.39 31.89 37.89 32.39C37.39 32.89 36.79 33.2 36 33.2C34.39 33.2 33.29 32 33.29 30.5C33.29 29.1 34.59 27.79 36 27.79Z" fill="#FFFFFF" fill-opacity="1.000000" fill-rule="evenodd"/>
	</g>
</svg>
