<svg width="72.000000" height="72.000000" viewBox="0 0 72 72" fill="none" xmlns="http://www.w3.org/2000/svg" xmlns:xlink="http://www.w3.org/1999/xlink">
	<desc>
			Created with Pixso.
	</desc>
	<defs>
		<clipPath id="clip117_256">
			<rect id="17#云管理网络-CMN" width="72.000000" height="72.000000" fill="white" fill-opacity="0"/>
		</clipPath>
	</defs>
	<g clip-path="url(#clip117_256)">
		<path id="矩形备份-19" d="M16 0L56 0C64.8 0 72 7.2 72 16L72 56C72 64.79 64.8 72 56 72L16 72C7.19 72 0 64.79 0 56L0 16C0 7.2 7.19 0 16 0Z" fill="#25C251" fill-opacity="1.000000" fill-rule="evenodd"/>
		<path id="形状结合" d="M38.7 38.2C44.1 39.39 48 44.29 48 50C48 51.79 47.6 53.6 46.89 55.1C46.6 55.1 46.3 55 46 55C44.3 55 43 56.29 43 58C43 58.6 43.2 59.1 43.5 59.6C41.39 61.2 38.89 62.2 36 62.2C33.1 62.2 30.6 61.2 28.5 59.6C28.8 59.1 29 58.6 29 58C29 56.29 27.7 55 26 55C25.7 55 25.39 55.1 25.1 55.1C24.3 53.5 24 51.79 24 50C24 44.29 27.89 39.5 33.3 38.2C33.8 39.2 34.8 40 36 40C37.2 40 38.3 39.29 38.7 38.2ZM26 56.5C26.8 56.5 27.5 57.2 27.5 58C27.5 58.79 26.8 59.5 26 59.5C25.2 59.5 24.5 58.79 24.5 58C24.5 57.2 25.2 56.5 26 56.5ZM46 56.5C46.8 56.5 47.5 57.2 47.5 58C47.5 58.79 46.8 59.5 46 59.5C45.2 59.5 44.5 58.79 44.5 58C44.5 57.2 45.2 56.5 46 56.5ZM39.89 49.5C38.89 50.6 37.5 51.2 36 51.2C34.5 51.2 33.1 50.5 32.1 49.5C30.2 50.6 29 52.39 29 55L43 55C43 52.39 41.8 50.6 39.89 49.5ZM36.5 16C42.2 16 47 19.89 48.6 25.29C55 26 60 31.7 60 38.6C60 45 55.7 50.39 50 51.7C50.1 51.1 50.1 50.6 50.1 50C50.1 43.29 45.39 37.6 38.89 36.2C38.6 35 37.39 34 36 34C34.6 34 33.39 35 33.1 36.2C26.7 37.5 21.89 43.29 21.89 50C21.89 50.6 21.89 51.1 22 51.7C16.29 50.39 12 45 12 38.6C12 31.29 17.5 25.39 24.39 25.2C26 19.89 30.8 16 36.5 16ZM36 42C33.8 42 32 43.79 32 46C32 48.2 33.8 50 36 50C38.2 50 40 48.2 40 46C40 43.79 38.2 42 36 42ZM36 35.5C36.8 35.5 37.5 36.2 37.5 37C37.5 37.79 36.8 38.5 36 38.5C35.2 38.5 34.5 37.79 34.5 37C34.5 36.2 35.2 35.5 36 35.5Z" fill="#FFFFFF" fill-opacity="1.000000" fill-rule="evenodd"/>
	</g>
</svg>
