<svg width="72.000000" height="72.000000" viewBox="0 0 72 72" fill="none" xmlns="http://www.w3.org/2000/svg" xmlns:xlink="http://www.w3.org/1999/xlink">
	<desc>
			Created with Pixso.
	</desc>
	<defs>
		<clipPath id="clip117_248">
			<rect id="18#SDWAN云服务-SDWAN" width="72.000000" height="72.000000" fill="white" fill-opacity="0"/>
		</clipPath>
	</defs>
	<g clip-path="url(#clip117_248)">
		<path id="矩形备份-19" d="M16 0L56 0C64.8 0 72 7.2 72 16L72 56C72 64.79 64.8 72 56 72L16 72C7.19 72 0 64.79 0 56L0 16C0 7.2 7.19 0 16 0Z" fill="#9F53E6" fill-opacity="1.000000" fill-rule="evenodd"/>
		<path id="形状结合" d="M36.5 16C42.2 16 47 19.89 48.6 25.29C55 26 60 31.7 60 38.6C60 45 55.7 50.39 49.89 51.7C50 51.2 50 50.6 50 50C50 42.29 43.7 36 36 36C28.3 36 22 42.29 22 50C22 50.6 22 51.2 22.1 51.7C16.29 50.39 12 45.1 12 38.6C12 31.29 17.5 25.39 24.39 25.2C26 19.89 30.8 16 36.5 16ZM36 38C29.39 38 24 43.39 24 50C24 56.6 29.39 62 36 62C42.6 62 48 56.6 48 50C48 43.39 42.6 38 36 38ZM28.2 50.7L33.3 50.7C33.7 50.7 34 50.39 34 50C34 49.6 33.7 49.29 33.3 49.29L28.2 49.29L30 47.6C30.3 47.29 30.3 46.89 30 46.7C29.7 46.39 29.3 46.39 29.1 46.7L26.3 49.5C26 49.6 26 49.6 26 49.7C26 49.79 26 50.1 26 50.1C26 50.2 27 51.29 29 53.1C29.3 53.39 29.7 53.39 29.89 53.1C30.2 52.79 30.2 52.39 29.89 52.2L28.2 50.7ZM43.8 50.7L38.7 50.7C38.3 50.7 38 50.39 38 50C38 49.6 38.3 49.29 38.7 49.29L43.8 49.29L42 47.6C41.7 47.29 41.7 46.89 42 46.7C42.3 46.5 42.7 46.39 42.89 46.7L45.7 49.5C45.8 49.6 45.8 49.6 45.8 49.79C45.8 49.89 45.8 50.2 45.8 50.2C45.8 50.29 44.8 51.39 42.8 53.2C42.5 53.5 42.1 53.5 41.89 53.2C41.7 52.89 41.6 52.5 41.89 52.29L43.8 50.7ZM35.6 47.7C35.7 47.79 35.7 47.79 35.89 47.79L36 47.79L36.2 47.79C36.3 47.79 36.39 47.7 36.5 47.7L39.3 44.79C39.6 44.5 39.6 44.1 39.3 43.89C39 43.6 38.6 43.6 38.39 43.89L36.6 45.6L36.6 40.7C36.6 40.29 36.3 40 35.89 40C35.5 40 35.2 40.29 35.2 40.7L35.2 45.79L33.6 44C33.3 43.7 32.89 43.7 32.7 44C32.39 44.29 32.39 44.7 32.7 44.89L35.6 47.7ZM35.6 52.29C35.7 52.2 35.7 52.2 35.89 52.2L36 52.2L36.2 52.2C36.3 52.2 36.39 52.29 36.5 52.29L39.3 55.2C39.6 55.5 39.6 55.89 39.3 56.1C39 56.39 38.6 56.39 38.39 56.1L36.6 54.39L36.6 59.29C36.6 59.7 36.3 60 35.89 60C35.5 60 35.2 59.7 35.2 59.29L35.2 54.2L33.6 56C33.3 56.29 32.89 56.29 32.7 56C32.39 55.7 32.39 55.29 32.7 55.1L35.6 52.29Z" fill="#FFFFFF" fill-opacity="1.000000" fill-rule="evenodd"/>
	</g>
</svg>
