<svg width="72.000000" height="72.000000" viewBox="0 0 72 72" fill="none" xmlns="http://www.w3.org/2000/svg" xmlns:xlink="http://www.w3.org/1999/xlink">
	<desc>
			Created with Pixso.
	</desc>
	<defs>
		<clipPath id="clip117_260">
			<rect id="19#边缘数据中心管理-EDCM" width="72.000000" height="72.000000" fill="white" fill-opacity="0"/>
		</clipPath>
	</defs>
	<g clip-path="url(#clip117_260)">
		<path id="矩形备份-19" d="M16 0L56 0C64.8 0 72 7.2 72 16L72 56C72 64.79 64.8 72 56 72L16 72C7.19 72 0 64.79 0 56L0 16C0 7.2 7.19 0 16 0Z" fill="#F85835" fill-opacity="1.000000" fill-rule="evenodd"/>
		<path id="形状结合" d="M36 36.29L36.22 36.3C36.5 36.32 36.79 36.39 37.08 36.51L37.25 36.59L46.62 41.86C47.13 42.14 47.66 43.05 47.66 43.64L47.66 54.28L47.65 54.41C47.59 54.99 47.1 55.78 46.57 56.09L37.25 61.33L37.08 61.41C36.73 61.55 36.37 61.63 36 61.63C35.55 61.63 35.09 61.52 34.8 61.37L25.37 56.07C24.85 55.76 24.33 54.87 24.33 54.29L24.33 43.64L24.34 43.51C24.4 42.92 24.89 42.12 25.35 41.88L34.75 36.59L34.92 36.51C35.28 36.36 35.62 36.29 36 36.29ZM36.11 40.56C33.02 40.56 30.32 43.13 29.87 46.47L29.86 46.58C29.84 46.72 29.83 46.86 29.82 47.03L29.81 47.51C29.81 48 29.6 48.88 29.26 49.91C29.12 50.31 28.99 50.7 28.87 51.01L28.8 51.19L28.66 51.46C28.56 51.7 28.56 51.88 28.66 52.12L28.81 52.3C28.93 52.42 29.07 52.49 29.27 52.49L30.39 52.49L30.39 55.69C30.39 55.75 30.4 55.79 30.41 55.86L30.45 55.97L30.45 56.11L30.56 56.22C30.68 56.33 30.87 56.41 31.09 56.41L33.34 56.41L33.34 57.65C33.34 58.06 33.62 58.38 34.03 58.38C34.43 58.38 34.72 58.06 34.72 57.65L34.72 55.69C34.67 55.33 34.38 54.96 34.02 54.96L31.78 54.96L31.83 51.77C31.83 51.68 31.82 51.64 31.78 51.52L31.77 51.35L31.66 51.24C31.54 51.13 31.36 51.05 31.13 51.05L30.36 51.05L30.56 50.46C30.91 49.35 31.18 48.22 31.18 47.53C31.18 47.33 31.18 47.24 31.2 47.12L31.23 46.96C31.24 46.88 31.25 46.8 31.26 46.74L31.3 46.48C31.54 45.04 32.28 43.82 33.36 43L33.36 44.38C33.05 44.64 32.77 45.11 32.77 45.53C32.77 46.27 33.35 46.91 34.05 46.91C34.75 46.91 35.33 46.26 35.33 45.53L35.32 45.38C35.28 44.99 35.11 44.66 34.83 44.44L34.74 42.22L35 42.15C35.18 42.11 35.37 42.07 35.57 42.05L35.71 42.04L35.71 45.61C35.74 45.85 35.86 46.16 36.09 46.24L36.87 46.64L36.87 50.45L36.88 50.56C36.9 50.73 36.98 50.84 37.1 50.98L39.75 53.3L39.73 53.7C39.72 53.96 39.71 54.22 39.71 54.52L38.85 53.9L38.86 53.71C38.86 52.97 38.28 52.33 37.58 52.33C36.87 52.33 36.3 52.98 36.3 53.71C36.3 54.44 36.87 55.09 37.58 55.09L37.71 55.08C37.75 55.08 37.79 55.07 37.83 55.06L39.73 56.58L39.84 57.79C39.88 58.11 40.17 58.35 40.53 58.35L40.68 58.34C41.07 58.28 41.3 57.91 41.23 57.53L41.13 56.67C41.05 55.53 41.03 54.36 41.12 53.27C41.2 52.25 41.37 51.38 41.66 50.71C42.16 49.53 42.4 48.5 42.4 47.48C42.4 43.75 39.71 40.68 36.34 40.55L36.11 40.56ZM36.49 15.96C42.17 15.96 47 19.88 48.62 25.29C55.02 26.01 60 31.69 60 38.59C60 44.99 55.72 50.34 50 51.65L50 43.64C50 42.21 49.02 40.5 47.76 39.82L38.31 34.5C37.61 34.16 36.84 33.96 36 33.96C35.15 33.96 34.38 34.16 33.68 34.51L24.24 39.83C22.98 40.51 22 42.21 22 43.64L22 51.65C16.28 50.34 12 44.99 12 38.59C12 31.33 17.5 25.43 24.37 25.22C26.02 19.85 30.82 15.96 36.49 15.96ZM37.1 42.17C37.61 42.3 38.14 42.54 38.6 42.83L38.65 47.24C38.65 47.65 38.95 47.97 39.35 47.97C39.7 47.92 40.05 47.61 40.05 47.24L40.05 44.3L40.16 44.48C40.71 45.37 41.02 46.44 41.02 47.57L41 47.83C40.96 48.55 40.77 49.32 40.38 50.15L40.75 50.32L40.38 50.15L40.28 50.44C40.17 50.72 40.1 51.02 40.02 51.34L39.95 51.66L38.27 50.21L38.27 46.34C38.24 46.1 38.12 45.79 37.88 45.71L37.1 45.21L37.1 42.17Z" fill="#FFFFFF" fill-opacity="1.000000" fill-rule="evenodd"/>
	</g>
</svg>
