<svg width="72.000000" height="72.000000" viewBox="0 0 72 72" fill="none" xmlns="http://www.w3.org/2000/svg" xmlns:xlink="http://www.w3.org/1999/xlink">
	<desc>
			Created with Pixso.
	</desc>
	<defs>
		<clipPath id="clip117_258">
			<rect id="2#云解析服务-DNS" width="72.000000" height="72.000000" fill="white" fill-opacity="0"/>
		</clipPath>
	</defs>
	<g clip-path="url(#clip117_258)">
		<path id="矩形备份-19" d="M16 0L56 0C64.8 0 72 7.2 72 16L72 56C72 64.79 64.8 72 56 72L16 72C7.19 72 0 64.79 0 56L0 16C0 7.2 7.19 0 16 0Z" fill="#1476FF" fill-opacity="1.000000" fill-rule="evenodd"/>
		<path id="形状结合" d="M45.6 47.2C43.7 53.5 40.2 57.7 36.2 57.7C32.2 57.7 28.8 53.5 26.8 47.2L45.6 47.2ZM24.7 47.2C26 51.8 28.1 55.5 30.8 57.7C24.8 56.3 19.79 52.4 16.7 47.2L24.7 47.2ZM55.3 47.2C52.4 52.2 47.5 56 41.7 57.6C44.3 55.4 46.4 51.8 47.6 47.2L55.3 47.2ZM24.1 26.8L26.1 26.8L46.2 26.8L48.3 26.8L56.3 26.8C57.6 29.6 58.3 32.7 58.3 36C58.3 39.3 57.6 42.4 56.3 45.2L48.2 45.2L46.1 45.2L26.2 45.2L24.1 45.2L15.6 45.2C14.3 42.4 13.6 39.3 13.6 36C13.6 32.7 14.3 29.6 15.6 26.8L24.1 26.8ZM32.3 29.4L31.5 29.4L30.7 29.4L30.7 42L32.4 42L32.4 31C33.1 31 33.6 31.4 34 32.3L36.7 39.7L36.8 40L36.9 40.3C37.5 41.4 38.6 42.1 40.2 42.1L41.9 42.1L41.9 29.4L40.2 29.4L40.2 40.4C39.3 40.4 38.7 40.2 38.5 39.6L35.6 31.8C35.4 31.2 35.2 30.8 34.8 30.4C34.2 29.8 33.3 29.4 32.3 29.4ZM53.5 29.4L46 29.4C44.5 29.4 43.4 30.6 43.4 32.1L43.4 33.4C43.4 34.9 44.6 36.1 46 36.1L50.9 36.1C51.4 36.1 51.8 36.6 51.8 37.1L51.8 39.4C51.8 40 51.4 40.4 50.9 40.4L43.3 40.4L43.3 42L50.9 42C52.4 42 53.5 40.8 53.5 39.3L53.5 37C53.5 35.5 52.3 34.3 50.9 34.3L46 34.3C45.5 34.3 45.1 33.8 45.1 33.3L45.1 32C45.1 31.4 45.5 31 46 31L53.6 31L53.5 29.4ZM26.4 29.4L18.9 29.4L18.9 42L26.4 42C27.9 42 29.1 40.8 29.1 39.3L29.1 32C29.1 30.6 27.9 29.4 26.4 29.4ZM20.6 31L26.4 31C26.9 31 27.4 31.5 27.4 32L27.4 39.3C27.4 39.9 27 40.3 26.4 40.3L20.6 40.3L20.6 31ZM42.6 14.7C48 16.4 52.5 20 55.2 24.8L47.7 24.8C46.7 20.6 44.9 17.1 42.6 14.7ZM29.9 14.6C27.6 16.9 25.7 20.5 24.6 24.8L16.79 24.8C19.6 20 24.2 16.3 29.7 14.7L29.9 14.6ZM36 13.7C36.2 13.7 36.4 13.7 36.6 13.7C40.5 14 43.9 18.4 45.7 24.8L26.6 24.8C28.4 18.4 31.9 14 35.8 13.7L36 13.7Z" fill="#FFFFFF" fill-opacity="1.000000" fill-rule="nonzero"/>
	</g>
</svg>
