<svg width="72.000000" height="72.000000" viewBox="0 0 72 72" fill="none" xmlns="http://www.w3.org/2000/svg" xmlns:xlink="http://www.w3.org/1999/xlink">
	<desc>
			Created with Pixso.
	</desc>
	<defs>
		<clipPath id="clip117_247">
			<rect id="20#ROMA资产中心-ROMAExchange" width="72.000000" height="72.000000" fill="white" fill-opacity="0"/>
		</clipPath>
	</defs>
	<g clip-path="url(#clip117_247)">
		<path id="矩形备份-19" d="M16 0L56 0C64.8 0 72 7.2 72 16L72 56C72 64.79 64.8 72 56 72L16 72C7.19 72 0 64.79 0 56L0 16C0 7.2 7.19 0 16 0Z" fill="#00ABED" fill-opacity="1.000000" fill-rule="evenodd"/>
		<path id="形状结合" d="M36 9C38.89 9 41.8 9.5 44.5 10.39C45 10.6 45.3 11.1 45.1 11.7C44.89 12.2 44.39 12.5 43.8 12.29C41.39 11.39 38.7 11 36 11C22.2 11 11 22.2 11 36C11 49.79 22.2 61 36 61C49.8 61 61 49.79 61 36C61 30.1 59 24.6 55.39 20.2C54.7 20.7 53.89 21 53 21C50.8 21 49 19.2 49 17C49 14.79 50.8 13 53 13C55.2 13 57 14.79 57 17C57 17.6 56.89 18.1 56.7 18.6C60.7 23.39 63 29.5 63 36C63 50.89 50.89 63 36 63C21.1 63 9 50.89 9 36C9 21.1 21.1 9 36 9ZM44.1 24.7L44.1 30.7C44.1 31.29 43.8 31.89 43.2 32.2L37.39 35.29C36.89 35.6 36.2 35.2 36.2 34.5L36.2 28.5C36.2 27.89 36.5 27.29 37.1 27L42.89 23.89C43.5 23.7 44.1 24.1 44.1 24.7ZM27.2 24.7C27.2 24.1 27.8 23.6 28.39 23.89L34.2 27C34.7 27.29 35.1 27.79 35.1 28.5L35.1 34.5C35.1 35.1 34.5 35.6 33.89 35.29L28.1 32.2C27.6 31.89 27.2 31.39 27.2 30.7L27.2 24.7ZM35.7 18C36 18 36.3 18.1 36.6 18.2L42.5 21.29C42.8 21.39 42.89 21.7 42.89 21.89C42.89 22.1 42.8 22.39 42.5 22.5L36.6 25.6C36.3 25.7 36 25.79 35.7 25.79C35.39 25.79 35.1 25.7 34.8 25.6L28.89 22.5C28.6 22.39 28.5 22.1 28.5 21.89C28.5 21.7 28.6 21.39 28.89 21.29L34.8 18.2C35 18.1 35.39 18 35.7 18ZM34.89 40.39L34.89 46.39C34.89 47 34.6 47.6 34 47.89L28.2 51C27.7 51.29 27 50.89 27 50.2L27 44.2C27 43.6 27.3 43 27.89 42.7L33.7 39.6C34.3 39.29 34.89 39.7 34.89 40.39ZM19.2 39.6L25 42.7C25.5 43 25.89 43.5 25.89 44.2L25.89 50.2C25.89 50.79 25.3 51.29 24.7 51L18.89 47.89C18.29 47.6 18 47 18 46.39L18 40.39C18 39.7 18.6 39.29 19.2 39.6ZM54 40.39L54 46.39C54 47 53.7 47.6 53.1 47.89L47.3 51C46.8 51.29 46.1 50.89 46.1 50.2L46.1 44.2C46.1 43.6 46.39 43 47 42.7L52.8 39.6C53.39 39.29 54 39.7 54 40.39ZM38.3 39.6L44.1 42.7C44.6 43 45 43.5 45 44.2L45 50.2C45 50.79 44.39 51.29 43.8 51L38 47.79C37.5 47.5 37.1 47 37.1 46.29L37.1 40.29C37.1 39.7 37.7 39.29 38.3 39.6ZM26.5 33.6C26.8 33.6 27.1 33.7 27.39 33.79L33.3 36.89C33.6 37 33.7 37.29 33.7 37.5C33.7 37.7 33.6 38 33.3 38.1L27.39 41.2C27.1 41.29 26.8 41.39 26.5 41.39C26.2 41.39 25.89 41.29 25.6 41.2L19.7 38.1C19.39 38 19.29 37.7 19.29 37.5C19.29 37.29 19.39 37 19.7 36.89L25.6 33.79C25.8 33.7 26.1 33.6 26.5 33.6ZM45.5 33.6C45.8 33.6 46.1 33.7 46.39 33.79L52.3 36.89C52.6 37 52.7 37.29 52.7 37.5C52.7 37.7 52.6 38 52.3 38.1L46.39 41.2C46.1 41.29 45.8 41.39 45.5 41.39C45.2 41.39 44.89 41.29 44.6 41.2L38.7 38.1C38.39 38 38.3 37.7 38.3 37.5C38.3 37.29 38.39 37 38.7 36.89L44.6 33.79C44.89 33.7 45.2 33.6 45.5 33.6Z" fill="#FFFFFF" fill-opacity="1.000000" fill-rule="nonzero"/>
	</g>
</svg>
