<svg width="72.000000" height="72.000000" viewBox="0 0 72 72" fill="none" xmlns="http://www.w3.org/2000/svg" xmlns:xlink="http://www.w3.org/1999/xlink">
	<desc>
			Created with Pixso.
	</desc>
	<defs>
		<clipPath id="clip117_252">
			<rect id="21#云桌面-Workspace" width="72.000000" height="72.000000" fill="white" fill-opacity="0"/>
		</clipPath>
	</defs>
	<g clip-path="url(#clip117_252)">
		<path id="矩形备份-19" d="M16 0L56 0C64.8 0 72 7.2 72 16L72 56C72 64.79 64.8 72 56 72L16 72C7.19 72 0 64.79 0 56L0 16C0 7.2 7.19 0 16 0Z" fill="#1476FF" fill-opacity="1.000000" fill-rule="evenodd"/>
		<path id="形状结合" d="M41.44 45.47L41.44 53.37C41.44 54.34 40.61 55.14 39.53 55.21L36.96 55.38C35.77 55.46 34.75 54.61 34.75 53.54L34.75 47.31C34.75 46.29 35.67 45.47 36.81 45.47L41.44 45.47ZM29.91 31.03L29.91 51.38C29.91 52.49 28.87 53.35 27.67 53.23L13.8 51.83C12.78 51.72 11.99 50.93 11.99 49.98L11.99 35.74C11.99 34.85 12.68 34.08 13.63 33.91L29.91 31.03ZM29.91 18.55C29.91 17.39 31.1 16.51 32.37 16.74L58.35 21.41C59.32 21.59 60.01 22.35 60 23.24L60 43.7C59.99 44.71 59.08 45.46 57.96 45.46L41.44 45.47L41.44 31.31C41.44 30.16 40.28 29.29 39.01 29.49L29.91 31.03L29.91 18.55Z" fill="#FFFFFF" fill-opacity="1.000000" fill-rule="evenodd"/>
	</g>
</svg>
