<svg width="72.000000" height="72.000000" viewBox="0 0 72 72" fill="none" xmlns="http://www.w3.org/2000/svg" xmlns:xlink="http://www.w3.org/1999/xlink">
	<desc>
			Created with Pixso.
	</desc>
	<defs>
		<clipPath id="clip117_261">
			<rect id="22#政企自服务管理-ESM" width="72.000000" height="72.000000" fill="white" fill-opacity="0"/>
		</clipPath>
	</defs>
	<g clip-path="url(#clip117_261)">
		<path id="矩形备份-19" d="M16 0L56 0C64.8 0 72 7.2 72 16L72 56C72 64.79 64.8 72 56 72L16 72C7.19 72 0 64.79 0 56L0 16C0 7.2 7.19 0 16 0Z" fill="#9F53E6" fill-opacity="1.000000" fill-rule="evenodd"/>
		<path id="形状结合" d="M48.2 22.29C52.39 25.89 54 31.5 52.5 36.59C53.89 36.79 55.2 37.39 56.39 38.19C59.5 40.5 60.7 44.39 59.5 48C58.3 51.59 54.89 54 51.1 54L25 54C24.2 54 23.5 53.89 22.7 53.79C17.5 52.89 13.5 49 12.3 44C11.1 39 13.2 33.69 17.5 30.69C20.1 28.89 23 28.19 25.89 28.39C26.8 25.59 28.7 23.19 31.1 21.5C36.39 17.89 43.39 18.19 48.2 22.29ZM36.8 22.59C33.3 23.39 30.5 25.89 29.3 29.19C31.3 29.89 33.1 31 34.6 32.59C35.6 33.69 36.7 35.29 36.39 37.39C36.2 38.69 35.1 39.89 33.6 41C32.7 41.69 30.1 43.39 26 46.19C25.2 46.69 24.2 46.5 23.7 45.79C23 45 23.2 44 24 43.5C27.89 40.79 30.3 39.09 31.2 38.5C31.3 38.39 32.5 37.59 32.7 36.5C32.8 35.39 31.89 34.69 31.7 34.5C29.1 32 25.2 31.09 21.7 32.29C17.6 33.79 15.1 37.79 15.39 42C15.8 46.29 19 49.79 23.3 50.5C23.8 50.59 24.3 50.59 24.89 50.59L25.3 50.59C27.2 50.5 29 50 30.5 48.89L46.2 38C47.1 37.39 48 37 49 36.69C50.5 33.19 49.89 29.19 47.6 26.19C44.89 23.09 40.8 21.69 36.8 22.59ZM48 40.79L33.8 50.69L51.2 50.69C53.6 50.69 55.7 49.19 56.39 47C57.1 44.79 56.39 42.29 54.5 40.89C52.6 39.5 50 39.5 48 40.79Z" fill="#FFFFFF" fill-opacity="1.000000" fill-rule="nonzero"/>
	</g>
</svg>
