<svg width="72.000000" height="72.000000" viewBox="0 0 72 72" fill="none" xmlns="http://www.w3.org/2000/svg" xmlns:xlink="http://www.w3.org/1999/xlink">
	<desc>
			Created with Pixso.
	</desc>
	<defs>
		<clipPath id="clip117_240">
			<rect id="23#解决方案工作台-InnoStageWorkbench" width="72.000000" height="72.000000" fill="white" fill-opacity="0"/>
		</clipPath>
	</defs>
	<g clip-path="url(#clip117_240)">
		<path id="矩形备份-19" d="M16 0L56 0C64.8 0 72 7.2 72 16L72 56C72 64.79 64.8 72 56 72L16 72C7.19 72 0 64.79 0 56L0 16C0 7.2 7.19 0 16 0Z" fill="#F85835" fill-opacity="1.000000" fill-rule="evenodd"/>
		<path id="形状" d="M23.7 36.6L24.89 37C25.29 37.2 25.5 37.6 25.29 38L25.09 38.5C25 38.8 25.09 39.1 25.29 39.39C25.59 39.6 25.79 39.89 26 40.1C26.2 40.3 26.5 40.39 26.79 40.3L27.29 40.1C27.7 39.89 28.09 40.1 28.29 40.5L28.79 41.7C28.89 42.1 28.79 42.5 28.39 42.7L28 42.89C27.7 43 27.59 43.3 27.59 43.7C27.59 44 27.59 44.39 27.59 44.7C27.59 45 27.7 45.3 28 45.5L28.5 45.7C28.79 45.8 29 46.3 28.89 46.6L28.5 47.8C28.39 48.2 28 48.3 27.59 48.2L27.09 48C26.79 47.89 26.5 48 26.29 48.2C26.09 48.5 25.89 48.7 25.59 48.89C25.39 49.1 25.29 49.39 25.39 49.8L25.59 50.3C25.7 50.7 25.59 51.1 25.2 51.3L24.59 51.5L24 51.8C23.59 52 23.2 51.8 23 51.39L22.89 51C22.79 50.7 22.5 50.6 22.2 50.6C21.89 50.6 21.5 50.6 21.2 50.6C20.89 50.6 20.59 50.8 20.5 51.1L20.29 51.6C20.2 52 19.7 52.1 19.39 52L18.2 51.6C17.79 51.39 17.59 51 17.79 50.6L18 50.1C18.09 49.8 18 49.5 17.79 49.2C17.5 49 17.29 48.7 17.09 48.5C16.89 48.3 16.59 48.2 16.29 48.3L15.7 48.5C15.29 48.7 14.89 48.5 14.7 48.1L14 46.89C13.89 46.5 14 46.1 14.39 45.89L14.89 45.7C15.2 45.6 15.29 45.3 15.29 44.89C15.29 44.6 15.29 44.2 15.29 43.89C15.29 43.6 15.2 43.3 14.89 43.1L14.39 42.89C14.09 42.8 13.89 42.3 14 42L14.39 40.8C14.5 40.39 15 40.2 15.39 40.3L15.89 40.5C16.2 40.6 16.5 40.5 16.7 40.3C16.89 40 17.09 39.8 17.39 39.6C17.59 39.39 17.7 39.1 17.59 38.7L17.39 38.2C17.29 37.8 17.39 37.39 17.79 37.2L18.89 36.7C19.29 36.5 19.7 36.7 19.89 37.1L20.09 37.6C20.2 37.89 20.5 38 20.79 38C21.09 38 21.5 38 21.79 38C22.09 38 22.39 37.8 22.5 37.5L22.7 37C22.89 36.6 23.39 36.39 23.7 36.6ZM44.5 32.6L45.7 33C46.09 33.2 46.29 33.6 46.09 34L46 34.5C45.89 34.8 46 35.1 46.2 35.39C46.5 35.6 46.7 35.89 46.89 36.1C47.09 36.3 47.39 36.39 47.7 36.3L48.2 36.1C48.59 35.89 49 36.1 49.2 36.5L49.7 37.7C49.79 38.1 49.7 38.5 49.29 38.7L48.79 38.89C48.5 39 48.39 39.3 48.39 39.7C48.39 40 48.39 40.39 48.39 40.7C48.39 41 48.5 41.3 48.79 41.5L49.29 41.7C49.59 41.8 49.79 42.3 49.7 42.6L49.29 43.8C49.2 44.2 48.79 44.3 48.39 44.2L47.89 44C47.59 43.89 47.29 44 47.09 44.2C46.89 44.5 46.7 44.7 46.39 44.89C46.2 45.1 46.09 45.39 46.2 45.8L46.39 46.3C46.5 46.7 46.39 47.1 46 47.3L45.39 47.5L44.79 47.8C44.39 48 44 47.8 43.79 47.39L43.7 47C43.59 46.7 43.29 46.6 43 46.6C42.7 46.6 42.29 46.6 42 46.6C41.7 46.6 41.39 46.8 41.29 47.1L41 47.6C40.89 48 40.39 48.1 40.09 48L38.89 47.6C38.5 47.39 38.29 47 38.5 46.6L38.7 46.1C38.79 45.8 38.7 45.5 38.5 45.2C38.2 45 38 44.7 37.79 44.5C37.59 44.3 37.29 44.2 37 44.3L36.39 44.5C36 44.7 35.59 44.5 35.39 44.1L34.89 42.89C34.79 42.5 34.89 42.1 35.29 41.89L35.79 41.7C36.09 41.6 36.2 41.3 36.2 40.89C36.2 40.6 36.2 40.2 36.2 39.89C36.2 39.6 36.09 39.3 35.79 39.1L35.29 38.89C35 38.8 34.79 38.3 34.89 38L35.29 36.8C35.39 36.39 35.89 36.2 36.29 36.3L36.79 36.5C37.09 36.6 37.39 36.5 37.59 36.3C37.79 36 38 35.8 38.29 35.6C38.5 35.39 38.59 35.1 38.5 34.7L38.29 34.2C38.2 33.8 38.29 33.39 38.7 33.2L39.79 32.7C40.2 32.5 40.59 32.7 40.79 33.1L41 33.6C41.09 33.89 41.39 34 41.7 34C42 34 42.39 34 42.7 34C43 34 43.29 33.8 43.39 33.5L43.59 33C43.79 32.6 44.2 32.39 44.5 32.6ZM18.79 43.3C18.2 44.89 18.89 46.6 20.5 47.2C22 47.8 23.79 47 24.29 45.5C24.89 43.89 24.2 42.2 22.59 41.6C21.09 40.89 19.39 41.7 18.79 43.3ZM58.89 38.1C59.5 38.1 59.89 38.6 60 39.2C60 43.3 56.79 46.7 52.79 46.7C52.2 46.7 51.79 46.2 51.7 45.6C51.7 45 52.2 44.5 52.7 44.5C55.5 44.5 57.89 42.1 57.89 39.2C57.89 38.7 58.39 38.1 58.89 38.1ZM39.59 39.3C39 40.89 39.7 42.6 41.29 43.2C42.89 43.8 44.59 43 45.09 41.5C45.7 39.89 45 38.2 43.39 37.6C42 36.89 40.2 37.7 39.59 39.3ZM55.5 38.7C56.29 39.5 56.29 40.89 55.5 41.7C54.7 42.5 53.39 42.5 52.59 41.7C51.79 40.89 51.79 39.5 52.59 38.7C53.29 37.89 54.59 37.89 55.5 38.7ZM32 24L33.2 24.39C33.59 24.6 33.79 25 33.59 25.39L33.5 26C33.39 26.3 33.5 26.6 33.7 26.89C34 27.1 34.2 27.39 34.39 27.6C34.59 27.8 34.89 27.89 35.2 27.8L35.7 27.6C36.09 27.39 36.5 27.6 36.7 28L37.2 29.2C37.29 29.6 37.2 30 36.79 30.2L36.29 30.39C36 30.5 35.89 30.8 35.89 31.2C35.89 31.5 35.89 31.89 35.89 32.2C35.89 32.5 36 32.8 36.29 33L36.79 33.2C37.09 33.3 37.29 33.8 37.2 34.1L36.79 35.3C36.7 35.7 36.29 35.8 35.89 35.7L35.39 35.5C35.09 35.39 34.79 35.5 34.59 35.7C34.39 36 34.2 36.2 33.89 36.39C33.7 36.6 33.59 36.89 33.7 37.3L33.89 37.8C34 38.2 33.89 38.6 33.5 38.8L33 39L32.39 39.3C32 39.5 31.59 39.3 31.39 38.89L31.2 38.39C31.09 38.1 30.79 38 30.5 38C30.2 38 29.79 38 29.5 38C29.2 38 28.89 38.2 28.79 38.5L28.5 39C28.39 39.39 27.89 39.5 27.59 39.39L26.39 39C26 38.8 25.79 38.39 26 38L26.2 37.5C26.29 37.2 26.2 36.89 26 36.6C25.7 36.39 25.5 36.1 25.29 35.89C25.09 35.7 24.79 35.6 24.5 35.7L23.89 35.89C23.5 36.1 23.09 35.89 22.89 35.5L22.39 34.3C22.29 33.89 22.39 33.5 22.79 33.3L23.29 33.1C23.59 33 23.7 32.7 23.7 32.3C23.7 32 23.7 31.6 23.7 31.3C23.7 31 23.59 30.7 23.29 30.5L22.79 30.3C22.5 30.2 22.29 29.7 22.39 29.39L22.79 28.2C22.89 27.8 23.39 27.6 23.79 27.7L24.29 27.89C24.59 28 24.89 27.89 25.09 27.7C25.29 27.39 25.5 27.2 25.79 27C26 26.8 26.09 26.5 26 26.1L25.79 25.6C25.7 25.2 25.79 24.8 26.2 24.6L27.29 24.1C27.7 23.89 28.09 24.1 28.29 24.5L28.5 25C28.59 25.3 28.89 25.39 29.2 25.39C29.5 25.39 29.89 25.39 30.2 25.39C30.5 25.39 30.79 25.2 30.89 24.89L31.09 24.39C31.29 24.1 31.7 23.89 32 24ZM52.89 20L54.09 20.39C54.5 20.6 54.7 21 54.5 21.39L54.29 22C54.2 22.3 54.29 22.6 54.5 22.89C54.79 23.1 55 23.39 55.2 23.6C55.39 23.8 55.7 23.89 56 23.8L56.5 23.6C56.89 23.39 57.29 23.6 57.5 24L58 25.2C58.09 25.6 58 26 57.59 26.2L57.09 26.39C56.79 26.5 56.7 26.8 56.7 27.2C56.7 27.5 56.7 27.89 56.7 28.2C56.7 28.5 56.79 28.8 57.09 29L57.59 29.2C57.89 29.3 58.09 29.8 58 30.1L57.59 31.3C57.5 31.7 57.09 31.8 56.7 31.7L56.2 31.5C55.89 31.39 55.59 31.5 55.39 31.7C55.2 32 55 32.2 54.7 32.39C54.5 32.6 54.39 32.89 54.5 33.3L54.7 33.8C54.79 34.2 54.7 34.6 54.29 34.8L53.79 35L53.2 35.3C52.79 35.5 52.39 35.3 52.2 34.89L52 34.39C51.89 34.1 51.59 34 51.29 34C51 34 50.59 34 50.29 34C50 34 49.7 34.2 49.59 34.5L49.29 35C49.2 35.39 48.7 35.5 48.39 35.39L47.2 35C46.79 34.8 46.59 34.39 46.79 34L47 33.5C47.09 33.2 47 32.89 46.79 32.6C46.5 32.39 46.29 32.1 46.09 31.89C45.89 31.7 45.59 31.6 45.29 31.7L44.7 31.89C44.29 32.1 43.89 31.89 43.7 31.5L43.2 30.3C43.09 29.89 43.2 29.5 43.59 29.3L44.09 29.1C44.39 29 44.5 28.7 44.5 28.3C44.5 28 44.5 27.6 44.5 27.3C44.5 27 44.39 26.7 44.09 26.5L43.59 26.3C43.29 26.2 43.09 25.7 43.2 25.39L43.59 24.2C43.7 23.8 44.2 23.6 44.59 23.7L45.09 23.89C45.39 24 45.7 23.89 45.89 23.7C46.09 23.39 46.29 23.2 46.59 23C46.79 22.8 46.89 22.5 46.79 22.1L46.59 21.6C46.5 21.2 46.59 20.8 47 20.6L48.09 20.1C48.5 19.89 48.89 20.1 49.09 20.5L49.29 21C49.39 21.3 49.7 21.39 50 21.39C50.29 21.39 50.7 21.39 51 21.39C51.29 21.39 51.59 21.2 51.7 20.89L51.89 20.39C52.09 20.1 52.5 19.89 52.89 20ZM27.09 30.7C26.5 32.3 27.2 34 28.79 34.6C30.29 35.2 32.09 34.39 32.59 32.89C33.2 31.3 32.5 29.6 30.89 29C29.5 28.39 27.7 29.2 27.09 30.7ZM19.2 25.2C19.79 25.2 20.2 25.7 20.29 26.3C20.29 26.89 19.89 27.3 19.29 27.39L19.2 27.39C16.29 27.39 14 29.8 14 32.8C14 33.39 13.5 33.89 13 33.89C12.39 33.89 12 33.39 11.89 32.8C12 28.6 15.2 25.2 19.2 25.2ZM19.5 29.8C20.29 30.6 20.29 32 19.5 32.8C18.7 33.6 17.39 33.6 16.59 32.8C15.79 32 15.79 30.6 16.59 29.8C17.29 29 18.59 29 19.5 29.8ZM48 26.7C47.39 28.3 48.09 30 49.7 30.6C51.2 31.2 53 30.39 53.5 28.89C54.09 27.3 53.39 25.6 51.79 25C50.29 24.39 48.59 25.2 48 26.7Z" fill="#FFFFFF" fill-opacity="1.000000" fill-rule="nonzero"/>
	</g>
</svg>
