<svg width="72.000000" height="72.000000" viewBox="0 0 72 72" fill="none" xmlns="http://www.w3.org/2000/svg" xmlns:xlink="http://www.w3.org/1999/xlink">
	<desc>
			Created with Pixso.
	</desc>
	<defs>
		<clipPath id="clip117_294">
			<rect id="24#鸿源云道-Horiz" width="72.000000" height="72.000000" fill="white" fill-opacity="0"/>
		</clipPath>
	</defs>
	<g clip-path="url(#clip117_294)">
		<path id="矩形备份-19" d="M16 0L56 0C64.79 0 72 7.2 72 16L72 56C72 64.79 64.79 72 56 72L16 72C7.2 72 0 64.79 0 56L0 16C0 7.2 7.2 0 16 0Z" fill="#1476FF" fill-opacity="1.000000" fill-rule="evenodd"/>
		<path id="形状结合" d="M48.29 21L58.7 21C59.39 21 60 21.6 60 22.29L60 49.7C60 50.39 59.39 51 58.7 51L48.29 51L48.29 21ZM23.7 21L13.29 21C12.6 21 12 21.6 12 22.29L12 49.7C12 50.39 12.6 51 13.29 51L23.7 51L23.7 21ZM27.1 21L44.89 21L44.89 33.29C44.89 33.79 44.5 34.1 44.1 34.1L27.89 34.1C27.39 34.1 27.1 33.7 27.1 33.29L27.1 21ZM27.89 37.79L44 37.79C44.5 37.79 44.79 38.2 44.79 38.6L44.79 51L27.1 51L27.1 38.7C27.1 38.2 27.5 37.79 27.89 37.79Z" fill="#FFFFFF" fill-opacity="1.000000" fill-rule="evenodd"/>
	</g>
</svg>
