<svg width="72.000000" height="72.000000" viewBox="0 0 72 72" fill="none" xmlns="http://www.w3.org/2000/svg" xmlns:xlink="http://www.w3.org/1999/xlink">
	<desc>
			Created with Pixso.
	</desc>
	<defs>
		<clipPath id="clip117_255">
			<rect id="3#云速建站-CloudSite" width="72.000000" height="72.000000" fill="white" fill-opacity="0"/>
		</clipPath>
	</defs>
	<g clip-path="url(#clip117_255)">
		<path id="矩形备份-19" d="M16 0L56 0C64.8 0 72 7.2 72 16L72 56C72 64.79 64.8 72 56 72L16 72C7.19 72 0 64.79 0 56L0 16C0 7.2 7.19 0 16 0Z" fill="#00ABED" fill-opacity="1.000000" fill-rule="evenodd"/>
		<path id="形状结合" d="M56.39 33.29C58.39 33.29 60 34.89 60 36.89L60 55.5C60 57.5 58.39 59.1 56.39 59.1L46.8 59.1C44.8 59.1 43.2 57.5 43.2 55.5L43.2 36.89C43.2 34.89 44.8 33.29 46.8 33.29L56.39 33.29ZM51.6 51.89C50.6 51.89 49.8 52.7 49.8 53.7C49.8 54.7 50.6 55.5 51.6 55.5C52.6 55.5 53.39 54.7 53.39 53.7C53.39 52.7 52.6 51.89 51.6 51.89ZM41.3 48.39L41.3 51.89L13.8 51.89C12.8 51.89 12 51.1 12 50.1C12 49.1 12.8 48.29 13.8 48.29L41.3 48.39ZM53.39 13C55.39 13 57 14.6 57 16.6L57 31.39C56.8 31.39 56.7 31.39 56.5 31.39L46.89 31.39C46.7 31.39 46.6 31.39 46.39 31.39C46.39 30.1 46.1 28.6 45.2 27.39C44 25.7 42.39 24.79 40.39 24.6C40.3 24.2 40 23.6 39.5 23C38.8 22 37.39 20.7 35.8 20.39C34.2 20.1 32.3 20 30.3 21.2C28.89 22 28 23.2 27.6 24.7C26.8 24.6 25.7 25 24.5 25.79C23.3 26.6 22.5 27.6 22.1 28.89C22 29.1 22 29.2 21.89 29.39C21.7 29.89 21.6 30.7 21.7 31.7C21.8 33.29 22.89 35 24 36.29C24.8 37.1 25.89 37.7 27.6 38C35.1 38 39.5 38 40.8 37.79C41 37.79 41.1 37.79 41.3 37.7L41.3 45.89L15.6 45.89C13.6 45.89 12 44.29 12 42.29L12 16.6C12 14.6 13.6 13 15.6 13L53.39 13Z" fill="#FFFFFF" fill-opacity="1.000000" fill-rule="evenodd"/>
	</g>
</svg>
