<svg width="72.000000" height="72.000000" viewBox="0 0 72 72" fill="none" xmlns="http://www.w3.org/2000/svg" xmlns:xlink="http://www.w3.org/1999/xlink">
	<desc>
			Created with Pixso.
	</desc>
	<defs>
		<clipPath id="clip117_242">
			<rect id="4#华为云企业邮箱-mail0918" width="72.000000" height="72.000000" fill="white" fill-opacity="0"/>
		</clipPath>
	</defs>
	<g clip-path="url(#clip117_242)">
		<path id="矩形备份-19" d="M16 0L56 0C64.8 0 72 7.2 72 16L72 56C72 64.79 64.8 72 56 72L16 72C7.19 72 0 64.79 0 56L0 16C0 7.2 7.19 0 16 0Z" fill="#9F53E6" fill-opacity="1.000000" fill-rule="evenodd"/>
		<path id="形状结合" d="M16.7 25.02L26.56 35.53L26.56 54.12L19.68 54.12C16.16 54.12 13.29 51.16 13.29 47.51L13.29 24.08C15.32 23.22 16.7 25.02 16.7 25.02ZM58.71 24.08L58.71 47.51C58.71 51.16 55.84 54.12 52.31 54.12L45.43 54.12L45.43 35.53L55.29 25.02C55.29 25.02 56.67 23.22 58.71 24.08ZM54.56 17.87C56.82 17.87 58.16 19.82 58.67 20.74C58.77 20.89 58.62 21.09 58.42 21.05C56.66 20.58 55.48 21.66 55.48 21.66L41.29 36.87C38.13 40.68 36 40.12 36 40.12C36 40.12 33.87 40.68 30.71 36.87L16.52 21.66C16.52 21.66 15.34 20.58 13.57 21.05C13.38 21.09 13.23 20.89 13.32 20.74C13.83 19.82 15.17 17.87 17.45 17.87L54.56 17.87Z" fill="#FFFFFF" fill-opacity="1.000000" fill-rule="evenodd"/>
	</g>
</svg>
