<svg width="72.000000" height="72.000000" viewBox="0 0 72 72" fill="none" xmlns="http://www.w3.org/2000/svg" xmlns:xlink="http://www.w3.org/1999/xlink">
	<desc>
			Created with Pixso.
	</desc>
	<defs>
		<clipPath id="clip117_253">
			<rect id="5#ICP备案-beian" width="72.000000" height="72.000000" fill="white" fill-opacity="0"/>
		</clipPath>
	</defs>
	<g clip-path="url(#clip117_253)">
		<path id="矩形备份-19" d="M16 0L56 0C64.8 0 72 7.2 72 16L72 56C72 64.79 64.8 72 56 72L16 72C7.19 72 0 64.79 0 56L0 16C0 7.2 7.19 0 16 0Z" fill="#F85835" fill-opacity="1.000000" fill-rule="evenodd"/>
		<path id="形状结合" d="M55.59 21.29C53.29 20.5 48.7 19 46.39 17.89C41.79 15.6 40 14.1 38.29 12.79C37.7 12.2 36.89 12 36 12C35.2 12 34.29 12.2 33.7 12.7C32 14 30.2 15.6 25.59 17.79C23.29 18.89 18.7 20.39 16.39 21.2C14.89 21.7 13.89 23.1 14.09 24.6C14.5 29.5 15.7 39.2 18.7 45.2C22.2 52.1 30.89 57.39 34.29 59.5C34.79 59.79 35.39 60 36 60C36.59 60 37.2 59.79 37.7 59.5C41.09 57.39 49.89 52.1 53.29 45.2C56.29 39.2 57.5 29.5 57.89 24.6C58.09 23.1 57.09 21.79 55.59 21.29ZM41.5 41.79C41.89 41.79 42.29 42.1 42.29 42.6C42.29 43.1 42 43.39 41.5 43.39L31.5 43.39C31.09 43.39 30.7 43.1 30.7 42.6C30.7 42.1 31 41.79 31.5 41.79L41.5 41.79ZM44 45.79C44.39 45.79 44.79 46.1 44.79 46.6C44.79 47.1 44.5 47.39 44 47.39L28 47.39C27.59 47.39 27.2 47.1 27.2 46.6C27.2 46.1 27.5 45.79 28 45.79L44 45.79ZM35.7 25C36.79 25 37.79 25.1 38.59 25.39L38.59 27.79C37.79 27.29 36.89 27.1 35.89 27.1C34.79 27.1 33.79 27.5 33.2 28.2C32.5 28.89 32.2 29.89 32.2 31C32.2 32.1 32.5 33.1 33.2 33.7C33.79 34.39 34.7 34.7 35.79 34.7C36.79 34.7 37.79 34.5 38.59 34L38.59 36.29C37.7 36.7 36.59 36.89 35.29 36.89C33.5 36.89 32.09 36.39 31.09 35.29C30.09 34.2 29.5 32.89 29.5 31.1C29.5 29.29 30.09 27.79 31.2 26.6C32.39 25.6 33.79 25 35.7 25ZM27.5 25.2L27.5 36.79L25 36.79L25 25.2L27.5 25.2ZM44.59 25.2C47.5 25.2 49 26.39 49 28.89C49 30.1 48.59 31 47.7 31.79C46.79 32.5 45.7 32.89 44.39 32.79L43.09 32.79L43.09 36.79L40.59 36.79L40.59 25.2L44.59 25.2ZM44.2 27.1L43.09 27.1L43.09 30.79L44.2 30.79C45.7 30.79 46.39 30.2 46.39 28.89C46.39 27.7 45.7 27.1 44.2 27.1Z" fill="#FFFFFF" fill-opacity="1.000000" fill-rule="evenodd"/>
	</g>
</svg>
