<svg width="72.000000" height="72.000000" viewBox="0 0 72 72" fill="none" xmlns="http://www.w3.org/2000/svg" xmlns:xlink="http://www.w3.org/1999/xlink">
	<desc>
			Created with Pixso.
	</desc>
	<defs>
		<clipPath id="clip117_249">
			<rect id="6#商标服务-Trademark" width="72.000000" height="72.000000" fill="white" fill-opacity="0"/>
		</clipPath>
	</defs>
	<g clip-path="url(#clip117_249)">
		<path id="矩形备份-19" d="M16 0L56 0C64.8 0 72 7.2 72 16L72 56C72 64.79 64.8 72 56 72L16 72C7.19 72 0 64.79 0 56L0 16C0 7.2 7.19 0 16 0Z" fill="#00C4BE" fill-opacity="1.000000" fill-rule="evenodd"/>
		<path id="形状结合" d="M35 51.7L35 57.89C31.59 57.5 28.5 55.2 26.2 51.7L35 51.7ZM37 51.7L45.8 51.7C43.5 55.2 40.39 57.5 37 57.89L37 51.7ZM20.2 51.7L23.89 51.7C25 53.7 26.39 55.39 27.89 56.7C25 55.6 22.39 53.89 20.2 51.7ZM51.8 51.7C49.59 53.89 47 55.6 44.09 56.7C45.59 55.39 47 53.7 48.09 51.7L51.8 51.7ZM53.5 22.2C56.5 26 58.3 30.8 58.3 36C58.3 41.2 56.5 45.89 53.59 49.7L49.2 49.7C51 45.8 52 41.1 52 36C52 30.89 51 26.2 49.09 22.2L53.5 22.2ZM18.5 22.2L22.89 22.2C21 26.2 20 30.89 20 36C20 41.1 21 45.8 22.8 49.7L18.39 49.7C15.39 45.89 13.7 41.2 13.7 36C13.7 30.8 15.5 26 18.5 22.2ZM46.89 22.2C48.8 26 50 30.8 50 36C50 41.2 48.89 46 46.89 49.7L25.09 49.7C23.09 46 22 41.2 22 36C22 30.8 23.2 26 25.09 22.2L46.89 22.2ZM35.89 28L30 28L30 45L33.59 45L33.59 38.39L34.7 38.39C35.09 38.39 35.5 38.5 35.8 38.8C36.2 39.1 36.59 39.7 37.09 40.6L39.8 45L44 45L40.8 40C39.89 38.5 39 37.7 38.2 37.39C39.39 37.1 40.3 36.5 41 35.7C41.7 34.89 42 33.89 42 32.7C42 29.5 40 28 35.89 28ZM35.5 30.8C37.3 30.8 38.2 31.6 38.2 33.1C38.2 33.8 37.89 34.5 37.39 34.89C36.89 35.39 36.2 35.6 35.39 35.6L33.59 35.6L33.59 30.7L35.5 30.7L35.5 30.8ZM37 14.1C40.39 14.5 43.5 16.8 45.8 20.3L37 20.3L37 14.1ZM35 14.1L35 20.3L26.2 20.3C28.5 16.7 31.59 14.39 35 14.1ZM27.89 15.2C26.39 16.5 25 18.2 23.89 20.2L20.29 20.2C22.39 18.1 24.89 16.39 27.7 15.3L27.89 15.2ZM44.09 15.2C47 16.3 49.59 18 51.8 20.2L48.2 20.2C47.09 18.3 45.8 16.7 44.39 15.39L44.09 15.2Z" fill="#FFFFFF" fill-opacity="1.000000" fill-rule="nonzero"/>
	</g>
</svg>
