<svg width="72.000000" height="72.000000" viewBox="0 0 72 72" fill="none" xmlns="http://www.w3.org/2000/svg" xmlns:xlink="http://www.w3.org/1999/xlink">
	<desc>
			Created with Pixso.
	</desc>
	<defs>
		<clipPath id="clip117_246">
			<rect id="7#应用与数据集成平台-ROMAConnec" width="72.000000" height="72.000000" fill="white" fill-opacity="0"/>
		</clipPath>
	</defs>
	<g clip-path="url(#clip117_246)">
		<path id="矩形备份-19" d="M16 0L56 0C64.8 0 72 7.2 72 16L72 56C72 64.79 64.8 72 56 72L16 72C7.19 72 0 64.79 0 56L0 16C0 7.2 7.19 0 16 0Z" fill="#25C251" fill-opacity="1.000000" fill-rule="evenodd"/>
		<path id="形状结合" d="M58 40.6C58 41.89 57.8 43.1 57.5 44.29L61.3 44.29C61.6 43.7 62.3 43.29 63 43.29C64.1 43.29 65 44.2 65 45.29C65 46.39 64.1 47.29 63 47.29C62.3 47.29 61.6 46.89 61.3 46.29L57 46.29L57 44.29L52.3 44.29C52 44.29 51.7 44.5 51.5 44.7L48.5 49L41.8 49C41.5 48.39 40.8 48 40.1 48C39 48 38.1 48.89 38.1 50C38.1 51.1 39 52 40.1 52C40.8 52 41.5 51.6 41.8 51L49 51C49.3 51 49.6 50.79 49.8 50.6L52.8 46.29L56.8 46.29C54.8 50.79 50.5 53.89 45.6 54L45.3 54L22 54C15.3 53.6 10 47.79 10 40.7C10 33.39 15.5 27.5 22.39 27.29C24 21.89 28.8 18 34.5 18C40.2 18 45 21.89 46.6 27.29C51.39 27.79 55.39 31.2 57.1 35.7L61.3 35.7C61.6 35.1 62.3 34.7 63 34.7C64.1 34.7 65 35.6 65 36.7C65 37.79 64.1 38.7 63 38.7C62.3 38.7 61.6 38.29 61.3 37.7L57.7 37.7L57.8 38.2C57.89 39 58 39.79 58 40.6ZM47 39C46.3 39 45.6 39.39 45.3 40L36.8 40C36.5 39.39 35.8 39 35.1 39C34 39 33.1 39.89 33.1 41C33.1 42.1 34 43 35.1 43C35.8 43 36.5 42.6 36.8 42L45.3 42C45.6 42.6 46.3 43 47 43C48.1 43 49 42.1 49 41C49 39.89 48.1 39 47 39ZM40 30C38.89 30 38 30.89 38 32C38 33.1 38.89 34 40 34C40.7 34 41.39 33.6 41.7 33L48.39 33L51.39 37.29C51.6 37.6 51.89 37.7 52.2 37.7L57 37.7L57.1 35.7L52.8 35.7L49.8 31.39C49.6 31.2 49.3 31 49 31L41.8 31C41.39 30.39 40.7 30 40 30Z" fill="#FFFFFF" fill-opacity="1.000000" fill-rule="evenodd"/>
	</g>
</svg>
