<svg width="72.000000" height="72.000000" viewBox="0 0 72 72" fill="none" xmlns="http://www.w3.org/2000/svg" xmlns:xlink="http://www.w3.org/1999/xlink">
	<desc>
			Created with Pixso.
	</desc>
	<defs>
		<clipPath id="clip117_243">
			<rect id="8#华为云会议-Meeting" width="72.000000" height="72.000000" fill="white" fill-opacity="0"/>
		</clipPath>
	</defs>
	<g clip-path="url(#clip117_243)">
		<path id="矩形备份-19" d="M16 0L56 0C64.8 0 72 7.2 72 16L72 56C72 64.79 64.8 72 56 72L16 72C7.19 72 0 64.79 0 56L0 16C0 7.2 7.19 0 16 0Z" fill="#1476FF" fill-opacity="1.000000" fill-rule="evenodd"/>
		<path id="形状结合" d="M42.79 28.89L20.7 28.89C20.59 28.89 20.5 29 20.5 29.1L20.5 48L25 44.1L25.09 44L42.89 44C43 44 43.09 43.89 43.09 43.79L43.09 29.1C43.09 29 43 28.89 42.79 28.89ZM51.5 50.2C51.5 51.2 50.7 52 49.7 52L13.7 52C12.7 52 11.89 51.2 11.89 50.2L11.89 22.79C11.89 21.79 12.7 21 13.7 21L49.7 21C50.7 21 51.5 21.79 51.5 22.79L51.5 31.5L59.29 26.79C59.39 26.79 59.39 26.7 59.5 26.7C59.7 26.7 59.89 26.89 59.89 27.1L59.89 45.79C59.89 45.89 59.89 46 59.79 46C59.7 46.2 59.39 46.29 59.2 46.2L51.39 41.5L51.5 50.2Z" fill="#FFFFFF" fill-opacity="1.000000" fill-rule="nonzero"/>
	</g>
</svg>
