<svg width="72.000000" height="72.000000" viewBox="0 0 72 72" fill="none" xmlns="http://www.w3.org/2000/svg" xmlns:xlink="http://www.w3.org/1999/xlink">
	<desc>
			Created with Pixso.
	</desc>
	<defs>
		<clipPath id="clip117_251">
			<rect id="9#华为云WeLink-WeLink" width="72.000000" height="72.000000" fill="white" fill-opacity="0"/>
		</clipPath>
	</defs>
	<g clip-path="url(#clip117_251)">
		<path id="矩形备份-19" d="M16 0L56 0C64.8 0 72 7.2 72 16L72 56C72 64.79 64.8 72 56 72L16 72C7.19 72 0 64.79 0 56L0 16C0 7.2 7.19 0 16 0Z" fill="#F85835" fill-opacity="1.000000" fill-rule="evenodd"/>
		<path id="形状结合" d="M51.89 16C53.8 16 55.3 17.5 55.3 19.39L55.3 34L50.3 34C47.3 34 45 36.39 45 39.29L45 47.6L35.6 47.6L35.6 53.1L43.3 53.1C44.1 53.1 44.8 53.79 44.8 54.6C44.8 55.39 44.1 56.1 43.3 56.1L24.2 56.1C23.39 56.1 22.7 55.39 22.7 54.6C22.7 53.79 23.39 53.1 24.2 53.1L32.6 53.1L32.6 47.6L15.39 47.6C13.5 47.6 12 46.1 12 44.2L12 19.39C12 17.5 13.5 16 15.39 16L51.89 16ZM57.7 36C59.5 36 61 37.5 61 39.29L61 52.6C61 54.39 59.5 55.89 57.7 55.89L50.39 55.89C48.6 55.89 47.1 54.39 47.1 52.6L47.1 39.29C47.1 37.5 48.6 36 50.39 36L57.7 36ZM54.2 51C53.5 51 53 51.5 53 52.2C53 52.89 53.5 53.39 54.2 53.39C54.89 53.39 55.39 52.89 55.39 52.2C55.39 51.5 54.89 51 54.2 51Z" fill="#FFFFFF" fill-opacity="1.000000" fill-rule="evenodd"/>
	</g>
</svg>
