<svg width="16.267273" height="16.267273" viewBox="0 0 16.2673 16.2673" fill="none" xmlns="http://www.w3.org/2000/svg" xmlns:xlink="http://www.w3.org/1999/xlink">
	<desc>
			Created with Pixso.
	</desc>
	<defs>
		<clipPath id="clip2_22">
			<rect id="1#展开文件夹-folder-open1" width="16.000000" height="16.000000" transform="translate(0.269531 0.000000) rotate(0.965286)" fill="white" fill-opacity="0"/>
		</clipPath>
	</defs>
	<g clip-path="url(#clip2_22)">
		<path id="形状结合" d="M5.48 2.27C5.65 2.27 5.81 2.33 5.94 2.44L8.11 4.33L13.03 4.42C13.86 4.43 14.53 5.08 14.59 5.89L14.59 6.03L14.58 6.64L15.23 6.65L15.35 6.66C15.62 6.72 15.8 6.98 15.74 7.25L14.49 13.23C14.48 13.29 14.45 13.34 14.42 13.39C14.12 13.93 13.51 14.24 12.86 14.23L4.14 14.08C2.66 14.06 1.48 12.84 1.51 11.36L1.64 3.79C1.65 2.91 2.37 2.21 3.25 2.23L5.48 2.27ZM14.64 7.64L4.73 7.47L3.58 12.97C3.76 13.04 3.96 13.08 4.16 13.08L12.88 13.23C13.15 13.23 13.37 13.14 13.49 13L14.64 7.64ZM5.36 3.26L3.24 3.23C2.94 3.22 2.7 3.43 2.65 3.71L2.64 3.81L2.51 11.37C2.5 11.67 2.58 11.96 2.72 12.21L3.83 6.86C3.84 6.83 3.85 6.81 3.86 6.78C3.86 6.77 3.88 6.72 3.89 6.71C3.9 6.7 3.94 6.64 3.95 6.63C3.96 6.62 4.04 6.55 4.05 6.54C4.13 6.5 4.24 6.46 4.33 6.46L13.58 6.62L13.59 6.02C13.6 5.69 13.34 5.42 13.01 5.42L7.99 5.33C7.82 5.33 7.65 5.27 7.53 5.16L5.36 3.26ZM7.95 10.8C7.77 11.09 7.45 11.29 7.08 11.28C6.52 11.27 6.08 10.82 6.09 10.26C6.1 9.71 6.56 9.27 7.11 9.28C7.48 9.29 7.8 9.49 7.97 9.8L10.11 9.83C10.29 9.54 10.61 9.34 10.98 9.35C11.53 9.36 11.97 9.81 11.97 10.36C11.96 10.92 11.5 11.36 10.95 11.35C10.58 11.34 10.26 11.13 10.09 10.83L7.95 10.8Z" fill="currentColor" fill-opacity="1.000000" fill-rule="nonzero"/>
	</g>
</svg>
