<svg width="16.000000" height="16.000000" viewBox="0 0 16 16" fill="none" xmlns="http://www.w3.org/2000/svg" xmlns:xlink="http://www.w3.org/1999/xlink">
	<desc>
			Created with Pixso.
	</desc>
	<defs>
		<clipPath id="clip2_3">
			<rect id="10#查看详情-view-detail" width="16.000000" height="16.000000" fill="white" fill-opacity="0"/>
		</clipPath>
	</defs>
	<g clip-path="url(#clip2_3)">
		<path id="形状结合" d="M11.3 1C12.78 1 14 2.1 14 3.5L14 7.5C14 7.77 13.77 8 13.5 8C13.22 8 13 7.77 13 7.5L13 3.5C13 2.68 12.24 2 11.3 2L4.7 2C3.75 2 3 2.68 3 3.5L3 12.5C3 13.31 3.75 14 4.7 14L8 14C8.27 14 8.5 14.22 8.5 14.5C8.5 14.77 8.27 15 8 15L4.7 15C3.21 15 2 13.89 2 12.5L2 3.5C2 2.1 3.21 1 4.7 1L11.3 1ZM8.72 5.76C10.65 5.76 12.22 7.33 12.22 9.26C12.22 10.05 11.96 10.77 11.52 11.35L13.85 13.69C14.04 13.88 14.04 14.2 13.85 14.39C13.65 14.59 13.34 14.59 13.14 14.39L10.82 12.06C10.23 12.5 9.51 12.76 8.72 12.76C6.78 12.76 5.22 11.2 5.22 9.26C5.22 7.33 6.78 5.76 8.72 5.76ZM8.72 6.76C7.34 6.76 6.22 7.88 6.22 9.26C6.22 10.64 7.34 11.76 8.72 11.76C10.1 11.76 11.22 10.64 11.22 9.26C11.22 7.88 10.1 6.76 8.72 6.76Z" fill="currentColor" fill-opacity="1.000000" fill-rule="nonzero"/>
	</g>
</svg>
