<svg width="16.000000" height="16.000000" viewBox="0 0 16 16" fill="none" xmlns="http://www.w3.org/2000/svg" xmlns:xlink="http://www.w3.org/1999/xlink">
	<desc>
			Created with Pixso.
	</desc>
	<defs>
		<clipPath id="clip2_26">
			<rect id="12#反馈-feedback" width="16.000000" height="16.000000" fill="white" fill-opacity="0"/>
		</clipPath>
	</defs>
	<g clip-path="url(#clip2_26)">
		<path id="形状结合" d="M12.2 9.96C12.6 9.26 13.51 9.02 14.21 9.42L14.3 9.48C14.94 9.91 15.14 10.76 14.75 11.43L12.87 14.67C12.82 14.76 12.73 14.83 12.63 14.87L11.01 15.42C10.74 15.52 10.45 15.33 10.42 15.05L10.26 13.47C10.25 13.37 10.27 13.28 10.32 13.2L12.2 9.96ZM11.3 1.5C12.78 1.5 14 2.6 14 4L14 8C14 8.27 13.77 8.5 13.5 8.5C13.22 8.5 13 8.27 13 8L13 4C13 3.18 12.24 2.5 11.3 2.5L4.7 2.5C3.75 2.5 3 3.18 3 4L3 12C3 12.81 3.75 13.5 4.7 13.5L8 13.5C8.27 13.5 8.5 13.72 8.5 14C8.5 14.27 8.27 14.5 8 14.5L4.7 14.5C3.21 14.5 2 13.39 2 12L2 4C2 2.6 3.21 1.5 4.7 1.5L11.3 1.5ZM12.45 11.32L11.17 13.52L11.26 14.39L12.18 14.07L13.44 11.89L12.45 11.32ZM13.7 10.17C13.43 10.06 13.12 10.16 12.97 10.41L12.9 10.54L13.89 11.11L13.97 10.98C14.1 10.75 14.06 10.47 13.88 10.29L13.7 10.17ZM8.5 8.15C8.77 8.15 9 8.38 9 8.65C9 8.93 8.77 9.15 8.5 9.15L5.5 9.15C5.22 9.15 5 8.93 5 8.65C5 8.38 5.22 8.15 5.5 8.15L8.5 8.15ZM10.5 5C10.77 5 11 5.22 11 5.5C11 5.77 10.77 6 10.5 6L5.5 6C5.22 6 5 5.77 5 5.5C5 5.22 5.22 5 5.5 5L10.5 5Z" fill="currentColor" fill-opacity="1.000000" fill-rule="nonzero"/>
	</g>
</svg>
