<svg width="16.000000" height="16.000000" viewBox="0 0 16 16" fill="none" xmlns="http://www.w3.org/2000/svg" xmlns:xlink="http://www.w3.org/1999/xlink">
	<desc>
			Created with Pixso.
	</desc>
	<defs>
		<clipPath id="clip2_74">
			<rect id="13#开发文档-docs" width="16.000000" height="16.000000" fill="white" fill-opacity="0"/>
		</clipPath>
	</defs>
	<g clip-path="url(#clip2_74)">
		<path id="path" d="M11.5 15L4.5 15C3.12 15 2 13.88 2 12.5L2 3.5C2 2.11 3.12 1 4.5 1L9.5 1C9.63 1 9.76 1.04 9.85 1.14L13.85 5.14C13.94 5.23 14 5.37 14 5.5L14 12.5C14 13.88 12.88 15 11.5 15ZM4.5 2C3.67 2 3 2.67 3 3.5L3 12.5C3 13.33 3.67 14 4.5 14L11.5 14C12.33 14 13 13.33 13 12.5L13 5.7L9.29 2L4.5 2ZM11 9.5C11 9.22 10.78 9 10.5 9L5.5 9C5.22 9 5 9.22 5 9.5C5 9.78 5.22 10 5.5 10L10.5 10C10.78 10 11 9.78 11 9.5ZM5.85 7.97L7.26 6.56C7.45 6.36 7.45 6.04 7.26 5.85L5.85 4.44C5.64 4.23 5.34 4.23 5.14 4.44C4.94 4.64 4.94 4.95 5.14 5.14L6.2 6.2L5.14 7.26C4.94 7.47 4.94 7.78 5.14 7.98C5.23 8.07 5.37 8.13 5.48 8.13C5.6 8.13 5.76 8.07 5.85 7.97ZM11 11.5C11 11.22 10.78 11 10.5 11L5.5 11C5.22 11 5 11.22 5 11.5C5 11.78 5.22 12 5.5 12L10.5 12C10.78 12 11 11.78 11 11.5Z" fill="currentColor" fill-opacity="1.000000" fill-rule="nonzero"/>
	</g>
</svg>
