<svg width="16.000000" height="16.000000" viewBox="0 0 16 16" fill="none" xmlns="http://www.w3.org/2000/svg" xmlns:xlink="http://www.w3.org/1999/xlink">
	<desc>
			Created with Pixso.
	</desc>
	<defs>
		<clipPath id="clip2_86">
			<rect id="13.1#默认配置-default-setting" width="16.000000" height="16.000000" fill="white" fill-opacity="0"/>
		</clipPath>
	</defs>
	<g clip-path="url(#clip2_86)">
		<path id="形状结合" d="M11.3 1C11.42 1 11.54 1.04 11.63 1.13L13.83 3.13C13.93 3.22 14 3.35 14 3.5L14 8C14 8.27 13.77 8.5 13.5 8.5C13.22 8.5 13 8.27 13 8L13 3.72L11.1 2L4.7 2C3.8 2 3.08 2.6 3 3.36L3 3.5L3 12.5C3 13.31 3.75 14 4.7 14L8 14C8.27 14 8.5 14.22 8.5 14.5C8.5 14.77 8.27 15 8 15L4.7 15C3.21 15 2 13.89 2 12.5L2 3.5C2 2.1 3.21 1 4.7 1L11.3 1ZM12.57 9.33C12.71 9.33 12.85 9.4 12.93 9.52L12.97 9.6L13.18 10.08L13.4 10.21L13.92 10.14C14.06 10.13 14.2 10.18 14.3 10.28L14.36 10.36L14.74 11.01C14.81 11.14 14.81 11.3 14.75 11.43L14.71 11.5L14.39 11.92L14.39 12.17L14.71 12.59C14.79 12.71 14.82 12.86 14.78 12.99L14.74 13.07L14.36 13.73C14.29 13.86 14.15 13.94 14.01 13.95L13.92 13.95L13.4 13.89L13.18 14.01L12.97 14.5C12.92 14.63 12.8 14.72 12.67 14.76L12.57 14.77L11.81 14.77C11.66 14.77 11.53 14.69 11.45 14.57L11.41 14.5L11.2 14.01L10.98 13.89L10.45 13.95C10.31 13.97 10.17 13.92 10.08 13.81L9.64 13.08C9.57 12.95 9.56 12.8 9.63 12.67L9.67 12.59L9.99 12.17L9.99 11.92L9.67 11.5C9.59 11.39 9.56 11.24 9.6 11.11L9.63 11.03L10.02 10.36C10.09 10.23 10.22 10.15 10.37 10.14L10.45 10.14L10.98 10.21L11.2 10.08L11.41 9.6C11.46 9.47 11.58 9.37 11.71 9.34L11.8 9.33L12.57 9.33ZM12.33 10.13L12.05 10.13L11.93 10.4C11.88 10.53 11.79 10.64 11.68 10.72L11.6 10.78L11.38 10.9C11.23 10.99 11.06 11.02 10.89 11L10.59 10.96L10.45 11.21L10.63 11.44C10.71 11.55 10.77 11.68 10.78 11.82L10.79 11.92L10.79 12.17C10.79 12.34 10.73 12.51 10.63 12.65L10.45 12.88L10.59 13.13L10.89 13.09C11.02 13.08 11.16 13.1 11.29 13.15L11.38 13.19L11.6 13.32C11.75 13.4 11.86 13.54 11.93 13.7L12.04 13.97L12.33 13.97L12.45 13.7C12.5 13.57 12.59 13.46 12.69 13.38L12.78 13.32L13 13.19C13.15 13.11 13.32 13.07 13.49 13.09L13.78 13.13L13.92 12.89L13.75 12.65C13.67 12.54 13.61 12.41 13.59 12.27L13.59 12.17L13.59 11.92C13.59 11.75 13.64 11.58 13.75 11.44L13.93 11.21L13.78 10.97L13.49 11C13.35 11.02 13.22 11 13.09 10.95L13 10.9L12.78 10.78C12.63 10.69 12.51 10.56 12.45 10.4L12.33 10.13ZM12.19 11.32C12.59 11.32 12.91 11.65 12.91 12.05C12.91 12.45 12.59 12.77 12.19 12.77C11.79 12.77 11.47 12.45 11.47 12.05C11.47 11.65 11.79 11.32 12.19 11.32ZM8.5 8.15C8.77 8.15 9 8.38 9 8.65C9 8.93 8.77 9.15 8.5 9.15L5.5 9.15C5.22 9.15 5 8.93 5 8.65C5 8.38 5.22 8.15 5.5 8.15L8.5 8.15ZM10.5 5C10.77 5 11 5.22 11 5.5C11 5.77 10.77 6 10.5 6L5.5 6C5.22 6 5 5.77 5 5.5C5 5.22 5.22 5 5.5 5L10.5 5Z" fill="currentColor" fill-opacity="1.000000" fill-rule="nonzero"/>
	</g>
</svg>
