<svg width="16.000000" height="16.000000" viewBox="0 0 16 16" fill="none" xmlns="http://www.w3.org/2000/svg" xmlns:xlink="http://www.w3.org/1999/xlink">
	<desc>
			Created with Pixso.
	</desc>
	<defs>
		<clipPath id="clip2_108">
			<rect id="14#任务-task" width="16.000000" height="16.000000" fill="white" fill-opacity="0"/>
		</clipPath>
	</defs>
	<g clip-path="url(#clip2_108)">
		<path id="形状结合" d="M9.37 1.17C10.14 1.17 10.81 1.63 11.11 2.29L11.44 2.29C12.76 2.29 13.85 3.33 13.93 4.63L13.94 4.79L13.94 12.29C13.94 13.62 12.91 14.7 11.6 14.79L11.44 14.79L4.55 14.79C3.22 14.79 2.14 13.76 2.06 12.46L2.05 12.29L2.05 4.79C2.05 3.47 3.08 2.38 4.39 2.3L4.55 2.29L4.88 2.29C5.18 1.63 5.84 1.17 6.62 1.17L9.37 1.17ZM9.37 4.99L6.62 4.99C5.63 4.99 4.82 4.25 4.72 3.29L4.55 3.29C3.77 3.29 3.13 3.89 3.06 4.65L3.05 4.79L3.05 12.29C3.05 13.07 3.64 13.72 4.41 13.79L4.55 13.79L11.44 13.79C12.22 13.79 12.86 13.2 12.93 12.44L12.94 12.29L12.94 4.79C12.94 4.01 12.34 3.37 11.58 3.3L11.44 3.29L11.27 3.29C11.17 4.25 10.36 4.99 9.37 4.99ZM8.39 9.28C8.67 9.28 8.89 9.51 8.89 9.78C8.89 10.03 8.72 10.23 8.48 10.27L8.39 10.28L5.19 10.28C4.92 10.28 4.69 10.06 4.69 9.78C4.69 9.54 4.87 9.33 5.1 9.29L5.19 9.28L8.39 9.28ZM10.79 6.6C11.07 6.6 11.29 6.82 11.29 7.1C11.29 7.35 11.12 7.55 10.88 7.59L10.79 7.6L5.19 7.6C4.92 7.6 4.69 7.38 4.69 7.1C4.69 6.86 4.87 6.65 5.1 6.61L5.19 6.6L10.79 6.6ZM9.37 2.17L6.62 2.17C6.11 2.17 5.71 2.58 5.71 3.08C5.71 3.55 6.06 3.94 6.51 3.99L6.62 3.99L9.37 3.99C9.87 3.99 10.28 3.59 10.28 3.08C10.28 2.62 9.93 2.23 9.48 2.18L9.37 2.17Z" fill="currentColor" fill-opacity="1.000000" fill-rule="nonzero"/>
	</g>
</svg>
