<svg width="16.000000" height="16.000000" viewBox="0 0 16 16" fill="none" xmlns="http://www.w3.org/2000/svg" xmlns:xlink="http://www.w3.org/1999/xlink">
	<desc>
			Created with Pixso.
	</desc>
	<defs>
		<clipPath id="clip117_1404">
			<rect id="16#域名记录-domain-log" width="16.000000" height="16.000000" fill="white" fill-opacity="0"/>
		</clipPath>
	</defs>
	<g clip-path="url(#clip117_1404)">
		<path id="_形状结合" d="M12 0.5C13.4 0.5 14.5 1.6 14.5 3L14.5 13C14.5 14.4 13.4 15.5 12 15.5L4 15.5C2.6 15.5 1.5 14.4 1.5 13L1.5 3C1.5 1.6 2.6 0.5 4 0.5L12 0.5ZM12 1.5L4 1.5C3.2 1.5 2.5 2.2 2.5 3L2.5 13C2.5 13.8 3.2 14.5 4 14.5L12 14.5C12.8 14.5 13.5 13.8 13.5 13L13.5 3C13.5 2.2 12.8 1.5 12 1.5ZM7 10.5C7.29 10.5 7.5 10.7 7.5 11C7.5 11.3 7.29 11.5 7 11.5L4 11.5C3.7 11.5 3.5 11.3 3.5 11C3.5 10.7 3.7 10.5 4 10.5L7 10.5ZM10 7.5C10.3 7.5 10.5 7.7 10.5 8C10.5 8.29 10.3 8.5 10 8.5L4 8.5C3.7 8.5 3.5 8.29 3.5 8C3.5 7.7 3.7 7.5 4 7.5L10 7.5ZM12 4.5C12.3 4.5 12.5 4.7 12.5 5C12.5 5.29 12.3 5.5 12 5.5L4 5.5C3.7 5.5 3.5 5.29 3.5 5C3.5 4.7 3.7 4.5 4 4.5L12 4.5Z" fill="currentColor" fill-opacity="1.000000" fill-rule="nonzero"/>
	</g>
</svg>
