<svg width="16.000000" height="16.000000" viewBox="0 0 16 16" fill="none" xmlns="http://www.w3.org/2000/svg" xmlns:xlink="http://www.w3.org/1999/xlink">
	<desc>
			Created with Pixso.
	</desc>
	<defs>
		<clipPath id="clip117_1405">
			<rect id="17#添加域名解析-add-domain" width="16.000000" height="16.000000" fill="white" fill-opacity="0"/>
		</clipPath>
	</defs>
	<g clip-path="url(#clip117_1405)">
		<path id="_形状结合" d="M12.2 0.5C13.5 0.5 14.5 1.5 14.5 2.79L14.5 13.2C14.5 14.5 13.5 15.5 12.2 15.5L3.79 15.5C2.5 15.5 1.5 14.5 1.5 13.2L1.5 2.79C1.5 1.5 2.5 0.5 3.79 0.5L12.2 0.5ZM12.2 1.5L3.79 1.5C3.1 1.5 2.5 2.1 2.5 2.79L2.5 13.2C2.5 13.9 3.1 14.5 3.79 14.5L12.2 14.5C12.9 14.5 13.5 13.9 13.5 13.2L13.5 2.79C13.5 2.1 12.9 1.5 12.2 1.5ZM10 8.5C10.3 8.5 10.5 8.7 10.5 9L10.5 10.5L12 10.5C12.3 10.5 12.5 10.7 12.5 11C12.5 11.3 12.3 11.5 12 11.5L10.5 11.5L10.5 13C10.5 13.3 10.3 13.5 10 13.5C9.7 13.5 9.5 13.3 9.5 13L9.5 11.5L8 11.5C7.7 11.5 7.5 11.3 7.5 11C7.5 10.7 7.7 10.5 8 10.5L9.5 10.5L9.5 9C9.5 8.7 9.7 8.5 10 8.5ZM8 6.5C8.29 6.5 8.5 6.7 8.5 7C8.5 7.29 8.29 7.5 8 7.5L4 7.5C3.7 7.5 3.5 7.29 3.5 7C3.5 6.7 3.7 6.5 4 6.5L8 6.5ZM12 3.5C12.3 3.5 12.5 3.7 12.5 4C12.5 4.29 12.3 4.5 12 4.5L4 4.5C3.7 4.5 3.5 4.29 3.5 4C3.5 3.7 3.7 3.5 4 3.5L12 3.5Z" fill="currentColor" fill-opacity="1.000000" fill-rule="nonzero"/>
	</g>
</svg>
