<svg width="16.000000" height="16.000000" viewBox="0 0 16 16" fill="none" xmlns="http://www.w3.org/2000/svg" xmlns:xlink="http://www.w3.org/1999/xlink">
	<desc>
			Created with Pixso.
	</desc>
	<defs>
		<clipPath id="clip2_143">
			<rect id="19#同步-Synchronize" width="16.000000" height="16.000000" fill="white" fill-opacity="0"/>
		</clipPath>
	</defs>
	<g clip-path="url(#clip2_143)">
		<path id="形状结合" d="M9.5 1C9.63 1 9.75 1.04 9.84 1.13L13.6 4.63C13.7 4.73 13.76 4.86 13.76 5L13.76 8.52C13.76 8.79 13.53 9.02 13.26 9.02C12.98 9.02 12.76 8.79 12.76 8.52L12.76 5.22L9.3 2L4.06 2C3.64 2 3.29 2.31 3.24 2.72L3.23 2.83L3.23 13.16C3.23 13.62 3.6 14 4.06 14L8.05 14C8.33 14 8.55 14.22 8.55 14.5C8.55 14.77 8.33 15 8.05 15L4.06 15C3.05 15 2.23 14.17 2.23 13.16L2.23 2.83C2.23 1.82 3.05 1 4.06 1L9.5 1ZM13.92 12.46C14.14 12.52 14.26 12.74 14.21 12.95C14.01 13.71 13.45 14.33 12.69 14.59C11.87 14.88 10.98 14.68 10.35 14.12C10.33 14.31 10.18 14.52 9.99 14.54L9.91 14.54C9.69 14.52 9.53 14.33 9.55 14.11L9.65 12.99C9.67 12.77 9.86 12.61 10.08 12.63L11.19 12.72C11.41 12.74 11.58 12.94 11.56 13.16C11.54 13.38 11.35 13.54 11.13 13.52L10.86 13.5C11.27 13.89 11.88 14.03 12.43 13.84C12.93 13.66 13.3 13.25 13.43 12.75C13.49 12.54 13.71 12.41 13.92 12.46ZM13.3 10.48L13.31 10.4C13.33 10.2 13.48 10.05 13.66 10.03L13.74 10.03C13.96 10.05 14.13 10.25 14.11 10.47L14.01 11.58C13.99 11.8 13.79 11.96 13.57 11.95L12.46 11.85C12.24 11.83 12.08 11.64 12.1 11.42C12.12 11.2 12.31 11.03 12.53 11.05L12.76 11.07C12.36 10.74 11.8 10.63 11.28 10.81C10.79 10.98 10.43 11.37 10.29 11.85C10.23 12.06 10 12.19 9.79 12.13C9.58 12.06 9.46 11.84 9.52 11.63C9.73 10.9 10.28 10.31 11.02 10.05C11.82 9.78 12.68 9.95 13.3 10.48ZM7.49 9C7.77 9 7.99 9.22 7.99 9.5C7.99 9.77 7.77 10 7.49 10L5.49 10C5.22 10 4.99 9.77 4.99 9.5C4.99 9.22 5.22 9 5.49 9L7.49 9ZM10.49 6C10.77 6 10.99 6.22 10.99 6.5C10.99 6.77 10.77 7 10.49 7L5.49 7C5.22 7 4.99 6.77 4.99 6.5C4.99 6.22 5.22 6 5.49 6L10.49 6Z" fill="currentColor" fill-opacity="1.000000" fill-rule="nonzero"/>
	</g>
</svg>
