<svg width="16.267273" height="16.267273" viewBox="0 0 16.2673 16.2673" fill="none" xmlns="http://www.w3.org/2000/svg" xmlns:xlink="http://www.w3.org/1999/xlink">
	<desc>
			Created with Pixso.
	</desc>
	<defs>
		<clipPath id="clip2_166">
			<rect id="2#新建文件夹-folder-add" width="16.000000" height="16.000000" transform="translate(0.269531 0.000000) rotate(0.965286)" fill="white" fill-opacity="0"/>
		</clipPath>
	</defs>
	<g clip-path="url(#clip2_166)">
		<path id="形状结合" d="M5.55 2.27C5.72 2.27 5.88 2.33 6.01 2.44L8.17 4.33L13.1 4.42C13.93 4.43 14.6 5.08 14.66 5.89L14.66 6.03L14.6 9.4C14.6 9.67 14.37 9.89 14.09 9.89C13.82 9.88 13.6 9.66 13.6 9.38L13.63 7.62L2.64 7.44L2.58 11.37C2.56 12.3 3.3 13.07 4.23 13.08L9.68 13.17C9.95 13.18 10.17 13.41 10.17 13.68C10.17 13.96 9.94 14.18 9.66 14.17L4.21 14.08C2.73 14.06 1.55 12.84 1.58 11.36L1.7 3.79C1.72 2.92 2.44 2.22 3.32 2.23L5.55 2.27ZM12.72 10.5C13 10.5 13.22 10.73 13.21 11.01L13.2 11.87L14.06 11.88C14.34 11.89 14.56 12.12 14.55 12.39C14.55 12.67 14.32 12.89 14.04 12.88L13.18 12.87L13.17 13.73C13.16 14.01 12.93 14.23 12.66 14.22C12.38 14.22 12.16 13.99 12.17 13.72L12.18 12.85L11.32 12.84C11.04 12.83 10.82 12.61 10.83 12.33C10.83 12.05 11.06 11.83 11.34 11.84L12.2 11.85L12.21 10.99C12.22 10.71 12.45 10.49 12.72 10.5ZM5.43 3.27L3.3 3.23C3.01 3.23 2.76 3.44 2.71 3.71L2.7 3.81L2.66 6.44L13.65 6.62L13.66 6.02C13.67 5.69 13.41 5.42 13.08 5.42L8.06 5.33C7.89 5.33 7.72 5.27 7.6 5.16L5.43 3.27Z" fill="currentColor" fill-opacity="1.000000" fill-rule="nonzero"/>
	</g>
</svg>
