<svg width="16.000000" height="16.000000" viewBox="0 0 16 16" fill="none" xmlns="http://www.w3.org/2000/svg" xmlns:xlink="http://www.w3.org/1999/xlink">
	<desc>
			Created with Pixso.
	</desc>
	<defs>
		<clipPath id="clip2_156">
			<rect id="20#黑名单-blacklist" width="16.000000" height="16.000000" fill="white" fill-opacity="0"/>
		</clipPath>
	</defs>
	<g clip-path="url(#clip2_156)">
		<path id="形状结合" d="M12 9.54C13.51 9.54 14.75 10.78 14.75 12.3C14.75 13.81 13.51 15.05 12 15.05C10.48 15.05 9.25 13.81 9.25 12.3C9.25 10.78 10.48 9.54 12 9.54ZM11.3 1C11.42 1 11.54 1.04 11.63 1.13L13.85 3.15L13.91 3.22C13.95 3.3 14 3.42 14 3.5L14 8C14 8.27 13.77 8.5 13.5 8.5C13.22 8.5 13 8.27 13 8L13 3.72L11.1 2L4.69 2C3.8 2 3.08 2.6 3 3.36L3 3.5L3 12.5C3 13.31 3.75 14 4.69 14L8 14C8.27 14 8.5 14.22 8.5 14.5C8.5 14.77 8.27 15 8 15L4.69 15C3.21 15 2 13.89 2 12.5L2 3.5C2 2.1 3.21 1 4.69 1L11.3 1ZM13.58 11.34L11.04 13.88C11.32 14.05 11.65 14.15 12 14.15C13.02 14.15 13.85 13.32 13.85 12.3C13.85 11.95 13.75 11.62 13.58 11.34ZM12 10.45C10.97 10.45 10.14 11.27 10.14 12.3C10.14 12.64 10.24 12.97 10.41 13.25L12.95 10.71C12.67 10.54 12.34 10.45 12 10.45ZM8.5 8.15C8.77 8.15 9 8.38 9 8.65C9 8.93 8.77 9.15 8.5 9.15L5.5 9.15C5.22 9.15 5 8.93 5 8.65C5 8.38 5.22 8.15 5.5 8.15L8.5 8.15ZM10.5 5C10.77 5 11 5.22 11 5.5C11 5.77 10.77 6 10.5 6L5.5 6C5.22 6 5 5.77 5 5.5C5 5.22 5.22 5 5.5 5L10.5 5Z" fill="currentColor" fill-opacity="1.000000" fill-rule="nonzero"/>
	</g>
</svg>
