<svg width="16.000000" height="16.000000" viewBox="0 0 16 16" fill="none" xmlns="http://www.w3.org/2000/svg" xmlns:xlink="http://www.w3.org/1999/xlink">
	<desc>
			Created with Pixso.
	</desc>
	<defs>
		<clipPath id="clip2_158">
			<rect id="21#文档搜索-doc-search" width="16.000000" height="16.000000" fill="white" fill-opacity="0"/>
		</clipPath>
	</defs>
	<g clip-path="url(#clip2_158)">
		<path id="形状结合" d="M11.3 1.5C12.78 1.5 14 2.6 14 4L14 8C14 8.27 13.77 8.5 13.5 8.5C13.22 8.5 13 8.27 13 8L13 4C13 3.18 12.24 2.5 11.3 2.5L4.69 2.5C3.75 2.5 3 3.18 3 4L3 12C3 12.81 3.75 13.5 4.69 13.5L8 13.5C8.27 13.5 8.5 13.72 8.5 14C8.5 14.27 8.27 14.5 8 14.5L4.69 14.5C3.21 14.5 2 13.39 2 12L2 4C2 2.6 3.21 1.5 4.69 1.5L11.3 1.5ZM11.55 9.29C12.65 9.29 13.55 10.18 13.55 11.29C13.55 11.71 13.41 12.11 13.19 12.43L14.4 13.64C14.6 13.84 14.6 14.15 14.4 14.35C14.21 14.54 13.89 14.54 13.69 14.35L12.43 13.08C12.16 13.21 11.86 13.29 11.55 13.29C10.44 13.29 9.55 12.39 9.55 11.29C9.55 10.18 10.44 9.29 11.55 9.29ZM11.55 10.29C10.99 10.29 10.55 10.74 10.55 11.29C10.55 11.84 10.99 12.29 11.55 12.29C12.1 12.29 12.55 11.84 12.55 11.29C12.55 10.74 12.1 10.29 11.55 10.29ZM8.5 8.15C8.77 8.15 9 8.38 9 8.65C9 8.93 8.77 9.15 8.5 9.15L5.5 9.15C5.22 9.15 5 8.93 5 8.65C5 8.38 5.22 8.15 5.5 8.15L8.5 8.15ZM10.5 5C10.77 5 11 5.22 11 5.5C11 5.77 10.77 6 10.5 6L5.5 6C5.22 6 5 5.77 5 5.5C5 5.22 5.22 5 5.5 5L10.5 5Z" fill="currentColor" fill-opacity="1.000000" fill-rule="nonzero"/>
	</g>
</svg>
