<svg width="16.000000" height="16.000000" viewBox="0 0 16 16" fill="none" xmlns="http://www.w3.org/2000/svg" xmlns:xlink="http://www.w3.org/1999/xlink">
	<desc>
			Created with Pixso.
	</desc>
	<defs>
		<clipPath id="clip2_228">
			<rect id="22#报表-report" width="16.000000" height="16.000000" fill="white" fill-opacity="0"/>
		</clipPath>
	</defs>
	<g clip-path="url(#clip2_228)">
		<path id="形状结合" d="M9.05 1C9.18 1 9.31 1.05 9.4 1.14L13.61 5.35C13.71 5.45 13.76 5.57 13.76 5.71L13.76 13.16C13.76 14.17 12.94 15 11.92 15L4.06 15C3.05 15 2.23 14.17 2.23 13.16L2.23 2.83C2.23 1.82 3.05 1 4.06 1L9.05 1ZM8.84 2L4.06 2C3.6 2 3.23 2.37 3.23 2.83L3.23 13.16C3.23 13.62 3.6 14 4.06 14L11.92 14C12.38 14 12.76 13.62 12.76 13.16L12.76 5.91L8.84 2ZM5.66 8.5C5.94 8.5 6.16 8.72 6.16 9L6.16 11.66C6.16 11.94 5.94 12.16 5.66 12.16C5.39 12.16 5.16 11.94 5.16 11.66L5.16 9C5.16 8.72 5.39 8.5 5.66 8.5ZM7.99 5.83C8.27 5.83 8.49 6.05 8.49 6.33L8.49 11.66C8.49 11.94 8.27 12.16 7.99 12.16C7.72 12.16 7.49 11.94 7.49 11.66L7.49 6.33C7.49 6.05 7.72 5.83 7.99 5.83ZM10.33 7.16C10.6 7.16 10.83 7.39 10.83 7.66L10.83 11.66C10.83 11.94 10.6 12.16 10.33 12.16C10.05 12.16 9.83 11.94 9.83 11.66L9.83 7.66C9.83 7.39 10.05 7.16 10.33 7.16Z" fill="currentColor" fill-opacity="1.000000" fill-rule="nonzero"/>
	</g>
</svg>
