<svg width="16.000000" height="16.000000" viewBox="0 0 16 16" fill="none" xmlns="http://www.w3.org/2000/svg" xmlns:xlink="http://www.w3.org/1999/xlink">
	<desc>
			Created with Pixso.
	</desc>
	<defs>
		<clipPath id="clip2_167">
			<rect id="23#委托-agency" width="16.000000" height="16.000000" fill="white" fill-opacity="0"/>
		</clipPath>
	</defs>
	<g clip-path="url(#clip2_167)">
		<path id="path" d="M8.5 14.5C8.5 14.78 8.28 15 8 15L4.69 15C3.21 15 2 13.88 2 12.5L2 3.5C2 2.11 3.21 1 4.69 1L11.3 1C12.79 1 14 2.11 14 3.5L14 6.17C14 6.45 13.78 6.67 13.5 6.67C13.22 6.67 13 6.45 13 6.17L13 3.5C13 2.67 12.24 2 11.3 2L4.69 2C3.76 2 3 2.67 3 3.5L3 12.5C3 13.33 3.76 14 4.69 14L8 14C8.28 14 8.5 14.22 8.5 14.5ZM15.38 12.74L15.41 13.79C15.41 14.36 14.94 14.83 14.35 14.83L10.1 14.83C9.52 14.83 9.04 14.36 9.04 13.79L9.04 12.74C9.04 12.11 9.5 11.56 10.12 11.44L10.66 11.32C10.59 11.2 10.53 11.07 10.48 10.94C10.48 10.94 10.45 10.85 10.45 10.84L10.42 10.7C10.4 10.56 10.39 10.49 10.39 10.41L10.39 9.68C10.39 9.68 10.4 9.59 10.4 9.57C10.4 9.56 10.43 9.42 10.43 9.41C10.66 8.59 11.38 8.04 12.19 8.04C13.19 8.04 14.01 8.85 14.01 9.82L14.01 10.41C14.01 10.74 13.92 11.05 13.75 11.32L14.29 11.44C14.91 11.56 15.37 12.11 15.38 12.74ZM14.51 12.74C14.51 12.54 14.35 12.36 14.15 12.32L12.76 12.03C12.57 11.99 12.43 11.84 12.41 11.65C12.39 11.46 12.49 11.27 12.66 11.19C12.97 11.04 13.16 10.74 13.16 10.42L13.16 9.82C13.16 9.35 12.75 8.95 12.24 8.95C11.83 8.95 11.46 9.23 11.36 9.6L11.34 9.73L11.34 10.52L11.36 10.63C11.44 10.89 11.61 11.08 11.82 11.19C11.99 11.27 12.09 11.46 12.07 11.65C12.05 11.84 11.9 11.99 11.72 12.03L10.33 12.32C10.12 12.36 9.97 12.54 9.97 12.74L9.97 13.79C9.97 13.87 10.04 13.93 10.13 13.93L14.38 13.93C14.46 13.93 14.54 13.87 14.54 13.79L14.51 12.74ZM5.5 5C5.22 5 5 5.22 5 5.5C5 5.78 5.22 6 5.5 6L10.5 6C10.78 6 11 5.78 11 5.5C11 5.22 10.78 5 10.5 5L5.5 5ZM8.5 8.16L5.5 8.16C5.22 8.16 5 8.38 5 8.66C5 8.93 5.22 9.16 5.5 9.16L8.5 9.16C8.78 9.16 9 8.93 9 8.66C9 8.38 8.78 8.16 8.5 8.16Z" fill="currentColor" fill-opacity="1.000000" fill-rule="nonzero"/>
	</g>
</svg>
