<svg width="16.000000" height="16.000000" viewBox="0 0 16 16" fill="none" xmlns="http://www.w3.org/2000/svg" xmlns:xlink="http://www.w3.org/1999/xlink">
	<desc>
			Created with Pixso.
	</desc>
	<defs>
		<clipPath id="clip2_146">
			<rect id="30#图片-pic" width="16.000000" height="16.000000" fill="white" fill-opacity="0"/>
		</clipPath>
	</defs>
	<g clip-path="url(#clip2_146)">
		<path id="形状结合" d="M12 1.5C13.38 1.5 14.5 2.61 14.5 4L14.5 12C14.5 13.38 13.38 14.5 12 14.5L4 14.5C2.61 14.5 1.5 13.38 1.5 12L1.5 4C1.5 2.61 2.61 1.5 4 1.5L12 1.5ZM5.42 7.75L2.51 10.56L2.5 12C2.5 12.79 3.11 13.44 3.89 13.49L4 13.5L12 13.5C12.69 13.5 13.27 13.03 13.44 12.39L10.63 9.63C10.59 9.6 10.54 9.6 10.51 9.63L9.76 10.39C9.34 10.82 8.66 10.82 8.23 10.4L5.53 7.75C5.5 7.72 5.45 7.72 5.42 7.75ZM12 2.5L4 2.5C3.17 2.5 2.5 3.17 2.5 4L2.5 9.19L4.72 7.03C5.14 6.62 5.81 6.62 6.23 7.03L8.93 9.69C8.96 9.72 9.02 9.72 9.05 9.69L9.8 8.93C10.22 8.51 10.9 8.5 11.32 8.91L13.5 11.01L13.5 4C13.5 3.2 12.88 2.55 12.1 2.5L12 2.5ZM10.02 4C10.85 4 11.52 4.67 11.52 5.5C11.52 6.32 10.85 7 10.02 7C9.19 7 8.52 6.32 8.52 5.5C8.52 4.67 9.19 4 10.02 4ZM10.02 5C9.74 5 9.52 5.22 9.52 5.5C9.52 5.77 9.74 6 10.02 6C10.3 6 10.52 5.77 10.52 5.5C10.52 5.22 10.3 5 10.02 5Z" fill="currentColor" fill-opacity="1.000000" fill-rule="nonzero"/>
	</g>
</svg>
