<svg width="16.000000" height="16.000000" viewBox="0 0 16 16" fill="none" xmlns="http://www.w3.org/2000/svg" xmlns:xlink="http://www.w3.org/1999/xlink">
	<desc>
			Created with Pixso.
	</desc>
	<defs>
		<clipPath id="clip2_147">
			<rect id="31#图形-graph" width="16.000000" height="16.000000" fill="white" fill-opacity="0"/>
		</clipPath>
	</defs>
	<g clip-path="url(#clip2_147)">
		<path id="形状结合" d="M12 1.5C13.38 1.5 14.5 2.61 14.5 4L14.5 12C14.5 13.38 13.38 14.5 12 14.5L4 14.5C2.61 14.5 1.5 13.38 1.5 12L1.5 4C1.5 2.61 2.61 1.5 4 1.5L12 1.5ZM12 2.5L4 2.5C3.17 2.5 2.5 3.17 2.5 4L2.5 12C2.5 12.82 3.17 13.5 4 13.5L12 13.5C12.82 13.5 13.5 12.82 13.5 12L13.5 4C13.5 3.17 12.82 2.5 12 2.5ZM9.83 5.11C11.08 5.11 12.08 6.11 12.08 7.36C12.08 8.47 11.28 9.39 10.22 9.57L10.72 10.44C10.91 10.77 10.67 11.19 10.28 11.19L4.41 11.19C4.02 11.19 3.78 10.77 3.97 10.44L6.91 5.36C7.11 5.02 7.59 5.02 7.78 5.36L8.1 5.92C8.52 5.42 9.15 5.11 9.83 5.11ZM7.35 6.61L5.27 10.19L9.42 10.19L7.35 6.61ZM9.83 6.11C9.31 6.11 8.86 6.43 8.67 6.9L9.65 8.59C9.71 8.6 9.77 8.61 9.83 8.61C10.52 8.61 11.08 8.05 11.08 7.36C11.08 6.67 10.52 6.11 9.83 6.11Z" fill="currentColor" fill-opacity="1.000000" fill-rule="nonzero"/>
	</g>
</svg>
