<svg width="16.000000" height="16.000000" viewBox="0 0 16 16" fill="none" xmlns="http://www.w3.org/2000/svg" xmlns:xlink="http://www.w3.org/1999/xlink">
	<desc>
			Created with Pixso.
	</desc>
	<defs>
		<clipPath id="clip2_69">
			<rect id="32#截图-screenshot" width="16.000000" height="16.000000" fill="white" fill-opacity="0"/>
		</clipPath>
	</defs>
	<g clip-path="url(#clip2_69)">
		<path id="形状结合" d="M3.25 0.75C3.52 0.75 3.75 0.97 3.75 1.25L3.75 2.75L11.75 2.75C12.57 2.75 13.25 3.42 13.25 4.25L13.25 12.25L14.75 12.25C15.02 12.25 15.25 12.47 15.25 12.75C15.25 13.02 15.02 13.25 14.75 13.25L13.25 13.25L13.25 14.75C13.25 15.02 13.02 15.25 12.75 15.25C12.47 15.25 12.25 15.02 12.25 14.75L12.25 13.25L4.25 13.25C3.42 13.25 2.75 12.57 2.75 11.75L2.75 3.75L1.25 3.75C0.97 3.75 0.75 3.52 0.75 3.25C0.75 2.97 0.97 2.75 1.25 2.75L2.75 2.75L2.75 1.25C2.75 0.97 2.97 0.75 3.25 0.75ZM11.75 3.75L3.75 3.75L3.75 11.75C3.75 12.02 3.97 12.25 4.25 12.25L12.25 12.25L12.25 4.25C12.25 3.97 12.02 3.75 11.75 3.75ZM5.99 6.3C6.23 5.85 6.78 5.68 7.23 5.91C7.38 5.99 7.51 6.1 7.59 6.24L8.62 7.9C8.66 7.96 8.73 7.97 8.79 7.94L9.1 7.51C9.39 7.09 9.97 6.99 10.39 7.28C10.51 7.36 10.61 7.48 10.68 7.61L11.48 9.16C11.61 9.43 11.42 9.74 11.12 9.74L4.87 9.74C4.57 9.74 4.38 9.42 4.51 9.16L5.99 6.3ZM6.83 6.61C6.78 6.6 6.73 6.62 6.7 6.67L5.53 8.94L10.47 8.94L9.97 7.98C9.91 7.94 9.8 7.91 9.76 7.96L9.48 8.36C9.41 8.46 9.32 8.55 9.21 8.62C8.78 8.89 8.21 8.75 7.94 8.32L6.91 6.66C6.9 6.65 6.85 6.62 6.83 6.61Z" fill="currentColor" fill-opacity="1.000000" fill-rule="nonzero"/>
	</g>
</svg>
