<svg width="16.000000" height="16.000000" viewBox="0 0 16 16" fill="none" xmlns="http://www.w3.org/2000/svg" xmlns:xlink="http://www.w3.org/1999/xlink">
	<desc>
			Created with Pixso.
	</desc>
	<defs>
		<clipPath id="clip2_117">
			<rect id="33#上传图片-image-upload" width="16.000000" height="16.000000" fill="white" fill-opacity="0"/>
		</clipPath>
	</defs>
	<g clip-path="url(#clip2_117)">
		<path id="path" d="M8.4 4.6C8.4 5.46 9.13 6.2 10 6.2C10.86 6.2 11.6 5.46 11.6 4.6C11.6 3.73 10.86 3 10 3C9.13 2.93 8.4 3.66 8.4 4.6ZM10.6 4.6C10.6 4.93 10.33 5.2 10 5.2C9.66 5.2 9.4 4.93 9.4 4.6C9.4 4.26 9.66 4 10 4C10.33 3.93 10.6 4.2 10.6 4.6ZM9.8 9L9 9.8C8.53 10.26 7.86 10.26 7.4 9.8L4.46 6.93C4.4 6.86 4.33 6.86 4.26 6.93L1.8 9.4L1.8 11C1.8 11.93 2.6 12.66 3.66 12.66L7.8 12.66C8.06 12.66 8.33 12.86 8.33 13.2C8.33 13.46 8.13 13.73 7.8 13.73L3.66 13.73C2.06 13.73 0.8 12.53 0.8 11.06L0.8 3.46C0.8 2 2.06 0.8 3.66 0.8L11.93 0.8C13.53 0.8 14.8 2 14.8 3.46L14.8 7.33C14.8 7.6 14.6 7.86 14.26 7.86C14 7.86 13.73 7.66 13.73 7.33L13.73 3.46C13.73 2.53 12.93 1.8 11.86 1.8L3.66 1.8C2.66 1.86 1.86 2.6 1.86 3.46L1.86 8L3.66 6.26C4.13 5.8 4.8 5.8 5.26 6.26L8.2 9.13C8.26 9.2 8.33 9.2 8.4 9.13L9.2 8.33C9.4 8.13 9.73 8.13 9.93 8.33C10.13 8.53 10 8.8 9.8 9ZM15.2 12C15.2 12.26 15 12.53 14.66 12.53L13 12.53L13 14.2C13 14.46 12.8 14.73 12.46 14.73C12.2 14.73 11.93 14.53 11.93 14.2L11.93 12.53L10.26 12.53C10 12.53 9.73 12.33 9.73 12C9.73 11.66 9.93 11.46 10.26 11.46L12 11.46L12 9.8C12 9.53 12.2 9.26 12.53 9.26C12.8 9.26 13.06 9.46 13.06 9.8L13.06 11.46L14.66 11.46C14.93 11.46 15.2 11.66 15.2 12Z" fill="currentColor" fill-opacity="1.000000" fill-rule="nonzero"/>
	</g>
</svg>
