<svg width="16.000000" height="16.000000" viewBox="0 0 16 16" fill="none"
	xmlns="http://www.w3.org/2000/svg" xmlns:xlink="http://www.w3.org/1999/xlink">
	<desc>
		Created with Pixso.
	</desc>
	<defs>
		<clipPath id="clip170_100">
			<rect id="35#doc文档-doc" width="16.000000" height="16.000000" fill="white"
				fill-opacity="0" />
		</clipPath>
	</defs>
	<g clip-path="url(#clip170_100)">
		<path id="形状"
			d="M14 10.84L13 10.84L13 3.83C13 3 12.32 2.33 11.5 2.33L4.5 2.33C3.67 2.33 3 3 3 3.83L3 11.83C3 12.66 3.67 13.33 4.5 13.33L10.5 13.33L10.5 14.33L4.5 14.33C3.12 14.33 2 13.21 2 11.83L2 3.83C2 2.45 3.12 1.33 4.5 1.33L11.5 1.33C12.88 1.33 14 2.45 14 3.83L14 10.84ZM11.5 11.33L11.41 11.33C11.18 11.38 11 11.58 11 11.83L11 12.62L12.29 11.33L11.5 11.33ZM10 11.83C10 11 10.67 10.33 11.5 10.33L13.5 10.33C13.94 10.33 14.16 10.87 13.85 11.18L10.85 14.18C10.54 14.5 10 14.28 10 13.83L10 11.83Z"
			fill="currentColor" fill-opacity="1.000000" fill-rule="nonzero" />
		<path id="D"
			d="M6 10.68L6 5L7.67 5C8.18 5 8.62 5.11 9.01 5.33C9.4 5.55 9.7 5.87 9.92 6.28C10.13 6.7 10.24 7.17 10.24 7.7L10.24 7.98C10.24 8.52 10.13 9 9.91 9.41C9.7 9.81 9.39 10.13 9 10.35C8.6 10.57 8.14 10.68 7.63 10.68L6 10.68ZM6.98 5.79L6.98 9.89L7.63 9.89C8.15 9.89 8.54 9.73 8.82 9.41C9.1 9.08 9.24 8.62 9.25 8.01L9.25 7.69C9.25 7.08 9.11 6.61 8.84 6.28C8.57 5.95 8.19 5.79 7.67 5.79L6.98 5.79Z"
			fill="#000000" fill-opacity="1.000000" fill-rule="nonzero" />
	</g>
</svg>