<svg width="16.000000" height="16.000000" viewBox="0 0 16 16" fill="none"
	xmlns="http://www.w3.org/2000/svg" xmlns:xlink="http://www.w3.org/1999/xlink">
	<desc>
		Created with Pixso.
	</desc>
	<defs>
		<clipPath id="clip170_98">
			<rect id="37#表格文档-xlsx" width="16.000000" height="16.000000" fill="white"
				fill-opacity="0" />
		</clipPath>
	</defs>
	<g clip-path="url(#clip170_98)">
		<path id="形状"
			d="M14 10.84L13 10.84L13 3.83C13 3 12.32 2.33 11.5 2.33L4.5 2.33C3.67 2.33 3 3 3 3.83L3 11.83C3 12.66 3.67 13.33 4.5 13.33L10.5 13.33L10.5 14.33L4.5 14.33C3.12 14.33 2 13.21 2 11.83L2 3.83C2 2.45 3.12 1.33 4.5 1.33L11.5 1.33C12.88 1.33 14 2.45 14 3.83L14 10.84ZM11.5 11.33L11.41 11.33C11.18 11.38 11 11.58 11 11.83L11 12.62L12.29 11.33L11.5 11.33ZM10 11.83C10 11 10.67 10.33 11.5 10.33L13.5 10.33C13.94 10.33 14.16 10.87 13.85 11.18L10.85 14.18C10.54 14.5 10 14.28 10 13.83L10 11.83Z"
			fill="currentColor" fill-opacity="1.000000" fill-rule="nonzero" />
		<path id="X"
			d="M8.12 6.84L9.19 5L10.21 5L8.67 7.52L10.25 10.1L9.21 10.1L8.12 8.22L7.02 10.1L6 10.1L7.57 7.52L6.03 5L7.05 5L8.12 6.84Z"
			fill="#000000" fill-opacity="1.000000" fill-rule="nonzero" />
	</g>
</svg>