<svg width="16.000000" height="16.000000" viewBox="0 0 16 16" fill="none" xmlns="http://www.w3.org/2000/svg" xmlns:xlink="http://www.w3.org/1999/xlink">
	<desc>
			Created with Pixso.
	</desc>
	<defs>
		<clipPath id="clip2_212">
			<rect id="4#历史文件夹-folder-history" width="16.000000" height="16.000000" fill="white" fill-opacity="0"/>
		</clipPath>
	</defs>
	<g clip-path="url(#clip2_212)">
		<path id="形状结合" d="M11.8 7.64C13.75 7.64 15.33 9.22 15.33 11.17C15.33 13.12 13.75 14.7 11.8 14.7C9.85 14.7 8.27 13.12 8.27 11.17C8.27 9.22 9.85 7.64 11.8 7.64ZM6.57 2.19C6.98 2.19 7.37 2.36 7.65 2.66L9.23 4.32L13.06 4.32C13.87 4.32 14.52 4.96 14.57 5.77L14.58 5.88L14.58 6.81C14.58 7.09 14.35 7.31 14.08 7.31C13.8 7.31 13.58 7.09 13.58 6.81L13.58 5.88C13.58 5.56 13.34 5.32 13.06 5.32L8.8 5.32L6.93 3.35C6.83 3.25 6.7 3.19 6.57 3.19L2.94 3.19C2.66 3.19 2.43 3.44 2.43 3.75L2.43 12.26C2.43 12.57 2.66 12.82 2.94 12.82L7.4 12.82C7.67 12.82 7.9 13.04 7.9 13.32C7.9 13.6 7.67 13.82 7.4 13.82L2.94 13.82C2.1 13.82 1.43 13.11 1.43 12.26L1.43 3.75C1.43 2.9 2.1 2.19 2.94 2.19L6.57 2.19ZM11.8 8.64C10.4 8.64 9.27 9.77 9.27 11.17C9.27 12.57 10.4 13.7 11.8 13.7C13.2 13.7 14.33 12.57 14.33 11.17C14.33 9.77 13.2 8.64 11.8 8.64ZM11.8 9.26C12.07 9.26 12.3 9.49 12.3 9.76L12.3 11.1L12.86 11.66C13.03 11.84 13.05 12.12 12.91 12.31C12.71 12.51 12.35 12.56 12.15 12.37L11.44 11.66C11.35 11.57 11.3 11.44 11.3 11.31L11.3 9.76C11.3 9.49 11.52 9.26 11.8 9.26Z" fill="currentColor" fill-opacity="1.000000" fill-rule="nonzero"/>
	</g>
</svg>
