<svg width="16.000000" height="16.000000" viewBox="0 0 16 16" fill="none" xmlns="http://www.w3.org/2000/svg" xmlns:xlink="http://www.w3.org/1999/xlink">
	<desc>
			Created with Pixso.
	</desc>
	<defs>
		<clipPath id="clip2_8">
			<rect id="40#存储-save" width="16.000000" height="16.000000" fill="white" fill-opacity="0"/>
		</clipPath>
	</defs>
	<g clip-path="url(#clip2_8)">
		<path id="形状结合" d="M12.28 1.5C13.5 1.5 14.5 2.49 14.5 3.71L14.5 12.28C14.5 13.5 13.5 14.5 12.28 14.5L3.71 14.5C2.49 14.5 1.5 13.5 1.5 12.28L1.5 3.71C1.5 2.49 2.49 1.5 3.71 1.5L12.28 1.5ZM4 2.5L3.71 2.5C3.04 2.5 2.5 3.04 2.5 3.71L2.5 12.28C2.5 12.95 3.04 13.5 3.71 13.5L12.28 13.5C12.95 13.5 13.5 12.95 13.5 12.28L13.5 3.71C13.5 3.04 12.95 2.5 12.28 2.5L12 2.5L12 5.37C12 6.26 11.34 7 10.5 7L5.5 7C4.65 7 4 6.26 4 5.37L4 2.5ZM11 2.5L5 2.5L5 5.37C5 5.73 5.23 6 5.5 6L10.5 6C10.76 6 11 5.73 11 5.37L11 2.5ZM9.5 3.25C9.77 3.25 10 3.47 10 3.75L10 4.75C10 5.02 9.77 5.25 9.5 5.25C9.22 5.25 9 5.02 9 4.75L9 3.75C9 3.47 9.22 3.25 9.5 3.25Z" fill="currentColor" fill-opacity="1.000000" fill-rule="nonzero"/>
	</g>
</svg>
