<svg width="16.000000" height="16.000000" viewBox="0 0 16 16" fill="none" xmlns="http://www.w3.org/2000/svg" xmlns:xlink="http://www.w3.org/1999/xlink">
	<desc>
			Created with Pixso.
	</desc>
	<defs>
		<clipPath id="clip2_164">
			<rect id="41#新建窗口-new-window" width="16.000000" height="16.000000" fill="white" fill-opacity="0"/>
		</clipPath>
	</defs>
	<g clip-path="url(#clip2_164)">
		<path id="形状结合" d="M8 1.5C8.27 1.5 8.5 1.72 8.5 2C8.5 2.27 8.27 2.5 8 2.5L4.05 2.5C3.19 2.5 2.5 3.19 2.5 4.05L2.5 11.94C2.5 12.8 3.19 13.5 4.05 13.5L11.94 13.5C12.8 13.5 13.5 12.8 13.5 11.94L13.5 8.17C13.5 7.89 13.72 7.67 14 7.67C14.27 7.67 14.5 7.89 14.5 8.17L14.5 11.94C14.5 13.35 13.35 14.5 11.94 14.5L4.05 14.5C2.64 14.5 1.5 13.35 1.5 11.94L1.5 4.05C1.5 2.64 2.64 1.5 4.05 1.5L8 1.5ZM11.72 1.5C12 1.5 12.22 1.72 12.22 2L12.22 3.77L14 3.77C14.27 3.77 14.5 3.99 14.5 4.27C14.5 4.54 14.27 4.77 14 4.77L12.22 4.77L12.22 6.54C12.22 6.81 12 7.04 11.72 7.04C11.45 7.04 11.22 6.81 11.22 6.54L11.22 4.77L9.45 4.77C9.18 4.77 8.95 4.54 8.95 4.27C8.95 3.99 9.18 3.77 9.45 3.77L11.22 3.77L11.22 2C11.22 1.72 11.45 1.5 11.72 1.5Z" fill="currentColor" fill-opacity="1.000000" fill-rule="nonzero"/>
	</g>
</svg>
