<svg width="16.000000" height="16.000000" viewBox="0 0 16 16" fill="none" xmlns="http://www.w3.org/2000/svg" xmlns:xlink="http://www.w3.org/1999/xlink">
	<desc>
			Created with Pixso.
	</desc>
	<defs>
		<clipPath id="clip2_231">
			<rect id="42#编辑-edit" width="16.000000" height="16.000000" fill="white" fill-opacity="0"/>
		</clipPath>
	</defs>
	<g clip-path="url(#clip2_231)">
		<path id="形状结合" d="M9.91 2.33C10.88 1.35 12.47 1.35 13.44 2.33L13.56 2.45C14.42 3.43 14.38 4.93 13.44 5.86L5.75 13.56C5.47 13.84 5.09 14 4.69 14L2.48 14C2.09 14 1.78 13.68 1.78 13.3L1.78 11.08C1.78 10.68 1.93 10.3 2.22 10.02L9.91 2.33ZM13.29 12.97C13.57 12.97 13.79 13.2 13.79 13.47C13.79 13.75 13.57 13.97 13.29 13.97L8.29 13.97C8.01 13.97 7.79 13.75 7.79 13.47C7.79 13.2 8.01 12.97 8.29 12.97L13.29 12.97ZM8.78 4.87L2.92 10.73C2.83 10.82 2.78 10.95 2.78 11.08L2.78 13L4.69 13C4.8 13 4.9 12.96 4.98 12.9L10.9 6.99L8.78 4.87ZM12.63 2.94C12.04 2.45 11.17 2.48 10.61 3.04L9.49 4.16L11.61 6.28L12.74 5.16C13.29 4.6 13.32 3.71 12.82 3.12L12.74 3.04L12.63 2.94Z" fill="currentColor" fill-opacity="1.000000" fill-rule="nonzero"/>
	</g>
</svg>
