<svg width="16.000000" height="16.000000" viewBox="0 0 16 16" fill="none" xmlns="http://www.w3.org/2000/svg" xmlns:xlink="http://www.w3.org/1999/xlink">
	<desc>
			Created with Pixso.
	</desc>
	<defs>
		<clipPath id="clip2_53">
			<rect id="42.1#恢复-redo" width="16.000000" height="16.000000" fill="white" fill-opacity="0"/>
		</clipPath>
	</defs>
	<g clip-path="url(#clip2_53)">
		<path id="形状" d="M1.26 13.62C1.58 13.62 1.73 13.37 1.91 13.09C2.29 12.49 3.17 11.09 5.4 10.49C6.41 10.22 7.57 10.07 8.88 10.04L8.88 12.9C8.88 13.1 9 13.29 9.19 13.36C9.38 13.43 9.6 13.39 9.74 13.25L14.84 8.04C15.03 7.85 15.03 7.53 14.84 7.34L9.73 2.15C9.59 2 9.37 1.96 9.19 2.04C9 2.12 8.87 2.3 8.87 2.5L8.87 5.36C6.57 5.57 4.73 6.31 3.42 7.55C1.42 9.44 0.29 12.29 0.77 13.3C0.85 13.47 1.07 13.61 1.26 13.62ZM13.78 7.69L9.87 11.67L9.87 9.53C9.87 9.26 9.64 9.03 9.37 9.03C7.78 9.03 6.35 9.2 5.14 9.52C3.64 9.92 2.66 10.63 2.02 11.3C2.4 10.39 3.08 9.25 4.11 8.28C5.33 7.12 7.12 6.47 9.4 6.33C9.67 6.32 9.87 6.1 9.87 5.83L9.87 3.73L13.78 7.69Z" fill="currentColor" fill-opacity="1.000000" fill-rule="nonzero"/>
	</g>
</svg>
