<svg width="16.000000" height="16.000000" viewBox="0 0 16 16" fill="none" xmlns="http://www.w3.org/2000/svg" xmlns:xlink="http://www.w3.org/1999/xlink">
	<desc>
			Created with Pixso.
	</desc>
	<defs>
		<clipPath id="clip2_98">
			<rect id="42.2#回退-undo" width="16.000000" height="16.000000" fill="white" fill-opacity="0"/>
		</clipPath>
	</defs>
	<g clip-path="url(#clip2_98)">
		<path id="形状" d="M14.39 13.61C14.07 13.61 13.91 13.36 13.73 13.08C13.35 12.48 12.47 11.08 10.25 10.48C9.24 10.21 8.07 10.06 6.77 10.03L6.77 12.89C6.77 13.09 6.65 13.28 6.45 13.35C6.27 13.42 6.05 13.38 5.91 13.24L0.81 8.03C0.61 7.84 0.61 7.52 0.81 7.33L5.91 2.14C6.05 2 6.27 1.96 6.46 2.03C6.65 2.11 6.77 2.29 6.77 2.49L6.77 5.35C9.08 5.56 10.91 6.3 12.23 7.54C14.23 9.44 15.36 12.28 14.88 13.29C14.8 13.46 14.57 13.6 14.39 13.61ZM1.87 7.68L5.77 11.66L5.77 9.52C5.77 9.25 6 9.02 6.27 9.02C7.87 9.02 9.29 9.19 10.51 9.51C12.01 9.91 12.99 10.62 13.63 11.29C13.25 10.38 12.57 9.24 11.53 8.27C10.31 7.11 8.53 6.46 6.24 6.32C5.97 6.3 5.77 6.08 5.77 5.82L5.77 3.72L1.87 7.68Z" fill="currentColor" fill-opacity="1.000000" fill-rule="nonzero"/>
	</g>
</svg>
