<svg width="16.000000" height="16.000000" viewBox="0 0 16 16" fill="none" xmlns="http://www.w3.org/2000/svg" xmlns:xlink="http://www.w3.org/1999/xlink">
	<desc>
			Created with Pixso.
	</desc>
	<defs>
		<clipPath id="clip2_219">
			<rect id="43#左对齐-align-left" width="16.000000" height="16.000000" fill="white" fill-opacity="0"/>
		</clipPath>
	</defs>
	<g clip-path="url(#clip2_219)">
		<path id="形状结合" d="M4 10C4 9.17 4.67 8.5 5.5 8.5L13 8.5C13.82 8.5 14.5 9.17 14.5 10L14.5 12C14.5 12.82 13.82 13.5 13 13.5L5.5 13.5C4.67 13.5 4 12.82 4 12L4 10ZM5 10L5 12C5 12.27 5.22 12.5 5.5 12.5L13 12.5C13.27 12.5 13.5 12.27 13.5 12L13.5 10C13.5 9.72 13.27 9.5 13 9.5L5.5 9.5C5.22 9.5 5 9.72 5 10ZM4 4C4 3.17 4.67 2.5 5.5 2.5L9.5 2.5C10.32 2.5 11 3.17 11 4L11 6C11 6.82 10.32 7.5 9.5 7.5L5.5 7.5C4.67 7.5 4 6.82 4 6L4 4ZM5 4L5 6C5 6.27 5.22 6.5 5.5 6.5L9.5 6.5C9.77 6.5 10 6.27 10 6L10 4C10 3.72 9.77 3.5 9.5 3.5L5.5 3.5C5.22 3.5 5 3.72 5 4ZM3 14C3 14.27 2.77 14.5 2.5 14.5C2.22 14.5 2 14.27 2 14L2 2C2 1.72 2.22 1.5 2.5 1.5C2.77 1.5 3 1.72 3 2L3 14Z" fill="currentColor" fill-opacity="1.000000" fill-rule="nonzero"/>
	</g>
</svg>
