<svg width="16.000000" height="16.000000" viewBox="0 0 16 16" fill="none" xmlns="http://www.w3.org/2000/svg" xmlns:xlink="http://www.w3.org/1999/xlink">
	<desc>
			Created with Pixso.
	</desc>
	<defs>
		<clipPath id="clip2_132">
			<rect id="44#居中对齐-align-center" width="16.000000" height="16.000000" fill="white" fill-opacity="0"/>
		</clipPath>
	</defs>
	<g clip-path="url(#clip2_132)">
		<path id="形状结合" d="M8 1.5C8.27 1.5 8.5 1.72 8.5 2L8.5 2.5L10.25 2.5C11.07 2.5 11.75 3.17 11.75 4L11.75 6C11.75 6.82 11.07 7.5 10.25 7.5L8.49 7.5C8.49 7.52 8.5 7.55 8.5 7.57L8.5 8.5L12 8.5C12.82 8.5 13.5 9.17 13.5 10L13.5 12C13.5 12.82 12.82 13.5 12 13.5L8.5 13.5L8.5 14.22C8.5 14.5 8.27 14.72 8 14.72C7.72 14.72 7.5 14.5 7.5 14.22L7.5 13.5L4 13.5C3.17 13.5 2.5 12.82 2.5 12L2.5 10C2.5 9.17 3.17 8.5 4 8.5L7.5 8.5L7.5 7.57C7.5 7.55 7.5 7.52 7.5 7.5L5.75 7.5C4.92 7.5 4.25 6.82 4.25 6L4.25 4C4.25 3.17 4.92 2.5 5.75 2.5L7.5 2.5L7.5 2C7.5 1.72 7.72 1.5 8 1.5ZM12 9.5L4 9.5C3.72 9.5 3.5 9.72 3.5 10L3.5 12C3.5 12.27 3.72 12.5 4 12.5L12 12.5C12.27 12.5 12.5 12.27 12.5 12L12.5 10C12.5 9.72 12.27 9.5 12 9.5ZM10.25 3.5L5.75 3.5C5.47 3.5 5.25 3.72 5.25 4L5.25 6C5.25 6.27 5.47 6.5 5.75 6.5L10.25 6.5C10.52 6.5 10.75 6.27 10.75 6L10.75 4C10.75 3.72 10.52 3.5 10.25 3.5Z" fill="currentColor" fill-opacity="1.000000" fill-rule="nonzero"/>
	</g>
</svg>
