<svg width="16.000000" height="16.000000" viewBox="0 0 16 16" fill="none" xmlns="http://www.w3.org/2000/svg" xmlns:xlink="http://www.w3.org/1999/xlink">
	<desc>
			Created with Pixso.
	</desc>
	<defs>
		<clipPath id="clip2_183">
			<rect id="45#右对齐-align-right" width="16.000000" height="16.000000" fill="white" fill-opacity="0"/>
		</clipPath>
	</defs>
	<g clip-path="url(#clip2_183)">
		<path id="形状结合" d="M1.5 10C1.5 9.17 2.17 8.5 3 8.5L10.5 8.5C11.32 8.5 12 9.17 12 10L12 12C12 12.82 11.32 13.5 10.5 13.5L3 13.5C2.17 13.5 1.5 12.82 1.5 12L1.5 10ZM2.5 10L2.5 12C2.5 12.27 2.72 12.5 3 12.5L10.5 12.5C10.77 12.5 11 12.27 11 12L11 10C11 9.72 10.77 9.5 10.5 9.5L3 9.5C2.72 9.5 2.5 9.72 2.5 10ZM5 4C5 3.17 5.67 2.5 6.5 2.5L10.5 2.5C11.32 2.5 12 3.17 12 4L12 6C12 6.82 11.32 7.5 10.5 7.5L6.5 7.5C5.67 7.5 5 6.82 5 6L5 4ZM6 4L6 6C6 6.27 6.22 6.5 6.5 6.5L10.5 6.5C10.77 6.5 11 6.27 11 6L11 4C11 3.72 10.77 3.5 10.5 3.5L6.5 3.5C6.22 3.5 6 3.72 6 4ZM14 14C14 14.27 13.77 14.5 13.5 14.5C13.22 14.5 13 14.27 13 14L13 2C13 1.72 13.22 1.5 13.5 1.5C13.77 1.5 14 1.72 14 2L14 14Z" fill="currentColor" fill-opacity="1.000000" fill-rule="nonzero"/>
	</g>
</svg>
