<svg width="16.000000" height="16.000000" viewBox="0 0 16 16" fill="none" xmlns="http://www.w3.org/2000/svg" xmlns:xlink="http://www.w3.org/1999/xlink">
	<desc>
			Created with Pixso.
	</desc>
	<defs>
		<clipPath id="clip2_13">
			<rect id="46#底部对齐-align-bottom" width="16.000000" height="16.000000" fill="white" fill-opacity="0"/>
		</clipPath>
	</defs>
	<g clip-path="url(#clip2_13)">
		<path id="形状结合" d="M6 12.25C6.82 12.25 7.5 11.57 7.5 10.75L7.5 3.25C7.5 2.42 6.82 1.75 6 1.75L4 1.75C3.17 1.75 2.5 2.42 2.5 3.25L2.5 10.75C2.5 11.57 3.17 12.25 4 12.25L6 12.25ZM6 11.25L4 11.25C3.72 11.25 3.5 11.02 3.5 10.75L3.5 3.25C3.5 2.97 3.72 2.75 4 2.75L6 2.75C6.27 2.75 6.5 2.97 6.5 3.25L6.5 10.75C6.5 11.02 6.27 11.25 6 11.25ZM12 12.25C12.82 12.25 13.5 11.57 13.5 10.75L13.5 6.75C13.5 5.92 12.82 5.25 12 5.25L10 5.25C9.17 5.25 8.5 5.92 8.5 6.75L8.5 10.75C8.5 11.57 9.17 12.25 10 12.25L12 12.25ZM12 11.25L10 11.25C9.72 11.25 9.5 11.02 9.5 10.75L9.5 6.75C9.5 6.47 9.72 6.25 10 6.25L12 6.25C12.27 6.25 12.5 6.47 12.5 6.75L12.5 10.75C12.5 11.02 12.27 11.25 12 11.25ZM2 13.25C1.72 13.25 1.5 13.47 1.5 13.75C1.5 14.02 1.72 14.25 2 14.25L14 14.25C14.27 14.25 14.5 14.02 14.5 13.75C14.5 13.47 14.27 13.25 14 13.25L2 13.25Z" fill="currentColor" fill-opacity="1.000000" fill-rule="nonzero"/>
	</g>
</svg>
