<svg width="16.000000" height="16.000000" viewBox="0 0 16 16" fill="none" xmlns="http://www.w3.org/2000/svg" xmlns:xlink="http://www.w3.org/1999/xlink">
	<desc>
			Created with Pixso.
	</desc>
	<defs>
		<clipPath id="clip2_17">
			<rect id="47#顶部对齐-align-top" width="16.000000" height="16.000000" fill="white" fill-opacity="0"/>
		</clipPath>
	</defs>
	<g clip-path="url(#clip2_17)">
		<path id="形状结合" d="M6 3.75C6.82 3.75 7.5 4.42 7.5 5.25L7.5 12.75C7.5 13.57 6.82 14.25 6 14.25L4 14.25C3.17 14.25 2.5 13.57 2.5 12.75L2.5 5.25C2.5 4.42 3.17 3.75 4 3.75L6 3.75ZM6 4.75L4 4.75C3.72 4.75 3.5 4.97 3.5 5.25L3.5 12.75C3.5 13.02 3.72 13.25 4 13.25L6 13.25C6.27 13.25 6.5 13.02 6.5 12.75L6.5 5.25C6.5 4.97 6.27 4.75 6 4.75ZM12 3.75C12.82 3.75 13.5 4.42 13.5 5.25L13.5 9.25C13.5 10.07 12.82 10.75 12 10.75L10 10.75C9.17 10.75 8.5 10.07 8.5 9.25L8.5 5.25C8.5 4.42 9.17 3.75 10 3.75L12 3.75ZM12 4.75L10 4.75C9.72 4.75 9.5 4.97 9.5 5.25L9.5 9.25C9.5 9.52 9.72 9.75 10 9.75L12 9.75C12.27 9.75 12.5 9.52 12.5 9.25L12.5 5.25C12.5 4.97 12.27 4.75 12 4.75ZM2 2.75C1.72 2.75 1.5 2.52 1.5 2.25C1.5 1.97 1.72 1.75 2 1.75L14 1.75C14.27 1.75 14.5 1.97 14.5 2.25C14.5 2.52 14.27 2.75 14 2.75L2 2.75Z" fill="currentColor" fill-opacity="1.000000" fill-rule="nonzero"/>
	</g>
</svg>
