<svg width="16.000000" height="16.000000" viewBox="0 0 16 16" fill="none" xmlns="http://www.w3.org/2000/svg" xmlns:xlink="http://www.w3.org/1999/xlink">
	<desc>
			Created with Pixso.
	</desc>
	<defs>
		<clipPath id="clip2_50">
			<rect id="48#横中对齐-align-middle" width="16.000000" height="16.000000" fill="white" fill-opacity="0"/>
		</clipPath>
	</defs>
	<g clip-path="url(#clip2_50)">
		<path id="形状结合" d="M11.96 2.25C12.78 2.25 13.46 2.92 13.46 3.75L13.46 7.5L14.18 7.5C14.46 7.5 14.68 7.72 14.68 8C14.68 8.27 14.46 8.5 14.18 8.5L13.46 8.5L13.46 12.25C13.46 13.07 12.78 13.75 11.96 13.75L9.96 13.75C9.13 13.75 8.46 13.07 8.46 12.25L8.46 8.5L7.53 8.5C7.51 8.5 7.48 8.49 7.46 8.49L7.46 10.25C7.46 11.07 6.78 11.75 5.96 11.75L3.96 11.75C3.13 11.75 2.46 11.07 2.46 10.25L2.46 8.5L1.96 8.5C1.68 8.5 1.46 8.27 1.46 8C1.46 7.72 1.68 7.5 1.96 7.5L2.46 7.5L2.46 5.75C2.46 4.92 3.13 4.25 3.96 4.25L5.96 4.25C6.78 4.25 7.46 4.92 7.46 5.75L7.46 7.5C7.48 7.5 7.51 7.5 7.53 7.5L8.46 7.5L8.46 3.75C8.46 2.92 9.13 2.25 9.96 2.25L11.96 2.25ZM11.96 3.25L9.96 3.25C9.68 3.25 9.46 3.47 9.46 3.75L9.46 12.25C9.46 12.52 9.68 12.75 9.96 12.75L11.96 12.75C12.23 12.75 12.46 12.52 12.46 12.25L12.46 3.75C12.46 3.47 12.23 3.25 11.96 3.25ZM5.96 5.25L3.96 5.25C3.68 5.25 3.46 5.47 3.46 5.75L3.46 10.25C3.46 10.52 3.68 10.75 3.96 10.75L5.96 10.75C6.23 10.75 6.46 10.52 6.46 10.25L6.46 5.75C6.46 5.47 6.23 5.25 5.96 5.25Z" fill="currentColor" fill-opacity="1.000000" fill-rule="nonzero"/>
	</g>
</svg>
