<svg width="16.000000" height="16.000000" viewBox="0 0 16 16" fill="none" xmlns="http://www.w3.org/2000/svg" xmlns:xlink="http://www.w3.org/1999/xlink">
	<desc>
			Created with Pixso.
	</desc>
	<defs>
		<clipPath id="clip2_48">
			<rect id="49#横向排列-x-arrange" width="16.000000" height="16.000000" fill="white" fill-opacity="0"/>
		</clipPath>
	</defs>
	<g clip-path="url(#clip2_48)">
		<path id="形状结合" d="M5 1.25C5.27 1.25 5.5 1.47 5.5 1.75L5.5 2.75L6 2.75C6.82 2.75 7.5 3.42 7.5 4.25L7.5 11.75C7.5 12.57 6.82 13.25 6 13.25L5.5 13.25L5.5 14.25C5.5 14.52 5.27 14.75 5 14.75C4.72 14.75 4.5 14.52 4.5 14.25L4.5 13.25L4 13.25C3.17 13.25 2.5 12.57 2.5 11.75L2.5 4.25C2.5 3.42 3.17 2.75 4 2.75L4.5 2.75L4.5 1.75C4.5 1.47 4.72 1.25 5 1.25ZM6 3.75L4 3.75C3.72 3.75 3.5 3.97 3.5 4.25L3.5 11.75C3.5 12.02 3.72 12.25 4 12.25L6 12.25C6.27 12.25 6.5 12.02 6.5 11.75L6.5 4.25C6.5 3.97 6.27 3.75 6 3.75ZM11 1.25C11.27 1.25 11.5 1.47 11.5 1.75L11.5 4.5L12 4.5C12.82 4.5 13.5 5.17 13.5 6L13.5 10C13.5 10.82 12.82 11.5 12 11.5L11.5 11.5L11.5 14.25C11.5 14.52 11.27 14.75 11 14.75C10.72 14.75 10.5 14.52 10.5 14.25L10.5 11.5L10 11.5C9.17 11.5 8.5 10.82 8.5 10L8.5 6C8.5 5.17 9.17 4.5 10 4.5L10.5 4.5L10.5 1.75C10.5 1.47 10.72 1.25 11 1.25ZM12 5.5L10 5.5C9.72 5.5 9.5 5.72 9.5 6L9.5 10C9.5 10.27 9.72 10.5 10 10.5L12 10.5C12.27 10.5 12.5 10.27 12.5 10L12.5 6C12.5 5.72 12.27 5.5 12 5.5Z" fill="currentColor" fill-opacity="1.000000" fill-rule="nonzero"/>
	</g>
</svg>
