<svg width="16.000000" height="16.000000" viewBox="0 0 16 16" fill="none" xmlns="http://www.w3.org/2000/svg" xmlns:xlink="http://www.w3.org/1999/xlink">
	<desc>
			Created with Pixso.
	</desc>
	<defs>
		<clipPath id="clip2_159">
			<rect id="5#文件夹-folder" width="16.000000" height="16.000000" fill="white" fill-opacity="0"/>
		</clipPath>
	</defs>
	<g clip-path="url(#clip2_159)">
		<path id="形状结合" d="M5.32 2.17C5.48 2.17 5.65 2.23 5.78 2.34L7.98 4.2L12.9 4.2C13.73 4.2 14.42 4.83 14.49 5.65L14.5 5.79L14.5 11.34C14.5 12.82 13.29 14.02 11.81 14.02L4.18 14.02C2.7 14.02 1.5 12.82 1.5 11.34L1.5 3.74L1.5 3.59C1.59 2.79 2.27 2.17 3.09 2.17L5.32 2.17ZM13.49 7.39L2.49 7.39L2.5 11.34C2.5 12.23 3.19 12.96 4.07 13.01L4.18 13.02L11.81 13.02C12.74 13.02 13.5 12.27 13.5 11.34L13.49 7.39ZM5.21 3.17L3.09 3.17C2.78 3.17 2.53 3.4 2.5 3.67L2.49 3.77L2.49 6.39L13.49 6.39L13.5 5.79C13.5 5.49 13.27 5.24 12.98 5.2L12.9 5.2L7.87 5.2C7.71 5.2 7.54 5.14 7.41 5.03L5.21 3.17Z" fill="currentColor" fill-opacity="1.000000" fill-rule="nonzero"/>
	</g>
</svg>
