<svg width="16.000000" height="16.000000" viewBox="0 0 16 16" fill="none" xmlns="http://www.w3.org/2000/svg" xmlns:xlink="http://www.w3.org/1999/xlink">
	<desc>
			Created with Pixso.
	</desc>
	<defs>
		<clipPath id="clip2_216">
			<rect id="50#纵向排列-y-arrange" width="16.000000" height="16.000000" fill="white" fill-opacity="0"/>
		</clipPath>
	</defs>
	<g clip-path="url(#clip2_216)">
		<path id="形状结合" d="M11.74 8.5C12.57 8.5 13.24 9.17 13.24 10L13.24 10.5L14.24 10.5C14.51 10.5 14.74 10.72 14.74 11C14.74 11.27 14.51 11.5 14.24 11.5L13.24 11.5L13.24 12C13.24 12.82 12.57 13.5 11.74 13.5L4.24 13.5C3.42 13.5 2.74 12.82 2.74 12L2.74 11.5L1.74 11.5C1.46 11.5 1.24 11.27 1.24 11C1.24 10.72 1.46 10.5 1.74 10.5L2.74 10.5L2.74 10C2.74 9.17 3.42 8.5 4.24 8.5L11.74 8.5ZM11.74 9.5L4.24 9.5C3.97 9.5 3.74 9.72 3.74 10L3.74 12C3.74 12.27 3.97 12.5 4.24 12.5L11.74 12.5C12.02 12.5 12.24 12.27 12.24 12L12.24 10C12.24 9.72 12.02 9.5 11.74 9.5ZM9.99 2.5C10.82 2.5 11.49 3.17 11.49 4L11.49 4.5L14.24 4.5C14.51 4.5 14.74 4.72 14.74 5C14.74 5.27 14.51 5.5 14.24 5.5L11.49 5.5L11.49 6C11.49 6.82 10.82 7.5 9.99 7.5L5.99 7.5C5.16 7.5 4.49 6.82 4.49 6L4.49 5.5L1.74 5.5C1.46 5.5 1.24 5.27 1.24 5C1.24 4.72 1.46 4.5 1.74 4.5L4.49 4.5L4.49 4C4.49 3.17 5.16 2.5 5.99 2.5L9.99 2.5ZM9.99 3.5L5.99 3.5C5.71 3.5 5.49 3.72 5.49 4L5.49 6C5.49 6.27 5.71 6.5 5.99 6.5L9.99 6.5C10.26 6.5 10.49 6.27 10.49 6L10.49 4C10.49 3.72 10.26 3.5 9.99 3.5Z" fill="currentColor" fill-opacity="1.000000" fill-rule="nonzero"/>
	</g>
</svg>
