<svg width="16.000000" height="16.000000" viewBox="0 0 16 16" fill="none" xmlns="http://www.w3.org/2000/svg" xmlns:xlink="http://www.w3.org/1999/xlink">
	<desc>
			Created with Pixso.
	</desc>
	<defs>
		<clipPath id="clip2_233">
			<rect id="51#表格-table" width="16.000000" height="16.000000" fill="white" fill-opacity="0"/>
		</clipPath>
	</defs>
	<g clip-path="url(#clip2_233)">
		<path id="形状结合" d="M12 1.5C13.38 1.5 14.5 2.61 14.5 4L14.5 12C14.5 13.38 13.38 14.5 12 14.5L4 14.5C2.61 14.5 1.5 13.38 1.5 12L1.5 4C1.5 2.61 2.61 1.5 4 1.5L12 1.5ZM7.5 10L2.5 10L2.5 12C2.5 12.79 3.11 13.44 3.89 13.49L4 13.5L7.5 13.5L7.5 10ZM13.5 10L8.5 10L8.5 13.5L12 13.5C12.79 13.5 13.44 12.88 13.49 12.1L13.5 12L13.5 10ZM7.5 5.5L2.5 5.5L2.5 9L7.5 9L7.5 5.5ZM13.5 5.5L8.5 5.5L8.5 9L13.5 9L13.5 5.5ZM12 2.5L4 2.5C3.17 2.5 2.5 3.17 2.5 4L2.5 4.5L13.5 4.5L13.5 4C13.5 3.2 12.88 2.55 12.1 2.5L12 2.5Z" fill="currentColor" fill-opacity="1.000000" fill-rule="nonzero"/>
	</g>
</svg>
