<svg width="16.000000" height="16.000000" viewBox="0 0 16 16" fill="none" xmlns="http://www.w3.org/2000/svg" xmlns:xlink="http://www.w3.org/1999/xlink">
	<desc>
			Created with Pixso.
	</desc>
	<defs>
		<clipPath id="clip2_154">
			<rect id="52#网格线-grid-line" width="16.000000" height="16.000000" fill="white" fill-opacity="0"/>
		</clipPath>
	</defs>
	<g clip-path="url(#clip2_154)">
		<path id="形状结合" d="M12 2C12.27 2 12.5 2.22 12.5 2.5L12.5 3.5L13.5 3.5C13.77 3.5 14 3.72 14 4C14 4.27 13.77 4.5 13.5 4.5L12.5 4.5L12.5 7.5L13.5 7.5C13.77 7.5 14 7.72 14 8C14 8.27 13.77 8.5 13.5 8.5L12.5 8.5L12.5 11.5L13.5 11.5C13.77 11.5 14 11.72 14 12C14 12.27 13.77 12.5 13.5 12.5L12.5 12.5L12.5 13.5C12.5 13.77 12.27 14 12 14C11.72 14 11.5 13.77 11.5 13.5L11.5 12.5L8.5 12.5L8.5 13.5C8.5 13.77 8.27 14 8 14C7.72 14 7.5 13.77 7.5 13.5L7.5 12.5L4.5 12.5L4.5 13.5C4.5 13.77 4.27 14 4 14C3.72 14 3.5 13.77 3.5 13.5L3.5 12.5L2.5 12.5C2.22 12.5 2 12.27 2 12C2 11.72 2.22 11.5 2.5 11.5L3.5 11.5L3.5 8.5L2.5 8.5C2.22 8.5 2 8.27 2 8C2 7.72 2.22 7.5 2.5 7.5L3.49 7.5L3.49 4.5L2.5 4.5C2.22 4.5 2 4.27 2 4C2 3.72 2.22 3.5 2.5 3.5L3.49 3.5L3.5 2.5C3.5 2.22 3.72 2 4 2C4.27 2 4.5 2.22 4.5 2.5L4.49 3.5L7.5 3.5L7.5 2.5C7.5 2.22 7.72 2 8 2C8.27 2 8.5 2.22 8.5 2.5L8.5 3.5L11.5 3.5L11.5 2.5C11.5 2.22 11.72 2 12 2ZM11.5 11.5L11.5 8.5L8.5 8.5L8.5 11.5L11.5 11.5ZM7.5 8.5L4.5 8.5L4.5 11.5L7.5 11.5L7.5 8.5ZM11.5 7.5L11.5 4.5L8.5 4.5L8.5 7.5L11.5 7.5ZM7.5 4.5L4.49 4.5L4.49 7.5L7.5 7.5L7.5 4.5Z" fill="currentColor" fill-opacity="1.000000" fill-rule="nonzero"/>
	</g>
</svg>
