<svg width="16.000000" height="16.000000" viewBox="0 0 16 16" fill="none" xmlns="http://www.w3.org/2000/svg" xmlns:xlink="http://www.w3.org/1999/xlink">
	<desc>
			Created with Pixso.
	</desc>
	<defs>
		<clipPath id="clip2_155">
			<rect id="53#网格线间距-grid-space" width="16.000000" height="16.000000" fill="white" fill-opacity="0"/>
		</clipPath>
	</defs>
	<g clip-path="url(#clip2_155)">
		<path id="形状结合" d="M11.03 6.16L12.37 7.66C12.54 7.85 12.54 8.14 12.37 8.33L11.03 9.83C10.84 10.03 10.53 10.05 10.32 9.87C10.12 9.68 10.1 9.37 10.28 9.16L10.88 8.5L5.11 8.5L5.71 9.16C5.88 9.35 5.88 9.63 5.72 9.81C5.52 10 5.15 10.03 4.97 9.83L3.62 8.33C3.45 8.14 3.45 7.85 3.62 7.66L4.97 6.16C5.15 5.96 5.47 5.94 5.67 6.12C5.82 6.31 5.88 6.65 5.71 6.83L5.11 7.5L10.88 7.5L10.28 6.83C10.12 6.65 10.11 6.38 10.26 6.19C10.47 6 10.84 5.96 11.03 6.16ZM3 13.5C3 13.77 2.77 14 2.5 14C2.22 14 2 13.77 2 13.5L2 2.5C2 2.22 2.22 2 2.5 2C2.77 2 3 2.22 3 2.5L3 13.5ZM14 13.5C14 13.77 13.77 14 13.5 14C13.22 14 13 13.77 13 13.5L13 2.5C13 2.22 13.22 2 13.5 2C13.77 2 14 2.22 14 2.5L14 13.5Z" fill="currentColor" fill-opacity="1.000000" fill-rule="nonzero"/>
	</g>
</svg>
