<svg width="16.000000" height="16.000000" viewBox="0 0 16 16" fill="none" xmlns="http://www.w3.org/2000/svg" xmlns:xlink="http://www.w3.org/1999/xlink">
	<desc>
			Created with Pixso.
	</desc>
	<defs/>
	<path id="矢量 164" d="M4.93 1L11.06 1C13.25 1 15 2.75 15 4.93L15 11.06C15 13.25 13.25 15 11.06 15L4.93 15C2.75 15 1 13.25 1 11.06L1 4.93C1 2.75 2.75 1 4.93 1ZM11.06 14.12C12.72 14.12 14.12 12.72 14.12 11.06L14.12 4.93C14.12 3.27 12.72 1.87 11.06 1.87L4.93 1.87C3.27 1.87 1.87 3.27 1.87 4.93L1.87 11.06C1.87 12.72 3.27 14.12 4.93 14.12L11.06 14.12Z" fill="currentColor" fill-opacity="1.000000" fill-rule="evenodd"/>
</svg>
