<svg width="16.000000" height="16.000000" viewBox="0 0 16 16" fill="none" xmlns="http://www.w3.org/2000/svg" xmlns:xlink="http://www.w3.org/1999/xlink">
	<desc>
			Created with Pixso.
	</desc>
	<defs/>
	<g style="mix-blend-mode:normal">
		<path id="矢量 163" d="M4.93 1L11.06 1C13.25 1 15 2.75 15 4.93L15 11.06C15 13.25 13.25 15 11.06 15L4.93 15C2.75 15 1 13.25 1 11.06L1 4.93C1 2.75 2.75 1 4.93 1ZM9.62 5.37L6.37 5.37C5.82 5.37 5.37 5.82 5.37 6.37L5.37 9.62C5.37 10.17 5.82 10.62 6.37 10.62L9.62 10.62C10.17 10.62 10.62 10.17 10.62 9.62L10.62 6.37C10.62 5.82 10.17 5.37 9.62 5.37Z" fill="currentColor" fill-opacity="1.000000" fill-rule="evenodd"/>
	</g>
</svg>
