<svg width="16.000000" height="16.000000" viewBox="0 0 16 16" fill="none" xmlns="http://www.w3.org/2000/svg" xmlns:xlink="http://www.w3.org/1999/xlink">
	<desc>
			Created with Pixso.
	</desc>
	<defs/>
	<rect id="56#选中-checked" rx="4.000000" width="16.000000" height="16.000000" fill="currentColor" fill-opacity="0"/>
	<path id="矢量 165" d="M5 1L11 1C13.2 1 15 2.79 15 5L15 11C15 13.2 13.2 15 11 15L5 15C2.79 15 1 13.2 1 11L1 5C1 2.79 2.79 1 5 1ZM7.56 10.86L12.8 5.23C12.97 5.05 12.96 4.78 12.78 4.61C12.6 4.45 12.33 4.46 12.16 4.64L7.23 9.93L4.37 7.11C4.19 6.94 3.92 6.94 3.75 7.11C3.58 7.29 3.58 7.56 3.75 7.73L6.93 10.87C7.02 10.96 7.12 11 7.24 11C7.36 11 7.48 10.94 7.56 10.86Z" fill="currentColor" fill-opacity="1.000000" fill-rule="evenodd"/>
</svg>
