<svg width="16.000000" height="16.000000" viewBox="0 0 16 16" fill="none" xmlns="http://www.w3.org/2000/svg" xmlns:xlink="http://www.w3.org/1999/xlink">
	<desc>
			Created with Pixso.
	</desc>
	<defs/>
	<rect id="58#单选选中-radio-checked" width="16.000000" height="16.000000" fill="#FFFFFF" fill-opacity="0"/>
	<path id="矢量 167" d="M1 8C1 4.13 4.13 1 8 1C11.86 1 15 4.13 15 8C15 11.86 11.86 15 8 15C4.13 15 1 11.86 1 8ZM1.87 8C1.87 4.61 4.61 1.87 8 1.87C11.38 1.87 14.12 4.61 14.12 8C14.12 11.38 11.38 14.12 8 14.12C4.61 14.12 1.87 11.38 1.87 8ZM8 11.5C9.93 11.5 11.5 9.93 11.5 8C11.5 6.06 9.93 4.5 8 4.5C6.06 4.5 4.5 6.06 4.5 8C4.5 9.93 6.06 11.5 8 11.5Z" fill="currentColor" fill-opacity="1.000000" fill-rule="evenodd"/>
</svg>
