<svg width="16.000000" height="16.000000" viewBox="0 0 16 16" fill="none" xmlns="http://www.w3.org/2000/svg" xmlns:xlink="http://www.w3.org/1999/xlink">
	<desc>
			Created with Pixso.
	</desc>
	<defs>
		<clipPath id="clip2_160">
			<rect id="6#文件夹下载-folder-download" width="16.000000" height="16.000000" fill="white" fill-opacity="0"/>
		</clipPath>
	</defs>
	<g clip-path="url(#clip2_160)">
		<path id="形状结合" d="M5.25 2.18C5.42 2.18 5.58 2.24 5.71 2.35L7.91 4.2L12.83 4.2C13.66 4.2 14.34 4.84 14.41 5.65L14.42 5.79L14.42 6.39L15.07 6.4L15.19 6.4C15.46 6.46 15.64 6.72 15.59 6.99L14.44 12.98C14.43 13.04 14.41 13.1 14.38 13.15C14.09 13.69 13.48 14.01 12.83 14.01L4.11 14.01C2.63 14.01 1.43 12.81 1.43 11.33L1.43 3.77C1.43 2.89 2.14 2.18 3.02 2.18L5.25 2.18ZM14.49 7.39L4.58 7.39L3.53 12.91C3.71 12.98 3.91 13.01 4.11 13.01L12.83 13.01C13.1 13.01 13.32 12.92 13.44 12.78L14.49 7.39ZM5.15 3.18L3.02 3.18C2.73 3.18 2.48 3.39 2.44 3.67L2.43 3.77L2.43 11.33C2.43 11.64 2.51 11.92 2.65 12.16L3.68 6.8C3.68 6.77 3.69 6.75 3.7 6.72C3.71 6.71 3.73 6.66 3.73 6.65C3.74 6.64 3.79 6.58 3.8 6.56C3.81 6.56 3.88 6.49 3.89 6.48C3.97 6.44 4.08 6.4 4.17 6.4L13.42 6.39L13.42 5.79C13.42 5.47 13.16 5.2 12.83 5.2L7.81 5.2C7.64 5.2 7.47 5.14 7.34 5.03L5.15 3.18ZM9.08 7.93C9.36 7.93 9.58 8.16 9.58 8.43L9.58 10.4L10.31 9.67C10.49 9.49 10.76 9.47 10.95 9.61L11.02 9.67C11.22 9.86 11.22 10.18 11.02 10.37L9.43 11.96C9.24 12.15 8.92 12.15 8.73 11.96L7.14 10.37C6.95 10.18 6.95 9.86 7.14 9.67C7.34 9.47 7.65 9.47 7.85 9.67L8.58 10.4L8.58 8.43C8.58 8.16 8.81 7.93 9.08 7.93Z" fill="currentColor" fill-opacity="1.000000" fill-rule="nonzero"/>
	</g>
</svg>
