<svg width="72.000000" height="72.000000" viewBox="0 0 72 72" fill="none" xmlns="http://www.w3.org/2000/svg" xmlns:xlink="http://www.w3.org/1999/xlink">
	<desc>
			Created with Pixso.
	</desc>
	<defs>
		<clipPath id="clip117_292">
			<rect id="1#工业数字模型驱动引擎-IDME" width="72.000000" height="72.000000" fill="white" fill-opacity="0"/>
		</clipPath>
	</defs>
	<g clip-path="url(#clip117_292)">
		<path id="矩形备份-19" d="M16 0L56 0C64.8 0 72 7.2 72 16L72 56C72 64.79 64.8 72 56 72L16 72C7.19 72 0 64.79 0 56L0 16C0 7.2 7.19 0 16 0Z" fill="#00ABED" fill-opacity="1.000000" fill-rule="evenodd"/>
		<path id="形状结合" d="M23.28 21.12C25.09 21.12 26.76 21.75 28.08 22.8C29.39 21.75 31.06 21.12 32.88 21.12L33.35 21.12C35.16 21.12 36.84 21.75 38.15 22.8C39.47 21.75 41.14 21.12 42.96 21.12L43.43 21.12C45.25 21.12 46.91 21.75 48.24 22.8C49.55 21.75 51.22 21.12 53.04 21.12L57.84 21.12C59.42 21.12 60.72 22.4 60.72 24C60.72 25.59 59.42 26.87 57.84 26.87L53.04 26.87C51.97 26.87 51.12 27.73 51.12 28.8L51.12 43.2C51.12 44.26 51.97 45.12 53.04 45.12L57.84 45.12C59.42 45.12 60.72 46.4 60.72 48C60.72 49.59 59.42 50.87 57.84 50.87L53.04 50.87C48.79 50.87 45.36 47.44 45.36 43.2L45.36 28.8C45.36 27.73 44.5 26.87 43.43 26.87L42.96 26.87C41.92 26.87 41.09 27.68 41.04 28.69L41.04 40.32C41.04 41.91 39.75 43.2 38.15 43.2C36.56 43.2 35.28 41.91 35.28 40.32L35.28 28.8C35.28 27.73 34.41 26.87 33.35 26.87L32.88 26.87C31.81 26.87 30.96 27.73 30.96 28.8L30.96 43.2C30.96 47.44 27.52 50.87 23.28 50.87L12.24 50.87C11.7 50.87 11.28 50.45 11.28 49.91L11.28 31.68C11.28 30.08 12.56 28.8 14.15 28.8C15.75 28.8 17.04 30.08 17.04 31.68L17.04 44.16C17.04 44.69 17.45 45.12 18 45.12L23.28 45.12C24.3 45.12 25.14 44.31 25.18 43.29L25.2 28.8C25.2 27.73 24.34 26.87 23.28 26.87L21.84 26.87C20.24 26.87 18.95 25.59 18.95 24C18.95 22.4 20.24 21.12 21.84 21.12L23.28 21.12ZM38.15 45.12C39.75 45.12 41.04 46.4 41.04 48C41.04 49.59 39.75 50.87 38.15 50.87C36.56 50.87 35.28 49.59 35.28 48C35.28 46.4 36.56 45.12 38.15 45.12ZM55.91 33.12C57.51 33.12 58.8 34.41 58.8 36C58.8 37.59 57.51 38.88 55.91 38.88C54.33 38.88 53.04 37.6 53.04 36C53.04 34.4 54.33 33.12 55.91 33.12ZM14.15 21.12C15.75 21.12 17.04 22.4 17.04 24C17.04 25.59 15.75 26.87 14.15 26.87C12.56 26.87 11.28 25.59 11.28 24C11.28 22.4 12.56 21.12 14.15 21.12Z" fill="#FFFFFF" fill-opacity="1.000000" fill-rule="evenodd"/>
	</g>
</svg>
