<svg width="72.000000" height="72.000000" viewBox="0 0 72 72" fill="none" xmlns="http://www.w3.org/2000/svg" xmlns:xlink="http://www.w3.org/1999/xlink">
	<desc>
			Created with Pixso.
	</desc>
	<defs>
		<clipPath id="clip117_291">
			<rect id="2#板级EDA工具链云服务-CraftArts-pEDA" width="72.000000" height="72.000000" fill="white" fill-opacity="0"/>
		</clipPath>
	</defs>
	<g clip-path="url(#clip117_291)">
		<path id="矩形备份-19" d="M16 0L56 0C64.8 0 72 7.2 72 16L72 56C72 64.79 64.8 72 56 72L16 72C7.19 72 0 64.79 0 56L0 16C0 7.2 7.19 0 16 0Z" fill="#F85835" fill-opacity="1.000000" fill-rule="evenodd"/>
		<path id="形状结合" d="M35.6 19C41.89 19 47 24 47.2 30.2L50.1 30.2C56.1 30.2 61 35 61 41L61 42.2C61 48.2 56.1 53 50.1 53L21.89 53C15.89 53 11 48.2 11 42.2L11 41C11 35 15.89 30.2 21.89 30.2L24 30.2C24.1 24 29.3 19 35.6 19ZM25.2 35.29L19.5 35.29L18 36.79L18 47.09C18 47.7 18.5 48.2 19.1 48.2L19.2 48.2C19.29 48.2 19.29 48.2 19.39 48.2C20.1 48.2 20.7 47.59 20.7 46.9C20.7 46.5 20.5 46.09 20.2 45.9L20.2 37.79L20.39 37.59L24.2 37.59L24.39 37.79L24.39 40.4L24.2 40.59L23 40.59C22.8 40.4 22.39 40.2 22.1 40.2C21.6 40.2 21.1 40.5 20.89 41C20.7 41.2 20.6 41.4 20.6 41.7C20.6 42.29 21.1 42.79 21.7 42.79L21.6 42.79C21.7 42.79 21.89 42.9 22 42.9C22.2 42.9 22.3 42.9 22.39 42.79L25.1 42.79L26.6 41.2L26.6 36.79L25.2 35.29ZM33.7 35.29L28.7 35.29L27.2 36.79L27.2 46.7L28.7 48.2L33.7 48.2C33.8 48.2 33.89 48.2 34 48.2C34.7 48.2 35.3 47.59 35.3 46.9C35.3 46.2 34.7 45.59 34 45.59C33.6 45.59 33.2 45.79 33 46.09L29.7 46.09L29.5 45.9L29.5 42.9L33 42.9C33.2 43.2 33.6 43.4 34.1 43.4C34.8 43.4 35.39 42.79 35.39 42.09C35.39 41.4 34.8 40.79 34.1 40.79C33.7 40.79 33.3 41 33.1 41.29L29.6 41.29L29.6 37.79L29.8 37.59L33.1 37.59C33.3 37.9 33.7 38.09 34.1 38.09C34.8 38.09 35.39 37.5 35.39 36.79C35.39 36.09 34.8 35.5 34.1 35.5C33.8 35.29 33.8 35.29 33.7 35.29ZM42.89 35.29L37.2 35.29L35.7 36.79L35.7 46.29C35.7 46.4 35.7 46.59 35.8 46.7C35.8 46.79 35.8 46.9 35.8 46.9C35.8 47.59 36.39 48.2 37.1 48.2C37.8 48.2 38.39 47.59 38.39 46.9C38.39 46.5 38.2 46.09 37.89 45.9L37.89 37.79L38.1 37.59L42 37.59L42.2 37.79L42.2 45.9L42 46L41.39 46C41.2 45.7 40.8 45.5 40.39 45.5C39.7 45.5 39.1 46.09 39.1 46.79C39.1 47.5 39.7 48.09 40.39 48.09C40.5 48.09 40.7 48.09 40.8 48.09L42.89 48.09L44.39 46.59C44.39 47.29 45 48 45.7 48C46.39 48 47 47.4 47 46.7C47 46.59 47 46.4 46.89 46.29C47 46.2 47 46 47 45.9L47 42.7L48.3 42.7C48.5 43 48.89 43.2 49.39 43.2C50.1 43.2 50.7 42.59 50.7 41.9C50.7 41.2 50.1 40.59 49.39 40.59C49 40.59 48.6 40.79 48.39 41.09L47.1 41.09L47.1 37.59L47.3 37.4L51.1 37.4L51.3 37.59L51.3 45.7C51 45.9 50.8 46.29 50.8 46.7C50.8 47.4 51.39 48 52.1 48C52.8 48 53.39 47.4 53.39 46.7C53.39 46.59 53.39 46.4 53.3 46.29C53.39 46.2 53.39 46 53.39 45.9L53.39 36.59L51.89 35.09L46.3 35.09L44.8 36.59L44.8 45.59C44.6 45.79 44.39 46 44.3 46.29L44.3 36.5L42.89 35.29ZM34.3 26.2L30.8 26.2L29.3 27.7L29.3 31.2L30.8 32.7L34.3 32.7L35.5 31.5L35.6 31.4C35.7 31.29 35.8 31.09 35.8 31L36 30.79C36 31.09 36 31.4 36.2 31.59L36.3 31.7L37.3 32.7L40.8 32.7L42.3 31.2L42.3 27.7L40.8 26.2L37.3 26.2L36.1 27.4C36 27.5 35.89 27.7 35.8 27.9L35.5 28.2C35.7 27.79 35.6 27.29 35.2 26.9L34.3 26.2ZM33.5 28.4L33.8 28.59L33.89 28.7C34.2 28.9 34.6 29 35 28.79L34.1 29.7L34 29.79C33.89 29.9 33.8 30.09 33.8 30.2L33.6 30.4L31.89 30.4L31.7 30.2L31.7 28.5L31.89 28.29L33.5 28.29L33.5 28.4ZM39.89 28.4L40.1 28.59L40.1 30.29L39.89 30.5L38.3 30.5L38 30.2C37.8 29.9 37.39 29.79 37.1 29.9L38.3 28.7L38.39 28.59L38.5 28.5L39.89 28.4Z" fill="#FFFFFF" fill-opacity="1.000000" fill-rule="nonzero"/>
	</g>
</svg>
