<svg width="72.000000" height="72.000000" viewBox="0 0 72 72" fill="none" xmlns="http://www.w3.org/2000/svg" xmlns:xlink="http://www.w3.org/1999/xlink">
	<desc>
			Created with Pixso.
	</desc>
	<defs>
		<clipPath id="clip117_293">
			<rect id="3#硬件开发工具链平台云服务-CraftArts-IPDCenter" width="72.000000" height="72.000000" fill="white" fill-opacity="0"/>
		</clipPath>
	</defs>
	<g clip-path="url(#clip117_293)">
		<path id="矩形备份-19" d="M16 0L56 0C64.8 0 72 7.2 72 16L72 56C72 64.79 64.8 72 56 72L16 72C7.19 72 0 64.79 0 56L0 16C0 7.2 7.19 0 16 0Z" fill="#1476FF" fill-opacity="1.000000" fill-rule="evenodd"/>
		<path id="形状结合" d="M35.8 19C42 19 47.1 23.5 48 29.29L48 29.59C54.6 29.79 60 35.09 60 41.79C60 48.5 54.5 54 47.7 54L46.7 54C46.6 54 46.6 54 46.5 54C45.39 54 44.5 53.09 44.5 52L44.5 44C44.5 42.9 45.39 42 46.5 42C47.6 42 48.5 42.9 48.5 44L48.5 49.9C52.7 49.5 55.89 46 55.89 41.7C55.89 37.2 52.3 33.59 47.8 33.5C46.7 39.09 41.7 43.29 35.8 43.29C32.6 43.29 29.7 42.09 27.6 40.09L27.6 45.7C27.6 46.79 26.7 47.7 25.6 47.7C24.5 47.7 23.6 46.79 23.6 45.7L23.6 31.59L23.6 31.5C23.6 31.4 23.6 31.29 23.6 31.2C23.6 24.5 29.1 19 35.8 19ZM12 41.4L12 41.09C12.1 39.59 12.39 38.2 13.1 36.79C13.6 35.79 14.7 35.4 15.8 35.79C16.79 36.2 17.2 37.4 16.79 38.4C16.39 39.29 16.1 40.5 16.1 41.5L16.1 41.79C16.1 46.29 19.7 49.9 24.2 50L24.3 50L39.5 50C40.6 50 41.5 50.9 41.5 52C41.5 53.09 40.6 54 39.5 54L24.39 54C17.5 54 12 48.5 12 41.79L12 41.59L12 41.4L12 41.79L12 41.4ZM35.8 23C31.2 23 27.6 26.7 27.6 31.2C27.6 35.7 31.3 39.4 35.8 39.4C40.3 39.4 44 35.7 44 31.2C44 26.7 40.39 23 35.8 23ZM19.1 30.29C20.6 30.29 21.8 31.5 21.8 33C21.8 34.5 20.6 35.7 19.1 35.7C17.6 35.7 16.39 34.5 16.39 33C16.5 31.5 17.7 30.29 19.1 30.29Z" fill="#FFFFFF" fill-opacity="1.000000" fill-rule="nonzero"/>
	</g>
</svg>
