<svg width="72.000000" height="72.000000" viewBox="0 0 72 72" fill="none" xmlns="http://www.w3.org/2000/svg" xmlns:xlink="http://www.w3.org/1999/xlink">
	<desc>
			Created with Pixso.
	</desc>
	<defs>
		<clipPath id="clip117_324">
			<rect id="5#工业数据转换引擎云服务-iDEE" width="72.000000" height="72.000000" fill="white" fill-opacity="0"/>
		</clipPath>
	</defs>
	<g clip-path="url(#clip117_324)">
		<path id="矩形备份-15" d="M16 0L56 0C64.84 0 72 7.16 72 16L72 56C72 64.83 64.84 72 56 72L16 72C7.15 72 0 64.83 0 56L0 16C0 7.16 7.15 0 16 0Z" fill="#1476FF" fill-opacity="1.000000" fill-rule="evenodd"/>
		<path id="形状结合" d="M39.14 12.75L54.28 21.49C56.3 22.65 57.54 24.81 57.54 27.14L57.54 44.61C57.54 46.94 56.3 49.1 54.28 50.26L39.14 59C37.12 60.17 34.63 60.17 32.61 59L17.49 50.26C15.47 49.1 14.23 46.94 14.23 44.61L14.23 27.14C14.23 24.81 15.47 22.65 17.49 21.49L32.61 12.75C34.63 11.58 37.12 11.58 39.14 12.75ZM24.85 24.73C24.55 24.22 23.87 24.05 23.35 24.36L20.1 26.32C19.77 26.51 19.57 26.87 19.57 27.25L19.57 44.49C19.57 44.88 19.78 45.24 20.1 45.43L35.35 54.32C35.67 54.51 36.09 54.52 36.41 54.34L39.63 52.57C39.81 52.47 39.96 52.33 40.06 52.16C40.35 51.64 40.17 50.98 39.65 50.68L25.55 42.44C25.22 42.25 25.01 41.89 25.01 41.5L25.01 25.29C25.01 25.09 24.96 24.9 24.85 24.73ZM36.4 17.42C36.09 17.23 35.67 17.23 35.35 17.41L32.12 19.18C31.6 19.47 31.4 20.13 31.7 20.66C31.8 20.83 31.93 20.98 32.1 21.07L46.22 29.31C46.55 29.5 46.76 29.86 46.76 30.25L46.76 46.81C46.76 47.41 47.25 47.9 47.85 47.9C48.03 47.9 48.21 47.85 48.36 47.77L51.62 45.97C51.98 45.78 52.2 45.42 52.2 45.02L52.2 26.99C52.2 26.6 51.99 26.24 51.63 26.05L36.4 17.42ZM32.07 27.72C31.54 27.42 30.87 27.61 30.59 28.14C30.5 28.3 30.45 28.48 30.45 28.67L30.45 38.24C30.45 38.63 30.65 38.98 30.99 39.18L39.68 44.18C40.21 44.48 40.87 44.3 41.17 43.78C41.27 43.62 41.32 43.43 41.32 43.24L41.32 33.52C41.32 33.13 41.1 32.77 40.75 32.57L32.07 27.72Z" fill="#FFFFFF" fill-opacity="1.000000" fill-rule="evenodd"/>
		<path id="形状结合" d="M54.28 21.49C56.3 22.65 57.54 24.81 57.54 27.14L57.54 44.61C57.54 46.94 56.3 49.1 54.28 50.26L39.14 59C37.12 60.17 34.63 60.17 32.61 59L17.49 50.26C15.47 49.1 14.23 46.94 14.23 44.61L14.23 27.14C14.23 24.81 15.47 22.65 17.49 21.49L32.61 12.75C34.63 11.58 37.12 11.58 39.14 12.75L54.28 21.49ZM23.35 24.36L20.1 26.32C19.77 26.51 19.57 26.87 19.57 27.25L19.57 44.49C19.57 44.88 19.78 45.24 20.1 45.43L35.35 54.32C35.67 54.51 36.09 54.52 36.41 54.34L39.63 52.57C39.81 52.47 39.96 52.33 40.06 52.16C40.35 51.64 40.17 50.98 39.65 50.68L25.55 42.44C25.22 42.25 25.01 41.89 25.01 41.5L25.01 25.29C25.01 25.09 24.96 24.9 24.85 24.73C24.55 24.22 23.87 24.05 23.35 24.36ZM35.35 17.41L32.12 19.18C31.6 19.47 31.4 20.13 31.7 20.66C31.8 20.83 31.93 20.98 32.1 21.07L46.22 29.31C46.55 29.5 46.76 29.86 46.76 30.25L46.76 46.81C46.76 47.41 47.25 47.9 47.85 47.9C48.03 47.9 48.21 47.85 48.36 47.77L51.62 45.97C51.98 45.78 52.2 45.42 52.2 45.02L52.2 26.99C52.2 26.6 51.99 26.24 51.63 26.05L36.4 17.42C36.09 17.23 35.67 17.23 35.35 17.41ZM30.59 28.14C30.5 28.3 30.45 28.48 30.45 28.67L30.45 38.24C30.45 38.63 30.65 38.98 30.99 39.18L39.68 44.18C40.21 44.48 40.87 44.3 41.17 43.78C41.27 43.62 41.32 43.43 41.32 43.24L41.32 33.52C41.32 33.13 41.1 32.77 40.75 32.57L32.07 27.72C31.54 27.42 30.87 27.61 30.59 28.14Z" stroke="#000000" stroke-opacity="0" stroke-width="1.000000"/>
	</g>
</svg>
