<svg width="72.000000" height="72.000000" viewBox="0 0 72 72" fill="none" xmlns="http://www.w3.org/2000/svg" xmlns:xlink="http://www.w3.org/1999/xlink">
	<desc>
			Created with Pixso.
	</desc>
	<defs>
		<clipPath id="clip117_275">
			<rect id="1#主机迁移服务-SMS" width="72.000000" height="72.000000" fill="white" fill-opacity="0"/>
		</clipPath>
	</defs>
	<g clip-path="url(#clip117_275)">
		<path id="矩形备份-19" d="M16 0L56 0C64.8 0 72 7.2 72 16L72 56C72 64.79 64.8 72 56 72L16 72C7.19 72 0 64.79 0 56L0 16C0 7.2 7.19 0 16 0Z" fill="#00ABED" fill-opacity="1.000000" fill-rule="evenodd"/>
		<path id="形状结合" d="M52.9 14.5C55.1 14.5 56.9 16.29 56.9 18.5L56.9 37.1C55.8 36.39 54.4 35.89 53 35.69C51.8 31.89 48.4 29.19 44.4 29.19C40.4 29.19 37 31.89 35.8 35.6C30.9 35.69 27 39.79 27 44.89C27 47 27.7 48.89 28.8 50.39L14.8 50.39C12.6 50.39 10.8 48.6 10.8 46.39L10.8 18.39C10.8 16.19 12.6 14.39 14.8 14.39L52.9 14.39L52.9 14.5ZM44.4 31.29C41.3 31.29 38.7 33.29 37.7 36.29L37.3 37.69L35.9 37.69C32.1 37.79 29.1 41 29.1 45C29.1 48.89 32 52.1 35.7 52.29L35.9 52.29L52 52.29L52.2 52.29C56 52.19 59.1 49 59.1 45C59.1 41.29 56.4 38.1 52.8 37.79L51.5 37.69L51.1 36.39C50.2 33.29 47.5 31.29 44.4 31.29ZM41.3 38.39C41.9 37.69 43.1 38.1 43.1 39L43.1 48C43.1 48.6 42.7 49 42.1 49C41.5 49 41.1 48.6 41.1 48L41.1 41.79L39.8 43.29C39.5 43.69 38.9 43.79 38.5 43.5C38.1 43.1 37.9 42.39 38.3 42L41.3 38.39ZM46.9 48.6C46.3 49.29 45.1 48.89 45.1 48L45.1 39C45.1 38.39 45.5 38 46.1 38C46.7 38 47.1 38.39 47.1 39L47.1 45.19L48.4 43.69C48.7 43.29 49.3 43.19 49.7 43.5C50.1 43.89 50.3 44.6 49.9 45L46.9 48.6ZM50.9 55.79C51.7 55.79 52.4 56.5 52.4 57.29C52.4 58.1 51.7 58.79 50.9 58.79L16.9 58.79C16.1 58.79 15.4 58.1 15.4 57.29C15.4 56.5 16.1 55.79 16.9 55.79L50.9 55.79Z" fill="#FFFFFF" fill-opacity="1.000000" fill-rule="evenodd"/>
	</g>
</svg>
