<svg width="72.000000" height="72.000000" viewBox="0 0 72 72" fill="none" xmlns="http://www.w3.org/2000/svg" xmlns:xlink="http://www.w3.org/1999/xlink">
	<desc>
			Created with Pixso.
	</desc>
	<defs>
		<clipPath id="clip117_274">
			<rect id="2#对象存储迁移服务-OMS" width="72.000000" height="72.000000" fill="white" fill-opacity="0"/>
		</clipPath>
	</defs>
	<g clip-path="url(#clip117_274)">
		<path id="矩形备份-19" d="M16 0L56 0C64.8 0 72 7.2 72 16L72 56C72 64.79 64.8 72 56 72L16 72C7.19 72 0 64.79 0 56L0 16C0 7.2 7.19 0 16 0Z" fill="#7DCC29" fill-opacity="1.000000" fill-rule="evenodd"/>
		<path id="形状结合" d="M40 12C42.2 12 44 13.79 44 16L44 28L56 28C58.2 28 60 29.79 60 32L60 56C60 58.2 58.2 60 56 60L32 60C29.8 60 28 58.2 28 56L28 44L16 44C13.8 44 12 42.2 12 40L12 16C12 13.79 13.8 12 16 12L40 12ZM37.8 22.89C38.39 22.89 38.8 23.29 38.89 23.79C38.89 24.39 38.5 24.79 38 24.89L31.2 25.39L48.39 42.6C48.8 43 48.8 43.5 48.5 43.89C48.1 44.29 47.39 44.39 47 44L28.2 25.2C27.6 24.6 28 23.6 28.8 23.5L37.8 22.89ZM34.2 49.1C33.6 49.1 33.2 48.7 33.1 48.2C33.1 47.6 33.5 47.2 34 47.1L40.8 46.6L23.7 29.5C23.3 29.1 23.3 28.6 23.6 28.2L23.7 28.1C24.1 27.7 24.7 27.7 25.1 28.1L43.8 46.79C44.39 47.39 44 48.39 43.2 48.5L34.2 49.1Z" fill="#FFFFFF" fill-opacity="1.000000" fill-rule="evenodd"/>
	</g>
</svg>
