<svg width="72.000000" height="72.000000" viewBox="0 0 72 72" fill="none" xmlns="http://www.w3.org/2000/svg" xmlns:xlink="http://www.w3.org/1999/xlink">
	<desc>
			Created with Pixso.
	</desc>
	<defs>
		<clipPath id="clip117_272">
			<rect id="3#云数据迁移-CDM" width="72.000000" height="72.000000" fill="white" fill-opacity="0"/>
		</clipPath>
	</defs>
	<g clip-path="url(#clip117_272)">
		<path id="矩形备份-19" d="M16 0L56 0C64.8 0 72 7.2 72 16L72 56C72 64.79 64.8 72 56 72L16 72C7.19 72 0 64.79 0 56L0 16C0 7.2 7.19 0 16 0Z" fill="#00C4BE" fill-opacity="1.000000" fill-rule="evenodd"/>
		<path id="形状结合" d="M38 13.2L54.8 22.89C56 23.6 56.8 24.89 56.8 26.39L56.8 45.8C56.8 47.2 56 48.5 54.8 49.3L38 58.8C36.8 59.5 35.2 59.5 34 58.8L17.2 49.1C16 48.39 15.2 47.1 15.2 45.6L15.2 26.3C15.2 24.89 16 23.6 17.2 22.8L34 13.2C35.2 12.39 36.8 12.39 38 13.2ZM47.5 39C48.5 39 48.89 40.2 48.09 40.8L42.39 45.2C42 45.6 41.3 45.5 41 45C40.7 44.5 40.7 43.89 41.2 43.6L44.59 41L24.59 41C24.09 41 23.7 40.6 23.59 40.1C23.59 39.5 24 39 24.59 39L47.5 39ZM24.5 33C23.5 33 23.09 31.8 23.89 31.2L29.59 26.8C30 26.5 30.7 26.5 31 27C31.3 27.39 31.3 28.1 30.8 28.39L27.39 31L47.39 31C47.89 31 48.3 31.39 48.39 31.89L48.39 32C48.39 32.6 48 33 47.39 33L24.5 33Z" fill="#FFFFFF" fill-opacity="1.000000" fill-rule="evenodd"/>
	</g>
</svg>
