<svg width="72.000000" height="72.000000" viewBox="0 0 72 72" fill="none" xmlns="http://www.w3.org/2000/svg" xmlns:xlink="http://www.w3.org/1999/xlink">
	<desc>
			Created with Pixso.
	</desc>
	<defs>
		<clipPath id="clip117_273">
			<rect id="4#迁移中心-MgC" width="72.000000" height="72.000000" fill="white" fill-opacity="0"/>
		</clipPath>
	</defs>
	<g clip-path="url(#clip117_273)">
		<path id="矩形备份-19" d="M16 0L56 0C64.8 0 72 7.2 72 16L72 56C72 64.79 64.8 72 56 72L16 72C7.19 72 0 64.79 0 56L0 16C0 7.2 7.19 0 16 0Z" fill="#F85835" fill-opacity="1.000000" fill-rule="evenodd"/>
		<path id="形状" d="M44.7 30.5C43.5 27.39 40.6 25.5 37.2 25.5C33.8 25.5 30.89 27.5 29.7 30.5C25.8 31 22.89 34.39 22.89 38.39C22.89 42.89 26.5 46.5 31 46.5L43.39 46.5C48 46.5 51.5 42.89 51.5 38.39C51.5 34.5 48.5 31.1 44.7 30.5ZM31 35.29C31 35 31.2 34.6 31.7 34.6L41.39 34.6L38.6 31.69C38.39 31.5 38.39 31 38.6 30.79C38.8 30.6 39.3 30.6 39.5 30.79L43.3 34.69C43.5 34.89 43.5 35.1 43.39 35.39C43.3 35.6 43.1 35.69 42.89 35.69L31.5 35.69C31.2 36 31 35.69 31 35.29ZM43.3 38.79C43.3 39.1 43.1 39.5 42.6 39.5L32.89 39.5L35.7 42.39C35.89 42.6 35.89 43.1 35.7 43.29C35.6 43.39 35.5 43.5 35.3 43.5C35.2 43.5 35 43.39 34.89 43.29L31.1 39.39C30.89 39.19 30.89 39 31 38.69C31.1 38.39 31.3 38.39 31.5 38.39L42.6 38.39C43.1 38.19 43.3 38.5 43.3 38.79ZM50 54C50.39 54.5 50.2 55.39 49.7 55.89C45.7 58.6 41 60 36.1 60C25.6 60 16.6 53.19 13.39 43.5C12.6 43.1 12 42.19 12 41.1C12 39.69 13.2 38.5 14.6 38.5C16 38.5 17.2 39.69 17.2 41.1C17.2 42 16.79 42.69 16.1 43.19C19 51.6 27 57.39 36.2 57.39C40.6 57.39 44.7 56.1 48.2 53.69C48.8 53.19 49.5 53.5 50 54ZM57.2 47.5C57.39 47.89 57.6 48.39 57.6 48.89C57.6 50.29 56.39 51.5 55 51.5C53.6 51.5 52.39 50.29 52.39 48.89C52.39 47.5 53.5 46.39 54.8 46.29C56.39 43.19 57.39 39.79 57.39 36.19C57.39 29.5 54.3 23.39 49 19.29C48.5 18.89 48.3 18.1 48.8 17.39C49.2 16.89 50 16.69 50.7 17.19C56.7 21.89 60.1 28.79 60.1 36.29C60 40.1 59 44.1 57.2 47.5ZM12.7 32.39C14.6 20.79 24.39 12.39 36.3 12.39C37.7 12.39 39 12.5 40.39 12.69C40.8 12.29 41.5 11.89 42.3 11.89C43.7 11.89 44.8 13.1 44.8 14.5C44.8 15.89 43.7 17.1 42.3 17.1C41.1 17.1 40.1 16.29 39.8 15.19C38.6 15 37.5 14.89 36.3 14.89C25.8 14.89 17 22.39 15.39 32.69C15.3 33.39 14.7 33.79 14.1 33.79C14 33.79 14 33.79 13.89 33.79C13 33.79 12.5 33.19 12.7 32.39Z" fill="#FFFFFF" fill-opacity="1.000000" fill-rule="nonzero"/>
	</g>
</svg>
