<svg width="72.000000" height="72.000000" viewBox="0 0 72 72" fill="none" xmlns="http://www.w3.org/2000/svg" xmlns:xlink="http://www.w3.org/1999/xlink">
	<desc>
			Created with Pixso.
	</desc>
	<defs>
		<clipPath id="clip117_76">
			<rect id="1#虚拟私有云-VPC" width="72.000000" height="72.000000" fill="white" fill-opacity="0"/>
		</clipPath>
	</defs>
	<g clip-path="url(#clip117_76)">
		<path id="矩形备份-19" d="M16 0L56 0C64.8 0 72 7.19 72 16L72 56C72 64.8 64.8 72 56 72L16 72C7.19 72 0 64.8 0 56L0 16C0 7.19 7.19 0 16 0Z" fill="#F85835" fill-opacity="1.000000" fill-rule="evenodd"/>
		<path id="形状结合" d="M36 18C42 18 47 22.1 48.3 27.7C54.89 28.5 60 34 60 40.8C60 48.1 54.1 54 46.8 54L25.2 54C17.89 54 12 48.1 12 40.8C12 34.5 16.5 29.2 22.5 27.89L25.39 39.2C24.6 39.7 24 40.7 24 41.7C24 43.39 25.3 44.7 27 44.7C28.7 44.7 30 43.39 30 41.7C30 41.2 29.89 40.7 29.7 40.3L36.39 33.2C36.89 33.5 37.39 33.7 38 33.7C39.7 33.7 41 32.39 41 30.7C41 29 39.7 27.7 38 27.7C36.8 27.7 35.8 28.39 35.3 29.3L24.1 26.3C25.8 21.5 30.5 18 36 18ZM24.7 28.6L35 31.39C35 31.5 35 31.6 35.1 31.7L28.1 39C27.8 38.89 27.6 38.8 27.3 38.8L24.7 28.6Z" fill="#FFFFFF" fill-opacity="1.000000" fill-rule="evenodd"/>
	</g>
</svg>
