<svg width="72.000000" height="72.000000" viewBox="0 0 72 72" fill="none" xmlns="http://www.w3.org/2000/svg" xmlns:xlink="http://www.w3.org/1999/xlink">
	<desc>
			Created with Pixso.
	</desc>
	<defs>
		<clipPath id="clip117_77">
			<rect id="11#VPC终端节点-VPCEP" width="72.000000" height="72.000000" fill="white" fill-opacity="0"/>
		</clipPath>
	</defs>
	<g clip-path="url(#clip117_77)">
		<path id="矩形备份-19" d="M16 0L56 0C64.8 0 72 7.19 72 16L72 56C72 64.8 64.8 72 56 72L16 72C7.19 72 0 64.8 0 56L0 16C0 7.19 7.19 0 16 0Z" fill="#00ABED" fill-opacity="1.000000" fill-rule="evenodd"/>
		<path id="形状结合" d="M36 12C49.2 12 60 22.8 60 36C60 49.2 49.2 60 36 60C22.8 60 12 49.2 12 36C12 22.8 22.8 12 36 12ZM35.45 28.95C35.1 28.95 34.9 29.07 34.65 29.31L34.49 29.48L34.35 29.62L33.08 30.88L28.6 35.37L28.48 35.49L24.25 35.49C23.84 34.56 22.86 33.85 21.81 33.85C20.33 33.85 19.12 35.06 19.12 36.53C19.12 38 20.34 39.21 21.81 39.21L21.98 39.2C22.96 39.13 23.82 38.55 24.21 37.66L28.89 37.57C29.25 37.57 29.43 37.45 29.68 37.21L30.18 36.71L31.33 35.57L31.52 35.38C31.59 35.31 31.65 35.24 31.73 35.16L32.63 34.25L33.21 33.68L33.87 33.02L34.4 32.49L34.4 43.06C34.4 43.65 34.85 44.11 35.46 44.11L35.58 44.1C35.81 44.08 35.98 43.99 36.15 43.83L36.25 43.77C36.34 43.72 36.39 43.63 36.43 43.56L42.43 37.55L45.4 37.55L45.45 37.72C45.93 39.55 47.59 40.83 49.64 40.83C52.11 40.83 53.97 38.97 53.97 36.5C53.97 34.05 52.11 32.18 49.64 32.18L49.42 32.2C47.5 32.29 45.92 33.61 45.42 35.47L42.01 35.47C41.65 35.47 41.47 35.59 41.22 35.83C41.15 35.88 41.06 35.99 41 36.05L40.83 36.22L40.6 36.45L40.25 36.79L40.12 36.91L39.13 37.9L38.9 38.14L37.75 39.29C37.59 39.46 37.4 39.64 37.21 39.84L36.5 40.54L36.5 29.97C36.5 29.39 36.06 28.95 35.45 28.95ZM49.63 34.47C50.73 34.47 51.6 35.34 51.6 36.42C51.6 37.52 50.73 38.38 49.63 38.38C48.55 38.38 47.67 37.52 47.67 36.42C47.67 35.34 48.55 34.47 49.63 34.47Z" fill="#FFFFFF" fill-opacity="1.000000" fill-rule="evenodd"/>
	</g>
</svg>
