<svg width="72.000000" height="72.000000" viewBox="0 0 72 72" fill="none" xmlns="http://www.w3.org/2000/svg" xmlns:xlink="http://www.w3.org/1999/xlink">
	<desc>
			Created with Pixso.
	</desc>
	<defs>
		<clipPath id="clip117_73">
			<rect id="12#全球加速-GA" width="72.000000" height="72.000000" fill="white" fill-opacity="0"/>
		</clipPath>
	</defs>
	<g clip-path="url(#clip117_73)">
		<path id="矩形备份-19" d="M16 0L56 0C64.8 0 72 7.19 72 16L72 56C72 64.8 64.8 72 56 72L16 72C7.19 72 0 64.8 0 56L0 16C0 7.19 7.19 0 16 0Z" fill="#F85835" fill-opacity="1.000000" fill-rule="evenodd"/>
		<path id="形状结合" d="M47.06 50.84C44.34 55.72 40.33 58.79 35.92 58.79C31.53 58.77 27.49 55.71 24.77 50.84L47.06 50.84ZM53.53 50.84C51.15 53.56 48.14 55.72 44.73 57.1C46.52 55.45 48.07 53.33 49.33 50.84L53.53 50.84ZM22.51 50.84C23.75 53.31 25.29 55.42 27.06 57.06C23.69 55.68 20.71 53.53 18.36 50.84L22.51 50.84ZM47.84 22.26C49.47 25.72 50.5 29.92 50.66 34.49L47.98 34.49C47.43 34.49 46.98 34.94 46.98 35.49C46.98 36.04 47.43 36.49 47.98 36.49L50.68 36.49C50.59 41.08 49.63 45.32 48.06 48.84L23.77 48.84C22.2 45.32 21.25 41.08 21.16 36.49L23.91 36.49C24.46 36.49 24.91 36.04 24.91 35.49C24.91 34.94 24.46 34.49 23.91 34.49L21.17 34.49C21.34 29.92 22.37 25.72 24 22.26L47.84 22.26ZM59.18 36.49C59.05 41.07 57.56 45.31 55.09 48.84L50.24 48.84C51.72 45.22 52.6 41 52.68 36.49L59.18 36.49ZM19.16 36.49C19.24 41 20.12 45.22 21.6 48.84L16.8 48.84C14.33 45.31 12.84 41.07 12.71 36.49L19.16 36.49ZM31.56 40.4C30.53 39.25 29.03 39.13 28.11 40.05C28.11 40.05 23.97 45.23 25.35 46.61C25.58 46.84 25.81 46.95 26.15 46.95C26.85 46.95 27.65 46.61 28.92 45.92C30.18 45.23 31.45 44.31 31.91 43.85C32.25 43.5 32.48 42.93 32.48 42.35C32.48 41.66 32.14 40.86 31.56 40.4ZM45.59 25.45C41.57 24.53 37.54 25.68 34.67 28.55C34.21 29.01 33.86 29.47 33.52 29.93C31.91 30.39 30.41 31.2 29.15 32.35C28.57 32.92 28.11 33.5 27.65 34.19C27.42 34.65 27.42 35.22 27.77 35.57C28.11 36.03 28.69 36.14 29.15 35.91C29.72 35.68 30.41 35.57 31.1 35.45C30.87 36.26 30.87 36.37 30.76 36.49L30.76 36.72L31.1 37.18C31.68 37.87 32.02 38.21 32.71 39.02C33.4 39.82 33.86 40.05 34.55 40.63L35.01 40.97L35.28 40.97C35.37 40.97 35.47 40.93 36.28 40.63C36.16 41.32 36.05 42.01 35.82 42.58C35.59 43.04 35.82 43.62 36.16 43.96C36.39 44.19 36.62 44.31 36.97 44.31C37.2 44.31 37.43 44.31 37.54 44.19C38.23 43.73 38.81 43.27 39.38 42.7C40.53 41.55 41.45 39.94 41.91 38.33C42.37 37.98 42.83 37.64 43.29 37.18C46.28 34.42 47.43 30.28 46.51 26.37C46.4 25.91 46.05 25.56 45.59 25.45ZM54.74 22.26C57.3 25.73 58.9 29.93 59.16 34.49L52.66 34.49C52.51 30.01 51.57 25.82 50.03 22.26L54.74 22.26ZM21.8 22.26C20.27 25.82 19.33 30.01 19.17 34.49L12.73 34.49C12.99 29.93 14.59 25.73 17.15 22.26L21.8 22.26ZM38.24 30.41C39.09 29.57 40.6 29.57 41.44 30.41C42.38 31.36 42.38 32.77 41.44 33.71C41.07 34.18 40.41 34.37 39.84 34.37C39.28 34.37 38.71 34.18 38.24 33.71C37.3 32.77 37.3 31.36 38.24 30.41ZM44.73 14.49C47.94 15.79 50.79 17.77 53.09 20.26L49.08 20.26C47.92 18.07 46.51 16.18 44.93 14.68L44.73 14.49ZM27.06 14.53C25.41 16.06 23.96 18 22.76 20.26L18.8 20.26C21.04 17.84 23.8 15.9 26.89 14.6L27.06 14.53ZM35.93 12.79C40.18 12.8 44.07 15.67 46.78 20.26L25.05 20.26C27.77 15.66 31.67 12.79 35.93 12.79Z" fill="#FFFFFF" fill-opacity="1.000000" fill-rule="nonzero"/>
	</g>
</svg>
