<svg width="72.000000" height="72.000000" viewBox="0 0 72 72" fill="none" xmlns="http://www.w3.org/2000/svg" xmlns:xlink="http://www.w3.org/1999/xlink">
	<desc>
			Created with Pixso.
	</desc>
	<defs>
		<clipPath id="clip117_68">
			<rect id="13#企业连接-EC" width="72.000000" height="72.000000" fill="white" fill-opacity="0"/>
		</clipPath>
	</defs>
	<g clip-path="url(#clip117_68)">
		<path id="矩形备份-19" d="M16 0L56 0C64.8 0 72 7.19 72 16L72 56C72 64.8 64.8 72 56 72L16 72C7.19 72 0 64.8 0 56L0 16C0 7.19 7.19 0 16 0Z" fill="#9F53E6" fill-opacity="1.000000" fill-rule="evenodd"/>
		<path id="形状结合" d="M36 12C49.2 12 60 22.8 60 36C60 39.7 59.1 43.3 57.6 46.5L20 46.5C19.2 46.5 18.7 47.3 19.1 48C20.6 50.6 22.8 52.8 25.3 54.5C25.8 54.8 26.39 54.7 26.7 54.2C27 53.7 26.89 53.1 26.39 52.8L26 52.5C24.39 51.39 23 50.1 21.89 48.5L21.8 48.39L56.39 48.39C52.3 55.39 44.6 60 36 60C22.8 60 12 49.2 12 36C12 32.7 12.7 29.5 13.89 26.6L52.2 26.6C53 26.6 53.5 25.8 53.1 25.1C51.5 22.39 49.3 20.1 46.6 18.39C46.1 18.1 45.5 18.2 45.2 18.7C44.89 19.2 45 19.79 45.5 20.1L45.89 20.39C47.5 21.5 49 23 50.2 24.6L50.3 24.8L14.8 24.8C19 17.1 26.89 12 36 12ZM42.6 29C40.39 29 38.6 29.7 37.2 31.2C35.8 32.7 35.1 34.5 35.1 36.8C35.1 39 35.7 40.7 37 42C38.2 43.3 39.89 44 42 44C43.6 44 45 43.7 46 43.2L46 40.39C45 41 43.8 41.3 42.6 41.3C41.3 41.3 40.2 40.89 39.39 40C38.6 39.1 38.2 38 38.2 36.6C38.2 35.1 38.6 34 39.39 33.1C40.2 32.2 41.3 31.7 42.7 31.7C43.89 31.7 45 32 45.89 32.6L45.89 29.6C45.1 29.2 43.89 29 42.6 29ZM33.89 29L26 29L26 43.1L34.2 43.1L34.2 40.6L29 40.6L29 37.2L33.6 37.2L33.6 34.8L29 34.8L29 31.5L33.89 31.5L33.89 29Z" fill="#FFFFFF" fill-opacity="1.000000" fill-rule="evenodd"/>
	</g>
</svg>
