<svg width="72.000000" height="72.000000" viewBox="0 0 72 72" fill="none" xmlns="http://www.w3.org/2000/svg" xmlns:xlink="http://www.w3.org/1999/xlink">
	<desc>
			Created with Pixso.
	</desc>
	<defs>
		<clipPath id="clip117_78">
			<rect id="2#虚拟专用网络-VPN" width="72.000000" height="72.000000" fill="white" fill-opacity="0"/>
		</clipPath>
	</defs>
	<g clip-path="url(#clip117_78)">
		<path id="矩形备份-19" d="M16 0L56 0C64.8 0 72 7.19 72 16L72 56C72 64.8 64.8 72 56 72L16 72C7.19 72 0 64.8 0 56L0 16C0 7.19 7.19 0 16 0Z" fill="#9F53E6" fill-opacity="1.000000" fill-rule="evenodd"/>
		<path id="形状结合" d="M36 12C49.2 12 60 22.8 60 36C60 39.34 59.31 42.52 58.06 45.41L19.24 45.41C18.54 45.41 18.11 46.17 18.46 46.78C20.08 49.47 22.28 51.77 24.89 53.5C25.32 53.77 25.87 53.65 26.14 53.24C26.41 52.82 26.31 52.27 25.88 51.99L25.47 51.71C23.81 50.55 22.35 49.13 21.13 47.53L20.9 47.22L57.2 47.22C53.15 54.8 45.15 60 36 60C22.8 60 12 49.2 12 36C12 32.62 12.7 29.4 13.97 26.49L52.22 26.49C52.91 26.49 53.35 25.73 52.99 25.12C51.37 22.43 49.17 20.13 46.56 18.4C46.13 18.13 45.59 18.25 45.31 18.66C45.04 19.09 45.14 19.63 45.57 19.91L46 20.2C47.65 21.36 49.12 22.77 50.33 24.37L50.56 24.68L14.85 24.68C18.9 17.15 26.87 12 36 12ZM43.68 29.2L42.82 29.21L42.03 29.21L42.03 42.8L43.62 42.8L43.62 30.79L43.84 30.79C44.61 30.83 45.06 31.24 45.42 32.22L48.24 40.37L48.32 40.6L48.39 40.83L48.49 41.01C49.08 42.22 50.12 42.8 51.72 42.8L53.43 42.8L53.43 29.2L51.85 29.2L51.85 41.2L51.72 41.2C50.72 41.2 50.28 40.95 49.97 40.23L49.9 40.08L47.02 31.71C46.84 31.24 46.7 30.92 46.43 30.56C45.82 29.71 44.92 29.2 43.68 29.2ZM37.63 29.2L30.02 29.2L30.02 42.8L31.61 42.8L31.61 36.25L37.63 36.25C39.12 36.25 40.34 34.98 40.34 33.42L40.34 32.03C40.34 30.47 39.12 29.2 37.63 29.2ZM27.09 29.06L24.87 39.14C24.49 40.24 24.02 40.65 23.2 40.65L22.62 40.65C21.8 40.65 21.33 40.25 20.96 39.18L18.73 29.07L17.17 29.4L19.43 39.62C19.63 40.22 19.85 40.64 20.2 41.09C20.73 41.75 21.43 42.15 22.36 42.23L22.62 42.24L23.22 42.24L23.48 42.23C25.12 42.1 25.9 41.12 26.41 39.59L28.66 29.4L27.09 29.06ZM31.61 30.79L37.63 30.79C38.25 30.79 38.75 31.34 38.75 32.02L38.75 33.41C38.75 34.1 38.25 34.64 37.63 34.64L31.61 34.64L31.61 30.79Z" fill="#FFFFFF" fill-opacity="1.000000" fill-rule="evenodd"/>
	</g>
</svg>
