<svg width="72.000000" height="72.000000" viewBox="0 0 72 72" fill="none" xmlns="http://www.w3.org/2000/svg" xmlns:xlink="http://www.w3.org/1999/xlink">
	<desc>
			Created with Pixso.
	</desc>
	<defs>
		<clipPath id="clip117_66">
			<rect id="3#云连接-CC" width="72.000000" height="72.000000" fill="white" fill-opacity="0"/>
		</clipPath>
	</defs>
	<g clip-path="url(#clip117_66)">
		<path id="矩形备份-19" d="M16 0L56 0C64.8 0 72 7.19 72 16L72 56C72 64.8 64.8 72 56 72L16 72C7.19 72 0 64.8 0 56L0 16C0 7.19 7.19 0 16 0Z" fill="#00C4BE" fill-opacity="1.000000" fill-rule="evenodd"/>
		<path id="形状结合" d="M35 50.89L35 58.77C34.9 58.77 34.8 58.76 34.71 58.76C30.81 58.22 27.31 55.29 24.85 50.89L35 50.89ZM37 50.89L47.14 50.89C44.62 55.4 41.01 58.37 37 58.79L37.29 58.76C37.19 58.76 37.09 58.79 37 58.79L37 50.89ZM18.44 50.89L22.59 50.89C23.81 53.32 25.33 55.41 27.07 57.04C23.73 55.67 20.78 53.55 18.44 50.89ZM53.55 50.89C51.21 53.55 48.27 55.67 44.93 57.04C46.66 55.41 48.18 53.32 49.4 50.89L53.55 50.89ZM54.77 22.31C57.58 26.1 59.25 30.78 59.25 35.85C59.25 40.69 57.72 45.19 55.12 48.89L50.31 48.89C51.87 45.09 52.76 40.62 52.76 35.85C52.76 30.87 51.79 26.22 50.11 22.31L54.77 22.31ZM17.22 22.31L21.88 22.31C20.2 26.22 19.23 30.87 19.23 35.85C19.23 40.62 20.12 45.09 21.68 48.89L16.87 48.89C14.27 45.19 12.75 40.69 12.75 35.85C12.75 30.78 14.41 26.1 17.22 22.31ZM47.92 22.31C49.7 26.1 50.76 30.77 50.76 35.85C50.76 40.7 49.79 45.19 48.14 48.89L23.85 48.89C22.2 45.19 21.23 40.7 21.23 35.85C21.23 30.77 22.29 26.1 24.07 22.31L47.92 22.31ZM36 28.24C33.88 28.24 32.01 29.52 31.07 31.37C28.6 31.83 26.73 33.92 26.73 36.47C26.73 39.25 29.19 41.57 32.12 41.57L39.98 41.57C42.92 41.57 45.26 39.25 45.26 36.47C45.26 33.92 43.39 31.83 40.92 31.37C40.1 29.52 38.22 28.24 36 28.24ZM44.92 14.65C48.06 15.94 50.84 17.88 53.11 20.31L49.15 20.31C47.99 18.12 46.51 16.16 44.92 14.65ZM27.07 14.65C25.45 16.17 24.02 18.09 22.84 20.31L18.88 20.31C21.12 17.91 23.86 15.99 26.94 14.7L27.07 14.65ZM35 12.92L35 20.31L25.13 20.31C27.63 16.08 31.13 13.33 35 12.92L34.71 12.93C34.81 12.93 34.9 12.92 35 12.92ZM37 12.92C37.09 12.92 37.18 12.93 37.28 12.93C41.03 13.45 44.42 16.18 46.86 20.31L37 20.31L37 12.92Z" fill="#FFFFFF" fill-opacity="1.000000" fill-rule="evenodd"/>
	</g>
</svg>
