<svg width="72.000000" height="72.000000" viewBox="0 0 72 72" fill="none" xmlns="http://www.w3.org/2000/svg" xmlns:xlink="http://www.w3.org/1999/xlink">
	<desc>
			Created with Pixso.
	</desc>
	<defs>
		<clipPath id="clip117_69">
			<rect id="4#弹性公网IP-EIP" width="72.000000" height="72.000000" fill="white" fill-opacity="0"/>
		</clipPath>
	</defs>
	<g clip-path="url(#clip117_69)">
		<path id="矩形备份-19" d="M16 0L56 0C64.8 0 72 7.19 72 16L72 56C72 64.8 64.8 72 56 72L16 72C7.19 72 0 64.8 0 56L0 16C0 7.19 7.19 0 16 0Z" fill="#7DCC29" fill-opacity="1.000000" fill-rule="evenodd"/>
		<path id="形状结合" d="M36 12C49.2 12 60 22.8 60 36C60 49.2 49.2 60 36 60C22.8 60 12 49.2 12 36C12 22.8 22.8 12 36 12ZM49.3 44.7C48.7 44.1 47.8 44.1 47.2 44.7C44.3 47.7 40.3 49.39 36 49.39C31.8 49.39 27.8 47.7 24.89 44.8C24.3 44.2 23.39 44.2 22.8 44.8C22.2 45.39 22.2 46.3 22.8 46.89C26.3 50.39 31 52.39 36 52.39C41.1 52.39 45.89 50.3 49.3 46.7C49.89 46.3 49.89 45.3 49.3 44.7ZM28.89 23.2C28 23.2 27.39 23.89 27.39 24.7L27.39 41.1C27.39 42 28.1 42.6 28.89 42.6C29.8 42.6 30.39 41.89 30.39 41.1L30.39 24.7C30.5 23.89 29.8 23.2 28.89 23.2ZM43.1 23.2L35.39 23.2C34.6 23.2 33.89 23.89 33.89 24.7L33.89 41.1C33.89 42 34.6 42.6 35.39 42.6C36.2 42.5 36.89 41.89 36.89 41.1L36.89 35L43 35C46.3 35 48.89 32.39 48.89 29.1C48.89 25.8 46.39 23.2 43.1 23.2ZM37 26.3L43.1 26.3C44.7 26.3 45.89 27.6 45.89 29.1C45.89 30.7 44.6 31.89 43.1 31.89L37 31.89L37 26.3Z" fill="#FFFFFF" fill-opacity="1.000000" fill-rule="evenodd"/>
	</g>
</svg>
