<svg width="72.000000" height="72.000000" viewBox="0 0 72 72" fill="none" xmlns="http://www.w3.org/2000/svg" xmlns:xlink="http://www.w3.org/1999/xlink">
	<desc>
			Created with Pixso.
	</desc>
	<defs>
		<clipPath id="clip117_72">
			<rect id="5#企业交换机-ESW" width="72.000000" height="72.000000" fill="white" fill-opacity="0"/>
		</clipPath>
	</defs>
	<g clip-path="url(#clip117_72)">
		<path id="矩形备份-19" d="M16 0L56 0C64.8 0 72 7.19 72 16L72 56C72 64.8 64.8 72 56 72L16 72C7.19 72 0 64.8 0 56L0 16C0 7.19 7.19 0 16 0Z" fill="#1476FF" fill-opacity="1.000000" fill-rule="evenodd"/>
		<path id="形状结合" d="M36.5 18C42.2 18 47 21.89 48.6 27.3C55 28 60 33.7 60 40.6C60 47.89 54.5 53.8 47.6 54L47.3 54L24 54C17.29 53.6 12 47.8 12 40.7C12 33.39 17.5 27.5 24.39 27.3C26 21.89 30.8 18 36.5 18ZM43.39 43.89C42.7 43.39 42.1 43.7 42.1 44.6L42.1 46.2L35.6 46.2C35.39 46.2 35.2 46.3 35 46.39C34.8 46.6 34.8 46.8 34.8 47L34.8 48.6C34.8 49.1 35.2 49.39 35.6 49.39L42.1 49.39L42.1 51C42.1 51.89 42.7 52.2 43.39 51.7L47.39 48.8C48.1 48.3 48.1 47.39 47.39 46.8L43.39 43.89ZM29.89 39.7C29.89 38.8 29.3 38.5 28.6 39L24.6 41.89C23.89 42.39 23.89 43.3 24.6 43.89L28.6 46.8C29.3 47.3 29.89 47 29.89 46.1L29.89 44.5L36.39 44.5C36.89 44.5 37.2 44.1 37.2 43.7L37.2 42.1C37.2 41.89 37.1 41.7 37 41.5C36.8 41.3 36.6 41.3 36.39 41.3L29.89 41.3L29.89 39.7ZM43.39 34.1C42.7 33.6 42.1 33.89 42.1 34.8L42.1 36.39L35.6 36.39C35.39 36.39 35.2 36.5 35 36.6C34.8 36.8 34.8 37 34.8 37.2L34.8 38.8C34.8 39.3 35.2 39.6 35.6 39.6L42.1 39.6L42.1 41.2C42.1 42.1 42.7 42.39 43.39 41.89L47.39 39C48.1 38.5 48.1 37.6 47.39 37L43.39 34.1ZM29.89 29.89C29.89 29 29.3 28.7 28.6 29.2L24.6 32.1C23.89 32.6 23.89 33.5 24.6 34.1L28.6 37C29.3 37.5 29.89 37.2 29.89 36.3L29.89 34.7L36.39 34.7C36.89 34.7 37.2 34.3 37.2 33.89L37.2 32.3C37.2 32.1 37.1 31.89 37 31.7C36.8 31.5 36.6 31.5 36.39 31.5L29.89 31.5L29.89 29.89Z" fill="#FFFFFF" fill-opacity="1.000000" fill-rule="evenodd"/>
	</g>
</svg>
