<svg width="72.000000" height="72.000000" viewBox="0 0 72 72" fill="none" xmlns="http://www.w3.org/2000/svg" xmlns:xlink="http://www.w3.org/1999/xlink">
	<desc>
			Created with Pixso.
	</desc>
	<defs>
		<clipPath id="clip117_71">
			<rect id="6#企业路由器-ER" width="72.000000" height="72.000000" fill="white" fill-opacity="0"/>
		</clipPath>
	</defs>
	<g clip-path="url(#clip117_71)">
		<path id="矩形备份-19" d="M16 0L56 0C64.8 0 72 7.19 72 16L72 56C72 64.8 64.8 72 56 72L16 72C7.19 72 0 64.8 0 56L0 16C0 7.19 7.19 0 16 0Z" fill="#FF9A2E" fill-opacity="1.000000" fill-rule="evenodd"/>
		<path id="形状结合" d="M35.89 18.89C41.5 18.89 46.2 22.5 48 27.5C49.7 27.59 51.3 28 52.7 28.7C52.7 28.79 52.7 29 52.7 29.09L52.7 34.2L52.5 34.2C51.39 34.5 50.39 35.2 50.39 36.39L50.39 38L32.8 38C30.7 38 29 39.79 29 41.89L29 50.2C29 51.29 29.5 52.39 30.39 53.09L24.8 53.09C17.7 53.09 12 47.39 12 40.29C12 33.59 17.2 28 23.8 27.59C25.6 22.5 30.3 18.89 35.89 18.89ZM54.3 31.59C54.7 31.59 54.89 31.89 54.89 32.2L54.89 35.39C55.89 35.39 56.8 36.2 56.8 37.2L56.8 40L58.8 40C60.5 40 61.89 41.39 61.89 43.09L61.89 49C61.89 50.7 60.5 52.09 58.8 52.09L34 52.09C32.3 52.09 30.89 50.7 30.89 49L30.89 43C30.89 41.29 32.3 39.89 34 39.89L51.7 39.89L51.7 37.09C51.7 36.09 52.5 35.29 53.5 35.29L53.6 32.09C53.7 31.79 53.89 31.59 54.3 31.59ZM36.5 43.09C35.89 43.09 35.5 43.5 35.5 44.09L35.5 48.09C35.5 48.7 35.89 49.09 36.5 49.09C37.1 49.09 37.5 48.7 37.5 48.09L37.5 44.09C37.5 43.5 37 43.09 36.5 43.09ZM40.2 43.09C39.6 43.09 39.2 43.5 39.2 44.09L39.2 48.09C39.2 48.7 39.6 49.09 40.2 49.09C40.8 49.09 41.2 48.7 41.2 48.09L41.2 44.09C41.2 43.5 40.7 43.09 40.2 43.09ZM44.1 43.09C43.5 43.09 43.1 43.5 43.1 44.09L43.1 48.09C43.1 48.7 43.5 49.09 44.1 49.09C44.7 49.09 45.1 48.7 45.1 48.09L45.1 44.09C45.1 43.5 44.7 43.09 44.1 43.09ZM54.3 44.09C53.3 44.09 52.6 44.79 52.6 45.79C52.6 46.79 53.3 47.5 54.3 47.5C55.3 47.5 56 46.79 56 45.79C56 44.7 55.39 44.09 54.3 44.09ZM55.1 36.7L53.39 36.7C53.1 36.7 52.89 37 52.89 37.2L52.89 40L55.6 40L55.6 37.2C55.6 36.89 55.3 36.7 55.1 36.7ZM56.3 26.2C56.7 26.59 56.7 27.09 56.3 27.5C55.89 27.89 55.39 27.89 55 27.5C54.6 27.09 53.89 27.09 53.5 27.5C53.1 27.89 52.6 27.89 52.2 27.5C51.89 27.2 51.8 26.7 52.1 26.29L52.2 26.2L52.3 26.09C53.2 24.89 55.1 25 56.3 26.2ZM60 23.39C60.39 23.79 60.39 24.39 60 24.79C59.6 25.2 59 25.2 58.6 24.79C56.1 22.29 52.2 22.29 49.7 24.79C49.2 25.2 48.6 25.2 48.2 24.79C47.8 24.39 47.8 23.79 48.2 23.39C51.6 20.2 56.7 20.2 60 23.39Z" fill="#FFFFFF" fill-opacity="1.000000" fill-rule="evenodd"/>
	</g>
</svg>
