<svg width="72.000000" height="72.000000" viewBox="0 0 72 72" fill="none" xmlns="http://www.w3.org/2000/svg" xmlns:xlink="http://www.w3.org/1999/xlink">
	<desc>
			Created with Pixso.
	</desc>
	<defs>
		<clipPath id="clip117_75">
			<rect id="7#云原生应用网络-ANC" width="72.000000" height="72.000000" fill="white" fill-opacity="0"/>
		</clipPath>
	</defs>
	<g clip-path="url(#clip117_75)">
		<path id="矩形备份-19" d="M16 0L56 0C64.8 0 72 7.19 72 16L72 56C72 64.8 64.8 72 56 72L16 72C7.19 72 0 64.8 0 56L0 16C0 7.19 7.19 0 16 0Z" fill="#25C251" fill-opacity="1.000000" fill-rule="evenodd"/>
		<path id="形状结合备份" d="M36 13.97C44.17 13.97 50.99 23.28 51.34 35.08L48 35.09C47.47 35.09 47.04 35.51 47.04 36.05C47.04 36.58 47.47 37 48 37L51.34 37C50.99 48.81 44.17 58.12 36 58.12C27.82 58.12 21 48.81 20.65 37L24 37C24.53 37 24.96 36.58 24.96 36.05C24.96 35.51 24.53 35.09 24 35.09L20.65 35.08C21 23.28 27.82 13.97 36 13.97ZM12.97 37L18.73 37C18.99 46.36 23.1 54.38 28.98 58C19.98 55.12 13.38 46.86 12.97 37ZM59.02 37C58.61 46.86 52.01 55.12 43.01 58C48.89 54.38 53 46.36 53.26 37L59.02 37ZM27.27 32.48L27.27 39.98C27.27 40.66 27.63 41.3 28.23 41.64L35.04 45.57C35.11 45.62 35.19 45.65 35.27 45.69L35.28 36.36L27.27 32.48ZM44.72 32.48L36.72 36.36L36.72 45.69C36.8 45.65 36.88 45.62 36.96 45.57L43.76 41.64C44.36 41.3 44.72 40.66 44.72 39.98L44.72 32.48ZM36.96 26.52C36.36 26.18 35.63 26.18 35.04 26.52L28.23 30.45C27.97 30.6 27.76 30.8 27.59 31.04L35.99 35.11L44.4 31.04C44.24 30.8 44.02 30.6 43.76 30.45L36.96 26.52ZM28.98 14.09C23.1 17.71 18.99 25.73 18.73 35.08L12.97 35.08C13.38 25.32 19.85 17.13 28.71 14.18L28.98 14.09ZM43.01 14.09C52.02 16.97 58.61 25.23 59.02 35.08L53.26 35.08C53 25.78 48.84 17.74 43.01 14.09Z" fill="#FFFFFF" fill-opacity="1.000000" fill-rule="evenodd"/>
	</g>
</svg>
