<svg width="72.000000" height="72.000000" viewBox="0 0 72 72" fill="none" xmlns="http://www.w3.org/2000/svg" xmlns:xlink="http://www.w3.org/1999/xlink">
	<desc>
			Created with Pixso.
	</desc>
	<defs>
		<clipPath id="clip117_70">
			<rect id="8#弹性负载均衡-ELB" width="72.000000" height="72.000000" fill="white" fill-opacity="0"/>
		</clipPath>
	</defs>
	<g clip-path="url(#clip117_70)">
		<path id="矩形备份-19" d="M16 0L56 0C64.8 0 72 7.19 72 16L72 56C72 64.8 64.8 72 56 72L16 72C7.19 72 0 64.8 0 56L0 16C0 7.19 7.19 0 16 0Z" fill="#1476FF" fill-opacity="1.000000" fill-rule="evenodd"/>
		<path id="形状结合" d="M36 10.63C38.77 10.63 41.01 12.87 41.01 15.63C41.01 16.65 40.71 17.59 40.17 18.38L56.36 42.01L56.54 42.01L56.76 42C59.1 42 61 43.85 61 46.15C61 48.46 59.09 50.31 56.76 50.31C56.34 50.31 55.93 50.26 55.55 50.13L40.8 57.11C40.38 59.28 38.5 60.96 36.23 61.05L36 61.05C33.62 61.05 31.63 59.39 31.21 57.16L16.51 50.12C16.18 50.23 15.84 50.29 15.5 50.31L15.24 50.32C12.89 50.32 11 48.47 11 46.16C11 43.86 12.9 42.01 15.24 42.01C15.32 42.01 15.39 42.01 15.48 42.01L15.71 42.03L31.87 18.46C31.32 17.65 31 16.68 31 15.63C31 12.87 33.24 10.63 36 10.63ZM36 53.74C34.57 53.74 33.4 54.86 33.4 56.26C33.4 57.65 34.57 58.79 36 58.79C37.42 58.79 38.59 57.66 38.59 56.26C38.59 54.87 37.42 53.74 36 53.74ZM33.7 21.61L18.6 43.63L18.73 43.8C19.16 44.42 19.43 45.15 19.48 45.92L19.49 46.15C19.49 46.24 19.49 46.31 19.48 46.39L32.64 52.78L32.8 52.65C33.06 52.43 33.35 52.24 33.64 52.07L33.7 21.61ZM38.3 21.46L38.3 52.05L38.4 52.11C38.74 52.29 39.05 52.52 39.33 52.77L52.55 46.54L52.54 46.42L52.53 46.17C52.53 45.29 52.82 44.47 53.32 43.77L53.46 43.59L38.3 21.46ZM56.76 44.26C55.68 44.26 54.81 45.11 54.81 46.15C54.81 47.21 55.67 48.04 56.76 48.04C57.83 48.04 58.71 47.2 58.71 46.15C58.7 45.11 57.83 44.26 56.76 44.26ZM15.24 44.26C14.16 44.26 13.29 45.11 13.29 46.15C13.29 47.21 14.15 48.04 15.24 48.04C16.31 48.04 17.18 47.2 17.18 46.15C17.18 45.11 16.32 44.26 15.24 44.26Z" fill="#FFFFFF" fill-opacity="1.000000" fill-rule="nonzero"/>
	</g>
</svg>
