<svg width="72.000000" height="72.000000" viewBox="0 0 72 72" fill="none" xmlns="http://www.w3.org/2000/svg" xmlns:xlink="http://www.w3.org/1999/xlink">
	<desc>
			Created with Pixso.
	</desc>
	<defs>
		<clipPath id="clip117_74">
			<rect id="9#NAT网关-NAT" width="72.000000" height="72.000000" fill="white" fill-opacity="0"/>
		</clipPath>
	</defs>
	<g clip-path="url(#clip117_74)">
		<path id="矩形备份-19" d="M16 0L56 0C64.8 0 72 7.19 72 16L72 56C72 64.8 64.8 72 56 72L16 72C7.19 72 0 64.8 0 56L0 16C0 7.19 7.19 0 16 0Z" fill="#25C251" fill-opacity="1.000000" fill-rule="evenodd"/>
		<path id="形状结合" d="M55.39 12C57.89 12 60 14 60 16.6L60 55.5C60 58 58 60.1 55.39 60.1L16.6 60.1C14 60 12 58 12 55.39L12 16.6C12 14.1 14 12 16.6 12L55.39 12ZM41.6 39.3C40.7 39.3 40 40 40 40.89L40 52.1C40 52.8 40.39 53.39 41.1 53.6C41.3 53.7 41.5 53.7 41.7 53.7C42.2 53.7 42.6 53.5 42.89 53.1L46 49.39C46.6 48.7 46.5 47.7 45.8 47.1C45.2 46.6 44.2 46.6 43.6 47.2L43.3 47.6L43.3 40.89C43.3 40.1 42.5 39.3 41.6 39.3ZM30.39 39.3C29.5 39.3 28.8 40 28.8 40.89L28.8 52.1C28.8 53 29.5 53.7 30.39 53.7C31.3 53.7 32 53 32 52.1L32 41C32 40.1 31.3 39.3 30.39 39.3ZM30.89 18.39C30.3 18.2 29.5 18.39 29.1 18.89L26 22.6C25.39 23.3 25.5 24.3 26.2 24.89L26.3 25C27 25.5 27.89 25.3 28.5 24.7L28.7 24.39L28.7 27.6L26 27.6C20.7 27.6 16.29 31.6 16.29 36.7C16.29 41.8 20.7 45.8 26 45.8C26.89 45.8 27.6 45.1 27.6 44.2C27.6 43.3 26.89 42.6 26 42.6C22.39 42.6 19.6 40 19.6 36.8C19.6 33.6 22.5 31 26 31L45.8 31C49.39 31 52.2 33.6 52.2 36.8C52.2 40 49.3 42.6 45.8 42.6C44.89 42.6 44.2 43.3 44.2 44.2C44.2 45.1 44.89 45.8 45.8 45.8C51.1 45.8 55.5 41.8 55.5 36.7L55.5 36.39C55.39 31.5 51.1 27.6 45.8 27.6L43.1 27.6L43.1 19.89C43.1 19 42.39 18.29 41.5 18.29C40.8 18.29 40 19 40 19.89L40 27.6L32 27.6L32 19.89C32 19.2 31.6 18.6 30.89 18.39Z" fill="#FFFFFF" fill-opacity="1.000000" fill-rule="evenodd"/>
	</g>
</svg>
