<svg width="72.000000" height="72.000000" viewBox="0 0 72 72" fill="none" xmlns="http://www.w3.org/2000/svg" xmlns:xlink="http://www.w3.org/1999/xlink">
	<desc>
			Created with Pixso.
	</desc>
	<defs>
		<clipPath id="clip117_1287">
			<rect id="1#支持计划-SupportPlan" width="72.000000" height="72.000000" fill="white" fill-opacity="0"/>
		</clipPath>
	</defs>
	<g clip-path="url(#clip117_1287)">
		<path id="矩形备份-19" d="M16 0L56 0C64.8 0 72 7.2 72 16L72 56C72 64.8 64.8 72 56 72L16 72C7.2 72 0 64.8 0 56L0 16C0 7.2 7.2 0 16 0Z" fill="#F85835" fill-opacity="1.000000" fill-rule="evenodd"/>
		<path id="合并" d="M37.64 21.07C35.2 22.48 32.08 21.64 30.67 19.2C30.58 19.04 30.49 18.88 30.42 18.71C30.11 18.79 29.81 18.87 29.51 18.96C28.33 19.31 27.18 19.77 26.07 20.34C25 20.89 24 21.53 23.07 22.25C22.51 22.69 21.97 23.16 21.46 23.66C20.84 24.25 20.28 24.88 19.75 25.55C19.15 26.32 18.6 27.13 18.11 28C17.67 28.78 17.29 29.58 16.96 30.41C16.63 31.26 16.35 32.14 16.14 33.04C15.9 34.04 15.74 35.04 15.66 36.06C15.6 36.85 15.59 37.64 15.63 38.44C15.68 39.28 15.05 39.97 14.21 40.01C13.37 40.06 12.68 39.43 12.64 38.59C12.59 37.65 12.6 36.71 12.68 35.78C12.77 34.63 12.95 33.48 13.22 32.34C13.46 31.3 13.78 30.29 14.17 29.31C14.55 28.36 14.99 27.43 15.5 26.52C16.06 25.53 16.68 24.6 17.38 23.72C17.99 22.94 18.65 22.2 19.37 21.51C19.99 20.9 20.64 20.34 21.32 19.82C22.37 19.01 23.49 18.3 24.69 17.68C25.94 17.03 27.24 16.51 28.56 16.11C29.06 15.96 29.56 15.83 30.07 15.72C30.34 14.3 31.19 13.01 32.54 12.24C34.97 10.83 38.09 11.66 39.5 14.1C40.91 16.54 40.07 19.66 37.64 21.07ZM44.8 17.76C44.41 18.51 44.7 19.4 45.45 19.78C46.16 20.15 46.84 20.55 47.5 21C48.34 21.57 49.13 22.21 49.88 22.92C50.55 23.56 51.17 24.23 51.74 24.95C52.29 25.65 52.8 26.38 53.25 27.15C53.76 28 54.19 28.89 54.55 29.79C54.87 30.58 55.13 31.39 55.34 32.22C55.51 32.91 55.65 33.61 55.75 34.32C55.91 35.49 55.96 36.67 55.9 37.87C55.85 39.12 55.67 40.34 55.38 41.54C55.3 41.87 55.21 42.21 55.11 42.54C54.84 42.5 54.56 42.47 54.28 42.47C51.46 42.47 49.18 44.76 49.18 47.57C49.18 50.39 51.46 52.67 54.28 52.67C57.1 52.67 59.38 50.39 59.38 47.57C59.38 46.14 58.78 44.84 57.83 43.91C58.02 43.33 58.18 42.74 58.32 42.15C58.64 40.8 58.83 39.42 58.9 38.01C58.96 36.66 58.91 35.33 58.73 34.02C58.62 33.17 58.46 32.32 58.25 31.48C58 30.51 57.7 29.57 57.33 28.65C56.91 27.61 56.41 26.6 55.84 25.63C55.31 24.73 54.73 23.88 54.09 23.08C53.43 22.25 52.71 21.47 51.94 20.74C51.09 19.94 50.18 19.21 49.23 18.55C48.46 18.02 47.66 17.54 46.82 17.11C46.07 16.73 45.18 17.01 44.8 17.76ZM41.4 48.07C40.42 48.07 39.33 47.89 38.19 47.53C35.44 46.68 32.73 44.89 30.56 42.49C27.31 38.9 25.76 35.32 26.06 32.14C26.15 31.35 26.4 30.35 27.58 29.55C28.49 28.81 29.53 28.39 30.35 28.4C31.2 28.42 31.49 28.72 32.37 30C33.73 31.86 33.82 32.78 33.77 33.31C33.67 34.18 33.2 34.56 32.77 34.9C32.66 34.98 32.56 35.07 32.46 35.15C31.94 35.82 31.29 36.76 34.06 39.61C36.41 41.87 37.69 42.15 38.23 42.11C38.65 42.08 38.8 41.86 38.87 41.78C39.75 40.55 40.05 40.23 40.9 40.1C41.71 39.97 42.13 40.23 43.87 41.32C45.43 42.31 46.16 42.97 46 44.01C45.95 45.14 45.08 46.68 44.11 47.37C43.44 47.83 42.5 48.07 41.4 48.07ZM23.87 47.13C23.87 48.72 23.14 50.14 21.99 51.08C22.31 51.43 22.64 51.76 22.98 52.09C23.87 52.94 24.84 53.7 25.89 54.38C26.9 55.02 27.95 55.57 29.04 56.01C29.7 56.28 30.38 56.52 31.07 56.71C31.89 56.94 32.72 57.12 33.56 57.24C34.53 57.38 35.51 57.45 36.5 57.44C37.4 57.43 38.28 57.36 39.16 57.23C40.07 57.09 40.97 56.89 41.85 56.63C42.84 56.34 43.79 55.97 44.7 55.53C45.42 55.18 46.11 54.8 46.78 54.36C47.49 53.91 48.4 54.1 48.86 54.81C49.31 55.51 49.12 56.43 48.41 56.88C47.62 57.39 46.8 57.85 45.96 58.25C44.91 58.75 43.83 59.17 42.71 59.5C41.69 59.81 40.65 60.04 39.61 60.2C38.59 60.35 37.57 60.43 36.53 60.44C35.4 60.45 34.27 60.37 33.16 60.22C32.18 60.08 31.21 59.87 30.25 59.6C29.42 59.36 28.61 59.08 27.81 58.75C26.59 58.24 25.41 57.63 24.28 56.9C23.09 56.14 21.99 55.28 20.98 54.33C20.28 53.67 19.63 52.97 19.02 52.22C18.94 52.23 18.85 52.23 18.77 52.23C15.95 52.23 13.67 49.94 13.67 47.13C13.67 44.31 15.95 42.03 18.77 42.03C21.58 42.03 23.87 44.31 23.87 47.13Z" fill="#FFFFFF" fill-opacity="1.000000" fill-rule="evenodd"/>
	</g>
</svg>
