<svg width="72.000000" height="72.000000" viewBox="0 0 72 72" fill="none" xmlns="http://www.w3.org/2000/svg" xmlns:xlink="http://www.w3.org/1999/xlink">
	<desc>
			Created with Pixso.
	</desc>
	<defs>
		<clipPath id="clip117_1274">
			<rect id="2#运维服务-HCOMS" width="72.000000" height="72.000000" fill="white" fill-opacity="0"/>
		</clipPath>
	</defs>
	<g clip-path="url(#clip117_1274)">
		<path id="矩形备份-19" d="M16 0L56 0C64.8 0 72 7.2 72 16L72 56C72 64.8 64.8 72 56 72L16 72C7.2 72 0 64.8 0 56L0 16C0 7.2 7.2 0 16 0Z" fill="#1476FF" fill-opacity="1.000000" fill-rule="evenodd"/>
		<path id="减去顶层" d="M55 13.86L17 13.86C14.79 13.86 13 15.65 13 17.86L13 45.86C13 48.07 14.79 49.86 17 49.86L55 49.86C57.2 49.86 59 48.07 59 45.86L59 17.86C59 15.65 57.2 13.86 55 13.86ZM32.42 25.81C32.38 24.36 31.76 23.06 30.79 22.13L34.99 19.7C35.15 19.61 35.31 19.55 35.48 19.5C35.64 19.46 35.82 19.43 35.99 19.43C36.35 19.43 36.68 19.52 36.99 19.7L41.2 22.13C40.23 23.06 39.61 24.36 39.57 25.81L35.99 23.74L32.42 25.81ZM23.64 25.95C23.64 24.02 25.2 22.45 27.14 22.45C29.07 22.45 30.64 24.02 30.64 25.95C30.64 26.28 30.59 26.61 30.5 26.91C30.33 27.51 30.01 28.04 29.58 28.46C28.95 29.07 28.09 29.45 27.14 29.45C26.58 29.45 26.05 29.32 25.58 29.09C24.43 28.51 23.64 27.32 23.64 25.95ZM41.35 25.95C41.35 24.02 42.92 22.45 44.85 22.45C46.78 22.45 48.35 24.02 48.35 25.95C48.35 27.32 47.56 28.51 46.41 29.09C45.94 29.32 45.41 29.45 44.85 29.45C43.9 29.45 43.04 29.07 42.41 28.46C41.98 28.04 41.66 27.51 41.49 26.91C41.4 26.61 41.35 26.28 41.35 25.95ZM41.44 40.03L45.41 37.74C45.72 37.56 45.96 37.32 46.14 37.01C46.32 36.7 46.41 36.36 46.41 36.01L46.41 31C45.91 31.15 45.39 31.23 44.85 31.23C43.97 31.23 43.14 31.02 42.41 30.63L42.41 34.85L39.16 36.72C40.31 37.47 41.14 38.65 41.44 40.03ZM27.14 31.23C28.02 31.23 28.85 31.02 29.58 30.63L29.58 34.85L33.14 36.9C32.05 37.71 31.28 38.93 31.06 40.32L26.58 37.74C26.27 37.56 26.03 37.32 25.85 37.01C25.76 36.85 25.69 36.69 25.65 36.52C25.6 36.36 25.58 36.18 25.58 36.01L25.58 31C26.07 31.15 26.6 31.23 27.14 31.23ZM36.28 37.65C35.34 37.65 34.49 38.02 33.86 38.62C33.24 39.25 32.78 40.2 32.78 41.15C32.78 41.21 32.78 41.26 32.78 41.32C32.87 43.17 34.4 44.65 36.28 44.65C38.21 44.65 39.78 43.08 39.78 41.15C39.78 39.22 38.21 37.65 36.28 37.65ZM54.5 56.63C54.5 55.8 53.82 55.13 53 55.13L19 55.13C18.21 55.17 17.5 55.83 17.5 56.63C17.5 57.45 18.17 58.13 19 58.13L53 58.13C53.78 58.08 54.5 57.42 54.5 56.63Z" fill="#FFFFFF" fill-opacity="1.000000" fill-rule="evenodd"/>
	</g>
</svg>
