<svg width="72.000000" height="72.000000" viewBox="0 0 72 72" fill="none" xmlns="http://www.w3.org/2000/svg" xmlns:xlink="http://www.w3.org/1999/xlink">
	<desc>
			Created with Pixso.
	</desc>
	<defs>
		<clipPath id="clip117_195">
			<rect id="1#华为云实时音视频-SparkRTC" width="72.000000" height="72.000000" fill="white" fill-opacity="0"/>
		</clipPath>
	</defs>
	<g clip-path="url(#clip117_195)">
		<path id="矩形备份-19" d="M16 0L56 0C64.8 0 72 7.2 72 16L72 56C72 64.79 64.8 72 56 72L16 72C7.19 72 0 64.79 0 56L0 16C0 7.2 7.19 0 16 0Z" fill="#9F53E6" fill-opacity="1.000000" fill-rule="evenodd"/>
		<path id="形状结合" d="M44.87 20.3C47.63 20.3 49.87 22.54 49.87 25.3L49.87 28.13L57.04 24.22C58.01 23.69 59.22 24.05 59.75 25.02C59.91 25.31 59.99 25.64 59.99 25.98L59.99 45.64C59.99 46.74 59.09 47.64 57.99 47.64C57.58 47.64 57.18 47.51 56.84 47.27L49.87 42.35L49.87 46.79C49.87 49.55 47.63 51.79 44.87 51.79L17 51.79C14.24 51.79 12 49.55 12 46.79L12 25.3C12 22.54 14.24 20.3 17 20.3L44.87 20.3ZM21.31 34.06C18.8 34.16 16.91 36.15 16.91 38.67L16.91 41.29C16.91 42.23 17.23 43.17 17.64 43.91C16.38 44.33 14.39 45.06 14.39 47.15L14.39 48.41C14.39 49.25 15.02 49.77 15.75 49.77L26.74 49.77C27.47 49.77 28.1 49.14 28.1 48.41L28.1 47.15C28 45.06 26.11 44.32 24.85 43.91C25.37 43.18 25.58 42.23 25.58 41.29L25.58 38.67C25.71 36.15 23.72 34.16 21.31 34.06ZM31.55 31.49C29.04 31.59 27.15 33.58 27.15 36.1L27.15 38.72C27.15 39.66 27.47 40.6 27.88 41.34C27.49 41.47 27.03 41.63 26.58 41.85C26.54 42.35 26.45 42.83 26.29 43.28L26.35 43.41C27.99 44.15 28.94 45.15 29.1 46.92L29.12 47.15L37 47.2C37.73 47.2 38.36 46.57 38.36 45.84L38.36 44.58C38.26 42.49 36.37 41.75 35.11 41.34C35.63 40.61 35.84 39.66 35.84 38.72L35.84 36.1C35.95 33.59 33.96 31.6 31.55 31.49ZM43.8 24.44L33.57 24.44C32.74 24.44 32.07 25.11 32.07 25.94C32.07 26.77 32.74 27.44 33.57 27.44L43.8 27.44C44.63 27.44 45.3 26.77 45.3 25.94C45.3 25.11 44.62 24.44 43.8 24.44Z" fill="#FFFFFF" fill-opacity="1.000000" fill-rule="evenodd"/>
	</g>
</svg>
