<svg width="72.000000" height="72.000000" viewBox="0 0 72 72" fill="none" xmlns="http://www.w3.org/2000/svg" xmlns:xlink="http://www.w3.org/1999/xlink">
	<desc>
			Created with Pixso.
	</desc>
	<defs>
		<clipPath id="clip117_197">
			<rect id="2#视频点播-VOD" width="72.000000" height="72.000000" fill="white" fill-opacity="0"/>
		</clipPath>
	</defs>
	<g clip-path="url(#clip117_197)">
		<path id="矩形备份-19" d="M16 0L56 0C64.8 0 72 7.2 72 16L72 56C72 64.79 64.8 72 56 72L16 72C7.19 72 0 64.79 0 56L0 16C0 7.2 7.19 0 16 0Z" fill="#F85835" fill-opacity="1.000000" fill-rule="evenodd"/>
		<path id="形状结合" d="M52.7 53.79C53.4 53.79 53.8 54.2 53.8 54.89C53.8 55.6 53.3 56 52.7 56L19.29 56C18.6 56 18.2 55.6 18.2 54.89C18.2 54.2 18.6 53.79 19.29 53.79L52.7 53.79ZM54.9 16C56.8 16 58.2 17.39 58.2 19.29L58.2 46C58.2 47.89 56.8 49.29 54.9 49.29L17.1 49.29C15.2 49.29 13.8 47.89 13.8 46L13.8 19.29C13.8 17.39 15.2 16 17.1 16L54.9 16ZM28.8 23.6C28.2 23.6 27.7 24 27.7 24.7L27.7 31.89C27.7 32.5 28.1 33 28.8 33L35.5 33C36.1 33 36.6 32.6 36.6 31.89L36.6 31.79C36.5 31.29 36.1 30.89 35.6 30.89L30.8 30.89C32 28.79 34.2 27.5 36.7 27.5C40.4 27.5 43.4 30.5 43.4 34.2C43.4 37.89 40.4 40.89 36.7 40.89C33.6 40.89 30.9 38.79 30.2 35.7C30 35.1 29.6 34.89 29 34.89L28.8 34.89C28.3 35.1 28 35.5 28 36C28.9 40 32.5 42.89 36.6 42.89C41.4 42.89 45.4 38.89 45.4 34.1C45.4 29.29 41.4 25.29 36.6 25.29L36.3 25.29C33.8 25.39 31.5 26.5 29.9 28.29L29.8 28.39L29.8 24.7C29.8 24.1 29.4 23.6 28.8 23.6Z" fill="#FFFFFF" fill-opacity="1.000000" fill-rule="nonzero"/>
	</g>
</svg>
