<svg width="72.000000" height="72.000000" viewBox="0 0 72 72" fill="none" xmlns="http://www.w3.org/2000/svg" xmlns:xlink="http://www.w3.org/1999/xlink">
	<desc>
			Created with Pixso.
	</desc>
	<defs>
		<clipPath id="clip117_191">
			<rect id="3#行业视频管理-IVM" width="72.000000" height="72.000000" fill="white" fill-opacity="0"/>
		</clipPath>
	</defs>
	<g clip-path="url(#clip117_191)">
		<path id="矩形备份-19" d="M16 0L56 0C64.8 0 72 7.2 72 16L72 56C72 64.79 64.8 72 56 72L16 72C7.19 72 0 64.79 0 56L0 16C0 7.2 7.19 0 16 0Z" fill="#1476FF" fill-opacity="1.000000" fill-rule="evenodd"/>
		<path id="减去顶层" d="M12 35.99C11.99 49.22 22.7 59.96 35.91 60C49.27 60.03 60 49.34 60 35.98C60 35.89 59.99 35.8 59.99 35.71C59.99 35.05 59.03 35 58.93 35.65C58.59 38.49 57.61 41.3 55.99 43.88C53.81 47.33 50.77 49.89 47.32 51.47C48.79 49.14 49.25 46.7 48.38 44.61C47.2 41.76 43.85 40.21 39.67 40.17C37.48 40.14 35.7 39.31 35.08 37.81C34.4 36.21 35.21 34.23 36.96 32.59C38.72 30.93 41 29.44 43.64 28.35C46.06 27.34 48.49 26.79 50.74 26.64C51.2 25.85 51.54 24.99 51.74 24.09C51.98 23.04 50.93 22.17 49.93 22.56C48.91 22.95 47.81 23.17 46.64 23.17C44.93 23.17 43.41 22.41 42.38 21.22C38.37 22.03 34.18 21.14 30.87 18.79C30.39 18.46 29.78 18.97 30.04 19.5C31.12 21.67 33.04 23.35 35.37 24.12C28.97 27.46 25.31 33.07 27.06 37.3C28.32 40.34 31.13 42.47 34.84 43.59C36.28 44.01 37.36 44.83 37.85 46C38.5 47.58 36.93 49.73 34.36 50.8C32.56 51.55 30.73 51.63 29.57 51.04C29.07 50.78 28.59 50.5 28.11 50.2C18.68 44.26 15.84 31.91 21.71 22.45C25.12 16.96 30.72 13.67 36.67 13.01C37.3 12.94 37.25 12.02 36.62 12L36.36 12C23.01 11.8 12 22.64 12 35.99ZM42.24 25.4C42.01 24.71 41.43 24.14 40.66 23.92C39.4 23.57 38.1 24.27 37.74 25.49C37.37 26.71 38.09 27.98 39.34 28.34C40.08 28.55 40.84 28.39 41.4 27.98C40.88 27.69 40.58 27.1 40.71 26.49C40.86 25.79 41.53 25.32 42.24 25.4Z" fill="#FFFFFF" fill-opacity="1.000000" fill-rule="evenodd"/>
	</g>
</svg>
