<svg width="72.000000" height="72.000000" viewBox="0 0 72 72" fill="none" xmlns="http://www.w3.org/2000/svg" xmlns:xlink="http://www.w3.org/1999/xlink">
	<desc>
			Created with Pixso.
	</desc>
	<defs>
		<clipPath id="clip117_192">
			<rect id="4#视频直播-Live" width="72.000000" height="72.000000" fill="white" fill-opacity="0"/>
		</clipPath>
	</defs>
	<g clip-path="url(#clip117_192)">
		<path id="矩形备份-19" d="M16 0L56 0C64.8 0 72 7.2 72 16L72 56C72 64.79 64.8 72 56 72L16 72C7.19 72 0 64.79 0 56L0 16C0 7.2 7.19 0 16 0Z" fill="#1476FF" fill-opacity="1.000000" fill-rule="evenodd"/>
		<path id="形状结合" d="M44.89 20.29C47.7 20.29 49.89 22.5 49.89 25.29L49.89 28.09L57.1 24.19C58.1 23.69 59.3 24 59.8 25C60 25.29 60 25.59 60 26L60 45.69C60 46.79 59.1 47.69 58 47.69C57.6 47.69 57.2 47.59 56.8 47.29L49.8 42.39L49.8 46.79C49.8 49.59 47.6 51.79 44.8 51.79L17 51.79C14.2 51.79 12 49.59 12 46.79L12 25.29C12 22.5 14.2 20.29 17 20.29L44.89 20.29ZM27.2 29.59C26.6 29.59 26.2 30 26.2 30.59L26.2 41.39C26.2 41.59 26.3 41.79 26.3 41.89C26.6 42.39 27.2 42.5 27.7 42.19L36.39 36.79C36.5 36.69 36.6 36.59 36.7 36.5C37 36 36.8 35.39 36.39 35.09L27.7 29.69C27.6 29.59 27.39 29.59 27.2 29.59Z" fill="#FFFFFF" fill-opacity="1.000000" fill-rule="evenodd"/>
	</g>
</svg>
