<svg width="72.000000" height="72.000000" viewBox="0 0 72 72" fill="none" xmlns="http://www.w3.org/2000/svg" xmlns:xlink="http://www.w3.org/1999/xlink">
	<desc>
			Created with Pixso.
	</desc>
	<defs>
		<clipPath id="clip117_196">
			<rect id="5#视频接入服务-VIS" width="72.000000" height="72.000000" fill="white" fill-opacity="0"/>
		</clipPath>
	</defs>
	<g clip-path="url(#clip117_196)">
		<path id="矩形备份-19" d="M16 0L56 0C64.8 0 72 7.2 72 16L72 56C72 64.79 64.8 72 56 72L16 72C7.19 72 0 64.79 0 56L0 16C0 7.2 7.19 0 16 0Z" fill="#7DCC29" fill-opacity="1.000000" fill-rule="evenodd"/>
		<path id="形状结合" d="M44.89 20.29C47.7 20.29 49.89 22.5 49.89 25.29L49.89 28.09L57.1 24.19C58.1 23.69 59.3 24 59.8 25C60 25.29 60 25.59 60 26L60 45.69C60 46.79 59.1 47.69 58 47.69C57.6 47.69 57.2 47.59 56.8 47.29L49.8 42.39L49.8 46.79C49.8 49.59 47.6 51.79 44.8 51.79L17 51.79C14.2 51.79 12 49.59 12 46.79L12 25.29C12 22.5 14.2 20.29 17 20.29L44.89 20.29ZM46.5 37.19L37.7 37.19C36.1 37.19 34.6 37.69 33.3 38.69L27.8 43.09C26.89 43.79 25.8 44.19 24.7 44.19L21.6 44.19C21.3 43.69 20.7 43.29 20 43.29C19 43.29 18.1 44.09 18.1 45.19C18.1 46.19 18.89 47.09 20 47.09C20.7 47.09 21.3 46.69 21.6 46.19L24.7 46.19C26.3 46.19 27.8 45.69 29.1 44.69L34.6 40.29C35.5 39.59 36.6 39.19 37.7 39.19L46.5 39.19C47.1 39.19 47.5 38.79 47.5 38.19C47.5 37.59 47.1 37.19 46.5 37.19ZM27 35L19 35C18.39 35 18 35.39 18 36C18 36.59 18.39 37 19 37L27 37C27.6 37 28 36.59 28 36C28 35.39 27.6 35 27 35ZM31.6 35L29.6 35C29 35 28.6 35.39 28.6 36C28.6 36.59 29 37 29.6 37L31.6 37C32.2 37 32.6 36.59 32.6 36C32.6 35.39 32.1 35 31.6 35ZM20 24.89C19 24.89 18.1 25.69 18.1 26.79C18.1 27.79 18.89 28.69 20 28.69C20.7 28.69 21.3 28.29 21.6 27.79L24.7 27.79C25.8 27.79 26.89 28.19 27.8 28.89L33.3 33.29C34.5 34.29 36.1 34.79 37.7 34.79L46.5 34.79C47.1 34.79 47.5 34.39 47.5 33.79C47.5 33.19 47.1 32.79 46.5 32.79L37.7 32.79C36.6 32.79 35.5 32.39 34.6 31.69L29 27.29C27.8 26.29 26.2 25.79 24.6 25.79L21.5 25.79C21.2 25.19 20.6 24.89 20 24.89Z" fill="#FFFFFF" fill-opacity="1.000000" fill-rule="evenodd"/>
	</g>
</svg>
