<svg width="72.000000" height="72.000000" viewBox="0 0 72 72" fill="none" xmlns="http://www.w3.org/2000/svg" xmlns:xlink="http://www.w3.org/1999/xlink">
	<desc>
			Created with Pixso.
	</desc>
	<defs>
		<clipPath id="clip117_194">
			<rect id="6#媒体处理-MPC" width="72.000000" height="72.000000" fill="white" fill-opacity="0"/>
		</clipPath>
	</defs>
	<g clip-path="url(#clip117_194)">
		<path id="矩形备份-19" d="M16 0L56 0C64.8 0 72 7.2 72 16L72 56C72 64.79 64.8 72 56 72L16 72C7.19 72 0 64.79 0 56L0 16C0 7.2 7.19 0 16 0Z" fill="#25C251" fill-opacity="1.000000" fill-rule="evenodd"/>
		<path id="形状结合" d="M35.89 15.89C41.5 15.89 46.2 19.5 48 24.5C54.7 24.89 60 30.39 60 37.19C60 44.29 54.3 50 47.2 50L24.8 50C17.7 50 12 44.29 12 37.19C12 30.5 17.2 24.89 23.8 24.5C25.6 19.5 30.3 15.89 35.89 15.89ZM41.3 44C41.1 44.19 41.1 44.6 41.3 44.79L43.8 47.19L27 47.19C26.7 47.19 26.39 47.39 26.39 47.79C26.39 48.19 26.6 48.39 27 48.39L45 48.39C45.2 48.39 45.5 48.29 45.6 48.1C45.7 47.89 45.6 47.6 45.5 47.5L42.1 44C41.89 43.79 41.5 43.79 41.3 44ZM32.3 29.5C31.8 29.79 31.5 30.29 31.5 31L31.5 38.69C31.5 39.29 31.8 39.79 32.3 40.19C32.6 40.39 32.89 40.39 33.2 40.39C33.5 40.39 33.8 40.29 34 40.19L40.8 36.39C41.39 36.1 41.7 35.5 41.7 34.89C41.7 34.29 41.39 33.79 40.8 33.39L34 29.5C33.39 29.1 32.8 29.1 32.3 29.5ZM45 51.6L27 51.6C26.8 51.6 26.5 51.69 26.39 51.89C26.3 52.1 26.39 52.39 26.5 52.5L29.89 55.89C30.1 56.1 30.2 56.1 30.39 56.1C30.5 56.1 30.7 56.1 30.89 56C31.1 55.79 31.1 55.39 30.89 55.19L28.39 52.69L45 52.69C45.3 52.69 45.6 52.5 45.6 52.1C45.6 51.69 45.3 51.6 45 51.6Z" fill="#FFFFFF" fill-opacity="1.000000" fill-rule="evenodd"/>
	</g>
</svg>
