<svg width="72.000000" height="72.000000" viewBox="0 0 72 72" fill="none" xmlns="http://www.w3.org/2000/svg" xmlns:xlink="http://www.w3.org/1999/xlink">
	<desc>
			Created with Pixso.
	</desc>
	<defs>
		<clipPath id="clip117_193">
			<rect id="7#数字内容生产线-MetaStudio" width="72.000000" height="72.000000" fill="white" fill-opacity="0"/>
		</clipPath>
		<linearGradient x1="35.916771" y1="54.346825" x2="35.916771" y2="36.389427" id="paint_linear_132_9_0" gradientUnits="userSpaceOnUse">
			<stop stop-color="#FFFFFF" stop-opacity="0.000000"/>
			<stop offset="1.000000" stop-color="#FFFFFF" stop-opacity="0.298039"/>
		</linearGradient>
	</defs>
	<g clip-path="url(#clip117_193)">
		<path id="矢量 98" d="M16 0L56 0C64.8 0 72 7.2 72 16L72 56C72 64.79 64.8 72 56 72L16 72C7.19 72 0 64.79 0 56L0 16C0 7.2 7.19 0 16 0Z" fill="#1476FF" fill-opacity="1.000000" fill-rule="evenodd"/>
		<path id="矢量 96" d="M13 35L17.5 35C18.1 35 18.5 34.6 18.5 34L18.5 25C18.5 24.39 18.89 24 19.5 24L24 24C24.3 24 24.5 24.1 24.7 24.29L35.3 34.7C35.7 35.1 36.3 35.1 36.7 34.7L47.2 24.29C47.39 24.1 47.6 24 47.89 24L51.89 24C52.5 24 52.89 24.39 52.89 25L52.89 34C52.89 34.6 53.3 35 53.89 35L58.8 35C59.39 35 59.8 34.6 59.8 34L59.8 24.6C59.8 23.6 59.39 22.6 58.7 21.79L55.3 18.2C54.5 17.39 53.5 17 52.39 17L47.3 17C46 17 44.7 17.5 43.8 18.39L36 26.2L28.5 18.5C27.6 17.5 26.3 17 24.89 17L19.29 17C18.2 17 17.1 17.5 16.39 18.29L13.1 21.89C12.39 22.6 12 23.6 12 24.6L12 34C12 34.5 12.39 35 13 35Z" fill="#FFFFFF" fill-opacity="1.000000" fill-rule="evenodd"/>
		<path id="矢量 97" d="M13 36.39L17.5 36.39C18.1 36.39 18.5 36.79 18.5 37.39L18.5 46.39C18.5 47 18.89 47.39 19.5 47.39L24 47.39C24.3 47.39 24.5 47.29 24.7 47.1L35.3 36.69C35.7 36.29 36.3 36.29 36.7 36.69L47.2 47.1C47.39 47.29 47.6 47.39 47.89 47.39L51.89 47.39C52.5 47.39 52.89 47 52.89 46.39L52.89 37.39C52.89 36.79 53.3 36.39 53.89 36.39L58.8 36.39C59.39 36.39 59.8 36.79 59.8 37.39L59.8 46.79C59.8 47.79 59.39 48.79 58.7 49.6L55.3 53.19C54.5 54 53.5 54.39 52.39 54.39L47.3 54.39C46 54.39 44.7 53.89 43.8 53L36 45.19L28.5 52.89C27.6 53.89 26.3 54.39 24.89 54.39L19.29 54.39C18.2 54.39 17.1 53.89 16.39 53.1L13.1 49.5C12.39 48.79 12 47.79 12 46.79L12 37.39C12 36.79 12.39 36.39 13 36.39Z" fill="url(#paint_linear_132_9_0)" fill-opacity="1.000000" fill-rule="evenodd"/>
	</g>
</svg>
