<svg viewBox="0 0 16 16" xmlns="http://www.w3.org/2000/svg" xmlns:xlink="http://www.w3.org/1999/xlink">
	<desc fill="none">
			Created with Pixso.
	</desc>
	<defs fill="none"/>
	<g>
		<path id="形状结合" d="M14 3.5C14 2.66992 13.32 2 12.5 2L9.03003 2C8.76001 2 8.53003 2.2207 8.53003 2.5L8.53998 2.56055C8.57001 2.81055 8.78003 3 9.03003 3L12.29 3L8.98999 6.30078C8.78998 6.49023 8.78998 6.81055 8.98999 7C9.17999 7.19922 9.5 7.19922 9.69 7L13 3.69922L13 6.96094C13 7.23047 13.22 7.46094 13.5 7.46094C13.77 7.46094 14 7.23047 14 6.96094L14 3.5ZM2.5 8.5293C2.77002 8.5293 3 8.75977 3 9.0293L3 12.2891L6.29999 8.99023C6.48999 8.78906 6.81 8.78906 7 8.99023C7.20001 9.17969 7.20001 9.5 7 9.68945L3.70001 13L6.96002 13C7.21002 13 7.41998 13.1797 7.45001 13.4297L7.46002 13.5C7.46002 13.7695 7.22998 14 6.96002 14L3.5 14C2.66998 14 2 13.3203 2 12.5L2 9.0293C2 8.75977 2.21997 8.5293 2.5 8.5293Z" clip-rule="evenodd" fill-opacity="1.000000" fill-rule="evenodd"/>
	</g>
</svg>
