<svg width="16.000000" height="16.000000" viewBox="0 0 16 16" fill="none" xmlns="http://www.w3.org/2000/svg" xmlns:xlink="http://www.w3.org/1999/xlink">
	<desc>
			Created with Pixso.
	</desc>
	<defs>
		<clipPath id="clip2_124">
			<rect id="10#实时数据-realtime-data" width="16.000000" height="16.000000" fill="white" fill-opacity="0"/>
		</clipPath>
	</defs>
	<g clip-path="url(#clip2_124)">
		<path id="形状结合" d="M7.97 0.66C8.25 0.66 8.47 0.88 8.47 1.16L8.47 2.31C11.7 2.57 14.24 5.27 14.24 8.57C14.24 12.03 11.43 14.84 7.97 14.84C4.51 14.84 1.7 12.03 1.7 8.57C1.7 5.27 4.24 2.57 7.47 2.31L7.47 1.16C7.47 0.88 7.69 0.66 7.97 0.66ZM7.97 3.3C5.06 3.3 2.7 5.65 2.7 8.57C2.7 11.48 5.06 13.84 7.97 13.84C10.88 13.84 13.24 11.48 13.24 8.57C13.24 5.65 10.88 3.3 7.97 3.3ZM7.97 5.22C8.25 5.22 8.47 5.44 8.47 5.72L8.47 8.06L9.68 8.07C9.93 8.07 10.13 8.24 10.17 8.48L10.18 8.57C10.18 8.84 9.96 9.07 9.68 9.07L8.2 9.07C7.8 9.07 7.47 8.74 7.47 8.34L7.47 5.72C7.47 5.44 7.69 5.22 7.97 5.22ZM13.08 2.29C13.28 2.09 13.59 2.09 13.79 2.29L14.59 3.09C14.79 3.29 14.79 3.6 14.59 3.8C14.4 3.99 14.08 3.99 13.89 3.8L13.08 2.99C12.89 2.8 12.89 2.48 13.08 2.29Z" fill="currentColor" fill-opacity="1.000000" fill-rule="nonzero"/>
	</g>
</svg>
