<svg width="16.000000" height="16.000000" viewBox="0 0 16 16" fill="none" xmlns="http://www.w3.org/2000/svg" xmlns:xlink="http://www.w3.org/1999/xlink">
	<desc>
			Created with Pixso.
	</desc>
	<defs>
		<clipPath id="clip2_200">
			<rect id="11#诊断分析-analysis" width="16.000000" height="16.000000" fill="white" fill-opacity="0"/>
		</clipPath>
	</defs>
	<g clip-path="url(#clip2_200)">
		<path id="形状" d="M14.17 5.04C14.42 5.04 14.62 5.22 14.66 5.46L14.66 5.54L14.67 7.54C14.67 7.82 14.44 8.04 14.17 8.04C13.92 8.04 13.72 7.86 13.68 7.63L13.68 7.54L13.67 6.74L10.11 9.95C9.94 10.1 9.68 10.12 9.5 10L9.42 9.94L7.41 7.92L5.02 10.04C4.84 10.2 4.57 10.2 4.38 10.06C4.22 9.87 4.15 9.54 4.3 9.36L4.36 9.29L7.1 6.86C7.27 6.71 7.52 6.7 7.71 6.82L7.78 6.88L9.8 8.9L12.96 6.06L12.18 6.06C11.93 6.06 11.73 5.88 11.68 5.65L11.68 5.56C11.68 5.32 11.85 5.12 12.08 5.07L12.17 5.07L14.17 5.04ZM8 1.33C9.92 1.33 11.71 2.14 12.96 3.54C13.15 3.75 13.13 4.06 12.92 4.25C12.72 4.44 12.4 4.42 12.22 4.21C11.15 3.02 9.63 2.33 8 2.33C4.88 2.33 2.34 4.87 2.34 8C2.34 11.12 4.88 13.66 8 13.66C10.65 13.66 12.92 11.83 13.52 9.3L13.56 9.1C13.61 8.82 13.87 8.65 14.14 8.7C14.39 8.75 14.56 8.98 14.54 9.22L14.53 9.32C13.9 12.41 11.18 14.66 8 14.66C4.32 14.66 1.33 11.67 1.33 7.99C1.33 4.31 4.32 1.33 8 1.33Z" fill="currentColor" fill-opacity="1.000000" fill-rule="nonzero"/>
	</g>
</svg>
