<svg width="16.000000" height="16.000000" viewBox="0 0 16 16" fill="none" xmlns="http://www.w3.org/2000/svg" xmlns:xlink="http://www.w3.org/1999/xlink">
	<desc>
			Created with Pixso.
	</desc>
	<defs>
		<clipPath id="clip2_61">
			<rect id="12#饼图-chart-pie" width="16.000000" height="16.000000" fill="white" fill-opacity="0"/>
		</clipPath>
	</defs>
	<g clip-path="url(#clip2_61)">
		<path id="形状" d="M6.93 3.76L6.79 3.77C4.28 4.08 2.33 6.23 2.33 8.83C2.33 11.64 4.62 13.93 7.43 13.93C10.03 13.93 12.18 11.98 12.49 9.47L12.5 9.33L7.43 9.33C7.18 9.33 6.98 9.15 6.94 8.92L6.94 8.83L6.93 3.76ZM7.43 2.73C7.7 2.73 7.93 2.96 7.93 3.23L7.93 8.33L13.03 8.33C13.28 8.33 13.48 8.51 13.52 8.74L13.52 8.83C13.53 12.2 10.8 14.93 7.43 14.93C4.06 14.93 1.33 12.2 1.33 8.83C1.33 5.46 4.06 2.73 7.43 2.73ZM10.03 2.36L10.03 6.23L13.9 6.23L13.89 6.1C13.62 4.17 12.09 2.65 10.16 2.37L10.03 2.36ZM9.53 1.33C12.51 1.33 14.93 3.75 14.93 6.73C14.93 7 14.7 7.23 14.43 7.23L9.53 7.23C9.26 7.23 9.03 7 9.03 6.73L9.03 1.83C9.03 1.56 9.26 1.33 9.53 1.33Z" fill="currentColor" fill-opacity="1.000000" fill-rule="nonzero"/>
	</g>
</svg>
