<svg width="16.000000" height="16.000000" viewBox="0 0 16 16" fill="none" xmlns="http://www.w3.org/2000/svg" xmlns:xlink="http://www.w3.org/1999/xlink">
	<desc>
			Created with Pixso.
	</desc>
	<defs>
		<clipPath id="clip2_145">
			<rect id="13#折线表-chart-line" width="16.000000" height="16.000000" fill="white" fill-opacity="0"/>
		</clipPath>
	</defs>
	<g clip-path="url(#clip2_145)">
		<path id="形状结合" d="M2.26 1.76C2.53 1.76 2.76 1.99 2.76 2.26L2.76 13.23L13.88 13.23C14.16 13.23 14.38 13.45 14.38 13.73C14.38 14 14.16 14.23 13.88 14.23L2.42 14.23C2.39 14.23 2.36 14.23 2.34 14.22C2.31 14.23 2.29 14.23 2.26 14.23C1.98 14.23 1.76 14 1.76 13.73L1.76 2.26C1.76 1.99 1.98 1.76 2.26 1.76ZM13.68 6.22C13.86 6.44 13.83 6.75 13.62 6.93L10.6 9.46C10.41 9.61 10.15 9.61 9.96 9.46L7.16 7.2L4.66 9.44C4.48 9.61 4.21 9.61 4.02 9.47C3.84 9.26 3.79 8.88 3.99 8.7L6.81 6.17C7 6.01 7.27 6 7.46 6.16L10.27 8.42L12.97 6.16C13.19 5.98 13.5 6.01 13.68 6.22Z" fill="currentColor" fill-opacity="1.000000" fill-rule="nonzero"/>
	</g>
</svg>
