<svg width="16.000000" height="16.000000" viewBox="0 0 16 16" fill="none" xmlns="http://www.w3.org/2000/svg" xmlns:xlink="http://www.w3.org/1999/xlink">
	<desc>
			Created with Pixso.
	</desc>
	<defs>
		<clipPath id="clip2_202">
			<rect id="14#指标|指数-index" width="16.000000" height="16.000000" fill="white" fill-opacity="0"/>
		</clipPath>
	</defs>
	<g clip-path="url(#clip2_202)">
		<path id="形状结合" d="M2.27 1.77C2.55 1.77 2.77 2 2.77 2.27L2.77 13.21L13.87 13.21C14.15 13.21 14.37 13.44 14.37 13.71C14.37 13.99 14.15 14.21 13.87 14.21L2.43 14.21C2.4 14.21 2.38 14.21 2.35 14.21C2.33 14.21 2.3 14.21 2.27 14.21C2 14.21 1.77 13.99 1.77 13.71L1.77 2.27C1.77 2 2 1.77 2.27 1.77ZM5.19 3.85C5.47 3.85 5.69 4.08 5.69 4.35L5.69 11.63C5.69 11.91 5.47 12.13 5.19 12.13C4.92 12.13 4.69 11.91 4.69 11.63L4.69 4.35C4.69 4.08 4.92 3.85 5.19 3.85ZM8.68 5.93C8.95 5.93 9.18 6.16 9.18 6.43L9.18 11.63C9.18 11.91 8.95 12.13 8.68 12.13C8.4 12.13 8.18 11.91 8.18 11.63L8.18 6.43C8.18 6.16 8.4 5.93 8.68 5.93ZM12.16 8.01C12.43 8.01 12.66 8.24 12.66 8.51L12.66 11.63C12.66 11.91 12.43 12.13 12.16 12.13C11.88 12.13 11.66 11.91 11.66 11.63L11.66 8.51C11.66 8.24 11.88 8.01 12.16 8.01Z" fill="currentColor" fill-opacity="1.000000" fill-rule="nonzero"/>
	</g>
</svg>
