<svg width="16.000000" height="16.000000" viewBox="0 0 16 16" fill="none" xmlns="http://www.w3.org/2000/svg" xmlns:xlink="http://www.w3.org/1999/xlink">
	<desc>
			Created with Pixso.
	</desc>
	<defs>
		<clipPath id="clip2_175">
			<rect id="15#指标|指数趋势-index-trend" width="16.000000" height="16.000000" fill="white" fill-opacity="0"/>
		</clipPath>
	</defs>
	<g clip-path="url(#clip2_175)">
		<path id="形状结合" d="M2.27 1.75C2.56 1.75 2.79 1.99 2.79 2.27L2.79 13.19L7.64 13.19C7.93 13.19 8.16 13.43 8.16 13.71C8.16 14 7.93 14.23 7.64 14.23L2.43 14.23C2.41 14.23 2.38 14.23 2.35 14.23C2.33 14.23 2.3 14.23 2.27 14.23C1.99 14.23 1.75 14 1.75 13.71L1.75 2.27C1.75 1.99 1.99 1.75 2.27 1.75ZM5.2 3.83C5.48 3.83 5.72 4.07 5.72 4.35L5.72 11.63C5.72 11.92 5.48 12.15 5.2 12.15C4.91 12.15 4.68 11.92 4.68 11.63L4.68 4.35C4.68 4.07 4.91 3.83 5.2 3.83ZM8.68 5.91C8.97 5.91 9.2 6.15 9.2 6.43L9.2 9.55C9.2 9.84 8.97 10.07 8.68 10.07C8.39 10.07 8.16 9.84 8.16 9.55L8.16 6.43C8.16 6.15 8.39 5.91 8.68 5.91ZM13.21 9.72C13.48 9.72 13.71 9.94 13.71 10.22C13.71 10.5 13.48 10.72 13.21 10.72L11.57 10.72L14.35 13.49C14.53 13.67 14.54 13.95 14.4 14.14C14.2 14.34 13.84 14.4 13.64 14.2L10.87 11.43L10.87 13.06C10.87 13.33 10.64 13.56 10.37 13.56C10.09 13.56 9.87 13.33 9.87 13.06L9.87 11.22C9.87 10.39 10.54 9.72 11.37 9.72L13.21 9.72Z" fill="currentColor" fill-opacity="1.000000" fill-rule="nonzero"/>
	</g>
</svg>
