<svg width="16.000000" height="16.000000" viewBox="0 0 16 16" fill="none" xmlns="http://www.w3.org/2000/svg" xmlns:xlink="http://www.w3.org/1999/xlink">
	<desc>
			Created with Pixso.
	</desc>
	<defs>
		<clipPath id="clip2_208">
			<rect id="16#周期性报表-period-report" width="16.000000" height="16.000000" fill="white" fill-opacity="0"/>
		</clipPath>
	</defs>
	<g clip-path="url(#clip2_208)">
		<path id="形状结合" d="M4.22 11.66C4.22 11.93 4 12.16 3.72 12.16C3.45 12.16 3.22 11.93 3.22 11.66L3.22 6.41C3.22 6.13 3.45 5.91 3.72 5.91C4 5.91 4.22 6.13 4.22 6.41L4.22 11.66ZM7.17 11.66C7.17 11.93 6.95 12.16 6.67 12.16C6.4 12.16 6.17 11.93 6.17 11.66L6.17 2.21C6.17 1.93 6.4 1.71 6.67 1.71C6.95 1.71 7.17 1.93 7.17 2.21L7.17 11.66ZM10.12 11.66C10.12 11.93 9.9 12.16 9.62 12.16C9.35 12.16 9.12 11.93 9.12 11.66L9.12 4.27C9.12 4 9.35 3.77 9.62 3.77C9.9 3.77 10.12 4 10.12 4.27L10.12 11.66ZM13.07 11.66C13.07 11.93 12.85 12.16 12.57 12.16C12.29 12.16 12.07 11.93 12.07 11.66L12.07 8.51C12.07 8.23 12.29 8.01 12.57 8.01C12.85 8.01 13.07 8.23 13.07 8.51L13.07 11.66ZM13.92 13.26C14.2 13.26 14.42 13.48 14.42 13.76C14.42 14.03 14.2 14.26 13.92 14.26L2.37 14.26C2.1 14.26 1.87 14.03 1.87 13.76C1.87 13.48 2.1 13.26 2.37 13.26L13.92 13.26Z" fill="currentColor" fill-opacity="1.000000" fill-rule="nonzero"/>
	</g>
</svg>
