<svg width="16.000000" height="16.000000" viewBox="0 0 16 16" fill="none" xmlns="http://www.w3.org/2000/svg" xmlns:xlink="http://www.w3.org/1999/xlink">
	<desc>
			Created with Pixso.
	</desc>
	<defs>
		<clipPath id="clip2_89">
			<rect id="17#配额-quota" width="16.000000" height="16.000000" fill="white" fill-opacity="0"/>
		</clipPath>
	</defs>
	<g clip-path="url(#clip2_89)">
		<path id="形状结合" d="M3.72 1.5L3 1.5C2.17 1.5 1.5 2.17 1.5 3L1.5 13C1.5 13.82 2.17 14.5 3 14.5L3.72 14.5C4.49 14.5 5.12 13.92 5.21 13.17L5.22 13.02L5.22 2.99C5.22 2.17 4.55 1.5 3.72 1.5ZM3.72 2.5C4 2.5 4.22 2.72 4.22 3L4.22 13L4.22 13.08C4.19 13.3 3.98 13.5 3.72 13.5L3 13.5C2.72 13.5 2.5 13.27 2.5 13L2.5 3C2.5 2.72 2.72 2.5 3 2.5L3.72 2.5ZM8.36 4.77L7.63 4.77C6.8 4.77 6.13 5.44 6.13 6.27L6.13 13C6.13 13.82 6.8 14.5 7.63 14.5L8.36 14.5C9.12 14.5 9.76 13.92 9.85 13.17L9.86 13.02L9.86 6.27C9.86 5.44 9.19 4.77 8.36 4.77ZM8.36 5.77C8.63 5.77 8.86 5.99 8.86 6.27L8.86 13L8.85 13.08C8.83 13.3 8.61 13.5 8.36 13.5L7.63 13.5C7.36 13.5 7.13 13.27 7.13 13L7.13 6.27C7.13 5.99 7.36 5.77 7.63 5.77L8.36 5.77ZM12.99 8.04L12.27 8.04C11.44 8.04 10.77 8.71 10.77 9.54L10.77 13C10.77 13.82 11.44 14.5 12.27 14.5L13 14.5C13.76 14.5 14.4 13.92 14.48 13.17L14.49 13.02L14.49 9.54C14.49 8.71 13.82 8.04 12.99 8.04ZM12.99 9.04C13.27 9.04 13.49 9.26 13.49 9.54L13.49 13L13.49 13.08C13.46 13.3 13.25 13.5 13 13.5L12.27 13.5C11.99 13.5 11.77 13.27 11.77 13L11.77 9.54C11.77 9.26 11.99 9.04 12.27 9.04L12.99 9.04Z" fill="currentColor" fill-opacity="1.000000" fill-rule="nonzero"/>
	</g>
</svg>
