<svg width="16.000000" height="16.000000" viewBox="0 0 16 16" fill="none" xmlns="http://www.w3.org/2000/svg" xmlns:xlink="http://www.w3.org/1999/xlink">
	<desc>
			Created with Pixso.
	</desc>
	<defs>
		<clipPath id="clip2_60">
			<rect id="2#监控信息|大屏-monitor" width="16.000000" height="16.000000" fill="white" fill-opacity="0"/>
		</clipPath>
	</defs>
	<g clip-path="url(#clip2_60)">
		<path id="形状结合" d="M12.66 1.5C13.67 1.5 14.5 2.32 14.5 3.33L14.5 10C14.5 11.01 13.67 11.83 12.66 11.83L3.33 11.83C2.32 11.83 1.5 11.01 1.5 10L1.5 3.33C1.5 2.32 2.32 1.5 3.33 1.5L12.66 1.5ZM12.66 2.5L3.33 2.5C2.87 2.5 2.5 2.87 2.5 3.33L2.5 10C2.5 10.46 2.87 10.83 3.33 10.83L12.66 10.83C13.12 10.83 13.5 10.46 13.5 10L13.5 3.33C13.5 2.87 13.12 2.5 12.66 2.5ZM12.05 5.31C12.22 5.52 12.19 5.83 11.98 6.01L9.51 8.08C9.33 8.23 9.06 8.23 8.88 8.08L6.65 6.28L4.66 8.07C4.48 8.23 4.21 8.24 4.02 8.09C3.84 7.88 3.79 7.51 3.99 7.32L6.3 5.26C6.48 5.09 6.76 5.09 6.95 5.24L9.19 7.05L11.34 5.24C11.55 5.07 11.87 5.1 12.05 5.31ZM11.66 13.16C11.94 13.16 12.16 13.39 12.16 13.66C12.16 13.94 11.94 14.16 11.66 14.16L4.33 14.16C4.05 14.16 3.83 13.94 3.83 13.66C3.83 13.39 4.05 13.16 4.33 13.16L11.66 13.16Z" fill="currentColor" fill-opacity="1.000000" fill-rule="nonzero"/>
	</g>
</svg>
