<svg width="16.000000" height="16.000000" viewBox="0 0 16 16" fill="none" xmlns="http://www.w3.org/2000/svg" xmlns:xlink="http://www.w3.org/1999/xlink">
	<desc>
			Created with Pixso.
	</desc>
	<defs>
		<clipPath id="clip2_44">
			<rect id="20#挂载存储-mount-storage" width="16.000000" height="16.000000" fill="white" fill-opacity="0"/>
		</clipPath>
	</defs>
	<g clip-path="url(#clip2_44)">
		<path id="形状结合" d="M8.5 9.72C8.78 9.72 9 9.94 9 10.22C9 10.5 8.78 10.72 8.5 10.72L3 10.72C2.72 10.72 2.5 10.94 2.5 11.22L2.5 12.91C2.5 13.19 2.72 13.41 3 13.41L8.5 13.41C8.78 13.41 9 13.64 9 13.91C9 14.19 8.78 14.41 8.5 14.41L3 14.41C2.17 14.41 1.5 13.74 1.5 12.91L1.5 11.22C1.5 10.39 2.17 9.72 3 9.72L8.5 9.72ZM12.57 9.33C12.71 9.33 12.85 9.4 12.93 9.52L12.97 9.6L13.18 10.08L13.4 10.21L13.92 10.14C14.06 10.13 14.2 10.18 14.3 10.28L14.36 10.36L14.74 11.01C14.81 11.14 14.81 11.3 14.75 11.43L14.71 11.5L14.39 11.92L14.39 12.17L14.71 12.6C14.79 12.71 14.82 12.86 14.78 12.99L14.74 13.07L14.36 13.73C14.29 13.86 14.15 13.94 14.01 13.95L13.92 13.95L13.4 13.89L13.18 14.01L12.97 14.5C12.92 14.63 12.8 14.72 12.67 14.76L12.57 14.77L11.81 14.77C11.66 14.77 11.53 14.69 11.45 14.58L11.41 14.5L11.2 14.01L10.98 13.89L10.45 13.95C10.31 13.97 10.17 13.92 10.08 13.81L9.64 13.08C9.57 12.95 9.56 12.8 9.63 12.67L9.67 12.6L9.99 12.17L9.99 11.92L9.67 11.5C9.59 11.39 9.56 11.24 9.6 11.11L9.63 11.03L10.02 10.36C10.09 10.24 10.22 10.15 10.37 10.14L10.45 10.14L10.98 10.21L11.2 10.08L11.41 9.6C11.46 9.47 11.58 9.37 11.71 9.34L11.8 9.33L12.57 9.33ZM12.33 10.13L12.05 10.13L11.93 10.4C11.88 10.53 11.79 10.64 11.68 10.72L11.6 10.78L11.38 10.9C11.23 10.99 11.06 11.02 10.89 11L10.59 10.96L10.45 11.21L10.63 11.44C10.71 11.55 10.77 11.68 10.78 11.82L10.79 11.92L10.79 12.17C10.79 12.35 10.73 12.51 10.63 12.65L10.45 12.88L10.59 13.13L10.89 13.09C11.02 13.08 11.16 13.1 11.29 13.15L11.38 13.19L11.6 13.32C11.75 13.41 11.86 13.54 11.93 13.7L12.04 13.97L12.33 13.97L12.45 13.7C12.5 13.57 12.59 13.46 12.69 13.38L12.78 13.32L13 13.19C13.15 13.11 13.32 13.07 13.49 13.09L13.78 13.13L13.92 12.89L13.75 12.65C13.67 12.54 13.61 12.41 13.59 12.28L13.59 12.17L13.59 11.92C13.59 11.75 13.64 11.58 13.75 11.44L13.93 11.21L13.78 10.97L13.49 11C13.35 11.02 13.22 11 13.09 10.95L13 10.9L12.78 10.78C12.63 10.69 12.51 10.56 12.45 10.4L12.33 10.13ZM12.19 11.33C12.59 11.33 12.91 11.65 12.91 12.05C12.91 12.45 12.59 12.77 12.19 12.77C11.79 12.77 11.47 12.45 11.47 12.05C11.47 11.65 11.79 11.33 12.19 11.33ZM11.01 1.58L4.98 1.58C4.34 1.58 3.77 1.99 3.56 2.59L1.98 7.2C1.92 7.35 1.9 7.52 1.9 7.68C1.9 8.51 2.57 9.18 3.4 9.18L12.59 9.18C12.76 9.18 12.92 9.16 13.08 9.1C13.86 8.83 14.28 7.98 14.01 7.2L12.43 2.59C12.22 1.99 11.65 1.58 11.01 1.58ZM11.01 2.58C11.22 2.58 11.41 2.71 11.48 2.92L13.07 7.52C13.16 7.78 13.02 8.07 12.76 8.16C12.7 8.17 12.65 8.18 12.59 8.18L3.4 8.18C3.12 8.18 2.9 7.96 2.9 7.68C2.9 7.63 2.91 7.57 2.92 7.52L4.51 2.92C4.58 2.71 4.77 2.58 4.98 2.58L11.01 2.58Z" fill="currentColor" fill-opacity="1.000000" fill-rule="nonzero"/>
	</g>
</svg>
