<svg width="16.000000" height="16.000000" viewBox="0 0 16 16" fill="none" xmlns="http://www.w3.org/2000/svg" xmlns:xlink="http://www.w3.org/1999/xlink">
	<desc>
			Created with Pixso.
	</desc>
	<defs>
		<clipPath id="clip2_92">
			<rect id="21#迁移数据库-migration-db" width="16.000000" height="16.000000" fill="white" fill-opacity="0"/>
		</clipPath>
	</defs>
	<g clip-path="url(#clip2_92)">
		<path id="形状" d="M6.35 3.49C6.63 3.49 6.85 3.71 6.85 3.99C6.85 4.27 6.63 4.48 6.35 4.48C6.07 4.48 5.85 4.27 5.85 3.99C5.85 3.71 6.07 3.49 6.35 3.49ZM4.92 3.49C5.2 3.49 5.42 3.71 5.42 3.99C5.42 4.27 5.2 4.48 4.92 4.48C4.64 4.48 4.42 4.27 4.42 3.99C4.42 3.71 4.64 3.49 4.92 3.49ZM3.48 3.49C3.76 3.49 3.98 3.71 3.98 3.99C3.98 4.27 3.76 4.48 3.48 4.48C3.2 4.48 2.98 4.27 2.98 3.99C2.98 3.71 3.2 3.49 3.48 3.49ZM13.5 2.61L2.51 2.61C2.28 2.61 2.1 2.77 2.1 2.96L2.1 5.3L13.9 5.3L13.9 2.96C13.9 2.77 13.73 2.61 13.5 2.61ZM12.81 10.22L14.6 12.01C14.82 12.23 14.82 12.58 14.6 12.79L12.81 14.58C12.59 14.8 12.24 14.8 12.03 14.58C11.81 14.36 11.81 14.01 12.03 13.8L12.88 12.95L8.45 12.95C8.16 12.95 7.91 12.7 7.91 12.4C7.91 12.1 8.16 11.85 8.45 11.85L12.88 11.85L12.03 11C11.84 10.81 11.82 10.5 11.97 10.29L12.03 10.22C12.25 10 12.6 10 12.81 10.22ZM13.5 1.5C14.33 1.5 15.01 2.14 15.01 2.95L15.01 8.96C15.01 9.27 14.76 9.51 14.46 9.51C14.16 9.51 13.91 9.26 13.91 8.96L13.91 6.21L2.1 6.21L2.1 13.33C2.1 13.52 2.28 13.68 2.51 13.68L8.07 13.68C8.38 13.68 8.63 13.93 8.63 14.23C8.63 14.53 8.38 14.78 8.07 14.78L2.51 14.78C1.67 14.78 1 14.14 1 13.33L1 2.96C1 2.15 1.67 1.51 2.51 1.51L13.5 1.5Z" fill="currentColor" fill-opacity="1.000000" fill-rule="nonzero"/>
	</g>
</svg>
