<svg width="16.000000" height="16.000000" viewBox="0 0 16 16" fill="none" xmlns="http://www.w3.org/2000/svg" xmlns:xlink="http://www.w3.org/1999/xlink">
	<desc>
			Created with Pixso.
	</desc>
	<defs>
		<clipPath id="clip2_106">
			<rect id="22#确认配置-confirm-configure" width="16.000000" height="16.000000" fill="white" fill-opacity="0"/>
		</clipPath>
	</defs>
	<g clip-path="url(#clip2_106)">
		<path id="形状" d="M13.79 3.53L9.37 0.98C8.62 0.55 7.7 0.55 6.96 0.98L2.54 3.53C1.79 3.95 1.33 4.75 1.33 5.61L1.33 10.71C1.33 11.57 1.79 12.37 2.54 12.79L6.96 15.34C7.33 15.55 7.74 15.66 8.16 15.66C8.58 15.66 9 15.55 9.37 15.34L13.79 12.79C14.54 12.37 15 11.57 15 10.71L15 5.61C15 4.75 14.54 3.95 13.79 3.53ZM14 10.71C14 11.21 13.72 11.67 13.29 11.93L8.87 14.47C8.43 14.73 7.89 14.73 7.46 14.47L3.04 11.93C2.6 11.67 2.33 11.21 2.33 10.71L2.33 5.61C2.33 5.11 2.6 4.65 3.04 4.39L7.46 1.85C7.68 1.72 7.92 1.66 8.16 1.66C8.41 1.66 8.65 1.72 8.87 1.85L13.29 4.39C13.72 4.65 14 5.11 14 5.61L14 10.71ZM12.16 5.56L7.9 5.56C7.7 4.98 7.14 4.56 6.5 4.56C5.85 4.56 5.3 4.98 5.09 5.56L4.16 5.56C3.89 5.56 3.66 5.79 3.66 6.06C3.66 6.33 3.89 6.56 4.16 6.56L5.09 6.56C5.3 7.14 5.85 7.56 6.5 7.56C7.14 7.56 7.7 7.14 7.9 6.56L12.16 6.56C12.44 6.56 12.66 6.33 12.66 6.06C12.66 5.79 12.44 5.56 12.16 5.56ZM6.5 6.56C6.22 6.56 6 6.33 6 6.06C6 5.79 6.22 5.56 6.5 5.56C6.77 5.56 7 5.79 7 6.06C7 6.33 6.77 6.56 6.5 6.56ZM12.16 9.76L11.24 9.76C11.03 9.18 10.48 8.76 9.83 8.76C9.18 8.76 8.63 9.18 8.42 9.76L4.16 9.76C3.89 9.76 3.66 9.99 3.66 10.26C3.66 10.53 3.89 10.76 4.16 10.76L8.42 10.76C8.63 11.34 9.18 11.76 9.83 11.76C10.48 11.76 11.03 11.34 11.24 10.76L12.16 10.76C12.44 10.76 12.66 10.53 12.66 10.26C12.66 9.99 12.44 9.76 12.16 9.76ZM9.83 10.76C9.56 10.76 9.33 10.53 9.33 10.26C9.33 9.99 9.56 9.76 9.83 9.76C10.1 9.76 10.33 9.99 10.33 10.26C10.33 10.53 10.1 10.76 9.83 10.76Z" fill="currentColor" fill-opacity="1.000000" fill-rule="nonzero"/>
	</g>
</svg>
