<svg width="16.000000" height="16.000000" viewBox="0 0 16 16" fill="none" xmlns="http://www.w3.org/2000/svg" xmlns:xlink="http://www.w3.org/1999/xlink">
	<desc>
			Created with Pixso.
	</desc>
	<defs>
		<clipPath id="clip2_105">
			<rect id="23#确认配置2-confirm-configure2" width="16.000000" height="16.000000" fill="white" fill-opacity="0"/>
		</clipPath>
	</defs>
	<g clip-path="url(#clip2_105)">
		<path id="形状" d="M8.79 2.34L5.82 2.34C5.63 2.34 5.48 2.49 5.48 2.68L5.48 3.73C5.48 3.92 5.63 4.08 5.82 4.08L8.79 4.08C8.98 4.08 9.14 3.92 9.14 3.73L9.14 2.68C9.14 2.49 8.98 2.34 8.79 2.34ZM10.16 5.76C10.35 5.95 10.35 6.27 10.16 6.46L6.82 9.8C6.75 9.87 6.65 9.92 6.55 9.94L6.47 9.94C6.34 9.94 6.21 9.89 6.12 9.8L4.45 8.13C4.26 7.94 4.26 7.62 4.45 7.42C4.64 7.23 4.96 7.23 5.16 7.42L6.47 8.74L9.45 5.76C9.64 5.56 9.96 5.56 10.16 5.76ZM10.89 10.85C10.62 10.85 10.4 11.07 10.4 11.34C10.4 11.6 10.62 11.82 10.89 11.82C11.16 11.82 11.38 11.6 11.38 11.34C11.38 11.07 11.16 10.85 10.89 10.85ZM10.89 9.88C11.7 9.88 12.35 10.53 12.35 11.34C12.35 12.14 11.7 12.8 10.89 12.8C10.08 12.8 9.43 12.14 9.43 11.34C9.43 10.53 10.08 9.88 10.89 9.88ZM10.89 8.98C10.8 8.98 10.72 9 10.64 9.04L9.02 9.98C8.87 10.06 8.78 10.22 8.78 10.4L8.78 12.27C8.78 12.44 8.87 12.6 9.02 12.69L10.64 13.62C10.8 13.71 10.98 13.71 11.13 13.62L12.75 12.69C12.9 12.6 13 12.44 13 12.27L13 10.4C13 10.22 12.9 10.06 12.75 9.98L11.13 9.04C11.06 9 10.98 8.98 10.89 8.98ZM11.62 8.2L13.24 9.13C13.7 9.39 13.98 9.88 13.98 10.4L13.98 12.27C13.98 12.79 13.7 13.28 13.24 13.54L11.62 14.47C11.4 14.6 11.14 14.66 10.89 14.66C10.64 14.66 10.38 14.6 10.16 14.47L8.54 13.54C8.08 13.28 7.8 12.79 7.8 12.27L7.8 10.4C7.8 9.88 8.08 9.39 8.54 9.13L10.16 8.2C10.61 7.94 11.18 7.94 11.62 8.2ZM10.14 3.73C10.14 4.47 9.54 5.08 8.79 5.08L5.83 5.08C5.08 5.08 4.48 4.47 4.48 3.73L3.98 3.69C3.46 3.69 3.04 4.08 2.99 4.6L2.99 4.69L2.99 12.67C2.99 13.19 3.38 13.62 3.89 13.66L3.99 13.66L7.49 13.66C7.76 13.66 7.99 13.89 7.99 14.16C7.99 14.42 7.8 14.62 7.56 14.66L7.49 14.66L3.99 14.66C2.92 14.66 2.06 13.82 2 12.78L2 12.66L2 4.68C2 3.61 2.83 2.74 3.88 2.68L4 2.68L4.5 2.68C4.5 1.94 5.1 1.33 5.84 1.33L8.81 1.33C9.55 1.33 10.16 1.94 10.16 2.68L10.66 2.68C11.72 2.68 12.59 3.51 12.65 4.56L12.65 4.68L12.65 7.16C12.65 7.43 12.42 7.66 12.15 7.66C11.9 7.66 11.69 7.47 11.66 7.22L11.66 7.16L11.66 4.68C11.66 4.16 11.26 3.73 10.75 3.68L10.66 3.68L10.14 3.73Z" fill="currentColor" fill-opacity="1.000000" fill-rule="nonzero"/>
	</g>
</svg>
