<svg width="16.000000" height="16.000000" viewBox="0 0 16 16" fill="none" xmlns="http://www.w3.org/2000/svg" xmlns:xlink="http://www.w3.org/1999/xlink">
	<desc>
			Created with Pixso.
	</desc>
	<defs>
		<clipPath id="clip2_68">
			<rect id="24#节点|关系图-nodes" width="16.000000" height="16.000000" fill="white" fill-opacity="0"/>
		</clipPath>
	</defs>
	<g clip-path="url(#clip2_68)">
		<path id="形状" d="M12.83 10C12.25 10 11.71 10.23 11.33 10.6L8.33 8.87L8.33 5.6C9.28 5.37 9.99 4.52 9.99 3.5C9.99 2.3 9.02 1.33 7.83 1.33C6.63 1.33 5.66 2.3 5.66 3.5C5.66 4.52 6.37 5.37 7.33 5.6L7.33 8.87L4.33 10.6C3.94 10.23 3.41 10 2.83 10C1.63 10 0.66 10.97 0.66 12.16C0.66 13.36 1.63 14.33 2.83 14.33C4.02 14.33 4.99 13.36 4.99 12.16C4.99 11.91 4.94 11.68 4.87 11.45L7.83 9.74L10.79 11.45C10.71 11.68 10.66 11.91 10.66 12.16C10.66 13.36 11.63 14.33 12.83 14.33C14.02 14.33 14.99 13.36 14.99 12.16C14.99 10.97 14.02 10 12.83 10ZM6.66 3.5C6.66 2.86 7.19 2.33 7.83 2.33C8.47 2.33 8.99 2.86 8.99 3.5C8.99 4.14 8.47 4.66 7.83 4.66C7.19 4.66 6.66 4.14 6.66 3.5ZM2.83 13.33C2.19 13.33 1.66 12.8 1.66 12.16C1.66 11.52 2.19 11 2.83 11C3.47 11 3.99 11.52 3.99 12.16C3.99 12.8 3.47 13.33 2.83 13.33ZM12.83 13.33C12.19 13.33 11.66 12.8 11.66 12.16C11.66 11.52 12.19 11 12.83 11C13.47 11 13.99 11.52 13.99 12.16C13.99 12.8 13.47 13.33 12.83 13.33Z" fill="currentColor" fill-opacity="1.000000" fill-rule="nonzero"/>
	</g>
</svg>
