<svg width="16.000000" height="16.000000" viewBox="0 0 16 16" fill="none" xmlns="http://www.w3.org/2000/svg" xmlns:xlink="http://www.w3.org/1999/xlink">
	<desc>
			Created with Pixso.
	</desc>
	<defs>
		<clipPath id="clip2_6">
			<rect id="25#创建节点-create-node" width="16.000000" height="16.000000" fill="white" fill-opacity="0"/>
		</clipPath>
	</defs>
	<g clip-path="url(#clip2_6)">
		<path id="形状" d="M13.33 0.83C12.32 0.83 11.5 1.65 11.5 2.66C11.5 3.68 12.32 4.5 13.33 4.5C14.34 4.5 15.16 3.68 15.16 2.66C15.16 1.65 14.34 0.83 13.33 0.83ZM13.33 3.5C12.87 3.5 12.5 3.12 12.5 2.66C12.5 2.2 12.87 1.83 13.33 1.83C13.79 1.83 14.16 2.2 14.16 2.66C14.16 3.12 13.79 3.5 13.33 3.5ZM2.66 11.5C1.65 11.5 0.83 12.32 0.83 13.33C0.83 14.34 1.65 15.16 2.66 15.16C3.68 15.16 4.5 14.34 4.5 13.33C4.5 12.32 3.68 11.5 2.66 11.5ZM2.66 14.16C2.2 14.16 1.83 13.79 1.83 13.33C1.83 12.87 2.2 12.5 2.66 12.5C3.12 12.5 3.5 12.87 3.5 13.33C3.5 13.79 3.12 14.16 2.66 14.16ZM13.83 6.66L13.83 13.33C13.83 13.6 13.6 13.83 13.33 13.83L6.66 13.83C6.39 13.83 6.16 13.6 6.16 13.33C6.16 13.06 6.39 12.83 6.66 12.83L12.83 12.83L12.83 6.66C12.83 6.39 13.06 6.16 13.33 6.16C13.6 6.16 13.83 6.39 13.83 6.66ZM2.16 9.33L2.16 2.66C2.16 2.39 2.39 2.16 2.66 2.16L9.33 2.16C9.6 2.16 9.83 2.39 9.83 2.66C9.83 2.94 9.6 3.16 9.33 3.16L3.16 3.16L3.16 9.33C3.16 9.6 2.94 9.83 2.66 9.83C2.39 9.83 2.16 9.6 2.16 9.33ZM7.5 8.5L6 8.5C5.72 8.5 5.5 8.27 5.5 8C5.5 7.72 5.72 7.5 6 7.5L7.5 7.5L7.5 6C7.5 5.72 7.72 5.5 8 5.5C8.27 5.5 8.5 5.72 8.5 6L8.5 7.5L10 7.5C10.27 7.5 10.5 7.72 10.5 8C10.5 8.27 10.27 8.5 10 8.5L8.5 8.5L8.5 10C8.5 10.27 8.27 10.5 8 10.5C7.72 10.5 7.5 10.27 7.5 10L7.5 8.5Z" fill="currentColor" fill-opacity="1.000000" fill-rule="nonzero"/>
	</g>
</svg>
