<svg width="16.000000" height="16.000000" viewBox="0 0 16 16" fill="none" xmlns="http://www.w3.org/2000/svg" xmlns:xlink="http://www.w3.org/1999/xlink">
	<desc>
			Created with Pixso.
	</desc>
	<defs>
		<clipPath id="clip2_7">
			<rect id="26#节点池-node-pool" width="16.000000" height="16.000000" fill="white" fill-opacity="0"/>
		</clipPath>
	</defs>
	<g clip-path="url(#clip2_7)">
		<path id="形状" d="M10.66 6.5L13.34 6.5C13.98 6.5 14.5 5.98 14.5 5.34L14.5 2.66C14.5 2.02 13.98 1.5 13.34 1.5L10.66 1.5C10.02 1.5 9.5 2.02 9.5 2.66L9.5 3.5L2.66 3.5C2.02 3.5 1.5 4.02 1.5 4.66L1.5 11.33C1.5 11.98 2.01 12.5 2.66 12.5L9.5 12.5L9.5 13.34C9.5 13.98 10.02 14.5 10.66 14.5L13.34 14.5C13.98 14.5 14.5 13.98 14.5 13.34L14.5 10.66C14.5 10.02 13.98 9.5 13.34 9.5L10.66 9.5C10.02 9.5 9.5 10.02 9.5 10.66L9.5 11.5L2.66 11.5C2.57 11.5 2.5 11.42 2.5 11.33L2.5 4.66C2.5 4.58 2.57 4.5 2.66 4.5L9.5 4.5L9.5 5.34C9.5 5.98 10.02 6.5 10.66 6.5ZM10.5 10.66C10.5 10.57 10.57 10.5 10.66 10.5L13.34 10.5C13.42 10.5 13.5 10.57 13.5 10.66L13.5 13.34C13.5 13.42 13.42 13.5 13.34 13.5L10.66 13.5C10.57 13.5 10.5 13.42 10.5 13.34L10.5 10.66ZM10.5 2.66C10.5 2.57 10.57 2.5 10.66 2.5L13.34 2.5C13.42 2.5 13.5 2.57 13.5 2.66L13.5 5.34C13.5 5.42 13.42 5.5 13.34 5.5L10.66 5.5C10.57 5.5 10.5 5.42 10.5 5.34L10.5 2.66ZM5.5 10L5.5 8.5L4 8.5C3.72 8.5 3.5 8.27 3.5 8C3.5 7.72 3.72 7.5 4 7.5L5.5 7.5L5.5 6C5.5 5.72 5.72 5.5 6 5.5C6.27 5.5 6.5 5.72 6.5 6L6.5 7.5L8 7.5C8.27 7.5 8.5 7.72 8.5 8C8.5 8.27 8.27 8.5 8 8.5L6.5 8.5L6.5 10C6.5 10.27 6.27 10.5 6 10.5C5.72 10.5 5.5 10.27 5.5 10Z" fill="currentColor" fill-opacity="1.000000" fill-rule="nonzero"/>
	</g>
</svg>
