<svg width="16.000000" height="16.000000" viewBox="0 0 16 16" fill="none" xmlns="http://www.w3.org/2000/svg" xmlns:xlink="http://www.w3.org/1999/xlink">
	<desc>
			Created with Pixso.
	</desc>
	<defs>
		<clipPath id="clip2_40">
			<rect id="27#工作负载-workloads" width="16.000000" height="16.000000" fill="white" fill-opacity="0"/>
		</clipPath>
	</defs>
	<g clip-path="url(#clip2_40)">
		<path id="形状" d="M13.66 10L13.16 10L13.16 8.8C13.16 8.08 12.58 7.5 11.86 7.5L8.16 7.5L8.16 6L12.16 6C12.71 6 13.16 5.55 13.16 5L13.16 3C13.16 2.44 12.71 2 12.16 2L3.16 2C2.61 2 2.16 2.44 2.16 3L2.16 5C2.16 5.55 2.61 6 3.16 6L7.16 6L7.16 7.5L3.46 7.5C2.74 7.5 2.16 8.08 2.16 8.8L2.16 10L1.66 10C1.11 10 0.66 10.44 0.66 11L0.66 13C0.66 13.55 1.11 14 1.66 14L3.66 14C4.21 14 4.66 13.55 4.66 13L4.66 11C4.66 10.44 4.21 10 3.66 10L3.16 10L3.16 8.8C3.16 8.63 3.29 8.5 3.46 8.5L11.86 8.5C12.03 8.5 12.16 8.63 12.16 8.8L12.16 10L11.66 10C11.11 10 10.66 10.44 10.66 11L10.66 13C10.66 13.55 11.11 14 11.66 14L13.66 14C14.21 14 14.66 13.55 14.66 13L14.66 11C14.66 10.44 14.21 10 13.66 10ZM3.66 11L3.66 13L1.66 13L1.66 11L3.66 11ZM3.16 5L3.16 3L12.16 3L12.16 5L3.16 5ZM13.66 13L11.66 13L11.66 11L13.66 11L13.66 13Z" fill="currentColor" fill-opacity="1.000000" fill-rule="nonzero"/>
	</g>
</svg>
