<svg width="16.000000" height="16.000000" viewBox="0 0 16 16" fill="none" xmlns="http://www.w3.org/2000/svg" xmlns:xlink="http://www.w3.org/1999/xlink">
	<desc>
			Created with Pixso.
	</desc>
	<defs>
		<clipPath id="clip2_209">
			<rect id="28#主机数据-host-data" width="16.000000" height="16.000000" fill="white" fill-opacity="0"/>
		</clipPath>
	</defs>
	<g clip-path="url(#clip2_209)">
		<path id="形状结合" d="M5.5 12.5C5.5 13.05 5.04 13.5 4.5 13.5L2.5 13.5C1.95 13.5 1.5 13.05 1.5 12.5L1.5 11.5C1.5 10.95 1.95 10.5 2.5 10.5L4.5 10.5C5.04 10.5 5.5 10.95 5.5 11.5L7 11.5L7 8.5L5.5 8.5C5.5 9.05 5.04 9.5 4.5 9.5L2.5 9.5C1.95 9.5 1.5 9.05 1.5 8.5L1.5 7.5C1.5 6.95 1.95 6.5 2.5 6.5L4.5 6.5C5.04 6.5 5.5 6.95 5.5 7.5L7 7.5L7 4.5L5.5 4.5C5.5 5.05 5.04 5.5 4.5 5.5L2.5 5.5C1.95 5.5 1.5 5.05 1.5 4.5L1.5 3.5C1.5 2.95 1.95 2.5 2.5 2.5L4.5 2.5C5.04 2.5 5.5 2.95 5.5 3.5L7 3.5C7 2.11 8.12 1 9.5 1L11.5 1C12.88 1 14 2.11 14 3.5L14 12.5C14 13.16 13.74 13.8 13.27 14.27C12.8 14.74 12.16 15 11.5 15L9.5 15C8.12 15 7 13.88 7 12.5L5.5 12.5ZM11.5 2L9.5 2C8.67 2 8 2.67 8 3.5L8 12.5C8 13.33 8.67 14 9.5 14L11.5 14C12.33 14 13 13.33 13 12.5L13 3.5C13 2.67 12.33 2 11.5 2ZM10.5 11C10.94 11 11.3 11.36 11.3 11.8C11.3 12.24 10.94 12.6 10.5 12.6C10.06 12.6 9.7 12.24 9.7 11.8C9.7 11.36 10.06 11 10.5 11ZM4.5 11.5L2.5 11.5L2.5 12.5L4.5 12.5L4.5 11.5ZM11.5 8C11.78 8 12 8.22 12 8.5C12 8.78 11.78 9 11.5 9L9.5 9C9.22 9 9 8.78 9 8.5C9 8.22 9.22 8 9.5 8L11.5 8ZM4.5 7.5L2.5 7.5L2.5 8.5L4.5 8.5L4.5 7.5ZM11.5 6C11.78 6 12 6.22 12 6.5C12 6.78 11.78 7 11.5 7L9.5 7C9.22 7 9 6.78 9 6.5C9 6.22 9.22 6 9.5 6L11.5 6ZM11.5 4C11.78 4 12 4.21 12 4.5C12 4.78 11.78 5 11.5 5L9.5 5C9.22 5 9 4.78 9 4.5C9 4.21 9.22 4 9.5 4L11.5 4ZM4.5 3.5L2.5 3.5L2.5 4.5L4.5 4.5L4.5 3.5Z" fill="currentColor" fill-opacity="1.000000" fill-rule="nonzero"/>
	</g>
</svg>
