<svg width="16.000000" height="16.000000" viewBox="0 0 16 16" fill="none" xmlns="http://www.w3.org/2000/svg" xmlns:xlink="http://www.w3.org/1999/xlink">
	<desc>
			Created with Pixso.
	</desc>
	<defs>
		<clipPath id="clip2_140">
			<rect id="29#替换协议-ip-replace" width="16.000000" height="16.000000" fill="white" fill-opacity="0"/>
		</clipPath>
	</defs>
	<g clip-path="url(#clip2_140)">
		<path id="形状结合" d="M12.64 9.45C13.93 9.45 14.97 10.5 14.97 11.78C14.97 13.07 13.93 14.12 12.64 14.12L7.98 14.12C6.69 14.12 5.64 13.07 5.64 11.78C5.64 10.5 6.69 9.45 7.98 9.45L12.64 9.45ZM12.64 10.45L7.98 10.45C7.24 10.45 6.64 11.05 6.64 11.78L6.65 11.91C6.71 12.59 7.28 13.12 7.98 13.12L12.64 13.12C13.38 13.12 13.97 12.52 13.97 11.78C13.97 11.05 13.38 10.45 12.64 10.45ZM3.82 6.67L5.67 8.52C5.87 8.71 5.87 9.03 5.67 9.22L3.82 11.07C3.63 11.27 3.31 11.27 3.12 11.07L3.06 11C2.92 10.81 2.94 10.54 3.12 10.37L4.11 9.37L1.62 9.37C1.37 9.37 1.16 9.18 1.12 8.94L1.12 8.87C1.12 8.59 1.34 8.37 1.62 8.37L4.11 8.37L3.12 7.37C2.92 7.18 2.92 6.86 3.12 6.67C3.31 6.47 3.63 6.47 3.82 6.67ZM8.56 1.37C8.84 1.37 9.06 1.6 9.06 1.87L9.06 3.62L12.64 3.62C13.93 3.62 14.97 4.67 14.97 5.95C14.97 7.24 13.93 8.29 12.64 8.29L7.98 8.29C6.69 8.29 5.64 7.24 5.64 5.95C5.64 4.67 6.69 3.62 7.98 3.62L8.06 3.62L8.06 1.87C8.06 1.6 8.28 1.37 8.56 1.37ZM12.64 4.62L7.98 4.62C7.24 4.62 6.64 5.22 6.64 5.95L6.65 6.08C6.71 6.76 7.28 7.29 7.98 7.29L12.64 7.29C13.38 7.29 13.97 6.69 13.97 5.95C13.97 5.22 13.38 4.62 12.64 4.62Z" fill="currentColor" fill-opacity="1.000000" fill-rule="nonzero"/>
	</g>
</svg>
