<svg width="16.000000" height="16.000000" viewBox="0 0 16 16" fill="none" xmlns="http://www.w3.org/2000/svg" xmlns:xlink="http://www.w3.org/1999/xlink">
	<desc>
			Created with Pixso.
	</desc>
	<defs>
		<clipPath id="clip2_221">
			<rect id="3#pycharm插件|电脑-pycharm" width="16.000000" height="16.000000" fill="white" fill-opacity="0"/>
		</clipPath>
	</defs>
	<g clip-path="url(#clip2_221)">
		<path id="path" d="M13.17 1.5L2.82 1.5C1.82 1.5 1 2.32 1 3.33L1 10.66C1 11.67 1.82 12.49 2.82 12.49L13.17 12.49C14.18 12.49 15 11.67 15 10.66L15 3.33C15 2.32 14.18 1.5 13.17 1.5ZM14 10.67C14 11.13 13.63 11.5 13.17 11.5L2.82 11.5C2.36 11.5 2 11.13 2 10.67L2 3.33C2 2.87 2.36 2.5 2.82 2.5L13.17 2.5C13.63 2.5 14 2.87 14 3.33L14 10.67ZM6 4L4.5 4C4.21 4 4 4.21 4 4.5L4 9C4 9.28 4.21 9.5 4.5 9.5C4.78 9.5 5 9.28 5 9L5 8L6 8C7.1 8 8 7.1 8 6C8 4.89 7.1 4 6 4ZM6 7L5 7L5 5L6 5C6.54 5 7 5.45 7 6C7 6.55 6.54 7 6 7ZM12.47 8.7C12.56 8.96 12.43 9.25 12.17 9.34C11.87 9.45 11.57 9.5 11.25 9.5C9.73 9.5 8.5 8.27 8.5 6.75C8.5 5.23 9.73 4 11.25 4C11.56 4 11.87 4.05 12.17 4.16C12.43 4.25 12.57 4.53 12.48 4.8C12.39 5.06 12.1 5.2 11.84 5.11C11.65 5.03 11.46 5 11.26 5C10.3 5 9.51 5.8 9.51 6.75C9.51 7.72 10.29 8.5 11.26 8.5C11.46 8.5 11.66 8.47 11.84 8.41C12.1 8.32 12.37 8.43 12.47 8.7ZM12.5 14C12.5 14.28 12.28 14.5 12 14.5L4 14.5C3.72 14.5 3.5 14.28 3.5 14C3.5 13.72 3.72 13.5 4 13.5L12 13.5C12.28 13.5 12.5 13.72 12.5 14Z" fill="currentColor" fill-opacity="1.000000" fill-rule="nonzero"/>
	</g>
</svg>
