<svg width="16.000000" height="16.000000" viewBox="0 0 16 16" fill="none" xmlns="http://www.w3.org/2000/svg" xmlns:xlink="http://www.w3.org/1999/xlink">
	<desc>
			Created with Pixso.
	</desc>
	<defs>
		<clipPath id="clip2_241">
			<rect id="30#安装失败-install-failed" width="16.000000" height="16.000000" fill="white" fill-opacity="0"/>
		</clipPath>
	</defs>
	<g clip-path="url(#clip2_241)">
		<rect id="矩形" width="16.000000" height="16.000000" fill="#000000" fill-opacity="0"/>
		<path id="矢量 154" d="M12.53 1.55C12.36 1.51 12.18 1.5 12 1.5L4 1.5C3.81 1.5 3.63 1.51 3.46 1.55C3.31 1.59 3.16 1.63 3.02 1.69C2.88 1.75 2.75 1.82 2.62 1.91C2.48 2 2.35 2.1 2.23 2.23C2.11 2.33 2.01 2.45 1.92 2.59C1.84 2.72 1.75 2.88 1.69 3.02C1.63 3.16 1.59 3.31 1.55 3.46C1.5 3.63 1.5 3.81 1.5 4L1.5 12.5C1.5 12.64 1.5 12.78 1.53 12.92C1.57 13.04 1.6 13.16 1.64 13.27C1.7 13.39 1.75 13.5 1.83 13.6C1.89 13.71 1.98 13.81 2.08 13.91C2.17 14.01 2.28 14.09 2.39 14.16C2.49 14.23 2.6 14.29 2.72 14.34C2.83 14.39 2.95 14.42 3.07 14.45C3.21 14.48 3.35 14.5 3.5 14.5L12.5 14.5C12.64 14.5 12.78 14.48 12.92 14.45C13.04 14.42 13.16 14.39 13.27 14.34C13.39 14.29 13.5 14.23 13.6 14.16C13.71 14.09 13.81 14.01 13.91 13.91C14.01 13.81 14.09 13.71 14.16 13.6C14.23 13.5 14.29 13.39 14.34 13.27C14.39 13.16 14.42 13.04 14.45 12.92C14.48 12.78 14.5 12.64 14.5 12.5L14.5 4C14.5 3.81 14.48 3.63 14.44 3.46C14.4 3.31 14.36 3.16 14.3 3.02C14.24 2.88 14.17 2.75 14.08 2.62C13.99 2.48 13.88 2.34 13.76 2.23C13.64 2.1 13.51 2 13.37 1.91C13.24 1.82 13.11 1.75 12.97 1.69C12.83 1.63 12.68 1.59 12.53 1.55ZM2.5 4L2.5 10.76C2.57 10.72 2.64 10.68 2.72 10.65C2.83 10.6 2.95 10.57 3.07 10.54C3.21 10.51 3.35 10.5 3.5 10.5L12.5 10.5C12.64 10.5 12.78 10.51 12.92 10.54C13.04 10.57 13.16 10.6 13.27 10.65C13.35 10.68 13.42 10.72 13.5 10.76L13.5 4C13.5 3.88 13.48 3.77 13.46 3.65C13.44 3.57 13.41 3.49 13.38 3.41C13.34 3.33 13.3 3.25 13.25 3.18C13.2 3.09 13.13 3.01 13.06 2.93C12.98 2.86 12.9 2.79 12.81 2.74C12.74 2.69 12.66 2.65 12.58 2.61C12.5 2.58 12.42 2.55 12.34 2.53C12.22 2.51 12.11 2.5 12 2.5L4 2.5C3.88 2.5 3.77 2.51 3.64 2.53C3.57 2.55 3.49 2.58 3.41 2.61C3.33 2.65 3.25 2.69 3.17 2.74C3.09 2.79 3 2.86 2.92 2.93C2.86 3.01 2.78 3.09 2.74 3.18C2.69 3.25 2.64 3.33 2.61 3.41C2.58 3.49 2.55 3.57 2.53 3.65C2.5 3.77 2.5 3.88 2.5 4ZM6.85 4.64C6.64 4.44 6.34 4.44 6.14 4.64C5.94 4.84 5.94 5.15 6.14 5.35L7.28 6.5L6.14 7.64C5.94 7.84 5.94 8.14 6.14 8.35C6.34 8.55 6.64 8.55 6.85 8.35L8 7.2L9.14 8.35C9.34 8.55 9.64 8.55 9.85 8.35C10.05 8.14 10.05 7.84 9.85 7.64L8.7 6.5L9.85 5.35C10.05 5.15 10.05 4.84 9.85 4.64C9.64 4.44 9.34 4.44 9.14 4.64L8 5.79L6.85 4.64ZM13.47 12.26C13.49 12.34 13.5 12.42 13.5 12.5C13.5 12.57 13.49 12.65 13.47 12.73C13.46 12.78 13.44 12.83 13.42 12.88C13.39 12.94 13.37 12.99 13.33 13.04C13.3 13.1 13.25 13.15 13.2 13.2C13.15 13.25 13.1 13.3 13.04 13.33C12.99 13.37 12.94 13.39 12.88 13.42C12.83 13.44 12.78 13.46 12.73 13.47C12.65 13.49 12.57 13.5 12.5 13.5L3.5 13.5C3.42 13.5 3.34 13.49 3.25 13.47C3.21 13.46 3.16 13.44 3.11 13.42C3.05 13.39 3 13.37 2.95 13.33C2.89 13.3 2.84 13.25 2.78 13.2C2.74 13.15 2.69 13.1 2.66 13.04C2.62 12.99 2.6 12.94 2.57 12.88C2.55 12.83 2.53 12.78 2.52 12.73C2.5 12.65 2.5 12.57 2.5 12.5C2.5 12.42 2.5 12.34 2.52 12.26C2.53 12.21 2.55 12.16 2.57 12.11C2.6 12.05 2.62 12 2.66 11.95C2.69 11.89 2.74 11.84 2.78 11.79C2.84 11.74 2.89 11.69 2.95 11.66C3 11.62 3.05 11.6 3.11 11.57C3.16 11.55 3.21 11.53 3.25 11.52C3.34 11.5 3.42 11.5 3.5 11.5L12.5 11.5C12.57 11.5 12.65 11.5 12.73 11.52C12.78 11.53 12.83 11.55 12.88 11.57C12.94 11.6 12.99 11.62 13.04 11.66C13.1 11.69 13.15 11.74 13.2 11.79C13.25 11.84 13.3 11.89 13.33 11.95C13.37 12 13.39 12.05 13.42 12.11C13.44 12.16 13.46 12.21 13.47 12.26ZM4.12 12C3.84 12 3.62 12.22 3.62 12.5C3.62 12.77 3.84 13 4.12 13C4.39 13 4.62 12.77 4.62 12.5C4.62 12.22 4.39 12 4.12 12Z" fill="currentColor" fill-opacity="1.000000" fill-rule="evenodd"/>
	</g>
</svg>
