<svg width="16.000000" height="16.000000" viewBox="0 0 16 16" fill="none" xmlns="http://www.w3.org/2000/svg" xmlns:xlink="http://www.w3.org/1999/xlink">
	<desc>
			Created with Pixso.
	</desc>
	<defs>
		<clipPath id="clip2_242">
			<rect id="31#防护策略-protection-policy" width="16.000000" height="16.000000" fill="white" fill-opacity="0"/>
		</clipPath>
	</defs>
	<g clip-path="url(#clip2_242)">
		<rect id="矩形" width="16.000000" height="16.000000" fill="#000000" fill-opacity="0"/>
		<path id="矢量 151" d="M12.53 1.55C12.36 1.51 12.18 1.5 12 1.5L4 1.5C3.81 1.5 3.63 1.51 3.46 1.55C3.31 1.59 3.16 1.63 3.02 1.69C2.88 1.75 2.75 1.82 2.62 1.91C2.48 2 2.35 2.1 2.23 2.23C2.11 2.33 2.01 2.45 1.92 2.59C1.84 2.72 1.75 2.88 1.69 3.02C1.63 3.16 1.59 3.31 1.55 3.46C1.5 3.63 1.5 3.81 1.5 4L1.5 12C1.5 12.18 1.5 12.36 1.55 12.53C1.59 12.68 1.63 12.83 1.69 12.97C1.75 13.11 1.82 13.25 1.91 13.37C2 13.51 2.1 13.64 2.23 13.76C2.35 13.88 2.48 13.99 2.62 14.08C2.75 14.17 2.88 14.24 3.02 14.3C3.16 14.36 3.31 14.4 3.46 14.44C3.63 14.48 3.81 14.5 4 14.5L12 14.5C12.18 14.5 12.36 14.48 12.53 14.44C12.68 14.4 12.83 14.36 12.97 14.3C13.11 14.24 13.24 14.17 13.37 14.08C13.51 13.99 13.64 13.88 13.76 13.76C13.87 13.65 13.97 13.53 14.06 13.4C14.15 13.28 14.24 13.11 14.3 12.97C14.36 12.83 14.4 12.68 14.44 12.53C14.48 12.36 14.5 12.18 14.5 12L14.5 4C14.5 3.81 14.48 3.63 14.44 3.46C14.4 3.31 14.36 3.16 14.3 3.02C14.24 2.88 14.17 2.75 14.08 2.62C13.99 2.48 13.88 2.34 13.76 2.23C13.64 2.1 13.51 2 13.37 1.91C13.24 1.82 13.11 1.75 12.97 1.69C12.83 1.63 12.68 1.59 12.53 1.55ZM4 2.5L12 2.5C12.11 2.5 12.22 2.51 12.34 2.53C12.42 2.55 12.5 2.58 12.58 2.61C12.66 2.65 12.74 2.69 12.81 2.74C12.9 2.79 12.98 2.86 13.06 2.93C13.13 3.01 13.2 3.09 13.25 3.18C13.3 3.25 13.34 3.33 13.38 3.41C13.41 3.49 13.44 3.57 13.46 3.65C13.48 3.77 13.5 3.88 13.5 4L13.5 12C13.5 12.11 13.48 12.23 13.46 12.34C13.44 12.42 13.41 12.5 13.38 12.58C13.34 12.66 13.3 12.74 13.25 12.81C13.2 12.9 13.13 12.98 13.06 13.06C12.98 13.13 12.89 13.19 12.81 13.25C12.74 13.3 12.66 13.34 12.58 13.38C12.5 13.41 12.42 13.44 12.34 13.46C12.22 13.48 12.11 13.5 12 13.5L4 13.5C3.88 13.5 3.77 13.48 3.64 13.46C3.57 13.44 3.49 13.41 3.41 13.38C3.33 13.34 3.25 13.3 3.17 13.25C3.09 13.2 3 13.13 2.92 13.06C2.86 12.98 2.78 12.9 2.74 12.81C2.69 12.74 2.64 12.66 2.61 12.58C2.58 12.5 2.55 12.42 2.53 12.34C2.5 12.23 2.5 12.11 2.5 12L2.5 4C2.5 3.88 2.5 3.77 2.53 3.65C2.55 3.57 2.58 3.49 2.61 3.41C2.64 3.33 2.69 3.25 2.74 3.18C2.78 3.09 2.86 3.01 2.92 2.93C3 2.86 3.09 2.79 3.17 2.74C3.25 2.69 3.33 2.65 3.41 2.61C3.49 2.58 3.57 2.55 3.64 2.53C3.77 2.51 3.88 2.5 4 2.5ZM8.49 4.25C8.49 3.97 8.27 3.75 7.99 3.75C7.71 3.75 7.49 3.97 7.49 4.25L7.49 4.44C7.35 4.46 7.21 4.48 7.07 4.53C6.86 4.57 6.64 4.64 6.44 4.71C6.17 4.83 5.92 4.96 5.7 5.12C5.5 5.25 5.34 5.39 5.17 5.55C4.94 5.76 4.75 6 4.59 6.25C4.48 6.41 4.39 6.59 4.31 6.78C4.21 7.01 4.13 7.25 4.08 7.5C4.02 7.76 4 8.02 4 8.29C4 8.34 4 8.39 4 8.43C4 8.5 4.02 8.57 4.03 8.63C4.07 8.68 4.11 8.74 4.16 8.79C4.25 8.88 4.38 8.92 4.52 8.92C4.66 8.91 4.77 8.85 4.87 8.76C4.89 8.72 4.94 8.68 4.99 8.64C5.06 8.59 5.13 8.54 5.21 8.51C5.27 8.49 5.32 8.47 5.38 8.45C5.47 8.43 5.56 8.42 5.66 8.42C5.75 8.42 5.85 8.43 5.94 8.45C5.99 8.47 6.06 8.49 6.11 8.51C6.19 8.55 6.25 8.59 6.33 8.64C6.38 8.68 6.42 8.72 6.46 8.76C6.56 8.85 6.71 8.93 6.85 8.92C6.99 8.92 7.1 8.85 7.2 8.76C7.24 8.72 7.28 8.68 7.32 8.64C7.39 8.59 7.41 8.51 7.49 8.47L7.49 10.75C7.48 10.77 7.45 10.9 7.42 10.92C7.39 10.93 7.28 11 7.25 11C7.22 10.98 7.09 10.95 7.07 10.92C7.06 10.89 7 10.78 7 10.75L7 10.61C7 10.33 6.78 10.1 6.5 10.1C6.21 10.1 6 10.33 6 10.61L6 10.75C6 10.84 6 10.92 6.02 11.01C6.03 11.08 6.06 11.16 6.09 11.23C6.12 11.3 6.16 11.37 6.2 11.44C6.25 11.5 6.3 11.57 6.36 11.63C6.42 11.69 6.49 11.74 6.55 11.79C6.62 11.83 6.69 11.87 6.75 11.9C6.83 11.93 6.89 11.95 6.98 11.97C7.07 11.99 7.14 12 7.25 12C7.34 12 7.42 11.99 7.5 11.97C7.58 11.95 7.66 11.93 7.73 11.9C7.8 11.87 7.87 11.83 7.94 11.79C8 11.74 8.06 11.69 8.13 11.63C8.18 11.57 8.24 11.5 8.28 11.44C8.33 11.37 8.37 11.3 8.39 11.23C8.43 11.16 8.45 11.08 8.47 11.01C8.49 10.92 8.49 10.84 8.49 10.75L8.49 8.47C8.58 8.51 8.6 8.59 8.66 8.64C8.71 8.68 8.75 8.72 8.78 8.76C8.89 8.85 9.05 8.93 9.17 8.92C9.31 8.92 9.43 8.85 9.53 8.76C9.56 8.72 9.6 8.68 9.66 8.64C9.72 8.58 9.8 8.54 9.88 8.51C9.93 8.49 9.99 8.47 10.04 8.45C10.14 8.43 10.22 8.42 10.33 8.42C10.43 8.42 10.52 8.43 10.61 8.45C10.67 8.47 10.72 8.49 10.78 8.51C10.86 8.54 10.93 8.59 11 8.64C11.04 8.68 11.08 8.72 11.12 8.76C11.17 8.81 11.22 8.85 11.28 8.87C11.34 8.89 11.41 8.92 11.47 8.92C11.61 8.92 11.73 8.88 11.83 8.79C11.93 8.68 11.99 8.58 11.99 8.43C11.99 8.39 12 8.34 12 8.29C12 8.02 11.97 7.76 11.91 7.5C11.86 7.25 11.78 7.01 11.68 6.78C11.6 6.59 11.5 6.42 11.4 6.26C11.23 6.01 11.04 5.76 10.82 5.55C10.65 5.39 10.48 5.25 10.29 5.12C10.06 4.96 9.81 4.83 9.55 4.71C9.34 4.64 9.13 4.57 8.92 4.53C8.78 4.48 8.64 4.46 8.49 4.44L8.49 4.25ZM10.76 7.18C10.81 7.28 10.84 7.38 10.88 7.49C10.72 7.45 10.5 7.42 10.33 7.42C10.16 7.42 10 7.43 9.84 7.47C9.71 7.5 9.59 7.54 9.47 7.6C9.35 7.64 9.25 7.7 9.16 7.77C9.06 7.7 8.96 7.64 8.85 7.6C8.72 7.54 8.6 7.5 8.49 7.47C8.33 7.43 8.16 7.42 8 7.42C7.83 7.42 7.66 7.43 7.5 7.47C7.38 7.5 7.25 7.54 7.14 7.6C7.03 7.64 6.92 7.7 6.83 7.77C6.73 7.7 6.63 7.64 6.52 7.6C6.39 7.54 6.28 7.5 6.14 7.47C5.99 7.43 5.82 7.42 5.66 7.42C5.49 7.42 5.27 7.45 5.11 7.49C5.14 7.38 5.17 7.28 5.23 7.18C5.28 7.06 5.34 6.94 5.41 6.83C5.53 6.62 5.69 6.44 5.87 6.27C5.99 6.15 6.11 6.05 6.25 5.96C6.42 5.84 6.62 5.73 6.82 5.65C6.97 5.59 7.11 5.54 7.25 5.51C7.5 5.45 7.74 5.42 8 5.42C8.24 5.42 8.49 5.45 8.72 5.51C8.88 5.54 9.02 5.59 9.17 5.65C9.37 5.73 9.56 5.84 9.74 5.96C9.88 6.05 10 6.15 10.12 6.27C10.3 6.44 10.45 6.62 10.58 6.83C10.65 6.94 10.71 7.06 10.76 7.18Z" fill="currentColor" fill-opacity="1.000000" fill-rule="evenodd"/>
	</g>
</svg>
