<svg width="16.000000" height="16.000000" viewBox="0 0 16 16" fill="none" xmlns="http://www.w3.org/2000/svg" xmlns:xlink="http://www.w3.org/1999/xlink">
	<desc>
			Created with Pixso.
	</desc>
	<defs>
		<clipPath id="clip2_243">
			<rect id="32#合规策略-compliance-policy" width="16.000000" height="16.000000" fill="white" fill-opacity="0"/>
		</clipPath>
	</defs>
	<g clip-path="url(#clip2_243)">
		<rect id="矩形" width="16.000000" height="16.000000" fill="#000000" fill-opacity="0"/>
		<path id="矢量 153" d="M13.31 5.78C13.21 5.76 13.1 5.75 13 5.75L13 3.75C13 3.56 12.98 3.38 12.94 3.21C12.9 3.06 12.86 2.91 12.8 2.77C12.74 2.63 12.67 2.5 12.58 2.36C12.49 2.23 12.38 2.09 12.26 1.98C12.14 1.86 12.01 1.75 11.87 1.66C11.74 1.57 11.61 1.5 11.47 1.44C11.33 1.38 11.18 1.34 11.03 1.3C10.86 1.26 10.68 1.25 10.5 1.25L4 1.25C3.81 1.25 3.63 1.26 3.46 1.3C3.31 1.34 3.16 1.38 3.02 1.44C2.88 1.5 2.75 1.57 2.62 1.66C2.48 1.75 2.35 1.86 2.23 1.98C2.1 2.09 2 2.23 1.91 2.36C1.82 2.5 1.75 2.63 1.69 2.77C1.63 2.91 1.59 3.06 1.55 3.21C1.5 3.38 1.5 3.56 1.5 3.75L1.5 12.25C1.5 12.43 1.5 12.61 1.55 12.78C1.59 12.93 1.63 13.08 1.69 13.22C1.75 13.36 1.82 13.5 1.91 13.62C2 13.76 2.1 13.89 2.23 14.01C2.35 14.13 2.48 14.24 2.62 14.33C2.74 14.41 2.88 14.49 3.02 14.55C3.16 14.61 3.31 14.65 3.46 14.69C3.63 14.73 3.81 14.75 4 14.75L12 14.75C12.18 14.75 12.36 14.73 12.53 14.69C12.68 14.65 12.83 14.61 12.97 14.55C13.11 14.49 13.25 14.42 13.37 14.33C13.51 14.24 13.64 14.13 13.76 14.01C13.88 13.89 13.99 13.76 14.08 13.62C14.17 13.5 14.24 13.36 14.3 13.22C14.36 13.08 14.4 12.93 14.44 12.78C14.48 12.6 14.5 12.43 14.5 12.25L14.5 7.25C14.5 7.14 14.48 7.03 14.46 6.93C14.44 6.84 14.41 6.75 14.38 6.66C14.34 6.58 14.3 6.49 14.25 6.42C14.19 6.33 14.13 6.26 14.06 6.18C13.98 6.11 13.91 6.05 13.82 5.99C13.75 5.94 13.67 5.9 13.58 5.86C13.49 5.83 13.4 5.8 13.31 5.78ZM13 12L13 6.75C13.06 6.75 13.13 6.76 13.19 6.78C13.25 6.81 13.3 6.84 13.35 6.89C13.4 6.94 13.43 6.99 13.46 7.05C13.48 7.1 13.5 7.17 13.5 7.25L13.5 12.25C13.5 12.36 13.48 12.48 13.46 12.59C13.44 12.67 13.41 12.75 13.38 12.83C13.34 12.91 13.3 12.98 13.25 13.06C13.2 13.15 13.13 13.23 13.06 13.31C12.98 13.38 12.89 13.44 12.81 13.5C12.74 13.55 12.66 13.59 12.58 13.63C12.5 13.66 12.42 13.69 12.34 13.71C12.23 13.73 12.11 13.75 12 13.75L4 13.75C3.88 13.75 3.77 13.73 3.66 13.71C3.57 13.69 3.49 13.66 3.41 13.63C3.33 13.59 3.25 13.55 3.17 13.5C3.09 13.44 3 13.38 2.92 13.31C2.86 13.23 2.78 13.15 2.74 13.06C2.69 12.99 2.64 12.91 2.61 12.83C2.58 12.75 2.55 12.67 2.53 12.59C2.5 12.48 2.5 12.36 2.5 12.25L2.5 3.75C2.5 3.63 2.5 3.52 2.53 3.4C2.55 3.32 2.58 3.24 2.61 3.16C2.64 3.08 2.69 3 2.74 2.93C2.78 2.84 2.86 2.76 2.92 2.68C3 2.6 3.09 2.54 3.17 2.49C3.25 2.44 3.33 2.4 3.41 2.35C3.49 2.33 3.57 2.3 3.64 2.28C3.77 2.26 3.88 2.25 4 2.25L10.5 2.25C10.61 2.25 10.73 2.26 10.84 2.28C10.92 2.3 11 2.32 11.08 2.35C11.16 2.4 11.24 2.44 11.31 2.49C11.4 2.54 11.48 2.61 11.56 2.68C11.63 2.76 11.7 2.84 11.75 2.93C11.8 3 11.84 3.08 11.88 3.16C11.91 3.24 11.94 3.32 11.96 3.4C11.98 3.52 12 3.63 12 3.75L12 12C12 12.27 12.22 12.5 12.5 12.5C12.78 12.5 13 12.27 13 12ZM8.88 7.01C9.08 7.21 9.39 7.21 9.59 7.01C9.68 6.91 9.72 6.78 9.72 6.65C9.72 6.53 9.68 6.4 9.59 6.3L9.25 5.96L7.83 4.54L7.47 4.17C7.27 3.98 6.96 3.98 6.75 4.17C6.66 4.28 6.61 4.41 6.61 4.53C6.61 4.66 6.66 4.79 6.75 4.89L4.64 7.01C4.44 6.81 4.13 6.81 3.92 7.01C3.83 7.11 3.78 7.23 3.78 7.36C3.78 7.49 3.83 7.62 3.92 7.71L4.27 8.06L6.05 9.84C6.25 10.03 6.56 10.03 6.75 9.84C6.86 9.74 6.91 9.6 6.91 9.47C6.91 9.35 6.86 9.22 6.75 9.13L7.46 8.42L9.93 10.9C10.14 11.09 10.45 11.09 10.65 10.9C10.75 10.8 10.8 10.67 10.8 10.54C10.8 10.42 10.75 10.29 10.65 10.18L8.17 7.71L8.88 7.01ZM7.46 5.59L8.17 6.3L6.05 8.42L5.34 7.71L7.46 5.59ZM4.25 10.25C3.97 10.25 3.75 10.47 3.75 10.75C3.75 11.02 3.97 11.25 4.25 11.25L7.75 11.25C8.03 11.25 8.25 11.02 8.25 10.75C8.25 10.47 8.03 10.25 7.75 10.25L4.25 10.25Z" fill="currentColor" fill-opacity="1.000000" fill-rule="evenodd"/>
	</g>
</svg>
