<svg width="16.000000" height="16.000000" viewBox="0 0 16 16" fill="none" xmlns="http://www.w3.org/2000/svg" xmlns:xlink="http://www.w3.org/1999/xlink">
	<desc>
			Created with Pixso.
	</desc>
	<defs>
		<clipPath id="clip2_247">
			<rect id="33#空闲配额-idle-quota" width="16.000000" height="16.000000" fill="white" fill-opacity="0"/>
		</clipPath>
	</defs>
	<g clip-path="url(#clip2_247)">
		<rect id="矩形" width="16.000000" height="16.000000" fill="#000000" fill-opacity="0"/>
		<path id="矢量 149" d="M12.53 1.55C12.36 1.51 12.18 1.5 12 1.5L4 1.5C3.81 1.5 3.63 1.51 3.46 1.55C3.31 1.59 3.16 1.63 3.02 1.69C2.88 1.75 2.75 1.82 2.62 1.91C2.48 2 2.35 2.1 2.23 2.23C2.11 2.33 2.01 2.45 1.92 2.59C1.84 2.72 1.75 2.88 1.69 3.02C1.63 3.16 1.59 3.31 1.55 3.46C1.5 3.63 1.5 3.81 1.5 4L1.5 12C1.5 12.18 1.5 12.36 1.55 12.53C1.59 12.68 1.63 12.83 1.69 12.97C1.75 13.11 1.82 13.25 1.91 13.37C2 13.51 2.1 13.64 2.23 13.76C2.35 13.88 2.48 13.99 2.62 14.08C2.75 14.17 2.88 14.24 3.02 14.3C3.16 14.36 3.31 14.4 3.46 14.44C3.63 14.48 3.81 14.5 4 14.5L12 14.5C12.18 14.5 12.36 14.48 12.53 14.44C12.68 14.4 12.83 14.36 12.97 14.3C13.11 14.24 13.24 14.17 13.37 14.08C13.51 13.99 13.64 13.88 13.76 13.76C13.87 13.65 13.97 13.53 14.06 13.4C14.15 13.28 14.24 13.11 14.3 12.97C14.36 12.83 14.4 12.68 14.44 12.53C14.48 12.36 14.5 12.18 14.5 12L14.5 4C14.5 3.81 14.48 3.63 14.44 3.46C14.4 3.31 14.36 3.16 14.3 3.02C14.24 2.88 14.17 2.75 14.08 2.62C13.99 2.48 13.88 2.34 13.76 2.23C13.64 2.1 13.51 2 13.37 1.91C13.24 1.82 13.11 1.75 12.97 1.69C12.83 1.63 12.68 1.59 12.53 1.55ZM4 2.5L12 2.5C12.11 2.5 12.22 2.51 12.34 2.53C12.42 2.55 12.5 2.58 12.58 2.61C12.66 2.65 12.74 2.69 12.81 2.74C12.9 2.79 12.98 2.86 13.06 2.93C13.13 3.01 13.2 3.09 13.25 3.18C13.3 3.25 13.34 3.33 13.38 3.41C13.41 3.49 13.44 3.57 13.46 3.65C13.48 3.77 13.5 3.88 13.5 4L13.5 12C13.5 12.11 13.48 12.23 13.46 12.34C13.44 12.42 13.41 12.5 13.38 12.58C13.34 12.66 13.3 12.74 13.25 12.81C13.2 12.9 13.13 12.98 13.06 13.06C12.98 13.13 12.89 13.19 12.81 13.25C12.74 13.3 12.66 13.34 12.58 13.38C12.5 13.41 12.42 13.44 12.34 13.46C12.22 13.48 12.11 13.5 12 13.5L4 13.5C3.88 13.5 3.77 13.48 3.64 13.46C3.57 13.44 3.49 13.41 3.41 13.38C3.33 13.34 3.25 13.3 3.17 13.25C3.09 13.2 3 13.13 2.92 13.06C2.86 12.98 2.78 12.9 2.74 12.81C2.69 12.74 2.64 12.66 2.61 12.58C2.58 12.5 2.55 12.42 2.53 12.34C2.5 12.23 2.5 12.11 2.5 12L2.5 4C2.5 3.88 2.5 3.77 2.53 3.65C2.55 3.57 2.58 3.49 2.61 3.41C2.64 3.33 2.69 3.25 2.74 3.18C2.78 3.09 2.86 3.01 2.92 2.93C3 2.86 3.09 2.79 3.17 2.74C3.25 2.69 3.33 2.65 3.41 2.61C3.49 2.58 3.57 2.55 3.64 2.53C3.77 2.51 3.88 2.5 4 2.5ZM8.5 4.5C8.5 4.21 8.28 4 8 4C7.71 4 7.5 4.21 7.5 4.5L7.5 5.5C7.5 5.77 7.71 6 8 6C8.28 6 8.5 5.77 8.5 5.5L8.5 4.5ZM10.82 5.87C10.92 5.77 10.97 5.65 10.97 5.52C10.97 5.39 10.92 5.27 10.82 5.17C10.63 4.96 10.31 4.96 10.12 5.17L9.41 5.87C9.31 5.97 9.25 6.1 9.25 6.23C9.25 6.35 9.31 6.48 9.41 6.58C9.6 6.78 9.92 6.78 10.12 6.58L10.82 5.87ZM5.87 5.17C5.67 4.96 5.36 4.96 5.17 5.17C5.07 5.27 5.02 5.39 5.02 5.52C5.02 5.65 5.07 5.77 5.17 5.87L5.87 6.58C6.07 6.78 6.38 6.78 6.58 6.58C6.67 6.48 6.73 6.35 6.73 6.23C6.73 6.1 6.67 5.97 6.58 5.87L5.87 5.17ZM4.5 7.5C4.21 7.5 4 7.72 4 8C4 8.27 4.21 8.5 4.5 8.5L5.5 8.5C5.78 8.5 6 8.27 6 8C6 7.72 5.78 7.5 5.5 7.5L4.5 7.5ZM11.5 8.5C11.78 8.5 12 8.27 12 8C12 7.72 11.78 7.5 11.5 7.5L10.5 7.5C10.22 7.5 10 7.72 10 8C10 8.27 10.22 8.5 10.5 8.5L11.5 8.5ZM10.12 10.82C10.31 11.02 10.63 11.02 10.82 10.82C10.92 10.72 10.97 10.6 10.97 10.47C10.97 10.34 10.92 10.22 10.82 10.12L10.12 9.41C9.92 9.21 9.6 9.21 9.41 9.41C9.31 9.51 9.25 9.64 9.25 9.76C9.25 9.89 9.31 10.02 9.41 10.12L10.12 10.82ZM5.17 10.12C5.07 10.22 5.02 10.34 5.02 10.47C5.02 10.6 5.07 10.73 5.17 10.82C5.36 11.02 5.67 11.02 5.87 10.82L6.58 10.12C6.67 10.02 6.73 9.89 6.73 9.76C6.73 9.64 6.67 9.51 6.58 9.41C6.38 9.21 6.07 9.21 5.87 9.41L5.17 10.12ZM7.5 11.5C7.5 11.77 7.71 12 8 12C8.28 12 8.5 11.77 8.5 11.5L8.5 10.5C8.5 10.22 8.28 10 8 10C7.71 10 7.5 10.22 7.5 10.5L7.5 11.5Z" fill="currentColor" fill-opacity="1.000000" fill-rule="evenodd"/>
	</g>
</svg>
