<svg width="16.000000" height="16.000000" viewBox="0 0 16 16" fill="none" xmlns="http://www.w3.org/2000/svg" xmlns:xlink="http://www.w3.org/1999/xlink">
	<desc>
			Created with Pixso.
	</desc>
	<defs>
		<clipPath id="clip2_248">
			<rect id="34#离线-offline" width="16.000000" height="16.000000" fill="white" fill-opacity="0"/>
		</clipPath>
	</defs>
	<g clip-path="url(#clip2_248)">
		<rect id="矩形" width="16.000000" height="16.000000" fill="#000000" fill-opacity="0"/>
		<path id="矢量 155" d="M4.5 13.5L3 13.5C2.81 13.5 2.63 13.48 2.46 13.44C2.31 13.4 2.16 13.36 2.02 13.3C1.88 13.24 1.75 13.17 1.62 13.08C1.48 12.99 1.35 12.88 1.23 12.76C1.11 12.64 1 12.51 0.91 12.37C0.82 12.25 0.75 12.11 0.69 11.97C0.62 11.83 0.58 11.68 0.55 11.53C0.51 11.36 0.5 11.18 0.5 11L0.5 4C0.5 3.81 0.51 3.63 0.55 3.46C0.58 3.31 0.62 3.16 0.69 3.02C0.75 2.88 0.82 2.75 0.91 2.62C0.99 2.48 1.11 2.33 1.23 2.23C1.35 2.1 1.48 2 1.62 1.91C1.75 1.82 1.88 1.75 2.02 1.69C2.16 1.63 2.31 1.59 2.46 1.55C2.63 1.51 2.81 1.5 3 1.5L13 1.5C13.18 1.5 13.36 1.51 13.53 1.55C13.68 1.59 13.83 1.63 13.97 1.69C14.11 1.75 14.24 1.82 14.37 1.91C14.51 2 14.64 2.1 14.76 2.23C14.88 2.34 14.99 2.48 15.08 2.62C15.17 2.75 15.24 2.88 15.3 3.02C15.36 3.16 15.4 3.31 15.44 3.46C15.48 3.63 15.5 3.81 15.5 4L15.5 11C15.5 11.18 15.48 11.36 15.44 11.53C15.4 11.68 15.36 11.83 15.3 11.97C15.24 12.11 15.17 12.25 15.08 12.37C14.99 12.5 14.87 12.65 14.76 12.76C14.64 12.88 14.51 12.99 14.37 13.08C14.24 13.17 14.11 13.24 13.97 13.3C13.83 13.36 13.68 13.4 13.53 13.44C13.36 13.48 13.18 13.5 13 13.5L11.5 13.5C11.22 13.5 11 13.27 11 13C11 12.72 11.22 12.5 11.5 12.5L13 12.5C13.11 12.5 13.22 12.48 13.34 12.46C13.42 12.44 13.5 12.41 13.58 12.38C13.66 12.34 13.74 12.3 13.81 12.25C13.89 12.19 13.98 12.13 14.06 12.06C14.13 11.98 14.2 11.9 14.25 11.81C14.3 11.74 14.34 11.66 14.38 11.58C14.41 11.5 14.44 11.42 14.46 11.34C14.48 11.23 14.5 11.11 14.5 11L14.5 4C14.5 3.88 14.48 3.77 14.46 3.65C14.44 3.57 14.41 3.49 14.38 3.41C14.34 3.33 14.3 3.25 14.25 3.18C14.2 3.09 14.13 3.01 14.06 2.93C13.98 2.86 13.9 2.79 13.81 2.74C13.74 2.69 13.66 2.65 13.58 2.61C13.5 2.58 13.42 2.55 13.34 2.53C13.22 2.51 13.11 2.5 13 2.5L3 2.5C2.88 2.5 2.77 2.51 2.65 2.53C2.57 2.55 2.49 2.58 2.41 2.61C2.33 2.65 2.25 2.69 2.18 2.74C2.08 2.79 2.01 2.86 1.93 2.93C1.86 3.01 1.79 3.09 1.74 3.18C1.69 3.25 1.65 3.33 1.61 3.41C1.58 3.49 1.55 3.57 1.53 3.65C1.51 3.77 1.5 3.88 1.5 4L1.5 11C1.5 11.11 1.51 11.23 1.53 11.34C1.55 11.42 1.58 11.5 1.61 11.58C1.65 11.66 1.69 11.74 1.74 11.81C1.79 11.9 1.86 11.98 1.93 12.06C2.01 12.13 2.08 12.2 2.18 12.25C2.25 12.3 2.33 12.34 2.41 12.38C2.49 12.41 2.57 12.44 2.65 12.46C2.77 12.48 2.88 12.5 3 12.5L4.5 12.5C4.78 12.5 5 12.72 5 13C5 13.27 4.78 13.5 4.5 13.5ZM4.23 7.08C3.81 7.35 3.41 7.68 3.05 8.05C2.85 8.24 2.85 8.55 3.05 8.75C3.24 8.95 3.55 8.95 3.75 8.75C4.07 8.43 4.42 8.15 4.8 7.92C5.09 7.73 5.41 7.57 5.74 7.43C6.07 7.3 6.42 7.19 6.77 7.12C7.17 7.04 7.58 7 8 7C8.41 7 8.82 7.04 9.22 7.12C9.57 7.19 9.92 7.3 10.25 7.43C10.58 7.57 10.9 7.73 11.19 7.92C11.57 8.15 11.92 8.43 12.24 8.75C12.44 8.95 12.75 8.95 12.94 8.75C13.14 8.55 13.14 8.24 12.94 8.05C12.58 7.68 12.18 7.35 11.75 7.08C11.39 6.86 11.02 6.67 10.63 6.51C10.22 6.35 9.83 6.22 9.41 6.14C8.95 6.04 8.47 6 8 6C7.51 6 7.04 6.04 6.58 6.14C6.16 6.22 5.76 6.35 5.36 6.51C4.96 6.67 4.6 6.86 4.23 7.08ZM5.85 9.62C5.6 9.77 5.37 9.95 5.17 10.17C4.96 10.36 4.96 10.68 5.17 10.87C5.36 11.07 5.68 11.07 5.87 10.87C6.04 10.71 6.21 10.57 6.4 10.45C6.55 10.36 6.7 10.28 6.87 10.21C7.03 10.14 7.2 10.09 7.38 10.06C7.58 10.02 7.78 10 7.99 10C8.2 10 8.41 10.02 8.6 10.06C8.79 10.09 8.96 10.14 9.12 10.21C9.29 10.28 9.43 10.36 9.59 10.45C9.78 10.57 9.95 10.71 10.12 10.87C10.31 11.07 10.63 11.07 10.82 10.87C11.02 10.68 11.02 10.36 10.82 10.17C10.61 9.96 10.39 9.77 10.14 9.62C9.93 9.49 9.72 9.38 9.5 9.29C9.27 9.2 9.04 9.12 8.8 9.08C8.54 9.02 8.27 8.99 7.99 9C7.72 8.99 7.45 9.02 7.19 9.08C6.95 9.12 6.72 9.2 6.49 9.29C6.26 9.38 6.05 9.49 5.85 9.62ZM8 12.29L7.35 11.64C7.15 11.44 6.84 11.44 6.64 11.64C6.44 11.84 6.44 12.15 6.64 12.35L7.29 13L6.64 13.64C6.44 13.84 6.44 14.15 6.64 14.35C6.84 14.55 7.15 14.55 7.35 14.35L8 13.7L8.64 14.35C8.84 14.55 9.14 14.55 9.35 14.35C9.55 14.15 9.55 13.84 9.35 13.64L8.7 13L9.35 12.35C9.55 12.15 9.55 11.84 9.35 11.64C9.14 11.44 8.84 11.44 8.64 11.64L8 12.29Z" fill="currentColor" fill-opacity="1.000000" fill-rule="evenodd"/>
	</g>
</svg>
