<svg width="16.000000" height="16.000000" viewBox="0 0 16 16" fill="none" xmlns="http://www.w3.org/2000/svg" xmlns:xlink="http://www.w3.org/1999/xlink">
	<desc>
			Created with Pixso.
	</desc>
	<defs>
		<clipPath id="clip2_249">
			<rect id="35#已阻断/防护事件总数-protected-events" width="16.000000" height="16.000000" fill="white" fill-opacity="0"/>
		</clipPath>
	</defs>
	<g clip-path="url(#clip2_249)">
		<rect id="矩形" width="16.000000" height="16.000000" fill="#000000" fill-opacity="0"/>
		<path id="矢量 150" d="M10.37 1.02C10.28 1 10.18 1 10.08 1L4.5 1C4.31 1 4.13 1.01 3.96 1.04C3.81 1.09 3.66 1.13 3.52 1.19C3.38 1.25 3.25 1.32 3.12 1.41C2.98 1.5 2.85 1.61 2.73 1.73C2.61 1.83 2.51 1.95 2.43 2.08C2.33 2.22 2.25 2.38 2.19 2.52C2.13 2.66 2.08 2.81 2.05 2.96C2.01 3.13 2 3.31 2 3.5L2 12.5C2 12.68 2.01 12.86 2.05 13.03C2.08 13.18 2.13 13.33 2.19 13.47C2.25 13.61 2.32 13.75 2.41 13.87C2.5 14.01 2.61 14.14 2.73 14.26C2.85 14.38 2.98 14.49 3.12 14.58C3.25 14.67 3.38 14.74 3.52 14.8C3.66 14.86 3.81 14.9 3.96 14.94C4.13 14.98 4.31 15 4.5 15L11.5 15C11.68 15 11.86 14.98 12.03 14.94C12.18 14.9 12.33 14.86 12.47 14.8C12.61 14.74 12.74 14.67 12.87 14.58C13.01 14.49 13.14 14.38 13.26 14.26C13.37 14.15 13.47 14.03 13.56 13.9C13.65 13.78 13.74 13.61 13.8 13.47C13.86 13.33 13.9 13.18 13.94 13.03C13.98 12.86 14 12.68 14 12.5L14 4.91C14 4.81 13.99 4.71 13.97 4.62C13.95 4.52 13.92 4.42 13.88 4.34C13.84 4.23 13.8 4.16 13.74 4.08C13.68 3.99 13.62 3.91 13.56 3.85L11.14 1.43C11.07 1.36 11 1.3 10.91 1.25C10.83 1.19 10.75 1.15 10.65 1.11C10.56 1.07 10.47 1.04 10.37 1.02ZM4.5 2L10.08 2C10.14 2 10.21 2.01 10.27 2.03C10.33 2.06 10.39 2.08 10.43 2.14L12.85 4.56C12.9 4.6 12.93 4.66 12.96 4.71C12.98 4.78 13 4.84 13 4.91L13 12.5C13 12.61 12.98 12.73 12.96 12.84C12.94 12.92 12.91 13 12.88 13.08C12.84 13.16 12.8 13.24 12.75 13.31C12.7 13.4 12.63 13.48 12.56 13.56C12.48 13.63 12.39 13.69 12.31 13.75C12.24 13.8 12.16 13.84 12.08 13.88C12 13.91 11.92 13.94 11.84 13.96C11.72 13.98 11.61 14 11.5 14L4.5 14C4.38 14 4.27 13.98 4.15 13.96C4.07 13.94 3.99 13.91 3.91 13.88C3.83 13.84 3.75 13.8 3.68 13.75C3.59 13.7 3.51 13.63 3.43 13.56C3.36 13.48 3.29 13.4 3.24 13.31C3.19 13.24 3.15 13.16 3.11 13.08C3.08 13 3.05 12.92 3.03 12.84C3.01 12.73 3 12.61 3 12.5L3 3.5C3 3.38 3.01 3.27 3.03 3.15C3.05 3.07 3.08 2.99 3.11 2.91C3.15 2.83 3.19 2.75 3.24 2.68C3.29 2.59 3.36 2.51 3.43 2.43C3.51 2.35 3.59 2.29 3.68 2.24C3.75 2.19 3.83 2.15 3.91 2.1C3.99 2.08 4.07 2.05 4.15 2.03C4.27 2.01 4.38 2 4.5 2ZM10.25 4.66C9.89 4.56 9.63 4.46 9.43 4.39C9.2 4.3 8.89 4.15 8.47 3.94C8.41 3.9 8.33 3.87 8.25 3.85C8.17 3.83 8.08 3.82 7.99 3.82C7.91 3.82 7.82 3.83 7.74 3.85C7.66 3.87 7.58 3.9 7.51 3.94C7.16 4.12 6.84 4.27 6.56 4.39C6.32 4.48 6.05 4.57 5.75 4.66C5.63 4.69 5.53 4.73 5.44 4.81C5.35 4.87 5.27 4.94 5.21 5.03C5.13 5.13 5.08 5.24 5.05 5.35C5.02 5.46 5.01 5.57 5.01 5.68C5.04 6.12 5.08 6.52 5.13 6.89C5.22 7.44 5.32 7.87 5.46 8.18C5.62 8.57 5.96 8.96 6.48 9.37C6.8 9.6 7.15 9.85 7.54 10.07C7.61 10.1 7.69 10.14 7.77 10.16C7.84 10.18 7.91 10.18 7.98 10.18C8.06 10.18 8.13 10.18 8.21 10.17C8.28 10.16 8.35 10.13 8.43 10.09C8.83 9.89 9.18 9.68 9.51 9.43C10.04 9.03 10.38 8.6 10.54 8.17C10.67 7.82 10.77 7.37 10.85 6.83C10.91 6.47 10.95 6.08 10.97 5.67C10.98 5.55 10.97 5.44 10.94 5.34C10.91 5.23 10.86 5.13 10.79 5.03C10.72 4.94 10.64 4.87 10.56 4.81C10.47 4.73 10.37 4.69 10.25 4.66ZM8.01 4.82C8.45 5.05 8.8 5.22 9.06 5.32C9.29 5.41 9.6 5.51 9.97 5.62C9.95 6 9.91 6.36 9.85 6.69C9.79 7.16 9.71 7.54 9.6 7.82C9.51 8.08 9.28 8.35 8.89 8.64C8.64 8.84 8.35 9.02 8.01 9.18C7.67 8.98 7.36 8.78 7.1 8.58C6.71 8.28 6.47 8.02 6.38 7.8C6.28 7.56 6.19 7.21 6.12 6.74C6.07 6.4 6.04 6.03 6.01 5.63C6.34 5.53 6.65 5.43 6.93 5.32C7.25 5.2 7.63 5.03 8.01 4.82ZM5 12C5 11.72 5.21 11.5 5.5 11.5L10.5 11.5C10.78 11.5 11 11.72 11 12C11 12.27 10.78 12.5 10.5 12.5L5.5 12.5C5.21 12.5 5 12.27 5 12Z" fill="currentColor" fill-opacity="1.000000" fill-rule="evenodd"/>
	</g>
</svg>
