<svg width="16.000000" height="16.000000" viewBox="0 0 16 16" fill="none" xmlns="http://www.w3.org/2000/svg" xmlns:xlink="http://www.w3.org/1999/xlink">
	<desc>
			Created with Pixso.
	</desc>
	<defs>
		<clipPath id="clip2_244">
			<rect id="36#异常集群-failed-cluster" width="16.000000" height="16.000000" fill="white" fill-opacity="0"/>
		</clipPath>
	</defs>
	<g clip-path="url(#clip2_244)">
		<rect id="矩形" width="16.000000" height="16.000000" fill="#000000" fill-opacity="0"/>
		<path id="矢量 156" d="M1.5 3C1.5 2.17 2.17 1.5 3 1.5C3.82 1.5 4.5 2.17 4.5 3C4.5 3.23 4.44 3.45 4.35 3.64L5.17 4.46L6.93 2.69C7.01 2.61 7.09 2.55 7.18 2.49C7.26 2.44 7.34 2.4 7.43 2.35C7.52 2.33 7.61 2.3 7.7 2.28C7.79 2.26 7.89 2.25 8 2.25C8.1 2.25 8.2 2.26 8.29 2.28C8.38 2.3 8.47 2.33 8.56 2.35C8.64 2.4 8.72 2.44 8.81 2.49C8.89 2.55 8.97 2.62 9.06 2.69L10.82 4.46L11.64 3.64C11.55 3.45 11.5 3.23 11.5 3C11.5 2.17 12.17 1.5 13 1.5C13.82 1.5 14.5 2.17 14.5 3C14.5 3.82 13.82 4.5 13 4.5C12.76 4.5 12.54 4.44 12.35 4.35L11.53 5.17L13.3 6.93C13.38 7.01 13.44 7.09 13.5 7.18C13.55 7.26 13.59 7.34 13.63 7.43C13.66 7.52 13.69 7.61 13.71 7.7C13.73 7.79 13.74 7.89 13.74 7.99C13.74 8.09 13.73 8.2 13.71 8.29C13.69 8.38 13.66 8.47 13.63 8.56C13.59 8.64 13.55 8.72 13.5 8.81C13.44 8.89 13.38 8.97 13.3 9.06L11.53 10.82L12.35 11.64C12.54 11.55 12.76 11.5 13 11.5C13.82 11.5 14.5 12.17 14.5 13C14.5 13.82 13.82 14.5 13 14.5C12.17 14.5 11.5 13.82 11.5 13C11.5 12.76 11.55 12.54 11.64 12.35L10.82 11.53L9.06 13.3C8.97 13.37 8.89 13.44 8.81 13.5C8.72 13.55 8.64 13.59 8.56 13.63C8.47 13.66 8.38 13.69 8.29 13.71C8.2 13.73 8.1 13.74 8 13.74C7.89 13.74 7.79 13.73 7.7 13.71C7.61 13.69 7.52 13.66 7.43 13.63C7.34 13.59 7.26 13.55 7.18 13.5C7.09 13.44 7.01 13.37 6.93 13.3L5.17 11.53L4.35 12.35C4.44 12.54 4.5 12.76 4.5 13C4.5 13.82 3.82 14.5 3 14.5C2.17 14.5 1.5 13.82 1.5 13C1.5 12.17 2.17 11.5 3 11.5C3.23 11.5 3.45 11.55 3.64 11.64L4.46 10.82L2.69 9.06C2.61 8.97 2.55 8.89 2.49 8.81C2.44 8.72 2.4 8.64 2.35 8.56C2.33 8.47 2.3 8.38 2.28 8.29C2.26 8.2 2.25 8.1 2.25 8C2.25 7.89 2.26 7.79 2.28 7.7C2.3 7.61 2.33 7.52 2.35 7.43C2.4 7.34 2.44 7.26 2.49 7.18C2.55 7.09 2.61 7.01 2.69 6.93L4.46 5.17L3.64 4.35C3.45 4.44 3.23 4.5 3 4.5C2.17 4.5 1.5 3.82 1.5 3ZM3 2.5C2.72 2.5 2.5 2.72 2.5 3C2.5 3.27 2.72 3.5 3 3.5C3.27 3.5 3.5 3.27 3.5 3C3.5 2.72 3.27 2.5 3 2.5ZM13 2.5C12.72 2.5 12.5 2.72 12.5 3C12.5 3.27 12.72 3.5 13 3.5C13.27 3.5 13.5 3.27 13.5 3C13.5 2.72 13.27 2.5 13 2.5ZM7.64 3.4L3.4 7.64C3.35 7.69 3.31 7.74 3.29 7.8C3.26 7.86 3.25 7.93 3.25 7.99C3.25 8.05 3.26 8.13 3.29 8.18C3.31 8.25 3.35 8.3 3.4 8.35L7.64 12.59C7.69 12.64 7.74 12.68 7.8 12.7C7.86 12.73 7.93 12.74 8 12.74C8.06 12.74 8.13 12.73 8.18 12.7C8.25 12.68 8.3 12.64 8.35 12.59L12.59 8.35C12.64 8.3 12.68 8.25 12.7 8.18C12.73 8.13 12.74 8.06 12.74 8C12.74 7.94 12.73 7.86 12.7 7.8C12.68 7.74 12.64 7.69 12.59 7.64L8.35 3.4C8.3 3.35 8.25 3.31 8.18 3.29C8.13 3.26 8.06 3.25 8 3.25C7.93 3.25 7.86 3.27 7.8 3.29C7.74 3.31 7.69 3.35 7.64 3.4ZM8.5 5.5L8.5 8.5C8.5 8.77 8.28 9 8 9C7.71 9 7.5 8.77 7.5 8.5L7.5 5.5C7.5 5.22 7.71 5 8 5C8.28 5 8.5 5.22 8.5 5.5ZM7.5 10C7.5 9.72 7.72 9.5 8 9.5C8.27 9.5 8.5 9.72 8.5 10C8.5 10.27 8.27 10.5 8 10.5C7.72 10.5 7.5 10.27 7.5 10ZM3 12.5C2.72 12.5 2.5 12.72 2.5 13C2.5 13.27 2.72 13.5 3 13.5C3.27 13.5 3.5 13.27 3.5 13C3.5 12.72 3.27 12.5 3 12.5ZM13 12.5C12.72 12.5 12.5 12.72 12.5 13C12.5 13.27 12.72 13.5 13 13.5C13.27 13.5 13.5 13.27 13.5 13C13.5 12.72 13.27 12.5 13 12.5Z" fill="currentColor" fill-opacity="1.000000" fill-rule="evenodd"/>
	</g>
</svg>
