<svg width="16.000000" height="16.000000" viewBox="0 0 16 16" fill="none"
	xmlns="http://www.w3.org/2000/svg" xmlns:xlink="http://www.w3.org/1999/xlink">
	<desc>
		Created with Pixso.
	</desc>
	<defs>
		<clipPath id="clip2_223">
			<rect id="37#安全权限-privilege" width="16.000000" height="16.000000" fill="white"
				fill-opacity="0" />
		</clipPath>
	</defs>
	<g clip-path="url(#clip2_223)">
		<path id="path"
			d="M6.34 5C5.53 5.81 5.53 7.13 6.34 7.95C6.62 8.23 6.96 8.4 7.31 8.49L7.31 11.51C7.31 11.79 7.53 12.01 7.81 12.01C8.09 12.01 8.31 11.79 8.31 11.51L8.31 10.51L8.85 10.51C9.14 10.51 9.35 10.29 9.35 10.01C9.35 9.73 9.14 9.51 8.85 9.51L8.31 9.51L8.31 8.5C8.67 8.41 9 8.24 9.28 7.96C10.09 7.15 10.09 5.83 9.28 5.01C8.47 4.2 7.16 4.19 6.34 5ZM8.58 5.71C9 6.13 9 6.82 8.58 7.24C8.16 7.66 7.47 7.66 7.05 7.24C6.63 6.82 6.63 6.13 7.05 5.71C7.26 5.5 7.54 5.39 7.82 5.39C8.1 5.39 8.35 5.5 8.58 5.71Z"
			fill="currentColor" fill-opacity="1.000000" fill-rule="nonzero" />
		<path id="矢量 152"
			d="M13.9 2.7C12.85 2.4 12.02 2.13 11.42 1.89C10.78 1.64 9.89 1.2 8.74 0.58C8.63 0.52 8.51 0.48 8.4 0.45C8.27 0.41 8.13 0.4 7.99 0.4C7.86 0.4 7.73 0.42 7.61 0.45C7.49 0.48 7.36 0.53 7.25 0.6C6.28 1.14 5.38 1.57 4.57 1.89C3.83 2.18 3.01 2.45 2.12 2.7C1.95 2.75 1.79 2.82 1.66 2.92C1.53 3 1.42 3.11 1.32 3.23C1.21 3.37 1.13 3.52 1.08 3.68C1.03 3.82 1.01 3.98 1.01 4.15C1.01 5.29 1.06 6.35 1.15 7.33C1.3 8.85 1.54 10.01 1.88 10.82C2.26 11.73 3.14 12.7 4.54 13.73C5.38 14.34 6.32 14.93 7.36 15.48C7.47 15.54 7.57 15.58 7.68 15.61C7.78 15.63 7.88 15.64 7.98 15.65C8.09 15.65 8.2 15.64 8.3 15.62C8.41 15.6 8.51 15.57 8.61 15.52C9.02 15.33 9.43 15.12 9.84 14.9C10.43 14.57 10.97 14.24 11.45 13.89C12.85 12.89 13.74 11.86 14.12 10.8C14.45 9.87 14.69 8.67 14.83 7.19C14.93 6.21 14.98 5.19 14.98 4.13C14.98 3.96 14.96 3.81 14.91 3.66C14.86 3.51 14.78 3.36 14.68 3.23C14.58 3.1 14.47 3 14.35 2.91C14.21 2.82 14.06 2.75 13.9 2.7ZM8.27 1.46C9.44 2.1 10.37 2.55 11.05 2.83C11.68 3.07 12.54 3.35 13.62 3.66C13.68 3.68 13.74 3.71 13.79 3.74C13.82 3.79 13.95 3.93 13.96 3.98C13.98 4.03 13.98 4.08 13.98 4.13C13.98 5.16 13.93 6.15 13.84 7.09C13.7 8.49 13.48 9.61 13.18 10.46C13.01 10.92 12.72 11.38 12.29 11.85C11.91 12.25 11.43 12.66 10.87 13.07C10.42 13.4 9.91 13.72 9.36 14.02C8.97 14.24 8.58 14.43 8.2 14.61C8.14 14.63 8.08 14.65 8.02 14.65C7.96 14.65 7.9 14.63 7.83 14.6C6.84 14.07 5.94 13.51 5.14 12.92C4.56 12.5 4.08 12.09 3.7 11.69C3.27 11.24 2.97 10.83 2.81 10.44C2.5 9.72 2.28 8.65 2.15 7.24C2.06 6.28 2.01 5.25 2.01 4.15C2.01 4.1 2.01 4.06 2.02 4.02C2.04 3.96 2.07 3.9 2.11 3.85C2.14 3.81 2.18 3.78 2.21 3.75C2.27 3.71 2.32 3.69 2.39 3.67C3.32 3.41 4.17 3.12 4.94 2.82C5.79 2.48 6.72 2.03 7.73 1.47C7.78 1.45 7.82 1.43 7.87 1.42C7.91 1.41 7.95 1.4 8 1.4C8.05 1.4 8.11 1.41 8.15 1.42C8.19 1.43 8.23 1.44 8.27 1.46Z"
			fill="currentColor" fill-opacity="1.000000" fill-rule="evenodd" />
	</g>
</svg>