<svg width="16.000000" height="16.000000" viewBox="0 0 16 16" fill="none"
	xmlns="http://www.w3.org/2000/svg" xmlns:xlink="http://www.w3.org/1999/xlink">
	<desc>
		Created with Pixso.
	</desc>
	<defs>
		<clipPath id="clip2_240">
			<rect id="38#安全策略-security-policy" width="16.000000" height="16.000000" fill="white"
				fill-opacity="0" />
		</clipPath>
	</defs>
	<g clip-path="url(#clip2_240)">
		<rect id="矩形" width="16.000000" height="16.000000" fill="#000000" fill-opacity="0" />
		<path id="矢量 152"
			d="M13.9 2.7C12.85 2.4 12.02 2.13 11.42 1.89C10.78 1.64 9.89 1.2 8.74 0.58C8.63 0.52 8.51 0.48 8.4 0.45C8.27 0.41 8.13 0.4 7.99 0.4C7.86 0.4 7.73 0.42 7.61 0.45C7.49 0.48 7.36 0.53 7.25 0.6C6.28 1.14 5.38 1.57 4.57 1.89C3.83 2.18 3.01 2.45 2.12 2.7C1.95 2.75 1.79 2.82 1.66 2.92C1.53 3 1.42 3.11 1.32 3.23C1.21 3.37 1.13 3.52 1.08 3.68C1.03 3.82 1.01 3.98 1.01 4.15C1.01 5.29 1.06 6.35 1.15 7.33C1.3 8.85 1.54 10.01 1.88 10.82C2.26 11.73 3.14 12.7 4.54 13.73C5.38 14.34 6.32 14.93 7.36 15.48C7.47 15.54 7.57 15.58 7.68 15.61C7.78 15.63 7.88 15.64 7.98 15.65C8.09 15.65 8.2 15.64 8.3 15.62C8.41 15.6 8.51 15.57 8.61 15.52C9.02 15.33 9.43 15.12 9.84 14.9C10.43 14.57 10.97 14.24 11.45 13.89C12.85 12.89 13.74 11.86 14.12 10.8C14.45 9.87 14.69 8.67 14.83 7.19C14.93 6.21 14.98 5.19 14.98 4.13C14.98 3.96 14.96 3.81 14.91 3.66C14.86 3.51 14.78 3.36 14.68 3.23C14.58 3.1 14.47 3 14.35 2.91C14.21 2.82 14.06 2.75 13.9 2.7ZM8.27 1.46C9.44 2.1 10.37 2.55 11.05 2.83C11.68 3.07 12.54 3.35 13.62 3.66C13.68 3.68 13.74 3.71 13.79 3.74C13.82 3.79 13.95 3.93 13.96 3.98C13.98 4.03 13.98 4.08 13.98 4.13C13.98 5.16 13.93 6.15 13.84 7.09C13.7 8.49 13.48 9.61 13.18 10.46C13.01 10.92 12.72 11.38 12.29 11.85C11.91 12.25 11.43 12.66 10.87 13.07C10.42 13.4 9.91 13.72 9.36 14.02C8.97 14.24 8.58 14.43 8.2 14.61C8.14 14.63 8.08 14.65 8.02 14.65C7.96 14.65 7.9 14.63 7.83 14.6C6.84 14.07 5.94 13.51 5.14 12.92C4.56 12.5 4.08 12.09 3.7 11.69C3.27 11.24 2.97 10.83 2.81 10.44C2.5 9.72 2.28 8.65 2.15 7.24C2.06 6.28 2.01 5.25 2.01 4.15C2.01 4.1 2.01 4.06 2.02 4.02C2.04 3.96 2.07 3.9 2.11 3.85C2.14 3.81 2.18 3.78 2.21 3.75C2.27 3.71 2.32 3.69 2.39 3.67C3.32 3.41 4.17 3.12 4.94 2.82C5.79 2.48 6.72 2.03 7.73 1.47C7.78 1.45 7.82 1.43 7.87 1.42C7.91 1.41 7.95 1.4 8 1.4C8.05 1.4 8.11 1.41 8.15 1.42C8.19 1.43 8.23 1.44 8.27 1.46ZM5 6.5L6.13 6.5C6.3 6.79 6.62 7 7 7C7.37 7 7.69 6.79 7.86 6.5L11 6.5C11.28 6.5 11.5 6.28 11.5 6C11.5 5.72 11.28 5.5 11 5.5L7.86 5.5C7.69 5.2 7.37 5 7 5C6.62 5 6.3 5.2 6.13 5.5L5 5.5C4.71 5.5 4.5 5.72 4.5 6C4.5 6.28 4.71 6.5 5 6.5ZM8.13 9.5L5 9.5C4.71 9.5 4.5 9.28 4.5 9C4.5 8.72 4.71 8.5 5 8.5L8.13 8.5C8.3 8.2 8.62 8 9 8C9.37 8 9.69 8.2 9.86 8.5L11 8.5C11.28 8.5 11.5 8.72 11.5 9C11.5 9.28 11.28 9.5 11 9.5L9.86 9.5C9.69 9.79 9.37 10 9 10C8.62 10 8.3 9.79 8.13 9.5Z"
			fill="currentColor" fill-opacity="1.000000" fill-rule="evenodd" />
	</g>
</svg>