<svg width="16.000000" height="16.000000" viewBox="0 0 16 16" fill="none" xmlns="http://www.w3.org/2000/svg" xmlns:xlink="http://www.w3.org/1999/xlink">
	<desc>
			Created with Pixso.
	</desc>
	<defs>
		<clipPath id="clip2_172">
			<rect id="4#选择对象-select-object" width="16.000000" height="16.000000" fill="white" fill-opacity="0"/>
		</clipPath>
	</defs>
	<g clip-path="url(#clip2_172)">
		<path id="形状结合" d="M8.5 9.72C8.78 9.72 9 9.94 9 10.22C9 10.5 8.78 10.72 8.5 10.72L3 10.72C2.72 10.72 2.5 10.94 2.5 11.22L2.5 12.91C2.5 13.19 2.72 13.41 3 13.41L8.5 13.41C8.78 13.41 9 13.64 9 13.91C9 14.19 8.78 14.41 8.5 14.41L3 14.41C2.17 14.41 1.5 13.74 1.5 12.91L1.5 11.22C1.5 10.39 2.17 9.72 3 9.72L8.5 9.72ZM13.21 9.72C13.48 9.72 13.71 9.94 13.71 10.22C13.71 10.5 13.48 10.72 13.21 10.72L11.57 10.72L14.35 13.49C14.53 13.67 14.54 13.95 14.4 14.15C14.2 14.34 13.84 14.4 13.64 14.2L10.87 11.43L10.87 13.06C10.87 13.33 10.64 13.56 10.37 13.56C10.09 13.56 9.87 13.33 9.87 13.06L9.87 11.22C9.87 10.39 10.54 9.72 11.37 9.72L13.21 9.72ZM11.01 1.58L4.98 1.58C4.34 1.58 3.77 1.99 3.56 2.59L1.98 7.2C1.92 7.35 1.9 7.52 1.9 7.68C1.9 8.51 2.57 9.18 3.4 9.18L12.59 9.18C12.76 9.18 12.92 9.16 13.08 9.1C13.86 8.83 14.28 7.98 14.01 7.2L12.43 2.59C12.22 1.99 11.65 1.58 11.01 1.58ZM11.01 2.58C11.22 2.58 11.41 2.71 11.48 2.92L13.07 7.52C13.16 7.78 13.02 8.07 12.76 8.16C12.7 8.17 12.65 8.18 12.59 8.18L3.4 8.18C3.12 8.18 2.9 7.96 2.9 7.68C2.9 7.63 2.91 7.57 2.92 7.52L4.51 2.92C4.58 2.71 4.77 2.58 4.98 2.58L11.01 2.58Z" fill="currentColor" fill-opacity="1.000000" fill-rule="nonzero"/>
	</g>
</svg>
