<svg width="16.000000" height="16.000000" viewBox="0 0 16 16" fill="none" xmlns="http://www.w3.org/2000/svg" xmlns:xlink="http://www.w3.org/1999/xlink">
	<desc>
			Created with Pixso.
	</desc>
	<defs>
		<clipPath id="clip2_170">
			<rect id="40#虚拟机移动-vm-move" width="16.000000" height="16.000000" fill="white" fill-opacity="0"/>
		</clipPath>
	</defs>
	<g clip-path="url(#clip2_170)">
		<path id="形状结合" d="M11 1C11.82 1 12.5 1.67 12.5 2.5L12.5 8.1C12.5 8.38 12.27 8.6 12 8.6C11.72 8.6 11.5 8.38 11.5 8.1L11.5 2.5C11.5 2.22 11.27 2 11 2L7 2C6.72 2 6.5 2.22 6.5 2.5L6.5 13.5C6.5 13.77 6.72 14 7 14L10 14C10.27 14 10.5 14.22 10.5 14.5C10.5 14.77 10.27 15 10 15L7 15C6.17 15 5.5 14.32 5.5 13.5L5.5 2.5C5.5 1.67 6.17 1 7 1L11 1ZM11 10.26C11 9.85 11.46 9.61 11.79 9.85L14.29 11.66C14.56 11.86 14.56 12.27 14.29 12.47L11.79 14.28C11.46 14.52 11 14.29 11 13.88L11 10.26ZM12 11.24L12 12.9L13.14 12.07L12 11.24ZM10 8.99C10.27 8.99 10.5 9.22 10.5 9.49C10.5 9.77 10.27 9.99 10 9.99L8 9.99C7.72 9.99 7.5 9.77 7.5 9.49C7.5 9.22 7.72 8.99 8 8.99L10 8.99ZM10 6.5C10.27 6.5 10.5 6.72 10.5 7C10.5 7.27 10.27 7.5 10 7.5L8 7.5C7.72 7.5 7.5 7.27 7.5 7C7.5 6.72 7.72 6.5 8 6.5L10 6.5ZM10 4C10.27 4 10.5 4.22 10.5 4.5C10.5 4.77 10.27 5 10 5L8 5C7.72 5 7.5 4.77 7.5 4.5C7.5 4.22 7.72 4 8 4L10 4ZM4.42 7.5C4.7 7.5 4.92 7.72 4.92 8C4.92 8.27 4.7 8.5 4.42 8.5L3 8.5C2.72 8.5 2.5 8.72 2.5 9L2.5 13.5C2.5 13.77 2.72 14 3 14L4.42 14C4.7 14 4.92 14.22 4.92 14.5C4.92 14.77 4.7 15 4.42 15L3 15C2.17 15 1.5 14.32 1.5 13.5L1.5 9C1.5 8.17 2.17 7.5 3 7.5L4.42 7.5Z" fill="currentColor" fill-opacity="1.000000" fill-rule="nonzero"/>
	</g>
</svg>
