<svg width="16.000000" height="16.000000" viewBox="0 0 16 16" fill="none" xmlns="http://www.w3.org/2000/svg" xmlns:xlink="http://www.w3.org/1999/xlink">
	<desc>
			Created with Pixso.
	</desc>
	<defs>
		<clipPath id="clip2_227">
			<rect id="41#链接|绑定-link" width="16.000000" height="16.000000" fill="white" fill-opacity="0"/>
		</clipPath>
	</defs>
	<g clip-path="url(#clip2_227)">
		<path id="形状结合" d="M9.57 2.22C10.73 1.05 12.61 1.05 13.77 2.22C14.94 3.38 14.94 5.26 13.77 6.42L12.37 7.82C11.33 8.86 9.71 8.97 8.55 8.15L8.15 8.55C8.97 9.71 8.86 11.33 7.82 12.37L6.42 13.77C5.26 14.94 3.38 14.94 2.22 13.77C1.05 12.61 1.05 10.73 2.22 9.57L3.62 8.17C4.66 7.13 6.28 7.02 7.44 7.84L7.84 7.44C7.02 6.28 7.13 4.66 8.17 3.62L9.57 2.22ZM6.72 8.57C5.96 8.12 4.97 8.22 4.32 8.87L2.92 10.27C2.15 11.04 2.15 12.3 2.92 13.07C3.69 13.84 4.94 13.84 5.72 13.07L7.12 11.67C7.77 11.02 7.87 10.03 7.42 9.27L6.95 9.75C6.75 9.94 6.44 9.94 6.24 9.75C6.05 9.55 6.05 9.24 6.24 9.04L6.72 8.57ZM13.07 2.92C12.3 2.15 11.04 2.15 10.27 2.92L8.87 4.32C8.22 4.97 8.12 5.96 8.57 6.72L9.04 6.24C9.24 6.05 9.55 6.05 9.75 6.24C9.94 6.44 9.94 6.75 9.75 6.95L9.27 7.42C10.03 7.87 11.02 7.77 11.67 7.12L13.07 5.72C13.84 4.94 13.84 3.69 13.07 2.92Z" fill="currentColor" fill-opacity="1.000000" fill-rule="nonzero"/>
	</g>
</svg>
