<svg width="16.000000" height="16.000000" viewBox="0 0 16 16" fill="none" xmlns="http://www.w3.org/2000/svg" xmlns:xlink="http://www.w3.org/1999/xlink">
	<desc>
			Created with Pixso.
	</desc>
	<defs>
		<clipPath id="clip2_239">
			<rect id="42#运行异常-exception" width="16.000000" height="16.000000" fill="white" fill-opacity="0"/>
		</clipPath>
	</defs>
	<g clip-path="url(#clip2_239)">
		<rect id="矩形" width="16.000000" height="16.000000" fill="#000000" fill-opacity="0"/>
		<path id="矢量 157" d="M14.86 3.75L14.86 6.7C14.86 6.83 14.81 6.95 14.71 7.05C14.61 7.15 14.49 7.2 14.36 7.2C14.24 7.2 14.13 7.16 14.04 7.08C13.95 7.01 13.89 6.91 13.87 6.79C13.8 6.47 13.71 6.15 13.59 5.85C13.46 5.52 13.31 5.2 13.12 4.89C12.95 4.61 12.76 4.35 12.55 4.1C12.33 3.84 12.08 3.59 11.8 3.37C11.52 3.13 11.21 2.92 10.89 2.75C10.62 2.6 10.34 2.47 10.05 2.36C9.77 2.26 9.49 2.18 9.2 2.12C8.81 2.04 8.4 2 7.99 2C7.57 2 7.16 2.04 6.77 2.12C6.48 2.18 6.2 2.26 5.92 2.36C5.63 2.46 5.35 2.59 5.08 2.75C4.76 2.92 4.45 3.13 4.16 3.37C3.89 3.59 3.64 3.84 3.42 4.1C3.21 4.35 3.02 4.61 2.85 4.89C2.67 5.19 2.51 5.51 2.38 5.85C2.26 6.15 2.17 6.47 2.1 6.79C2.05 7.07 1.79 7.24 1.52 7.19C1.24 7.13 1.07 6.87 1.12 6.6C1.2 6.21 1.31 5.84 1.45 5.49C1.6 5.1 1.78 4.73 1.99 4.37C2.19 4.05 2.41 3.75 2.65 3.47C2.91 3.16 3.21 2.86 3.53 2.6C3.86 2.32 4.21 2.08 4.58 1.88C4.9 1.7 5.23 1.55 5.58 1.42C5.91 1.3 6.25 1.2 6.59 1.13C7.05 1.04 7.51 1 7.99 1C8.46 1 8.92 1.04 9.38 1.13C9.72 1.2 10.06 1.3 10.39 1.42C10.74 1.55 11.07 1.7 11.39 1.88C11.76 2.08 12.11 2.32 12.44 2.6C12.76 2.86 13.05 3.14 13.31 3.45C13.51 3.68 13.69 3.92 13.86 4.18L13.86 3.75C13.86 3.47 14.08 3.25 14.36 3.25C14.64 3.25 14.86 3.47 14.86 3.75ZM8.48 5C8.48 4.72 8.26 4.5 7.98 4.5C7.7 4.5 7.48 4.72 7.48 5L7.48 8.5C7.48 8.77 7.7 9 7.98 9C8.26 9 8.48 8.77 8.48 8.5L8.48 5ZM14.52 10.5C14.66 10.15 14.77 9.78 14.84 9.39C14.9 9.12 14.73 8.86 14.45 8.8C14.18 8.75 13.92 8.92 13.86 9.2C13.8 9.52 13.71 9.84 13.59 10.14C13.46 10.47 13.31 10.79 13.12 11.1C12.95 11.38 12.76 11.64 12.55 11.89C12.33 12.15 12.08 12.4 11.8 12.62C11.52 12.86 11.21 13.07 10.89 13.24C10.63 13.39 10.35 13.52 10.05 13.63C9.77 13.73 9.49 13.81 9.2 13.87C8.81 13.95 8.4 13.99 7.99 13.99C7.57 13.99 7.16 13.95 6.77 13.87C6.48 13.81 6.2 13.73 5.92 13.63C5.63 13.52 5.35 13.39 5.08 13.24C4.76 13.07 4.45 12.86 4.17 12.62C3.89 12.4 3.64 12.15 3.42 11.89C3.21 11.64 3.02 11.38 2.85 11.1C2.66 10.79 2.51 10.47 2.38 10.14C2.26 9.84 2.17 9.52 2.11 9.2C2.08 9.08 2.02 8.98 1.93 8.91C1.84 8.83 1.73 8.79 1.62 8.79C1.48 8.79 1.36 8.84 1.26 8.94C1.16 9.04 1.12 9.16 1.12 9.29L1.12 12.24C1.12 12.52 1.34 12.74 1.62 12.74C1.9 12.74 2.12 12.52 2.12 12.24L2.12 11.81C2.28 12.07 2.46 12.31 2.66 12.54C2.92 12.85 3.21 13.13 3.53 13.39C3.86 13.67 4.21 13.91 4.58 14.11C4.9 14.29 5.23 14.44 5.58 14.57C5.91 14.69 6.25 14.79 6.59 14.86C7.05 14.95 7.51 14.99 7.99 14.99C8.46 14.99 8.92 14.95 9.38 14.86C9.72 14.79 10.06 14.69 10.39 14.57C10.74 14.44 11.07 14.29 11.39 14.11C11.76 13.91 12.11 13.67 12.44 13.39C12.76 13.13 13.05 12.85 13.31 12.54C13.55 12.25 13.78 11.95 13.98 11.62C14.19 11.26 14.37 10.89 14.52 10.5ZM7.98 10C7.57 10 7.23 10.33 7.23 10.75C7.23 11.16 7.57 11.5 7.98 11.5C8.4 11.5 8.73 11.16 8.73 10.75C8.73 10.33 8.4 10 7.98 10Z" fill="currentColor" fill-opacity="1.000000" fill-rule="evenodd"/>
	</g>
</svg>
