<svg width="16.000000" height="16.000000" viewBox="0 0 16 16" fill="none" xmlns="http://www.w3.org/2000/svg" xmlns:xlink="http://www.w3.org/1999/xlink">
	<desc>
			Created with Pixso.
	</desc>
	<defs>
		<clipPath id="clip2_2">
			<rect id="43#插件中心-add-ons" width="16.000000" height="16.000000" fill="white" fill-opacity="0"/>
		</clipPath>
	</defs>
	<g clip-path="url(#clip2_2)">
		<path id="形状" d="M6.13 7.3L2.66 7.3C2.02 7.3 1.5 6.77 1.5 6.13L1.5 2.66C1.5 2.02 2.02 1.5 2.66 1.5L6.13 1.5C6.77 1.5 7.29 2.02 7.29 2.66L7.29 6.13C7.29 6.77 6.77 7.3 6.13 7.3ZM2.66 2.5C2.57 2.5 2.5 2.57 2.5 2.66L2.5 6.13C2.5 6.22 2.57 6.3 2.66 6.3L6.13 6.3C6.22 6.3 6.29 6.22 6.29 6.13L6.29 2.66C6.29 2.57 6.22 2.5 6.13 2.5L2.66 2.5ZM6.13 14.5L2.66 14.5C2.02 14.5 1.5 13.97 1.5 13.33L1.5 9.86C1.5 9.22 2.02 8.7 2.66 8.7L6.13 8.7C6.77 8.7 7.29 9.22 7.29 9.86L7.29 13.33C7.29 13.97 6.77 14.5 6.13 14.5ZM2.66 9.7C2.57 9.7 2.5 9.77 2.5 9.86L2.5 13.33C2.5 13.42 2.57 13.5 2.66 13.5L6.13 13.5C6.22 13.5 6.29 13.42 6.29 13.33L6.29 9.86C6.29 9.77 6.22 9.7 6.13 9.7L2.66 9.7ZM13.33 14.5L9.86 14.5C9.22 14.5 8.7 13.97 8.7 13.33L8.7 9.86C8.7 9.22 9.22 8.7 9.86 8.7L13.33 8.7C13.97 8.7 14.5 9.22 14.5 9.86L14.5 13.33C14.5 13.97 13.97 14.5 13.33 14.5ZM9.86 9.7C9.77 9.7 9.7 9.77 9.7 9.86L9.7 13.33C9.7 13.42 9.77 13.5 9.86 13.5L13.33 13.5C13.42 13.5 13.5 13.42 13.5 13.33L13.5 9.86C13.5 9.77 13.42 9.7 13.33 9.7L9.86 9.7ZM11.6 7.3C10 7.3 8.7 6 8.7 4.4C8.7 2.8 10 1.5 11.6 1.5C13.2 1.5 14.5 2.8 14.5 4.4C14.5 6 13.2 7.3 11.6 7.3ZM11.6 2.5C10.55 2.5 9.7 3.35 9.7 4.4C9.7 5.44 10.55 6.3 11.6 6.3C12.64 6.3 13.5 5.44 13.5 4.4C13.5 3.35 12.64 2.5 11.6 2.5Z" fill="currentColor" fill-opacity="1.000000" fill-rule="nonzero"/>
	</g>
</svg>
