<svg width="16.000000" height="16.000000" viewBox="0 0 16 16" fill="none" xmlns="http://www.w3.org/2000/svg" xmlns:xlink="http://www.w3.org/1999/xlink">
	<desc>
			Created with Pixso.
	</desc>
	<defs>
		<clipPath id="clip2_234">
			<rect id="45#部署-deploy" width="16.000000" height="16.000000" fill="white" fill-opacity="0"/>
		</clipPath>
	</defs>
	<g clip-path="url(#clip2_234)">
		<path id="形状结合" d="M5.9 1.5L3 1.5C2.17 1.5 1.5 2.17 1.5 3L1.5 4.27C1.5 5.1 2.17 5.77 3 5.77L5.9 5.77C6.73 5.77 7.4 5.1 7.4 4.27L7.4 2.99C7.4 2.17 6.73 1.5 5.9 1.5ZM5.9 2.5C6.18 2.5 6.4 2.72 6.4 3L6.4 4.27C6.4 4.54 6.18 4.77 5.9 4.77L3 4.77C2.72 4.77 2.5 4.54 2.5 4.27L2.5 3C2.5 2.72 2.72 2.5 3 2.5L5.9 2.5ZM5.9 6.95L3 6.95C2.17 6.95 1.5 7.62 1.5 8.45L1.5 13C1.5 13.82 2.17 14.5 3 14.5L5.9 14.5C6.67 14.5 7.31 13.92 7.39 13.17L7.4 13.02L7.4 8.45C7.4 7.62 6.73 6.95 5.9 6.95ZM5.9 7.95C6.18 7.95 6.4 8.17 6.4 8.45L6.4 13L6.4 13.08C6.37 13.3 6.16 13.5 5.9 13.5L3 13.5C2.72 13.5 2.5 13.27 2.5 13L2.5 8.45C2.5 8.17 2.72 7.95 3 7.95L5.9 7.95ZM12.99 1.5L10.09 1.5C9.26 1.5 8.59 2.17 8.59 3L8.59 7.54C8.59 8.37 9.26 9.04 10.09 9.04L13 9.04C13.76 9.04 14.4 8.47 14.48 7.71L14.49 7.57L14.49 2.99C14.49 2.17 13.82 1.5 12.99 1.5ZM12.99 2.5C13.27 2.5 13.49 2.72 13.49 3L13.49 7.54L13.49 7.63C13.46 7.85 13.25 8.04 13 8.04L10.09 8.04C9.81 8.04 9.59 7.82 9.59 7.54L9.59 3C9.59 2.72 9.81 2.5 10.09 2.5L12.99 2.5ZM12.99 10.22L10.09 10.22C9.26 10.22 8.59 10.89 8.59 11.72L8.59 13C8.59 13.82 9.26 14.5 10.09 14.5L13 14.5C13.82 14.5 14.5 13.82 14.49 12.99L14.49 11.72C14.49 10.89 13.82 10.22 12.99 10.22ZM12.99 11.22C13.27 11.22 13.49 11.45 13.49 11.72L13.49 13C13.49 13.27 13.27 13.5 13 13.5L10.09 13.5C9.81 13.5 9.59 13.27 9.59 13L9.59 11.72C9.59 11.45 9.81 11.22 10.09 11.22L12.99 11.22Z" fill="currentColor" fill-opacity="1.000000" fill-rule="nonzero"/>
	</g>
</svg>
