<svg width="16.000000" height="16.000000" viewBox="0 0 16 16" fill="none" xmlns="http://www.w3.org/2000/svg" xmlns:xlink="http://www.w3.org/1999/xlink">
	<desc>
			Created with Pixso.
	</desc>
	<defs>
		<clipPath id="clip2_232">
			<rect id="46#编译-compile" width="16.000000" height="16.000000" fill="white" fill-opacity="0"/>
		</clipPath>
	</defs>
	<g clip-path="url(#clip2_232)">
		<path id="形状结合" d="M7.26 1.12C7.72 0.86 8.27 0.86 8.73 1.12L13.58 3.92C14.04 4.18 14.32 4.67 14.32 5.19L14.32 10.8C14.32 11.32 14.04 11.81 13.58 12.07L8.73 14.87C8.27 15.13 7.72 15.13 7.26 14.87L2.4 12.07C1.95 11.81 1.67 11.32 1.67 10.8L1.67 5.19C1.67 4.67 1.95 4.18 2.4 3.92L7.26 1.12ZM8.22 1.99C8.08 1.91 7.91 1.91 7.77 1.99L2.91 4.8C2.77 4.88 2.68 5.03 2.68 5.19L2.68 10.8C2.68 10.96 2.77 11.11 2.91 11.19L7.77 14C7.91 14.08 8.08 14.08 8.22 14L13.08 11.19C13.22 11.11 13.31 10.96 13.31 10.8L13.31 5.19C13.31 5.03 13.22 4.88 13.08 4.8L8.22 1.99ZM10.38 5.9C10.56 6.11 10.54 6.43 10.33 6.62L8.97 7.82C8.83 7.94 8.68 8.03 8.51 8.09L8.51 10.6C8.51 10.87 8.29 11.1 8.01 11.1C7.73 11.1 7.5 10.87 7.5 10.6L7.5 8.09C7.34 8.03 7.18 7.94 7.04 7.82L5.67 6.62C5.46 6.44 5.44 6.12 5.62 5.91C5.81 5.7 6.13 5.68 6.34 5.86L7.7 7.06C7.88 7.21 8.13 7.21 8.31 7.06L9.66 5.86C9.87 5.67 10.19 5.69 10.38 5.9Z" fill="currentColor" fill-opacity="1.000000" fill-rule="nonzero"/>
	</g>
</svg>
