<svg width="16.000000" height="16.000000" viewBox="0 0 16 16" fill="none" xmlns="http://www.w3.org/2000/svg" xmlns:xlink="http://www.w3.org/1999/xlink">
	<desc>
			Created with Pixso.
	</desc>
	<defs>
		<clipPath id="clip2_56">
			<rect id="47#集群-cluster" width="16.000000" height="16.000000" fill="white" fill-opacity="0"/>
		</clipPath>
	</defs>
	<g clip-path="url(#clip2_56)">
		<path id="形状" d="M13.79 3.53L9.37 0.98C8.62 0.55 7.7 0.55 6.96 0.98L2.54 3.53C1.79 3.95 1.33 4.75 1.33 5.61L1.33 10.71C1.33 11.57 1.79 12.37 2.54 12.79L6.96 15.34C7.33 15.55 7.74 15.66 8.16 15.66C8.58 15.66 9 15.55 9.37 15.34L13.79 12.79C14.54 12.37 15 11.57 15 10.71L15 5.61C15 4.75 14.54 3.95 13.79 3.53ZM14 10.71C14 11.21 13.72 11.67 13.29 11.93L8.87 14.47C8.43 14.73 7.89 14.73 7.46 14.47L3.04 11.93C2.6 11.67 2.33 11.21 2.33 10.71L2.33 5.61C2.33 5.11 2.6 4.65 3.04 4.39L7.46 1.85C7.68 1.72 7.92 1.66 8.16 1.66C8.41 1.66 8.65 1.72 8.87 1.85L13.29 4.39C13.72 4.65 14 5.11 14 5.61L14 10.71ZM11.88 7.86L10.4 7.01L10.4 5.29C10.4 5.11 10.3 4.95 10.14 4.86L8.41 3.86C8.26 3.77 8.06 3.77 7.91 3.86L6.18 4.86C6.02 4.95 5.92 5.11 5.92 5.29L5.92 7.01L4.44 7.86C4.29 7.95 4.19 8.11 4.19 8.29L4.19 10.29C4.19 10.47 4.28 10.64 4.44 10.73L6.18 11.73C6.26 11.77 6.34 11.79 6.43 11.79C6.52 11.79 6.6 11.77 6.68 11.73L8.16 10.87L9.64 11.73C9.72 11.77 9.81 11.79 9.9 11.79C9.98 11.79 10.07 11.77 10.15 11.73L11.88 10.73C12.04 10.64 12.14 10.47 12.14 10.29L12.14 8.29C12.14 8.11 12.04 7.95 11.88 7.86ZM6.93 5.58L8.16 4.87L9.4 5.58L9.4 7L8.16 7.71L6.93 7L6.93 5.58ZM6.43 10.71L5.2 10L5.2 8.58L6.43 7.87L7.66 8.58L7.66 10L6.43 10.71ZM11.12 10L9.89 10.71L8.66 10L8.66 8.58L9.89 7.87L11.12 8.58L11.12 10Z" fill="currentColor" fill-opacity="1.000000" fill-rule="nonzero"/>
	</g>
</svg>
