<svg width="16.000000" height="16.000000" viewBox="0 0 16 16" fill="none" xmlns="http://www.w3.org/2000/svg" xmlns:xlink="http://www.w3.org/1999/xlink">
	<desc>
			Created with Pixso.
	</desc>
	<defs>
		<clipPath id="clip2_57">
			<rect id="48#集群配置-cluster-config" width="16.000000" height="16.000000" fill="white" fill-opacity="0"/>
		</clipPath>
	</defs>
	<g clip-path="url(#clip2_57)">
		<path id="形状" d="M7.93 2.34L5.89 3.51C5.83 3.54 5.78 3.6 5.77 3.68L5.77 6.03C5.77 6.1 5.8 6.17 5.85 6.22L7.88 7.4C7.94 7.44 8.02 7.44 8.08 7.42L10.12 6.25C10.18 6.22 10.23 6.16 10.24 6.08L10.24 3.73C10.24 3.66 10.21 3.59 10.16 3.54L8.13 2.36C8.07 2.32 8 2.32 7.93 2.34ZM8.53 1.44L8.63 1.5L10.62 2.65C10.98 2.86 11.21 3.22 11.24 3.63L11.24 3.73L11.24 6.03C11.24 6.44 11.04 6.82 10.7 7.06L10.62 7.11L8.62 8.26C8.27 8.47 7.84 8.48 7.47 8.32L7.37 8.26L5.38 7.11C5.02 6.9 4.79 6.54 4.76 6.13L4.76 6.03L4.76 3.73C4.76 3.32 4.96 2.94 5.3 2.7L5.38 2.65L7.38 1.5C7.73 1.29 8.16 1.28 8.53 1.44ZM11.52 10.71C11.25 10.71 11.02 10.94 11.02 11.21C11.02 11.48 11.25 11.71 11.52 11.71C11.8 11.71 12.02 11.48 12.02 11.21C12.02 10.94 11.8 10.71 11.52 10.71ZM11.52 9.71C12.35 9.71 13.02 10.38 13.02 11.21C13.02 12.04 12.35 12.71 11.52 12.71C10.7 12.71 10.02 12.04 10.02 11.21C10.02 10.38 10.7 9.71 11.52 9.71ZM4.41 8.78L2.46 9.9C2.4 9.93 2.36 9.99 2.34 10.06L2.34 12.31C2.34 12.38 2.38 12.45 2.42 12.5L4.36 13.62C4.42 13.66 4.5 13.66 4.56 13.64L6.51 12.53C6.57 12.5 6.62 12.44 6.63 12.36L6.63 10.12C6.63 10.04 6.6 9.98 6.55 9.93L4.61 8.8C4.55 8.77 4.48 8.76 4.41 8.78ZM11.44 8.78L9.5 9.9C9.44 9.93 9.39 9.99 9.38 10.06L9.38 12.31C9.38 12.38 9.41 12.45 9.46 12.5L11.4 13.62C11.46 13.66 11.53 13.66 11.6 13.64L13.54 12.53C13.6 12.5 13.65 12.44 13.66 12.36L13.66 10.12C13.66 10.04 13.63 9.98 13.58 9.93L11.64 8.8C11.58 8.77 11.51 8.76 11.44 8.78ZM12.04 7.89L12.14 7.94L14.04 9.04C14.4 9.24 14.63 9.61 14.66 10.02L14.66 10.12L14.66 12.31C14.66 12.72 14.46 13.1 14.12 13.34L14.04 13.39L12.14 14.48C11.78 14.69 11.35 14.7 10.98 14.54L10.88 14.48L8.98 13.39C8.62 13.18 8.4 12.82 8.36 12.41L8.36 12.31L8.36 10.12C8.36 9.7 8.56 9.32 8.9 9.09L8.99 9.04L10.89 7.94C11.24 7.74 11.68 7.72 12.04 7.89ZM5.01 7.89L5.11 7.94L7.01 9.04C7.37 9.24 7.6 9.61 7.63 10.02L7.63 10.12L7.63 12.31C7.63 12.72 7.43 13.1 7.09 13.34L7 13.39L5.1 14.48C4.75 14.69 4.32 14.7 3.95 14.54L3.85 14.48L1.95 13.39C1.59 13.18 1.36 12.82 1.33 12.41L1.33 12.31L1.33 10.12C1.33 9.7 1.53 9.32 1.87 9.09L1.96 9.04L3.86 7.94C4.21 7.74 4.64 7.72 5.01 7.89Z" fill="currentColor" fill-opacity="1.000000" fill-rule="nonzero"/>
	</g>
</svg>
