<svg width="16.000000" height="16.000000" viewBox="0 0 16 16" fill="none" xmlns="http://www.w3.org/2000/svg" xmlns:xlink="http://www.w3.org/1999/xlink">
	<desc>
			Created with Pixso.
	</desc>
	<defs>
		<clipPath id="clip2_58">
			<rect id="49#集群事件-cluster-events" width="16.000000" height="16.000000" fill="white" fill-opacity="0"/>
		</clipPath>
	</defs>
	<g clip-path="url(#clip2_58)">
		<path id="形状" d="M10.33 1.67L8.6 2.67L8.6 4.67L10.33 5.67L12.07 4.67L12.07 2.67L10.33 1.67ZM5.7 1.7L3.97 2.7L3.97 4.7L5.7 5.7L7.43 4.7L7.43 2.7L5.7 1.7ZM12.67 5.67L10.93 6.67L10.93 8.67L12.67 9.67L14.4 8.67L14.4 6.67L12.67 5.67ZM3.4 5.72L1.67 6.72L1.67 8.72L3.4 9.72L5.13 8.72L5.13 6.72L3.4 5.72ZM8.03 5.49L7.93 5.56L6.19 6.56C6.19 6.56 6.15 6.58 6.12 6.6L6.13 6.72L6.13 8.8C6.16 8.81 6.19 8.83 6.23 8.85L7.97 9.85C7.97 9.85 8.01 9.88 8.03 9.89L8.13 9.82L9.87 8.82C9.87 8.82 9.91 8.8 9.94 8.78L9.93 8.66L9.93 6.58L9.83 6.54L8.03 5.49ZM10.37 9.69L8.63 10.69L8.63 12.69L10.37 13.69L12.1 12.69L12.1 10.69L10.37 9.69ZM5.73 9.72L4 10.72L4 12.72L5.73 13.72L7.47 12.72L7.47 10.72L5.73 9.72ZM10.74 0.76L10.83 0.8L12.57 1.8C12.85 1.96 13.03 2.25 13.06 2.57L13.06 2.66L13.06 4.66L13.06 4.74L13.17 4.79L14.9 5.79C15.18 5.95 15.37 6.24 15.39 6.56L15.39 6.66L15.39 8.66C15.39 8.98 15.23 9.28 14.97 9.47L14.89 9.52L13.16 10.52C13.16 10.52 13.11 10.55 13.09 10.56L13.09 10.68L13.09 12.68C13.09 13.01 12.93 13.31 12.67 13.5L12.59 13.55L10.86 14.55C10.58 14.71 10.25 14.73 9.95 14.6L9.86 14.55L8.13 13.55C8.13 13.55 7.99 13.56 7.96 13.58L6.23 14.58C5.92 14.76 5.53 14.76 5.23 14.58L3.49 13.58C3.19 13.4 2.99 13.07 2.99 12.71L2.99 10.71C2.99 10.71 2.99 10.66 2.99 10.63L2.89 10.58L1.15 9.58C0.87 9.42 0.69 9.14 0.66 8.82L0.66 8.72L0.66 6.72C0.66 6.39 0.82 6.09 1.08 5.9L1.16 5.85L2.89 4.85C2.89 4.85 2.94 4.82 2.97 4.81L2.96 4.69L2.96 2.69C2.96 2.36 3.12 2.06 3.38 1.88L3.46 1.82L5.19 0.82C5.47 0.66 5.81 0.64 6.1 0.78L6.19 0.82L7.93 1.82C7.93 1.82 7.97 1.85 7.99 1.86L8.09 1.8L9.83 0.8C10.11 0.64 10.45 0.62 10.74 0.76Z" fill="currentColor" fill-opacity="1.000000" fill-rule="nonzero"/>
	</g>
</svg>
