<svg width="16.000000" height="16.000000" viewBox="0 0 16 16" fill="none" xmlns="http://www.w3.org/2000/svg" xmlns:xlink="http://www.w3.org/1999/xlink">
	<desc>
			Created with Pixso.
	</desc>
	<defs>
		<clipPath id="clip2_21">
			<rect id="5#对象-object" width="16.000000" height="16.000000" fill="white" fill-opacity="0"/>
		</clipPath>
	</defs>
	<g clip-path="url(#clip2_21)">
		<path id="形状结合" d="M13 9.72L3 9.72C2.17 9.72 1.5 10.39 1.5 11.22L1.5 12.91C1.5 13.74 2.17 14.41 3 14.41L13 14.41C13.82 14.41 14.5 13.74 14.5 12.91L14.5 11.22C14.5 10.39 13.82 9.72 13 9.72ZM13 10.72C13.27 10.72 13.5 10.94 13.5 11.22L13.5 12.91C13.5 13.19 13.27 13.41 13 13.41L3 13.41C2.72 13.41 2.5 13.19 2.5 12.91L2.5 11.22C2.5 10.94 2.72 10.72 3 10.72L13 10.72ZM11.01 1.58L4.98 1.58C4.34 1.58 3.77 1.99 3.56 2.59L1.98 7.2C1.92 7.35 1.9 7.52 1.9 7.68C1.9 8.51 2.57 9.18 3.4 9.18L12.59 9.18C12.76 9.18 12.92 9.16 13.08 9.1C13.86 8.83 14.28 7.98 14.01 7.2L12.43 2.59C12.22 1.99 11.65 1.58 11.01 1.58ZM11.01 2.58C11.22 2.58 11.41 2.71 11.48 2.92L13.07 7.52C13.16 7.78 13.02 8.07 12.76 8.16C12.7 8.17 12.65 8.18 12.59 8.18L3.4 8.18C3.12 8.18 2.9 7.96 2.9 7.68C2.9 7.63 2.91 7.57 2.92 7.52L4.51 2.92C4.58 2.71 4.77 2.58 4.98 2.58L11.01 2.58Z" fill="currentColor" fill-opacity="1.000000" fill-rule="nonzero"/>
	</g>
</svg>
