<svg width="16.000000" height="16.000000" viewBox="0 0 16 16" fill="none" xmlns="http://www.w3.org/2000/svg" xmlns:xlink="http://www.w3.org/1999/xlink">
	<desc>
			Created with Pixso.
	</desc>
	<defs>
		<clipPath id="clip2_47">
			<rect id="50#规格变更-spec-change" width="16.000000" height="16.000000" fill="white" fill-opacity="0"/>
		</clipPath>
	</defs>
	<g clip-path="url(#clip2_47)">
		<path id="形状" d="M11.12 6.04L11.12 3.5C11.12 3.18 10.95 2.88 10.68 2.72L8.48 1.45C8.2 1.29 7.86 1.29 7.58 1.45L5.38 2.72C5.1 2.88 4.93 3.18 4.93 3.5L4.93 6.04C4.93 6.36 5.1 6.66 5.38 6.82L7.58 8.08C7.86 8.24 8.2 8.24 8.48 8.08L10.68 6.82C10.96 6.66 11.12 6.36 11.12 6.04ZM10.12 5.98L8.02 7.19L5.92 5.98L5.92 3.56L8.02 2.34L10.12 3.56L10.12 5.98ZM7.08 8.72L4.88 7.45C4.6 7.29 4.26 7.29 3.98 7.45L1.78 8.72C1.5 8.88 1.33 9.18 1.33 9.5L1.33 12.04C1.33 12.36 1.5 12.66 1.78 12.82L3.98 14.08C4.26 14.24 4.6 14.24 4.88 14.08L7.08 12.82C7.36 12.66 7.52 12.36 7.52 12.04L7.52 9.5C7.52 9.18 7.35 8.88 7.08 8.72ZM6.52 11.98L4.42 13.19L2.32 11.98L2.32 9.56L4.42 8.34L6.52 9.56L6.52 11.98ZM8.49 10.34C8.49 10.06 8.72 9.84 8.99 9.84L13.22 9.84L12.79 9.3C12.63 9.1 12.65 8.81 12.82 8.64C13.04 8.46 13.4 8.46 13.57 8.68L14.64 10.04C14.9 10.36 14.66 10.84 14.24 10.84L8.98 10.84C8.71 10.84 8.49 10.61 8.49 10.34ZM14.75 12.42C14.75 12.69 14.52 12.92 14.25 12.92L10.02 12.92L10.45 13.46C10.61 13.66 10.59 13.94 10.42 14.12C10.2 14.29 9.84 14.29 9.67 14.07L8.6 12.72C8.34 12.39 8.58 11.91 9 11.91L14.26 11.91C14.53 11.91 14.75 12.14 14.75 12.42Z" fill="currentColor" fill-opacity="1.000000" fill-rule="nonzero"/>
	</g>
</svg>
