<svg width="16.000000" height="16.000000" viewBox="0 0 16 16" fill="none" xmlns="http://www.w3.org/2000/svg" xmlns:xlink="http://www.w3.org/1999/xlink">
	<desc>
			Created with Pixso.
	</desc>
	<defs>
		<clipPath id="clip2_250">
			<rect id="51#已接入镜像仓-image-repo" width="16.000000" height="16.000000" fill="white" fill-opacity="0"/>
		</clipPath>
	</defs>
	<g clip-path="url(#clip2_250)">
		<rect id="矩形" width="16.000000" height="16.000000" fill="#000000" fill-opacity="0"/>
		<path id="矢量 158" d="M7.5 2.33C7.5 2.16 7.44 2 7.36 1.85C7.1 1.36 6.5 1.19 6.01 1.45L2.03 3.62C1.39 3.97 1 4.64 1 5.38L1 12.99C1 13.81 1.66 14.49 2.5 14.49L6 14.49C6.82 14.49 7.5 13.81 7.5 12.99L7.5 10.49C7.5 10.21 7.26 9.99 7 9.99C6.72 9.99 6.5 10.21 6.5 10.49L6.5 12.99C6.5 13.26 6.26 13.49 6 13.49L2.5 13.49C2.22 13.49 2 13.26 2 12.99L2 5.38C2 5.01 2.18 4.67 2.51 4.5L6.5 2.33L6.5 6.49C6.5 6.76 6.72 6.99 7 6.99C7.26 6.99 7.5 6.76 7.5 6.49L7.5 2.33ZM11.28 2.17L10.41 1.69C10.16 1.56 9.86 1.65 9.74 1.89C9.59 2.13 9.68 2.44 9.93 2.57L10.81 3.05C11.06 3.18 11.35 3.09 11.49 2.85C11.61 2.6 11.52 2.3 11.28 2.17ZM9.5 2.87C9.5 2.6 9.26 2.37 9 2.37C8.72 2.37 8.5 2.6 8.5 2.87L8.5 3.87C8.5 4.15 8.72 4.37 9 4.37C9.26 4.37 9.5 4.15 9.5 3.87L9.5 2.87ZM13.92 3.61L13.05 3.13C12.81 2.99 12.5 3.08 12.36 3.33C12.24 3.57 12.33 3.87 12.57 4L13.44 4.48C13.68 4.62 13.99 4.53 14.13 4.28C14.25 4.04 14.16 3.74 13.92 3.61ZM15 5.81C15 5.54 14.76 5.31 14.5 5.31C14.22 5.31 14 5.54 14 5.81L14 6.81C14 7.09 14.22 7.31 14.5 7.31C14.76 7.31 15 7.09 15 6.81L15 5.81ZM9.5 5.87C9.5 5.6 9.26 5.37 9 5.37C8.72 5.37 8.5 5.6 8.5 5.87L8.5 6.49C8.5 6.76 8.72 6.99 9 6.99C9.26 6.99 9.5 6.76 9.5 6.49L9.5 5.87ZM4 8.49C4 7.94 4.44 7.49 5 7.49C5.36 7.49 5.69 7.69 5.86 7.99L10.13 7.99C10.3 7.69 10.63 7.49 11 7.49C11.55 7.49 12 7.94 12 8.49C12 9.05 11.55 9.49 11 9.49C10.62 9.49 10.3 9.29 10.13 8.99L5.86 8.99C5.69 9.29 5.37 9.49 5 9.49C4.44 9.49 4 9.05 4 8.49ZM15 8.81C15 8.54 14.76 8.31 14.5 8.31C14.22 8.31 14 8.54 14 8.81L14 9.81C14 10.09 14.22 10.31 14.5 10.31C14.76 10.31 15 10.09 15 9.81L15 8.81ZM9.5 10.49C9.5 10.21 9.26 9.99 9 9.99C8.72 9.99 8.5 10.21 8.5 10.49L8.5 11.49C8.5 11.76 8.72 11.99 9 11.99C9.26 11.99 9.5 11.76 9.5 11.49L9.5 10.49ZM15 11.81C15 11.54 14.76 11.31 14.5 11.31C14.22 11.31 14 11.54 14 11.81L14 12.81C14 13.09 14.22 13.31 14.5 13.31C14.76 13.31 15 13.09 15 12.81L15 11.81ZM9.93 13.48C9.77 13.46 9.58 13.29 9.5 13.15C9.35 12.97 9.08 12.91 8.88 13.03C8.64 13.17 8.55 13.47 8.67 13.71C8.91 14.13 9.33 14.42 9.85 14.48L10.06 14.49C10.33 14.49 10.57 14.28 10.58 14C10.58 13.73 10.36 13.49 10.09 13.49L9.93 13.48ZM13.58 13.99C13.58 13.71 13.35 13.49 13.08 13.49L12.08 13.49C11.8 13.49 11.58 13.71 11.58 13.99C11.58 14.26 11.8 14.49 12.08 14.49L13.08 14.49C13.35 14.49 13.58 14.26 13.58 13.99Z" fill="currentColor" fill-opacity="1.000000" fill-rule="evenodd"/>
	</g>
</svg>
