<svg width="16.000000" height="16.000000" viewBox="0 0 16 16" fill="none" xmlns="http://www.w3.org/2000/svg" xmlns:xlink="http://www.w3.org/1999/xlink">
	<desc>
			Created with Pixso.
	</desc>
	<defs>
		<clipPath id="clip2_246">
			<rect id="52#镜像阻断策略-blocking-policy" width="16.000000" height="16.000000" fill="white" fill-opacity="0"/>
		</clipPath>
	</defs>
	<g clip-path="url(#clip2_246)">
		<rect id="矩形" width="16.000000" height="16.000000" fill="#000000" fill-opacity="0"/>
		<path id="形状结合" d="M7.37 1.85C7.45 2 7.5 2.16 7.5 2.33L7.5 4.02C7.66 4 7.83 3.99 8 3.99C8.16 3.99 8.33 4 8.5 4.02L8.5 3.87C8.5 3.6 8.72 3.37 9 3.37C9.27 3.37 9.5 3.6 9.5 3.87L9.5 4.28C10.96 4.87 12 6.31 12 7.99C12 9.66 10.96 11.1 9.5 11.69L9.5 12.49C9.5 12.76 9.27 12.99 9 12.99C8.72 12.99 8.5 12.76 8.5 12.49L8.5 11.95C8.33 11.97 8.16 11.99 8 11.99C7.83 11.99 7.66 11.97 7.5 11.95L7.5 12.99C7.5 13.81 6.82 14.49 6 14.49L2.5 14.49C1.67 14.49 1 13.81 1 12.99L1 5.38C1 4.64 1.39 3.97 2.03 3.62L6.02 1.45C6.5 1.19 7.11 1.36 7.37 1.85ZM11.08 13.49C11.36 13.49 11.58 13.71 11.58 13.99C11.58 14.26 11.36 14.49 11.08 14.49L10.08 14.49C9.8 14.49 9.58 14.26 9.58 13.99C9.58 13.71 9.8 13.49 10.08 13.49L11.08 13.49ZM14.47 13.53C14.62 13.76 14.56 14.07 14.34 14.23C14.09 14.39 13.8 14.49 13.5 14.49L13.08 14.49C12.8 14.49 12.58 14.26 12.58 13.99C12.58 13.71 12.8 13.49 13.08 13.49L13.5 13.49C13.56 13.49 13.63 13.47 13.69 13.45C13.92 13.29 14.31 13.3 14.47 13.53ZM6.5 2.33L2.52 4.5C2.19 4.67 2 5.01 2 5.38L2 12.99C2 13.26 2.22 13.49 2.5 13.49L6 13.49C6.27 13.49 6.5 13.26 6.5 12.99L6.5 11.69C5.03 11.1 4 9.66 4 7.99C4 6.31 5.03 4.87 6.5 4.28L6.5 2.33ZM14.5 10.31C14.77 10.31 15 10.54 15 10.81L15 11.81C15 12.09 14.77 12.31 14.5 12.31C14.22 12.31 14 12.09 14 11.81L14 10.81C14 10.54 14.22 10.31 14.5 10.31ZM8 4.99C6.34 4.99 5 6.33 5 7.99C5 9.64 6.34 10.99 8 10.99C9.64 10.99 11 9.64 11 7.99C11 6.33 9.64 4.99 8 4.99ZM14.5 7.31C14.77 7.31 15 7.54 15 7.81L15 8.81C15 9.09 14.77 9.31 14.5 9.31C14.22 9.31 14 9.09 14 8.81L14 7.81C14 7.54 14.22 7.31 14.5 7.31ZM9.5 7.49C9.77 7.49 10 7.71 10 7.99C10 8.26 9.77 8.49 9.5 8.49L6.5 8.49C6.22 8.49 6 8.26 6 7.99C6 7.71 6.22 7.49 6.5 7.49L9.5 7.49ZM14.85 4.64C14.95 4.87 15 5.12 15 5.38L15 5.81C15 6.09 14.77 6.31 14.5 6.31C14.22 6.31 14 6.09 14 5.81L14 5.38C14 5.25 13.97 5.12 13.92 5.01C13.82 4.75 13.95 4.46 14.21 4.36C14.46 4.26 14.75 4.38 14.85 4.64ZM12.17 2.65L13.05 3.13C13.29 3.26 13.38 3.56 13.25 3.8C13.12 4.05 12.81 4.14 12.57 4L11.69 3.53C11.45 3.39 11.36 3.09 11.49 2.85C11.62 2.6 11.93 2.52 12.17 2.65ZM9.97 1.45L10.41 1.69C10.66 1.82 10.75 2.13 10.61 2.37C10.48 2.61 10.18 2.7 9.93 2.57L9.49 2.33C9.25 2.47 8.95 2.39 8.81 2.16C8.67 1.92 8.74 1.61 8.97 1.47C9.28 1.29 9.66 1.28 9.97 1.45Z" fill="currentColor" fill-opacity="1.000000" fill-rule="nonzero"/>
	</g>
</svg>
