<svg width="16.000000" height="16.000000" viewBox="0 0 16 16" fill="none" xmlns="http://www.w3.org/2000/svg" xmlns:xlink="http://www.w3.org/1999/xlink">
	<desc>
			Created with Pixso.
	</desc>
	<defs>
		<clipPath id="clip2_245">
			<rect id="53#异常镜像仓-failed-image-repo" width="16.000000" height="16.000000" fill="white" fill-opacity="0"/>
		</clipPath>
	</defs>
	<g clip-path="url(#clip2_245)">
		<rect id="矩形" width="16.000000" height="16.000000" fill="#000000" fill-opacity="0"/>
		<path id="形状结合" d="M7.37 1.85C7.45 2 7.5 2.16 7.5 2.33L7.5 4.99C7.5 5.26 7.27 5.49 7 5.49C6.72 5.49 6.5 5.26 6.5 4.99L6.5 2.33L2.52 4.5C2.19 4.67 2 5.01 2 5.38L2 12.99C2 13.26 2.22 13.49 2.5 13.49L6 13.49C6.27 13.49 6.5 13.26 6.5 12.99L6.5 11.99C6.5 11.71 6.72 11.49 7 11.49C7.27 11.49 7.5 11.71 7.5 11.99L7.5 12.99C7.5 13.81 6.82 14.49 6 14.49L2.5 14.49C1.67 14.49 1 13.81 1 12.99L1 5.38C1 4.64 1.39 3.97 2.04 3.62L6.02 1.45C6.5 1.19 7.11 1.36 7.37 1.85ZM11.58 13.49C11.86 13.49 12.08 13.71 12.08 13.99C12.08 14.26 11.86 14.49 11.58 14.49L10.58 14.49C10.3 14.49 10.08 14.26 10.08 13.99C10.08 13.71 10.3 13.49 10.58 13.49L11.58 13.49ZM14.61 12.96C14.86 13.07 14.97 13.37 14.85 13.62C14.63 14.1 14.16 14.43 13.62 14.48C13.35 14.5 13.11 14.3 13.08 14.02C13.06 13.78 13.22 13.56 13.45 13.5C13.6 13.49 13.82 13.39 13.9 13.27C14.02 13.02 14.36 12.84 14.61 12.96ZM9 11.49C9.27 11.49 9.5 11.71 9.5 11.99L9.5 12.99C9.5 13.26 9.27 13.49 9 13.49C8.72 13.49 8.5 13.26 8.5 12.99L8.5 11.99C8.5 11.71 8.72 11.49 9 11.49ZM14.5 9.81C14.77 9.81 15 10.04 15 10.31L15 11.31C15 11.59 14.77 11.81 14.5 11.81C14.22 11.81 14 11.59 14 11.31L14 10.31C14 10.04 14.22 9.81 14.5 9.81ZM6.85 6.63L8 7.78L9.14 6.63C9.32 6.46 9.58 6.44 9.78 6.57C9.97 6.77 10.04 7.14 9.85 7.34L8.7 8.49L9.85 9.63C10.04 9.83 10.04 10.14 9.85 10.34C9.64 10.53 9.34 10.53 9.14 10.34L8 9.19L6.85 10.34C6.67 10.51 6.41 10.53 6.21 10.4C6.02 10.2 5.95 9.83 6.14 9.63L7.29 8.49L6.14 7.34C5.95 7.14 5.95 6.83 6.14 6.63C6.34 6.44 6.65 6.44 6.85 6.63ZM14.5 6.81C14.77 6.81 15 7.04 15 7.31L15 8.31C15 8.59 14.77 8.81 14.5 8.81C14.22 8.81 14 8.59 14 8.31L14 7.31C14 7.04 14.22 6.81 14.5 6.81ZM14.5 4.06C14.8 4.4 14.97 4.83 14.99 5.29C15 5.57 14.79 5.8 14.51 5.81C14.27 5.82 14.06 5.65 14.01 5.42C14 5.24 13.93 4.97 13.83 4.82C13.64 4.61 13.58 4.19 13.79 4.01C14 3.83 14.32 3.85 14.5 4.06ZM9 3.87C9.27 3.87 9.5 4.1 9.5 4.37L9.5 4.99C9.5 5.26 9.27 5.49 9 5.49C8.72 5.49 8.5 5.26 8.5 4.99L8.5 4.37C8.5 4.1 8.72 3.87 9 3.87ZM11.73 2.41L12.61 2.89C12.85 3.02 12.94 3.32 12.81 3.57C12.68 3.81 12.37 3.9 12.13 3.76L11.25 3.29C11.01 3.15 10.92 2.85 11.05 2.61C11.18 2.37 11.49 2.28 11.73 2.41ZM9.87 1.4L9.97 1.45C10.22 1.58 10.31 1.89 10.17 2.13C10.06 2.34 9.8 2.44 9.58 2.36C9.58 2.64 9.27 2.87 9 2.87C8.72 2.87 8.5 2.65 8.5 2.37C8.5 2.2 8.54 2 8.62 1.85C8.85 1.4 9.39 1.21 9.87 1.4Z" fill="currentColor" fill-opacity="1.000000" fill-rule="nonzero"/>
	</g>
</svg>
