<svg width="16.000000" height="16.000000" viewBox="0 0 16 16" fill="none" xmlns="http://www.w3.org/2000/svg" xmlns:xlink="http://www.w3.org/1999/xlink">
	<desc>
			Created with Pixso.
	</desc>
	<defs>
		<clipPath id="clip2_84">
			<rect id="6#命令行-cli-shell" width="16.000000" height="16.000000" fill="white" fill-opacity="0"/>
		</clipPath>
	</defs>
	<g clip-path="url(#clip2_84)">
		<path id="形状" d="M4.06 6.58C3.86 6.39 3.84 6.09 4.01 5.88L5.98 4.05C6.2 3.84 6.57 3.84 6.8 4.05C7 4.24 7.02 4.54 6.85 4.76L5.29 6.2L6.8 7.6C7 7.79 7.02 8.09 6.85 8.3C6.64 8.5 6.26 8.56 6.04 8.4L4.06 6.58ZM12.06 11.08L4.44 11.08C4.14 11.08 3.89 11.3 3.89 11.59C3.89 11.88 4.14 12.1 4.44 12.1L12.06 12.1C12.36 12.1 12.61 11.88 12.61 11.59C12.61 11.3 12.36 11.08 12.06 11.08ZM14.66 3.56L14.66 12.44C14.66 13.67 13.66 14.66 12.44 14.66L3.55 14.66C2.32 14.66 1.33 13.67 1.33 12.44L1.33 3.55C1.33 2.32 2.32 1.33 3.55 1.33L12.44 1.33C13.66 1.33 14.66 2.33 14.66 3.56ZM13.63 3.49C13.63 2.9 13.18 2.42 12.61 2.37L12.5 2.37L3.48 2.37C2.89 2.37 2.41 2.82 2.36 3.39L2.36 3.5L2.36 12.52C2.36 13.11 2.8 13.59 3.38 13.64L3.48 13.64L12.51 13.64C13.1 13.64 13.58 13.2 13.63 12.62L13.63 12.52L13.63 3.49Z" fill="currentColor" fill-opacity="1.000000" fill-rule="nonzero"/>
	</g>
</svg>
