<svg width="16.000000" height="16.000000" viewBox="0 0 16 16" fill="none" xmlns="http://www.w3.org/2000/svg" xmlns:xlink="http://www.w3.org/1999/xlink">
	<desc>
			Created with Pixso.
	</desc>
	<defs>
		<clipPath id="clip117_1436">
			<rect id="60#已开启策略-strategy-enabled" width="16.000000" height="16.000000" fill="white" fill-opacity="0"/>
		</clipPath>
	</defs>
	<g clip-path="url(#clip117_1436)">
		<path id="_形状结合" d="M9.17 0.5C9.32 0.5 9.48 0.5 9.64 0.54C9.81 0.57 9.97 0.61 10.12 0.68C10.28 0.75 10.42 0.83 10.56 0.92C10.69 1.01 10.82 1.11 10.93 1.23L13.76 4.06C13.88 4.17 13.98 4.3 14.07 4.42C14.16 4.57 14.24 4.71 14.3 4.87C14.37 5.02 14.42 5.18 14.45 5.34C14.48 5.5 14.5 5.66 14.5 5.82L14.5 13C14.5 13.18 14.48 13.36 14.44 13.53C14.4 13.68 14.36 13.83 14.3 13.97C14.24 14.11 14.17 14.24 14.08 14.37C13.99 14.51 13.88 14.64 13.76 14.76C13.64 14.88 13.51 14.99 13.37 15.08C13.24 15.17 13.11 15.24 12.97 15.3C12.83 15.36 12.68 15.4 12.53 15.44C12.36 15.48 12.18 15.5 12 15.5L4 15.5C3.81 15.5 3.63 15.48 3.45 15.44C3.31 15.4 3.16 15.36 3.01 15.3C2.88 15.24 2.75 15.17 2.62 15.08C2.48 14.99 2.35 14.88 2.23 14.76C2.1 14.64 2 14.51 1.91 14.37C1.82 14.24 1.75 14.11 1.69 13.97C1.63 13.83 1.59 13.68 1.54 13.53C1.51 13.36 1.5 13.18 1.5 13L1.5 3C1.5 2.81 1.5 2.63 1.54 2.46C1.59 2.31 1.63 2.16 1.69 2.02C1.75 1.88 1.82 1.75 1.91 1.62C2 1.48 2.1 1.35 2.23 1.23C2.35 1.11 2.48 1 2.62 0.91C2.75 0.82 2.88 0.75 3.01 0.68C3.16 0.63 3.31 0.58 3.45 0.54C3.63 0.5 3.81 0.5 4 0.5L9.17 0.5ZM9.26 1.5L4 1.5C3.88 1.5 3.76 1.5 3.64 1.53C3.57 1.55 3.48 1.58 3.41 1.61C3.32 1.65 3.25 1.69 3.17 1.74C3.09 1.79 3.01 1.86 2.92 1.93C2.85 2.01 2.79 2.08 2.73 2.18C2.69 2.25 2.64 2.33 2.6 2.41C2.57 2.49 2.54 2.57 2.53 2.65C2.51 2.77 2.5 2.88 2.5 3L2.5 13C2.5 13.11 2.5 13.22 2.53 13.34C2.54 13.42 2.57 13.5 2.6 13.58C2.64 13.66 2.69 13.74 2.73 13.81C2.79 13.9 2.85 13.98 2.92 14.06C3.01 14.13 3.09 14.2 3.17 14.25C3.25 14.3 3.32 14.34 3.41 14.38C3.48 14.41 3.57 14.44 3.64 14.46C3.76 14.48 3.88 14.5 4 14.5L12 14.5C12.11 14.5 12.22 14.48 12.34 14.46C12.42 14.44 12.5 14.41 12.58 14.38C12.66 14.34 12.74 14.3 12.81 14.25C12.9 14.2 12.98 14.13 13.06 14.06C13.13 13.98 13.2 13.9 13.25 13.81C13.3 13.74 13.34 13.66 13.38 13.58C13.41 13.5 13.44 13.42 13.46 13.34C13.48 13.22 13.5 13.11 13.5 13L13.5 5.82C13.5 5.72 13.49 5.63 13.47 5.53L11.01 5.5C10.9 5.5 10.79 5.48 10.69 5.46C10.6 5.44 10.51 5.41 10.42 5.38C10.33 5.34 10.25 5.3 10.18 5.25C10.09 5.19 10.02 5.13 9.93 5.06C9.87 4.98 9.81 4.91 9.75 4.82C9.7 4.75 9.66 4.67 9.62 4.58C9.59 4.48 9.56 4.4 9.54 4.31C9.51 4.21 9.51 4.1 9.51 4L9.51 1.53C9.43 1.51 9.32 1.5 9.26 1.5ZM5.17 6.67C5.36 6.47 5.67 6.47 5.87 6.67C6.07 6.86 6.07 7.18 5.87 7.37C5.7 7.54 5.57 7.71 5.45 7.9C5.35 8.05 5.28 8.2 5.2 8.37C5.14 8.53 5.09 8.7 5.06 8.88C5.01 9.08 5 9.29 5 9.5C5 9.71 5.01 9.91 5.06 10.1C5.09 10.29 5.14 10.46 5.2 10.62C5.28 10.79 5.36 10.94 5.45 11.09C5.57 11.28 5.7 11.45 5.87 11.62C6.04 11.78 6.2 11.92 6.39 12.04C6.54 12.13 6.7 12.21 6.87 12.28C7.03 12.34 7.2 12.4 7.38 12.43C7.57 12.47 7.79 12.5 8 12.5C8.2 12.5 8.41 12.47 8.6 12.43C8.79 12.4 8.95 12.34 9.12 12.28C9.29 12.21 9.43 12.13 9.59 12.04C9.78 11.92 9.95 11.78 10.12 11.62C10.28 11.45 10.42 11.28 10.54 11.09C10.63 10.94 10.71 10.79 10.78 10.62C10.84 10.46 10.9 10.29 10.93 10.1C10.97 9.91 11 9.7 11 9.5C11 9.29 10.97 9.08 10.93 8.88C10.9 8.7 10.84 8.53 10.78 8.37C10.71 8.2 10.63 8.05 10.54 7.9C10.42 7.71 10.28 7.54 10.12 7.37C9.92 7.18 9.92 6.86 10.12 6.67C10.31 6.47 10.63 6.47 10.82 6.67C11.03 6.88 11.22 7.1 11.37 7.35C11.5 7.55 11.61 7.76 11.7 7.99C11.79 8.22 11.87 8.45 11.91 8.68C11.97 8.95 12 9.22 12 9.5C12 9.78 11.97 10.04 11.91 10.3C11.87 10.54 11.79 10.77 11.7 11C11.61 11.23 11.5 11.44 11.37 11.64C11.22 11.89 11.03 12.11 10.82 12.32C10.61 12.53 10.39 12.72 10.14 12.87C9.93 13 9.73 13.11 9.5 13.2C9.26 13.29 9.04 13.37 8.79 13.41C8.54 13.47 8.26 13.5 8 13.5C7.73 13.5 7.45 13.47 7.19 13.41C6.95 13.37 6.72 13.29 6.48 13.2C6.26 13.11 6.04 13 5.85 12.87C5.6 12.72 5.38 12.53 5.17 12.32C4.95 12.11 4.76 11.89 4.62 11.64C4.48 11.44 4.38 11.23 4.29 11C4.2 10.77 4.13 10.54 4.07 10.3C4.01 10.04 4 9.77 4 9.5C4 9.22 4.01 8.95 4.07 8.68C4.13 8.45 4.2 8.22 4.29 7.99C4.38 7.76 4.48 7.55 4.62 7.35C4.76 7.1 4.95 6.88 5.17 6.67ZM8 6C8.28 6 8.5 6.21 8.5 6.5L8.5 9.5C8.5 9.78 8.28 10 8 10C7.72 10 7.5 9.78 7.5 9.5L7.5 6.5C7.5 6.21 7.72 6 8 6ZM10.53 2.23L10.5 4C10.5 4.06 10.51 4.13 10.53 4.19C10.56 4.25 10.59 4.3 10.64 4.35C10.69 4.4 10.74 4.42 10.8 4.46C10.86 4.48 10.93 4.5 11 4.5L12.76 4.46L10.53 2.23Z" fill="currentColor" fill-opacity="1.000000" fill-rule="evenodd"/>
	</g>
</svg>
