<svg width="16.000000" height="16.000000" viewBox="0 0 16 16" fill="none" xmlns="http://www.w3.org/2000/svg" xmlns:xlink="http://www.w3.org/1999/xlink">
	<desc>
			Created with Pixso.
	</desc>
	<defs>
		<clipPath id="clip117_1444">
			<rect id="64#主机修复成功-host-repair-successful" width="16.000000" height="16.000000" fill="white" fill-opacity="0"/>
		</clipPath>
	</defs>
	<g clip-path="url(#clip117_1444)">
		<path id="矢量 177" d="M8.9 1C9.46 1 9.98 1.3 10.27 1.81L10.34 1.95L10.77 2.95L10.99 3.08L12.08 2.94C12.56 2.89 13.04 3.05 13.39 3.41L13.5 3.53L13.61 3.67L14.53 5.27C14.81 5.75 14.82 6.34 14.53 6.86L14.43 7L13.77 7.87L13.77 8.12L14.43 8.99C14.72 9.38 14.82 9.87 14.69 10.35L14.63 10.51L14.56 10.67L13.63 12.27C13.35 12.76 12.83 13.06 12.24 13.06L12.08 13.06L10.99 12.91L10.77 13.04L10.34 14.04C10.15 14.49 9.77 14.81 9.29 14.94L9.12 14.98L8.95 14.98L7.09 15C6.53 15 6.01 14.69 5.72 14.18L5.65 14.04L5.22 13.04L5 12.91L3.91 13.05C3.43 13.1 2.95 12.94 2.6 12.58L2.49 12.46L2.38 12.32L1.46 10.72C1.18 10.24 1.17 9.64 1.46 9.13L1.56 8.99L2.22 8.12L2.22 7.87L1.56 7C1.27 6.61 1.17 6.12 1.3 5.64L1.36 5.48L1.43 5.31L2.36 3.72C2.64 3.23 3.16 2.92 3.75 2.92L3.91 2.92L5 3.08L5.22 2.95L5.65 1.95C5.84 1.5 6.22 1.17 6.7 1.04L6.87 1L7.05 1L8.9 1ZM8.95 2L7.1 2L6.94 2.02C6.84 2.05 6.75 2.1 6.68 2.17C6.63 2.21 6.59 2.27 6.57 2.33L6.14 3.34L6.06 3.49C6.06 3.49 6 3.57 5.96 3.61C5.93 3.66 5.89 3.69 5.85 3.73L5.72 3.82L5.5 3.94C5.45 3.97 5.4 3.99 5.35 4C5.3 4.03 5.25 4.03 5.2 4.06C5.15 4.07 5.09 4.07 5.04 4.07C4.99 4.07 4.93 4.07 4.88 4.07L3.72 3.93C3.63 3.93 3.5 3.98 3.43 4C3.39 4.04 3.35 4.07 3.31 4.1L3.22 4.21L2.32 5.78L2.27 5.92C2.24 6.02 2.24 6.12 2.27 6.21C2.29 6.27 2.32 6.34 2.37 6.39L3.03 7.27C3.03 7.27 3.09 7.36 3.11 7.41C3.14 7.45 3.16 7.5 3.18 7.55C3.18 7.61 3.21 7.66 3.21 7.71C3.21 7.75 3.23 7.82 3.23 7.87L3.23 8.12C3.23 8.17 3.23 8.22 3.21 8.28C3.21 8.33 3.19 8.38 3.18 8.43C3.16 8.49 3.14 8.53 3.11 8.58C3.09 8.63 3.06 8.67 3.03 8.72L2.33 9.64C2.29 9.72 2.26 9.85 2.26 9.93C2.26 9.99 2.26 10.04 2.26 10.08L2.32 10.22L3.22 11.77L3.32 11.89C3.4 11.96 3.48 12.01 3.57 12.04C3.64 12.06 3.71 12.06 3.79 12.05L4.88 11.92C4.88 11.92 4.99 11.91 5.04 11.91L5.2 11.93C5.25 11.93 5.3 11.96 5.35 11.98C5.4 12 5.45 12.02 5.5 12.05L5.72 12.17L5.85 12.26C5.85 12.26 5.93 12.33 5.96 12.37C6 12.42 6.03 12.46 6.06 12.5L6.14 12.65L6.6 13.71C6.64 13.78 6.74 13.87 6.81 13.92C6.85 13.94 6.9 13.96 6.94 13.97C6.99 13.99 7.04 14 7.09 14L8.9 14L9.05 13.97C9.16 13.94 9.24 13.89 9.31 13.82C9.36 13.77 9.4 13.72 9.42 13.65L9.85 12.65C9.85 12.65 9.9 12.55 9.93 12.5C9.96 12.46 9.99 12.42 10.03 12.38C10.06 12.33 10.1 12.3 10.14 12.26L10.27 12.17L10.49 12.05C10.54 12.02 10.59 12 10.64 11.98C10.69 11.96 10.74 11.94 10.79 11.93L10.95 11.91C11 11.91 11.06 11.91 11.11 11.92L12.27 12.06C12.36 12.05 12.49 12.01 12.56 11.98L12.68 11.89L12.77 11.77L13.67 10.21L13.72 10.07C13.75 9.97 13.75 9.87 13.72 9.78C13.7 9.72 13.67 9.65 13.62 9.59L12.96 8.72C12.96 8.72 12.9 8.63 12.88 8.58C12.85 8.54 12.83 8.49 12.81 8.43C12.81 8.38 12.78 8.33 12.77 8.28C12.77 8.22 12.77 8.17 12.77 8.12L12.77 7.71C12.79 7.66 12.81 7.61 12.82 7.55C12.84 7.5 12.86 7.45 12.89 7.41C12.91 7.36 12.94 7.31 12.97 7.27L13.67 6.34C13.71 6.26 13.74 6.13 13.74 6.05C13.74 6 13.74 5.95 13.73 5.91L13.67 5.77L12.77 4.21L12.67 4.1C12.59 4.03 12.51 3.98 12.42 3.95C12.35 3.93 12.28 3.93 12.2 3.95L11.11 4.08C11.11 4.08 11 4.08 10.95 4.08C10.9 4.08 10.84 4.08 10.79 4.07C10.74 4.05 10.69 4.04 10.64 4.02C10.59 4 10.54 3.98 10.49 3.95L10.27 3.83L10.14 3.74C10.14 3.74 10.06 3.66 10.03 3.62C9.99 3.58 9.96 3.54 9.93 3.5C9.9 3.45 9.87 3.4 9.85 3.35L9.39 2.29C9.35 2.22 9.25 2.13 9.18 2.08C9.14 2.06 8.99 2 8.95 2ZM10.85 6.14C11.05 6.34 11.05 6.64 10.85 6.85L7.85 9.85C7.75 9.95 7.63 10 7.5 10C7.36 10 7.24 9.95 7.14 9.85L5.14 7.85C4.94 7.64 4.94 7.34 5.14 7.14C5.34 6.94 5.65 6.94 5.85 7.14L7.5 8.78L10.14 6.14C10.34 5.94 10.65 5.94 10.85 6.14Z" fill="currentColor" fill-opacity="1.000000" fill-rule="evenodd"/>
	</g>
</svg>
