<svg width="16.000000" height="16.000000" viewBox="0 0 16 16" fill="none" xmlns="http://www.w3.org/2000/svg" xmlns:xlink="http://www.w3.org/1999/xlink">
	<desc>
			Created with Pixso.
	</desc>
	<defs>
		<clipPath id="clip117_1448">
			<rect id="65#同步失败镜像仓-sync-failed-image-repo" width="16.000000" height="16.000000" fill="white" fill-opacity="0"/>
		</clipPath>
	</defs>
	<g clip-path="url(#clip117_1448)">
		<path id="_矢量-180" d="M14.46 13.7C14.44 13.79 14.41 13.88 14.38 13.97C14.34 14.06 14.3 14.14 14.25 14.21C14.19 14.3 14.13 14.37 14.06 14.45C13.98 14.52 13.91 14.58 13.82 14.64C13.75 14.69 13.67 14.73 13.58 14.77C13.49 14.8 13.4 14.83 13.31 14.85C13.21 14.87 13.1 14.89 13 14.89L3 14.89C2.89 14.89 2.78 14.87 2.67 14.85C2.59 14.83 2.5 14.8 2.41 14.77C2.32 14.73 2.23 14.69 2.17 14.64C2.07 14.58 2.01 14.52 1.92 14.45C1.85 14.37 1.79 14.3 1.73 14.21C1.69 14.14 1.64 14.06 1.6 13.97C1.57 13.88 1.54 13.79 1.53 13.7C1.51 13.6 1.5 13.5 1.5 13.39L1.5 5.92C1.5 5.79 1.5 5.67 1.54 5.56C1.57 5.44 1.6 5.32 1.67 5.21C1.73 5.1 1.79 5 1.88 4.91C1.97 4.82 2.06 4.74 2.16 4.67L7.16 1.34C7.29 1.25 7.42 1.19 7.56 1.15C7.7 1.11 7.84 1.09 8 1.09C8.14 1.09 8.29 1.11 8.42 1.15C8.57 1.19 8.7 1.25 8.82 1.34L13.83 4.67C13.93 4.74 14.02 4.82 14.11 4.91C14.19 5 14.26 5.1 14.32 5.21C14.38 5.32 14.42 5.44 14.45 5.56C14.48 5.67 14.5 5.79 14.5 5.92L14.5 13.39C14.5 13.5 14.49 13.6 14.46 13.7ZM13.5 13.39L13.5 5.92C13.5 5.92 13.49 5.84 13.48 5.8C13.48 5.76 13.46 5.72 13.44 5.68C13.42 5.65 13.3 5.53 13.27 5.5L8.26 2.17C8.26 2.17 8.18 2.12 8.14 2.11C8.09 2.09 8.04 2.09 8 2.09C7.94 2.09 7.89 2.09 7.85 2.11C7.79 2.11 7.76 2.14 7.72 2.17L2.62 5.58C2.6 5.62 2.51 5.76 2.51 5.8C2.5 5.84 2.51 5.88 2.51 5.92L2.51 13.39C2.51 13.45 2.51 13.52 2.54 13.58C2.57 13.64 2.6 13.69 2.64 13.74C2.7 13.79 2.75 13.82 2.81 13.85C2.87 13.87 2.94 13.89 3.01 13.89L13.01 13.89C13.07 13.89 13.14 13.87 13.2 13.85C13.26 13.82 13.31 13.79 13.36 13.74C13.41 13.69 13.44 13.64 13.47 13.58C13.49 13.52 13.5 13.45 13.5 13.39ZM9.41 6.76C9.6 6.56 9.92 6.56 10.12 6.76C10.31 6.96 10.31 7.27 10.12 7.47L8.7 8.88L10.12 10.3C10.31 10.49 10.31 10.81 10.12 11C9.92 11.2 9.6 11.2 9.41 11L8 9.59L6.57 11C6.38 11.2 6.07 11.2 5.87 11C5.67 10.81 5.67 10.49 5.87 10.3L7.29 8.88L5.87 7.47C5.67 7.27 5.67 6.96 5.87 6.76C6.07 6.56 6.38 6.56 6.57 6.76L8 8.18L9.41 6.76Z" fill="currentColor" fill-opacity="1.000000" fill-rule="evenodd"/>
	</g>
</svg>
