<svg width="16.000000" height="16.000000" viewBox="0 0 16 16" fill="none" xmlns="http://www.w3.org/2000/svg" xmlns:xlink="http://www.w3.org/1999/xlink">
	<desc>
			Created with Pixso.
	</desc>
	<defs>
		<clipPath id="clip117_1450">
			<rect id="66#同步镜像仓-sync-image-repo" width="16.000000" height="16.000000" fill="white" fill-opacity="0"/>
		</clipPath>
	</defs>
	<g clip-path="url(#clip117_1450)">
		<path id="_矢量-179" d="M3.57 14.12L2 14.12C1.89 14.12 1.78 14.1 1.67 14.08C1.59 14.06 1.5 14.03 1.41 14C1.32 13.96 1.23 13.92 1.17 13.87C1.07 13.81 1.01 13.75 0.92 13.68C0.85 13.6 0.79 13.53 0.73 13.44C0.69 13.37 0.64 13.29 0.6 13.2C0.57 13.11 0.54 13.02 0.52 12.93C0.51 12.83 0.5 12.72 0.5 12.62L0.5 5.62C0.5 5.5 0.51 5.38 0.54 5.27C0.55 5.16 0.6 5.05 0.66 4.94C0.7 4.84 0.77 4.74 0.85 4.65C0.92 4.56 1.01 4.48 1.1 4.41L5.6 1.14C5.73 1.04 5.88 0.97 6.03 0.92C6.17 0.88 6.32 0.85 6.5 0.85C6.66 0.85 6.81 0.88 6.95 0.92C7.1 0.97 7.25 1.04 7.38 1.14L8.67 2.09C8.79 2.02 8.91 1.96 9.03 1.92C9.17 1.88 9.32 1.85 9.5 1.85C9.66 1.85 9.81 1.88 9.95 1.92C10.1 1.97 10.25 2.04 10.38 2.14L14.88 5.41C14.97 5.48 15.06 5.56 15.14 5.65C15.21 5.74 15.28 5.84 15.33 5.94C15.39 6.05 15.43 6.16 15.45 6.27C15.48 6.38 15.5 6.5 15.5 6.62L15.5 13.62C15.5 13.72 15.48 13.83 15.46 13.93C15.44 14.02 15.41 14.11 15.38 14.2C15.34 14.29 15.3 14.37 15.25 14.44C15.19 14.53 15.13 14.6 15.06 14.68C14.98 14.75 14.91 14.81 14.82 14.87C14.75 14.92 14.67 14.96 14.58 15C14.49 15.03 14.4 15.06 14.31 15.08C14.21 15.1 14.1 15.12 14 15.12L5 15.12C4.89 15.12 4.78 15.1 4.67 15.08C4.59 15.06 4.5 15.03 4.41 15C4.32 14.96 4.23 14.92 4.17 14.87C4.07 14.81 4.01 14.75 3.92 14.68C3.85 14.6 3.79 14.53 3.73 14.44C3.69 14.37 3.62 14.21 3.57 14.12ZM3.5 13.12L2 13.12C1.92 13.12 1.85 13.1 1.79 13.08C1.73 13.05 1.69 13.02 1.64 12.97C1.59 12.92 1.56 12.87 1.53 12.81C1.51 12.75 1.5 12.69 1.5 12.62L1.5 5.62C1.5 5.62 1.5 5.55 1.5 5.51C1.5 5.47 1.51 5.43 1.54 5.4C1.56 5.37 1.66 5.24 1.69 5.22L6.19 1.95C6.19 1.95 6.28 1.89 6.32 1.88C6.38 1.86 6.42 1.85 6.48 1.85C6.54 1.85 6.59 1.85 6.64 1.88C6.69 1.88 6.73 1.92 6.78 1.95L7.82 2.71L4.1 5.41C4.01 5.48 3.92 5.56 3.84 5.65C3.76 5.74 3.7 5.84 3.64 5.94C3.59 6.05 3.54 6.16 3.53 6.27C3.5 6.38 3.48 6.5 3.48 6.62L3.5 13.12ZM4.5 13.62C4.5 13.69 4.51 13.75 4.53 13.81C4.56 13.87 4.59 13.92 4.64 13.97C4.69 14.02 4.73 14.05 4.79 14.08C4.85 14.1 4.92 14.12 5 14.12L14 14.12C14.06 14.12 14.13 14.1 14.19 14.08C14.25 14.05 14.3 14.02 14.35 13.97C14.4 13.92 14.43 13.87 14.46 13.81C14.49 13.75 14.5 13.69 14.5 13.62L14.5 6.62C14.5 6.62 14.49 6.55 14.48 6.51C14.48 6.47 14.46 6.43 14.44 6.4C14.42 6.36 14.31 6.25 14.29 6.22L9.79 2.95C9.79 2.95 9.7 2.89 9.64 2.88C9.6 2.86 9.54 2.85 9.5 2.85C9.43 2.85 9.39 2.85 9.34 2.88C9.29 2.88 9.23 2.92 9.2 2.95L4.7 6.22C4.7 6.22 4.57 6.37 4.54 6.4C4.53 6.43 4.51 6.47 4.51 6.51C4.5 6.55 4.5 6.58 4.5 6.62L4.5 13.62Z" fill="currentColor" fill-opacity="1.000000" fill-rule="evenodd"/>
	</g>
</svg>
