<svg width="16.000000" height="16.000000" viewBox="0 0 16 16" fill="none" xmlns="http://www.w3.org/2000/svg" xmlns:xlink="http://www.w3.org/1999/xlink">
	<desc>
			Created with Pixso.
	</desc>
	<defs>
		<clipPath id="clip117_1449">
			<rect id="67#同步成功镜像仓-sync-successful-image-repo" width="16.000000" height="16.000000" fill="white" fill-opacity="0"/>
		</clipPath>
	</defs>
	<g clip-path="url(#clip117_1449)">
		<path id="_矢量-181" d="M14.49 13.39C14.49 13.49 14.47 13.6 14.45 13.7C14.43 13.79 14.4 13.88 14.37 13.97C14.33 14.06 14.29 14.14 14.24 14.21C14.18 14.3 14.12 14.37 14.05 14.45C13.97 14.52 13.9 14.58 13.81 14.64C13.74 14.69 13.66 14.73 13.57 14.77C13.48 14.8 13.39 14.83 13.3 14.85C13.2 14.87 13.09 14.89 12.99 14.89L2.99 14.89C2.88 14.89 2.77 14.87 2.67 14.85C2.58 14.83 2.5 14.8 2.41 14.77C2.32 14.73 2.24 14.69 2.17 14.64C2.08 14.58 2.01 14.52 1.93 14.45C1.86 14.37 1.8 14.3 1.74 14.21C1.69 14.14 1.65 14.06 1.61 13.97C1.58 13.88 1.55 13.79 1.53 13.7C1.51 13.6 1.5 13.49 1.5 13.39L1.5 5.92C1.5 5.79 1.5 5.67 1.54 5.56C1.57 5.44 1.61 5.32 1.67 5.21C1.73 5.1 1.8 5 1.88 4.91C1.97 4.82 2.06 4.74 2.16 4.67L7.15 1.34C7.28 1.25 7.41 1.19 7.55 1.15C7.69 1.11 7.83 1.09 7.99 1.09C8.14 1.09 8.28 1.11 8.42 1.15C8.56 1.19 8.69 1.25 8.82 1.34L13.82 4.67C13.92 4.74 14.01 4.82 14.1 4.91C14.18 5 14.25 5.1 14.31 5.21C14.37 5.32 14.41 5.44 14.44 5.56C14.47 5.67 14.49 5.79 14.49 5.92L14.49 13.39ZM13.49 13.39L13.49 5.92C13.49 5.92 13.48 5.84 13.47 5.8C13.47 5.76 13.45 5.72 13.43 5.68C13.41 5.65 13.29 5.53 13.26 5.5L8.26 2.17C8.26 2.17 8.18 2.12 8.13 2.11C8.08 2.09 8.04 2.09 7.99 2.09C7.93 2.09 7.89 2.09 7.84 2.11C7.79 2.11 7.75 2.14 7.71 2.17L2.61 5.58C2.59 5.62 2.51 5.76 2.5 5.8C2.49 5.84 2.5 5.88 2.5 5.92L2.5 13.39C2.5 13.45 2.5 13.52 2.53 13.58C2.56 13.64 2.59 13.69 2.64 13.74C2.69 13.79 2.74 13.82 2.8 13.85C2.86 13.87 2.93 13.89 3 13.89L13 13.89C13.06 13.89 13.13 13.87 13.19 13.85C13.25 13.82 13.3 13.79 13.35 13.74C13.4 13.69 13.43 13.64 13.46 13.58C13.48 13.52 13.49 13.45 13.49 13.39ZM7.84 10.74L10.84 7.74C11.04 7.54 11.04 7.23 10.84 7.03C10.64 6.83 10.33 6.83 10.13 7.03L7.49 9.68L5.84 8.03C5.64 7.83 5.33 7.83 5.13 8.03C4.93 8.23 4.93 8.54 5.13 8.74L7.13 10.74C7.23 10.84 7.35 10.89 7.49 10.89C7.62 10.89 7.74 10.84 7.84 10.74Z" fill="currentColor" fill-opacity="1.000000" fill-rule="evenodd"/>
	</g>
</svg>
