<svg width="16.000000" height="16.000000" viewBox="0 0 16 16" fill="none" xmlns="http://www.w3.org/2000/svg" xmlns:xlink="http://www.w3.org/1999/xlink">
	<desc>
			Created with Pixso.
	</desc>
	<defs>
		<clipPath id="clip117_1457">
			<rect id="68#主机已取消扫描-host-scan-canceled" width="16.000000" height="16.000000" fill="white" fill-opacity="0"/>
		</clipPath>
	</defs>
	<g clip-path="url(#clip117_1457)">
		<path id="_矢量-169" d="M12.81 1.53C12.71 1.51 12.6 1.5 12.5 1.5L2.5 1.5C2.39 1.5 2.28 1.5 2.17 1.53C2.08 1.55 2 1.58 1.91 1.61C1.82 1.65 1.73 1.69 1.67 1.74C1.57 1.8 1.51 1.86 1.42 1.93C1.35 2.01 1.29 2.08 1.23 2.17C1.19 2.24 1.14 2.32 1.1 2.41C1.07 2.5 1.04 2.59 1.03 2.68C1.01 2.78 1 2.89 1 3L1 6C1 6.1 1 6.21 1.03 6.31C1.04 6.4 1.07 6.49 1.1 6.58C1.14 6.67 1.19 6.75 1.23 6.82C1.29 6.91 1.35 6.98 1.42 7.06C1.51 7.13 1.57 7.19 1.67 7.25C1.73 7.3 1.82 7.34 1.91 7.38C2 7.41 2.08 7.44 2.17 7.46C2.28 7.48 2.39 7.5 2.5 7.5L12.5 7.5C12.6 7.5 12.71 7.48 12.81 7.46C12.9 7.44 12.99 7.41 13.08 7.38C13.17 7.34 13.25 7.3 13.32 7.25C13.41 7.19 13.48 7.13 13.56 7.06C13.63 6.98 13.69 6.91 13.75 6.82C13.8 6.75 13.84 6.67 13.88 6.58C13.91 6.49 13.94 6.4 13.96 6.31C13.98 6.21 14 6.1 14 6L14 3C14 2.89 13.98 2.78 13.96 2.68C13.94 2.59 13.91 2.5 13.88 2.41C13.84 2.32 13.8 2.24 13.75 2.17C13.69 2.08 13.63 2.01 13.56 1.93C13.48 1.86 13.41 1.8 13.32 1.74C13.25 1.69 13.17 1.65 13.08 1.61C12.99 1.58 12.9 1.55 12.81 1.53ZM2.5 2.5L12.5 2.5C12.56 2.5 12.63 2.5 12.69 2.53C12.75 2.56 12.8 2.59 12.85 2.64C12.9 2.69 12.93 2.74 12.96 2.8C12.99 2.86 13 2.93 13 3L13 6C13 6.07 12.99 6.13 12.96 6.19C12.93 6.25 12.9 6.3 12.85 6.35C12.8 6.4 12.75 6.43 12.69 6.46C12.63 6.48 12.56 6.5 12.5 6.5L2.5 6.5C2.42 6.5 2.35 6.48 2.29 6.46C2.23 6.43 2.19 6.4 2.14 6.35C2.08 6.3 2.06 6.25 2.03 6.19C2.01 6.13 2 6.07 2 6L2 3C2 2.93 2 2.86 2.03 2.8C2.06 2.74 2.08 2.69 2.14 2.64C2.19 2.59 2.23 2.56 2.29 2.53C2.35 2.51 2.42 2.5 2.5 2.5ZM4 3.75C3.57 3.75 3.25 4.08 3.25 4.5C3.25 4.92 3.57 5.25 4 5.25C4.42 5.25 4.75 4.91 4.75 4.5C4.75 4.09 4.41 3.75 4 3.75ZM2.5 14.5L8 14.5C8.28 14.5 8.5 14.28 8.5 14C8.5 13.72 8.28 13.5 8 13.5L2.5 13.5C2.42 13.5 2.35 13.48 2.29 13.46C2.23 13.43 2.19 13.4 2.14 13.35C2.08 13.3 2.06 13.25 2.03 13.19C2.01 13.13 2 13.07 2 13L2 10C2 9.93 2 9.85 2.03 9.8C2.06 9.74 2.08 9.68 2.14 9.64C2.19 9.59 2.23 9.56 2.29 9.53C2.35 9.51 2.42 9.5 2.5 9.5L8 9.5C8.28 9.5 8.5 9.28 8.5 9C8.5 8.72 8.28 8.5 8 8.5L2.5 8.5C2.39 8.5 2.28 8.51 2.17 8.53C2.08 8.55 2 8.58 1.91 8.6C1.82 8.64 1.73 8.68 1.67 8.74C1.57 8.8 1.51 8.85 1.42 8.93C1.35 9.01 1.29 9.08 1.23 9.17C1.19 9.24 1.14 9.32 1.1 9.41C1.07 9.5 1.04 9.59 1.03 9.68C1.01 9.78 1 9.89 1 10L1 13C1 13.1 1 13.21 1.03 13.31C1.04 13.4 1.07 13.49 1.1 13.58C1.14 13.67 1.19 13.75 1.23 13.82C1.29 13.91 1.35 13.98 1.42 14.06C1.51 14.13 1.57 14.19 1.67 14.25C1.73 14.3 1.82 14.34 1.91 14.38C2 14.41 2.08 14.44 2.17 14.46C2.28 14.48 2.39 14.5 2.5 14.5ZM9.87 9.37C10.42 8.83 11.17 8.5 12 8.5C13.65 8.5 15 9.84 15 11.5C15 12.32 14.66 13.07 14.12 13.61C13.58 14.15 12.82 14.5 12 14.5C10.34 14.5 9 13.15 9 11.5C9 10.67 9.32 9.92 9.87 9.37ZM13.72 12.51L10.98 9.77C11.28 9.6 11.62 9.5 12 9.5C13.1 9.5 14 10.39 14 11.5C14 11.87 13.89 12.21 13.72 12.51ZM10.27 10.48C10.1 10.78 10 11.12 10 11.5C10 12.6 10.89 13.5 12 13.5C12.37 13.5 12.71 13.39 13.01 13.22L10.27 10.48ZM4 10.75C3.57 10.75 3.25 11.08 3.25 11.5C3.25 11.92 3.57 12.25 4 12.25C4.42 12.25 4.75 11.91 4.75 11.5C4.75 11.09 4.41 10.75 4 10.75Z" fill="currentColor" fill-opacity="1.000000" fill-rule="evenodd"/>
	</g>
</svg>
