<svg width="16.000000" height="16.000000" viewBox="0 0 16 16" fill="none" xmlns="http://www.w3.org/2000/svg" xmlns:xlink="http://www.w3.org/1999/xlink">
	<desc>
			Created with Pixso.
	</desc>
	<defs>
		<clipPath id="clip117_1458">
			<rect id="69#主机扫描失败-host-scan-failed" width="16.000000" height="16.000000" fill="white" fill-opacity="0"/>
		</clipPath>
	</defs>
	<g clip-path="url(#clip117_1458)">
		<path id="_矢量-166" d="M12.99 1.53C12.89 1.51 12.78 1.5 12.68 1.5L2.68 1.5C2.57 1.5 2.46 1.5 2.36 1.53C2.27 1.55 2.18 1.58 2.09 1.61C2 1.65 1.92 1.69 1.85 1.74C1.76 1.8 1.69 1.86 1.61 1.93C1.54 2.01 1.48 2.08 1.42 2.17C1.37 2.24 1.33 2.32 1.29 2.41C1.26 2.5 1.23 2.59 1.21 2.68C1.19 2.78 1.18 2.89 1.18 3L1.18 6C1.18 6.11 1.18 6.21 1.21 6.31C1.23 6.4 1.26 6.49 1.29 6.58C1.33 6.67 1.37 6.75 1.42 6.82C1.48 6.91 1.54 6.98 1.61 7.06C1.69 7.13 1.76 7.19 1.85 7.25C1.92 7.3 2 7.34 2.09 7.38C2.18 7.41 2.27 7.44 2.36 7.46C2.46 7.48 2.57 7.5 2.68 7.5L12.68 7.5C12.78 7.5 12.89 7.48 12.99 7.46C13.08 7.44 13.17 7.41 13.26 7.38C13.35 7.34 13.43 7.3 13.5 7.25C13.59 7.19 13.66 7.13 13.74 7.06C13.81 6.98 13.87 6.91 13.93 6.82C13.98 6.75 14.02 6.67 14.06 6.58C14.09 6.49 14.12 6.4 14.14 6.31C14.17 6.21 14.18 6.11 14.18 6L14.18 3C14.18 2.89 14.16 2.78 14.14 2.68C14.12 2.59 14.09 2.5 14.06 2.41C14.02 2.32 13.98 2.24 13.93 2.17C13.87 2.08 13.81 2.01 13.74 1.93C13.66 1.86 13.59 1.8 13.5 1.74C13.43 1.69 13.35 1.65 13.26 1.61C13.17 1.58 13.08 1.55 12.99 1.53ZM2.68 2.5L12.68 2.5C12.74 2.5 12.81 2.5 12.87 2.53C12.93 2.56 12.98 2.59 13.03 2.64C13.08 2.69 13.11 2.74 13.14 2.8C13.17 2.86 13.18 2.93 13.18 3L13.18 6C13.18 6.07 13.17 6.13 13.14 6.19C13.11 6.25 13.08 6.3 13.03 6.35C12.98 6.4 12.93 6.43 12.87 6.46C12.81 6.48 12.74 6.5 12.68 6.5L2.68 6.5C2.61 6.5 2.54 6.48 2.48 6.46C2.42 6.43 2.37 6.4 2.32 6.35C2.27 6.3 2.24 6.25 2.21 6.19C2.19 6.13 2.18 6.07 2.18 6L2.18 3C2.18 2.93 2.18 2.86 2.21 2.8C2.24 2.74 2.27 2.69 2.32 2.64C2.37 2.59 2.42 2.56 2.48 2.53C2.54 2.51 2.61 2.5 2.68 2.5ZM4.18 3.75C3.76 3.75 3.43 4.08 3.43 4.5C3.43 4.92 3.76 5.25 4.18 5.25C4.6 5.25 4.93 4.91 4.93 4.5C4.93 4.09 4.59 3.75 4.18 3.75ZM2.68 14.5L8.18 14.5C8.46 14.5 8.68 14.28 8.68 14C8.68 13.72 8.46 13.5 8.18 13.5L2.68 13.5C2.61 13.5 2.54 13.48 2.48 13.46C2.42 13.43 2.37 13.4 2.32 13.35C2.27 13.3 2.24 13.25 2.21 13.19C2.19 13.13 2.18 13.07 2.18 13L2.18 10C2.18 9.93 2.18 9.85 2.21 9.8C2.24 9.74 2.27 9.68 2.32 9.64C2.37 9.59 2.42 9.56 2.48 9.53C2.54 9.51 2.61 9.5 2.68 9.5L8.18 9.5C8.46 9.5 8.68 9.28 8.68 9C8.68 8.72 8.46 8.5 8.18 8.5L2.68 8.5C2.57 8.5 2.46 8.51 2.36 8.53C2.27 8.55 2.18 8.58 2.09 8.6C2 8.64 1.92 8.68 1.85 8.74C1.76 8.8 1.69 8.85 1.61 8.93C1.54 9.01 1.48 9.08 1.42 9.17C1.37 9.24 1.33 9.32 1.29 9.41C1.26 9.5 1.23 9.59 1.21 9.68C1.19 9.78 1.18 9.89 1.18 10L1.18 13C1.18 13.11 1.18 13.21 1.21 13.31C1.23 13.4 1.26 13.49 1.29 13.58C1.33 13.67 1.37 13.75 1.42 13.82C1.48 13.91 1.54 13.98 1.61 14.06C1.69 14.13 1.76 14.19 1.85 14.25C1.92 14.3 2 14.34 2.09 14.38C2.18 14.41 2.27 14.44 2.36 14.46C2.46 14.48 2.57 14.5 2.68 14.5ZM10.41 9.02C10.21 8.82 9.9 8.82 9.7 9.02C9.5 9.22 9.5 9.53 9.7 9.72L11.47 11.5L9.7 13.26C9.5 13.46 9.5 13.77 9.7 13.97C9.9 14.17 10.21 14.17 10.41 13.97L12.18 12.2L13.94 13.97C14.14 14.17 14.45 14.17 14.65 13.97C14.85 13.77 14.85 13.46 14.65 13.26L12.88 11.5L14.65 9.72C14.85 9.53 14.85 9.22 14.65 9.02C14.45 8.82 14.14 8.82 13.94 9.02L12.18 10.79L10.41 9.02ZM4.18 10.75C3.76 10.75 3.43 11.08 3.43 11.5C3.43 11.92 3.76 12.25 4.18 12.25C4.6 12.25 4.93 11.91 4.93 11.5C4.93 11.09 4.59 10.75 4.18 10.75Z" fill="currentColor" fill-opacity="1.000000" fill-rule="evenodd"/>
	</g>
</svg>
