<svg width="16.000000" height="16.000000" viewBox="0 0 16 16" fill="none" xmlns="http://www.w3.org/2000/svg" xmlns:xlink="http://www.w3.org/1999/xlink">
	<desc>
			Created with Pixso.
	</desc>
	<defs>
		<clipPath id="clip2_185">
			<rect id="7#云命令行-cloud-shell" width="16.000000" height="16.000000" fill="white" fill-opacity="0"/>
		</clipPath>
	</defs>
	<g clip-path="url(#clip2_185)">
		<path id="形状结合" d="M12.5 2C13.88 2 15 3.11 15 4.5L15 11.5C15 12.88 13.88 14 12.5 14L3.5 14C2.11 14 1 12.88 1 11.5L1 4.5C1 3.11 2.11 2 3.5 2L12.5 2ZM12.5 3L3.5 3C2.67 3 2 3.67 2 4.5L2 11.5C2 12.32 2.67 13 3.5 13L12.5 13C13.32 13 14 12.32 14 11.5L14 4.5C14 3.67 13.32 3 12.5 3ZM11.5 10C11.77 10 12 10.22 12 10.5C12 10.77 11.77 11 11.5 11L8.5 11C8.22 11 8 10.77 8 10.5C8 10.22 8.22 10 8.5 10L11.5 10ZM4.45 5.24C4.64 5.04 4.96 5.04 5.15 5.24L7.42 7.5C7.69 7.77 7.69 8.22 7.42 8.49L5.15 10.75C4.96 10.95 4.64 10.95 4.45 10.75L4.39 10.68C4.25 10.49 4.27 10.22 4.45 10.05L6.5 8L4.45 5.94C4.25 5.75 4.25 5.43 4.45 5.24Z" fill="currentColor" fill-opacity="1.000000" fill-rule="nonzero"/>
	</g>
</svg>
