<svg width="16.000000" height="16.000000" viewBox="0 0 16 16" fill="none" xmlns="http://www.w3.org/2000/svg" xmlns:xlink="http://www.w3.org/1999/xlink">
	<desc>
			Created with Pixso.
	</desc>
	<defs>
		<clipPath id="clip117_1459">
			<rect id="70#主机扫描成功-host-scaned" width="16.000000" height="16.000000" fill="white" fill-opacity="0"/>
		</clipPath>
	</defs>
	<g clip-path="url(#clip117_1459)">
		<path id="_矢量-182" d="M12.56 1.52C12.46 1.5 12.35 1.49 12.25 1.49L2.25 1.49C2.14 1.49 2.03 1.49 1.92 1.52C1.84 1.54 1.75 1.57 1.66 1.6C1.57 1.64 1.49 1.68 1.42 1.73C1.33 1.79 1.25 1.85 1.17 1.92C1.11 2 1.04 2.07 0.99 2.16C0.94 2.23 0.89 2.31 0.86 2.4C0.83 2.49 0.8 2.58 0.77 2.67C0.75 2.77 0.75 2.88 0.75 2.99L0.75 5.99C0.75 6.1 0.75 6.2 0.77 6.3C0.8 6.39 0.83 6.48 0.86 6.57C0.89 6.66 0.94 6.74 0.99 6.81C1.04 6.9 1.11 6.97 1.17 7.05C1.25 7.12 1.33 7.18 1.42 7.24C1.49 7.29 1.57 7.33 1.66 7.37C1.75 7.4 1.84 7.43 1.92 7.45C2.03 7.47 2.14 7.49 2.25 7.49L12.25 7.49C12.35 7.49 12.46 7.47 12.56 7.45C12.65 7.43 12.74 7.4 12.83 7.37C12.92 7.33 13 7.29 13.07 7.24C13.16 7.18 13.23 7.12 13.31 7.05C13.38 6.97 13.44 6.9 13.5 6.81C13.55 6.74 13.59 6.66 13.63 6.57C13.66 6.48 13.69 6.39 13.71 6.3C13.74 6.2 13.75 6.1 13.75 5.99L13.75 2.99C13.75 2.88 13.73 2.77 13.71 2.67C13.69 2.58 13.66 2.49 13.63 2.4C13.59 2.31 13.55 2.23 13.5 2.16C13.44 2.07 13.38 2 13.31 1.92C13.23 1.85 13.16 1.79 13.07 1.73C13 1.68 12.92 1.64 12.83 1.6C12.74 1.57 12.65 1.54 12.56 1.52ZM2.25 2.49L12.25 2.49C12.31 2.49 12.38 2.49 12.44 2.52C12.5 2.55 12.55 2.58 12.6 2.63C12.65 2.68 12.68 2.73 12.71 2.79C12.74 2.85 12.75 2.92 12.75 2.99L12.75 5.99C12.75 6.06 12.74 6.12 12.71 6.18C12.68 6.24 12.65 6.29 12.6 6.34C12.55 6.39 12.5 6.42 12.44 6.45C12.38 6.47 12.31 6.49 12.25 6.49L2.25 6.49C2.17 6.49 2.1 6.47 2.05 6.45C1.99 6.42 1.94 6.39 1.89 6.34C1.84 6.29 1.81 6.24 1.78 6.18C1.75 6.12 1.75 6.06 1.75 5.99L1.75 2.99C1.75 2.92 1.75 2.85 1.78 2.79C1.81 2.73 1.84 2.68 1.89 2.63C1.94 2.58 1.99 2.55 2.05 2.52C2.1 2.5 2.17 2.49 2.25 2.49ZM3.75 3.74C3.33 3.74 3 4.07 3 4.49C3 4.91 3.33 5.24 3.75 5.24C4.17 5.24 4.5 4.9 4.5 4.49C4.5 4.08 4.16 3.74 3.75 3.74ZM2.25 14.49L7.75 14.49C8.03 14.49 8.25 14.27 8.25 13.99C8.25 13.71 8.03 13.49 7.75 13.49L2.25 13.49C2.17 13.49 2.1 13.47 2.05 13.45C1.99 13.42 1.94 13.39 1.89 13.34C1.78 13.24 1.75 13.12 1.75 12.99L1.75 9.99C1.75 9.92 1.75 9.85 1.78 9.79C1.81 9.73 1.84 9.68 1.89 9.63C1.94 9.58 1.99 9.55 2.05 9.52C2.1 9.5 2.17 9.49 2.25 9.49L7.75 9.49C8.03 9.49 8.25 9.27 8.25 8.99C8.25 8.71 8.03 8.49 7.75 8.49L2.25 8.49C2.14 8.49 2.03 8.5 1.92 8.52C1.84 8.54 1.75 8.57 1.66 8.6C1.57 8.64 1.49 8.68 1.42 8.73C1.33 8.79 1.25 8.85 1.17 8.92C1.11 9 1.04 9.07 0.99 9.16C0.94 9.23 0.89 9.31 0.86 9.4C0.83 9.49 0.8 9.58 0.77 9.67C0.75 9.77 0.75 9.88 0.75 9.99L0.75 12.99C0.75 13.1 0.75 13.2 0.77 13.3C0.8 13.39 0.83 13.48 0.86 13.57C0.89 13.66 0.94 13.74 0.99 13.81C1.04 13.9 1.11 13.97 1.17 14.05C1.25 14.12 1.33 14.18 1.42 14.24C1.49 14.29 1.57 14.33 1.66 14.37C1.75 14.4 1.84 14.43 1.92 14.45C2.03 14.47 2.14 14.49 2.25 14.49ZM15.1 10.84L11.6 14.34C11.36 14.57 11.13 14.57 10.89 14.34L8.89 12.34C8.68 12.14 8.68 11.83 8.89 11.63C9.09 11.43 9.39 11.43 9.6 11.63L11.25 13.28L14.39 10.13C14.59 9.93 14.9 9.93 15.1 10.13C15.3 10.33 15.3 10.64 15.1 10.84ZM3.75 10.74C3.33 10.74 3 11.07 3 11.49C3 11.91 3.33 12.24 3.75 12.24C4.17 12.24 4.5 11.9 4.5 11.49C4.5 11.08 4.16 10.74 3.75 10.74Z" fill="currentColor" fill-opacity="1.000000" fill-rule="evenodd"/>
	</g>
</svg>
