<svg width="16.000000" height="16.000000" viewBox="0 0 16 16" fill="none" xmlns="http://www.w3.org/2000/svg" xmlns:xlink="http://www.w3.org/1999/xlink">
	<desc>
			Created with Pixso.
	</desc>
	<defs>
		<clipPath id="clip2_174">
			<rect id="8#选择时间-select-time" width="16.000000" height="16.000000" fill="white" fill-opacity="0"/>
		</clipPath>
	</defs>
	<g clip-path="url(#clip2_174)">
		<path id="形状结合" d="M11.81 1.5C13.29 1.5 14.5 2.7 14.5 4.18L14.5 8C14.5 8.27 14.27 8.5 14 8.5C13.72 8.5 13.5 8.27 13.5 8L13.5 4.18C13.5 3.25 12.74 2.5 11.81 2.5L4.18 2.5C3.25 2.5 2.5 3.25 2.5 4.18L2.5 11.81C2.5 12.74 3.25 13.5 4.18 13.5L8 13.5C8.27 13.5 8.5 13.72 8.5 14C8.5 14.27 8.27 14.5 8 14.5L4.18 14.5C2.7 14.5 1.5 13.29 1.5 11.81L1.5 4.18C1.5 2.7 2.7 1.5 4.18 1.5L11.81 1.5ZM13.64 10.14C13.92 10.14 14.14 10.37 14.14 10.64L14.13 10.73C14.09 10.96 13.89 11.14 13.64 11.14L11.85 11.14L14 13.29C14.17 13.47 14.19 13.74 14.04 13.94C13.85 14.13 13.48 14.19 13.29 14L11.14 11.85L11.14 13.64C11.14 13.89 10.95 14.1 10.71 14.14L10.64 14.14C10.37 14.14 10.14 13.92 10.14 13.64L10.14 10.64C10.14 10.37 10.37 10.14 10.64 10.14L13.64 10.14ZM7.5 5.5C7.77 5.5 8 5.72 8 6L8 8.5L9.5 8.5C9.74 8.5 9.94 8.67 9.99 8.91L10 9C10 9.27 9.77 9.5 9.5 9.5L7.7 9.5C7.31 9.5 7 9.18 7 8.8L7 6C7 5.72 7.22 5.5 7.5 5.5Z" fill="currentColor" fill-opacity="1.000000" fill-rule="nonzero"/>
	</g>
</svg>
