<svg width="16.000000" height="16.000000" viewBox="0 0 16 16" fill="none" xmlns="http://www.w3.org/2000/svg" xmlns:xlink="http://www.w3.org/1999/xlink">
	<desc>
			Created with Pixso.
	</desc>
	<defs>
		<clipPath id="clip117_1462">
			<rect id="82#扫描成功-scaned" width="16.000000" height="16.000000" fill="white" fill-opacity="0"/>
		</clipPath>
	</defs>
	<g clip-path="url(#clip117_1462)">
		<path id="_矢量-177" d="M1.5 6L1.5 4C1.5 3.81 1.5 3.63 1.54 3.46C1.59 3.31 1.63 3.16 1.69 3.02C1.75 2.88 1.82 2.75 1.91 2.62C2 2.48 2.1 2.34 2.23 2.23C2.35 2.1 2.48 2 2.62 1.91C2.75 1.82 2.88 1.75 3.01 1.69C3.16 1.63 3.31 1.59 3.45 1.55C3.63 1.51 3.81 1.5 4 1.5L6 1.5C6.28 1.5 6.5 1.71 6.5 2C6.5 2.29 6.28 2.5 6 2.5L4 2.5C3.88 2.5 3.76 2.5 3.64 2.53C3.57 2.55 3.48 2.58 3.41 2.61C3.32 2.65 3.25 2.69 3.17 2.74C3.09 2.79 3.01 2.86 2.92 2.93C2.85 3.01 2.79 3.09 2.73 3.18C2.69 3.25 2.64 3.33 2.6 3.41C2.57 3.49 2.54 3.57 2.53 3.65C2.51 3.77 2.5 3.88 2.5 4L2.5 6C2.5 6.28 2.28 6.5 2 6.5C1.72 6.5 1.5 6.28 1.5 6ZM10 1.5L12 1.5C12.18 1.5 12.36 1.5 12.53 1.55C12.68 1.59 12.83 1.63 12.97 1.69C13.11 1.75 13.24 1.82 13.37 1.91C13.51 2 13.64 2.1 13.76 2.23C13.88 2.34 13.99 2.48 14.08 2.62C14.17 2.75 14.24 2.88 14.3 3.02C14.36 3.16 14.4 3.31 14.44 3.46C14.48 3.63 14.5 3.81 14.5 4L14.5 6C14.5 6.28 14.28 6.5 14 6.5C13.72 6.5 13.5 6.28 13.5 6L13.5 4C13.5 3.88 13.48 3.77 13.46 3.65C13.44 3.57 13.41 3.49 13.38 3.41C13.34 3.33 13.3 3.25 13.25 3.18C13.2 3.09 13.13 3.01 13.06 2.93C12.98 2.86 12.9 2.79 12.81 2.74C12.74 2.69 12.66 2.65 12.58 2.61C12.5 2.58 12.42 2.55 12.34 2.53C12.22 2.51 12.11 2.5 12 2.5L10 2.5C9.7 2.5 9.5 2.28 9.5 2C9.5 1.72 9.7 1.5 10 1.5ZM7.85 10.35L11.35 6.85C11.55 6.65 11.55 6.34 11.35 6.14C11.15 5.94 10.84 5.94 10.64 6.14L7.5 9.29L5.35 7.14C5.14 6.94 4.84 6.94 4.64 7.14C4.44 7.34 4.44 7.65 4.64 7.85L7.14 10.35C7.14 10.35 7.23 10.43 7.29 10.46C7.35 10.49 7.42 10.5 7.5 10.5C7.63 10.5 7.75 10.45 7.85 10.35ZM2 9.5C2.28 9.5 2.5 9.71 2.5 10L2.5 12C2.5 12.11 2.5 12.22 2.53 12.34C2.54 12.42 2.57 12.5 2.6 12.58C2.64 12.66 2.69 12.74 2.73 12.81C2.79 12.9 2.85 12.98 2.92 13.06C3.01 13.13 3.09 13.2 3.17 13.25C3.25 13.3 3.32 13.34 3.41 13.38C3.48 13.41 3.57 13.44 3.64 13.46C3.76 13.49 3.88 13.5 4 13.5L6 13.5C6.28 13.5 6.5 13.72 6.5 14C6.5 14.28 6.28 14.5 6 14.5L4 14.5C3.81 14.5 3.63 14.48 3.45 14.44C3.31 14.4 3.16 14.36 3.01 14.3C2.88 14.24 2.75 14.17 2.62 14.08C2.48 13.99 2.35 13.88 2.23 13.76C2.1 13.64 2 13.51 1.91 13.37C1.82 13.24 1.75 13.11 1.69 12.97C1.63 12.83 1.59 12.68 1.54 12.53C1.51 12.36 1.5 12.18 1.5 12L1.5 10C1.5 9.71 1.7 9.5 2 9.5ZM14 9.5C14.28 9.5 14.5 9.71 14.5 10L14.5 12C14.5 12.18 14.48 12.36 14.44 12.53C14.4 12.68 14.36 12.83 14.3 12.97C14.24 13.11 14.17 13.24 14.08 13.37C13.99 13.51 13.88 13.64 13.76 13.76C13.64 13.88 13.51 13.99 13.37 14.08C13.24 14.17 13.11 14.24 12.97 14.3C12.83 14.36 12.68 14.4 12.53 14.44C12.36 14.48 12.18 14.5 12 14.5L10 14.5C9.7 14.5 9.5 14.28 9.5 14C9.5 13.72 9.7 13.5 10 13.5L12 13.5C12.11 13.5 12.22 13.48 12.34 13.46C12.42 13.44 12.5 13.41 12.58 13.38C12.66 13.34 12.74 13.3 12.81 13.25C12.9 13.2 12.98 13.13 13.06 13.06C13.13 12.98 13.2 12.9 13.25 12.81C13.3 12.74 13.34 12.66 13.38 12.58C13.41 12.5 13.44 12.42 13.46 12.34C13.49 12.22 13.5 12.11 13.5 12L13.5 10C13.5 9.71 13.72 9.5 14 9.5Z" fill="currentColor" fill-opacity="1.000000" fill-rule="evenodd"/>
	</g>
</svg>
