<svg width="16.000000" height="16.000000" viewBox="0 0 16 16" fill="none" xmlns="http://www.w3.org/2000/svg" xmlns:xlink="http://www.w3.org/1999/xlink">
	<desc>
			Created with Pixso.
	</desc>
	<defs>
		<clipPath id="clip117_1480">
			<rect id="84#主机验证中-host-verifying" width="16.000000" height="16.000000" fill="white" fill-opacity="0"/>
		</clipPath>
	</defs>
	<g clip-path="url(#clip117_1480)">
		<path id="_矢量-172" d="M14.37 6.69C14.29 6.34 14.19 6 14.07 5.67C13.93 5.31 13.76 4.96 13.56 4.63C13.37 4.33 13.17 4.05 12.94 3.78C12.69 3.49 12.42 3.23 12.13 2.98C11.82 2.73 11.49 2.5 11.15 2.31C10.85 2.15 10.55 2.01 10.23 1.89C9.93 1.78 9.62 1.69 9.31 1.63C8.88 1.54 8.45 1.5 8 1.5C7.55 1.5 7.11 1.54 6.68 1.63C6.37 1.69 6.06 1.78 5.76 1.89C5.44 2.01 5.14 2.15 4.84 2.31C4.49 2.5 4.17 2.73 3.86 2.98C3.56 3.23 3.29 3.49 3.05 3.78C2.82 4.04 2.62 4.33 2.43 4.63C2.23 4.96 2.06 5.31 1.92 5.67C1.9 5.72 1.88 5.77 1.87 5.82L3.08 5.42C3.34 5.33 3.62 5.47 3.71 5.74C3.8 6 3.66 6.28 3.39 6.37L1.29 7.07C1.29 7.07 1.21 7.09 1.17 7.09C1.15 7.09 1.06 7.09 1.04 7.08C0.9 7.06 0.79 6.99 0.72 6.87C0.64 6.76 0.62 6.63 0.65 6.5C0.73 6.09 0.84 5.69 0.99 5.31C1.15 4.89 1.34 4.5 1.58 4.11C1.79 3.76 2.03 3.43 2.29 3.12C2.57 2.79 2.88 2.49 3.22 2.21C3.57 1.92 3.95 1.66 4.35 1.44C4.69 1.25 5.04 1.09 5.41 0.95C5.77 0.82 6.13 0.71 6.5 0.63C6.99 0.54 7.49 0.5 8 0.5C8.51 0.5 9 0.54 9.49 0.63C9.86 0.71 10.22 0.82 10.58 0.95C10.95 1.09 11.3 1.25 11.64 1.44C12.03 1.66 12.41 1.92 12.76 2.21C13.1 2.49 13.41 2.79 13.69 3.12C13.95 3.43 14.19 3.76 14.4 4.11C14.64 4.5 14.83 4.89 14.99 5.31C15.14 5.69 15.25 6.09 15.34 6.5C15.39 6.77 15.22 7.03 14.94 7.08C14.67 7.14 14.42 6.97 14.37 6.69ZM10.93 8.64C10.97 8.43 11 8.22 11 8C11 7.71 10.78 7.5 10.5 7.5C10.22 7.5 10 7.71 10 8C10 8.14 9.98 8.3 9.94 8.45C9.91 8.57 9.88 8.67 9.84 8.77C9.79 8.88 9.74 8.99 9.67 9.09C9.6 9.2 9.51 9.31 9.41 9.41C9.31 9.51 9.2 9.6 9.09 9.67C8.99 9.74 8.88 9.79 8.77 9.84C8.66 9.89 8.56 9.92 8.45 9.93C8.3 9.97 8.15 10 8 10C7.84 10 7.69 9.97 7.55 9.93C7.44 9.92 7.32 9.88 7.22 9.84C7.11 9.79 7 9.74 6.9 9.67C6.79 9.6 6.68 9.51 6.58 9.41C6.48 9.31 6.39 9.2 6.32 9.09C6.25 8.99 6.2 8.88 6.15 8.77C6.11 8.67 6.08 8.57 6.05 8.46C6.01 8.3 6 8.14 6 8C6 7.84 6.01 7.69 6.05 7.54C6.08 7.42 6.11 7.32 6.15 7.22C6.2 7.11 6.25 7 6.32 6.9C6.39 6.79 6.48 6.68 6.58 6.58C6.68 6.48 6.79 6.39 6.9 6.32C7 6.25 7.11 6.2 7.22 6.15C7.33 6.1 7.43 6.07 7.54 6.05C7.69 6.01 7.84 6 8 6C8.28 6 8.5 5.78 8.5 5.5C8.5 5.22 8.28 5 8 5C7.77 5 7.56 5.02 7.35 5.07C7.17 5.1 7 5.16 6.83 5.23C6.66 5.3 6.5 5.39 6.34 5.49C6.18 5.6 6.02 5.73 5.87 5.87C5.73 6.02 5.6 6.18 5.49 6.34C5.39 6.5 5.3 6.66 5.23 6.83C5.16 7 5.1 7.17 5.07 7.35C5.02 7.56 5 7.77 5 8C5 8.22 5.02 8.43 5.07 8.64C5.1 8.82 5.16 8.99 5.23 9.16C5.3 9.33 5.39 9.49 5.49 9.64C5.6 9.81 5.73 9.97 5.87 10.12C6.02 10.26 6.18 10.39 6.34 10.5C6.5 10.6 6.66 10.69 6.83 10.76C7 10.83 7.17 10.89 7.35 10.92C7.56 10.97 7.77 11 8 11C8.23 11 8.43 10.97 8.64 10.93C8.82 10.89 8.99 10.83 9.16 10.76C9.33 10.69 9.49 10.6 9.65 10.5C9.81 10.39 9.97 10.26 10.12 10.12C10.26 9.97 10.39 9.81 10.5 9.64C10.6 9.49 10.69 9.33 10.76 9.16C10.83 8.99 10.89 8.82 10.93 8.64ZM1.63 9.3C1.57 9.02 1.31 8.85 1.04 8.91C0.76 8.96 0.59 9.22 0.65 9.49C0.73 9.89 0.84 10.3 0.99 10.68C1.15 11.1 1.34 11.49 1.58 11.88C1.79 12.23 2.03 12.56 2.29 12.87C2.57 13.2 2.88 13.5 3.22 13.78C3.57 14.07 3.95 14.33 4.35 14.55C4.69 14.74 5.04 14.9 5.41 15.04C5.77 15.17 6.13 15.27 6.5 15.35C6.99 15.45 7.49 15.5 8 15.5C8.51 15.5 9 15.45 9.49 15.35C9.86 15.27 10.22 15.17 10.58 15.04C10.95 14.9 11.3 14.74 11.64 14.55C12.04 14.33 12.42 14.07 12.77 13.78C13.11 13.5 13.42 13.2 13.7 12.87C13.96 12.56 14.2 12.23 14.41 11.88C14.65 11.49 14.84 11.1 15 10.68C15.15 10.3 15.26 9.89 15.35 9.49C15.37 9.35 15.35 9.22 15.27 9.12C15.2 9 15.09 8.93 14.95 8.91C14.91 8.89 14.86 8.89 14.81 8.89C14.77 8.89 14.72 8.91 14.68 8.93L12.86 9.63C12.59 9.72 12.47 10.01 12.57 10.27C12.67 10.54 12.95 10.66 13.21 10.56L14.11 10.22C14.11 10.22 14.08 10.29 14.07 10.32C13.93 10.68 13.76 11.03 13.56 11.36C13.37 11.66 13.17 11.94 12.94 12.21C12.7 12.5 12.43 12.76 12.13 13.01C11.82 13.26 11.49 13.49 11.15 13.68C10.85 13.84 10.55 13.98 10.23 14.1C9.93 14.21 9.63 14.3 9.31 14.36C8.88 14.45 8.44 14.5 8 14.5C7.56 14.5 7.11 14.45 6.68 14.36C6.37 14.3 6.06 14.21 5.76 14.1C5.44 13.98 5.14 13.84 4.84 13.68C4.49 13.49 4.17 13.26 3.86 13.01C3.56 12.76 3.29 12.5 3.05 12.21C2.82 11.95 2.62 11.66 2.43 11.36C2.23 11.03 2.06 10.68 1.92 10.32C1.8 9.99 1.7 9.64 1.63 9.3Z" fill="currentColor" fill-opacity="1.000000" fill-rule="evenodd"/>
	</g>
</svg>
