<svg width="16.000000" height="16.000000" viewBox="0 0 16 16" fill="none" xmlns="http://www.w3.org/2000/svg" xmlns:xlink="http://www.w3.org/1999/xlink">
	<desc>
			Created with Pixso.
	</desc>
	<defs>
		<clipPath id="clip117_1479">
			<rect id="85#主机验证失败-host-deny" width="16.000000" height="16.000000" fill="white" fill-opacity="0"/>
		</clipPath>
	</defs>
	<g clip-path="url(#clip117_1479)">
		<path id="_矢量-170" d="M14.36 6.69C14.29 6.34 14.19 6 14.07 5.67C13.93 5.31 13.76 4.96 13.56 4.63C13.37 4.33 13.17 4.05 12.94 3.78C12.7 3.49 12.43 3.23 12.13 2.98C11.82 2.73 11.49 2.5 11.15 2.31C10.86 2.14 10.55 2 10.23 1.89C9.93 1.78 9.62 1.69 9.31 1.63C8.88 1.54 8.44 1.5 7.99 1.5C7.54 1.5 7.11 1.54 6.68 1.63C6.37 1.69 6.06 1.78 5.76 1.89C5.44 2.01 5.14 2.15 4.84 2.31C4.49 2.5 4.17 2.73 3.86 2.98C3.57 3.23 3.3 3.49 3.05 3.78C2.82 4.05 2.62 4.33 2.43 4.63C2.23 4.96 2.06 5.31 1.92 5.67C1.9 5.72 1.88 5.77 1.87 5.82L3.08 5.42C3.34 5.33 3.62 5.47 3.71 5.74C3.8 6 3.66 6.28 3.39 6.37L1.29 7.07C1.29 7.07 1.21 7.09 1.17 7.09C1.17 7.09 1.06 7.09 1.04 7.08C0.9 7.06 0.79 6.99 0.72 6.87C0.64 6.76 0.62 6.63 0.64 6.5C0.73 6.09 0.84 5.69 0.99 5.31C1.15 4.89 1.34 4.5 1.58 4.11C1.79 3.76 2.03 3.43 2.29 3.12C2.57 2.79 2.88 2.49 3.22 2.21C3.57 1.92 3.95 1.66 4.35 1.44C4.69 1.25 5.04 1.09 5.41 0.95C5.77 0.82 6.13 0.71 6.5 0.63C6.99 0.54 7.49 0.5 7.99 0.5C8.49 0.5 9 0.54 9.49 0.63C9.86 0.71 10.22 0.82 10.58 0.95C10.95 1.09 11.3 1.25 11.64 1.44C12.04 1.66 12.42 1.92 12.77 2.21C13.11 2.49 13.42 2.79 13.7 3.12C13.96 3.43 14.2 3.76 14.41 4.11C14.65 4.5 14.84 4.89 15 5.31C15.15 5.69 15.26 6.09 15.35 6.5C15.4 6.77 15.23 7.03 14.95 7.08C14.68 7.14 14.42 6.97 14.36 6.69ZM6.23 5.52C6.03 5.32 5.72 5.32 5.52 5.52C5.32 5.72 5.32 6.03 5.52 6.23L7.29 8L5.52 9.76C5.32 9.96 5.32 10.27 5.52 10.47C5.72 10.67 6.03 10.67 6.23 10.47L7.99 8.7L9.76 10.47C9.96 10.67 10.27 10.67 10.47 10.47C10.67 10.27 10.67 9.96 10.47 9.76L8.7 8L10.47 6.23C10.67 6.03 10.67 5.72 10.47 5.52C10.27 5.32 9.96 5.32 9.76 5.52L7.99 7.29L6.23 5.52ZM1.04 8.91C1.31 8.85 1.57 9.02 1.63 9.3C1.7 9.64 1.8 9.99 1.92 10.32C2.06 10.68 2.23 11.03 2.43 11.36C2.62 11.66 2.82 11.94 3.05 12.21C3.29 12.5 3.56 12.76 3.86 13.01C4.17 13.26 4.5 13.49 4.84 13.68C5.14 13.84 5.44 13.98 5.76 14.1C6.06 14.21 6.37 14.3 6.68 14.36C7.11 14.45 7.55 14.5 8 14.5C8.45 14.5 8.88 14.45 9.31 14.36C9.63 14.3 9.93 14.21 10.23 14.1C10.55 13.98 10.85 13.84 11.15 13.68C11.5 13.49 11.82 13.26 12.13 13.01C12.42 12.76 12.69 12.5 12.94 12.21C13.17 11.94 13.37 11.66 13.56 11.36C13.76 11.03 13.93 10.68 14.07 10.32C14.08 10.29 14.1 10.25 14.11 10.22L13.21 10.56C12.95 10.66 12.67 10.54 12.57 10.27C12.47 10.01 12.59 9.72 12.86 9.63L14.68 8.93C14.68 8.93 14.77 8.89 14.81 8.89C14.86 8.89 14.91 8.89 14.95 8.91C15.02 8.92 15.09 8.95 15.14 8.97C15.14 8.97 15.23 9.06 15.27 9.12C15.35 9.22 15.37 9.35 15.35 9.49C15.26 9.89 15.15 10.3 15 10.68C14.84 11.1 14.65 11.49 14.41 11.88C14.2 12.23 13.96 12.56 13.7 12.87C13.42 13.2 13.11 13.5 12.77 13.78C12.42 14.07 12.04 14.33 11.64 14.55C11.3 14.74 10.95 14.9 10.58 15.04C10.22 15.17 9.86 15.27 9.49 15.35C9 15.45 8.5 15.5 8 15.5C7.5 15.5 6.99 15.45 6.5 15.35C6.13 15.27 5.77 15.17 5.41 15.04C5.04 14.9 4.69 14.74 4.35 14.55C3.95 14.33 3.57 14.07 3.22 13.78C2.88 13.5 2.57 13.2 2.29 12.87C2.03 12.56 1.79 12.23 1.58 11.88C1.34 11.49 1.15 11.1 0.99 10.68C0.84 10.3 0.73 9.89 0.65 9.49C0.59 9.22 0.76 8.96 1.04 8.91Z" fill="currentColor" fill-opacity="1.000000" fill-rule="evenodd"/>
	</g>
</svg>
