<svg width="16.000000" height="16.000000" viewBox="0 0 16 16" fill="none" xmlns="http://www.w3.org/2000/svg" xmlns:xlink="http://www.w3.org/1999/xlink">
	<desc>
			Created with Pixso.
	</desc>
	<defs>
		<clipPath id="clip117_1478">
			<rect id="86#主机验证成功-host-verified" width="16.000000" height="16.000000" fill="white" fill-opacity="0"/>
		</clipPath>
	</defs>
	<g clip-path="url(#clip117_1478)">
		<path id="_矢量-171" d="M14.33 6.69C14.26 6.34 14.16 6 14.04 5.67C13.9 5.31 13.73 4.96 13.53 4.63C13.34 4.33 13.14 4.05 12.91 3.78C12.67 3.49 12.4 3.23 12.1 2.98C11.79 2.73 11.46 2.5 11.12 2.31C10.83 2.14 10.52 2 10.2 1.89C9.9 1.78 9.59 1.69 9.28 1.63C8.85 1.54 8.41 1.5 7.96 1.5C7.51 1.5 7.08 1.54 6.65 1.63C6.34 1.69 6.03 1.78 5.73 1.89C5.41 2.01 5.11 2.15 4.81 2.31C4.46 2.5 4.14 2.73 3.83 2.98C3.54 3.23 3.27 3.49 3.02 3.78C2.79 4.05 2.59 4.33 2.4 4.63C2.2 4.96 2.03 5.31 1.89 5.67C1.87 5.72 1.85 5.77 1.84 5.82L3.05 5.42C3.31 5.33 3.59 5.47 3.68 5.74C3.77 6 3.63 6.28 3.36 6.37L1.26 7.07C1.26 7.07 1.18 7.09 1.14 7.09C1.12 7.09 1.03 7.09 1.01 7.08C0.87 7.06 0.76 6.99 0.69 6.87C0.61 6.76 0.59 6.63 0.61 6.5C0.7 6.09 0.81 5.69 0.96 5.31C1.12 4.89 1.31 4.5 1.55 4.11C1.76 3.76 2 3.43 2.26 3.12C2.54 2.79 2.85 2.49 3.19 2.21C3.54 1.92 3.92 1.66 4.32 1.44C4.66 1.25 5.01 1.09 5.38 0.95C5.74 0.82 6.1 0.71 6.47 0.63C6.96 0.54 7.46 0.5 7.96 0.5C8.46 0.5 8.97 0.54 9.46 0.63C9.83 0.71 10.19 0.82 10.55 0.95C10.92 1.09 11.27 1.25 11.61 1.44C12.01 1.66 12.39 1.92 12.74 2.21C13.08 2.49 13.39 2.79 13.67 3.12C13.93 3.43 14.17 3.76 14.38 4.11C14.62 4.5 14.81 4.89 14.97 5.31C15.12 5.69 15.23 6.09 15.32 6.5C15.37 6.77 15.2 7.03 14.92 7.08C14.65 7.14 14.39 6.97 14.33 6.69ZM11.82 6.85L8.32 10.35C8.22 10.45 8.1 10.5 7.96 10.5C7.89 10.5 7.83 10.49 7.77 10.46C7.71 10.43 7.66 10.4 7.61 10.35L5.11 7.85C4.91 7.65 4.91 7.34 5.11 7.14C5.31 6.94 5.62 6.94 5.82 7.14L7.96 9.29L11.11 6.14C11.31 5.94 11.62 5.94 11.82 6.14C12.02 6.34 12.02 6.65 11.82 6.85ZM1.6 9.3C1.54 9.02 1.28 8.85 1.01 8.91C0.73 8.96 0.56 9.22 0.62 9.49C0.7 9.89 0.81 10.3 0.96 10.68C1.12 11.1 1.31 11.49 1.55 11.88C1.76 12.23 2 12.56 2.26 12.87C2.54 13.2 2.85 13.5 3.19 13.78C3.54 14.07 3.92 14.33 4.32 14.55C4.66 14.74 5.01 14.9 5.38 15.04C5.74 15.17 6.1 15.27 6.47 15.35C6.96 15.45 7.46 15.5 7.97 15.5C8.48 15.5 8.97 15.45 9.46 15.35C9.83 15.27 10.19 15.17 10.55 15.04C10.92 14.9 11.27 14.74 11.61 14.55C12.01 14.33 12.39 14.07 12.74 13.78C13.08 13.5 13.39 13.2 13.67 12.87C13.93 12.56 14.17 12.23 14.38 11.88C14.62 11.49 14.81 11.1 14.97 10.68C15.12 10.3 15.23 9.89 15.32 9.49C15.34 9.35 15.32 9.22 15.24 9.12C15.2 9.06 15.16 9.01 15.11 8.97C15.06 8.95 14.99 8.92 14.92 8.91C14.88 8.89 14.83 8.89 14.78 8.89C14.74 8.89 14.69 8.91 14.65 8.93L12.83 9.63C12.56 9.72 12.44 10.01 12.54 10.27C12.64 10.54 12.92 10.66 13.18 10.56L14.08 10.22C14.08 10.22 14.05 10.29 14.04 10.32C13.9 10.68 13.73 11.03 13.53 11.36C13.34 11.66 13.14 11.94 12.91 12.21C12.66 12.5 12.39 12.76 12.1 13.01C11.79 13.26 11.47 13.49 11.12 13.68C10.82 13.84 10.52 13.98 10.2 14.1C9.9 14.21 9.6 14.3 9.28 14.36C8.85 14.45 8.41 14.5 7.97 14.5C7.53 14.5 7.08 14.45 6.65 14.36C6.34 14.3 6.03 14.21 5.73 14.1C5.41 13.98 5.11 13.84 4.81 13.68C4.47 13.49 4.14 13.26 3.83 13.01C3.53 12.76 3.26 12.5 3.02 12.21C2.79 11.94 2.59 11.66 2.4 11.36C2.2 11.03 2.03 10.68 1.89 10.32C1.77 9.99 1.67 9.64 1.6 9.3Z" fill="currentColor" fill-opacity="1.000000" fill-rule="evenodd"/>
	</g>
</svg>
