<svg width="16.000000" height="16.000000" viewBox="0 0 16 16" fill="none" xmlns="http://www.w3.org/2000/svg" xmlns:xlink="http://www.w3.org/1999/xlink">
	<desc>
			Created with Pixso.
	</desc>
	<defs>
		<clipPath id="clip117_1487">
			<rect id="87#内网域名-domain-ip" width="16.000000" height="16.000000" fill="white" fill-opacity="0"/>
		</clipPath>
	</defs>
	<g clip-path="url(#clip117_1487)">
		<path id="_合并" d="M2.21 3.31L2.21 6.17C2.21 6.45 2.43 6.67 2.71 6.67C2.99 6.67 3.21 6.45 3.21 6.17L3.21 3.31C3.21 3.31 3.21 3.23 3.23 3.19C3.26 3.16 3.36 3.04 3.4 3.02C3.4 3.02 3.48 3 3.52 3L12.89 3C12.98 3 13.05 3.03 13.11 3.09C13.13 3.13 13.2 3.27 13.2 3.31L13.2 12.69C13.2 12.78 13.17 12.85 13.11 12.91C13.05 12.97 12.98 13 12.89 13L3.52 13C3.52 13 3.44 13 3.4 12.98C3.34 12.92 3.21 12.78 3.21 12.69L3.21 9.64C3.21 9.36 2.99 9.14 2.71 9.14C2.43 9.14 2.21 9.36 2.21 9.64L2.21 12.69C2.21 12.87 2.24 13.04 2.31 13.2C2.34 13.28 2.38 13.35 2.42 13.41C2.47 13.48 2.52 13.55 2.59 13.61C2.71 13.73 2.85 13.82 3.01 13.89C3.09 13.92 3.16 13.95 3.24 13.96C3.33 13.98 3.42 13.99 3.52 13.99L12.89 13.99C13.07 13.99 13.24 13.96 13.4 13.89C13.56 13.82 13.7 13.73 13.82 13.61C13.94 13.49 14.03 13.35 14.1 13.19C14.17 13.03 14.2 12.86 14.2 12.68L14.2 3.31C14.2 3.22 14.2 3.12 14.17 3.03C14.15 2.95 14.13 2.87 14.1 2.8C14.03 2.64 13.94 2.5 13.82 2.38C13.76 2.32 13.69 2.26 13.62 2.21C13.55 2.17 13.48 2.13 13.41 2.1C13.25 2.03 13.08 2 12.9 2L3.52 2C3.43 2 3.33 2 3.24 2.03C3.16 2.05 3.08 2.07 3.01 2.1C2.93 2.13 2.86 2.17 2.8 2.21C2.73 2.26 2.66 2.31 2.6 2.38C2.54 2.44 2.48 2.51 2.43 2.58C2.39 2.65 2.35 2.72 2.32 2.79C2.29 2.87 2.26 2.94 2.25 3.02C2.23 3.11 2.21 3.21 2.21 3.31ZM6.99 5.5C6.71 5.5 6.49 5.72 6.49 6L6.49 9.95C6.49 10.23 6.71 10.45 6.99 10.45C7.27 10.45 7.49 10.23 7.49 9.95L7.49 6C7.49 5.72 7.27 5.5 6.99 5.5ZM8.18 8.5L8.18 5.94C8.18 5.72 8.36 5.53 8.59 5.53C8.6 5.53 8.7 5.53 8.71 5.53L10.16 5.53C10.98 5.53 11.64 6.19 11.64 7.01C11.64 7.83 10.98 8.49 10.16 8.49L9.18 8.49L9.18 9.97C9.18 10.25 8.96 10.47 8.68 10.47C8.4 10.47 8.18 10.25 8.18 9.97L8.18 8.5ZM4.5 9.52C4.3 9.72 3.99 9.72 3.79 9.52C3.59 9.32 3.59 9.01 3.79 8.81L4.1 8.5L2.3 8.5C2.02 8.5 1.8 8.28 1.8 8C1.8 7.72 2.02 7.5 2.3 7.5L4.1 7.5L3.79 7.19C3.59 6.99 3.59 6.68 3.79 6.48C3.99 6.28 4.3 6.28 4.5 6.48L5.6 7.58C5.66 7.64 5.7 7.7 5.73 7.77C5.76 7.84 5.77 7.91 5.77 7.99C5.77 8.07 5.76 8.14 5.73 8.21C5.7 8.28 5.66 8.34 5.6 8.4L4.5 9.52ZM9.18 7.5L10.16 7.5C10.23 7.5 10.29 7.49 10.35 7.46C10.41 7.44 10.46 7.4 10.51 7.35C10.56 7.3 10.59 7.25 10.62 7.19C10.64 7.13 10.66 7.07 10.66 7C10.66 6.93 10.65 6.87 10.62 6.81C10.6 6.75 10.56 6.7 10.51 6.65C10.46 6.6 10.41 6.57 10.35 6.54C10.29 6.52 10.23 6.5 10.16 6.5L9.18 6.5L9.18 7.5Z" fill="currentColor" fill-opacity="1.000000" fill-rule="evenodd"/>
	</g>
</svg>
