<svg width="16.000000" height="16.000000" viewBox="0 0 16 16" fill="none" xmlns="http://www.w3.org/2000/svg" xmlns:xlink="http://www.w3.org/1999/xlink">
	<desc>
			Created with Pixso.
	</desc>
	<defs>
		<clipPath id="clip117_1490">
			<rect id="88#反向解析-reverse-resolution" width="16.000000" height="16.000000" fill="white" fill-opacity="0"/>
		</clipPath>
	</defs>
	<g clip-path="url(#clip117_1490)">
		<path id="矢量 175" d="M2.67 4.17L7.26 1.52C7.38 1.46 7.48 1.41 7.6 1.38C7.7 1.35 7.82 1.33 7.95 1.33C8.07 1.33 8.18 1.35 8.29 1.38C8.41 1.41 8.51 1.46 8.63 1.52L13.21 4.17C13.32 4.23 13.41 4.3 13.49 4.39C13.57 4.47 13.65 4.57 13.71 4.67C13.77 4.78 13.82 4.89 13.85 5C13.88 5.11 13.9 5.23 13.9 5.35L13.9 10.64C13.9 10.76 13.88 10.88 13.85 10.99C13.82 11.1 13.77 11.21 13.71 11.32C13.65 11.43 13.58 11.52 13.49 11.6C13.41 11.68 13.31 11.76 13.21 11.82L8.63 14.47C8.51 14.53 8.41 14.58 8.29 14.61C8.18 14.64 8.07 14.66 7.95 14.66C7.82 14.66 7.7 14.64 7.6 14.61C7.48 14.58 7.38 14.53 7.26 14.47L2.69 11.82C2.57 11.76 2.48 11.69 2.41 11.6C2.32 11.52 2.25 11.42 2.19 11.32C2.13 11.21 2.07 11.1 2.04 10.99C2.01 10.88 2 10.76 2 10.64L2 5.35C2 5.23 2.01 5.11 2.04 5C2.07 4.89 2.13 4.78 2.19 4.67C2.25 4.56 2.32 4.47 2.41 4.39C2.48 4.31 2.57 4.23 2.67 4.17ZM7.76 2.39L3.1 5.1C3.1 5.1 3 5.33 2.98 5.36L2.98 10.65C2.98 10.65 3.03 10.8 3.04 10.83C3.06 10.86 3.14 10.94 3.17 10.96L7.76 13.61C7.76 13.61 7.91 13.65 7.94 13.66C7.97 13.66 8.09 13.62 8.12 13.61L12.7 10.96C12.7 10.96 12.81 10.85 12.83 10.83C12.85 10.8 12.87 10.68 12.88 10.65L12.88 5.36C12.88 5.36 12.84 5.21 12.83 5.18C12.81 5.15 12.72 5.07 12.7 5.05L8.12 2.4C8.12 2.4 7.97 2.36 7.94 2.35C7.91 2.35 7.79 2.38 7.76 2.39ZM4.29 6.3L10.17 6.3L9.76 5.97C9.54 5.8 9.5 5.49 9.67 5.27C9.85 5.05 10.16 5.01 10.38 5.19L11.74 6.26C11.79 6.3 11.84 6.35 11.87 6.4C11.9 6.45 11.93 6.51 11.94 6.57C11.95 6.63 11.96 6.68 11.96 6.74C11.96 6.8 11.95 6.86 11.93 6.91C11.91 6.97 11.88 7.02 11.85 7.06C11.82 7.1 11.78 7.14 11.73 7.18C11.68 7.22 11.63 7.25 11.57 7.27C11.51 7.29 11.45 7.3 11.38 7.3L4.29 7.3C4.01 7.3 3.79 7.08 3.79 6.8C3.79 6.52 4.01 6.3 4.29 6.3ZM5.73 9.3L11.61 9.3C11.89 9.3 12.11 9.08 12.11 8.8C12.11 8.52 11.89 8.3 11.61 8.3L4.53 8.3C4.45 8.3 4.39 8.31 4.34 8.33C4.28 8.35 4.23 8.38 4.17 8.42C4.13 8.45 4.1 8.49 4.06 8.54C4.03 8.59 4 8.64 3.98 8.7C3.95 8.76 3.95 8.81 3.95 8.87C3.95 8.93 3.95 8.98 3.97 9.04C3.98 9.1 4.01 9.16 4.04 9.21C4.07 9.26 4.12 9.31 4.17 9.35L5.53 10.42C5.75 10.59 6.06 10.56 6.23 10.34C6.39 10.12 6.37 9.81 6.14 9.64L5.73 9.3Z" fill="currentColor" fill-opacity="1.000000" fill-rule="evenodd"/>
	</g>
</svg>
