<svg width="16.000000" height="16.000000" viewBox="0 0 16 16" fill="none" xmlns="http://www.w3.org/2000/svg" xmlns:xlink="http://www.w3.org/1999/xlink">
	<desc>
			Created with Pixso.
	</desc>
	<defs>
		<clipPath id="clip117_1495">
			<rect id="89#路由|线路-route" width="16.000000" height="16.000000" fill="white" fill-opacity="0"/>
		</clipPath>
	</defs>
	<g clip-path="url(#clip117_1495)">
		<path id="_合并" d="M1.01 3.51C1.01 2.54 1.79 1.76 2.76 1.76C3.57 1.76 4.25 2.31 4.45 3.06L11.76 3.06C11.96 3.06 12.16 3.08 12.35 3.12C12.51 3.16 12.67 3.21 12.83 3.27C13.16 3.41 13.45 3.61 13.7 3.86C13.95 4.11 14.15 4.4 14.29 4.73C14.36 4.89 14.41 5.04 14.44 5.21C14.48 5.4 14.5 5.6 14.5 5.8C14.5 6 14.48 6.2 14.44 6.39C14.4 6.55 14.35 6.71 14.29 6.87C14.15 7.2 13.95 7.49 13.7 7.74C13.45 7.99 13.16 8.19 12.83 8.33C12.67 8.4 12.52 8.45 12.35 8.48C12.16 8.52 11.96 8.54 11.76 8.54L9.67 8.54C9.43 9.24 8.78 9.74 8.01 9.74C7.23 9.74 6.57 9.24 6.35 8.54L4.26 8.54C4.12 8.54 3.98 8.55 3.85 8.58C3.76 8.6 3.67 8.63 3.57 8.67C3.35 8.76 3.17 8.88 3.01 9.05C2.92 9.14 2.85 9.23 2.78 9.33C2.72 9.42 2.67 9.51 2.63 9.6C2.54 9.82 2.48 10.04 2.48 10.28C2.48 10.52 2.54 10.74 2.63 10.96C2.67 11.06 2.72 11.15 2.78 11.23C2.85 11.33 2.92 11.43 3.01 11.51C3.17 11.67 3.35 11.8 3.57 11.89C3.66 11.93 3.76 11.96 3.85 11.98C3.98 12.01 4.12 12.02 4.25 12.02L11.56 12.02C11.76 11.27 12.44 10.72 13.25 10.72C14.22 10.72 15 11.5 15 12.47C15 13.44 14.22 14.22 13.25 14.22C12.48 14.22 11.82 13.72 11.59 13.02L4.25 13.02C4.04 13.02 3.85 13 3.66 12.96C3.5 12.92 3.34 12.87 3.17 12.81C2.85 12.67 2.56 12.47 2.31 12.22C2.06 11.97 1.85 11.68 1.72 11.35C1.64 11.19 1.6 11.04 1.57 10.87C1.53 10.68 1.51 10.48 1.51 10.28C1.51 10.08 1.53 9.88 1.57 9.69C1.6 9.53 1.66 9.37 1.72 9.21C1.85 8.88 2.06 8.59 2.31 8.34C2.44 8.21 2.59 8.09 2.73 7.99C2.88 7.9 3.03 7.82 3.17 7.75C3.34 7.68 3.48 7.63 3.66 7.6C3.85 7.56 4.04 7.54 4.25 7.54L6.31 7.54C6.51 6.79 7.19 6.24 8 6.24C8.81 6.24 9.48 6.79 9.68 7.54L11.75 7.54C11.99 7.54 12.21 7.49 12.43 7.4C12.64 7.31 12.82 7.19 12.99 7.02C13.15 6.86 13.28 6.67 13.37 6.46C13.41 6.37 13.44 6.27 13.46 6.17C13.49 6.04 13.5 5.91 13.5 5.77C13.5 5.63 13.49 5.5 13.46 5.37C13.44 5.27 13.41 5.18 13.37 5.08C13.28 4.87 13.16 4.69 12.99 4.52C12.83 4.36 12.64 4.23 12.43 4.14C12.21 4.05 11.99 4 11.75 4L4.41 4C4.17 4.7 3.51 5.2 2.75 5.2C1.78 5.2 1.01 4.48 1.01 3.51ZM2.01 3.51C2.01 3.1 2.35 2.76 2.76 2.76C3.17 2.76 3.51 3.1 3.51 3.51C3.51 3.92 3.17 4.26 2.76 4.26C2.35 4.26 2.01 3.92 2.01 3.51ZM7.26 8.01C7.26 7.6 7.6 7.26 8.01 7.26C8.42 7.26 8.76 7.6 8.76 8.01C8.76 8.42 8.42 8.76 8.01 8.76C7.6 8.76 7.26 8.42 7.26 8.01ZM13.26 11.76C12.85 11.76 12.51 12.1 12.51 12.51C12.51 12.92 12.85 13.26 13.26 13.26C13.67 13.26 14.01 12.92 14.01 12.51C14.01 12.1 13.67 11.76 13.26 11.76Z" fill="currentColor" fill-opacity="1.000000" fill-rule="evenodd"/>
	</g>
</svg>
