<svg width="16.000000" height="16.000000" viewBox="0 0 16 16" fill="none" xmlns="http://www.w3.org/2000/svg" xmlns:xlink="http://www.w3.org/1999/xlink">
	<desc>
			Created with Pixso.
	</desc>
	<defs>
		<clipPath id="clip2_123">
			<rect id="9#实时流量-realtime-flow" width="16.000000" height="16.000000" fill="white" fill-opacity="0"/>
		</clipPath>
	</defs>
	<g clip-path="url(#clip2_123)">
		<path id="形状结合" d="M7.97 0.66C8.25 0.66 8.47 0.88 8.47 1.16L8.47 2.31C11.7 2.57 14.24 5.27 14.24 8.57C14.24 12.03 11.43 14.84 7.97 14.84C4.51 14.84 1.7 12.03 1.7 8.57C1.7 5.27 4.24 2.57 7.47 2.31L7.47 1.16C7.47 0.88 7.69 0.66 7.97 0.66ZM7.97 3.3C5.06 3.3 2.7 5.65 2.7 8.57C2.7 11.48 5.06 13.84 7.97 13.84C10.88 13.84 13.24 11.48 13.24 8.57C13.24 5.65 10.88 3.3 7.97 3.3ZM11.7 7.3C11.87 7.51 11.85 7.83 11.64 8.01L9.38 9.89C9.2 10.04 8.93 10.05 8.75 9.9L6.75 8.28L4.96 9.88C4.78 10.04 4.51 10.05 4.32 9.9C4.14 9.7 4.09 9.32 4.29 9.14L6.4 7.25C6.58 7.09 6.85 7.08 7.04 7.23L9.06 8.86L10.99 7.24C11.2 7.06 11.52 7.09 11.7 7.3ZM13.08 2.29C13.28 2.09 13.59 2.09 13.79 2.29L14.59 3.09C14.79 3.29 14.79 3.6 14.59 3.8C14.4 3.99 14.08 3.99 13.89 3.8L13.08 2.99C12.89 2.8 12.89 2.48 13.08 2.29Z" fill="currentColor" fill-opacity="1.000000" fill-rule="nonzero"/>
	</g>
</svg>
