<svg width="16.000000" height="16.000000" viewBox="0 0 16 16" fill="none" xmlns="http://www.w3.org/2000/svg" xmlns:xlink="http://www.w3.org/1999/xlink">
	<desc>
			Created with Pixso.
	</desc>
	<defs>
		<clipPath id="clip2_220">
			<rect id="90#AI开发平台-modelarts" width="16.000000" height="16.000000" fill="white" fill-opacity="0"/>
		</clipPath>
	</defs>
	<g clip-path="url(#clip2_220)">
		<path id="path" d="M14.99 13.9L12.49 1.9C12.47 1.81 12.4 1.69 12.33 1.62C12.25 1.55 12.16 1.52 12.06 1.51L11.94 1.51C11.94 1.51 11.86 1.53 11.82 1.54C11.78 1.56 11.69 1.61 11.66 1.65L8.01 5.81L4.39 1.7C4.39 1.7 4.27 1.58 4.21 1.55C4.21 1.55 4.11 1.51 4.06 1.5C4.06 1.5 3.95 1.5 3.94 1.5C3.84 1.5 3.75 1.54 3.67 1.61C3.59 1.68 3.55 1.77 3.53 1.86L1.01 13.9C0.95 14.12 1.07 14.35 1.28 14.45C1.48 14.55 1.73 14.5 1.88 14.33L6.01 9.6L7.53 14.16C7.56 14.24 7.63 14.34 7.7 14.4C7.73 14.42 7.8 14.47 7.84 14.49C7.89 14.51 7.95 14.52 8 14.52C8.05 14.52 8.11 14.52 8.16 14.49C8.2 14.48 8.23 14.45 8.26 14.43C8.33 14.37 8.42 14.27 8.45 14.18L9.98 9.6L14.12 14.33C14.27 14.5 14.52 14.55 14.72 14.45C14.92 14.35 15.03 14.12 14.99 13.9ZM2.38 12.24L4.11 3.92L5.64 8.51L2.38 12.24ZM5.26 4.19L7.34 6.57L6.41 7.63L5.26 4.19ZM8 12.42L6.77 8.72L8 7.33L9.23 8.72L8 12.42ZM9.59 7.64L8.66 6.58L10.74 4.21L9.59 7.64ZM10.35 8.51L11.88 3.92L13.61 12.24L10.35 8.51Z" fill="currentColor" fill-opacity="1.000000" fill-rule="nonzero"/>
	</g>
</svg>
