<svg width="16.000000" height="16.000000" viewBox="0 0 16 16" fill="none" xmlns="http://www.w3.org/2000/svg" xmlns:xlink="http://www.w3.org/1999/xlink">
	<desc>
			Created with Pixso.
	</desc>
	<defs>
		<clipPath id="clip2_64">
			<rect id="92#健康中心-wellness-center" width="16.000000" height="16.000000" fill="white" fill-opacity="0"/>
		</clipPath>
	</defs>
	<g clip-path="url(#clip2_64)">
		<path id="形状" d="M14.5 13.66L11.77 10.96C12.54 10.02 13 8.81 13 7.5C13 4.46 10.54 2 7.5 2C4.46 2 2 4.46 2 7.5C2 10.54 4.45 13 7.5 13C8.85 13 10.1 12.5 11.06 11.68L13.8 14.38C13.9 14.47 14.02 14.52 14.15 14.52C14.28 14.52 14.41 14.48 14.5 14.38C14.7 14.18 14.7 13.86 14.5 13.66ZM3 7.5C3 5.02 5.01 3 7.5 3C9.98 3 12 5.02 12 7.5C12 9.97 9.98 12 7.5 12C5.01 12 3 9.97 3 7.5ZM11.14 6.94L8.89 8.82C8.71 8.97 8.44 8.97 8.26 8.82L6.27 7.21L4.49 8.81C4.39 8.89 4.28 8.93 4.16 8.93C4.01 8.93 3.88 8.88 3.78 8.77C3.6 8.56 3.62 8.25 3.82 8.06L5.92 6.18C6.1 6.01 6.38 6 6.57 6.16L8.57 7.79L10.5 6.17C10.72 5.99 11.03 6.02 11.21 6.23C11.39 6.44 11.36 6.76 11.14 6.94Z" fill="currentColor" fill-opacity="1.000000" fill-rule="nonzero"/>
	</g>
</svg>
