<svg width="16.000000" height="16.000000" viewBox="0 0 16 16" fill="none" xmlns="http://www.w3.org/2000/svg" xmlns:xlink="http://www.w3.org/1999/xlink">
	<desc>
			Created with Pixso.
	</desc>
	<defs>
		<clipPath id="clip117_1498">
			<rect id="93#公网域名-domain" width="16.000000" height="16.000000" fill="white" fill-opacity="0"/>
		</clipPath>
	</defs>
	<g clip-path="url(#clip117_1498)">
		<path id="矢量 178" d="M8 1C4.13 1 1 4.13 1 8C1 11.87 4.13 15 8 15C11.87 15 15 11.87 15 8C15 4.13 11.87 1 8 1ZM10.08 4.5L8.5 4.5L8.5 2.33C9.14 2.6 9.7 3.39 10.08 4.5ZM5.91 4.5L7.5 4.5L7.5 2.33C6.85 2.6 6.29 3.39 5.91 4.5ZM6.02 2.33C5.57 2.89 5.19 3.63 4.91 4.5L3.13 4.5C3.84 3.51 4.85 2.75 6.02 2.33ZM11.1 4.5L12.88 4.5C12.17 3.51 11.16 2.75 9.98 2.33C10.44 2.89 10.82 3.63 11.1 4.5ZM2.01 8C2.01 7.11 2.2 6.26 2.54 5.5L4.64 5.5C4.6 5.74 4.54 5.99 4.52 6.25L5.52 6.25C5.56 5.99 5.6 5.74 5.64 5.5L7.51 5.5L7.51 6.25L8.51 6.25L8.51 5.5L10.37 5.5C10.42 5.74 10.47 5.99 10.5 6.25L11.5 6.25C11.46 5.99 11.42 5.74 11.37 5.5L13.47 5.5C13.82 6.26 14.01 7.11 14.01 8C14.01 8.89 13.82 9.74 13.47 10.5L11.37 10.5C11.42 10.26 11.47 10.01 11.5 9.75L10.5 9.75C10.46 10.01 10.42 10.26 10.37 10.5L8.51 10.5L8.51 9.75L7.51 9.75L7.51 10.5L5.64 10.5C5.6 10.26 5.54 10.01 5.52 9.75L4.52 9.75C4.56 10.01 4.6 10.26 4.64 10.5L2.54 10.5C2.2 9.74 2.01 8.89 2.01 8ZM3.06 6.83L2.53 6.83L3.28 9.3L3.78 9.3L4.2 7.89C4.22 7.8 4.25 7.71 4.27 7.63C4.28 7.55 4.31 7.47 4.32 7.37C4.34 7.47 4.35 7.55 4.37 7.63C4.39 7.71 4.41 7.79 4.44 7.89L4.85 9.29L5.37 9.29L6.1 6.82L5.6 6.82L5.22 8.33C5.17 8.47 5.14 8.6 5.13 8.72C5.1 8.6 5.08 8.47 5.03 8.31L4.58 6.82L4.06 6.82L3.64 8.3C3.6 8.41 3.57 8.55 3.53 8.72C3.51 8.58 3.47 8.43 3.44 8.31L3.06 6.83ZM6.71 6.83L6.1 6.82L6.92 9.3L7.44 9.3L7.85 7.89C7.88 7.8 7.89 7.71 7.91 7.63C7.94 7.55 7.96 7.47 7.97 7.37C7.98 7.47 7.89 7.55 7.91 7.63C7.94 7.71 8.06 7.79 8.09 7.89L8.51 9.29L9.02 9.29L9.75 6.82L9.25 6.82L8.87 8.33C8.83 8.47 8.79 8.6 8.78 8.72C8.76 8.6 8.72 8.47 8.67 8.31L8.22 6.82L7.71 6.82L7.28 8.3C7.26 8.41 7.22 8.55 7.17 8.72C7.16 8.58 7.13 8.43 7.09 8.31L6.71 6.83ZM9.75 6.82L10.36 6.83L10.76 8.32C10.8 8.45 10.83 8.59 10.85 8.72C10.89 8.56 10.92 8.42 10.96 8.31L11.38 6.83L11.9 6.83L12.35 8.32C12.4 8.49 12.43 8.62 12.45 8.72C12.47 8.62 12.5 8.49 12.54 8.34L12.92 6.83L13.42 6.83L12.69 9.3L12.18 9.3L11.76 7.9C11.73 7.81 11.71 7.72 11.69 7.64C11.67 7.56 11.65 7.47 11.64 7.38C11.62 7.47 11.6 7.56 11.59 7.64C11.57 7.72 11.55 7.8 11.52 7.9L11.11 9.31L10.6 9.31L9.85 6.84L9.75 6.82ZM3.14 11.5C3.85 12.49 4.85 13.25 6.03 13.66C5.58 13.1 5.2 12.36 4.91 11.5L3.14 11.5ZM5.94 11.5C6.32 12.6 6.88 13.39 7.52 13.67L7.52 11.5L5.94 11.5ZM8.52 11.5L8.52 13.67C9.16 13.4 9.72 12.61 10.1 11.5L8.52 11.5ZM11.11 11.5C10.83 12.37 10.45 13.11 10 13.66C11.17 13.25 12.18 12.49 12.89 11.5L11.11 11.5Z" fill="currentColor" fill-opacity="1.000000" fill-rule="evenodd"/>
	</g>
</svg>
