<svg width="72.000000" height="72.000000" viewBox="0 0 72 72" fill="none" xmlns="http://www.w3.org/2000/svg" xmlns:xlink="http://www.w3.org/1999/xlink">
	<desc>
			Created with Pixso.
	</desc>
	<defs>
		<clipPath id="clip117_276">
			<rect id="1#区块链服务-BCS" width="72.000000" height="72.000000" fill="white" fill-opacity="0"/>
		</clipPath>
	</defs>
	<g clip-path="url(#clip117_276)">
		<path id="矩形备份-19" d="M16 0L56 0C64.8 0 72 7.2 72 16L72 56C72 64.79 64.8 72 56 72L16 72C7.19 72 0 64.79 0 56L0 16C0 7.2 7.19 0 16 0Z" fill="#1476FF" fill-opacity="1.000000" fill-rule="evenodd"/>
		<path id="形状结合" d="M39.89 12.2C40.59 12.2 41.29 12.6 41.59 13.2L45.39 19.7C45.79 20.3 45.79 21.1 45.39 21.7L41.59 28.2C41.2 28.8 40.59 29.2 39.89 29.2L32.2 29.2C31.5 29.2 30.79 28.8 30.5 28.2L26.7 21.7C26.29 21.1 26.29 20.3 26.7 19.7L30.5 13.2C30.89 12.6 31.5 12.2 32.2 12.2L39.89 12.2ZM39.29 15.2L32.7 15.2L29.5 20.7L32.7 26.2L39.29 26.2L42.5 20.7L39.29 15.2ZM25.89 35.7C26.59 35.7 27.29 36.1 27.59 36.7L31.39 43.2C31.79 43.8 31.79 44.6 31.39 45.2L27.59 51.7C27.2 52.3 26.59 52.7 25.89 52.7L18.2 52.7C17.5 52.7 16.79 52.3 16.5 51.7L12.7 45.2C12.29 44.6 12.29 43.8 12.7 43.2L16.5 36.7C16.89 36.1 17.5 35.7 18.2 35.7L25.89 35.7ZM25.29 38.7L18.7 38.7L15.5 44.2L18.7 49.7L25.29 49.7L28.5 44.2L25.29 38.7ZM53.89 35.7C54.59 35.7 55.29 36.1 55.59 36.7L59.39 43.2C59.79 43.8 59.79 44.6 59.39 45.2L55.59 51.7C55.2 52.3 54.59 52.7 53.89 52.7L46.2 52.7C45.5 52.7 44.79 52.3 44.5 51.7L40.7 45.2C40.29 44.6 40.29 43.8 40.7 43.2L44.5 36.7C44.89 36.1 45.5 35.7 46.2 35.7L53.89 35.7ZM53.29 38.7L46.7 38.7L43.5 44.2L46.7 49.7L53.29 49.7L56.5 44.2L53.29 38.7ZM23.09 22C23.5 21.7 24.2 21.7 24.5 22.1C24.79 22.5 24.79 23.2 24.39 23.5C21.59 25.8 19.7 28.9 18.7 33.1C18.59 33.6 18 34 17.5 33.8C17 33.6 16.59 33.1 16.79 32.6C17.79 28.1 19.89 24.5 23.09 22ZM26.5 27.5C26.89 27.1 27.59 27.2 27.89 27.6C28.2 28 28.2 28.7 27.79 29C26.5 30.1 25.5 31.5 24.89 33.3C24.7 33.8 24.09 34.1 23.59 33.9C23.09 33.7 22.79 33.1 23 32.6C23.79 30.5 24.89 28.8 26.5 27.5ZM49 22C48.59 21.7 47.89 21.7 47.59 22.1C47.29 22.5 47.29 23.2 47.7 23.5C50.5 25.8 52.39 28.9 53.39 33.1C53.5 33.6 54.09 34 54.59 33.8C55.09 33.6 55.5 33.1 55.29 32.6C54.29 28.1 52.2 24.5 49 22ZM45.59 27.5C45.2 27.1 44.5 27.2 44.2 27.6C43.79 28 43.89 28.7 44.29 29C45.59 30.1 46.59 31.5 47.2 33.3C47.39 33.8 48 34.1 48.5 33.9C49 33.7 49.29 33.1 49.09 32.6C48.29 30.5 47.2 28.8 45.59 27.5ZM42.89 55.1C43.39 54.9 43.7 54.4 43.5 53.8C43.29 53.3 42.79 53 42.2 53.2C38.09 54.5 34 54.5 29.79 53.2C29.29 53 28.7 53.3 28.5 53.8C28.29 54.3 28.59 54.9 29.09 55.1C33.89 56.6 38.39 56.6 42.89 55.1ZM39.79 50.1C40.29 49.9 40.59 49.4 40.5 48.9C40.29 48.4 39.79 48.1 39.29 48.2C36.79 48.9 34.59 48.9 32.79 48.2C32.29 48 31.7 48.3 31.5 48.8C31.29 49.3 31.59 49.9 32.09 50.1C34.29 51 36.89 51 39.79 50.1Z" fill="#FFFFFF" fill-opacity="1.000000" fill-rule="nonzero"/>
	</g>
</svg>
