<svg width="72.000000" height="72.000000" viewBox="0 0 72 72" fill="none" xmlns="http://www.w3.org/2000/svg" xmlns:xlink="http://www.w3.org/1999/xlink">
	<desc>
			Created with Pixso.
	</desc>
	<defs>
		<clipPath id="clip117_277">
			<rect id="2#可信跨链服务-TCS" width="72.000000" height="72.000000" fill="white" fill-opacity="0"/>
		</clipPath>
	</defs>
	<g clip-path="url(#clip117_277)">
		<path id="矩形备份-19" d="M16 0L56 0C64.8 0 72 7.2 72 16L72 56C72 64.79 64.8 72 56 72L16 72C7.19 72 0 64.79 0 56L0 16C0 7.2 7.19 0 16 0Z" fill="#9F53E6" fill-opacity="1.000000" fill-rule="evenodd"/>
		<path id="形状结合" d="M38 13.2L54.8 22.89C56 23.6 56.8 24.89 56.8 26.39L56.8 45.8C56.8 47.2 56 48.5 54.8 49.3L38 58.8C36.8 59.5 35.2 59.5 34 58.8L17.2 49.1C16 48.39 15.2 47.1 15.2 45.6L15.2 26.3C15.2 24.89 16 23.6 17.2 22.8L34 13.2C35.2 12.39 36.8 12.39 38 13.2ZM27.8 32.3L27.59 32.3C26 32.39 24.8 33.7 24.8 35.3L24.8 42.89C24.8 44.6 26.09 45.89 27.8 45.89L44.2 45.89C44.59 46.89 45.7 47.7 46.89 47.7C48.5 47.7 49.8 46.39 49.8 44.8C49.8 43.2 48.5 41.89 46.89 41.89C45.59 41.89 44.5 42.8 44.09 43.89L27.8 43.89C27.2 43.89 26.8 43.5 26.8 42.89L26.8 35.3C26.8 34.7 27.2 34.3 27.8 34.3L43.2 34.39C43.8 34.39 44.2 34 44.2 33.39C44.2 32.8 43.8 32.39 43.2 32.39L27.8 32.3ZM25.8 24.3C24.2 24.3 22.89 25.6 22.89 27.2C22.89 28.8 24.2 30.1 25.8 30.1C27 30.1 28 29.39 28.39 28.5L44.89 28.5C45.5 28.5 45.89 28.89 45.89 29.5L45.89 37.1C45.89 37.7 45.5 38.1 44.89 38.1L29.5 38C28.89 38 28.5 38.39 28.5 39C28.5 39.6 28.89 40 29.5 40L44.89 40.1L45.09 40.1C46.7 40 47.89 38.7 47.89 37.1L47.89 29.5C47.89 27.8 46.59 26.5 44.89 26.5L28.59 26.5C28.3 25.2 27.2 24.3 25.8 24.3Z" fill="#FFFFFF" fill-opacity="1.000000" fill-rule="evenodd"/>
	</g>
</svg>
