<svg width="72.000000" height="72.000000" viewBox="0 0 72 72" fill="none" xmlns="http://www.w3.org/2000/svg" xmlns:xlink="http://www.w3.org/1999/xlink">
	<desc>
			Created with Pixso.
	</desc>
	<defs>
		<clipPath id="clip117_322">
			<rect id="3#节点引擎服务-NES" width="72.000000" height="72.000000" fill="white" fill-opacity="0"/>
		</clipPath>
	</defs>
	<g clip-path="url(#clip117_322)">
		<path id="矩形备份-15" d="M16 0L56 0C64.84 0 72 7.16 72 16L72 56C72 64.83 64.84 72 56 72L16 72C7.15 72 0 64.83 0 56L0 16C0 7.16 7.15 0 16 0Z" fill="#00C4BE" fill-opacity="1.000000" fill-rule="evenodd"/>
		<path id="形状结合" d="M38 13.15L54.78 22.84C56.02 23.55 56.78 24.87 56.78 26.3L56.78 45.68C56.78 47.11 56.02 48.43 54.78 49.14L38 58.85C36.75 59.56 35.24 59.56 34 58.85L17.21 49.16C15.98 48.45 15.22 47.13 15.22 45.7L15.22 26.31C15.22 24.88 15.98 23.56 17.21 22.85L34 13.15C35.24 12.43 36.75 12.43 38 13.15ZM48.03 30.2C45.28 24.47 38.78 21.43 32.55 23.1C27.56 24.43 23.81 28.52 22.86 33.57C22.85 33.62 22.85 33.68 22.85 33.73C22.85 34.15 23.15 34.51 23.58 34.59C24.06 34.68 24.52 34.36 24.59 33.89C25.4 29.5 28.66 25.96 33 24.8L33.18 24.75L33.38 24.7C38.63 23.48 44.03 26.06 46.38 30.85L46.47 31.01C46.41 31.06 46.31 31.17 46.31 31.2C45.93 31.62 45.71 32.17 45.71 32.77C45.71 34.07 46.76 35.12 48.06 35.12C49.35 35.12 50.4 34.07 50.4 32.77C50.4 31.56 49.49 30.56 48.32 30.43C48.29 30.42 48.25 30.41 48.17 30.41L48.03 30.2ZM42.63 30.04C42.6 29.66 42.31 29.35 41.93 29.35L30.06 29.35C29.7 29.39 29.35 29.71 29.35 30.11L29.35 32.29C29.38 32.67 29.68 33.04 30.06 33.04L42.01 33.04C42.36 33 42.63 32.68 42.63 32.29L42.63 30.04ZM30.38 30.38L41.6 30.38L41.6 32.01L30.38 32.01L30.38 30.38ZM37.65 30.64L37.1 30.64C36.8 30.64 36.56 30.89 36.56 31.18C36.56 31.5 36.81 31.74 37.1 31.74L37.65 31.74C37.97 31.74 38.21 31.49 38.21 31.18C38.22 30.89 37.97 30.64 37.65 30.64ZM40.08 30.64L39.53 30.64C39.22 30.64 38.98 30.89 38.98 31.18C38.98 31.5 39.23 31.74 39.53 31.74L40.08 31.74C40.38 31.74 40.62 31.49 40.62 31.18C40.62 30.89 40.37 30.64 40.08 30.64ZM42.63 34.85C42.6 34.47 42.31 34.16 41.93 34.16L30.06 34.16C29.7 34.2 29.35 34.52 29.35 34.92L29.35 37.1C29.38 37.48 29.68 37.85 30.06 37.85L42.01 37.85C42.36 37.81 42.63 37.49 42.63 37.1L42.63 34.85ZM30.38 35.18L41.6 35.18L41.6 36.82L30.38 36.82L30.38 35.18ZM37.65 35.45L37.1 35.45C36.8 35.45 36.56 35.7 36.56 36C36.56 36.31 36.81 36.55 37.1 36.55L37.65 36.55C37.97 36.55 38.21 36.3 38.21 36C38.22 35.68 37.97 35.45 37.65 35.45ZM40.08 35.45L39.53 35.45C39.22 35.45 38.98 35.7 38.98 36C38.98 36.31 39.23 36.55 39.53 36.55L40.08 36.55C40.38 36.55 40.62 36.3 40.62 36C40.62 35.68 40.37 35.45 40.08 35.45ZM23.95 36.87C22.64 36.87 21.59 37.92 21.59 39.22C21.59 40.43 22.51 41.42 23.67 41.55C23.7 41.57 23.75 41.59 23.84 41.59L23.97 41.8C26.72 47.53 33.22 50.57 39.45 48.9C44.43 47.56 48.18 43.48 49.12 38.43C49.13 38.38 49.13 38.32 49.13 38.27C49.13 37.85 48.84 37.48 48.41 37.41C47.93 37.32 47.48 37.64 47.39 38.11C46.59 42.5 43.33 46.04 39 47.2L38.81 47.25L38.6 47.3C33.35 48.52 27.97 45.93 25.6 41.15L25.53 40.99C25.58 40.93 25.68 40.83 25.68 40.8C26.07 40.38 26.29 39.82 26.29 39.22C26.29 37.92 25.24 36.87 23.95 36.87ZM42.63 39.65C42.6 39.27 42.31 38.96 41.93 38.96L30.06 38.96C29.7 39 29.35 39.32 29.35 39.72L29.35 41.9C29.38 42.28 29.68 42.65 30.06 42.65L42.01 42.65C42.36 42.61 42.63 42.29 42.63 41.9L42.63 39.65ZM30.38 39.99L41.6 39.99L41.6 41.62L30.38 41.62L30.38 39.99ZM37.65 40.25L37.1 40.25C36.8 40.25 36.56 40.5 36.56 40.8C36.56 41.11 36.81 41.35 37.1 41.35L37.65 41.35C37.97 41.35 38.21 41.1 38.21 40.8C38.22 40.5 37.97 40.25 37.65 40.25ZM40.08 40.25L39.53 40.25C39.22 40.25 38.98 40.5 38.98 40.8C38.98 41.11 39.23 41.35 39.53 41.35L40.08 41.35C40.38 41.35 40.62 41.1 40.62 40.8C40.62 40.5 40.37 40.25 40.08 40.25Z" fill="#FFFFFF" fill-opacity="1.000000" fill-rule="evenodd"/>
	</g>
</svg>
