<svg width="72.000000" height="72.000000" viewBox="0 0 72 72" fill="none" xmlns="http://www.w3.org/2000/svg" xmlns:xlink="http://www.w3.org/1999/xlink">
	<desc>
			Created with Pixso.
	</desc>
	<defs>
		<clipPath id="clip117_91">
			<rect id="1#云数据库-RDS-for-MySQL" width="72.000000" height="72.000000" fill="white" fill-opacity="0"/>
		</clipPath>
	</defs>
	<g clip-path="url(#clip117_91)">
		<path id="矩形备份-19" d="M16 0L56 0C64.8 0 72 7.19 72 16L72 56C72 64.8 64.8 72 56 72L16 72C7.19 72 0 64.8 0 56L0 16C0 7.19 7.19 0 16 0Z" fill="#1476FF" fill-opacity="1.000000" fill-rule="evenodd"/>
		<path id="形状结合" d="M36 10.59C37.39 10.59 38.6 10.89 39.8 11.49L55.3 20.49C57.39 21.7 59 24.49 59 26.99L59 44.99C59 47.39 57.39 50.2 55.3 51.49L39.8 60.49C38.7 61.09 37.39 61.39 36 61.39C34.6 61.39 33.3 61.09 32.2 60.49L16.7 51.49C14.6 50.2 13 47.49 13 44.99L13 26.99C13 24.59 14.6 21.7 16.7 20.49L32.2 11.49C33.39 10.99 34.6 10.59 36 10.59ZM37.5 22.09C36.3 22.09 34.39 22.89 32.7 25.2C32.6 25.29 32.6 25.49 32.6 25.49C32.6 25.49 32.5 25.59 32.2 25.59C31.5 25.7 30.6 25.99 29.1 26.39C25.2 27.59 21.6 29.89 19.89 32.2C18.2 34.59 18.29 36.2 18.39 36.89L18.29 36.99C18.2 37.09 18.1 37.2 18 37.29C17.89 37.59 17.7 37.7 17.6 37.7C17.29 38.09 16.89 39.2 17.29 39.99C17.6 40.49 18.1 40.79 18.79 40.79C19.2 40.79 19.7 40.7 20.29 40.39C23 39.09 25.3 38.09 26.5 37.59C26.89 38.09 27.39 38.49 28 38.89C28.89 39.39 29.89 39.79 30.7 39.79L31.1 39.79C32.39 39.7 32.7 38.89 32.8 38.49C32.89 37.79 32.7 37.2 32 36.59C33.1 36.7 34.6 36.89 36.39 37.09C38.39 37.39 40.6 38.39 42.5 40.2C44 41.49 45.1 42.99 45.6 43.7C45.6 43.7 45.5 43.79 45.5 43.99C45.2 44.39 45 44.79 44.6 45.2C44.1 45.89 43.7 46.39 43.5 46.79C43.5 46.89 42.7 48.49 43.5 49.49C43.8 49.89 44.2 49.99 44.7 49.99C45.5 49.99 46.2 49.49 46.6 48.89C46.89 48.49 47.5 48.09 48.39 47.79C49.2 47.49 50 47.39 50.8 47.39C51.2 47.39 51.5 47.39 51.5 47.49C51.8 47.59 52.6 47.89 53.3 47.89C54.1 47.89 54.6 47.49 54.89 46.99C55.2 45.89 54.1 44.99 53.6 44.49C52.1 43.2 50.39 42.59 49.2 42.39C49.1 41.49 48.8 39.89 48.1 37.99C47.39 36.29 46.5 34.49 45.3 32.89C43.8 30.89 41.8 29.29 39.5 27.79C39 27.49 38.8 27.09 38.8 26.99C38.8 26.59 38.89 26.2 39.1 26.09C39.39 25.79 40.3 24.59 39.89 23.59C39.6 22.89 39 22.09 37.5 22.09ZM21.7 33.49C22.39 33.49 22.89 33.99 22.89 34.7C22.89 35.39 22.39 35.89 21.7 35.89C21 35.89 20.5 35.39 20.5 34.7C20.5 33.99 20.89 33.49 21.7 33.49Z" fill="#FFFFFF" fill-opacity="1.000000" fill-rule="evenodd"/>
	</g>
</svg>
