<svg width="72.000000" height="72.000000" viewBox="0 0 72 72" fill="none" xmlns="http://www.w3.org/2000/svg" xmlns:xlink="http://www.w3.org/1999/xlink">
	<desc>
			Created with Pixso.
	</desc>
	<defs>
		<clipPath id="clip117_92">
			<rect id="10#云数据库-RDS-for-PostgreSQL" width="72.000000" height="72.000000" fill="white" fill-opacity="0"/>
		</clipPath>
	</defs>
	<g clip-path="url(#clip117_92)">
		<path id="矩形备份-19" d="M16 0L56 0C64.8 0 72 7.19 72 16L72 56C72 64.8 64.8 72 56 72L16 72C7.19 72 0 64.8 0 56L0 16C0 7.19 7.19 0 16 0Z" fill="#00ABED" fill-opacity="1.000000" fill-rule="evenodd"/>
		<path id="形状结合" d="M36 10.63C37.37 10.63 38.63 10.98 39.78 11.55L55.24 20.54C57.3 21.69 58.91 24.58 58.91 27L58.91 44.99C58.91 47.41 57.31 50.18 55.24 51.45L39.78 60.44C38.63 61.02 37.37 61.36 36 61.36C34.63 61.36 33.25 61.01 32.22 60.44L16.76 51.45C14.7 50.18 13.09 47.41 13.09 44.99L13.09 27C13.09 24.58 14.69 21.7 16.76 20.54L32.22 11.55C33.37 10.97 34.63 10.63 36 10.63ZM39.87 24.4C38.12 23.53 34.85 21.9 32.56 24.07C32 24.51 31.69 25.7 31.69 27.12L30.82 27.12C25.47 27.12 20.89 30.49 20.89 35.28C20.78 35.93 20.78 36.59 20.78 37.24C20.67 39.52 20.67 41.7 18.6 42.9C18.38 43.01 18.27 43.34 18.38 43.66C18.49 43.88 18.7 43.99 18.82 43.99C18.93 43.99 19.04 43.99 19.04 43.88C20.9 42.9 21.44 41.27 21.66 39.53C21.88 40.29 22.21 41.05 22.64 41.6C22.79 41.8 22.83 42.4 22.83 43.11L22.83 43.55L22.83 44.11C22.83 44.67 22.82 45.22 22.86 45.63C22.97 47.48 22.97 47.81 23.19 48.13C23.63 48.57 24.83 48.78 25.92 48.78C26.79 48.78 27.67 48.67 27.99 48.45C28.64 48.12 28.64 46.82 28.54 44.21C28.54 43.77 28.43 43.12 28.43 42.8L28.61 42.86L29.01 42.95C29.07 42.97 29.14 42.99 29.19 43.01C29.95 43.23 30.83 43.55 31.81 43.55C33.12 43.55 35.08 43.44 36.29 43.11C36.29 43.44 36.29 43.76 36.18 44.09C35.96 46.16 35.85 47.68 36.5 48.33C36.84 48.66 37.49 48.98 38.58 48.98C39.23 48.98 40.33 48.76 40.75 48.44C41.09 48.11 41.2 47.24 41.63 42.78C41.74 41.91 41.74 41.26 41.85 41.04C42.07 40.06 42.29 39.95 42.83 39.95C42.88 40.09 42.95 40.22 43.01 40.36L43.41 41.18L43.59 41.59C44.14 42.79 44.57 44.2 44.14 44.85C43.92 45.18 43.59 45.29 42.94 45.29C42.28 45.29 41.85 45.83 41.85 46.6C41.85 47.37 42.18 48.23 42.83 48.34L43.59 48.34C45.01 48.34 46.1 47.9 46.86 47.14C47.52 46.6 47.84 45.83 48.17 44.96C48.61 45.07 49.15 45.07 49.48 45.07C51.01 45.07 52.21 44.53 52.32 44.53C52.65 44.42 52.76 44.09 52.65 43.77C52.54 43.44 52.43 43.12 52.1 43.23C52.1 43.23 50.46 43.88 48.61 43.56C48.94 41.93 48.83 40.19 48.83 38.88L48.83 38.59C48.83 38.16 48.81 37.78 48.72 37.69C49.7 36.28 50.36 31.81 48.61 28.55C47.63 26.7 45.44 24.52 40.75 24.85C40.63 24.83 40.2 24.62 39.87 24.4ZM45.5 33.99C46.33 33.99 47 34.66 47 35.49C47 36.32 46.33 36.99 45.5 36.99C44.67 36.99 44 36.32 44 35.49C44 34.66 44.67 33.99 45.5 33.99Z" fill="#FFFFFF" fill-opacity="1.000000" fill-rule="evenodd"/>
	</g>
</svg>
