<svg width="72.000000" height="72.000000" viewBox="0 0 72 72" fill="none" xmlns="http://www.w3.org/2000/svg" xmlns:xlink="http://www.w3.org/1999/xlink">
	<desc>
			Created with Pixso.
	</desc>
	<defs>
		<clipPath id="clip117_82">
			<rect id="12#数据复制服务-DRS" width="72.000000" height="72.000000" fill="white" fill-opacity="0"/>
		</clipPath>
	</defs>
	<g clip-path="url(#clip117_82)">
		<path id="矩形备份-19" d="M16 0L56 0C64.8 0 72 7.19 72 16L72 56C72 64.8 64.8 72 56 72L16 72C7.19 72 0 64.8 0 56L0 16C0 7.19 7.19 0 16 0Z" fill="#1476FF" fill-opacity="1.000000" fill-rule="evenodd"/>
		<path id="形状结合" d="M30.39 18.7L35.39 21.6L37.1 22.6L41.8 25.2L42 25.3C43.5 26.2 44.5 27.9 44.39 29.7L44.2 43.5C44.3 44.1 45.1 44.5 45.5 44L50.7 37.8C50.89 37.5 50.89 37 50.6 36.8C50.3 36.6 49.8 36.6 49.6 36.9L45.7 41.5L46 29.8L46 29.5C45.89 27.2 44.7 25 42.6 23.9L37.89 21.3L37.5 21.1L41.6 18.7C43 17.9 44.7 17.9 46.1 18.7L57.7 25.4C59.1 26.2 60 27.7 60 29.3L60 42.7C60 44.3 59.1 45.8 57.7 46.6L46.1 53.3C44.7 54.1 43 54.1 41.6 53.3L36 50.1L31.5 47.5L31.3 47.4C29.8 46.5 28.89 44.8 28.89 43.1L28.89 29.2L28.89 29.1C28.8 28.5 28 28.2 27.6 28.7L22.7 34.8L22.6 34.9C22.39 35.2 22.5 35.6 22.8 35.8L22.89 35.9C23.2 36.1 23.6 36 23.8 35.7L27.39 31.2L27.39 43L27.39 43.3C27.5 45.6 28.7 47.6 30.7 48.8L34.5 51L30.39 53.4C29 54.2 27.3 54.2 25.89 53.4L14.3 46.7C12.89 45.9 12 44.4 12 42.8L12 29.3C12 27.7 12.89 26.2 14.3 25.4L25.89 18.7C27.3 17.9 29 17.9 30.39 18.7Z" fill="#FFFFFF" fill-opacity="1.000000" fill-rule="evenodd"/>
	</g>
</svg>
