<svg width="72.000000" height="72.000000" viewBox="0 0 72 72" fill="none" xmlns="http://www.w3.org/2000/svg" xmlns:xlink="http://www.w3.org/1999/xlink">
	<desc>
			Created with Pixso.
	</desc>
	<defs>
		<clipPath id="clip117_93">
			<rect id="13#云数据库-RDS-for-SQLServer" width="72.000000" height="72.000000" fill="white" fill-opacity="0"/>
		</clipPath>
	</defs>
	<g clip-path="url(#clip117_93)">
		<path id="矩形备份-19" d="M16 0L56 0C64.8 0 72 7.19 72 16L72 56C72 64.8 64.8 72 56 72L16 72C7.19 72 0 64.8 0 56L0 16C0 7.19 7.19 0 16 0Z" fill="#25C251" fill-opacity="1.000000" fill-rule="evenodd"/>
		<path id="Fill-1" d="M54.99 31.87C54.18 31.87 53.36 31.71 52.55 31.71C50.11 31.71 47.83 32.04 45.56 32.69C46.86 30.72 48.49 27.28 48.81 25.15C53.85 27.61 57.43 30.73 57.27 31.55C57.27 31.71 57.11 31.88 55.97 31.88L54.99 31.87ZM38.72 29.08C41.48 28.26 44.41 26.95 47.18 25.31C46.86 27.11 44.9 31.21 43.76 32.69C42.95 32.03 42.13 31.38 41.16 30.72C40.35 30.23 39.53 29.57 38.72 29.08ZM28.15 40.23C32.7 37.11 35.63 33.83 37.1 29.9C38.24 30.72 39.21 31.38 40.19 32.2C41 32.69 41.65 33.18 42.47 33.68C38.57 34.99 34.83 36.8 31.41 38.6C30.26 39.08 29.29 39.74 28.15 40.23ZM38.56 36.95C38.72 37.77 38.89 39.25 39.05 40.89C37.75 41.71 36.12 42.53 34.33 43.19C34.82 41.39 35.14 39.91 34.98 38.6C36.12 37.93 37.42 37.44 38.56 36.95ZM30.26 52.53C31.56 50.23 32.7 47.61 33.68 45.15C35.79 44.33 37.75 43.51 39.21 42.53C39.54 44.66 39.54 46.96 39.37 49.25C36.93 50.72 33.68 51.71 30.26 52.53ZM34.65 58.27C31.56 58.43 28.79 58.43 26.68 58.11C27.49 57.13 28.47 55.81 29.28 54.5C32.7 53.84 36.44 52.7 39.36 51.22C39.03 53.35 38.38 55.16 37.57 56.47C36.77 57.61 35.79 58.1 34.65 58.27ZM20.02 55.64C21.65 55.48 24.25 55.31 27.18 54.82C26.37 55.97 25.72 56.95 24.9 57.61C22.78 57.12 21.15 56.46 20.02 55.64ZM18.06 54.17L17.9 54.01C16.44 52.53 15.95 51.06 15.79 50.4C17.25 50.24 19.86 49.58 23.11 48.76C21.81 50.4 20.18 52.04 18.39 53.68L18.06 54.17ZM20.34 44.99C21.97 44.66 23.59 44.17 25.22 43.35C25.22 44.5 24.89 45.65 24.41 46.63C21.32 47.45 18.39 48.27 16.77 48.6C17.26 47.62 18.4 46.3 20.02 44.99L20.34 44.99ZM28.31 53.02C25.22 53.68 22.45 54 20.5 54.17C22.45 52.2 24.24 50.23 25.38 48.1C27.49 47.28 29.61 46.62 31.72 45.97C30.75 48.26 29.61 50.72 28.31 53.02ZM32.05 39.9C32.54 39.74 33.03 39.41 33.35 39.24C33.35 40.55 33.02 42.03 32.37 43.83C30.42 44.65 28.3 45.31 26.19 45.96C26.68 44.98 26.84 43.83 26.84 42.52C28.64 41.71 30.26 40.89 32.05 39.9ZM35.47 29.9C33.84 33.67 30.59 36.79 25.71 39.9C27.99 37.44 30.43 34.16 30.91 30.72C31.89 30.56 33.52 30.39 35.47 29.9ZM30.91 29.08C30.75 27.93 30.42 26.78 29.77 25.8C31.56 26.62 33.35 27.44 34.81 28.42C33.19 28.75 31.73 29.08 30.91 29.08ZM24.9 21.21C24.74 21.05 24.57 21.05 24.41 20.88C24.25 20.72 23.92 20.55 23.76 20.39L23.6 20.23L23.44 20.07C23.77 20.07 24.09 19.91 25.07 19.91C27.51 19.91 31.9 20.57 36.94 21.55C37.1 23.68 36.94 25.65 36.45 27.45C33.85 25.97 31.08 24.33 27.34 23.02C26.68 22.36 25.87 21.7 24.9 21.21ZM21.64 17.44C23.43 15.64 25.06 14.49 29.28 13.67C30.74 13.34 32.53 16.46 33.51 19.08C30.26 18.42 27 18.1 24.89 18.1C23.75 18.1 22.78 18.26 22.12 18.59C21.81 18.09 21.64 17.6 21.64 17.44ZM41.49 22.36C43.12 22.69 44.74 23.34 46.21 23.84C43.61 25.48 40.52 26.63 37.91 27.45C38.23 25.81 38.4 23.84 38.4 21.71C39.37 21.86 40.51 22.19 41.49 22.36ZM35.31 19.4C34.82 17.92 32.38 11.37 28.97 12.02C24.9 12.84 22.79 13.82 20.51 16.28C20.18 16.61 20.02 16.94 20.02 17.59C20.18 18.74 21.16 20.05 22.46 21.2C22.95 21.69 23.44 22.02 24.09 22.35C27.34 24.48 29.13 26.78 29.29 29.4C29.62 34.48 23.6 39.57 20.83 41.86C20.02 42.52 19.53 43.01 19.2 43.34C16.11 45.96 14.81 48.1 14.16 49.08C13.83 49.74 14.32 51.54 15.3 53.18C16.93 55.8 21.16 59.9 31.57 59.9C32.55 59.9 33.68 60.06 34.82 59.9C39.37 59.57 41.65 54.32 41.16 44.49C41 40.06 40.51 36.29 40.02 36.29L40.02 36.13C44.74 34.16 49.62 32.85 54.98 33.34C58.23 33.67 58.88 32.52 59.05 31.7C59.37 28.58 49.29 22.68 41.81 20.88C39.86 20.39 37.58 19.9 35.31 19.4Z" fill="#FFFFFF" fill-opacity="1.000000" fill-rule="evenodd"/>
	</g>
</svg>
