<svg width="72.000000" height="72.000000" viewBox="0 0 72 72" fill="none" xmlns="http://www.w3.org/2000/svg" xmlns:xlink="http://www.w3.org/1999/xlink">
	<desc>
			Created with Pixso.
	</desc>
	<defs>
		<clipPath id="clip117_79">
			<rect id="14#数据管理服务-DAS" width="72.000000" height="72.000000" fill="white" fill-opacity="0"/>
		</clipPath>
	</defs>
	<g clip-path="url(#clip117_79)">
		<path id="矩形备份-19" d="M16 0L56 0C64.8 0 72 7.19 72 16L72 56C72 64.8 64.8 72 56 72L16 72C7.19 72 0 64.8 0 56L0 16C0 7.19 7.19 0 16 0Z" fill="#F85835" fill-opacity="1.000000" fill-rule="evenodd"/>
		<path id="形状结合" d="M36 10.6C37.4 10.6 38.6 10.9 39.8 11.5L55.3 20.5C57.4 21.7 59 24.5 59 27L59 45C59 47.4 57.4 50.2 55.3 51.5L39.8 60.5C39.7 60.5 39.6 60.6 39.6 60.6L39.6 44.9C43.8 43.5 46.7 39.7 46.7 35.5C46.7 31.8 44.7 28.5 41.4 26.8C41 26.6 40.6 26.6 40.2 26.8C39.8 27 39.6 27.4 39.6 27.9L39.6 33.8C39.6 34.7 38.8 35.5 37.8 35.5L34.3 35.5C33.4 35.5 32.5 34.8 32.5 33.8L32.5 27.9C32.5 27.4 32.3 27.1 31.9 26.8C31.5 26.5 31.1 26.6 30.7 26.8C27.4 28.7 25.4 32 25.4 35.5C25.4 39.7 28.2 43.5 32.5 44.9L32.5 60.6L32.3 60.5L16.79 51.5C14.7 50.2 13.1 47.5 13.1 45L13.1 27C13.1 24.6 14.7 21.7 16.79 20.5L32.3 11.5C33.4 11 34.6 10.6 36 10.6Z" fill="#FFFFFF" fill-opacity="1.000000" fill-rule="evenodd"/>
	</g>
</svg>
