<svg width="72.000000" height="72.000000" viewBox="0 0 72 72" fill="none" xmlns="http://www.w3.org/2000/svg" xmlns:xlink="http://www.w3.org/1999/xlink">
	<desc>
			Created with Pixso.
	</desc>
	<defs>
		<clipPath id="clip117_95">
			<rect id="15#数据库和应用迁移-UGO" width="72.000000" height="72.000000" fill="white" fill-opacity="0"/>
		</clipPath>
	</defs>
	<g clip-path="url(#clip117_95)">
		<path id="矩形备份-19" d="M16 0L56 0C64.8 0 72 7.19 72 16L72 56C72 64.8 64.8 72 56 72L16 72C7.19 72 0 64.8 0 56L0 16C0 7.19 7.19 0 16 0Z" fill="#25C251" fill-opacity="1.000000" fill-rule="evenodd"/>
		<path id="形状结合" d="M36 10.59C37.39 10.59 38.6 10.89 39.8 11.49L55.3 20.49C57.39 21.7 59 24.49 59 26.99L59 44.99C59 47.39 57.39 50.2 55.3 51.49L39.8 60.49C38.7 61.09 37.39 61.39 36 61.39C34.6 61.39 33.3 61.09 32.2 60.49L16.7 51.49C14.6 50.2 13 47.49 13 44.99L13 26.99C13 24.59 14.6 21.7 16.7 20.49L32.2 11.49C33.39 10.99 34.6 10.59 36 10.59ZM48.3 30.59C45.8 32.7 41.2 34.09 36 34.09C30.8 34.09 26.2 32.79 23.7 30.79L23.7 33.49C23.7 33.89 24.5 34.39 25.6 34.99C26.89 35.79 28.7 36.39 30.89 36.79C31.39 36.89 31.8 37.39 31.7 37.99C31.6 38.49 31.1 38.89 30.5 38.79L30.2 38.7C27.5 38.2 25.2 37.39 23.7 36.29L23.7 39.09C23.8 39.49 24.6 40.09 25.6 40.7C26.89 41.49 28.7 42.09 30.89 42.49C31.39 42.59 31.8 43.09 31.7 43.7C31.6 44.2 31.1 44.59 30.5 44.49C27.7 43.99 25.2 43.09 23.6 41.99L23.6 44.09C23.6 46.29 28.2 49.09 35.89 49.09C43.39 49.09 47.89 46.09 48.2 44.2L48.3 30.59ZM42 35.39C42.8 35.39 43.5 36.09 43.5 36.99L43.5 38.7C43.5 39.29 43.2 39.79 42.7 40.09C43.1 40.49 43.5 40.99 43.8 41.59L45.1 41.59C45.89 41.59 46.6 42.29 46.6 43.2L46.6 44.89C46.6 45.79 45.89 46.49 45.1 46.49L43.39 46.49C42.6 46.49 41.89 45.79 41.89 44.89L41.89 43.2C41.89 42.49 42.3 41.99 42.89 41.7C42.6 41.2 42.2 40.79 41.8 40.39L40.5 40.39C40.1 40.79 39.7 41.29 39.39 41.7C40 41.89 40.39 42.49 40.39 43.2L40.39 44.89C40.39 45.79 39.7 46.49 38.89 46.49L37.2 46.49C36.39 46.49 35.7 45.79 35.7 44.89L35.7 43.2C35.7 42.29 36.39 41.59 37.2 41.59L38.5 41.59C38.8 41.09 39.2 40.59 39.6 40.09C39.1 39.79 38.8 39.29 38.8 38.7L38.8 36.99C38.8 36.09 39.5 35.39 40.3 35.39L42 35.39ZM35.89 22.09C28.2 22.09 23.6 24.99 23.6 27.09C23.6 29.2 28.2 32.09 35.89 32.09C43.6 32.09 48.1 28.99 48.2 27.09C48.3 25.2 43.6 22.09 35.89 22.09Z" fill="#FFFFFF" fill-opacity="1.000000" fill-rule="evenodd"/>
	</g>
</svg>
