<svg width="72.000000" height="72.000000" viewBox="0 0 72 72" fill="none" xmlns="http://www.w3.org/2000/svg" xmlns:xlink="http://www.w3.org/1999/xlink">
	<desc>
			Created with Pixso.
	</desc>
	<defs>
		<clipPath id="clip117_90">
			<rect id="16#云数据库-RDS-for-MariaDB" width="72.000000" height="72.000000" fill="white" fill-opacity="0"/>
		</clipPath>
	</defs>
	<g clip-path="url(#clip117_90)">
		<path id="矩形备份-19" d="M16 0L56 0C64.8 0 72 7.19 72 16L72 56C72 64.8 64.8 72 56 72L16 72C7.19 72 0 64.8 0 56L0 16C0 7.19 7.19 0 16 0Z" fill="#1476FF" fill-opacity="1.000000" fill-rule="evenodd"/>
		<path id="形状结合" d="M35.89 11.04C37.27 11.04 38.53 11.39 39.67 11.96L55.13 20.95C57.2 22.1 58.81 24.99 58.81 27.41L58.81 45.4C58.81 47.82 57.21 50.59 55.13 51.86L39.67 60.84C38.53 61.41 37.27 61.76 35.89 61.76C34.53 61.76 33.14 61.41 32.11 60.84L16.65 51.85C14.59 50.58 12.99 47.82 12.99 45.4L12.99 27.41C12.99 24.99 14.59 22.11 16.65 20.95L32.11 11.96C33.25 11.39 34.52 11.04 35.89 11.04ZM26.74 44.29L26.88 44.18C27.34 43.89 27.7 43.68 27.99 43.57L28.11 43.52L28.26 43.46C29.52 42.93 31.34 42.95 33.88 43.32C34.75 43.45 35.55 43.22 36.25 42.8L36.36 42.73L36.25 42.8C35.73 43.56 35.12 44.32 34.62 44.73L34.47 44.86C34.06 45.16 33.62 45.67 33.54 46.11C33.35 47.08 34.22 47.25 35.53 46.85C38.62 45.91 40.73 44.08 41.29 42.62L41.37 42.37L41.46 42.52C41.82 43.12 42.48 43.73 43.25 43.99C43.96 44.23 44.68 44.21 45.31 44C45.58 43.91 45.81 43.78 45.97 43.64C46.27 43.38 46.4 42.99 46.07 42.65C45.25 41.95 45.06 40.84 45.22 39.71L45.26 39.57L45.43 39L45.56 38.56L45.73 37.9L46.07 36.49L46.39 35.07L46.95 32.61C47.23 31.36 48.32 30 49.62 29.24C50.37 28.8 50.77 28.09 50.9 27.24C50.99 26.73 50.97 26.17 50.9 25.93C50.62 24.88 49.88 24.84 48.7 25.4C48.63 25.42 48.57 25.45 48.5 25.47L48.37 25.5C48.31 25.52 48.24 25.54 48.16 25.55L47.93 25.59L47.65 25.63L46.67 25.73L46.36 25.77C46.31 25.78 46.26 25.78 46.21 25.79L45.91 25.84L45.61 25.9C43.82 26.43 42.86 27.23 41.82 28.8L41.46 29.38L40.99 30.14C40.87 30.32 40.77 30.49 40.66 30.64L40.37 31.09C40.32 31.16 40.27 31.23 40.22 31.3C39.02 32.99 38.08 33.93 37.12 34.47C36.68 34.71 36.25 34.88 35.65 35.04L35.16 35.16L33.62 35.5C33.57 35.52 33.5 35.54 33.45 35.55C32.84 35.7 32.27 35.85 31.67 36.04C27.97 37.24 25.89 39.04 25.04 41.09C24.81 41.64 23.37 41.95 21.84 42.01L21.46 42.04L21.29 42.05C20.21 42.18 19.34 42.51 19.03 43.29C18.96 43.43 18.95 43.66 19.04 43.83L19.12 43.95C19.24 44.1 19.37 44.21 19.54 44.29L19.67 44.35C19.1 44.93 19.33 45.86 20.27 46.05C22.38 46.47 24.04 46.05 25.65 45.03L26.61 44.37L26.74 44.29ZM49 27.18L48.97 27.39C48.92 27.47 48.87 27.57 48.84 27.67C48.68 28.06 48.6 28.46 48.63 28.86C48.6 28.43 48.68 28.07 48.84 27.67C48.86 27.6 48.81 27.49 48.85 27.41L49 27.18ZM48.83 27.05L49 27.18C48.91 27.29 48.7 27.41 48.57 27.66C48.4 27.99 48.3 28.34 48.25 28.68L48.23 28.9C48.25 28.45 48.37 28.07 48.57 27.66C48.66 27.46 48.75 27.16 48.83 27.05ZM48.68 26.91L48.83 27.05C48.71 27.17 48.46 27.33 48.27 27.62C48.06 27.93 47.9 28.27 47.84 28.58L47.8 28.77C47.86 28.38 48.02 28.02 48.27 27.62C48.33 27.52 48.31 27.37 48.36 27.29L48.54 27.07C48.57 27.04 48.65 26.93 48.68 26.91ZM48.54 26.66L48.48 26.91C48.32 27.1 48.1 27.39 47.95 27.6C47.84 27.77 47.73 27.92 47.63 28.08C47.52 28.28 47.42 28.46 47.36 28.63L47.33 28.75C47.38 28.55 47.49 28.34 47.63 28.08C47.73 27.92 47.84 27.76 47.95 27.6L48.09 27.24L48.48 26.91L48.54 26.66ZM46.29 27.51C46.86 27.41 46.74 27.77 46.63 28.04C46.59 28.17 46.36 28.4 46.23 28.46C45.98 28.57 45.62 28.7 45.36 28.43C45.32 28.4 45.26 28.2 45.36 28.04C45.48 27.89 45.77 27.59 46.29 27.51ZM49.89 25.57L50.27 25.74L50.47 26.66L50.25 27.25C48.52 27.29 48.73 26.09 48.73 26.09L49.26 25.74L49.89 25.57Z" fill="#FFFFFF" fill-opacity="1.000000" fill-rule="evenodd"/>
	</g>
</svg>
