<svg width="72.000000" height="72.000000" viewBox="0 0 72 72" fill="none" xmlns="http://www.w3.org/2000/svg" xmlns:xlink="http://www.w3.org/1999/xlink">
	<desc>
			Created with Pixso.
	</desc>
	<defs>
		<clipPath id="clip117_83">
			<rect id="2#云数据库-TaurusDB" width="72.000000" height="72.000000" fill="white" fill-opacity="0"/>
		</clipPath>
	</defs>
	<g clip-path="url(#clip117_83)">
		<path id="矩形备份-19" d="M16 0L56 0C64.8 0 72 7.19 72 16L72 56C72 64.8 64.8 72 56 72L16 72C7.19 72 0 64.8 0 56L0 16C0 7.19 7.19 0 16 0Z" fill="#F85835" fill-opacity="1.000000" fill-rule="evenodd"/>
		<path id="减去顶层" d="M55.13 20.94L39.67 11.95C38.53 11.37 37.27 11.03 35.89 11.03C34.53 11.03 33.27 11.38 32.11 11.95L16.65 20.94C14.6 22.09 12.99 24.97 12.99 27.4L12.99 45.39C12.99 47.81 14.59 50.58 16.65 51.85L32.11 60.84C33.14 61.42 34.53 61.76 35.89 61.76C37.27 61.76 38.53 61.41 39.67 60.84L55.13 51.85C57.2 50.58 58.81 47.81 58.81 45.39L58.81 27.4C58.81 24.98 57.21 22.09 55.13 20.94ZM24.93 28.22L36.83 21.26C37.8 20.69 39 21.01 39.57 21.98C40.13 22.95 39.82 24.15 38.85 24.72L35.61 26.62L43.11 30.97C44.09 31.53 44.4 32.74 43.85 33.71C43.29 34.68 42.08 35 41.11 34.44L31.63 28.95L26.97 31.68C26 32.25 24.8 31.93 24.23 30.96C23.65 29.99 23.98 28.79 24.93 28.22ZM50.84 36.98L38.04 44.28C37.38 44.65 36.68 44.84 35.93 44.84C35.18 44.84 34.49 44.66 33.83 44.29L20.96 36.99C19.98 36.44 19.64 35.23 20.2 34.26C20.76 33.28 21.97 32.95 22.93 33.51L35.81 40.81C35.88 40.86 35.98 40.86 36.06 40.81L48.86 33.51C49.83 32.95 51.04 33.28 51.59 34.26C52.13 35.23 51.81 36.43 50.84 36.98ZM38.04 52.36L50.84 45.06C51.81 44.5 52.13 43.3 51.59 42.33C51.03 41.36 49.83 41.03 48.86 41.58L36.06 48.88C35.98 48.93 35.89 48.93 35.81 48.88L22.93 41.58C21.96 41.03 20.76 41.36 20.2 42.33C19.65 43.31 19.99 44.51 20.96 45.06L33.83 52.36C34.48 52.73 35.17 52.92 35.93 52.91C36.67 52.92 37.37 52.74 38.04 52.36Z" fill="#FFFFFF" fill-opacity="1.000000" fill-rule="evenodd"/>
	</g>
</svg>
