<svg width="72.000000" height="72.000000" viewBox="0 0 72 72" fill="none" xmlns="http://www.w3.org/2000/svg" xmlns:xlink="http://www.w3.org/1999/xlink">
	<desc>
			Created with Pixso.
	</desc>
	<defs>
		<clipPath id="clip117_84">
			<rect id="3#云数据库-GaussDB" width="72.000000" height="72.000000" fill="white" fill-opacity="0"/>
		</clipPath>
	</defs>
	<g clip-path="url(#clip117_84)">
		<path id="矩形备份-19" d="M16 0L56 0C64.8 0 72 7.19 72 16L72 56C72 64.8 64.8 72 56 72L16 72C7.19 72 0 64.8 0 56L0 16C0 7.19 7.19 0 16 0Z" fill="#9F53E6" fill-opacity="1.000000" fill-rule="evenodd"/>
		<path id="形状结合" d="M36 10.63C37.37 10.63 38.63 10.98 39.78 11.55L55.24 20.54C57.3 21.69 58.91 24.58 58.91 27L58.91 44.99C58.91 47.41 57.31 50.18 55.24 51.45L39.78 60.44C38.63 61.02 37.37 61.36 36 61.36C34.63 61.36 33.25 61.01 32.22 60.44L16.76 51.45C14.7 50.18 13.09 47.41 13.09 44.99L13.09 27C13.09 24.58 14.69 21.7 16.76 20.54L32.22 11.55C33.37 10.97 34.63 10.63 36 10.63ZM55.04 39.03L51.7 39.03L51.7 46.99L55.22 46.99C57.07 46.99 57.99 46.23 57.99 44.72C57.97 43.8 57.53 43.14 56.68 42.76C57.3 42.43 57.63 41.88 57.65 41.11C57.55 39.86 56.75 39.17 55.24 39.05L55.04 39.03ZM46.9 38.99L44.01 38.99L44.01 46.95L46.82 46.95C49.49 47.03 50.79 45.71 50.72 42.99C50.7 40.43 49.5 39.1 47.13 39L46.9 38.99ZM40.49 41.07C39.27 41.12 38.6 41.65 38.5 42.65C38.45 43.6 39.15 44.16 40.6 44.34C41.55 44.52 42.01 44.87 41.99 45.38C41.97 46 41.5 46.32 40.6 46.34C39.78 46.37 39.25 45.94 39.06 45.07L38.27 45.3C38.57 46.43 39.34 46.98 40.59 46.95C42.04 46.92 42.78 46.39 42.8 45.33C42.82 44.43 42.16 43.87 40.81 43.64C39.79 43.46 39.29 43.13 39.31 42.64C39.38 42.1 39.78 41.82 40.5 41.79C41.18 41.79 41.6 42.12 41.75 42.79L42.57 42.56C42.37 41.59 41.67 41.09 40.49 41.07ZM35.5 41.07C34.28 41.12 33.61 41.65 33.5 42.65C33.46 43.6 34.16 44.16 35.61 44.34C36.56 44.52 37.02 44.87 37 45.38C36.98 46 36.5 46.32 35.61 46.34C34.79 46.37 34.27 45.94 34.07 45.07L33.28 45.3C33.58 46.43 34.35 46.98 35.6 46.95C37.05 46.92 37.79 46.39 37.81 45.33C37.83 44.43 37.17 43.87 35.82 43.64C34.8 43.46 34.3 43.13 34.32 42.64C34.39 42.1 34.79 41.82 35.52 41.79C36.19 41.79 36.61 42.12 36.75 42.79L37.58 42.56C37.37 41.59 36.67 41.09 35.5 41.07ZM18.56 39.03C16.29 39.13 15.1 40.49 15 43.11C15.12 45.55 16.36 46.83 18.71 46.96C20.14 46.96 21.17 46.59 21.81 45.84L21.93 45.69L21.93 42.88L18.71 42.88L18.71 43.61L21.11 43.61L21.11 45.34C20.61 45.96 19.79 46.26 18.67 46.26C16.95 46.11 16.02 45.04 15.9 43.07C16.04 41.04 16.92 39.95 18.52 39.8C19.67 39.82 20.46 40.34 20.88 41.34L20.95 41.53L21.89 41.3C21.35 39.81 20.23 39.05 18.56 39.03ZM22.74 42.54L22.69 42.72L23.48 42.95C23.6 42.13 24.14 41.74 25.09 41.8C26.06 41.75 26.51 42.24 26.44 43.26C26.22 43.44 25.58 43.58 24.53 43.68C23.23 43.81 22.57 44.41 22.54 45.49C22.61 46.41 23.23 46.9 24.38 46.95C25.35 46.95 26.07 46.64 26.52 46.03C26.52 46.29 26.58 46.51 26.7 46.69L26.78 46.8L27.57 46.8C27.37 46.57 27.27 46.2 27.27 45.69L27.27 45.49L27.27 43.22C27.32 41.76 26.61 41.04 25.13 41.07C23.85 41.02 23.06 41.51 22.74 42.54ZM29 41.22L28.21 41.22L28.21 45.04C28.24 46.34 28.86 46.98 30.08 46.95C30.81 46.93 31.38 46.67 31.77 46.17L31.87 46.03L31.87 46.8L32.66 46.8L32.66 41.22L31.87 41.22L31.87 44.76C31.77 45.71 31.23 46.23 30.26 46.34C29.48 46.32 29.06 45.86 28.99 44.97L29 44.8L29 41.22ZM26.44 43.91L26.44 44.64C26.34 45.64 25.73 46.18 24.6 46.26C23.8 46.26 23.39 45.98 23.36 45.41C23.34 44.82 23.82 44.46 24.82 44.33C25.72 44.26 26.29 44.09 26.44 43.91ZM46.86 40.18C48.53 40.21 49.38 41.15 49.41 43.03C49.43 44.95 48.57 45.9 46.82 45.88L46.99 45.88L45.28 45.88L45.28 40.19L46.86 40.18ZM55 43.45C56.07 43.48 56.64 43.87 56.69 44.64C56.69 45.46 56.17 45.87 55.12 45.87L52.95 45.87L52.95 43.45L55 43.45ZM54.89 40.18C55.81 40.21 56.3 40.54 56.35 41.18C56.33 41.9 55.83 42.27 54.85 42.3L52.94 42.3L52.94 40.18L54.89 40.18ZM28.51 31.12C28.03 30.85 27.42 31.02 27.15 31.5C26.88 31.98 27.05 32.59 27.53 32.86L34.42 36.73C35.41 37.29 36.62 37.28 37.61 36.73L44.46 32.87C44.94 32.6 45.11 31.99 44.84 31.51C44.57 31.03 43.96 30.86 43.48 31.13L36.62 34.99C36.24 35.2 35.77 35.21 35.39 34.99L28.51 31.12ZM28.51 27.12C28.03 26.85 27.42 27.02 27.15 27.5C26.88 27.98 27.05 28.59 27.53 28.86L34.42 32.73C35.41 33.29 36.62 33.28 37.61 32.73L44.46 28.87C44.94 28.6 45.11 27.99 44.84 27.51C44.57 27.03 43.96 26.86 43.48 27.13L36.62 30.99C36.24 31.2 35.77 31.21 35.39 30.99L28.51 27.12ZM36.71 18.44C36.41 17.98 35.79 17.85 35.33 18.15L29.02 22.28C28.04 22.92 27.76 24.24 28.41 25.22C28.6 25.51 28.86 25.75 29.16 25.92L34.44 28.84C35.42 29.38 36.61 29.38 37.59 28.84L42.75 25.97C43.78 25.4 44.14 24.11 43.57 23.08C43.39 22.75 43.12 22.48 42.8 22.29L39.56 20.35L39.04 20.04L38.52 20.36L35.46 22.25L34.97 22.55L34.99 23.13L35.02 24.18C35.04 24.73 35.49 25.17 36.05 25.15L36.17 25.14C36.67 25.07 37.04 24.64 37.03 24.12L37 23.64L39.06 22.37L41.78 24C41.81 24.06 41.84 24.19 41.78 24.22L36.62 27.09C36.24 27.3 35.78 27.3 35.41 27.09L30.13 24.17C30.09 24.11 30.07 23.99 30.13 23.96L36.44 19.83C36.88 19.52 37 18.9 36.71 18.44Z" fill="#FFFFFF" fill-opacity="1.000000" fill-rule="evenodd"/>
	</g>
</svg>
