<svg width="72.000000" height="72.000000" viewBox="0 0 72 72" fill="none" xmlns="http://www.w3.org/2000/svg" xmlns:xlink="http://www.w3.org/1999/xlink">
	<desc>
			Created with Pixso.
	</desc>
	<defs>
		<clipPath id="clip117_81">
			<rect id="4#文档数据库服务-DDS" width="72.000000" height="72.000000" fill="white" fill-opacity="0"/>
		</clipPath>
	</defs>
	<g clip-path="url(#clip117_81)">
		<path id="矩形备份-19" d="M16 0L56 0C64.8 0 72 7.19 72 16L72 56C72 64.8 64.8 72 56 72L16 72C7.19 72 0 64.8 0 56L0 16C0 7.19 7.19 0 16 0Z" fill="#F85835" fill-opacity="1.000000" fill-rule="evenodd"/>
		<path id="形状结合" d="M46.3 15.5C53.89 19.2 59 27 59 36.1C59.2 48.2 49.89 58.2 37.89 59C30.3 59 21 50.89 20.8 41C20.8 34.39 23.8 26.39 30.5 24.7C31.5 24.5 32.6 24.3 33.5 24.5C29.89 27.2 27.8 31.1 27.8 35.7C27.8 39.89 29.89 44.2 33.1 46.89C35.2 48.6 37.7 49.39 40.1 49.39C40.89 49.39 41.6 49.39 42.2 49.2L42.39 49.2C50 46.7 53.39 38.39 53.39 31.2C53.39 25.5 51.1 20 46.89 16.2C46.8 16 46.5 15.8 46.3 15.5ZM35.2 13C39.2 13 43 14.5 46 17.5C49.6 21.1 51.89 26 51.89 31.1C51.89 37.5 48.89 45.1 42.2 47.2C41.1 47.39 39.89 47.39 38.8 47.2C43 43.8 44.89 40.39 44.89 36C44.89 31.6 42.8 27.5 39.6 24.8C36.89 22.5 33.5 21.8 30.3 22.5C22.7 24.39 19.1 33.3 19.1 40.5C19.1 47.1 23.3 53.8 28.8 57.3C19.7 54.8 13 46.3 13 36.1C13 23.6 22.89 13.6 35.2 13ZM36.2 25.1C36.8 25.7 37.5 26 38.3 26.6C41.2 28.89 42.89 32.5 42.89 36.3C42.89 40.3 41 43.5 36.6 46.7C35.8 46.3 35.1 45.89 34.5 45.39C31.6 43.1 29.89 39.5 29.89 35.7C29.89 31.2 32.2 27.39 36.2 25.1Z" fill="#FFFFFF" fill-opacity="1.000000" fill-rule="evenodd"/>
	</g>
</svg>
