<svg width="72.000000" height="72.000000" viewBox="0 0 72 72" fill="none" xmlns="http://www.w3.org/2000/svg" xmlns:xlink="http://www.w3.org/1999/xlink">
	<desc>
			Created with Pixso.
	</desc>
	<defs>
		<clipPath id="clip117_80">
			<rect id="8#分布式数据库中间件-DDM" width="72.000000" height="72.000000" fill="white" fill-opacity="0"/>
		</clipPath>
	</defs>
	<g clip-path="url(#clip117_80)">
		<path id="矩形备份-19" d="M16 0L56 0C64.8 0 72 7.19 72 16L72 56C72 64.8 64.8 72 56 72L16 72C7.19 72 0 64.8 0 56L0 16C0 7.19 7.19 0 16 0Z" fill="#9F53E6" fill-opacity="1.000000" fill-rule="evenodd"/>
		<path id="形状结合" d="M36 10.63C37.37 10.63 38.63 10.98 39.78 11.55L55.24 20.54C57.3 21.69 58.91 24.58 58.91 27L58.91 44.99C58.91 47.41 57.31 50.18 55.24 51.45L39.78 60.44C38.63 61.02 37.37 61.36 36 61.36C34.63 61.36 33.25 61.01 32.22 60.44L16.76 51.45C14.7 50.18 13.09 47.41 13.09 44.99L13.09 27C13.09 24.58 14.69 21.7 16.76 20.54L32.22 11.55C33.37 10.97 34.63 10.63 36 10.63ZM37.7 40.3L34.3 40.3C32.84 40.3 31.75 41.52 31.75 42.85L31.75 46.37C31.75 47.83 32.84 48.92 34.3 48.92L37.7 48.92C39.16 48.92 40.25 47.7 40.25 46.37L40.25 42.85C40.25 41.51 39.16 40.3 37.7 40.3ZM50.46 40.3L47.06 40.3C45.6 40.3 44.51 41.52 44.51 42.85L44.51 46.37C44.51 47.83 45.6 48.92 47.06 48.92L50.46 48.92C51.92 48.92 53.01 47.7 53.01 46.37L53.01 42.85C53.01 41.51 51.92 40.3 50.46 40.3ZM24.94 40.3L21.54 40.3C20.08 40.3 18.99 41.52 18.99 42.85L18.99 46.37C18.99 47.83 20.08 48.92 21.54 48.92L24.94 48.92C26.4 48.92 27.49 47.7 27.49 46.37L27.49 42.85C27.49 41.51 26.4 40.3 24.94 40.3ZM36 30.81C35.5 30.81 35.14 31.16 35.14 31.67L35.14 38.6C35.14 39.1 35.49 39.46 36 39.46C36.5 39.46 36.86 39.11 36.86 38.6L36.86 31.67C36.86 31.17 36.5 30.81 36 30.81ZM31.8 29.79C31.58 29.57 31.1 29.46 30.78 29.62C29.25 30.48 27.81 31.62 26.47 32.97C26.07 33.38 25.62 33.87 25.18 34.4L24.92 34.72C23.48 36.47 22.17 38.34 22.57 37.94C22.36 38.37 22.42 39.04 22.91 39.2C22.9 39.2 23.01 39.22 23.03 39.23L23.25 39.33C23.59 39.33 23.79 39.17 23.96 38.83C23.99 38.77 24.07 38.63 24.19 38.44C24.39 38.12 24.62 37.77 24.89 37.38C25.65 36.28 26.54 35.19 27.54 34.17C28.79 32.89 30.12 31.82 31.52 31.03C31.88 30.85 31.95 30.26 31.8 29.79ZM41.22 29.63C40.87 29.45 40.39 29.59 40.07 29.92C39.84 30.35 40 30.99 40.38 31.17C42.42 32.32 44.29 34.02 45.9 36.01C45.98 36.11 46.07 36.22 46.15 36.32L46.39 36.64C47.2 37.71 47.89 38.79 47.89 38.85L47.89 38.99L48.03 39.06C48.09 39.09 48.29 39.2 48.33 39.23C48.47 39.3 48.59 39.33 48.75 39.33C48.95 39.32 49.17 39.27 49.22 39.12C49.47 38.86 49.61 38.31 49.46 38C49.18 37.43 48.3 36.09 47.23 34.78C45.51 32.67 43.5 30.87 41.22 29.63ZM36.49 18.91C36.25 18.79 35.75 18.79 35.52 18.91L31.63 21.1C31.27 21.22 31.14 21.71 31.14 21.95L31.14 26.45C31.14 26.81 31.38 27.18 31.63 27.3L35.52 29.49C35.62 29.59 35.81 29.61 35.94 29.61L36.12 29.61C36.29 29.61 36.39 29.59 36.49 29.49L40.38 27.3C40.74 27.18 40.87 26.69 40.87 26.45L40.87 21.95C40.87 21.59 40.63 21.22 40.38 21.1L36.49 18.91Z" fill="#FFFFFF" fill-opacity="1.000000" fill-rule="evenodd"/>
	</g>
</svg>
