<svg width="72.000000" height="72.000000" viewBox="0 0 72 72" fill="none" xmlns="http://www.w3.org/2000/svg" xmlns:xlink="http://www.w3.org/1999/xlink">
	<desc>
			Created with Pixso.
	</desc>
	<defs>
		<clipPath id="clip117_94">
			<rect id="9#关系数据库-RDS" width="72.000000" height="72.000000" fill="white" fill-opacity="0"/>
		</clipPath>
	</defs>
	<g clip-path="url(#clip117_94)">
		<path id="矩形备份-19" d="M16 0L56 0C64.8 0 72 7.19 72 16L72 56C72 64.8 64.8 72 56 72L16 72C7.19 72 0 64.8 0 56L0 16C0 7.19 7.19 0 16 0Z" fill="#00ABED" fill-opacity="1.000000" fill-rule="evenodd"/>
		<path id="形状结合" d="M48.56 32.9L55.4 36.83C56.85 37.67 57.99 39.64 57.99 41.32L57.99 49.2C57.99 50.88 56.85 52.85 55.4 53.69L49 57.36C48.27 57.79 47.35 58 46.42 58C45.49 58 44.57 57.79 43.84 57.37L37 53.44L37 41.83C38.11 41.44 38.92 40.42 38.99 39.2L39 39C39 38.81 38.98 38.63 38.95 38.45L48.56 32.9ZM23.42 32.89L33.05 38.45C33.02 38.63 33 38.81 33 39C33 40.31 33.83 41.42 35 41.83L35 53.42L28.16 57.35C27.51 57.73 26.7 57.93 25.88 57.98L25.57 57.99C24.65 57.99 23.72 57.78 22.99 57.36L16.59 53.69C15.14 52.84 14 50.87 14 49.18L14 41.3C14 39.62 15.14 37.65 16.59 36.81L23.42 32.89ZM33.4 14.63C34.87 13.78 37.1 13.78 38.57 14.63L44.97 18.31C46.42 19.14 47.56 21.12 47.56 22.8L47.56 31.17L37.94 36.72C37.47 36.32 36.87 36.06 36.21 36.01L36 36C35.26 36 34.57 36.27 34.05 36.72L24.41 31.15L24.41 22.8C24.41 21.19 25.46 19.31 26.82 18.42L27 18.31L33.4 14.63Z" fill="#FFFFFF" fill-opacity="1.000000" fill-rule="evenodd"/>
	</g>
</svg>
