<svg width="72.000000" height="72.000000" viewBox="0 0 72 72" fill="none" xmlns="http://www.w3.org/2000/svg" xmlns:xlink="http://www.w3.org/1999/xlink">
	<desc>
			Created with Pixso.
	</desc>
	<defs>
		<clipPath id="clip117_114">
			<rect id="10#端云协同多模态AI开发应用平台-HiLens" width="72.000000" height="72.000000" fill="white" fill-opacity="0"/>
		</clipPath>
	</defs>
	<g clip-path="url(#clip117_114)">
		<path id="矩形备份-19" d="M16 0L56 0C64.8 0 72 7.19 72 16L72 56C72 64.8 64.8 72 56 72L16 72C7.19 72 0 64.8 0 56L0 16C0 7.19 7.19 0 16 0Z" fill="#00ABED" fill-opacity="1.000000" fill-rule="evenodd"/>
		<path id="形状结合" d="M21.31 45.98C22.25 47.62 22.13 49.61 21.08 51.01C27.4 58.03 37.94 59.91 46.25 54.87C47.07 54.4 47.89 53.82 48.59 53.23C49.06 52.76 49.76 52.76 49.99 53.23C50.46 53.7 50.46 54.4 49.99 54.87L49.87 54.99C49.05 55.69 48.23 56.28 47.29 56.86C37.93 62.48 26.1 60.37 19.2 52.53C17.09 53.58 14.4 52.77 13.11 50.66C11.82 48.43 12.64 45.51 14.87 44.22C17.1 42.93 20.02 43.75 21.31 45.98ZM44.14 17.06L44.26 17.06C45.31 17.41 46.25 17.88 47.19 18.46C56.44 23.73 60.42 34.61 57.37 44.33C59.36 45.73 60.06 48.43 58.89 50.65C57.6 52.87 54.68 53.69 52.45 52.41C50.22 51.12 49.41 48.19 50.69 45.97C51.63 44.33 53.27 43.51 55.02 43.63C57.71 34.97 54.2 25.25 46.01 20.57C45.19 20.1 44.25 19.63 43.43 19.28C42.96 19.05 42.61 18.46 42.73 17.88C42.85 17.3 43.55 16.95 44.14 17.06ZM36.06 24.91C37.35 24.91 38.4 25.96 38.4 27.25L38.4 27.48C43.08 28.53 46.59 32.75 46.59 37.78C46.59 42.34 43.66 46.33 39.57 47.73L39.57 50.66L42.5 50.66C42.85 50.66 43.09 50.89 43.09 51.25C43.09 51.61 42.86 51.84 42.5 51.84L29.62 51.84C29.27 51.84 29.03 51.61 29.03 51.25C29.03 50.89 29.26 50.66 29.62 50.66L32.55 50.66L32.55 47.73C28.45 46.33 25.53 42.34 25.53 37.78C25.53 32.75 29.04 28.53 33.72 27.48L33.72 27.25C33.72 25.96 34.77 24.91 36.06 24.91ZM52.8 47.15C52.1 48.32 52.56 49.61 53.62 50.31C54.67 51.01 56.08 50.66 56.78 49.49C57.48 48.32 57.13 46.91 55.96 46.33C54.91 45.63 53.5 45.98 52.8 47.15ZM16.16 46.33C14.99 46.92 14.76 48.32 15.34 49.49C15.93 50.66 17.33 51.01 18.5 50.31C19.67 49.72 19.9 48.32 19.32 47.15C18.74 45.98 17.33 45.63 16.16 46.33ZM38.4 48.32L33.72 48.32L33.72 50.66L38.4 50.66L38.4 48.32ZM36.06 33.1C33.48 33.1 31.38 35.21 31.38 37.78C31.38 40.36 33.49 42.46 36.06 42.46C38.64 42.46 40.74 40.35 40.74 37.78C40.74 35.21 38.64 33.1 36.06 33.1ZM36.06 12.03C38.64 12.03 40.74 14.14 40.74 16.71C40.74 19.28 38.63 21.39 36.06 21.39C34.07 21.39 32.31 20.1 31.73 18.35C22.83 20.34 16.16 28.3 16.16 37.78C16.16 38.72 16.28 39.65 16.28 40.59C16.4 41.18 16.05 41.88 15.46 42C14.87 42.23 14.17 41.76 14.06 41.18L14.06 41.06L14 40.48C13.91 39.53 13.82 38.66 13.82 37.78C13.82 27.13 21.31 18.11 31.38 16.01C31.73 13.79 33.72 12.03 36.06 12.03ZM36.06 34.27C38.05 34.27 39.57 35.79 39.57 37.78C39.57 39.77 38.05 41.29 36.06 41.29C34.07 41.29 32.55 39.77 32.55 37.78C32.55 35.79 34.07 34.27 36.06 34.27ZM36.06 36.61C35.41 36.61 34.89 37.13 34.89 37.78C34.89 38.43 35.41 38.95 36.06 38.95C36.71 38.95 37.23 38.43 37.23 37.78C37.23 37.13 36.71 36.61 36.06 36.61ZM36.06 26.08C35.36 26.08 34.89 26.55 34.89 27.25L34.89 27.37C35.24 27.25 35.71 27.25 36.06 27.25C36.41 27.25 36.88 27.37 37.23 27.37L37.23 27.25C37.23 26.54 36.76 26.08 36.06 26.08ZM36.06 14.37C34.77 14.37 33.72 15.42 33.72 16.71C33.72 18 34.77 19.05 36.06 19.05C37.35 19.05 38.4 18 38.4 16.71C38.4 15.42 37.35 14.37 36.06 14.37Z" fill="#FFFFFF" fill-opacity="1.000000" fill-rule="evenodd"/>
	</g>
</svg>
