<svg width="72.000000" height="72.000000" viewBox="0 0 72 72" fill="none" xmlns="http://www.w3.org/2000/svg" xmlns:xlink="http://www.w3.org/1999/xlink">
	<desc>
			Created with Pixso.
	</desc>
	<defs>
		<clipPath id="clip117_111">
			<rect id="11#图引擎服务-GES" width="72.000000" height="72.000000" fill="white" fill-opacity="0"/>
		</clipPath>
	</defs>
	<g clip-path="url(#clip117_111)">
		<path id="矩形备份-19" d="M16 0L56 0C64.8 0 72 7.19 72 16L72 56C72 64.8 64.8 72 56 72L16 72C7.19 72 0 64.8 0 56L0 16C0 7.19 7.19 0 16 0Z" fill="#25C251" fill-opacity="1.000000" fill-rule="evenodd"/>
		<path id="Fill-1" d="M36.04 13.05C39.12 13.05 41.54 15.47 41.54 18.54C41.54 18.85 41.54 18.96 41.53 19.14C41.52 19.2 41.52 19.28 41.51 19.35L41.58 19.49C44.84 21.87 48.58 26.26 50.76 29.83L50.99 30.21C52.99 33.7 55.1 39.68 55.55 43.9L55.52 43.62L55.67 43.7C57.37 44.63 58.47 46.38 58.56 48.32L58.56 48.55C58.56 51.63 56.14 54.05 53.06 54.05C52.03 54.05 51.08 53.81 50.28 53.33L50.1 53.22L49.93 53.29C46.22 54.91 40.52 55.97 36.5 56.04L36.04 56.05C31.86 56.05 25.57 54.89 21.73 53.1L21.98 53.21C21.14 53.72 20.29 53.99 19.33 54.04L19.04 54.05C15.96 54.05 13.54 51.63 13.54 48.55C13.54 46.43 14.66 44.65 16.59 43.52L16.37 43.65L16.39 43.46C16.84 39.4 18.75 33.95 20.7 30.47L20.91 30.09C23.06 26.45 27.37 21.45 30.87 19.03L30.59 19.23C30.58 19.11 30.56 18.88 30.56 18.71L30.56 18.54C30.54 15.47 32.96 13.05 36.04 13.05ZM36.23 44.51C33.04 47.08 28.52 48.91 24.11 49.55L24.47 49.49C24.39 49.92 24.25 50.29 24.02 50.79L24.43 50.96C27.72 52.18 32.39 52.98 35.59 53.05L36.04 53.05C39.23 53.05 44.21 52.25 47.72 50.95L48.12 50.8L48.02 50.58C47.91 50.32 47.82 50.03 47.75 49.74L47.7 49.49C43.54 48.8 39.22 46.99 36.23 44.51ZM16.54 48.71C16.63 50 17.7 51.05 19.04 51.05C20.45 51.05 21.54 49.97 21.54 48.55C21.54 47.13 20.45 46.05 19.04 46.05C17.62 46.05 16.54 47.13 16.54 48.55L16.54 48.71ZM53.04 46.05C51.62 46.05 50.54 47.13 50.54 48.55C50.54 49.97 51.62 51.05 53.04 51.05L53.21 51.04C54.46 50.96 55.46 49.93 55.54 48.71L55.55 48.55C55.54 47.13 54.46 46.05 53.04 46.05ZM31.49 37.52L31.24 37.62C28.17 38.9 25.17 41.23 22.81 44.04L22.55 44.35L22.71 44.49C23.59 45.25 24.2 46.25 24.42 47.38L24.47 47.57L24.87 47.5C28.35 46.83 31.86 45.35 34.46 43.39L34.67 43.22L34.53 43.07C33.98 42.5 33.48 41.87 33.03 41.15L32.8 40.78C32.31 39.88 31.89 38.86 31.58 37.84L31.49 37.52ZM40.78 37.52L40.7 37.8C40.4 38.78 39.99 39.74 39.45 40.72C38.81 41.68 38.29 42.38 37.74 42.96L37.59 43.12L37.8 43.29C40.33 45.25 43.75 46.72 47.21 47.39L47.63 47.47C47.9 46.3 48.51 45.18 49.34 44.41L49.52 44.25L49.26 43.92C46.99 41.22 44.01 38.9 41.04 37.62L40.78 37.52ZM40.16 22.25L40.04 22.4C39.88 22.58 39.7 22.75 39.5 22.9L39.5 23.02C41.12 27.07 41.82 31.67 41.22 35.59C44.93 37.06 48.65 39.98 51.26 43.28C51.55 43.17 51.93 43.14 52.27 43.1L52.46 43.08L52.41 42.82C51.79 39.27 50.06 34.63 48.58 32L48.41 31.71L48.18 31.36C46.29 28.34 43.17 24.62 40.41 22.46L40.16 22.25ZM31.74 22.15L31.49 22.34C28.58 24.66 25.16 28.79 23.47 31.7C22 34.4 20.2 39.15 19.49 42.78L19.43 43.06L19.58 43.07C19.91 43.1 20.23 43.16 20.51 43.25L20.7 43.32C23.24 40 26.91 37.1 30.61 35.67L31 35.52C30.47 31.55 31.14 26.93 32.7 23.11L32.6 22.93C32.31 22.72 32.07 22.51 31.86 22.28L31.74 22.15ZM36.04 36.45C35.35 36.45 34.58 36.55 33.72 36.74L33.43 36.81L33.53 37.16C33.75 37.95 34.03 38.67 34.39 39.36L34.57 39.71L34.14 39.95L34.57 39.71C34.91 40.38 35.37 41.01 35.95 41.59L36.12 41.76L36.35 41.51C36.8 41 37.2 40.47 37.52 39.92L37.71 39.61C38.12 38.92 38.46 38.1 38.75 37.12L38.83 36.83L38.46 36.75C37.75 36.6 37.06 36.5 36.41 36.48L36.04 36.45ZM37.66 23.8L37.5 23.85C37.06 23.99 36.59 24.05 36.04 24.05C35.56 24.05 35.08 23.99 34.65 23.88C33.29 27.25 32.62 31.12 33 34.49L33.04 34.82L33.41 34.74C34.16 34.58 34.91 34.48 35.62 34.45L36.04 34.45C37.02 34.45 37.99 34.58 38.96 34.83L39.23 34.9L39.27 34.59C39.64 31.35 39.08 27.59 37.83 24.24L37.66 23.8ZM35.87 16.06C34.53 16.14 33.54 17.18 33.54 18.54C33.54 19.96 34.62 21.05 36.04 21.05C37.46 21.05 38.54 19.96 38.54 18.54C38.54 17.13 37.46 16.04 36.04 16.04L35.87 16.06Z" fill="#FFFFFF" fill-opacity="1.000000" fill-rule="nonzero"/>
	</g>
</svg>
