<svg width="72.000000" height="72.000000" viewBox="0 0 72 72" fill="none" xmlns="http://www.w3.org/2000/svg" xmlns:xlink="http://www.w3.org/1999/xlink">
	<desc>
			Created with Pixso.
	</desc>
	<defs>
		<clipPath id="clip117_133">
			<rect id="12#推荐系统-RES" width="72.000000" height="72.000000" fill="white" fill-opacity="0"/>
		</clipPath>
	</defs>
	<g clip-path="url(#clip117_133)">
		<path id="矩形备份-19" d="M16 0L56 0C64.79 0 72 7.19 72 16L72 56C72 64.8 64.79 72 56 72L16 72C7.2 72 0 64.8 0 56L0 16C0 7.19 7.2 0 16 0Z" fill="#FF9A2E" fill-opacity="1.000000" fill-rule="evenodd"/>
		<path id="形状结合" d="M36.5 18C42.2 18 47 21.89 48.6 27.3C55 28 60 33.7 60 40.6C60 47.89 54.5 53.8 47.6 54L47.29 54L24 54C17.29 53.6 12 47.8 12 40.7C12 33.39 17.5 27.5 24.39 27.3C26 21.89 30.79 18 36.5 18ZM38.39 27.2C36.89 26.3 35 26.3 33.5 27.2L27.89 30.5C26.39 31.39 25.5 33 25.5 34.7L25.5 41.3C25.5 43.1 26.39 44.7 27.89 45.5L33.5 48.8C35 49.7 36.89 49.7 38.39 48.8L44 45.5C45.5 44.6 46.39 43 46.39 41.3L46.39 34.7C46.39 32.89 45.5 31.3 44 30.39L38.39 27.2ZM36 40.5L36.2 40.5C38.5 40.6 40.39 42.5 40.7 44.8L40.7 45L37.29 47L37.1 47.1C36.29 47.5 35.39 47.5 34.6 47L31.2 45L31.2 44.8C31.5 42.39 33.5 40.5 36 40.5ZM34.7 29.1C35.5 28.6 36.5 28.6 37.29 29.1L42.89 32.39C43.7 32.89 44.29 33.8 44.29 34.7L44.29 41.3L44.29 41.5C44.2 42.39 43.7 43.2 43 43.6L42.79 43.7C42.39 41.8 41.2 40.2 39.6 39.3L39.39 39.2C40.5 38 41 36.2 40.5 34.6C39.89 32.7 38.2 31.39 36.2 31.39C34.2 31.39 32.5 32.7 31.89 34.6L31.79 34.8C31.39 36.3 31.79 37.89 32.79 39.1L32.7 39.3C31.1 40.3 29.89 41.89 29.5 43.7L29.29 43.6C28.5 43.1 27.89 42.2 27.89 41.3L27.89 34.7C27.89 33.7 28.39 32.89 29.2 32.39L34.7 29.1ZM36 33.7C37.2 33.7 38.29 34.7 38.29 36C38.29 37.3 37.29 38.3 36 38.3C35.39 38.3 34.79 38.1 34.39 37.6C34 37.2 33.7 36.6 33.7 36C33.7 34.8 34.79 33.7 36 33.7Z" fill="#FFFFFF" fill-opacity="1.000000" fill-rule="evenodd"/>
	</g>
</svg>
