<svg width="72.000000" height="72.000000" viewBox="0 0 72 72" fill="none" xmlns="http://www.w3.org/2000/svg" xmlns:xlink="http://www.w3.org/1999/xlink">
	<desc>
			Created with Pixso.
	</desc>
	<defs>
		<clipPath id="clip117_309">
			<rect id="13#天筹求解器服务-OptVerse" width="72.000000" height="72.000000" fill="white" fill-opacity="0"/>
		</clipPath>
	</defs>
	<g clip-path="url(#clip117_309)">
		<path id="矩形备份-19" d="M16 0L56 0C64.83 0 72 7.15 72 16L72 56C72 64.84 64.83 72 56 72L16 72C7.16 72 0 64.84 0 56L0 16C0 7.15 7.16 0 16 0Z" fill="#F85835" fill-opacity="1.000000" fill-rule="evenodd"/>
		<path id="路径" d="M36 12.73C37.25 12.73 38.27 13.71 38.32 14.93L38.32 15.06L38.32 19.54C38.32 20.83 39.36 21.86 40.65 21.86C41.89 21.86 42.91 20.89 42.98 19.65L42.98 19.54L42.98 19.65C42.98 18.37 44.02 17.38 45.31 17.38C46.56 17.38 47.56 18.36 47.62 19.6L47.63 19.7L47.63 25.53C47.63 26.81 46.58 27.85 45.31 27.85C44.06 27.85 43.04 26.86 42.98 25.63L42.98 25.47C42.89 24.25 41.88 23.29 40.65 23.29C39.41 23.29 38.4 24.25 38.32 25.47L38.32 40.17C38.32 41.47 39.36 42.51 40.65 42.51C41.89 42.51 42.91 41.53 42.98 40.3L42.98 40.17L42.98 32.5C42.98 31.22 44.02 30.17 45.31 30.17C46.56 30.17 47.56 31.15 47.62 32.38L47.63 32.5C47.63 33.79 48.67 34.83 49.96 34.83C51.21 34.83 52.21 33.85 52.29 32.61L52.29 32.5L52.29 24.35C52.29 23.08 53.32 22.04 54.6 22.04C55.85 22.04 56.87 23.02 56.93 24.25L56.93 24.35L56.93 47.62C56.93 48.9 55.89 49.95 54.6 49.95C53.36 49.95 52.34 48.97 52.29 47.74L52.29 47.62L52.29 40.09L52.29 39.98C52.21 38.75 51.21 37.77 49.96 37.77C48.71 37.77 47.69 38.75 47.63 39.98L47.63 40.09L47.63 52.28C47.63 53.56 46.58 54.6 45.31 54.6C44.06 54.6 43.04 53.61 42.98 52.38L42.98 52.28L42.98 47.77L42.98 47.65C42.91 46.41 41.89 45.45 40.65 45.45C39.4 45.45 38.38 46.41 38.32 47.65L38.32 47.77L38.32 56.92C38.32 58.22 37.29 59.26 36 59.26C34.75 59.26 33.73 58.28 33.67 57.05L33.67 56.92L33.67 52.46C33.59 51.24 32.58 50.28 31.34 50.28C30.11 50.28 29.1 51.24 29.02 52.46L29.02 52.28C29.02 53.56 27.98 54.6 26.69 54.6C25.44 54.6 24.43 53.61 24.37 52.38L24.36 52.28L24.36 46.46C24.36 45.17 25.41 44.13 26.69 44.13C27.94 44.13 28.96 45.11 29.02 46.35L29.02 46.46C29.02 47.74 30.06 48.85 31.34 48.85C32.59 48.85 33.61 47.87 33.67 46.64L33.67 46.54L33.67 33.23L33.67 33.11C33.61 31.88 32.59 30.9 31.34 30.9C30.1 30.9 29.08 31.88 29.02 33.11L29.02 33.23L29.02 39.48C29.02 40.77 27.98 41.81 26.69 41.81C25.44 41.81 24.43 40.83 24.37 39.6L24.36 39.39C24.31 38.16 23.29 37.18 22.04 37.18C20.79 37.18 19.79 38.16 19.71 39.39L19.71 39.5L19.71 47.62C19.71 48.9 18.67 49.95 17.39 49.95C16.14 49.95 15.12 48.97 15.06 47.74L15.06 47.62L15.06 24.35C15.06 23.08 16.1 22.04 17.39 22.04C18.63 22.04 19.65 23.02 19.71 24.25L19.71 24.35L19.71 31.92L19.71 32.04C19.79 33.27 20.79 34.25 22.04 34.25C23.29 34.25 24.31 33.27 24.36 32.04L24.36 31.91L24.36 19.7C24.36 18.42 25.41 17.38 26.69 17.38C27.94 17.38 28.96 18.36 29.02 19.6L29.02 19.7L29.02 25.63C29.02 26.92 30.06 27.97 31.34 27.97C32.59 27.97 33.61 26.99 33.67 25.76L33.67 25.63L33.67 15.06C33.66 13.78 34.71 12.73 36 12.73Z" fill="#FFFFFF" fill-opacity="1.000000" fill-rule="evenodd"/>
	</g>
</svg>
