<svg width="72.000000" height="72.000000" viewBox="0 0 72 72" fill="none" xmlns="http://www.w3.org/2000/svg" xmlns:xlink="http://www.w3.org/1999/xlink">
	<desc>
			Created with Pixso.
	</desc>
	<defs>
		<clipPath id="clip117_143">
			<rect id="15#视频智能分析服务-VIAS" width="72.000000" height="72.000000" fill="white" fill-opacity="0"/>
		</clipPath>
	</defs>
	<g clip-path="url(#clip117_143)">
		<path id="矩形备份-19" d="M16 0L56 0C64.8 0 72 7.19 72 16L72 56C72 64.8 64.8 72 56 72L16 72C7.19 72 0 64.8 0 56L0 16C0 7.19 7.19 0 16 0Z" fill="#1476FF" fill-opacity="1.000000" fill-rule="evenodd"/>
		<path id="形状结合" d="M44.85 20.3C47.61 20.3 49.85 22.54 49.85 25.3L49.85 28.13L57.02 24.22C57.99 23.69 59.2 24.05 59.73 25.02C59.89 25.31 59.97 25.64 59.97 25.98L59.97 45.64C59.97 46.74 59.07 47.64 57.97 47.64C57.56 47.64 57.16 47.51 56.82 47.27L49.84 42.35L49.84 46.79C49.84 49.55 47.6 51.79 44.84 51.79L28.83 51.79C27.87 52.17 26.82 52.39 25.72 52.39L14.5 52.39C9.87 52.39 6.12 48.64 6.12 44.01C6.12 40.28 8.57 37.09 11.98 36.01L11.98 25.3C11.98 22.54 14.22 20.3 16.98 20.3L44.85 20.3ZM20.08 33.33C17.28 33.33 14.9 35.13 14.04 37.64C10.73 37.88 8.12 40.64 8.12 44.01C8.12 47.54 10.98 50.39 14.5 50.39L17.12 50.39L17.12 46.74C17.12 46.19 17.57 45.74 18.12 45.74C18.67 45.74 19.12 46.19 19.12 46.74L19.12 50.39L20.23 50.39L20.23 43.18C20.23 42.63 20.68 42.18 21.23 42.18C21.78 42.18 22.23 42.63 22.23 43.18L22.23 50.39L23.34 50.39L23.34 48.09C23.34 47.54 23.79 47.09 24.34 47.09C24.89 47.09 25.34 47.54 25.34 48.09L25.34 50.39L25.74 50.39C25.98 50.39 26.21 50.38 26.44 50.35L26.44 45.1C26.44 44.55 26.89 44.1 27.44 44.1C27.99 44.1 28.44 44.55 28.44 45.1L28.44 49.79C30.61 48.77 32.12 46.56 32.12 44.01C32.12 40.61 29.46 37.83 26.12 37.64C25.25 35.13 22.87 33.33 20.08 33.33ZM43.78 24.44L33.55 24.44C32.72 24.44 32.05 25.11 32.05 25.94C32.05 26.77 32.72 27.44 33.55 27.44L43.78 27.44C44.61 27.44 45.28 26.77 45.28 25.94C45.28 25.11 44.6 24.44 43.78 24.44Z" fill="#FFFFFF" fill-opacity="1.000000" fill-rule="evenodd"/>
	</g>
</svg>
