<svg width="72.000000" height="72.000000" viewBox="0 0 72 72" fill="none" xmlns="http://www.w3.org/2000/svg" xmlns:xlink="http://www.w3.org/1999/xlink">
	<desc>
			Created with Pixso.
	</desc>
	<defs>
		<clipPath id="clip117_140">
			<rect id="16#视频编辑-VCP" width="72.000000" height="72.000000" fill="white" fill-opacity="0"/>
		</clipPath>
	</defs>
	<g clip-path="url(#clip117_140)">
		<path id="矩形备份-19" d="M16 0L56 0C64.8 0 72 7.19 72 16L72 56C72 64.8 64.8 72 56 72L16 72C7.19 72 0 64.8 0 56L0 16C0 7.19 7.19 0 16 0Z" fill="#1476FF" fill-opacity="1.000000" fill-rule="evenodd"/>
		<path id="形状结合" d="M57.86 38.78L59.5 40.42C60.28 41.2 60.28 42.46 59.51 43.24L49.76 53.11C49.35 53.52 48.83 53.81 48.26 53.93L44.87 54.66C44.72 54.69 44.57 54.69 44.43 54.66C43.89 54.53 43.56 53.99 43.69 53.46L44.56 49.78C44.69 49.23 44.97 48.73 45.37 48.33L55.05 38.77C55.82 38 57.08 38 57.86 38.78ZM47.06 49.15C46.86 49.35 46.86 49.66 47.06 49.86L48.06 50.86C48.26 51.06 48.57 51.06 48.77 50.86C48.97 50.66 48.97 50.35 48.77 50.15L47.77 49.15C47.57 48.95 47.25 48.95 47.06 49.15ZM52.71 18C54.92 18 56.71 19.79 56.71 22L56.71 36.2C55.61 36.13 54.48 36.51 53.63 37.35L49.09 41.84L49.09 21.91C49.09 20.81 48.19 19.91 47.09 19.91L22.53 19.91C21.43 19.91 20.53 20.81 20.53 21.91L20.53 46.5C20.53 47.6 21.43 48.5 22.53 48.5L42.88 48.5C42.77 48.77 42.67 49.04 42.61 49.32L42.35 50.4L16.91 50.4C14.7 50.4 12.91 48.61 12.91 46.4L12.91 22C12.91 19.79 14.7 18 16.91 18L52.71 18ZM18.15 43.21L15.29 43.21C14.74 43.21 14.29 43.66 14.29 44.21C14.29 44.76 14.74 45.21 15.29 45.21L18.15 45.21C18.7 45.21 19.15 44.76 19.15 44.21C19.15 43.66 18.7 43.21 18.15 43.21ZM56.06 40.15C55.86 40.35 55.86 40.66 56.06 40.86L57.06 41.86C57.26 42.06 57.57 42.06 57.77 41.86C57.97 41.66 57.97 41.35 57.77 41.15L56.77 40.15C56.57 39.95 56.25 39.95 56.06 40.15ZM33.05 28L40.92 32.71C41.2 32.88 41.44 33.12 41.61 33.4C42.18 34.35 41.87 35.58 40.92 36.14L33.05 40.85C32.74 41.04 32.38 41.13 32.02 41.13C30.92 41.13 30.02 40.23 30.02 39.13L30.02 29.72C30.02 29.36 30.12 29 30.3 28.69C30.88 27.74 32.11 27.44 33.05 28ZM18.15 36.54L15.29 36.54C14.74 36.54 14.29 36.99 14.29 37.54C14.29 38.09 14.74 38.54 15.29 38.54L18.15 38.54C18.7 38.54 19.15 38.09 19.15 37.54C19.15 36.98 18.7 36.54 18.15 36.54ZM18.15 29.87L15.29 29.87C14.74 29.87 14.29 30.32 14.29 30.87C14.29 31.42 14.74 31.87 15.29 31.87L18.15 31.87C18.7 31.87 19.15 31.42 19.15 30.87C19.15 30.32 18.7 29.87 18.15 29.87ZM54.33 29.87L51.47 29.87C50.92 29.87 50.47 30.32 50.47 30.87C50.47 31.42 50.92 31.87 51.47 31.87L54.33 31.87C54.88 31.87 55.33 31.42 55.33 30.87C55.33 30.32 54.88 29.87 54.33 29.87ZM18.15 23.19L15.29 23.19C14.74 23.19 14.29 23.64 14.29 24.19C14.29 24.74 14.74 25.19 15.29 25.19L18.15 25.19C18.7 25.19 19.15 24.74 19.15 24.19C19.15 23.64 18.7 23.19 18.15 23.19ZM54.33 23.19L51.47 23.19C50.92 23.19 50.47 23.64 50.47 24.19C50.47 24.74 50.92 25.19 51.47 25.19L54.33 25.19C54.88 25.19 55.33 24.74 55.33 24.19C55.33 23.64 54.88 23.19 54.33 23.19Z" fill="#FFFFFF" fill-opacity="1.000000" fill-rule="evenodd"/>
	</g>
</svg>
