<svg width="72.000000" height="72.000000" viewBox="0 0 72 72" fill="none" xmlns="http://www.w3.org/2000/svg" xmlns:xlink="http://www.w3.org/1999/xlink">
	<desc>
			Created with Pixso.
	</desc>
	<defs>
		<clipPath id="clip117_141">
			<rect id="17#视频标签-VCT" width="72.000000" height="72.000000" fill="white" fill-opacity="0"/>
		</clipPath>
	</defs>
	<g clip-path="url(#clip117_141)">
		<path id="矩形备份-19" d="M16 0L56 0C64.8 0 72 7.19 72 16L72 56C72 64.8 64.8 72 56 72L16 72C7.19 72 0 64.8 0 56L0 16C0 7.19 7.19 0 16 0Z" fill="#00ABED" fill-opacity="1.000000" fill-rule="evenodd"/>
		<path id="形状结合" d="M24.37 20L56 20C58.21 20 60 21.79 60 24L60 50C60 52.21 58.21 54 56 54L18 54C15.79 54 14 52.21 14 50L14 40.66C14.13 40.57 14.27 40.45 14.37 40.31L17.25 37.03L20.12 40.31C20.59 40.85 21.28 41.16 22 41.16C23.37 41.16 24.5 40.05 24.5 38.66L24.5 21C24.5 20.64 24.46 20.32 24.37 20ZM54.5 46L19.5 46C18.66 46 18 46.66 18 47.5C18 48.33 18.66 49 19.5 49L54.5 49C55.33 49 56 48.33 56 47.5C56 46.66 55.33 46 54.5 46ZM31.39 27.68C31.21 28 31.12 28.36 31.12 28.72L31.12 38.12C31.12 39.23 32.02 40.12 33.12 40.12C33.48 40.12 33.84 40.03 34.14 39.85L42.02 35.13C42.97 34.57 43.28 33.34 42.71 32.39C42.54 32.12 42.3 31.87 42.02 31.71L34.13 27C33.2 26.43 31.97 26.74 31.39 27.68ZM20.5 19C21.6 19 22.5 19.89 22.5 21L22.5 38.66C22.5 38.95 22.28 39.16 22 39.16C21.86 39.16 21.72 39.11 21.62 39L17.25 33.99L12.87 39C12.7 39.21 12.37 39.23 12.16 39.05C12.06 38.95 12 38.81 12 38.66L12 23C12 20.79 13.79 19 16 19L20.5 19Z" fill="#FFFFFF" fill-opacity="1.000000" fill-rule="evenodd"/>
	</g>
</svg>
