<svg width="72.000000" height="72.000000" viewBox="0 0 72 72" fill="none" xmlns="http://www.w3.org/2000/svg" xmlns:xlink="http://www.w3.org/1999/xlink">
	<desc>
			Created with Pixso.
	</desc>
	<defs>
		<clipPath id="clip117_142">
			<rect id="18#视频指纹-VFP" width="72.000000" height="72.000000" fill="white" fill-opacity="0"/>
		</clipPath>
	</defs>
	<g clip-path="url(#clip117_142)">
		<path id="矩形备份-19" d="M16 0L56 0C64.8 0 72 7.19 72 16L72 56C72 64.8 64.8 72 56 72L16 72C7.19 72 0 64.8 0 56L0 16C0 7.19 7.19 0 16 0Z" fill="#9F53E6" fill-opacity="1.000000" fill-rule="evenodd"/>
		<path id="形状结合" d="M53.09 44.09C54.3 44.09 55.32 45.05 55.41 46.3L55.41 46.49C55.41 50.23 53.28 53.49 50.02 54.93C49.74 55.03 49.55 54.93 49.37 54.64C49.28 54.35 49.37 54.16 49.64 53.97C52.43 52.72 54.39 49.94 54.49 46.77L54.49 46.48C54.49 45.71 53.84 45.04 53.09 45.04C52.34 45.04 51.79 45.62 51.68 46.38C51.68 49.26 49.36 51.76 46.57 51.76C46.29 51.76 46.1 51.57 46.1 51.28C46.1 50.99 46.29 50.8 46.57 50.8C48.8 50.8 50.66 48.98 50.76 46.67L50.76 46.48C50.76 45.15 51.79 44.09 53.09 44.09ZM57.64 47.64C58.02 47.64 58.21 47.93 58.12 48.22C57.75 50.71 56.62 53.02 55.05 54.74C54.86 54.93 54.58 54.93 54.39 54.74C54.21 54.55 54.21 54.26 54.39 54.07C55.88 52.44 56.9 50.33 57.29 48.03C57.21 47.86 57.42 47.72 57.64 47.64ZM60.26 42.94C60.73 43.9 61 45.05 61 46.2L61 46.58C61 48.98 60.43 51.38 59.41 53.49C59.33 53.68 59.05 53.78 58.77 53.68C58.58 53.58 58.49 53.3 58.58 53.01C59.51 51.19 60.07 49.17 60.07 47.06L60.07 46.68C60.07 45.62 59.79 44.47 59.41 43.51C59.33 43.32 59.41 43.03 59.61 42.84C59.79 42.65 60.07 42.65 60.26 42.94ZM52.32 17.97C54.53 17.97 56.32 19.76 56.32 21.97L56.32 36.89C55.29 36.53 54.2 36.33 53.09 36.33C51.75 36.33 50.45 36.6 49.25 37.11L49.25 21.96C49.25 20.86 48.35 19.96 47.25 19.96L23 19.96C21.89 19.96 21 20.86 21 21.96L21 45.93C21 47.03 21.89 47.93 23 47.93L43.27 47.93L43.27 48.09L43.47 48.5L43.53 48.62C43.74 49.01 44.02 49.37 44.37 49.64L17 49.66C14.79 49.66 13 47.87 13 45.66L13 21.97C13 19.76 14.79 17.97 17 17.97L52.32 17.97ZM53.09 41.21C55.87 41.21 58.21 43.61 58.21 46.49C58.21 46.78 58.02 46.97 57.74 46.97C57.46 46.97 57.27 46.78 57.27 46.49C57.27 44.09 55.4 42.17 53.08 42.17C50.85 42.17 48.98 43.99 48.88 46.3L48.88 46.49C48.88 47.45 48.33 48.22 47.59 48.6C47.39 48.7 47.12 48.6 46.93 48.41C46.85 48.22 46.93 47.93 47.12 47.74C47.6 47.55 47.87 47.07 47.87 46.59C47.97 43.71 50.3 41.21 53.09 41.21ZM46.85 42.27C47.04 42.37 47.12 42.65 47.04 42.94C46.38 44 46.11 45.24 46.11 46.59C46.11 46.88 46.11 47.17 46.2 47.45C46.2 47.74 46.01 47.93 45.83 48.03C45.64 48.13 45.36 47.84 45.27 47.65L45.26 47.42L45.2 46.92C45.18 46.84 45.18 46.76 45.18 46.69C45.18 45.25 45.56 43.81 46.21 42.56C46.38 42.17 46.66 42.08 46.85 42.27ZM18.17 42.61L15.35 42.61C14.8 42.61 14.35 43.06 14.35 43.61C14.35 44.16 14.8 44.61 15.35 44.61L18.17 44.61C18.73 44.61 19.17 44.16 19.17 43.61C19.17 43.06 18.73 42.61 18.17 42.61ZM53.09 38.34C55.51 38.34 57.74 39.49 59.23 41.31C59.41 41.5 59.32 41.79 59.13 41.98C58.95 42.17 58.66 42.08 58.49 41.88C57.18 40.25 55.23 39.29 53.09 39.29C51.23 39.29 49.37 40.06 48.06 41.5C47.87 41.69 47.59 41.69 47.4 41.5C47.22 41.31 47.22 41.02 47.4 40.83C48.89 39.2 50.95 38.34 53.09 38.34ZM32.64 28.52L39.38 32.45C39.64 32.6 39.87 32.82 40.02 33.08C40.5 33.92 40.23 35 39.38 35.49L32.64 39.42C32.37 39.58 32.07 39.66 31.76 39.66C30.79 39.66 30 38.87 30 37.9L30 30.04C30 29.73 30.08 29.42 30.24 29.15C30.73 28.31 31.81 28.03 32.64 28.52ZM18.17 36.09L15.35 36.09C14.8 36.09 14.35 36.54 14.35 37.09C14.35 37.64 14.8 38.09 15.35 38.09L18.17 38.09C18.73 38.09 19.17 37.64 19.17 37.09C19.17 36.53 18.73 36.09 18.17 36.09ZM18.17 29.56L15.35 29.56C14.8 29.56 14.35 30.01 14.35 30.56C14.35 31.11 14.8 31.56 15.35 31.56L18.17 31.56C18.73 31.56 19.17 31.11 19.17 30.56C19.17 30.01 18.73 29.56 18.17 29.56ZM53.96 29.56L51.12 29.56C50.58 29.56 50.12 30.01 50.12 30.56C50.12 31.11 50.58 31.56 51.12 31.56L53.96 31.56C54.51 31.56 54.96 31.11 54.96 30.56C54.96 30.01 54.52 29.56 53.96 29.56ZM18.17 23.03L15.35 23.03C14.8 23.03 14.35 23.48 14.35 24.03C14.35 24.58 14.8 25.03 15.35 25.03L18.17 25.03C18.73 25.03 19.17 24.58 19.17 24.03C19.17 23.48 18.73 23.03 18.17 23.03ZM53.96 23.03L51.12 23.03C50.58 23.03 50.12 23.48 50.12 24.03C50.12 24.58 50.58 25.03 51.12 25.03L53.96 25.03C54.51 25.03 54.96 24.58 54.96 24.03C54.96 23.48 54.52 23.03 53.96 23.03Z" fill="#FFFFFF" fill-opacity="1.000000" fill-rule="evenodd"/>
	</g>
</svg>
