<svg width="72.000000" height="72.000000" viewBox="0 0 72 72" fill="none" xmlns="http://www.w3.org/2000/svg" xmlns:xlink="http://www.w3.org/1999/xlink">
	<desc>
			Created with Pixso.
	</desc>
	<defs>
		<clipPath id="clip117_101">
			<rect id="19#智能问答机器人-QABot" width="72.000000" height="72.000000" fill="white" fill-opacity="0"/>
		</clipPath>
	</defs>
	<g clip-path="url(#clip117_101)">
		<path id="矩形备份-19" d="M16 0L56 0C64.8 0 72 7.19 72 16L72 56C72 64.8 64.8 72 56 72L16 72C7.19 72 0 64.8 0 56L0 16C0 7.19 7.19 0 16 0Z" fill="#00C4BE" fill-opacity="1.000000" fill-rule="evenodd"/>
		<path id="形状结合" d="M36.1 10.5C38.8 10.5 41 12.7 41 15.39C41 17.6 39.6 19.5 37.6 20.1L37.6 22.2L53 22.2C57.1 22.2 60.5 25.6 60.5 29.7L60.5 47.7C60.5 51.8 57.1 55.2 53 55.2L19 55.2C14.89 55.2 11.5 51.8 11.5 47.7L11.5 29.7C11.5 25.6 14.89 22.2 19 22.2L34.6 22.2L34.6 20.1C32.6 19.5 31.2 17.6 31.2 15.39C31.2 12.7 33.39 10.5 36.1 10.5ZM44 30.5C39.89 30.5 36.5 33.89 36.5 38C36.5 39.7 37.1 41.2 38 42.5L34 42.5C34.89 41.2 35.5 39.7 35.5 38C35.5 33.89 32.1 30.5 28 30.5C23.89 30.5 20.5 33.89 20.5 38C20.5 41.89 23.5 45.1 27.39 45.5L44.39 45.5C48.39 45.3 51.5 42 51.5 38C51.5 33.89 48.1 30.5 44 30.5ZM28 33.5C30.5 33.5 32.5 35.5 32.5 38C32.5 40.5 30.5 42.5 28 42.5C25.5 42.5 23.5 40.5 23.5 38C23.5 35.5 25.5 33.5 28 33.5ZM44 33.5C46.5 33.5 48.5 35.5 48.5 38C48.5 40.5 46.5 42.5 44 42.5C41.5 42.5 39.5 40.5 39.5 38C39.5 35.5 41.5 33.5 44 33.5ZM36.1 13.5C35.1 13.5 34.2 14.39 34.2 15.39C34.2 16.39 35.1 17.29 36.1 17.29C37.1 17.29 38 16.39 38 15.39C38 14.39 37.1 13.5 36.1 13.5ZM47.6 58C48.39 58 49.1 58.7 49.1 59.5C49.1 60.3 48.39 61 47.6 61L25.5 61C24.7 61 24 60.3 24 59.5C24 58.7 24.7 58 25.5 58L47.6 58Z" fill="#FFFFFF" fill-opacity="1.000000" fill-rule="nonzero"/>
	</g>
</svg>
