<svg width="72.000000" height="72.000000" viewBox="0 0 72 72" fill="none" xmlns="http://www.w3.org/2000/svg" xmlns:xlink="http://www.w3.org/1999/xlink">
	<desc>
			Created with Pixso.
	</desc>
	<defs>
		<clipPath id="clip117_117">
			<rect id="2#图像搜索-ImageSearch" width="72.000000" height="72.000000" fill="white" fill-opacity="0"/>
		</clipPath>
	</defs>
	<g clip-path="url(#clip117_117)">
		<path id="矩形备份-19" d="M16 0L56 0C64.8 0 72 7.19 72 16L72 56C72 64.8 64.8 72 56 72L16 72C7.19 72 0 64.8 0 56L0 16C0 7.19 7.19 0 16 0Z" fill="#25C251" fill-opacity="1.000000" fill-rule="evenodd"/>
		<path id="形状结合" d="M49.54 40.08C53.62 40.08 56.86 43.32 56.86 47.4C56.86 49.07 56.34 50.54 55.39 51.79L55.5 51.89L58.64 55.03C59.06 55.45 59.06 56.08 58.64 56.49C58.43 56.7 58.12 56.8 57.91 56.8C57.7 56.8 57.39 56.7 57.18 56.49L54.04 53.35C52.78 54.29 51.22 54.71 49.55 54.71C45.47 54.71 42.23 51.47 42.23 47.39C42.22 43.32 45.46 40.08 49.54 40.08ZM53.41 14.99C55.9 14.99 57.91 17 57.91 19.49L57.91 41.13C56 38.59 52.97 36.95 49.55 36.95C43.77 36.95 39.09 41.63 39.09 47.4C39.09 50.82 40.73 53.86 43.27 55.76L17.44 55.76C14.95 55.76 12.94 53.75 12.94 51.26L12.94 19.49C12.94 17 14.95 14.99 17.44 14.99L53.41 14.99ZM49.54 42.17C46.61 42.17 44.31 44.47 44.31 47.4C44.31 50.33 46.61 52.63 49.54 52.63C52.47 52.63 54.77 50.33 54.77 47.4C54.77 44.47 52.47 42.17 49.54 42.17ZM49.29 24.28C46.81 22.66 44.01 23.3 41.83 25.91L38.27 30.35C37.15 31.76 34.72 32.26 33.13 31.41L30.78 30.1C27.69 28.4 23.88 29.53 22.2 32.65L17.34 41.49L17.28 41.63C17 42.37 17.32 43.24 18.01 43.58C18.7 43.92 19.72 43.58 20.07 42.89L24.9 34.09C25.7 32.56 27.68 31.99 29.23 32.82L31.58 34.13C34.48 35.8 38.58 34.98 40.66 32.32L44.2 27.91C45.24 26.56 46.27 26.11 47.48 26.92C47.73 27.1 48.03 27.35 48.33 27.64C48.62 27.93 48.91 28.24 49.17 28.55C49.32 28.74 49.44 28.88 49.49 28.95L49.58 29.06C50.19 29.68 51.15 29.87 51.83 29.18L51.93 29.08C52.43 28.51 52.57 27.69 52.05 27.06L51.96 26.95C51.44 26.09 50.27 24.91 49.29 24.28Z" fill="#FFFFFF" fill-opacity="1.000000" fill-rule="evenodd"/>
	</g>
</svg>
