<svg width="72.000000" height="72.000000" viewBox="0 0 72 72" fill="none" xmlns="http://www.w3.org/2000/svg" xmlns:xlink="http://www.w3.org/1999/xlink">
	<desc>
			Created with Pixso.
	</desc>
	<defs>
		<clipPath id="clip117_103">
			<rect id="20#智能话务机器人-cbstask" width="72.000000" height="72.000000" fill="white" fill-opacity="0"/>
		</clipPath>
	</defs>
	<g clip-path="url(#clip117_103)">
		<path id="矩形备份-19" d="M16 0L56 0C64.8 0 72 7.19 72 16L72 56C72 64.8 64.8 72 56 72L16 72C7.19 72 0 64.8 0 56L0 16C0 7.19 7.19 0 16 0Z" fill="#F85835" fill-opacity="1.000000" fill-rule="evenodd"/>
		<path id="形状结合" d="M36.09 10.48C38.8 10.48 40.99 12.67 40.99 15.38C40.99 17.57 39.55 19.43 37.56 20.06L37.56 22.15L53 22.15C57.13 22.15 60.5 25.51 60.5 29.65L60.5 47.65C60.5 51.79 57.13 55.15 53 55.15L19 55.15C14.86 55.15 11.5 51.79 11.5 47.65L11.5 29.65C11.5 25.51 14.86 22.15 19 22.15L34.56 22.15L34.56 20.04C32.6 19.4 31.18 17.56 31.18 15.38C31.18 12.67 33.38 10.48 36.09 10.48ZM47.47 33.48L32.71 33.48C30.84 33.48 29.37 34.95 29.37 36.82L29.37 44.76C29.37 46.62 30.84 48.1 32.71 48.1L41.78 48.1L43.71 50C44.03 50.32 44.49 50.49 44.97 50.49C45.45 50.49 45.9 50.32 46.23 50L46.34 49.87C46.59 49.56 46.71 49.15 46.71 48.73L46.71 48.1L47.68 48.1C49.37 48.1 50.8 46.71 50.8 44.99L50.8 36.82C50.81 34.99 49.26 33.48 47.47 33.48ZM47.47 35.61C48.1 35.61 48.66 36.18 48.66 36.81L48.66 44.98C48.66 45.5 48.21 45.96 47.68 45.96L45.76 45.96L45.64 45.97C45.08 46.03 44.58 46.57 44.58 47.14L44.58 47.79L43.27 46.55C42.87 46.16 42.32 45.96 41.79 45.96L32.7 45.96C32.07 45.96 31.5 45.39 31.5 44.76L31.5 36.82C31.5 36.19 32.07 35.62 32.7 35.62L47.47 35.61ZM37.23 28.48L23.52 28.48C21.64 28.48 20.15 29.95 20.15 31.82L20.15 40.33L20.16 40.5C20.24 41.72 21.12 42.74 22.29 43.02L22.45 43.05L22.45 43.73C22.45 44.21 22.62 44.67 22.93 44.99C23.26 45.31 23.72 45.48 24.21 45.48L24.38 45.47C24.81 45.43 25.2 45.27 25.48 44.99L27.37 43.1L28.21 43.09C28.83 43.09 29.28 42.64 29.28 42.02C29.28 41.39 28.71 40.95 28.09 40.95L27.52 40.95L27.33 40.96C26.83 41.01 26.33 41.24 26.02 41.55L24.7 42.86L24.7 42.13C24.7 41.51 24.12 40.95 23.51 40.95L22.93 40.95C22.6 40.95 22.3 40.67 22.3 40.32L22.3 31.81C22.3 31.18 22.87 30.61 23.51 30.61L37.22 30.61C37.86 30.61 38.42 31.18 38.42 31.81L38.42 32.15C38.42 32.77 38.87 33.22 39.5 33.22C40.1 33.22 40.57 32.68 40.57 32.15L40.57 31.81C40.59 29.95 39.11 28.48 37.23 28.48ZM35 38.58C34.23 38.58 33.6 39.21 33.6 39.98C33.6 40.75 34.23 41.38 35 41.38C35.77 41.38 36.39 40.75 36.39 39.98C36.39 39.21 35.77 38.58 35 38.58ZM40 38.58C39.23 38.58 38.6 39.21 38.6 39.98C38.6 40.75 39.23 41.38 40 41.38C40.77 41.38 41.39 40.75 41.39 39.98C41.39 39.21 40.77 38.58 40 38.58ZM45 38.58C44.23 38.58 43.6 39.21 43.6 39.98C43.6 40.75 44.23 41.38 45 41.38C45.77 41.38 46.39 40.75 46.39 39.98C46.39 39.21 45.77 38.58 45 38.58ZM36.09 13.48C35.04 13.48 34.18 14.33 34.18 15.38C34.18 16.43 35.04 17.28 36.09 17.28C37.13 17.28 37.99 16.43 37.99 15.38C37.99 14.33 37.13 13.48 36.09 13.48ZM47.61 58.01C48.43 58.01 49.11 58.68 49.11 59.51C49.11 60.34 48.43 61.01 47.61 61.01L25.48 61.01C24.64 61.01 23.98 60.34 23.98 59.51C23.98 58.68 24.64 58.01 25.48 58.01L47.61 58.01Z" fill="#FFFFFF" fill-opacity="1.000000" fill-rule="nonzero"/>
	</g>
</svg>
