<svg width="72.000000" height="72.000000" viewBox="0 0 72 72" fill="none" xmlns="http://www.w3.org/2000/svg" xmlns:xlink="http://www.w3.org/1999/xlink">
	<desc>
			Created with Pixso.
	</desc>
	<defs>
		<clipPath id="clip117_102">
			<rect id="21#智能对话质检-cbssa" width="72.000000" height="72.000000" fill="white" fill-opacity="0"/>
		</clipPath>
	</defs>
	<g clip-path="url(#clip117_102)">
		<path id="矩形备份-19" d="M16 0L56 0C64.8 0 72 7.19 72 16L72 56C72 64.8 64.8 72 56 72L16 72C7.19 72 0 64.8 0 56L0 16C0 7.19 7.19 0 16 0Z" fill="#25C251" fill-opacity="1.000000" fill-rule="evenodd"/>
		<path id="形状结合" d="M36.09 10.49C38.8 10.49 40.99 12.67 40.99 15.38C40.99 17.59 39.55 19.43 37.56 20.07L37.56 22.15L53 22.15C57.06 22.15 60.37 25.38 60.5 29.41L60.5 29.65L60.5 47.65C60.5 51.8 57.13 55.15 53 55.15L19 55.15C14.86 55.15 11.5 51.8 11.5 47.65L11.5 29.65C11.5 25.52 14.86 22.15 19 22.15L34.56 22.15L34.56 20.04C32.61 19.4 31.18 17.57 31.18 15.38C31.18 12.67 33.38 10.49 36.09 10.49ZM36.64 30.6C36.24 31 36.36 31.59 36.77 31.99L36.97 32.13L37.15 32.29C38.54 33.43 39.24 35.17 39.1 36.95L39.08 37.13L38.87 36.97L38.7 36.86L38.5 36.71L38.29 36.58C36.25 35.33 33.73 35.58 32 37.21L31.81 37.31C28.37 37.89 25.73 40.57 25.36 43.91C25.17 44.4 25.53 44.85 26.11 45.04C26.72 45.24 27.35 44.83 27.35 44.18L27.38 43.96L27.45 43.71C27.85 42.11 28.96 40.7 30.4 39.92L30.41 40.07L30.37 40.3C30.05 42.11 30.78 43.98 32.36 45.11L32.61 45.27L32.86 45.41C33.43 45.74 34.06 45.93 34.75 46.07L34.99 46.32C36.77 49.31 40.63 50.18 44.18 48.4L44.37 48.24C44.67 47.88 44.79 47.41 44.6 47.05L44.41 46.86C44.07 46.58 43.6 46.47 43.23 46.63L42.99 46.75L42.74 46.86C40.57 47.74 38.52 47.43 37.18 46.13L37.05 45.99L37.28 45.91C38.14 45.62 38.85 45.05 39.4 44.15L39.5 43.98L39.74 43.7L39.88 43.48C40.65 42.31 40.86 40.85 40.48 39.5L40.49 39.33L40.59 39.08C41.76 36.06 40.79 32.62 38.17 30.6L37.98 30.45C37.62 30.15 37.03 30.24 36.64 30.6ZM24.6 46.05C24.1 46.7 24.26 47.77 24.91 48.25C25.57 48.73 26.65 48.58 27.14 47.93C27.64 47.29 27.49 46.22 26.83 45.74C26.17 45.26 25.1 45.4 24.6 46.05ZM45.02 44.87C44.53 45.65 44.67 46.6 45.34 47.08C45.99 47.56 47.08 47.4 47.57 46.77C48.07 46.11 47.9 45.05 47.25 44.57C46.6 44.09 45.51 44.24 45.02 44.87ZM37.4 38.67L37.56 38.78C38.83 39.75 39.07 41.6 38.06 42.88L37.85 43.11C36.81 44.38 34.87 44.61 33.56 43.63C32.16 42.7 31.86 40.75 32.9 39.42L33.05 39.3L33.15 39.15L33.28 39.02C34.31 37.9 36.13 37.73 37.4 38.67ZM33 28.55C32.5 29.2 32.66 30.27 33.33 30.75C33.98 31.23 35.07 31.08 35.56 30.43C36.06 29.79 35.89 28.72 35.24 28.24C34.59 27.76 33.5 27.9 33 28.55ZM36.09 13.49C35.04 13.49 34.18 14.34 34.18 15.38C34.18 16.43 35.04 17.29 36.09 17.29C37.13 17.29 37.99 16.43 37.99 15.38C37.99 14.34 37.13 13.49 36.09 13.49ZM47.6 58.01C48.42 58.01 49.1 58.67 49.1 59.51C49.1 60.34 48.42 61.01 47.6 61.01L25.47 61.01C24.63 61.01 23.97 60.34 23.97 59.51C23.97 58.67 24.63 58.01 25.47 58.01L47.6 58.01Z" fill="#FFFFFF" fill-opacity="1.000000" fill-rule="evenodd"/>
	</g>
</svg>
