<svg width="72.000000" height="72.000000" viewBox="0 0 72 72" fill="none" xmlns="http://www.w3.org/2000/svg" xmlns:xlink="http://www.w3.org/1999/xlink">
	<desc>
			Created with Pixso.
	</desc>
	<defs>
		<clipPath id="clip117_100">
			<rect id="22#智能语音助手-cbsc" width="72.000000" height="72.000000" fill="white" fill-opacity="0"/>
		</clipPath>
	</defs>
	<g clip-path="url(#clip117_100)">
		<path id="矩形备份-19" d="M16 0L56 0C64.8 0 72 7.19 72 16L72 56C72 64.8 64.8 72 56 72L16 72C7.19 72 0 64.8 0 56L0 16C0 7.19 7.19 0 16 0Z" fill="#9F53E6" fill-opacity="1.000000" fill-rule="evenodd"/>
		<path id="形状结合" d="M47.6 58C48.39 58 49.1 58.7 49.1 59.5C49.1 60.3 48.39 61 47.6 61L25.5 61C24.7 61 24 60.3 24 59.5C24 58.7 24.7 58 25.5 58L47.6 58ZM36.1 10.5C38.8 10.5 41 12.7 41 15.39C41 17.6 39.6 19.5 37.6 20.1L37.6 22.2L53 22.2C57.1 22.2 60.5 25.6 60.5 29.7L60.5 47.7C60.5 51.8 57.1 55.2 53 55.2L19 55.2C14.89 55.2 11.5 51.8 11.5 47.7L11.5 29.7C11.5 25.6 14.89 22.2 19 22.2L34.6 22.2L34.6 20.1C32.6 19.5 31.2 17.6 31.2 15.39C31.2 12.7 33.39 10.5 36.1 10.5ZM42.2 43L29.6 43C29.39 43 29.2 43 29 43.1C28.2 43.39 27.89 44.3 28.3 45.1C30 48.8 32.6 50.8 36 50.8C39.39 50.8 42 48.8 43.6 45.1C43.7 44.89 43.7 44.7 43.7 44.5C43.7 43.7 43 43 42.2 43ZM41.39 45C40.1 47.5 38.2 48.8 35.89 48.8L35.6 48.8C33.39 48.7 31.7 47.5 30.39 45.2L30.39 45L41.39 45ZM24 31C23.3 31 22.7 31.6 22.7 32.2L22.7 37.7C22.7 38.39 23.3 38.89 23.89 38.89C24.6 38.89 25.2 38.3 25.2 37.7L25.2 32.2C25.3 31.6 24.7 31 24 31ZM47.5 31C46.8 31 46.2 31.6 46.2 32.2L46.2 37.7C46.2 38.39 46.8 38.89 47.39 38.89C48.1 38.89 48.7 38.3 48.7 37.7L48.7 32.2C48.8 31.6 48.2 31 47.5 31ZM36.1 13.5C35.1 13.5 34.2 14.39 34.2 15.39C34.2 16.39 35.1 17.29 36.1 17.29C37.1 17.29 38 16.39 38 15.39C38 14.39 37.1 13.5 36.1 13.5Z" fill="#FFFFFF" fill-opacity="1.000000" fill-rule="nonzero"/>
	</g>
</svg>
