<svg width="72.000000" height="72.000000" viewBox="0 0 72 72" fill="none" xmlns="http://www.w3.org/2000/svg" xmlns:xlink="http://www.w3.org/1999/xlink">
	<desc>
			Created with Pixso.
	</desc>
	<defs>
		<clipPath id="clip117_131">
			<rect id="23#实时语音识别-Real-time-ASR" width="72.000000" height="72.000000" fill="white" fill-opacity="0"/>
		</clipPath>
	</defs>
	<g clip-path="url(#clip117_131)">
		<path id="矩形备份-19" d="M16 0L56 0C64.8 0 72 7.19 72 16L72 56C72 64.8 64.8 72 56 72L16 72C7.19 72 0 64.8 0 56L0 16C0 7.19 7.19 0 16 0Z" fill="#7DCC29" fill-opacity="1.000000" fill-rule="evenodd"/>
		<path id="形状结合" d="M39.7 30C41 30 42 31.1 42 32.3L42 57.7C42 59 40.89 60 39.7 60L14.3 60C13.1 60 12 58.89 12 57.7L12 32.3C12 31.1 13.1 30 14.3 30L39.7 30ZM54.6 45.6L57.39 48.39C57.8 48.8 57.8 49.5 57.39 49.89C57 50.3 56.3 50.3 55.89 49.89L54.6 48.6L54.6 50.39C54.6 54.6 51.3 58 47.1 58.1L46.89 58.1L45 58.1C44.39 58.1 43.89 57.6 43.89 57C43.89 56.39 44.39 55.89 45 55.89L46.8 55.89C49.89 55.89 52.3 53.5 52.3 50.39L52.3 48.6L51 49.89C50.6 50.3 50 50.3 49.5 50C49.1 49.6 49 48.8 49.39 48.39L52.2 45.6C52.89 44.89 53.89 44.89 54.6 45.6ZM39.6 32.39L14.39 32.39L14.39 57.6L39.6 57.6L39.6 32.39ZM33 43.5C33.5 43.5 33.8 43.89 33.8 44.39C33.8 47.3 31.8 49.8 29.1 50.6L29.1 54.1C29.1 54.89 28.6 55.5 27.8 55.5L27.7 55.5C26.8 55.5 26.2 54.89 26.2 54L26.2 50.5C23.5 49.8 21.6 47.5 21.39 44.7L21.39 44.5C21.39 44 21.8 43.6 22.3 43.6C22.8 43.6 23.1 44 23.1 44.5C23.1 47 25.2 49.2 27.7 49.2C30.2 49.2 32.3 47.2 32.3 44.6C32.2 43.89 32.5 43.5 33 43.5ZM27.6 35.5C29.89 35.5 31.7 37.3 31.7 39.6L31.7 44.39C31.7 46.7 29.89 48.5 27.6 48.5C25.3 48.5 23.5 46.7 23.5 44.39L23.5 39.6C23.5 37.3 25.3 35.5 27.6 35.5ZM27.6 37.2C26.3 37.2 25.2 38.3 25.2 39.6L25.2 44.39C25.2 45.7 26.3 46.8 27.6 46.8C28.89 46.8 30 45.7 30 44.39L30 39.6C30 38.3 28.89 37.2 27.6 37.2ZM57.7 12C58.89 12 60 13.1 60 14.39L60 40.8C60 42.1 58.89 43.2 57.7 43.2L45.6 43.2C44.89 43.2 44.39 42.7 44.39 42C44.39 41.3 44.89 40.8 45.6 40.8L57.6 40.8L57.6 14.39L32.39 14.39L32.39 26.39C32.39 27.1 31.89 27.6 31.2 27.6C30.5 27.6 30 27.1 30 26.39L30 14.39C30 13.1 31.1 12 32.3 12L57.7 12ZM51.6 18.7C52.6 18.7 53.3 19.39 53.3 20.39L53.3 21C53.3 21.6 52.8 22.1 52.2 22.1C51.6 22.1 51.1 21.6 51.1 21L51.1 20.89L47.3 20.89L47.3 31.89L48.6 31.89C49.2 31.89 49.6 32.3 49.7 32.89C49.7 33.5 49.2 34.1 48.6 34.1L43.89 34.1L43.89 20.89L40.1 20.89L40.1 21C40.1 21.6 39.7 22 39.1 22.1C38.5 22.1 37.89 21.6 37.89 21L37.89 20.39C37.89 19.39 38.6 18.7 39.6 18.7L51.6 18.7ZM24.6 14.6L27.39 17.39C28.1 18.1 28.1 19.1 27.39 19.79L24.6 22.6C24.2 23 23.5 23 23.1 22.6C22.7 22.2 22.7 21.5 23.1 21.1L24.39 19.79L23 19.79C20 19.7 17.6 22 17.39 25L17.39 25.2L17.39 27L17.39 27.1C17.29 27.7 16.89 28.2 16.29 28.2C15.7 28.2 15.2 27.7 15.2 27.1L15.2 25.3C15.2 21.1 18.7 17.6 22.89 17.6L24.5 17.6L23 16.2C22.6 15.8 22.6 15.2 22.89 14.7L23 14.6C23.5 14.2 24.2 14.2 24.6 14.6Z" fill="#FFFFFF" fill-opacity="1.000000" fill-rule="nonzero"/>
	</g>
</svg>
