<svg width="72.000000" height="72.000000" viewBox="0 0 72 72" fill="none" xmlns="http://www.w3.org/2000/svg" xmlns:xlink="http://www.w3.org/1999/xlink">
	<desc>
			Created with Pixso.
	</desc>
	<defs>
		<clipPath id="clip117_97">
			<rect id="24#一句话识别-asr" width="72.000000" height="72.000000" fill="white" fill-opacity="0"/>
		</clipPath>
	</defs>
	<g clip-path="url(#clip117_97)">
		<path id="矩形备份-19" d="M16 0L56 0C64.8 0 72 7.19 72 16L72 56C72 64.8 64.8 72 56 72L16 72C7.19 72 0 64.8 0 56L0 16C0 7.19 7.19 0 16 0Z" fill="#F85835" fill-opacity="1.000000" fill-rule="evenodd"/>
		<path id="形状结合" d="M44.2 12.83C47.5 12.83 50.2 15.53 50.2 18.83L50.2 46.13C50.2 49.43 47.5 52.13 44.2 52.13L38.6 52.13L38.6 56.13C38.6 57.63 37.39 58.83 35.89 58.83C34.39 58.83 33.2 57.63 33.2 56.13L33.2 52.13L27.6 52.13C24.3 52.13 21.6 49.43 21.6 46.13L21.6 18.83C21.6 15.53 24.3 12.83 27.6 12.83L44.2 12.83ZM32.3 34.03L25.39 34.03C24.8 34.03 24.39 34.43 24.39 35.03C24.39 35.63 24.8 36.03 25.39 36.03L32.3 36.03C32.89 36.03 33.3 35.63 33.3 35.03C33.3 34.53 32.89 34.03 32.3 34.03ZM46.6 34.03L39.7 34.03C39.1 34.03 38.7 34.43 38.7 35.03C38.7 35.63 39.1 36.03 39.7 36.03L46.6 36.03C47.2 36.03 47.6 35.63 47.6 35.03C47.6 34.53 47.1 34.03 46.6 34.03ZM32.3 27.03L25.39 27.03C24.8 27.03 24.39 27.43 24.39 28.03C24.39 28.63 24.8 29.03 25.39 29.03L32.3 29.03C32.89 29.03 33.3 28.63 33.3 28.03C33.3 27.43 32.89 27.03 32.3 27.03ZM46.6 27.03L39.7 27.03C39.1 27.03 38.7 27.43 38.7 28.03C38.7 28.63 39.1 29.03 39.7 29.03L46.6 29.03C47.2 29.03 47.6 28.63 47.6 28.03C47.6 27.43 47.1 27.03 46.6 27.03ZM32.3 20.93L25.39 20.93C24.8 20.93 24.39 21.33 24.39 21.93C24.39 22.53 24.8 22.93 25.39 22.93L32.3 22.93C32.89 22.93 33.3 22.53 33.3 21.93C33.3 21.43 32.89 20.93 32.3 20.93ZM46.6 20.93L39.7 20.93C39.1 20.93 38.7 21.33 38.7 21.93C38.7 22.53 39.1 22.93 39.7 22.93L46.6 22.93C47.2 22.93 47.6 22.53 47.6 21.93C47.6 21.43 47.1 20.93 46.6 20.93ZM17.79 20.63C18.5 20.63 19.1 21.23 19.1 21.93L19.1 39.43C19.1 40.13 18.5 40.73 17.79 40.73C17.1 40.73 16.5 40.13 16.5 39.43L16.5 22.03C16.39 21.23 17 20.63 17.79 20.63ZM13.3 25.03C14 25.03 14.6 25.63 14.6 26.33L14.6 34.13C14.6 34.83 14 35.43 13.3 35.43C12.6 35.43 12 34.93 12 34.23L12 26.43C12 25.63 12.6 25.03 13.3 25.03ZM58.7 25.93C59.39 25.93 60 26.53 60 27.23L60 35.03C60 35.73 59.39 36.33 58.7 36.33C58 36.33 57.39 35.73 57.39 35.03L57.39 27.23C57.3 26.53 57.89 25.93 58.7 25.93ZM54.2 20.63C54.89 20.63 55.5 21.23 55.5 21.93L55.5 39.43C55.5 40.13 54.89 40.73 54.2 40.73C53.5 40.73 52.89 40.13 52.89 39.43L52.89 22.03C52.89 21.23 53.5 20.63 54.2 20.63Z" fill="#FFFFFF" fill-opacity="1.000000" fill-rule="evenodd"/>
	</g>
</svg>
