<svg width="72.000000" height="72.000000" viewBox="0 0 72 72" fill="none" xmlns="http://www.w3.org/2000/svg" xmlns:xlink="http://www.w3.org/1999/xlink">
	<desc>
			Created with Pixso.
	</desc>
	<defs>
		<clipPath id="clip117_98">
			<rect id="25#录音文件识别-asrc" width="72.000000" height="72.000000" fill="white" fill-opacity="0"/>
		</clipPath>
	</defs>
	<g clip-path="url(#clip117_98)">
		<path id="矩形备份-19" d="M16 0L56 0C64.8 0 72 7.19 72 16L72 56C72 64.8 64.8 72 56 72L16 72C7.19 72 0 64.8 0 56L0 16C0 7.19 7.19 0 16 0Z" fill="#00ABED" fill-opacity="1.000000" fill-rule="evenodd"/>
		<path id="形状结合" d="M13 36.39C14.2 36.39 15 37.3 15 38.39L15 49C15 49.1 15.2 49.2 15.2 49.2L26.39 49.2C27.6 49.2 28.39 50.1 28.39 51.2C28.39 52.3 27.6 53.2 26.39 53.2L15.2 53.2C12.8 53.2 11 51.3 11 49L11 38.39C11 37.3 11.89 36.39 13 36.39ZM59 36.39C60.1 36.39 61 37.3 61 38.39L61 48.89C61 51.3 59.2 53.1 56.8 53.1L45.6 53.1C44.39 53.1 43.6 52.2 43.6 51.1C43.6 50 44.39 49.1 45.6 49.1L56.8 49.1C56.89 49.1 57 49 57 48.89L57 38.39C57 37.3 57.8 36.39 59 36.39ZM36 42.39C36.5 42.39 36.8 42.7 36.8 43.2L36.8 45.2C36.8 45.7 36.5 46 36 46C35.5 46 35.2 45.7 35.2 45.2L35.2 43.2C35.2 42.7 35.6 42.39 36 42.39ZM36 38.39C36.5 38.39 36.8 38.7 36.8 39.2L36.8 41.2C36.8 41.7 36.5 42 36 42C35.5 42 35.2 41.7 35.2 41.2L35.2 39.2C35.2 38.7 35.6 38.39 36 38.39ZM25.2 27.3C25.7 27.3 26 27.6 26 28.1L26 40.2C26 40.7 25.7 41 25.2 41C24.7 41 24.39 40.7 24.39 40.2L24.39 28.1C24.39 27.6 24.8 27.3 25.2 27.3ZM51.2 31.8C52.89 31.8 53.8 32.7 53.8 34.5L53.8 38.8L52.1 38.8L52.1 38.3C51.7 38.6 51.2 38.8 50.7 38.89L50.5 38.89C49.89 38.89 49.3 38.7 48.8 38.3C48.39 37.8 48.2 37.3 48.2 36.7C48.2 35.39 49 34.6 50.39 34.5L52 34.2C51.89 33.6 51.6 33.2 51.1 33.2C50.39 33.2 49.7 33.5 49.1 33.89L48.6 34.3L48.6 32.39C49.5 32.1 50.39 31.8 51.2 31.8ZM44.8 29.3L44.89 29.5L48.2 38.39L48.3 38.8L46.39 38.8L46.3 38.6L45.7 36.39L42.39 36.39L41.7 38.6L41.6 38.8L39.7 38.8L39.8 38.39L43.1 29.5L43.2 29.3L44.8 29.3ZM22.1 29.8C22.6 29.8 22.89 30.1 22.89 30.6L22.89 37.6C22.89 38.1 22.6 38.39 22.1 38.39C21.6 38.39 21.3 38.1 21.3 37.6L21.3 30.6C21.3 30.1 21.7 29.8 22.1 29.8ZM28.3 29.8C28.8 29.8 29.1 30.1 29.1 30.6L29.1 37.6C29.1 38.1 28.8 38.39 28.3 38.39C27.8 38.39 27.5 38.1 27.5 37.6L27.5 30.6C27.5 30.1 27.89 29.8 28.3 29.8ZM36 34.3C36.5 34.3 36.8 34.6 36.8 35.1L36.8 37.1C36.8 37.6 36.5 37.89 36 37.89C35.5 37.89 35.2 37.6 35.2 37.1L35.2 35.1C35.2 34.7 35.6 34.3 36 34.3ZM52.1 35.6L51 35.8C50.7 35.8 50.39 35.89 50.1 36.1C50 36.2 49.89 36.5 49.89 36.7C49.89 36.89 50 37.1 50.1 37.2C50.2 37.3 50.5 37.39 50.7 37.39C51.1 37.39 51.39 37.3 51.7 37C52 36.6 52.1 36.3 52.1 35.89L52.1 35.6ZM19 31.3C19.5 31.3 19.79 31.6 19.79 32.1L19.79 36.1C19.79 36.6 19.5 36.89 19 36.89C18.5 36.89 18.2 36.6 18.2 36.1L18.2 32.1C18.2 31.6 18.6 31.3 19 31.3ZM31 31.3C31.5 31.3 31.8 31.6 31.8 32.1L31.8 36.1C31.8 36.6 31.5 36.89 31 36.89C30.5 36.89 30.2 36.6 30.2 36.1L30.2 32.1C30.2 31.6 30.6 31.3 31 31.3ZM43.8 31.89L42.8 34.7L44.8 34.7L43.8 31.89ZM36 30.3C36.5 30.3 36.8 30.6 36.8 31.1L36.8 33.1C36.8 33.6 36.5 33.89 36 33.89C35.5 33.89 35.2 33.6 35.2 33.1L35.2 31.1C35.2 30.6 35.6 30.3 36 30.3ZM57 15C59.3 15 61 16.79 61 19L61 29.7C61 30.89 60.2 31.7 59 31.7C57.8 31.7 57 30.8 57 29.7L57 19L45.6 19C44.39 19 43.6 18.1 43.6 17C43.6 15.89 44.39 15 45.6 15L57 15ZM26.39 15C27.6 15 28.39 15.89 28.39 17C28.39 18.1 27.6 19 26.39 19L15.2 19L15 19.2L15 29.7C15 30.89 14.2 31.7 13 31.7C11.8 31.7 11 30.8 11 29.7L11 19.2C11 16.79 12.8 15 15.2 15L26.39 15ZM36 26.3C36.5 26.3 36.8 26.6 36.8 27.1L36.8 29.1C36.8 29.6 36.5 29.89 36 29.89C35.5 29.89 35.2 29.6 35.2 29.1L35.2 27.1C35.2 26.6 35.6 26.3 36 26.3ZM36 22.3C36.5 22.3 36.8 22.6 36.8 23.1L36.8 25.1C36.8 25.6 36.5 25.89 36 25.89C35.5 25.89 35.2 25.6 35.2 25.1L35.2 23.1C35.2 22.6 35.6 22.3 36 22.3Z" fill="#FFFFFF" fill-opacity="1.000000" fill-rule="nonzero"/>
	</g>
</svg>
