<svg width="72.000000" height="72.000000" viewBox="0 0 72 72" fill="none" xmlns="http://www.w3.org/2000/svg" xmlns:xlink="http://www.w3.org/1999/xlink">
	<desc>
			Created with Pixso.
	</desc>
	<defs>
		<clipPath id="clip117_138">
			<rect id="26#语音合成-TTS" width="72.000000" height="72.000000" fill="white" fill-opacity="0"/>
		</clipPath>
	</defs>
	<g clip-path="url(#clip117_138)">
		<path id="矩形备份-19" d="M16 0L56 0C64.79 0 72 7.19 72 16L72 56C72 64.8 64.79 72 56 72L16 72C7.2 72 0 64.8 0 56L0 16C0 7.19 7.2 0 16 0Z" fill="#FF9A2E" fill-opacity="1.000000" fill-rule="evenodd"/>
		<path id="形状结合" d="M55.87 16C58.87 16 61.37 18.5 61.37 21.5L61.37 49.9C61.37 52.9 58.87 55.4 55.87 55.4L50.37 55.4C49.67 56.4 48.57 57 47.27 57C45.17 57 43.47 55.3 43.47 53.3C43.47 51.2 45.17 49.6 47.27 49.6C49.07 49.6 50.57 50.8 50.97 52.5L55.87 52.5C57.27 52.5 58.37 51.4 58.37 50L58.37 21.5C58.37 20.1 57.27 19 55.87 19L31.57 19C30.77 19 30.07 18.3 30.07 17.5C30.07 16.7 30.77 16 31.57 16L55.87 16ZM23.87 14C25.97 14 27.67 15.7 27.67 17.7C27.67 19.7 25.97 21.4 23.87 21.4C22.27 21.4 20.87 20.4 20.37 18.9L15.87 19C14.47 19 13.37 20.1 13.37 21.5L13.37 49.9C13.37 51.3 14.47 52.4 15.87 52.4L40.17 52.4C40.97 52.4 41.67 53.1 41.67 53.9C41.67 54.7 40.97 55.4 40.17 55.4L15.87 55.4C12.87 55.4 10.37 52.9 10.37 49.9L10.37 21.5C10.37 18.5 12.87 16 15.87 16L20.47 16C21.07 14.8 22.37 14 23.87 14ZM27.47 25.1C28.27 25.1 28.97 25.8 28.97 26.6L28.97 45.3C28.97 46.1 28.27 46.8 27.47 46.8C26.67 46.8 25.97 46.1 25.97 45.3L25.97 26.6C25.97 25.8 26.67 25.1 27.47 25.1ZM44.37 25.1C45.17 25.1 45.87 25.8 45.87 26.6L45.87 45.3C45.87 46.1 45.17 46.8 44.37 46.8C43.57 46.8 42.87 46.1 42.87 45.3L42.87 26.6C42.87 25.8 43.57 25.1 44.37 25.1ZM32.17 29.8C32.97 29.8 33.67 30.5 33.67 31.3L33.67 41.6C33.67 42.4 32.97 43.1 32.17 43.1C31.37 43.1 30.67 42.4 30.67 41.6L30.67 31.3C30.67 30.5 31.37 29.8 32.17 29.8ZM37.77 29.8C38.57 29.8 39.27 30.5 39.27 31.3L39.27 41.6C39.27 42.4 38.57 43.1 37.77 43.1C36.97 43.1 36.27 42.4 36.27 41.6L36.27 31.3C36.27 30.5 36.97 29.8 37.77 29.8ZM20.87 31.7C21.67 31.7 22.37 32.4 22.37 33.2L22.37 39.7C22.37 40.5 21.67 41.2 20.87 41.2C20.07 41.2 19.37 40.5 19.37 39.7L19.37 33.2C19.37 32.3 20.07 31.7 20.87 31.7ZM49.97 31.7C50.77 31.7 51.47 32.4 51.47 33.2L51.47 38.8C51.47 39.6 50.77 40.3 49.97 40.3C49.17 40.3 48.47 39.6 48.47 38.8L48.47 33.2C48.47 32.3 49.17 31.7 49.97 31.7Z" fill="#FFFFFF" fill-opacity="1.000000" fill-rule="nonzero"/>
	</g>
</svg>
