<svg width="72.000000" height="72.000000" viewBox="0 0 72 72" fill="none" xmlns="http://www.w3.org/2000/svg" xmlns:xlink="http://www.w3.org/1999/xlink">
	<desc>
			Created with Pixso.
	</desc>
	<defs>
		<clipPath id="clip117_310">
			<rect id="27#八爪鱼自动驾驶云服务-Octopus" width="72.000000" height="72.000000" fill="white" fill-opacity="0"/>
		</clipPath>
	</defs>
	<g clip-path="url(#clip117_310)">
		<path id="矩形备份-19" d="M16 0L56 0C64.83 0 72 7.15 72 16L72 56C72 64.84 64.83 72 56 72L16 72C7.16 72 0 64.84 0 56L0 16C0 7.15 7.16 0 16 0Z" fill="#1476FF" fill-opacity="1.000000" fill-rule="evenodd"/>
		<path id="形状结合" d="M31.56 43.12C32.62 43.43 33.72 43.62 34.85 43.71L34.85 59.26L31.56 59.26L31.56 43.12ZM40.33 43.12L40.33 59.26L37.04 59.26L37.04 43.71C38.17 43.63 39.27 43.43 40.33 43.12ZM45.26 40.7L45.26 47.85C45.26 50.54 46.75 52.95 49.14 54.12L47.7 57.12C46.01 56.29 44.58 55 43.56 53.38C42.52 51.74 41.97 49.82 41.97 47.86L41.97 42.56L42.24 42.45C43.32 41.97 44.33 41.38 45.26 40.7ZM26.74 40.7C27.75 41.43 28.86 42.07 30.03 42.55L30.03 47.85C30.03 49.82 29.48 51.73 28.43 53.37C27.43 54.99 26 56.28 24.3 57.1L22.86 54.11C25.26 52.93 26.74 50.53 26.74 47.84L26.74 40.7ZM50.31 34.59L50.31 47.86C50.31 48.89 51.15 49.74 52.17 49.74C53.2 49.74 54.03 48.89 54.03 47.86L57.32 47.86C57.32 50.73 55.01 53.07 52.17 53.07C49.33 53.07 47.02 50.73 47.02 47.86L47.02 39.22C48.37 37.88 49.49 36.32 50.31 34.59ZM21.68 34.81C22.51 36.55 23.63 38 24.98 39.33L24.98 47.86C24.98 50.73 22.67 53.07 19.83 53.07C16.99 53.07 14.68 50.73 14.68 47.86L17.97 47.86C17.97 48.89 18.81 49.74 19.83 49.74C20.86 49.74 21.68 48.89 21.68 47.86L21.68 34.81ZM47.1 17.86C49.37 20.5 50.74 23.92 50.74 27.68C50.74 35.58 44.68 42.05 37.02 42.6L37.02 39.27C39.8 39 42.31 37.74 44.16 35.83C46.22 33.71 47.39 30.92 47.46 27.97C47.46 27.87 47.46 27.78 47.46 27.68C47.46 27.53 47.46 27.36 47.45 27.2C47.43 27.05 47.43 26.83 47.42 26.67C47.41 26.53 47.38 26.3 47.36 26.14C47.34 26 47.31 25.77 47.28 25.61C47.25 25.46 47.21 25.26 47.17 25.11C47.13 24.95 47.09 24.8 47.05 24.63C47.01 24.49 46.96 24.3 46.91 24.15C46.86 24.01 46.79 23.82 46.74 23.66C46.57 23.21 46.36 22.72 46.14 22.29C46.07 22.14 45.98 22 45.9 21.86C45.57 21.29 45.19 20.73 44.77 20.23L47.1 17.86ZM24.73 17.92L27.07 20.29C26.18 21.36 25.51 22.59 25.05 23.92C25.02 24.01 24.97 24.17 24.93 24.26C24.91 24.36 24.88 24.46 24.85 24.56C24.83 24.61 24.82 24.67 24.8 24.74C24.77 24.86 24.74 24.98 24.71 25.09C24.7 25.12 24.68 25.16 24.68 25.21C24.66 25.33 24.64 25.45 24.62 25.57C24.59 25.71 24.56 25.93 24.54 26.08C24.52 26.23 24.49 26.46 24.48 26.6C24.47 26.75 24.45 26.98 24.43 27.12C24.43 27.2 24.43 27.32 24.43 27.38C24.43 27.47 24.43 27.55 24.43 27.62C24.43 27.66 24.43 27.75 24.43 27.78C24.43 27.84 24.43 27.89 24.43 27.95C24.43 28 24.43 28.04 24.43 28.09C24.43 28.13 24.43 28.18 24.45 28.24C24.45 28.3 24.46 28.35 24.46 28.4C24.46 28.45 24.46 28.48 24.47 28.52C24.47 28.59 24.48 28.65 24.49 28.72C24.5 28.8 24.52 28.95 24.53 29.03C24.83 31.57 25.93 33.93 27.74 35.79C29.59 37.68 32.07 38.96 34.84 39.23L34.84 42.57C27.18 41.99 21.16 35.54 21.16 27.65C21.14 23.96 22.5 20.55 24.73 17.92ZM35.83 19.38C40.26 19.33 43.99 22.88 44.16 27.36C44.16 27.48 44.17 27.59 44.17 27.7C44.17 28.96 43.89 30.18 43.36 31.3C43.1 31.84 42.98 32.42 42.98 33C42.98 33.67 43.15 34.35 43.49 34.95C41.59 36.96 38.91 38.22 35.95 38.22C32.98 38.22 30.31 36.96 28.41 34.95C28.74 34.35 28.91 33.67 28.91 33C28.91 32.41 28.78 31.82 28.52 31.26C28 30.15 27.73 28.95 27.73 27.7C27.72 23.14 31.35 19.45 35.83 19.38ZM35.95 12.74C39.61 12.74 42.96 14.09 45.55 16.31L43.21 18.66C43.09 18.57 42.96 18.46 42.84 18.37C42.46 18.09 42.05 17.82 41.64 17.58C41.51 17.5 41.35 17.41 41.22 17.35C41.08 17.28 40.91 17.18 40.77 17.11C40.49 16.99 40.19 16.86 39.89 16.76C39.75 16.7 39.57 16.63 39.43 16.6C39.29 16.56 39.09 16.49 38.95 16.45C38.8 16.4 38.61 16.36 38.46 16.33C38.31 16.29 38.15 16.27 38 16.24C37.86 16.2 37.65 16.17 37.51 16.15C37.36 16.13 37.14 16.11 36.99 16.1C36.84 16.09 36.63 16.08 36.48 16.07C36.38 16.07 36.26 16.06 36.16 16.06C36.11 16.06 36.05 16.06 36 16.06C35.85 16.06 35.63 16.06 35.48 16.07C35.34 16.08 35.1 16.09 34.97 16.1C34.92 16.1 34.88 16.11 34.83 16.11C34.73 16.11 34.63 16.12 34.53 16.13C34.44 16.14 34.35 16.15 34.25 16.17C34.19 16.18 34.13 16.2 34.07 16.2C32.02 16.54 30.16 17.43 28.63 18.71L26.29 16.36C28.88 14.1 32.25 12.74 35.95 12.74Z" fill="#FFFFFF" fill-opacity="1.000000" fill-rule="evenodd"/>
	</g>
</svg>
