<svg width="72.000000" height="72.000000" viewBox="0 0 72 72" fill="none" xmlns="http://www.w3.org/2000/svg" xmlns:xlink="http://www.w3.org/1999/xlink">
	<desc>
			Created with Pixso.
	</desc>
	<defs>
		<clipPath id="clip117_109">
			<rect id="28#通用类OCR-General-OCR" width="72.000000" height="72.000000" fill="white" fill-opacity="0"/>
		</clipPath>
	</defs>
	<g clip-path="url(#clip117_109)">
		<path id="矩形备份-19" d="M16 0L56 0C64.8 0 72 7.19 72 16L72 56C72 64.8 64.8 72 56 72L16 72C7.19 72 0 64.8 0 56L0 16C0 7.19 7.19 0 16 0Z" fill="#1476FF" fill-opacity="1.000000" fill-rule="evenodd"/>
		<path id="形状结合" d="M14.2 43.7C15 43.7 15.7 44.39 15.7 45.2L15.7 53.79C15.7 55.2 16.79 56.29 18.2 56.29L26.8 56.29C27.59 56.29 28.3 56.99 28.3 57.79C28.3 58.59 27.59 59.29 26.8 59.29L18.2 59.29C15.2 59.29 12.7 56.79 12.7 53.79L12.7 45.2C12.7 44.29 13.39 43.7 14.2 43.7ZM57.8 43.7C58.59 43.7 59.3 44.39 59.3 45.2L59.3 53.79C59.3 56.79 56.8 59.29 53.8 59.29L45.2 59.29C44.39 59.29 43.7 58.59 43.7 57.79C43.7 56.99 44.39 56.29 45.2 56.29L53.8 56.29C55.2 56.29 56.3 55.2 56.3 53.79L56.3 45.2C56.3 44.29 57 43.7 57.8 43.7ZM40 19.99L49 28.99L49 47.99C49 49.7 47.7 50.99 46 50.99L26 50.99C24.3 50.99 23 49.7 23 47.99L23 22.99C23 21.29 24.3 19.99 26 19.99L40 19.99ZM43.5 42.99L28.5 42.99C27.7 42.99 27 43.7 27 44.49C27 45.29 27.7 45.99 28.5 45.99L43.5 45.99C44.3 45.99 45 45.29 45 44.49C45 43.7 44.3 42.99 43.5 42.99ZM38.5 28.09L28.59 28.09C27.8 28.09 27.09 28.79 27.09 29.59L27.09 30.59L27.09 30.7C27.2 31.49 27.8 32.09 28.59 32.09L32 32.09L32 38.59C32 39.39 32.7 40.09 33.5 40.09L33.7 40.09C34.5 39.99 35.2 39.39 35.2 38.59L35.2 32.09L38.59 32.09C39.39 32.09 40.09 31.39 40.09 30.59L40.09 29.59C40 28.7 39.39 28.09 38.5 28.09ZM26.8 12.59C27.59 12.59 28.3 13.29 28.3 14.09C28.3 14.89 27.59 15.59 26.8 15.59L18.2 15.59C16.79 15.59 15.7 16.7 15.7 18.09L15.7 26.7C15.7 27.49 15 28.2 14.2 28.2C13.39 28.2 12.7 27.49 12.7 26.7L12.7 18.09C12.7 15.09 15.2 12.59 18.2 12.59L26.8 12.59ZM53.8 12.59C56.8 12.59 59.3 15.09 59.3 18.09L59.3 26.7C59.3 27.49 58.59 28.2 57.8 28.2C57 28.2 56.3 27.49 56.3 26.7L56.3 18.09C56.3 16.7 55.2 15.59 53.8 15.59L45.2 15.59C44.39 15.59 43.7 14.89 43.7 14.09C43.7 13.29 44.39 12.59 45.2 12.59L53.8 12.59Z" fill="#FFFFFF" fill-opacity="1.000000" fill-rule="nonzero"/>
	</g>
</svg>
