<svg width="72.000000" height="72.000000" viewBox="0 0 72 72" fill="none" xmlns="http://www.w3.org/2000/svg" xmlns:xlink="http://www.w3.org/1999/xlink">
	<desc>
			Created with Pixso.
	</desc>
	<defs>
		<clipPath id="clip117_99">
			<rect id="29#证件类OCR-Card-OCR" width="72.000000" height="72.000000" fill="white" fill-opacity="0"/>
		</clipPath>
	</defs>
	<g clip-path="url(#clip117_99)">
		<path id="矩形备份-19" d="M16 0L56 0C64.8 0 72 7.19 72 16L72 56C72 64.8 64.8 72 56 72L16 72C7.19 72 0 64.8 0 56L0 16C0 7.19 7.19 0 16 0Z" fill="#25C251" fill-opacity="1.000000" fill-rule="evenodd"/>
		<path id="形状结合" d="M14.2 43.7C15 43.7 15.7 44.39 15.7 45.2L15.7 53.79C15.7 55.2 16.79 56.29 18.2 56.29L26.8 56.29C27.59 56.29 28.3 56.99 28.3 57.79C28.3 58.59 27.59 59.29 26.8 59.29L18.2 59.29C15.2 59.29 12.7 56.79 12.7 53.79L12.7 45.2C12.7 44.29 13.39 43.7 14.2 43.7ZM57.8 43.7C58.59 43.7 59.3 44.39 59.3 45.2L59.3 53.79C59.3 56.79 56.8 59.29 53.8 59.29L45.2 59.29C44.39 59.29 43.7 58.59 43.7 57.79C43.7 56.99 44.39 56.29 45.2 56.29L53.8 56.29C55.2 56.29 56.3 55.2 56.3 53.79L56.3 45.2C56.3 44.29 57 43.7 57.8 43.7ZM49.8 25.99C51 25.99 52 26.89 52 27.99L52 44.99C52 46.09 51.09 46.99 49.8 46.99L22.2 46.99C21 46.99 20 46.09 20 44.99L20 27.99C20 26.89 20.89 25.99 22.2 25.99L49.8 25.99ZM29 29.99C27 29.99 25.5 31.49 25.5 33.39L25.5 35.89C25.5 36.89 25.89 37.89 26.8 38.49L26.8 38.89C26.7 38.99 26.2 39.09 25.89 39.2C24.8 39.49 23 39.99 23 41.49L23 42.7C23 42.89 23.09 43.09 23.39 43.09L34.59 43.09C34.8 43.09 35 42.99 35 42.7L35 41.49C35 39.99 33.3 39.49 32.2 39.2C31.89 39.09 31.39 38.99 31.3 38.89L31.3 38.49C32.09 37.79 32.59 36.89 32.59 35.89L32.59 33.39C32.5 31.49 31 29.99 29 29.99ZM44 40.99L38 40.99C37.39 40.99 37 41.39 37 41.99C37 42.59 37.39 42.99 38 42.99L44 42.99C44.59 42.99 45 42.59 45 41.99C45 41.39 44.59 40.99 44 40.99ZM48 35.99L38 35.99C37.39 35.99 37 36.39 37 36.99C37 37.59 37.39 37.99 38 37.99L48 37.99C48.59 37.99 49 37.59 49 36.99C49 36.39 48.59 35.99 48 35.99ZM48 30.99L38 30.99C37.39 30.99 37 31.39 37 31.99C37 32.59 37.39 32.99 38 32.99L48 32.99C48.59 32.99 49 32.59 49 31.99C49 31.39 48.59 30.99 48 30.99ZM26.8 12.59C27.59 12.59 28.3 13.29 28.3 14.09C28.3 14.89 27.59 15.59 26.8 15.59L18.2 15.59C16.79 15.59 15.7 16.7 15.7 18.09L15.7 26.7C15.7 27.49 15 28.2 14.2 28.2C13.39 28.2 12.7 27.49 12.7 26.7L12.7 18.09C12.7 15.09 15.2 12.59 18.2 12.59L26.8 12.59ZM53.8 12.59C56.8 12.59 59.3 15.09 59.3 18.09L59.3 26.7C59.3 27.49 58.59 28.2 57.8 28.2C57 28.2 56.3 27.49 56.3 26.7L56.3 18.09C56.3 16.7 55.2 15.59 53.8 15.59L45.2 15.59C44.39 15.59 43.7 14.89 43.7 14.09C43.7 13.29 44.39 12.59 45.2 12.59L53.8 12.59Z" fill="#FFFFFF" fill-opacity="1.000000" fill-rule="nonzero"/>
	</g>
</svg>
