<svg width="72.000000" height="72.000000" viewBox="0 0 72 72" fill="none" xmlns="http://www.w3.org/2000/svg" xmlns:xlink="http://www.w3.org/1999/xlink">
	<desc>
			Created with Pixso.
	</desc>
	<defs>
		<clipPath id="clip117_108">
			<rect id="3#人脸识别服务-FRS" width="72.000000" height="72.000000" fill="white" fill-opacity="0"/>
		</clipPath>
	</defs>
	<g clip-path="url(#clip117_108)">
		<path id="矩形备份-19" d="M16 0L56 0C64.8 0 72 7.19 72 16L72 56C72 64.8 64.8 72 56 72L16 72C7.19 72 0 64.8 0 56L0 16C0 7.19 7.19 0 16 0Z" fill="#00ABED" fill-opacity="1.000000" fill-rule="evenodd"/>
		<path id="形状结合" d="M26.79 12.62C27.62 12.62 28.29 13.29 28.29 14.12C28.29 14.95 27.62 15.62 26.79 15.62L18.2 15.62C16.82 15.62 15.7 16.74 15.7 18.12L15.7 26.77C15.7 27.6 15.03 28.27 14.2 28.27C13.37 28.27 12.7 27.6 12.7 26.77L12.7 18.12C12.7 15.08 15.16 12.62 18.2 12.62L26.79 12.62ZM45.2 12.62C44.37 12.62 43.7 13.29 43.7 14.12C43.7 14.95 44.37 15.62 45.2 15.62L53.79 15.62C55.17 15.62 56.29 16.74 56.29 18.12L56.29 26.77C56.29 27.6 56.96 28.27 57.79 28.27C58.62 28.27 59.29 27.6 59.29 26.77L59.29 18.12C59.29 15.08 56.83 12.62 53.79 12.62L45.2 12.62ZM26.79 59.27C27.62 59.27 28.29 58.6 28.29 57.77C28.29 56.94 27.62 56.27 26.79 56.27L18.2 56.27C16.82 56.27 15.7 55.15 15.7 53.77L15.7 45.12C15.7 44.29 15.03 43.62 14.2 43.62C13.37 43.62 12.7 44.29 12.7 45.12L12.7 53.77C12.7 56.81 15.16 59.27 18.2 59.27L26.79 59.27ZM45.2 59.27C44.37 59.27 43.7 58.6 43.7 57.77C43.7 56.94 44.37 56.27 45.2 56.27L53.79 56.27C55.17 56.27 56.29 55.15 56.29 53.77L56.29 45.12C56.29 44.29 56.96 43.62 57.79 43.62C58.62 43.62 59.29 44.29 59.29 45.12L59.29 53.77C59.29 56.81 56.83 59.27 53.79 59.27L45.2 59.27ZM26.81 41.93L26.94 42.09C28.93 45.13 32.29 46.93 35.99 46.93C39.69 46.93 43.05 45.14 45.04 42.09L45.17 41.93C45.7 41.4 46.51 41.32 47.13 41.63L47.25 41.7C47.97 42.15 48.13 43.13 47.63 43.87C45.15 47.71 40.7 50.08 35.98 50.08C31.43 50.08 27.18 47.87 24.55 44.19L24.39 43.95C23.87 43.32 24 42.49 24.49 41.92L24.59 41.82C25.26 41.14 26.2 41.33 26.81 41.93ZM34.27 34.07C35.03 34.07 35.59 34.64 35.59 35.4L35.59 37.7C35.59 38.9 36.52 39.82 37.71 39.82C38.47 39.82 39.04 40.39 39.04 41.15C39.04 41.91 38.47 42.48 37.71 42.48C35.11 42.48 32.94 40.3 32.94 37.7L32.94 35.4C32.94 34.64 33.51 34.07 34.27 34.07ZM45.19 27.74C46.29 27.74 47.09 28.54 47.09 29.64L47.09 33.09C47.09 34.19 46.29 34.99 45.19 34.99C44.09 34.99 43.29 34.19 43.29 33.09L43.29 29.64C43.29 28.54 44.09 27.74 45.19 27.74ZM26.79 27.74C27.89 27.74 28.69 28.54 28.69 29.64L28.69 33.09C28.69 34.19 27.89 34.99 26.79 34.99C25.69 34.99 24.89 34.19 24.89 33.09L24.89 29.64L24.9 29.48C24.97 28.47 25.74 27.74 26.79 27.74Z" fill="#FFFFFF" fill-opacity="1.000000" fill-rule="nonzero"/>
	</g>
</svg>
