<svg width="72.000000" height="72.000000" viewBox="0 0 72 72" fill="none" xmlns="http://www.w3.org/2000/svg" xmlns:xlink="http://www.w3.org/1999/xlink">
	<desc>
			Created with Pixso.
	</desc>
	<defs>
		<clipPath id="clip117_132">
			<rect id="30#票据类OCR-Receipt-OCR" width="72.000000" height="72.000000" fill="white" fill-opacity="0"/>
		</clipPath>
	</defs>
	<g clip-path="url(#clip117_132)">
		<path id="矩形备份-19" d="M16 0L56 0C64.8 0 72 7.19 72 16L72 56C72 64.8 64.8 72 56 72L16 72C7.19 72 0 64.8 0 56L0 16C0 7.19 7.19 0 16 0Z" fill="#FF9A2E" fill-opacity="1.000000" fill-rule="evenodd"/>
		<path id="形状结合" d="M14.2 43.7C15 43.7 15.7 44.39 15.7 45.2L15.7 53.79C15.7 55.2 16.79 56.29 18.2 56.29L26.8 56.29C27.59 56.29 28.3 56.99 28.3 57.79C28.3 58.59 27.59 59.29 26.8 59.29L18.2 59.29C15.2 59.29 12.7 56.79 12.7 53.79L12.7 45.2C12.7 44.29 13.39 43.7 14.2 43.7ZM57.8 43.7C58.59 43.7 59.3 44.39 59.3 45.2L59.3 53.79C59.3 56.79 56.8 59.29 53.8 59.29L45.2 59.29C44.39 59.29 43.7 58.59 43.7 57.79C43.7 56.99 44.39 56.29 45.2 56.29L53.8 56.29C55.2 56.29 56.3 55.2 56.3 53.79L56.3 45.2C56.3 44.29 57 43.7 57.8 43.7ZM49.8 25.99C51 25.99 52 26.89 52 27.99L52 32.99C50 32.99 48.39 34.59 48.39 36.49C48.39 38.39 50 39.99 52 39.99L52 44.99C52 46.09 51.09 46.89 50 46.99L49.8 46.99L22.2 46.99C21 46.99 20 46.09 20 44.99L20 39.99C22 39.99 23.59 38.39 23.59 36.49C23.59 34.59 22 32.99 20 32.99L20 27.99C20 26.89 20.89 25.99 22.2 25.99L49.8 25.99ZM27.59 41.29C27.09 41.29 26.7 41.7 26.7 42.2L26.7 43.99C26.7 44.49 27.09 44.89 27.59 44.89C28.09 44.89 28.5 44.49 28.5 43.99L28.5 42.2C28.39 41.7 28 41.29 27.59 41.29ZM40 40.99L32 40.99C31.39 40.99 31 41.39 31 41.99C31 42.59 31.39 42.99 32 42.99L40 42.99C40.59 42.99 41 42.59 41 41.99C41 41.39 40.59 40.99 40 40.99ZM27.59 36.89C27.09 36.89 26.7 37.29 26.7 37.79L26.7 39.59C26.7 40.09 27.09 40.49 27.59 40.49C28.09 40.49 28.5 40.09 28.5 39.59L28.5 37.79C28.39 37.29 28 36.89 27.59 36.89ZM45 35.99L32 35.99C31.39 35.99 31 36.39 31 36.99C31 37.59 31.39 37.99 32 37.99L45 37.99C45.59 37.99 46 37.59 46 36.99C46 36.39 45.59 35.99 45 35.99ZM27.59 32.49C27.09 32.49 26.7 32.89 26.7 33.39L26.7 35.2C26.7 35.7 27.09 36.09 27.59 36.09C28.09 36.09 28.5 35.7 28.5 35.2L28.5 33.39C28.39 32.89 28 32.49 27.59 32.49ZM45 30.99L32 30.99C31.39 30.99 31 31.39 31 31.99C31 32.59 31.39 32.99 32 32.99L45 32.99C45.59 32.99 46 32.59 46 31.99C46 31.39 45.59 30.99 45 30.99ZM27.59 28.2C27.09 28.2 26.7 28.59 26.7 29.09L26.7 30.89C26.7 31.39 27.09 31.79 27.59 31.79C28.09 31.79 28.5 31.39 28.5 30.89L28.5 29.09C28.39 28.59 28 28.2 27.59 28.2ZM26.8 12.59C27.59 12.59 28.3 13.29 28.3 14.09C28.3 14.89 27.59 15.59 26.8 15.59L18.2 15.59C16.79 15.59 15.7 16.7 15.7 18.09L15.7 26.7C15.7 27.49 15 28.2 14.2 28.2C13.39 28.2 12.7 27.49 12.7 26.7L12.7 18.09C12.7 15.09 15.2 12.59 18.2 12.59L26.8 12.59ZM53.8 12.59C56.8 12.59 59.3 15.09 59.3 18.09L59.3 26.7C59.3 27.49 58.59 28.2 57.8 28.2C57 28.2 56.3 27.49 56.3 26.7L56.3 18.09C56.3 16.7 55.2 15.59 53.8 15.59L45.2 15.59C44.39 15.59 43.7 14.89 43.7 14.09C43.7 13.29 44.39 12.59 45.2 12.59L53.8 12.59Z" fill="#FFFFFF" fill-opacity="1.000000" fill-rule="nonzero"/>
	</g>
</svg>
