<svg width="72.000000" height="72.000000" viewBox="0 0 72 72" fill="none" xmlns="http://www.w3.org/2000/svg" xmlns:xlink="http://www.w3.org/1999/xlink">
	<desc>
			Created with Pixso.
	</desc>
	<defs>
		<clipPath id="clip117_105">
			<rect id="31#行业类-Domain-OCR" width="72.000000" height="72.000000" fill="white" fill-opacity="0"/>
		</clipPath>
	</defs>
	<g clip-path="url(#clip117_105)">
		<path id="矩形备份-19" d="M16 0L56 0C64.8 0 72 7.19 72 16L72 56C72 64.8 64.8 72 56 72L16 72C7.19 72 0 64.8 0 56L0 16C0 7.19 7.19 0 16 0Z" fill="#00ABED" fill-opacity="1.000000" fill-rule="evenodd"/>
		<path id="形状结合" d="M14.2 43.7C15 43.7 15.7 44.39 15.7 45.2L15.7 53.79C15.7 55.2 16.79 56.29 18.2 56.29L26.8 56.29C27.59 56.29 28.3 56.99 28.3 57.79C28.3 58.59 27.59 59.29 26.8 59.29L18.2 59.29C15.2 59.29 12.7 56.79 12.7 53.79L12.7 45.2C12.7 44.29 13.39 43.7 14.2 43.7ZM57.8 43.7C58.59 43.7 59.3 44.39 59.3 45.2L59.3 53.79C59.3 56.79 56.8 59.29 53.8 59.29L45.2 59.29C44.39 59.29 43.7 58.59 43.7 57.79C43.7 56.99 44.39 56.29 45.2 56.29L53.8 56.29C55.2 56.29 56.3 55.2 56.3 53.79L56.3 45.2C56.3 44.29 57 43.7 57.8 43.7ZM50 32.99C51.09 32.99 52 33.89 52 34.99L52 45.99C52 47.09 51.09 47.99 50 47.99L41 47.99C39.89 47.99 39 47.09 39 45.99L39 34.99C39 33.89 39.89 32.99 41 32.99L50 32.99ZM37 22.99C38.09 22.99 39 23.89 39 24.99L39 26.99L46.5 26.99C47.59 26.99 48.5 27.89 48.5 28.99L48.5 31.2C48.5 31.79 48.09 32.2 47.5 32.2C46.89 32.2 46.5 31.79 46.5 31.2L46.5 28.99L23 28.99L23 32.99C23 33.39 23.3 33.79 23.7 33.99L31.8 36.59C32.7 36.89 33.59 36.99 34.59 36.99L35.5 36.99C36.09 36.99 36.5 37.39 36.5 37.99C36.5 38.59 36.09 38.99 35.5 38.99L34.59 38.99C33.5 38.99 32.3 38.79 31.2 38.49L23.7 36.09L23.7 42.49C23.7 43.09 24.09 43.49 24.7 43.49L35.3 43.49C35.89 43.49 36.3 43.89 36.3 44.49C36.3 45.09 35.89 45.49 35.3 45.49L24.7 45.49C23 45.49 21.7 44.2 21.7 42.49L21.7 35.2C21.7 35.09 21.7 34.99 21.7 34.99C21.3 34.49 21 33.79 21 32.99L21 28.99C21 27.89 21.89 26.99 23 26.99L30 26.99L30 24.99C30 23.89 30.89 22.99 32 22.99L37 22.99ZM45 40.99L42 40.99C41.39 40.99 41 41.39 41 41.99C41 42.59 41.39 42.99 42 42.99L45 42.99C45.59 42.99 46 42.59 46 41.99C46 41.39 45.59 40.99 45 40.99ZM47 36.99L42 36.99C41.39 36.99 41 37.39 41 37.99C41 38.59 41.39 38.99 42 38.99L47 38.99C47.59 38.99 48 38.59 48 37.99C48 37.39 47.59 36.99 47 36.99ZM26.8 12.59C27.59 12.59 28.3 13.29 28.3 14.09C28.3 14.89 27.59 15.59 26.8 15.59L18.2 15.59C16.79 15.59 15.7 16.7 15.7 18.09L15.7 26.7C15.7 27.49 15 28.2 14.2 28.2C13.39 28.2 12.7 27.49 12.7 26.7L12.7 18.09C12.7 15.09 15.2 12.59 18.2 12.59L26.8 12.59ZM53.8 12.59C56.8 12.59 59.3 15.09 59.3 18.09L59.3 26.7C59.3 27.49 58.59 28.2 57.8 28.2C57 28.2 56.3 27.49 56.3 26.7L56.3 18.09C56.3 16.7 55.2 15.59 53.8 15.59L45.2 15.59C44.39 15.59 43.7 14.89 43.7 14.09C43.7 13.29 44.39 12.59 45.2 12.59L53.8 12.59ZM37 24.99L32 24.99L32 26.99L37 26.99L37 24.99Z" fill="#FFFFFF" fill-opacity="1.000000" fill-rule="nonzero"/>
	</g>
</svg>
