<svg width="72.000000" height="72.000000" viewBox="0 0 72 72" fill="none" xmlns="http://www.w3.org/2000/svg" xmlns:xlink="http://www.w3.org/1999/xlink">
	<desc>
			Created with Pixso.
	</desc>
	<defs>
		<clipPath id="clip117_104">
			<rect id="32#自定义OCR-Custom-OCR" width="72.000000" height="72.000000" fill="white" fill-opacity="0"/>
		</clipPath>
	</defs>
	<g clip-path="url(#clip117_104)">
		<path id="矩形备份-19" d="M16 0L56 0C64.8 0 72 7.19 72 16L72 56C72 64.8 64.8 72 56 72L16 72C7.19 72 0 64.8 0 56L0 16C0 7.19 7.19 0 16 0Z" fill="#9F53E6" fill-opacity="1.000000" fill-rule="evenodd"/>
		<path id="形状结合" d="M14.2 43.7C15 43.7 15.7 44.39 15.7 45.2L15.7 53.79C15.7 55.2 16.79 56.29 18.2 56.29L26.8 56.29C27.59 56.29 28.3 56.99 28.3 57.79C28.3 58.59 27.59 59.29 26.8 59.29L18.2 59.29C15.2 59.29 12.7 56.79 12.7 53.79L12.7 45.2C12.7 44.29 13.39 43.7 14.2 43.7ZM57.8 43.7C58.59 43.7 59.3 44.39 59.3 45.2L59.3 53.79C59.3 56.79 56.8 59.29 53.8 59.29L45.2 59.29C44.39 59.29 43.7 58.59 43.7 57.79C43.7 56.99 44.39 56.29 45.2 56.29L53.8 56.29C55.2 56.29 56.3 55.2 56.3 53.79L56.3 45.2C56.3 44.29 57 43.7 57.8 43.7ZM52 31.99L52 44.89C52 46.09 51.09 46.99 49.8 46.99L22.2 46.99C21 46.99 20 45.99 20 44.89L20 31.99L52 31.99ZM30 33.99C29.39 33.99 29 34.39 29 34.99L29 43.99C29 44.59 29.39 44.99 30 44.99C30.59 44.99 31 44.59 31 43.99L31 34.99C31 34.39 30.59 33.99 30 33.99ZM42 33.99C41.39 33.99 41 34.39 41 34.99L41 43.99C41 44.59 41.39 44.99 42 44.99C42.59 44.99 43 44.59 43 43.99L43 34.99C43 34.39 42.59 33.99 42 33.99ZM26 37.99L23 37.99C22.39 37.99 22 38.39 22 38.99C22 39.59 22.39 39.99 23 39.99L26 39.99C26.59 39.99 27 39.59 27 38.99C27 38.39 26.59 37.99 26 37.99ZM37 37.99L34 37.99C33.39 37.99 33 38.39 33 38.99C33 39.59 33.39 39.99 34 39.99L37 39.99C37.59 39.99 38 39.59 38 38.99C38 38.39 37.59 37.99 37 37.99ZM49 34.99L46 34.99C45.39 34.99 45 35.39 45 35.99C45 36.59 45.39 36.99 46 36.99L49 36.99C49.59 36.99 50 36.59 50 35.99C50 35.39 49.59 34.99 49 34.99ZM49.8 24.99C51 24.99 52 25.89 52 27.09L52 29.99L20 29.99L20 27.09C20 25.99 20.89 25.09 22 24.99L22.2 24.99L49.8 24.99ZM26.8 12.59C27.59 12.59 28.3 13.29 28.3 14.09C28.3 14.89 27.59 15.59 26.8 15.59L18.2 15.59C16.79 15.59 15.7 16.7 15.7 18.09L15.7 26.7C15.7 27.49 15 28.2 14.2 28.2C13.39 28.2 12.7 27.49 12.7 26.7L12.7 18.09C12.7 15.09 15.2 12.59 18.2 12.59L26.8 12.59ZM53.8 12.59C56.8 12.59 59.3 15.09 59.3 18.09L59.3 26.7C59.3 27.49 58.59 28.2 57.8 28.2C57 28.2 56.3 27.49 56.3 26.7L56.3 18.09C56.3 16.7 55.2 15.59 53.8 15.59L45.2 15.59C44.39 15.59 43.7 14.89 43.7 14.09C43.7 13.29 44.39 12.59 45.2 12.59L53.8 12.59Z" fill="#FFFFFF" fill-opacity="1.000000" fill-rule="nonzero"/>
	</g>
</svg>
