<svg width="72.000000" height="72.000000" viewBox="0 0 72 72" fill="none" xmlns="http://www.w3.org/2000/svg" xmlns:xlink="http://www.w3.org/1999/xlink">
	<desc>
			Created with Pixso.
	</desc>
	<defs>
		<clipPath id="clip117_124">
			<rect id="33#自然语言处理-NLP" width="72.000000" height="72.000000" fill="white" fill-opacity="0"/>
		</clipPath>
	</defs>
	<g clip-path="url(#clip117_124)">
		<path id="矩形备份-19" d="M16 0L56 0C64.8 0 72 7.19 72 16L72 56C72 64.8 64.8 72 56 72L16 72C7.19 72 0 64.8 0 56L0 16C0 7.19 7.19 0 16 0Z" fill="#7DCC29" fill-opacity="1.000000" fill-rule="evenodd"/>
		<path id="形状结合" d="M21.06 43.61C23.46 45.01 24.36 48.11 22.96 50.61C22.76 50.91 22.56 51.21 22.36 51.41C23.56 52.61 24.96 53.71 26.46 54.61C33.06 58.41 41.26 58.01 47.36 53.61C48.06 53.11 48.96 53.31 49.46 54.01C49.96 54.71 49.76 55.61 49.06 56.11C42.06 61.11 32.56 61.71 24.96 57.21C22.96 56.11 21.26 54.61 19.66 53.01C18.46 53.31 17.06 53.11 15.86 52.51C13.46 51.11 12.56 48.01 13.96 45.51C15.36 43.01 18.56 42.21 21.06 43.61ZM45.66 16.31C53.56 19.91 58.66 27.81 58.66 36.61C58.66 38.91 58.36 41.11 57.66 43.31C58.56 44.21 59.06 45.51 59.06 46.81C59.06 49.61 56.76 51.91 53.96 51.91C51.16 51.91 48.86 49.61 48.86 46.81C48.86 44.01 51.16 41.71 53.96 41.71C54.26 41.71 54.66 41.71 54.96 41.81C55.46 40.11 55.66 38.41 55.66 36.61C55.66 29.01 51.16 22.11 44.36 19.01C43.56 18.71 43.26 17.81 43.66 17.01C44.06 16.21 44.86 16.01 45.66 16.31ZM16.66 47.01C16.06 48.01 16.46 49.31 17.46 49.91C18.46 50.51 19.76 50.11 20.36 49.11C20.96 48.11 20.56 46.81 19.56 46.21C18.56 45.61 17.26 46.01 16.66 47.01ZM53.96 44.71C52.76 44.71 51.86 45.61 51.86 46.81C51.86 48.01 52.76 48.91 53.96 48.91C55.16 48.91 56.06 48.01 56.06 46.81C56.06 45.61 55.16 44.71 53.96 44.71ZM44.46 44.61C44.96 44.61 45.36 45.01 45.36 45.51C45.36 46.01 44.96 46.41 44.46 46.41L25.96 46.41C25.46 46.41 25.06 46.01 25.06 45.51C25.06 45.01 25.46 44.61 25.96 44.61L44.46 44.61ZM44.36 40.71C44.86 40.71 45.26 41.11 45.26 41.61C45.26 42.11 44.86 42.51 44.36 42.51L25.86 42.51C25.36 42.51 24.96 42.11 24.96 41.61C24.96 41.11 25.36 40.71 25.86 40.71L44.36 40.71ZM39.16 14.41C40.56 16.81 39.76 20.01 37.26 21.41C34.76 22.81 31.66 22.01 30.26 19.51C30.06 19.21 29.96 18.91 29.86 18.61C28.16 19.01 26.56 19.71 25.06 20.61C18.36 24.31 14.76 31.61 15.46 39.11C15.56 39.91 14.96 40.71 14.16 40.71C13.36 40.81 12.56 40.21 12.56 39.41C11.76 30.81 15.96 22.41 23.66 18.01C25.66 16.91 27.76 16.01 29.96 15.51C30.36 14.31 31.16 13.21 32.26 12.51C34.56 11.11 37.66 11.91 39.16 14.41ZM34.36 28.01C34.96 28.01 35.56 28.61 35.56 29.21L35.56 29.91C35.56 30.41 35.16 30.81 34.66 30.81C34.16 30.81 33.76 30.41 33.76 29.91L31.66 29.91L31.66 36.71L32.76 36.71C33.26 36.71 33.66 37.01 33.66 37.51L33.66 37.61C33.66 38.11 33.26 38.51 32.76 38.51L27.96 38.51C27.46 38.51 27.06 38.11 27.06 37.61C27.06 37.11 27.46 36.71 27.96 36.71L28.86 36.71L28.86 29.91L26.96 29.91C26.96 30.41 26.66 30.81 26.16 30.81L26.06 30.81C25.56 30.81 25.16 30.41 25.16 29.91L25.16 29.21C25.16 28.61 25.76 28.01 26.36 28.01L34.36 28.01ZM44.36 36.71C44.86 36.71 45.26 37.11 45.26 37.61C45.26 38.11 44.76 38.51 44.36 38.51L37.46 38.51C36.96 38.51 36.56 38.11 36.56 37.61C36.56 37.11 36.96 36.71 37.46 36.71L44.36 36.71ZM44.36 32.81C44.86 32.81 45.26 33.21 45.26 33.71C45.26 34.21 44.76 34.61 44.36 34.61L37.46 34.61C36.96 34.61 36.56 34.21 36.56 33.71C36.56 33.21 36.96 32.81 37.46 32.81L44.36 32.81ZM33.66 15.11C32.66 15.71 32.36 17.01 32.86 18.01C33.46 19.01 34.76 19.31 35.76 18.81C36.76 18.31 37.06 16.91 36.56 15.91C36.06 14.91 34.66 14.51 33.66 15.11Z" fill="#FFFFFF" fill-opacity="1.000000" fill-rule="nonzero"/>
	</g>
</svg>
