<svg width="72.000000" height="72.000000" viewBox="0 0 72 72" fill="none" xmlns="http://www.w3.org/2000/svg" xmlns:xlink="http://www.w3.org/1999/xlink">
	<desc>
			Created with Pixso.
	</desc>
	<defs>
		<clipPath id="clip117_127">
			<rect id="34#语言理解-NLPLU" width="72.000000" height="72.000000" fill="white" fill-opacity="0"/>
		</clipPath>
	</defs>
	<g clip-path="url(#clip117_127)">
		<path id="矩形备份-19" d="M16 0L56 0C64.8 0 72 7.19 72 16L72 56C72 64.8 64.8 72 56 72L16 72C7.19 72 0 64.8 0 56L0 16C0 7.19 7.19 0 16 0Z" fill="#F85835" fill-opacity="1.000000" fill-rule="evenodd"/>
		<path id="形状结合" d="M21.06 43.61C23.46 45.01 24.36 48.11 22.96 50.61C22.76 50.91 22.56 51.21 22.36 51.41C23.56 52.61 24.96 53.71 26.46 54.61C33.06 58.41 41.26 58.01 47.36 53.61C48.06 53.11 48.96 53.31 49.46 54.01C49.96 54.71 49.76 55.61 49.06 56.11C42.06 61.11 32.56 61.71 24.96 57.21C22.96 56.11 21.26 54.61 19.66 53.01C18.46 53.31 17.06 53.11 15.86 52.51C13.46 51.11 12.56 48.01 13.96 45.51C15.36 43.01 18.56 42.21 21.06 43.61ZM45.66 16.31C53.56 19.91 58.66 27.81 58.66 36.61C58.66 38.91 58.36 41.11 57.66 43.31C58.56 44.21 59.06 45.51 59.06 46.81C59.06 49.61 56.76 51.91 53.96 51.91C51.16 51.91 48.86 49.61 48.86 46.81C48.86 44.01 51.16 41.71 53.96 41.71C54.26 41.71 54.66 41.71 54.96 41.81C55.46 40.11 55.66 38.41 55.66 36.61C55.66 29.01 51.16 22.11 44.36 19.01C43.56 18.71 43.26 17.81 43.66 17.01C44.06 16.21 44.86 16.01 45.66 16.31ZM43.56 26.31C44.06 26.51 44.16 27.11 44.06 27.71C43.86 28.31 43.26 28.41 42.56 28.21C39.86 26.81 36.56 27.21 34.36 29.41C32.56 31.21 31.96 33.81 32.66 36.11L32.66 36.21L32.76 36.01C34.06 31.51 38.76 28.81 43.46 29.81L43.76 29.91C47.56 30.91 50.36 34.41 50.36 38.31C50.36 38.91 49.96 39.31 49.36 39.31C48.76 39.31 48.36 38.91 48.36 38.31C48.26 35.21 46.26 32.61 43.26 31.81C40.86 31.21 38.26 31.91 36.66 33.61L36.36 33.71L36.56 33.71C38.06 33.71 39.36 34.41 40.06 35.71L40.16 35.81L40.36 36.01C43.46 39.41 43.36 44.71 40.26 48.11L40.06 48.31C36.86 51.41 31.96 51.81 28.46 49.11C28.06 48.71 27.96 48.11 28.36 47.61C28.76 47.21 29.36 47.11 29.76 47.41C32.46 49.41 36.26 49.11 38.66 46.71C40.46 44.91 41.06 42.41 40.46 40.21L40.36 40.01L40.26 40.21C38.86 44.61 34.26 47.11 29.66 46.11L29.36 46.11C24.96 45.01 22.16 40.71 22.76 36.31C22.76 35.71 23.36 35.21 23.96 35.41C24.56 35.51 24.86 36.01 24.76 36.51L24.76 36.61C24.26 40.01 26.46 43.31 29.76 44.21C32.16 44.81 34.76 44.11 36.36 42.41L36.46 42.31C34.96 42.31 33.56 41.51 32.86 40.31L32.76 40.21L32.56 40.01C29.56 36.51 29.56 31.31 32.66 28.01L32.86 27.81C35.76 24.91 40.06 24.31 43.56 26.31ZM16.66 47.01C16.06 48.01 16.46 49.31 17.46 49.91C18.46 50.51 19.76 50.11 20.36 49.11C20.96 48.11 20.56 46.81 19.56 46.21C18.56 45.61 17.26 46.01 16.66 47.01ZM53.96 44.71C52.76 44.71 51.86 45.61 51.86 46.81C51.86 48.01 52.76 48.91 53.96 48.91C55.16 48.91 56.06 48.01 56.06 46.81C56.06 45.61 55.16 44.71 53.96 44.71ZM39.16 14.41C40.56 16.81 39.76 20.01 37.26 21.41C34.76 22.81 31.66 22.01 30.26 19.51C30.06 19.21 29.96 18.91 29.86 18.61C28.16 19.01 26.56 19.71 25.06 20.61C18.36 24.31 14.76 31.61 15.46 39.11C15.56 39.91 14.96 40.71 14.16 40.71C13.36 40.81 12.56 40.21 12.56 39.41C11.76 30.81 15.96 22.41 23.66 18.01C25.66 16.91 27.76 16.01 29.96 15.51C30.36 14.31 31.16 13.21 32.26 12.51C34.56 11.11 37.66 11.91 39.16 14.41ZM36.46 35.41C34.96 35.41 33.76 36.61 33.76 38.11C33.76 38.51 33.86 38.81 33.96 39.11L34.06 39.21C34.16 39.31 34.26 39.41 34.26 39.51C34.76 40.21 35.56 40.71 36.46 40.71C37.96 40.71 39.16 39.51 39.16 38.01C39.16 37.61 39.06 37.31 38.96 37.01L38.86 36.91C38.76 36.81 38.76 36.71 38.76 36.71C38.26 35.81 37.46 35.41 36.46 35.41ZM33.66 15.11C32.66 15.71 32.36 17.01 32.86 18.01C33.46 19.01 34.76 19.31 35.76 18.81C36.76 18.31 37.06 16.91 36.56 15.91C36.06 14.91 34.66 14.51 33.66 15.11Z" fill="#FFFFFF" fill-opacity="1.000000" fill-rule="nonzero"/>
	</g>
</svg>
