<svg width="72.000000" height="72.000000" viewBox="0 0 72 72" fill="none" xmlns="http://www.w3.org/2000/svg" xmlns:xlink="http://www.w3.org/1999/xlink">
	<desc>
			Created with Pixso.
	</desc>
	<defs>
		<clipPath id="clip117_126">
			<rect id="35#语言生成-NLPLG" width="72.000000" height="72.000000" fill="white" fill-opacity="0"/>
		</clipPath>
	</defs>
	<g clip-path="url(#clip117_126)">
		<path id="矩形备份-19" d="M16 0L56 0C64.8 0 72 7.19 72 16L72 56C72 64.8 64.8 72 56 72L16 72C7.19 72 0 64.8 0 56L0 16C0 7.19 7.19 0 16 0Z" fill="#9F53E6" fill-opacity="1.000000" fill-rule="evenodd"/>
		<path id="形状结合" d="M21.01 43.66C23.45 45.07 24.29 48.19 22.88 50.63C22.71 50.92 22.52 51.2 22.3 51.44C23.51 52.68 24.9 53.75 26.44 54.64C33.06 58.46 41.21 58 47.31 53.66C47.98 53.18 48.92 53.34 49.4 54.01C49.88 54.68 49.72 55.62 49.05 56.1C42 61.12 32.59 61.65 24.94 57.24C22.96 56.1 21.19 54.68 19.68 53.03C18.45 53.33 17.11 53.18 15.92 52.49C13.48 51.08 12.64 47.96 14.05 45.52C15.46 43.08 18.57 42.25 21.01 43.66ZM45.61 16.36C53.49 19.95 58.65 27.84 58.65 36.67C58.65 38.95 58.31 41.19 57.64 43.33C58.51 44.25 59.05 45.49 59.05 46.86C59.05 49.68 56.77 51.96 53.95 51.96C51.13 51.96 48.85 49.68 48.85 46.86C48.85 44.04 51.13 41.76 53.95 41.76C54.29 41.76 54.62 41.79 54.94 41.86C55.4 40.19 55.64 38.45 55.64 36.68C55.64 29.04 51.17 22.21 44.35 19.1C43.6 18.76 43.26 17.87 43.61 17.11C43.96 16.35 44.85 16.01 45.61 16.36ZM16.65 47.02C16.07 48.02 16.41 49.31 17.42 49.89C18.43 50.47 19.71 50.13 20.29 49.12C20.87 48.12 20.53 46.83 19.52 46.25C18.51 45.67 17.23 46.02 16.65 47.02ZM53.95 44.75C52.79 44.75 51.85 45.69 51.85 46.85C51.85 48.01 52.79 48.95 53.95 48.95C55.11 48.95 56.05 48.01 56.05 46.85C56.05 45.69 55.11 44.75 53.95 44.75ZM44.69 35.76C46.41 35.76 47.76 37.13 47.76 38.86L47.76 45.19C47.76 46.92 46.41 48.29 44.69 48.29L36.34 48.29C34.62 48.29 33.27 46.92 33.27 45.19L33.27 40.97C33.27 40.4 33.68 39.98 34.25 39.98C34.82 39.98 35.23 40.4 35.23 40.97L35.23 45.19C35.23 45.78 35.75 46.31 36.33 46.31L44.68 46.31C45.26 46.31 45.78 45.78 45.78 45.19L45.78 38.86C45.78 38.27 45.26 37.74 44.68 37.74L41.55 37.74C40.98 37.74 40.57 37.32 40.57 36.75C40.57 36.18 40.98 35.76 41.55 35.76L44.69 35.76ZM40.97 39.06L41.15 39.17C41.17 39.19 41.27 39.29 41.31 39.33L41.42 39.44L41.57 39.64L43.57 44.42C43.74 44.94 43.56 45.36 43.08 45.69L42.97 45.74C42.45 45.92 42.03 45.73 41.71 45.24L41.66 45.13L41.35 44.18L40 44.18L39.59 45.02C39.42 45.54 38.91 45.78 38.39 45.66L38.27 45.63C37.71 45.44 37.48 44.87 37.68 44.27L39.65 39.66C39.84 39.1 40.42 38.87 40.97 39.06ZM37.9 26.37C39.3 26.37 40.45 27.53 40.45 28.94L40.45 37.38C40.45 38.79 39.31 39.95 37.9 39.95L27.66 39.95L25.4 42.24C24.84 42.81 23.99 42.84 23.4 42.35L23.28 42.24C22.98 41.93 22.83 41.61 22.83 41.18L22.83 28.94C22.83 27.53 23.97 26.37 25.38 26.37L37.9 26.37ZM40.62 41.4L40.1 42.67L41.14 42.67L40.62 41.4ZM39.11 14.39C40.52 16.83 39.68 19.95 37.24 21.36C34.8 22.77 31.68 21.93 30.27 19.49C30.1 19.2 29.96 18.89 29.86 18.58C28.18 19.01 26.56 19.68 25.02 20.56C18.4 24.38 14.72 31.67 15.44 39.12C15.52 39.94 14.91 40.68 14.09 40.76C13.27 40.84 12.53 40.23 12.45 39.41C11.62 30.79 15.87 22.38 23.52 17.96C25.5 16.82 27.61 16 29.79 15.5C30.14 14.28 30.95 13.2 32.14 12.51C34.58 11.11 37.7 11.95 39.11 14.39ZM37.9 28.35L25.38 28.35C25.01 28.35 24.8 28.56 24.8 28.94L24.8 40.06L26.72 38.12L26.86 37.98L37.91 37.98C38.28 37.98 38.49 37.77 38.49 37.39L38.49 28.95C38.48 28.57 38.27 28.35 37.9 28.35ZM33.21 33.76C33.78 33.76 34.19 34.18 34.19 34.75C34.19 35.32 33.78 35.74 33.21 35.74L26.95 35.74C26.38 35.74 25.97 35.32 25.97 34.75C25.97 34.18 26.38 33.76 26.95 33.76L33.21 33.76ZM36.34 30.59C36.91 30.59 37.32 31.01 37.32 31.58C37.32 32.15 36.91 32.57 36.34 32.57L26.95 32.57C26.38 32.57 25.97 32.15 25.97 31.58C25.97 31.01 26.38 30.59 26.95 30.59L36.34 30.59ZM33.64 15.12C32.64 15.7 32.29 16.98 32.87 17.99C33.45 19 34.73 19.34 35.74 18.76C36.74 18.18 37.09 16.9 36.51 15.89C35.93 14.88 34.65 14.54 33.64 15.12Z" fill="#FFFFFF" fill-opacity="1.000000" fill-rule="nonzero"/>
	</g>
</svg>
