<svg width="72.000000" height="72.000000" viewBox="0 0 72 72" fill="none" xmlns="http://www.w3.org/2000/svg" xmlns:xlink="http://www.w3.org/1999/xlink">
	<desc>
			Created with Pixso.
	</desc>
	<defs>
		<clipPath id="clip117_123">
			<rect id="36#定制自然语言处理-NLPC" width="72.000000" height="72.000000" fill="white" fill-opacity="0"/>
		</clipPath>
	</defs>
	<g clip-path="url(#clip117_123)">
		<path id="矩形备份-19" d="M16 0L56 0C64.8 0 72 7.19 72 16L72 56C72 64.8 64.8 72 56 72L16 72C7.19 72 0 64.8 0 56L0 16C0 7.19 7.19 0 16 0Z" fill="#00ABED" fill-opacity="1.000000" fill-rule="evenodd"/>
		<path id="形状结合" d="M21.01 43.66C23.45 45.07 24.29 48.19 22.88 50.63C22.71 50.92 22.52 51.2 22.3 51.44C23.51 52.68 24.9 53.75 26.44 54.64C33.06 58.46 41.21 58 47.31 53.66C47.98 53.18 48.92 53.34 49.4 54.01C49.88 54.68 49.72 55.62 49.05 56.1C42 61.12 32.59 61.65 24.94 57.24C22.96 56.1 21.19 54.68 19.68 53.04C18.45 53.34 17.11 53.19 15.92 52.5C13.48 51.09 12.64 47.97 14.05 45.53C15.46 43.08 18.57 42.25 21.01 43.66ZM45.61 16.36C53.49 19.95 58.65 27.84 58.65 36.67C58.65 38.95 58.31 41.19 57.64 43.33C58.52 44.24 59.05 45.49 59.05 46.85C59.05 49.67 56.77 51.95 53.95 51.95C51.13 51.95 48.85 49.67 48.85 46.85C48.85 44.03 51.13 41.75 53.95 41.75C54.29 41.75 54.62 41.78 54.94 41.85C55.4 40.18 55.64 38.44 55.64 36.67C55.64 29.03 51.17 22.2 44.35 19.09C43.6 18.75 43.26 17.86 43.61 17.1C43.96 16.34 44.85 16.01 45.61 16.36ZM16.65 47.02C16.07 48.02 16.41 49.31 17.42 49.89C18.43 50.47 19.71 50.13 20.29 49.12C20.87 48.12 20.53 46.83 19.52 46.25C18.51 45.67 17.23 46.02 16.65 47.02ZM40.25 25.45C42.12 25.45 43.61 26.93 43.61 28.8L43.61 37.87L43.91 37.87C46.27 37.87 48.18 39.78 48.29 42.15L48.29 42.36C48.29 44.77 46.16 46.85 43.79 46.85L37.85 46.85C37.23 46.85 36.78 46.4 36.78 45.78C36.78 45.16 37.23 44.71 37.85 44.71L43.79 44.71C45.01 44.71 46.03 43.67 46.03 42.36C46.03 41.06 45.01 40.01 43.79 40.01L37.85 40.01C37.23 40.01 36.78 39.56 36.78 38.94C36.78 38.32 37.23 37.87 37.85 37.87L41.35 37.87L41.35 28.68C41.35 28.08 40.84 27.54 40.26 27.48L40.14 27.47L27.58 27.47C26.94 27.47 26.37 28.04 26.37 28.68L26.37 32.17L33.41 32.17C33.71 32.17 34.02 32.29 34.25 32.46L34.41 32.62L35.46 34.26C35.64 34.63 35.64 35.02 35.43 35.44L34.4 37.04C34.15 37.29 33.96 37.47 33.74 37.49L33.62 37.61L26.37 37.61L26.37 44.52C26.37 45.12 26.88 45.66 27.46 45.72L27.58 45.73L32.22 45.73L32.22 45.55C32.22 43.16 34.06 41.18 36.4 41.07L36.61 41.07L42.55 41.07C43.17 41.07 43.62 41.52 43.62 42.14C43.62 42.76 43.17 43.21 42.55 43.21L36.61 43.21C35.39 43.21 34.37 44.25 34.37 45.56C34.37 46.87 35.39 47.91 36.61 47.91L42.55 47.91C43.17 47.91 43.62 48.36 43.62 48.98C43.62 49.6 43.17 50.05 42.55 50.05L36.61 50.05C35.1 50.05 33.66 49.21 32.92 47.96L27.7 47.88C25.89 47.88 24.44 46.5 24.35 44.72L24.35 44.53L24.35 28.8C24.35 26.93 25.83 25.45 27.71 25.45L40.25 25.45ZM53.95 44.75C52.79 44.75 51.85 45.69 51.85 46.85C51.85 48.01 52.79 48.95 53.95 48.95C55.11 48.95 56.05 48.01 56.05 46.85C56.05 45.69 55.11 44.75 53.95 44.75ZM39.11 14.39C40.52 16.83 39.68 19.95 37.24 21.36C34.8 22.77 31.68 21.93 30.27 19.49C30.1 19.2 29.96 18.89 29.86 18.58C28.18 19.01 26.56 19.68 25.02 20.56C18.4 24.38 14.72 31.67 15.44 39.12C15.52 39.94 14.91 40.68 14.09 40.76C13.27 40.84 12.53 40.23 12.45 39.41C11.62 30.79 15.87 22.38 23.52 17.96C25.5 16.82 27.61 16 29.79 15.5C30.14 14.28 30.95 13.2 32.14 12.51C34.58 11.11 37.7 11.95 39.11 14.39ZM32.77 34.31L26.36 34.31L26.36 35.59L32.77 35.59L33.15 34.95L32.77 34.31ZM33.64 15.12C32.64 15.7 32.29 16.98 32.87 17.99C33.45 19 34.73 19.34 35.74 18.76C36.74 18.18 37.09 16.9 36.51 15.89C35.93 14.88 34.65 14.54 33.64 15.12Z" fill="#FFFFFF" fill-opacity="1.000000" fill-rule="nonzero"/>
	</g>
</svg>
