<svg width="72.000000" height="72.000000" viewBox="0 0 72 72" fill="none" xmlns="http://www.w3.org/2000/svg" xmlns:xlink="http://www.w3.org/1999/xlink">
	<desc>
			Created with Pixso.
	</desc>
	<defs>
		<clipPath id="clip117_128">
			<rect id="37#机器翻译-NLPMT" width="72.000000" height="72.000000" fill="white" fill-opacity="0"/>
		</clipPath>
	</defs>
	<g clip-path="url(#clip117_128)">
		<path id="矩形备份-19" d="M16 0L56 0C64.8 0 72 7.19 72 16L72 56C72 64.8 64.8 72 56 72L16 72C7.19 72 0 64.8 0 56L0 16C0 7.19 7.19 0 16 0Z" fill="#F85835" fill-opacity="1.000000" fill-rule="evenodd"/>
		<path id="形状结合" d="M14.2 43.67C15.03 43.67 15.7 44.34 15.7 45.17L15.7 53.82C15.7 55.2 16.82 56.32 18.2 56.32L26.79 56.32C27.62 56.32 28.29 56.99 28.29 57.82C28.29 58.65 27.62 59.32 26.79 59.32L18.2 59.32C15.16 59.32 12.7 56.86 12.7 53.82L12.7 45.17C12.7 44.34 13.37 43.67 14.2 43.67ZM57.79 43.67C58.62 43.67 59.29 44.34 59.29 45.17L59.29 53.82C59.29 56.86 56.83 59.32 53.79 59.32L45.2 59.32C44.37 59.32 43.7 58.65 43.7 57.82C43.7 56.99 44.37 56.32 45.2 56.32L53.79 56.32C55.17 56.32 56.29 55.2 56.29 53.82L56.29 45.17C56.29 44.34 56.96 43.67 57.79 43.67ZM47.99 50.97C48.54 50.97 48.99 51.42 48.99 51.97C48.99 52.52 48.54 52.97 47.99 52.97L39.99 52.97C39.44 52.97 38.99 52.52 38.99 51.97C38.99 51.42 39.44 50.97 39.99 50.97L47.99 50.97ZM45.49 33.97C49.63 33.97 52.99 37.33 52.99 41.47L52.99 43.06C53.57 43.27 53.99 43.82 53.99 44.47C53.99 45.12 53.57 45.68 52.99 45.88L52.99 46.97C52.99 48.07 52.09 48.97 50.99 48.97L36.99 48.97C35.89 48.97 34.99 48.07 34.99 46.97L34.99 45.88C34.41 45.67 33.99 45.12 33.99 44.47C33.99 43.82 34.41 43.26 34.99 43.06L34.99 41.47C34.99 37.33 38.35 33.97 42.49 33.97L45.49 33.97ZM45.49 35.97L42.49 35.97C39.45 35.97 36.99 38.43 36.99 41.47L36.99 46.97L50.99 46.97L50.99 41.47C50.99 38.43 48.53 35.97 45.49 35.97ZM41.49 39.97C42.32 39.97 42.99 40.64 42.99 41.47C42.99 42.3 42.32 42.97 41.49 42.97C40.66 42.97 39.99 42.3 39.99 41.47C39.99 40.64 40.66 39.97 41.49 39.97ZM46.49 39.97C47.32 39.97 47.99 40.64 47.99 41.47C47.99 42.3 47.32 42.97 46.49 42.97C45.66 42.97 44.99 42.3 44.99 41.47C44.99 40.64 45.66 39.97 46.49 39.97ZM31.99 21.97C33.65 21.97 34.99 23.31 34.99 24.97L34.99 33.97C34.99 35.63 33.65 36.97 31.99 36.97L22.99 36.97C21.33 36.97 19.99 35.63 19.99 33.97L19.99 24.97C19.99 23.31 21.33 21.97 22.99 21.97L31.99 21.97ZM31.99 23.97L22.99 23.97C22.44 23.97 21.99 24.42 21.99 24.97L21.99 33.97C21.99 34.52 22.44 34.97 22.99 34.97L31.99 34.97C32.54 34.97 32.99 34.52 32.99 33.97L32.99 24.97C32.99 24.42 32.54 23.97 31.99 23.97ZM43.09 21.5C43.37 21.98 43.2 22.59 42.72 22.87L41.51 23.57C45.85 25.12 48.69 27.76 49.94 31.47C50.12 31.99 49.83 32.56 49.31 32.74C48.79 32.92 48.22 32.63 48.04 32.11C46.94 28.85 44.35 26.56 40.18 25.23L40.44 27.23C40.51 27.78 40.13 28.28 39.58 28.35C39.03 28.42 38.53 28.04 38.46 27.49L38 23.99L38 23.87C38 23.86 38 23.77 38 23.76C38 23.74 38.02 23.65 38.02 23.63L38.07 23.48C38.08 23.46 38.11 23.39 38.12 23.37C38.13 23.35 38.17 23.28 38.19 23.26L38.31 23.13C38.33 23.12 38.43 23.03 38.45 23.02C38.47 23.01 38.53 22.97 38.55 22.96L41.71 21.13C42.2 20.86 42.81 21.02 43.09 21.5ZM26.79 12.67C27.62 12.67 28.29 13.34 28.29 14.17C28.29 15 27.62 15.67 26.79 15.67L18.2 15.67C16.82 15.67 15.7 16.79 15.7 18.17L15.7 26.82C15.7 27.65 15.03 28.32 14.2 28.32C13.37 28.32 12.7 27.65 12.7 26.82L12.7 18.17C12.7 15.13 15.16 12.67 18.2 12.67L26.79 12.67ZM53.79 12.67C56.83 12.67 59.29 15.13 59.29 18.17L59.29 26.82C59.29 27.65 58.62 28.32 57.79 28.32C56.96 28.32 56.29 27.65 56.29 26.82L56.29 18.17C56.29 16.79 55.17 15.67 53.79 15.67L45.2 15.67C44.37 15.67 43.7 15 43.7 14.17C43.7 13.34 44.37 12.67 45.2 12.67L53.79 12.67ZM32.72 47.68C32.72 47.7 32.72 47.78 32.71 47.8L32.69 47.9L32.65 48.04C32.64 48.05 32.61 48.14 32.6 48.15C32.59 48.17 32.54 48.23 32.53 48.25L32.43 48.36C32.42 48.37 32.33 48.46 32.32 48.47C32.31 48.48 32.23 48.53 32.22 48.54C32.21 48.55 32.1 48.6 32.09 48.61L28.99 50.4C28.51 50.68 27.9 50.51 27.62 50.03C27.34 49.55 27.51 48.94 27.99 48.66L29.2 47.96C24.86 46.41 22.02 43.77 20.77 40.06C20.59 39.54 20.88 38.97 21.4 38.79C21.92 38.61 22.49 38.9 22.67 39.42C23.77 42.68 26.36 44.97 30.53 46.3L30.27 44.3C30.2 43.75 30.58 43.25 31.13 43.18C31.68 43.11 32.18 43.49 32.25 44.04L32.71 47.54L32.72 47.68L32.71 47.54L32.72 47.68Z" fill="#FFFFFF" fill-opacity="1.000000" fill-rule="nonzero"/>
	</g>
</svg>
