<svg width="72.000000" height="72.000000" viewBox="0 0 72 72" fill="none" xmlns="http://www.w3.org/2000/svg" xmlns:xlink="http://www.w3.org/1999/xlink">
	<desc>
			Created with Pixso.
	</desc>
	<defs>
		<clipPath id="clip117_125">
			<rect id="38#知识图谱-NLPKG" width="72.000000" height="72.000000" fill="white" fill-opacity="0"/>
		</clipPath>
	</defs>
	<g clip-path="url(#clip117_125)">
		<path id="矩形备份-19" d="M16 0L56 0C64.8 0 72 7.19 72 16L72 56C72 64.8 64.8 72 56 72L16 72C7.19 72 0 64.8 0 56L0 16C0 7.19 7.19 0 16 0Z" fill="#25C251" fill-opacity="1.000000" fill-rule="evenodd"/>
		<path id="形状结合" d="M31.73 55.6C32.76 55.38 33.8 55.81 34.36 56.66L37.45 56.67C37.98 55.87 38.95 55.43 39.92 55.58L40.09 55.61C41.23 55.86 42.04 56.86 42.03 58.01C42.03 59.16 41.22 60.15 40.08 60.4C39.06 60.62 38.02 60.19 37.46 59.35L34.37 59.34C33.84 60.14 32.87 60.58 31.9 60.44L31.73 60.41C30.59 60.16 29.77 59.16 29.77 58.01C29.77 56.86 30.59 55.85 31.73 55.6ZM42.03 52.12L42.03 54.8L29.75 54.8L29.75 52.12L42.03 52.12ZM35.89 11.47C37.64 11.47 39.13 12.74 39.39 14.45C39.61 15.98 38.79 17.45 37.41 18.09L37.25 18.16L37.25 23.78C37.49 23.86 37.82 24 38.04 24.12L43.65 19.56C43.35 18.59 43.47 17.49 44.02 16.63L44.14 16.45C45.29 14.9 47.49 14.56 49.07 15.68C50.65 16.81 51 18.99 49.85 20.55C49.3 21.29 48.47 21.79 47.5 21.94C47.32 21.95 47.13 21.95 46.97 21.94C46.44 21.94 45.92 21.82 45.45 21.59L39.88 26.18L39.92 26.28C40.08 26.68 40.17 27.1 40.2 27.54L40.21 27.8C40.21 28.07 40.18 28.34 40.13 28.61L40.1 28.74L42.65 30.26C44.17 29.01 46.42 28.9 48.02 30.06L50.43 28.49C50.3 27.82 50.36 27.04 50.64 26.41L50.74 26.2C51.4 24.97 52.73 24.25 54.14 24.36C55.54 24.47 56.75 25.39 57.21 26.71C57.51 27.59 57.43 28.56 57 29.39C56.57 30.22 55.82 30.84 54.93 31.11C54.58 31.23 54.21 31.29 53.83 31.29C53.28 31.29 52.73 31.16 52.24 30.91C52.17 30.87 52.1 30.83 52.03 30.79L49.58 32.34L49.62 32.47C49.69 32.73 49.73 33 49.75 33.28L49.76 33.55C49.76 33.91 49.71 34.28 49.62 34.63L49.58 34.76L51.93 36.37C53.06 35.67 54.54 35.63 55.69 36.32L55.87 36.43C56.72 37.01 57.24 37.9 57.36 38.86C57.39 39.05 57.39 39.36 57.36 39.68C57.33 40 57.29 40.23 57.24 40.37C56.77 41.8 55.42 42.77 53.89 42.77C52.56 42.78 51.33 42.05 50.73 40.88C50.37 40.19 50.26 39.41 50.4 38.66L48.07 36.95C47.41 37.43 46.54 37.73 45.72 37.78L45.47 37.79C45.22 37.79 44.96 37.77 44.71 37.72L44.54 37.69L42.03 40.68L42.03 50.65L39.34 50.65L39.34 40.19C39.34 39.88 39.45 39.58 39.65 39.33L42.2 36.3L42.05 36.13C41.52 35.45 41.2 34.63 41.15 33.77L41.14 33.53C41.14 33.25 41.17 32.98 41.22 32.71L41.25 32.58L38.7 31.06C38.32 31.38 37.81 31.69 37.34 31.87L37.24 50.66L34.53 50.66L34.53 31.86C34.06 31.69 33.52 31.41 33.14 31.08L30.52 32.54L30.55 32.68C30.59 32.86 30.61 33.04 30.62 33.23L30.63 33.51C30.63 34.46 30.3 35.37 29.73 36.1L29.58 36.28L32.14 39.32C32.3 39.52 32.4 39.76 32.43 40.01L32.44 40.16L32.44 50.66L29.74 50.66L29.74 40.69L27.23 37.7L27.06 37.73C26.89 37.76 26.73 37.78 26.56 37.79L26.3 37.8C25.39 37.8 24.51 37.51 23.78 36.99L21.35 38.55L21.38 38.73C21.63 40.32 20.72 41.9 19.16 42.5L18.98 42.56C18.63 42.67 18.26 42.73 17.89 42.72C17.33 42.72 16.78 42.59 16.28 42.34C15.03 41.69 14.29 40.37 14.41 38.98C14.52 37.59 15.46 36.41 16.8 35.96L16.93 35.94L17.07 35.9C17.71 35.74 18.38 35.76 19 35.95L19.17 36C19.37 36.08 19.62 36.19 19.81 36.31L22.22 34.74L22.18 34.61C22.11 34.35 22.07 34.08 22.05 33.8L22.04 33.53C22.04 33.17 22.09 32.8 22.18 32.45L22.22 32.32L19.81 30.71C19.33 30.99 18.7 31.22 18.14 31.26L17.9 31.27C16.51 31.26 15.26 30.45 14.69 29.2C14.13 27.95 14.36 26.48 15.3 25.46C16.23 24.44 17.68 24.06 19 24.48C19.89 24.77 20.62 25.39 21.06 26.21C21.41 26.9 21.52 27.67 21.38 28.42L23.72 30.1C25.31 28.94 27.57 28.97 29.09 30.22L31.68 28.74L31.65 28.61C31.61 28.43 31.59 28.25 31.58 28.07L31.57 27.8C31.57 27.28 31.67 26.77 31.86 26.29L31.9 26.19L26.39 21.57L26.28 21.63C25.9 21.81 25.49 21.91 25.08 21.95L24.84 21.96C24.66 21.97 24.47 21.97 24.25 21.96C22.98 21.79 21.9 20.96 21.43 19.79C20.96 18.61 21.18 17.27 22 16.3C22.82 15.33 24.11 14.87 25.35 15.1C26.27 15.24 27.1 15.73 27.64 16.48C28.29 17.37 28.48 18.5 28.16 19.54L33.65 24.21C33.87 24.09 34.2 23.92 34.44 23.84L34.54 18.19L34.38 18.12C33.06 17.5 32.24 16.13 32.38 14.66L32.4 14.48C32.65 12.74 34.14 11.47 35.89 11.47ZM17.51 38.13C16.85 38.35 16.5 39.04 16.72 39.68C16.82 39.99 17.05 40.24 17.35 40.39C17.65 40.54 18 40.56 18.31 40.46C18.63 40.35 18.89 40.13 19.04 39.83C19.17 39.58 19.2 39.29 19.14 39.02L19.1 38.9C18.89 38.27 18.17 37.92 17.51 38.13ZM53.29 38.18C52.99 38.33 52.77 38.58 52.66 38.89C52.56 39.2 52.58 39.53 52.73 39.82C52.88 40.11 53.14 40.33 53.46 40.44C53.78 40.54 54.13 40.52 54.42 40.37C54.72 40.22 54.94 39.97 55.05 39.65C55.16 39.34 55.14 39 54.99 38.71C54.88 38.5 54.72 38.33 54.52 38.2L54.25 38.11C53.94 38.01 53.59 38.04 53.29 38.18ZM45.47 31.54C44.33 31.54 43.42 32.44 43.42 33.55C43.42 34.66 44.34 35.56 45.47 35.56C46.02 35.56 46.55 35.34 46.93 34.96C47.31 34.58 47.53 34.07 47.52 33.53L47.51 33.4C47.44 32.41 46.63 31.62 45.61 31.55L45.47 31.54ZM25.53 31.69C24.76 32 24.26 32.73 24.26 33.54C24.27 34.64 25.18 35.53 26.31 35.53L26.6 35.53C27.24 35.43 27.85 35.04 28.15 34.46L28.22 34.31C28.54 33.56 28.37 32.7 27.78 32.12C27.19 31.55 26.3 31.38 25.53 31.69ZM34.44 26.39C33.85 26.96 33.68 27.82 33.99 28.57C34.31 29.32 35.06 29.82 35.89 29.82C37.02 29.82 37.94 28.92 37.94 27.82C37.94 27.01 37.45 26.27 36.68 25.96C35.92 25.64 35.03 25.81 34.44 26.39ZM53.85 26.57C53.72 26.57 53.58 26.59 53.47 26.62C52.81 26.84 52.46 27.53 52.68 28.17C52.78 28.48 53 28.74 53.31 28.89C53.6 29.04 53.95 29.07 54.26 28.97C54.58 28.87 54.84 28.64 54.99 28.35C55.14 28.06 55.16 27.73 55.06 27.42C54.96 27.11 54.74 26.86 54.43 26.71C54.25 26.62 54.06 26.57 53.85 26.57ZM17.92 26.57C17.73 26.57 17.54 26.61 17.35 26.71C17.05 26.85 16.82 27.1 16.72 27.4C16.51 28.04 16.86 28.73 17.51 28.95C17.83 29.05 18.17 29.02 18.49 28.86C18.79 28.72 19.02 28.48 19.12 28.17C19.33 27.53 18.98 26.84 18.34 26.63C18.2 26.59 18.06 26.57 17.92 26.57ZM46.81 17.26C46.49 17.32 46.2 17.5 46.01 17.76C45.81 18.02 45.73 18.35 45.77 18.67C45.82 18.99 46 19.29 46.27 19.48C46.54 19.67 46.88 19.75 47.2 19.7C47.52 19.64 47.8 19.47 47.99 19.21C48.18 18.94 48.26 18.61 48.22 18.31C48.16 18 47.98 17.72 47.71 17.53C47.5 17.37 47.24 17.28 47 17.27L46.81 17.26ZM24.64 17.17C23.95 17.17 23.39 17.73 23.39 18.42C23.39 19.11 23.95 19.67 24.64 19.67C25.33 19.67 25.89 19.11 25.89 18.42C25.89 17.73 25.33 17.17 24.64 17.17ZM35.89 13.72C35.2 13.72 34.64 14.27 34.64 14.94C34.64 15.61 35.2 16.16 35.89 16.16C36.58 16.16 37.14 15.61 37.14 14.94C37.15 14.27 36.59 13.72 35.89 13.72Z" fill="#FFFFFF" fill-opacity="1.000000" fill-rule="nonzero"/>
	</g>
</svg>
