<svg width="72.000000" height="72.000000" viewBox="0 0 72 72" fill="none" xmlns="http://www.w3.org/2000/svg" xmlns:xlink="http://www.w3.org/1999/xlink">
	<desc>
			Created with Pixso.
	</desc>
	<defs>
		<clipPath id="clip117_156">
			<rect id="39#对话机器人服务-CBS" width="72.000000" height="72.000000" fill="white" fill-opacity="0"/>
		</clipPath>
	</defs>
	<g clip-path="url(#clip117_156)">
		<path id="矩形备份-19" d="M16 0L56 0C64.79 0 72 7.19 72 16L72 56C72 64.8 64.79 72 56 72L16 72C7.2 72 0 64.8 0 56L0 16C0 7.19 7.2 0 16 0Z" fill="#00C4BE" fill-opacity="1.000000" fill-rule="evenodd"/>
		<path id="形状结合" d="M36.29 13.39C47.29 13.39 56.5 21.39 57.89 32L57.89 32.29C59.5 32.89 60.7 34.5 60.7 36.2L60.7 36.39L60.7 42C60.7 44.39 58.7 46.39 56.29 46.39C56.2 46.39 56.1 46.39 56 46.39L56 46.7C53 53.7 46.1 58.39 38.39 58.59L38 58.59L34.7 58.59C33.7 58.59 33 57.89 33 56.89C33 55.89 33.7 55.2 34.7 55.2L38 55.2C38.6 55.2 39.2 55.59 39.5 56.2L39.79 56.29C46 55.59 51.5 51.59 53.89 46L54 45.79C53 45 52.29 43.7 52.2 42.39L52.2 42.2L52.2 36.7C52.2 35.09 53.2 33.59 54.6 32.79L54.79 32.7L54.79 32.5C53.6 23.79 45.89 17.09 36.79 16.89L36.5 16.89C27.29 16.89 19.39 23.7 18.2 32.5L18.2 32.7L18.39 32.79C19.79 33.5 20.7 34.89 20.79 36.5L20.79 36.7L20.79 42C20.79 44.39 18.79 46.39 16.39 46.39C14 46.39 12 44.39 12 42L12 36.5C12 34.59 13.2 33 14.89 32.29L14.89 32C16.29 21.5 25.5 13.59 36.29 13.39ZM40.39 30.5C40.89 30.7 41.29 31 41.5 31.5L45.7 39.5L49.6 39.5C50.2 39.5 50.6 39.89 50.6 40.5C50.6 41.09 50.2 41.5 49.6 41.5L45.7 41.5C45 41.5 44.29 41.09 43.89 40.39L39.7 32.39L36.79 40.09C36.6 40.59 36.2 41 35.7 41.2C34.7 41.59 33.5 41.2 33.1 40.2L32.2 38.09L30.6 40.5C30.2 41.09 29.6 41.39 28.89 41.39L23.89 41.39C23.29 41.39 22.89 41 22.89 40.39C22.89 39.79 23.29 39.39 23.89 39.39L28.89 39.39L30.5 37C31.1 36.09 32.39 35.79 33.29 36.39C33.6 36.59 33.89 36.89 34 37.29L34.89 39.39L37.79 31.7C38.2 30.59 39.29 30.09 40.39 30.5Z" fill="#FFFFFF" fill-opacity="1.000000" fill-rule="nonzero"/>
	</g>
</svg>
