<svg width="72.000000" height="72.000000" viewBox="0 0 72 72" fill="none" xmlns="http://www.w3.org/2000/svg" xmlns:xlink="http://www.w3.org/1999/xlink">
	<desc>
			Created with Pixso.
	</desc>
	<defs>
		<clipPath id="clip117_119">
			<rect id="4#人证核身服务-IVS" width="72.000000" height="72.000000" fill="white" fill-opacity="0"/>
		</clipPath>
	</defs>
	<g clip-path="url(#clip117_119)">
		<path id="矩形备份-19" d="M16 0L56 0C64.8 0 72 7.19 72 16L72 56C72 64.8 64.8 72 56 72L16 72C7.19 72 0 64.8 0 56L0 16C0 7.19 7.19 0 16 0Z" fill="#1476FF" fill-opacity="1.000000" fill-rule="evenodd"/>
		<path id="形状结合" d="M33.1 12.6C34.5 11.8 36.8 11.8 38.2 12.6L54.8 21.8C56.3 22.7 57.39 24.5 57.39 26.2L57.39 45.8C57.39 47.39 56.2 49.39 54.8 50.2L38.2 59.39C37.5 59.8 36.6 60.1 35.7 60.1C34.8 60.1 33.89 59.89 33.2 59.39L16.6 50.2C15.1 49.3 14 47.5 14 45.8L14 26.2C14 24.6 15.1 22.7 16.6 21.8L33.1 12.6ZM36 22C29.89 22 25 27 25 33.2C25 38.3 28.39 42.7 33.1 44L33.1 46.7L29.6 46.7C29 46.7 28.39 47.2 28.39 47.89C28.39 48.5 28.89 49.1 29.6 49.1L42.3 49.1C42.89 49.1 43.5 48.6 43.5 47.89C43.5 47.3 43 46.7 42.3 46.7L38.8 46.7L38.8 44C43.5 42.7 46.89 38.39 46.89 33.2C47 27 42.1 22 36 22ZM36 26.7C39.5 26.7 42.39 29.6 42.39 33.2C42.39 36.8 39.5 39.7 36 39.7C32.5 39.7 29.6 36.8 29.6 33.2C29.6 29.6 32.5 26.7 36 26.7ZM34.89 27.89C33.3 27.89 32 29.2 32 30.8C32 32.39 33.3 33.7 34.89 33.7C36.5 33.7 37.8 32.39 37.8 30.8C37.8 29.2 36.5 27.89 34.89 27.89Z" fill="#FFFFFF" fill-opacity="1.000000" fill-rule="evenodd"/>
	</g>
</svg>
