<svg width="72.000000" height="72.000000" viewBox="0 0 72 72" fill="none" xmlns="http://www.w3.org/2000/svg" xmlns:xlink="http://www.w3.org/1999/xlink">
	<desc>
			Created with Pixso.
	</desc>
	<defs>
		<clipPath id="clip117_157">
			<rect id="40#Data+AI融合计算服务-Fabrics" width="72.000000" height="72.000000" fill="white" fill-opacity="0"/>
		</clipPath>
	</defs>
	<g clip-path="url(#clip117_157)">
		<path id="矩形备份-19" d="M16 0L56 0C64.79 0 72 7.19 72 16L72 56C72 64.8 64.79 72 56 72L16 72C7.2 72 0 64.8 0 56L0 16C0 7.19 7.2 0 16 0Z" fill="#25C251" fill-opacity="1.000000" fill-rule="evenodd"/>
		<path id="矢量 93" d="M28.85 22L22.85 22C21.18 22 19.85 20.64 19.85 19L19.85 13C19.85 11.34 21.18 10 22.85 10L28.85 10C30.5 10 31.85 11.34 31.85 13L31.85 19C31.85 20.64 30.5 22 28.85 22ZM46.85 22L49.85 22C51.5 22 52.85 20.64 52.85 19L52.85 13C52.85 11.34 51.5 10 49.85 10L43.85 10C42.18 10 40.85 11.34 40.85 13L40.85 14C40.85 22.83 33.68 30 24.85 30L22.85 30C21.18 30 19.85 31.34 19.85 33L19.85 39C19.85 40.64 21.18 42 22.85 42L28.85 42C30.5 42 31.85 40.64 31.85 39L31.85 38C31.85 29.49 38.47 22.51 46.85 22ZM49.85 42L46.85 42C38.47 42.51 31.85 49.49 31.85 58L31.85 59C31.85 60.64 30.5 62 28.85 62L22.85 62C21.18 62 19.85 60.64 19.85 59L19.85 53C19.85 51.34 21.18 50 22.85 50L24.85 50C33.68 50 40.85 42.83 40.85 34L40.85 33C40.85 31.34 42.18 30 43.85 30L49.85 30C51.5 30 52.85 31.34 52.85 33L52.85 39C52.85 40.64 51.5 42 49.85 42Z" fill="#FFFFFF" fill-opacity="1.000000" fill-rule="evenodd"/>
	</g>
</svg>
