<svg width="72.000000" height="72.000000" viewBox="0 0 72 72" fill="none" xmlns="http://www.w3.org/2000/svg" xmlns:xlink="http://www.w3.org/1999/xlink">
	<desc>
			Created with Pixso.
	</desc>
	<defs>
		<clipPath id="clip117_112">
			<rect id="41#政务智能体-Git" width="72.000000" height="72.000000" fill="white" fill-opacity="0"/>
		</clipPath>
	</defs>
	<g clip-path="url(#clip117_112)">
		<path id="矩形备份-19" d="M16 0L56 0C64.8 0 72 7.19 72 16L72 56C72 64.8 64.8 72 56 72L16 72C7.19 72 0 64.8 0 56L0 16C0 7.19 7.19 0 16 0Z" fill="#9F53E6" fill-opacity="1.000000" fill-rule="evenodd"/>
		<path id="形状结合" d="M40.1 11.1C40.6 11.1 41 11.5 41 12L41 24.6L42.3 24.6L42.3 17.7C42.3 17.29 42.6 16.9 43 16.9L49.1 16.9C49.6 16.9 50 17.29 50 17.7L50 24.6L52.1 24.6C52.5 24.6 52.89 24.9 52.89 25.3L52.89 25.4L52.89 49.7C52.89 50.2 52.5 50.5 52 50.5C51.5 50.5 51.2 50.1 51.2 49.7L51.2 26.3L49 26.3C48.6 26.3 48.2 26 48.2 25.6L48.2 25.5L48.2 18.6L44 18.6L44 25.5C44 25.9 43.7 26.3 43.3 26.3L41.1 26.3L41.1 51.9C41.1 52.3 40.8 52.7 40.39 52.7C39.89 52.7 39.5 52.3 39.5 51.8L39.5 49.6L39.5 12.8L30.89 12.8L30.89 51.2C30.89 51.6 30.6 52 30.2 52L30.1 52C29.6 52 29.2 51.6 29.2 51.1L29.2 40.4L29.2 29.7L25.8 29.7L25.8 50.1C25.8 50.5 25.5 50.9 25.1 50.9L25 50.9C24.5 50.9 24.1 50.5 24.1 50.1L24.1 24.8L17 26.6L17 37.5C17.1 37.7 17.1 37.9 17 38L17 47.7C17 47.8 17 47.9 16.89 48C20.5 50.3 26.3 52.4 33 53.4C33.39 52.3 34.5 51.4 35.8 51.4C37.3 51.4 38.5 52.5 38.7 53.9C47.1 54.3 54.2 52.9 57.3 50.4C57.1 49.1 56.1 47.9 54.5 46.6C54.1 46.3 54 45.8 54.3 45.4C54.6 45 55.1 44.9 55.5 45.2C57 46.3 58.1 47.5 58.6 48.8C58.8 48.4 59 48 59 47.6C59.2 46.2 58.3 44.6 56.39 43.1C56 42.8 56 42.3 56.3 41.9C56.6 41.5 57.1 41.5 57.5 41.8C59.8 43.7 60.9 45.8 60.7 47.9C60.5 49.1 60 50.1 59 51C58.8 57 47.8 61.1 34.6 60.7C29.39 60.5 24.5 59.7 20.5 58.2C20 58.7 19.29 58.9 18.5 58.9C16.89 58.9 15.5 57.6 15.5 55.9C12.5 54 10.89 51.7 11 49.3C11 48.1 11.5 47 12.3 46C11.3 44.7 10.9 43.3 11.1 41.9C11.4 40 12.8 38.3 15.2 37L15.2 25.7C15.2 25.3 15.5 25 15.9 24.9L24.5 22.9C25 22.8 25.5 23.2 25.5 23.7L25.5 28L29 28L29 12C29 11.5 29.39 11.1 29.89 11.1L40.1 11.1ZM13.6 47.5C13.1 48.2 12.89 48.8 12.89 49.5C12.8 51.1 14 52.8 16.29 54.3C16.79 53.5 17.7 53 18.7 53C20.29 53 21.7 54.3 21.7 56C21.7 56.3 21.7 56.5 21.6 56.8C25.39 58.1 30 58.9 34.8 59C45.7 59.4 54.8 56.5 56.89 52.6C52.89 54.8 46.2 55.9 38.5 55.5C38 56.5 37 57.2 35.8 57.2C34.39 57.2 33.2 56.2 32.89 54.9L33.39 55C24.6 53.9 17.2 51 13.6 47.5ZM18.7 54.8C18 54.8 17.39 55.4 17.39 56.1C17.39 56.8 18 57.4 18.7 57.4C19.39 57.4 20 56.8 20 56.1C20 55.4 19.39 54.8 18.7 54.8ZM35.8 53.1C35.1 53.1 34.5 53.7 34.5 54.4C34.5 55.1 35.1 55.7 35.8 55.7C36.5 55.7 37.1 55.1 37.1 54.4C37.1 53.7 36.6 53.1 35.8 53.1ZM14.7 46.3C14.89 46.5 15.1 46.6 15.3 46.8L15.3 45.9C15.1 46 14.89 46.1 14.7 46.3ZM36.7 45C37.2 45 37.5 45.4 37.5 45.9C37.5 46.4 37.1 46.7 36.7 46.7L33.3 46.7C32.8 46.7 32.5 46.3 32.5 45.9C32.5 45.4 32.89 45 33.3 45L36.7 45ZM12.89 42.4C12.8 43.3 13.1 44.1 13.7 45C14.1 44.6 14.6 44.3 15.2 43.9C15.3 43.9 15.3 43.8 15.39 43.8L15.39 39.2C13.8 40.2 13 41.3 12.89 42.4ZM36.7 38.2C37.2 38.2 37.5 38.6 37.5 39C37.5 39.5 37.1 39.9 36.7 39.9L33.3 39.9C32.8 39.9 32.5 39.5 32.5 39C32.5 38.5 32.89 38.2 33.3 38.2L36.7 38.2ZM36.7 31.3C37.2 31.3 37.5 31.7 37.5 32.2C37.5 32.7 37.1 33 36.7 33L33.3 33C32.8 33 32.5 32.6 32.5 32.2C32.5 31.7 32.89 31.3 33.3 31.3L36.7 31.3ZM36.7 24.5C37.2 24.5 37.5 24.9 37.5 25.4C37.5 25.9 37.1 26.3 36.7 26.3L33.3 26.3C32.8 26.3 32.5 25.9 32.5 25.4C32.5 24.9 32.89 24.5 33.3 24.5L36.7 24.5ZM36.7 17.7C37.2 17.7 37.5 18.1 37.5 18.5C37.5 19 37.1 19.4 36.7 19.4L33.3 19.4C32.8 19.4 32.5 19 32.5 18.5C32.5 18 32.89 17.7 33.3 17.7L36.7 17.7Z" fill="#FFFFFF" fill-opacity="1.000000" fill-rule="nonzero"/>
	</g>
</svg>
