<svg width="72.000000" height="72.000000" viewBox="0 0 72 72" fill="none" xmlns="http://www.w3.org/2000/svg" xmlns:xlink="http://www.w3.org/1999/xlink">
	<desc>
			Created with Pixso.
	</desc>
	<defs>
		<clipPath id="clip117_137">
			<rect id="42#交通智能体-TrafficGo" width="72.000000" height="72.000000" fill="white" fill-opacity="0"/>
		</clipPath>
	</defs>
	<g clip-path="url(#clip117_137)">
		<path id="矩形备份-19" d="M16 0L56 0C64.8 0 72 7.19 72 16L72 56C72 64.8 64.8 72 56 72L16 72C7.19 72 0 64.8 0 56L0 16C0 7.19 7.19 0 16 0Z" fill="#25C251" fill-opacity="1.000000" fill-rule="evenodd"/>
		<path id="形状" d="M50.2 57.7C50.8 58.3 50.8 59.3 50.2 59.89C49.89 60.2 49.5 60.39 49.1 60.39C48.7 60.39 48.3 60.2 48 59.89L45 56.89L44.7 56.7C42.3 55.3 39.5 54.6 36.5 54.5L36 54.5C32.8 54.5 29.7 55.39 27 57L24 60C23.7 60.3 23.39 60.39 23 60.5L22.89 60.5C22.5 60.5 22.1 60.3 21.8 60C21.2 59.39 21.2 58.39 21.8 57.8L31.6 48C32.2 47.39 33.2 47.39 33.8 48C34.39 48.6 34.39 49.6 33.8 50.2L31 53.1L31.39 53C32.7 52.7 34.09 52.5 35.5 52.5L36 52.5C37.59 52.5 39.09 52.7 40.59 53.1L41 53.2L36.2 48.39L35.3 47.5L18.89 30.89L18.89 31C19.7 34.2 19.7 37.59 18.89 40.8L21.8 38C22.39 37.39 23.3 37.39 23.89 37.89L24 38C24.6 38.59 24.6 39.59 24 40.2L14.2 50C13.89 50.3 13.5 50.5 13.09 50.5C12.7 50.5 12.3 50.3 12 50C11.39 49.39 11.39 48.39 12 47.8L15 44.8L15.2 44.5C18.2 39.2 18.2 32.5 15.2 27.2L15 27L12 24C11.39 23.39 11.39 22.5 11.89 21.89L12 21.8C12.6 21.2 13.6 21.2 14.2 21.8L38 45.6L50.2 57.7ZM27.89 43.3C28.3 42.89 29 42.89 29.39 43.3C29.8 43.7 29.8 44.39 29.5 44.8L19.09 55C19 55.1 18.79 55.2 18.59 55.2C18.5 55.2 18.39 55.2 18.29 55.2C17.89 55.2 17.7 55.2 17.5 54.89C17.1 54.5 17.1 53.8 17.5 53.39L27.89 43.3ZM21.8 12C22.39 11.39 23.39 11.39 24 12L27 15L27.3 15.2C32.59 18.2 39.3 18.2 44.7 15.2L45 15L48 12C48.6 11.39 49.5 11.39 50.1 11.89L50.2 12C50.8 12.6 50.8 13.6 50.2 14.2L40.39 24C40.1 24.3 39.7 24.5 39.3 24.5C38.89 24.5 38.5 24.3 38.2 24C37.6 23.39 37.6 22.39 38.2 21.8L41.1 18.89L40.59 19C39.3 19.29 37.89 19.5 36.5 19.6L36 19.6C34.5 19.6 32.89 19.39 31.39 19L31 18.89L47.39 35.09L48.39 36.1L53 40.8L52.89 40.39C52.6 39.3 52.5 38.09 52.39 36.89L52.39 36.39C52.39 35.09 52.6 33.8 52.89 32.39L53 32L51.3 33.7C51 34 50.7 34.09 50.3 34.2C49.89 34.2 49.39 34 49.1 33.7C48.5 33.09 48.5 32.09 49.1 31.5L57.8 22.8C58.39 22.2 59.39 22.2 60 22.8C60.6 23.39 60.6 24.39 60 25L56.89 28.09L56.7 28.39C55.3 30.7 54.6 33.3 54.5 35.89L54.5 36.3C54.5 39.2 55.3 42.09 56.89 44.59L60 47.7C60.6 48.3 60.6 49.2 60.1 49.8L60 50.1C59.7 50.39 59.3 50.6 58.89 50.6C58.5 50.6 58.1 50.39 57.8 50.1L45.7 37.89L21.8 14.2C21.2 13.6 21.2 12.6 21.8 12ZM53.8 17.6C54.2 17.2 54.89 17.2 55.3 17.6C55.7 18 55.7 18.7 55.3 19.1L45.1 29.2C44.89 29.39 44.7 29.5 44.3 29.5C43.89 29.5 43.7 29.5 43.5 29.2C43 28.7 43.1 28 43.6 27.7L53.8 17.6ZM17.39 17.39C17.79 17 18.5 17 18.89 17.39L24.5 22.8C24.89 23.2 24.89 23.89 24.5 24.3C24.3 24.5 24.1 24.59 23.7 24.59C23.3 24.59 23.1 24.59 22.89 24.3L17.39 18.89C17 18.5 17 17.79 17.39 17.39Z" fill="#FFFFFF" fill-opacity="1.000000" fill-rule="nonzero"/>
	</g>
</svg>
