<svg width="72.000000" height="72.000000" viewBox="0 0 72 72" fill="none" xmlns="http://www.w3.org/2000/svg" xmlns:xlink="http://www.w3.org/1999/xlink">
	<desc>
			Created with Pixso.
	</desc>
	<defs>
		<clipPath id="clip117_107">
			<rect id="43#医疗智能体-EIHealth" width="72.000000" height="72.000000" fill="white" fill-opacity="0"/>
		</clipPath>
	</defs>
	<g clip-path="url(#clip117_107)">
		<path id="矩形备份-19" d="M16 0L56 0C64.8 0 72 7.19 72 16L72 56C72 64.8 64.8 72 56 72L16 72C7.19 72 0 64.8 0 56L0 16C0 7.19 7.19 0 16 0Z" fill="#1476FF" fill-opacity="1.000000" fill-rule="evenodd"/>
		<path id="形状结合" d="M14.2 43.7C15 43.7 15.7 44.4 15.7 45.2L15.7 53.8C15.7 55.2 16.79 56.3 18.2 56.3L26.8 56.3C27.59 56.3 28.3 57 28.3 57.8C28.3 58.6 27.59 59.3 26.8 59.3L18.2 59.3C15.2 59.3 12.7 56.8 12.7 53.8L12.7 45.2C12.7 44.3 13.39 43.7 14.2 43.7ZM57.8 43.7C58.59 43.7 59.3 44.4 59.3 45.2L59.3 53.8C59.3 56.8 56.8 59.3 53.8 59.3L45.2 59.3C44.39 59.3 43.7 58.6 43.7 57.8C43.7 57 44.39 56.3 45.2 56.3L53.8 56.3C55.2 56.3 56.3 55.2 56.3 53.8L56.3 45.2C56.3 44.3 57 43.7 57.8 43.7ZM33.39 22.8C34.39 24.9 32.7 26.8 32.5 27.7C32.3 28.6 31.3 30.9 34.09 32.3C37 33.8 38.09 34.9 38.59 36.2C39 37.6 38.5 39 36.59 40.2C34.7 41.5 33.5 40.7 31.89 41.5C30.3 42.3 29.7 43.7 29.8 45.1C29.89 46.6 30.2 48 29.3 49.3C28.09 51 25.7 51.5 23.89 50.4C22.09 49.3 21.59 46.8 22.8 45.1C23.8 43.7 26.5 43.5 27.39 43C28.3 42.4 29.8 41.1 29.59 39.9C29.59 39.6 29.5 39.3 29.39 39L29.3 38.6C29.09 37.9 28.89 37.1 29.3 35.9C29.8 34 30.3 33.9 30.89 32.8C31.39 31.7 30.39 29.4 29.09 28.8C27.8 28.2 25.89 27.2 25.2 25.4C24.5 23.6 25.39 21.2 27.59 20.29C29.8 19.4 32.39 20.7 33.39 22.8ZM52.2 37C52.3 39.1 50.59 40.8 48.39 40.9C46.59 41 44.8 38.9 43.8 38.5C42.8 38.1 42.39 38.2 41.59 38.2C40.7 38.2 40.39 37.7 40.3 37.3C40.2 36.8 40.8 36.4 41.3 36.3C42.39 36.2 43 36.4 44.2 35.4C45.39 34.4 46.39 33.4 48.09 33.4C50.3 33.3 52.09 34.9 52.2 37ZM26.8 12.6C27.59 12.6 28.3 13.3 28.3 14.1C28.3 14.9 27.59 15.6 26.8 15.6L18.2 15.6C16.79 15.6 15.7 16.7 15.7 18.1L15.7 26.7C15.7 27.5 15 28.2 14.2 28.2C13.39 28.2 12.7 27.5 12.7 26.7L12.7 18.1C12.7 15.1 15.2 12.6 18.2 12.6L26.8 12.6ZM53.8 12.6C56.8 12.6 59.3 15.1 59.3 18.1L59.3 26.7C59.3 27.5 58.59 28.2 57.8 28.2C57 28.2 56.3 27.5 56.3 26.7L56.3 18.1C56.3 16.7 55.2 15.6 53.8 15.6L45.2 15.6C44.39 15.6 43.7 14.9 43.7 14.1C43.7 13.3 44.39 12.6 45.2 12.6L53.8 12.6Z" fill="#FFFFFF" fill-opacity="1.000000" fill-rule="nonzero"/>
	</g>
</svg>
