<svg width="72.000000" height="72.000000" viewBox="0 0 72 72" fill="none" xmlns="http://www.w3.org/2000/svg" xmlns:xlink="http://www.w3.org/1999/xlink">
	<desc>
			Created with Pixso.
	</desc>
	<defs>
		<clipPath id="clip117_110">
			<rect id="44#地理智能体-GeoGenius" width="72.000000" height="72.000000" fill="white" fill-opacity="0"/>
		</clipPath>
	</defs>
	<g clip-path="url(#clip117_110)">
		<path id="矩形备份-19" d="M16 0L56 0C64.8 0 72 7.19 72 16L72 56C72 64.8 64.8 72 56 72L16 72C7.19 72 0 64.8 0 56L0 16C0 7.19 7.19 0 16 0Z" fill="#7DCC29" fill-opacity="1.000000" fill-rule="evenodd"/>
		<path id="形状结合" d="M38.52 32.88C40.17 32.88 41.52 34.22 41.52 35.88L41.52 38.62L43.3 38.62C44.96 38.62 46.3 39.96 46.3 41.62L46.3 51.37L44.3 51.37L44.3 41.62C44.3 41.07 43.84 40.62 43.3 40.62L41.52 40.62L41.52 51.59L46.99 51.59C47.54 51.59 47.99 52.04 47.99 52.59C47.99 53.13 47.54 53.59 46.99 53.59L28.71 53.59C28.15 53.59 27.71 53.13 27.71 52.59C27.71 52.04 28.15 51.59 28.71 51.59L28.72 35.88C28.72 34.22 30.06 32.88 31.72 32.88L38.52 32.88ZM14.29 45.97C12.71 45.61 11.54 44.22 11.45 42.56L11.45 42.37C11.45 40.33 13.08 38.66 15.1 38.66C17.12 38.66 18.77 40.33 18.77 42.37C18.77 43.63 18.13 44.77 17.13 45.45L17.21 45.81C17.6 46.52 18.07 47.16 18.62 47.77L18.9 48.06C20.46 49.61 22.5 50.59 24.67 50.83C25.4 50.9 25.93 51.58 25.85 52.32C25.78 53.06 25.12 53.6 24.38 53.52C21.61 53.21 19.04 51.97 17.04 50C15.98 48.93 15.1 47.68 14.48 46.33L14.29 45.97ZM48.28 26.07L48.37 26.2L48.59 26.58C48.88 27.1 49.13 27.63 49.35 28.2L49.49 28.56L49.8 28.6C53.6 29.14 56.95 31.46 58.83 34.85L59.01 35.15C59.96 36.96 60.45 38.97 60.45 41.03C60.45 46.63 56.78 51.54 51.48 53.09C50.77 53.3 50.03 52.88 49.82 52.15C49.62 51.45 50.04 50.7 50.74 50.5C54.89 49.29 57.78 45.42 57.78 41.04C57.78 39.41 57.38 37.85 56.64 36.43C55.03 33.34 51.89 31.34 48.42 31.2C47.84 31.17 47.35 30.78 47.2 30.21C46.95 29.3 46.57 28.42 46.08 27.62C45.71 26.99 45.89 26.15 46.52 25.77C47.1 25.38 47.85 25.53 48.28 26.07ZM38.52 34.88L31.72 34.88C31.16 34.88 30.72 35.33 30.72 35.88L30.72 51.59L39.52 51.59L39.52 35.88C39.52 35.33 39.07 34.88 38.52 34.88ZM38.27 42.23C38.82 42.23 39.27 42.67 39.27 43.23C39.27 43.78 38.82 44.23 38.27 44.23L32.45 44.23C31.89 44.23 31.45 43.78 31.45 43.23C31.45 42.67 31.89 42.23 32.45 42.23L38.27 42.23ZM38.27 37.98C38.82 37.98 39.27 38.42 39.27 38.98C39.27 39.53 38.82 39.98 38.27 39.98L32.45 39.98C31.89 39.98 31.45 39.53 31.45 38.98C31.45 38.42 31.89 37.98 32.45 37.98L38.27 37.98ZM41.73 18.51C43.75 18.51 45.38 20.16 45.38 22.21C45.38 24.25 43.75 25.9 41.73 25.9C39.98 25.9 38.5 24.65 38.14 22.99L38.11 22.81C37.71 22.74 37.25 22.68 36.82 22.66L36.4 22.65C35.67 22.65 34.95 22.74 34.25 22.88C33.18 23.12 32.17 23.52 31.25 24.07C28.97 25.41 27.29 27.63 26.57 30.18C26.42 30.75 25.92 31.14 25.34 31.17C21.91 31.32 18.83 33.27 17.18 36.3C16.82 36.96 16.02 37.18 15.36 36.83C14.78 36.5 14.53 35.77 14.8 35.12L14.85 35L15 34.75C16.91 31.4 20.24 29.13 24.03 28.6L24.29 28.57C25.27 25.85 27.14 23.49 29.57 21.95L29.89 21.75C31.07 21.05 32.34 20.55 33.67 20.26C34.57 20.07 35.48 19.96 36.39 19.96C37.13 19.96 37.87 20.03 38.6 20.15C39.24 19.21 40.35 18.59 41.51 18.52L41.73 18.51Z" fill="#FFFFFF" fill-opacity="1.000000" fill-rule="nonzero"/>
	</g>
</svg>
