<svg width="72.000000" height="72.000000" viewBox="0 0 72 72" fill="none" xmlns="http://www.w3.org/2000/svg" xmlns:xlink="http://www.w3.org/1999/xlink">
	<desc>
			Created with Pixso.
	</desc>
	<defs>
		<clipPath id="clip117_96">
			<rect id="45#水智能体-watergo" width="72.000000" height="72.000000" fill="white" fill-opacity="0"/>
		</clipPath>
	</defs>
	<g clip-path="url(#clip117_96)">
		<path id="矩形备份-19" d="M16 0L56 0C64.8 0 72 7.19 72 16L72 56C72 64.8 64.8 72 56 72L16 72C7.19 72 0 64.8 0 56L0 16C0 7.19 7.19 0 16 0Z" fill="#00ABED" fill-opacity="1.000000" fill-rule="evenodd"/>
		<path id="形状结合" d="M36 12C37.6 12 55 28.7 55 40.89C55 53.1 46.5 60 36 60C25.5 60 17 53.1 17 40.89C17 28.7 34.39 12 36 12ZM44.89 41.5C43.6 41.5 42.2 41.89 41.1 42.6L36.7 45.39C36.39 45.6 36 45.7 35.6 45.7L29.89 45.7C29.7 44.39 28.5 43.39 27.2 43.39C25.7 43.39 24.39 44.6 24.39 46.2C24.39 47.8 25.6 49 27.2 49C28.2 49 29 48.5 29.5 47.8L35.6 47.8C36.39 47.8 37.1 47.6 37.7 47.2L42.1 44.39C42.89 43.89 43.89 43.6 44.8 43.6L48 43.6C48.6 43.6 49 43.2 49 42.6C49 42 48.6 41.6 48 41.6L44.89 41.5ZM34.89 38.3L32.1 38.3C31.5 38.3 31.1 38.7 31.1 39.3C31.1 39.89 31.5 40.3 32.1 40.3L34.89 40.3C35.5 40.3 35.89 39.89 35.89 39.3C35.89 38.8 35.5 38.3 34.89 38.3ZM31.5 30.39L27.7 30.39C27.1 30.39 26.7 30.89 26.7 31.39C26.7 32 27.2 32.39 27.7 32.39L31.5 32.39C32 32.39 32.5 32.6 32.89 32.89L38.1 37.6C38.7 38.1 39.39 38.39 40.2 38.39L42.3 38.39C42.8 39.2 43.7 39.8 44.7 39.8C46.3 39.8 47.5 38.5 47.5 37C47.5 35.39 46.2 34.2 44.7 34.2C43.3 34.2 42.2 35.2 41.89 36.5L40.1 36.5C39.8 36.5 39.6 36.39 39.39 36.2L34.2 31.5C33.5 30.8 32.6 30.39 31.5 30.39ZM44.7 36.1C45.2 36.1 45.5 36.5 45.5 36.89C45.5 37.3 45.1 37.7 44.7 37.7C44.2 37.7 43.89 37.3 43.89 36.89C43.89 36.5 44.3 36.1 44.7 36.1Z" fill="#FFFFFF" fill-opacity="1.000000" fill-rule="evenodd"/>
	</g>
</svg>
