<svg width="72.000000" height="72.000000" viewBox="0 0 72 72" fill="none" xmlns="http://www.w3.org/2000/svg" xmlns:xlink="http://www.w3.org/1999/xlink">
	<desc>
			Created with Pixso.
	</desc>
	<defs>
		<clipPath id="clip117_113">
			<rect id="46#城市智能体-iCityS" width="72.000000" height="72.000000" fill="white" fill-opacity="0"/>
		</clipPath>
	</defs>
	<g clip-path="url(#clip117_113)">
		<path id="矩形备份-19" d="M16 0L56 0C64.8 0 72 7.19 72 16L72 56C72 64.8 64.8 72 56 72L16 72C7.19 72 0 64.8 0 56L0 16C0 7.19 7.19 0 16 0Z" fill="#7DCC29" fill-opacity="1.000000" fill-rule="evenodd"/>
		<path id="形状结合" d="M38.57 32.83C40.23 32.83 41.57 34.16 41.57 35.83L41.57 38.57L43.35 38.57C45.01 38.57 46.35 39.9 46.35 41.57L46.35 51.32L44.35 51.32L44.35 41.57C44.35 41.02 43.89 40.57 43.35 40.57L41.57 40.57L41.57 51.54L47.04 51.54C47.59 51.54 48.04 51.99 48.04 52.54C48.04 53.08 47.59 53.54 47.04 53.54L28.76 53.54C28.21 53.54 27.76 53.08 27.76 52.54C27.76 51.99 28.21 51.54 28.76 51.54L28.77 35.83C28.77 34.16 30.11 32.83 31.77 32.83L38.57 32.83ZM14.34 45.91C12.76 45.56 11.59 44.16 11.5 42.51L11.5 42.32C11.5 40.28 13.13 38.61 15.15 38.61C17.17 38.61 18.82 40.28 18.82 42.32C18.82 43.58 18.18 44.72 17.18 45.39L17.27 45.76C17.65 46.47 18.12 47.11 18.67 47.72L18.95 48.01C20.52 49.56 22.55 50.54 24.73 50.78C25.46 50.85 25.99 51.53 25.9 52.27C25.83 53.01 25.17 53.55 24.43 53.47C21.66 53.15 19.09 51.91 17.1 49.95C16.03 48.88 15.15 47.63 14.53 46.28L14.34 45.91ZM48.33 26.02L48.42 26.14L48.64 26.53C48.93 27.05 49.18 27.58 49.4 28.14L49.54 28.51L49.85 28.55C53.65 29.09 57 31.4 58.88 34.8L59.06 35.1C60.01 36.9 60.5 38.91 60.5 40.98C60.5 46.58 56.83 51.49 51.53 53.04C50.82 53.25 50.08 52.83 49.87 52.1C49.67 51.39 50.09 50.64 50.79 50.45C54.95 49.24 57.83 45.37 57.83 40.99C57.83 39.36 57.43 37.8 56.7 36.38C55.08 33.29 51.95 31.29 48.48 31.14C47.89 31.12 47.4 30.73 47.25 30.15C47 29.25 46.62 28.37 46.13 27.57C45.76 26.93 45.95 26.1 46.57 25.72C47.15 25.33 47.9 25.48 48.33 26.02ZM38.57 34.83L31.77 34.83C31.22 34.83 30.77 35.28 30.77 35.83L30.77 51.54L39.57 51.54L39.57 35.83C39.57 35.28 39.12 34.83 38.57 34.83ZM38.32 42.17C38.87 42.17 39.32 42.62 39.32 43.17C39.32 43.73 38.87 44.17 38.32 44.17L32.5 44.17C31.95 44.17 31.5 43.73 31.5 43.17C31.5 42.62 31.95 42.17 32.5 42.17L38.32 42.17ZM38.32 37.92C38.87 37.92 39.32 38.37 39.32 38.92C39.32 39.48 38.87 39.92 38.32 39.92L32.5 39.92C31.95 39.92 31.5 39.48 31.5 38.92C31.5 38.37 31.95 37.92 32.5 37.92L38.32 37.92ZM41.78 18.45C43.8 18.45 45.43 20.11 45.43 22.15C45.43 24.2 43.8 25.85 41.78 25.85C40.03 25.85 38.55 24.6 38.2 22.93L38.16 22.76C37.75 22.68 37.3 22.63 36.87 22.61L36.46 22.6C35.73 22.6 35 22.68 34.3 22.83C33.24 23.07 32.23 23.47 31.3 24.02C29.02 25.36 27.34 27.58 26.62 30.13C26.48 30.7 25.98 31.09 25.39 31.12C21.97 31.27 18.88 33.22 17.24 36.25C16.87 36.9 16.07 37.13 15.41 36.78C14.83 36.45 14.58 35.72 14.85 35.07L14.9 34.95L15.05 34.7C16.96 31.35 20.29 29.08 24.08 28.55L24.34 28.52C25.32 25.8 27.2 23.43 29.62 21.89L29.95 21.7C31.12 21 32.39 20.5 33.73 20.2C34.62 20.02 35.53 19.91 36.45 19.91C37.18 19.91 37.92 19.98 38.65 20.1C39.29 19.16 40.4 18.54 41.56 18.46L41.78 18.45Z" fill="#FFFFFF" fill-opacity="1.000000" fill-rule="nonzero"/>
	</g>
</svg>
