<svg width="72.000000" height="72.000000" viewBox="0 0 72 72" fill="none" xmlns="http://www.w3.org/2000/svg" xmlns:xlink="http://www.w3.org/1999/xlink">
	<desc>
			Created with Pixso.
	</desc>
	<defs>
		<clipPath id="clip117_106">
			<rect id="47#工业智能体-IIT" width="72.000000" height="72.000000" fill="white" fill-opacity="0"/>
		</clipPath>
	</defs>
	<g clip-path="url(#clip117_106)">
		<path id="矩形备份-19" d="M16 0L56 0C64.8 0 72 7.19 72 16L72 56C72 64.8 64.8 72 56 72L16 72C7.19 72 0 64.8 0 56L0 16C0 7.19 7.19 0 16 0Z" fill="#FF9A2E" fill-opacity="1.000000" fill-rule="evenodd"/>
		<path id="形状结合" d="M44.3 54.2C44.7 54.9 44.5 55.8 43.8 56.3L37.2 60.3L36.39 60.8L35.6 60.3L29.2 56.3C28.5 55.9 28.3 54.9 28.7 54.2C29.1 53.5 30.1 53.3 30.8 53.7L36.5 57.2L42.3 53.7C42.89 53.3 43.8 53.5 44.3 54.2ZM36 11.1L45 15.5C46.2 16.1 46.8 17.6 46.2 18.79C46 19.2 45.7 19.6 45.3 19.79C42.89 21.3 40.7 22.8 38.89 24.2C39.7 24.9 40.3 25.6 41 26.2L41.39 26.6C45.5 31 47.39 33.9 49 38.8L49.1 39C51.1 38.2 53 37.1 54.5 35.8C55 35.4 55.6 35.2 56.2 35.2C57.6 35.2 58.7 36.3 58.7 37.7L58.7 46.9C58.7 48.2 58 49.4 56.89 50L49.89 53.8C49.39 54.1 48.89 54.1 48.3 53.9C47.2 53.6 46.7 52.4 47 51.4L47.1 51C47.8 48.6 47.8 46.1 47.2 43.3L47 42.9L46.8 43C43.8 43.8 40.3 44.2 36.39 44.3C32.6 44.3 29.2 43.9 26.3 43.2L26 43.1L26 43.2C25.39 46 25.39 48.6 26.1 50.9L26.2 51.3C26.5 52.4 26 53.5 24.89 53.8C24.39 54 23.8 53.9 23.3 53.7L16.29 49.9C15.2 49.3 14.5 48.1 14.5 46.8L14.5 37.9C14.5 36.5 15.6 35.4 17 35.4C17.6 35.4 18.29 35.7 18.7 36.1C20.1 37.4 21.7 38.5 23.7 39.3L23.89 39.4C25.5 34.3 27.5 31.2 31.7 26.7L32.1 26.3C32.7 25.6 33.39 25 34.2 24.3C32.3 22.9 30.2 21.4 27.7 19.79C27.3 19.6 27 19.29 26.8 18.9C26.1 17.7 26.6 16.2 27.8 15.5L36 11.1ZM17.5 39L17.5 46.8C17.5 47 17.6 47.2 17.79 47.2L22.8 49.9L22.8 49.7C22.39 47.4 22.6 45 23.1 42.5L23.2 42.2L23 42.1C21 41.3 19.29 40.4 17.79 39.2L17.5 39ZM55.5 38.7C53.89 40 51.89 41.1 49.8 41.9C50.5 44.6 50.6 47.2 50.3 49.6L50.3 49.8L55.3 47.1C55.5 47 55.6 46.8 55.6 46.7L55.6 38.7L55.5 38.7ZM36.5 26.2L36.3 26.4C35.6 27.1 34.89 27.7 34.3 28.3C30.2 32.7 28.39 35.3 26.89 40.1C29.5 40.7 32.39 41.1 35.8 41.1L36.39 41.1C40 41.1 43.2 40.7 45.89 40L46.2 39.9L46 39.8C44.5 35.3 42.7 32.6 38.7 28.4C38.1 27.6 37.3 26.9 36.5 26.2ZM23.3 19.2C23.8 19.9 23.6 20.8 22.89 21.3L17.6 24.8L17.6 31C17.6 31.8 17 32.4 16.2 32.5L16.1 32.5C15.3 32.5 14.6 31.8 14.6 31L14.6 23.1L15.3 22.7L21.3 18.79C21.89 18.29 22.8 18.5 23.3 19.2ZM49.7 19.2C50.2 18.5 51.1 18.29 51.8 18.79L57.8 22.7L58.5 23.1L58.5 31C58.5 31.8 57.8 32.5 57 32.5C56.2 32.4 55.5 31.8 55.5 31L55.5 24.7L50.2 21.2C49.5 20.8 49.3 19.9 49.7 19.2ZM36.1 14.5L30 17.7L30.5 18C32.8 19.5 34.8 20.9 36.5 22.3C38.2 20.9 40.2 19.5 42.5 18L42.89 17.7L36.1 14.5Z" fill="#FFFFFF" fill-opacity="1.000000" fill-rule="nonzero"/>
	</g>
</svg>
