<svg width="72.000000" height="72.000000" viewBox="0 0 72 72" fill="none" xmlns="http://www.w3.org/2000/svg" xmlns:xlink="http://www.w3.org/1999/xlink">
	<desc>
			Created with Pixso.
	</desc>
	<defs>
		<clipPath id="clip117_136">
			<rect id="48#内容审核文本-Moderation-Text" width="72.000000" height="72.000000" fill="white" fill-opacity="0"/>
		</clipPath>
	</defs>
	<g clip-path="url(#clip117_136)">
		<path id="矩形备份-19" d="M16 0L56 0C64.8 0 72 7.19 72 16L72 56C72 64.8 64.8 72 56 72L16 72C7.19 72 0 64.8 0 56L0 16C0 7.19 7.19 0 16 0Z" fill="#1476FF" fill-opacity="1.000000" fill-rule="evenodd"/>
		<path id="形状结合" d="M41.5 23.5C50.89 23.5 58.5 31.1 58.5 40.5C58.5 44.7 57 48.5 54.5 51.39L55.3 52.2C55.7 52.6 56.1 53 56.39 53.3L58.3 55.2C58.39 55.3 58.39 55.3 58.5 55.39L59.5 56.39C59.6 56.5 59.6 56.5 59.7 56.6C60.3 57.2 60.3 58.1 59.7 58.7C59.1 59.3 58.2 59.3 57.6 58.7L57.39 58.5L56.39 57.5L54.3 55.39C54 55.1 53.6 54.7 53.2 54.3L52.5 53.6C49.5 56.1 45.6 57.5 41.5 57.5C32.1 57.5 24.5 49.89 24.5 40.5C24.5 31.1 32.1 23.5 41.5 23.5ZM48 11.5C52.1 11.5 55.5 14.89 55.5 19L55.5 26.89C54.6 26 53.6 25.1 52.5 24.39L52.5 19C52.5 16.5 50.5 14.5 48 14.5L20 14.5C17.5 14.5 15.5 16.5 15.5 19L15.5 47C15.5 49.5 17.5 51.5 20 51.5L25.39 51.5C26.1 52.6 27 53.6 27.89 54.5L20 54.5C15.89 54.5 12.5 51.1 12.5 47L12.5 19C12.5 14.89 15.89 11.5 20 11.5L48 11.5ZM41.5 26.5C33.8 26.5 27.5 32.8 27.5 40.5C27.5 48.2 33.8 54.5 41.5 54.5C49.2 54.5 55.5 48.2 55.5 40.5C55.5 32.8 49.2 26.5 41.5 26.5ZM48.5 42.2L51 49L49.8 49L49 47.1L45.3 47.1L44.6 49L43.39 49L45.89 42.3L48.5 42.2ZM37.6 31.2L38.7 34.1L44.39 34.1L44.39 35.6L42.1 35.6C41.6 37.7 40.5 39.7 38.8 41.6C39.2 42 39.8 42.5 40.3 42.89C40.6 43.2 41.1 43.5 41.6 43.8L42 44C42.8 44.5 43.6 45 43.7 45.1L42.8 46.3C43 46.39 41.8 45.7 40.7 45L40.39 44.8C40 44.6 39.7 44.3 39.39 44.1C38.8 43.6 38.1 43 37.6 42.5C36.39 43.6 35 44.7 33.3 45.8L32.5 44.5C34.1 43.5 35.5 42.39 36.6 41.3L36.89 41.6C35.6 40 34.6 38.6 33.8 37.3L35.1 36.5C35.7 37.6 36.6 38.8 37.6 40.1C39 38.5 39.89 36.89 40.39 35.3L31.7 35.3L31.7 33.8L37 33.8L36.1 31.39L37.6 31.2ZM47.6 43.3L46.89 43.3L45.89 45.8L48.6 45.8L47.6 43.3Z" fill="#FFFFFF" fill-opacity="1.000000" fill-rule="nonzero"/>
	</g>
</svg>
