<svg width="72.000000" height="72.000000" viewBox="0 0 72 72" fill="none" xmlns="http://www.w3.org/2000/svg" xmlns:xlink="http://www.w3.org/1999/xlink">
	<desc>
			Created with Pixso.
	</desc>
	<defs>
		<clipPath id="clip117_116">
			<rect id="49#内容审核图像-Moderation-Image" width="72.000000" height="72.000000" fill="white" fill-opacity="0"/>
		</clipPath>
	</defs>
	<g clip-path="url(#clip117_116)">
		<path id="矩形备份-19" d="M16 0L56 0C64.8 0 72 7.19 72 16L72 56C72 64.8 64.8 72 56 72L16 72C7.19 72 0 64.8 0 56L0 16C0 7.19 7.19 0 16 0Z" fill="#F85835" fill-opacity="1.000000" fill-rule="evenodd"/>
		<path id="形状结合" d="M55 44C58.9 44 62 47.1 62 51C62 54.89 58.9 58 55 58C51.1 58 48 54.89 48 51C48 47.1 51.1 44 55 44ZM57.3 48.1L54.2 51.6L52.2 49.8C51.8 49.39 51.2 49.5 50.8 49.89C50.4 50.3 50.5 50.89 50.9 51.3L52.9 53.1C53.7 53.8 55 53.8 55.7 53L58.8 49.5C59.2 49.1 59.1 48.5 58.7 48.1C58.3 47.6 57.7 47.6 57.3 48.1ZM54.8 18C57.1 18 59 19.89 59 22.2L59 42.89C58.4 42.6 57.7 42.3 57 42.2L57 39L57 42.2C56.4 42.1 55.7 42 55 42C50 42 46 46 46 51C46 51.3 46 51.7 46.1 52L17.29 52C16.2 52 15.2 51.6 14.4 50.89C14.3 50.89 14.3 50.8 14.3 50.8C13.5 50 13.1 49 13.1 47.8L13.1 22.2C13.1 19.89 15 18 17.29 18L54.8 18ZM54.8 20L17.2 20C16 20 15 21 15 22.2L15 45.2L25.1 37.1L34.4 44.1C34.6 44.3 34.7 44.3 35.1 44.3C35.3 44.3 35.6 44.1 35.8 44.1L48 31L57 39L57 22.2C57 21 56 20 54.8 20ZM23 25C24.1 25 25 25.89 25 27C25 28.1 24.1 29 23 29C21.9 29 21 28.1 21 27C21 25.89 21.9 25 23 25Z" fill="#FFFFFF" fill-opacity="1.000000" fill-rule="nonzero"/>
	</g>
</svg>
