<svg width="72.000000" height="72.000000" viewBox="0 0 72 72" fill="none" xmlns="http://www.w3.org/2000/svg" xmlns:xlink="http://www.w3.org/1999/xlink">
	<desc>
			Created with Pixso.
	</desc>
	<defs>
		<clipPath id="clip117_135">
			<rect id="5#语音交互服务-SIS" width="72.000000" height="72.000000" fill="white" fill-opacity="0"/>
		</clipPath>
	</defs>
	<g clip-path="url(#clip117_135)">
		<path id="矩形备份-19" d="M16 0L56 0C64.8 0 72 7.19 72 16L72 56C72 64.8 64.8 72 56 72L16 72C7.19 72 0 64.8 0 56L0 16C0 7.19 7.19 0 16 0Z" fill="#F85835" fill-opacity="1.000000" fill-rule="evenodd"/>
		<path id="形状结合" d="M53 11.5C56.04 11.5 58.5 13.96 58.5 17L58.5 28.77C58.5 29.6 57.83 30.27 57 30.27C56.16 30.27 55.5 29.6 55.5 28.77L55.5 17C55.5 15.62 54.37 14.5 53 14.5L17 14.5C15.62 14.5 14.5 15.62 14.5 17L14.5 53C14.5 54.37 15.62 55.5 17 55.5L46.56 55.5L46.56 50.95C42.31 50.48 39 46.87 39 42.5L39 40C39 39.45 39.45 39 40 39C40.55 39 41 39.45 41 40L41 42.5C41 46.09 43.9 49 47.5 49C51.09 49 54 46.09 54 42.5L54 40C54 39.45 54.45 39 55 39C55.55 39 56 39.45 56 40L56 42.5C56 46.84 52.75 50.4 48.56 50.93L48.56 55.5L57 55.5C57.83 55.5 58.5 56.16 58.5 57C58.5 57.83 57.83 58.5 57 58.5L17 58.5C13.96 58.5 11.5 56.04 11.5 53L11.5 17C11.5 13.96 13.96 11.5 17 11.5L53 11.5ZM24.48 36.5C25.04 36.5 25.46 36.89 25.46 37.45L25.46 43.45C25.46 44.62 26.48 45.59 27.74 45.59L37.52 45.59C38.08 45.59 38.5 45.99 38.5 46.54C38.5 47.1 38.08 47.49 37.52 47.49L27.74 47.49C25.38 47.49 23.5 45.66 23.5 43.43L23.5 37.43C23.5 36.89 23.91 36.5 24.48 36.5ZM47.5 31C50.5 31 53 33.46 53 36.42L53 41.58C53 44.55 50.5 47.01 47.5 47.01C44.5 47.01 42 44.54 42 41.57L42 36.41C42 33.46 44.5 31 47.5 31ZM47.5 33C45.59 33 44 34.57 44 36.42L44 41.58C44 43.43 45.59 45.01 47.5 45.01C49.4 45.01 51 43.43 51 41.58L51 36.42C51 34.57 49.4 33 47.5 33ZM27.13 19.51C27.33 19.53 27.49 19.56 27.63 19.63C27.91 19.78 28.1 19.93 28.24 20.2L36.43 35.12C36.61 35.61 36.43 36.14 35.92 36.38C35.43 36.55 34.89 36.38 34.67 35.97L31.45 30.31L22.28 30.31L19.27 35.89C19.17 36.23 18.86 36.48 18.52 36.5L18.41 36.5L18.21 36.5L18.04 36.41L17.88 36.28C17.54 35.96 17.39 35.46 17.61 35.05L25.8 20.16C25.91 20 26.05 19.86 26.2 19.76C26.31 19.67 26.38 19.63 26.56 19.56L26.78 19.51C26.92 19.5 27.02 19.5 27.13 19.51ZM26.95 21.85L23.37 28.39L30.52 28.39L26.95 21.85Z" fill="#FFFFFF" fill-opacity="1.000000" fill-rule="nonzero"/>
	</g>
</svg>
