<svg width="72.000000" height="72.000000" viewBox="0 0 72 72" fill="none" xmlns="http://www.w3.org/2000/svg" xmlns:xlink="http://www.w3.org/1999/xlink">
	<desc>
			Created with Pixso.
	</desc>
	<defs>
		<clipPath id="clip117_139">
			<rect id="50#内容审核视频-VCM" width="72.000000" height="72.000000" fill="white" fill-opacity="0"/>
		</clipPath>
	</defs>
	<g clip-path="url(#clip117_139)">
		<path id="矩形备份-19" d="M16 0L56 0C64.8 0 72 7.19 72 16L72 56C72 64.8 64.8 72 56 72L16 72C7.19 72 0 64.8 0 56L0 16C0 7.19 7.19 0 16 0Z" fill="#FF9A2E" fill-opacity="1.000000" fill-rule="evenodd"/>
		<path id="形状结合" d="M55 44C58.9 44 62 47.1 62 51C62 54.89 58.9 58 55 58C51.1 58 48 54.89 48 51C48 47.1 51.1 44 55 44ZM57.3 48.1L54.2 51.6L52.2 49.8C51.8 49.39 51.2 49.5 50.8 49.89C50.4 50.3 50.5 50.89 50.9 51.3L52.9 53.1C53.7 53.8 55 53.8 55.7 53L58.8 49.5C59.2 49.1 59.1 48.5 58.7 48.1C58.3 47.6 57.7 47.6 57.3 48.1ZM54.8 18C57.1 18 59 19.89 59 22.2L59 42.89C57.8 42.3 56.4 42 55 42C53.4 42 51.8 42.39 50.5 43.2L50.5 20L21.5 20L21.5 50L46.1 50C46.1 50.3 46 50.7 46 51C46 51.3 46 51.7 46.1 52L17.29 52C15 52 13.1 50.1 13.1 47.8L13.1 22.2C13.1 19.89 15 18 17.29 18L54.8 18ZM18.5 44.5L15.5 44.5C14.9 44.5 14.5 44.89 14.5 45.5C14.5 46.1 14.9 46.5 15.5 46.5L18.5 46.5C19.1 46.5 19.5 46.1 19.5 45.5C19.5 44.89 19.1 44.5 18.5 44.5ZM40.5 38.5C41.1 38.5 41.5 38.89 41.5 39.5C41.5 40.1 41.1 40.5 40.5 40.5L26.5 40.5C25.9 40.5 25.5 40.1 25.5 39.5C25.5 38.89 25.9 38.5 26.5 38.5L40.5 38.5ZM18.5 37.5L15.5 37.5C14.9 37.5 14.5 37.89 14.5 38.5C14.5 39.1 14.9 39.5 15.5 39.5L18.5 39.5C19.1 39.5 19.5 39.1 19.5 38.5C19.5 37.89 19.1 37.5 18.5 37.5ZM56.5 37.5L53.5 37.5C52.9 37.5 52.5 37.89 52.5 38.5C52.5 39.1 52.9 39.5 53.5 39.5L56.5 39.5C57.1 39.5 57.5 39.1 57.5 38.5C57.5 37.89 57.1 37.5 56.5 37.5ZM45.5 32.5C46.1 32.5 46.5 32.89 46.5 33.5C46.5 34.1 46.1 34.5 45.5 34.5L26.5 34.5C25.9 34.5 25.5 34.1 25.5 33.5C25.5 32.89 25.9 32.5 26.5 32.5L45.5 32.5ZM18.5 30.5L15.5 30.5C14.9 30.5 14.5 30.89 14.5 31.5C14.5 32.1 14.9 32.5 15.5 32.5L18.5 32.5C19.1 32.5 19.5 32.1 19.5 31.5C19.5 30.89 19.1 30.5 18.5 30.5ZM56.5 30.5L53.5 30.5C52.9 30.5 52.5 30.89 52.5 31.5C52.5 32.1 52.9 32.5 53.5 32.5L56.5 32.5C57.1 32.5 57.5 32.1 57.5 31.5C57.5 30.89 57.1 30.5 56.5 30.5ZM45.5 26.5C46.1 26.5 46.5 26.89 46.5 27.5C46.5 28.1 46.1 28.5 45.5 28.5L26.5 28.5C25.9 28.5 25.5 28.1 25.5 27.5C25.5 26.89 25.9 26.5 26.5 26.5L45.5 26.5ZM18.5 23.5L15.5 23.5C14.9 23.5 14.5 23.89 14.5 24.5C14.5 25.1 14.9 25.5 15.5 25.5L18.5 25.5C19.1 25.5 19.5 25.1 19.5 24.5C19.5 23.89 19.1 23.5 18.5 23.5ZM56.5 23.5L53.5 23.5C52.9 23.5 52.5 23.89 52.5 24.5C52.5 25.1 52.9 25.5 53.5 25.5L56.5 25.5C57.1 25.5 57.5 25.1 57.5 24.5C57.5 23.89 57.1 23.5 56.5 23.5Z" fill="#FFFFFF" fill-opacity="1.000000" fill-rule="nonzero"/>
	</g>
</svg>
