<svg width="72.000000" height="72.000000" viewBox="0 0 72 72" fill="none" xmlns="http://www.w3.org/2000/svg" xmlns:xlink="http://www.w3.org/1999/xlink">
	<desc>
			Created with Pixso.
	</desc>
	<defs>
		<clipPath id="clip117_129">
			<rect id="51#文字识别-OCR" width="72.000000" height="72.000000" fill="white" fill-opacity="0"/>
		</clipPath>
	</defs>
	<g clip-path="url(#clip117_129)">
		<path id="矩形备份-19" d="M16 0L56 0C64.8 0 72 7.19 72 16L72 56C72 64.8 64.8 72 56 72L16 72C7.19 72 0 64.8 0 56L0 16C0 7.19 7.19 0 16 0Z" fill="#FF9A2E" fill-opacity="1.000000" fill-rule="evenodd"/>
		<path id="形状结合" d="M51.5 12C53.89 12 55.89 14 55.89 16.39L55.89 55.7C55.89 58.1 53.89 60.1 51.5 60.1L29.2 60.1L15.89 46.89L15.89 16.39C15.89 14 17.89 12 20.29 12L51.5 12ZM26.7 46.89L18.2 46.89L23.89 52.6L29.59 57.89L29.59 49.6C29.5 48.1 28.2 46.89 26.7 46.89ZM26.39 35.2C25.89 35.2 25.59 35.6 25.59 36L25.59 39.8C25.59 41.5 27 42.89 28.7 42.89L31.89 42.89C32.39 42.89 32.7 42.5 32.7 42.1C32.7 41.7 32.29 41.3 31.89 41.3L28.7 41.3C27.89 41.3 27.29 40.7 27.29 39.89L27.29 36C27.29 35.5 26.89 35.2 26.39 35.2ZM45.89 35.2C45.39 35.2 45.09 35.6 45.09 36L45.09 39.8C45.09 40.6 44.5 41.2 43.7 41.2L40.5 41.2C40 41.2 39.7 41.6 39.7 42C39.7 42.39 40.09 42.8 40.5 42.8L43.7 42.8C45.39 42.8 46.79 41.39 46.79 39.7L46.79 36C46.79 35.5 46.39 35.2 45.89 35.2ZM29.5 32.7L29 32.7C28.5 32.7 28.2 33.1 28.2 33.5C28.2 34 28.59 34.3 29 34.3L29.59 34.3C30.09 34.3 30.39 33.89 30.39 33.5C30.39 33.1 30 32.7 29.5 32.7ZM42.89 32.7L33.39 32.7C32.89 32.7 32.59 33.1 32.59 33.5C32.59 34 33 34.3 33.39 34.3L42.89 34.3C43.39 34.3 43.7 33.89 43.7 33.5C43.7 33.1 43.29 32.7 42.89 32.7ZM29.5 28.39L29 28.39C28.5 28.39 28.2 28.8 28.2 29.2C28.2 29.6 28.5 30 29 30L29.59 30C30.09 30 30.39 29.6 30.39 29.2C30.39 28.8 30 28.39 29.5 28.39ZM42.89 28.39L33.39 28.39C32.89 28.39 32.59 28.8 32.59 29.2C32.59 29.6 33 30 33.39 30L42.89 30C43.39 30 43.7 29.6 43.7 29.2C43.7 28.8 43.29 28.39 42.89 28.39ZM31.89 20.2L28.7 20.2C27 20.2 25.59 21.6 25.59 23.3L25.59 27C25.59 27.5 26 27.8 26.39 27.8C26.89 27.8 27.2 27.39 27.2 27L27.2 23.2C27.2 22.39 27.79 21.8 28.59 21.8L31.79 21.8C32.29 21.8 32.59 21.39 32.59 21C32.59 20.6 32.39 20.2 31.89 20.2ZM43.7 20.2L40.5 20.2C40 20.2 39.7 20.6 39.7 21C39.7 21.39 40.09 21.8 40.5 21.8L43.7 21.8C44.5 21.8 45.09 22.39 45.09 23.2L45.09 27C45.09 27.5 45.5 27.8 45.89 27.8C46.39 27.8 46.7 27.39 46.7 27L46.7 23.2C46.79 21.5 45.39 20.2 43.7 20.2Z" fill="#FFFFFF" fill-opacity="1.000000" fill-rule="evenodd"/>
	</g>
</svg>
