<svg width="72.000000" height="72.000000" viewBox="0 0 72 72" fill="none" xmlns="http://www.w3.org/2000/svg" xmlns:xlink="http://www.w3.org/1999/xlink">
	<desc>
			Created with Pixso.
	</desc>
	<defs>
		<clipPath id="clip117_121">
			<rect id="52#内容审核-Moderation" width="72.000000" height="72.000000" fill="white" fill-opacity="0"/>
		</clipPath>
	</defs>
	<g clip-path="url(#clip117_121)">
		<path id="矩形备份-19" d="M16 0L56 0C64.79 0 72 7.19 72 16L72 56C72 64.8 64.79 72 56 72L16 72C7.2 72 0 64.8 0 56L0 16C0 7.19 7.2 0 16 0Z" fill="#9F53E6" fill-opacity="1.000000" fill-rule="evenodd"/>
		<path id="形状结合" d="M45.98 42.89C50.18 42.89 53.58 46.2 53.58 50.39C53.58 52.1 53.08 53.6 52.08 54.89L55.48 58.2C55.88 58.6 55.88 59.3 55.48 59.7C55.28 59.89 54.98 60 54.68 60C54.38 60 54.18 59.89 53.88 59.7L50.58 56.5C49.28 57.5 47.68 57.89 45.88 57.89C41.68 57.89 38.28 54.6 38.28 50.39C38.38 46.2 41.78 42.89 45.98 42.89ZM49.68 12C52.38 12 54.68 14.2 54.68 16.89L54.68 43.89C52.68 41.3 49.58 39.6 45.98 39.6C39.98 39.6 35.08 44.39 35.08 50.3C35.08 53.8 36.78 56.89 39.38 58.8L20.48 58.8C17.78 58.89 15.58 56.7 15.58 54L15.58 17C15.58 14.2 17.78 12 20.48 12L49.68 12ZM45.98 45.1C42.98 45.1 40.58 47.39 40.58 50.39C40.58 53.39 42.98 55.7 45.98 55.7C48.98 55.7 51.38 53.39 51.38 50.39C51.38 47.39 48.98 45.1 45.98 45.1ZM24.28 32.3L22.08 32.3C21.48 32.3 20.98 32.8 20.98 33.39C20.98 34 21.48 34.5 22.08 34.5L24.28 34.5C24.88 34.5 25.38 34 25.38 33.39C25.38 32.7 24.88 32.3 24.28 32.3ZM48.18 32.3L28.58 32.3C27.98 32.3 27.48 32.8 27.48 33.39C27.48 34 27.98 34.5 28.58 34.5L48.18 34.5C48.78 34.5 49.28 34 49.28 33.39C49.18 32.7 48.78 32.3 48.18 32.3ZM24.28 25.89L22.08 25.89C21.48 25.89 20.98 26.39 20.98 27C20.98 27.6 21.48 28.1 22.08 28.1L24.28 28.1C24.88 28.1 25.38 27.6 25.38 27C25.38 26.3 24.88 25.89 24.28 25.89ZM48.18 25.89L28.58 25.89C27.98 25.89 27.48 26.39 27.48 27C27.48 27.6 27.98 28.1 28.58 28.1L48.18 28.1C48.78 28.1 49.28 27.6 49.28 27C49.18 26.3 48.78 25.89 48.18 25.89ZM24.28 19.5L22.08 19.5C21.48 19.5 20.98 20 20.98 20.6C20.98 21.2 21.48 21.7 22.08 21.7L24.28 21.7C24.88 21.7 25.38 21.2 25.38 20.6C25.38 20 24.88 19.5 24.28 19.5ZM48.18 19.5L28.58 19.5C27.98 19.5 27.48 20 27.48 20.6C27.48 21.2 27.98 21.7 28.58 21.7L48.18 21.7C48.78 21.7 49.28 21.2 49.28 20.6C49.28 20 48.78 19.5 48.18 19.5Z" fill="#FFFFFF" fill-opacity="1.000000" fill-rule="evenodd"/>
	</g>
</svg>
