<svg width="72.000000" height="72.000000" viewBox="0 0 72 72" fill="none" xmlns="http://www.w3.org/2000/svg" xmlns:xlink="http://www.w3.org/1999/xlink">
	<desc>
			Created with Pixso.
	</desc>
	<defs>
		<clipPath id="clip117_122">
			<rect id="53#智能文档解析平台-smart-ocr" width="72.000000" height="72.000000" fill="white" fill-opacity="0"/>
		</clipPath>
	</defs>
	<g clip-path="url(#clip117_122)">
		<path id="矩形备份-19" d="M16 0L56 0C64.79 0 72 7.19 72 16L72 56C72 64.8 64.79 72 56 72L16 72C7.2 72 0 64.8 0 56L0 16C0 7.19 7.2 0 16 0Z" fill="#9F53E6" fill-opacity="1.000000" fill-rule="evenodd"/>
		<path id="合并" d="M26.48 15.67L17.89 15.67C17.54 15.67 17.22 15.73 16.93 15.85C16.63 15.98 16.36 16.16 16.12 16.4C15.88 16.65 15.69 16.92 15.57 17.21C15.45 17.5 15.39 17.82 15.39 18.17L15.39 26.82C15.39 27.66 14.73 28.32 13.89 28.32C13.05 28.32 12.39 27.66 12.39 26.82L12.39 18.17C12.39 17.41 12.52 16.71 12.79 16.06C13.06 15.41 13.46 14.82 14 14.28C14.54 13.74 15.13 13.34 15.78 13.07C16.42 12.8 17.13 12.67 17.89 12.67L26.48 12.67C27.32 12.67 27.98 13.33 27.98 14.17C27.98 15.01 27.32 15.67 26.48 15.67ZM53.48 15.67L44.89 15.67C44.05 15.67 43.39 15.01 43.39 14.17C43.39 13.33 44.05 12.67 44.89 12.67L53.48 12.67C54.24 12.67 54.94 12.8 55.59 13.07C56.24 13.34 56.83 13.74 57.37 14.28C57.9 14.82 58.31 15.41 58.58 16.06C58.84 16.71 58.98 17.41 58.98 18.17L58.98 26.82C58.98 27.66 58.32 28.32 57.48 28.32C56.64 28.32 55.98 27.66 55.98 26.82L55.98 18.17C55.98 17.82 55.92 17.5 55.8 17.21C55.67 16.92 55.49 16.65 55.25 16.4C55 16.16 54.73 15.98 54.44 15.85C54.14 15.73 53.82 15.67 53.48 15.67ZM24.54 20.02L39.46 20.02L50 29.81L50 48.66C49.96 49.63 49.56 50.43 48.83 51.08C48.15 51.75 47.32 52.06 46.36 52.02L24.54 52.02C24.1 52.01 23.68 51.94 23.28 51.78C22.87 51.61 22.53 51.36 22.25 51.04C21.93 50.71 21.7 50.34 21.55 49.92C21.41 49.51 21.35 49.09 21.36 48.66L21.36 23.38C21.35 22.94 21.41 22.52 21.55 22.12C21.7 21.71 21.94 21.35 22.25 21.05C22.86 20.37 23.62 20.02 24.54 20.02ZM48.32 30.7L39.46 22.16L39.46 28.46C39.46 29.72 40.07 30.7 41.23 30.7L48.32 30.7ZM25.55 27.95L33.72 27.95C33.85 27.95 33.98 27.97 34.09 28.02C34.21 28.06 34.32 28.13 34.42 28.23C34.51 28.31 34.58 28.41 34.64 28.51C34.7 28.63 34.74 28.78 34.75 28.93C34.75 29.06 34.72 29.19 34.68 29.31C34.63 29.43 34.55 29.55 34.45 29.65C34.35 29.75 34.24 29.82 34.11 29.87C33.99 29.92 33.86 29.95 33.72 29.95L25.55 29.95C25.42 29.94 25.3 29.91 25.2 29.87C25.07 29.81 24.96 29.73 24.86 29.63C24.78 29.54 24.72 29.45 24.67 29.35C24.61 29.22 24.59 29.07 24.59 28.92C24.59 28.77 24.63 28.64 24.69 28.52C24.73 28.42 24.8 28.33 24.88 28.25C24.97 28.16 25.06 28.09 25.16 28.05C25.28 27.99 25.41 27.96 25.55 27.95ZM41.1 35.04C41.22 35.05 41.34 35.07 41.44 35.12C41.56 35.17 41.67 35.24 41.77 35.34C41.85 35.42 41.92 35.51 41.97 35.61C42.03 35.73 42.06 35.86 42.06 36.01C42.07 36.14 42.05 36.27 42 36.39C41.96 36.51 41.88 36.62 41.79 36.72C41.69 36.82 41.59 36.89 41.48 36.95C41.36 37 41.23 37.03 41.1 37.04L25.55 37.04C25.43 37.03 25.32 37.01 25.22 36.96C25.09 36.91 24.97 36.83 24.86 36.72C24.79 36.64 24.72 36.55 24.68 36.45C24.62 36.32 24.59 36.16 24.59 36C24.59 35.86 24.62 35.73 24.68 35.62C24.73 35.52 24.8 35.42 24.88 35.34C24.97 35.25 25.06 35.18 25.16 35.14C25.28 35.08 25.41 35.05 25.55 35.04L41.1 35.04ZM31.81 42.13C31.94 42.13 32.07 42.15 32.19 42.2C32.3 42.25 32.41 42.32 32.5 42.41C32.61 42.52 32.68 42.64 32.73 42.78C32.77 42.88 32.79 42.99 32.79 43.1C32.79 43.26 32.77 43.4 32.72 43.53C32.67 43.63 32.6 43.73 32.52 43.82C32.42 43.92 32.32 44 32.2 44.05C32.08 44.1 31.95 44.13 31.8 44.12L25.55 44.12C25.43 44.12 25.32 44.1 25.22 44.05C25.09 44 24.97 43.92 24.86 43.81C24.78 43.72 24.72 43.63 24.67 43.53C24.61 43.4 24.59 43.25 24.59 43.1C24.59 42.95 24.63 42.82 24.69 42.69C24.73 42.6 24.8 42.51 24.88 42.43C24.96 42.35 25.04 42.29 25.13 42.24C25.26 42.17 25.4 42.14 25.55 42.13L31.81 42.13ZM26.48 56.32L17.89 56.32C17.54 56.32 17.22 56.26 16.93 56.14C16.63 56.01 16.36 55.83 16.12 55.59C15.88 55.34 15.69 55.07 15.57 54.78C15.45 54.49 15.39 54.17 15.39 53.82L15.39 45.17C15.39 44.33 14.73 43.67 13.89 43.67C13.05 43.67 12.39 44.33 12.39 45.17L12.39 53.82C12.39 54.58 12.52 55.28 12.79 55.93C13.06 56.58 13.46 57.17 14 57.71C14.54 58.25 15.13 58.65 15.78 58.92C16.42 59.19 17.13 59.32 17.89 59.32L26.48 59.32C27.32 59.32 27.98 58.66 27.98 57.82C27.98 56.98 27.32 56.32 26.48 56.32ZM53.48 56.32L44.89 56.32C44.05 56.32 43.39 56.98 43.39 57.82C43.39 58.66 44.05 59.32 44.89 59.32L53.48 59.32C54.24 59.32 54.94 59.19 55.59 58.92C56.24 58.65 56.83 58.25 57.37 57.71C57.9 57.17 58.31 56.58 58.58 55.93C58.84 55.28 58.98 54.58 58.98 53.82L58.98 45.17C58.98 44.33 58.32 43.67 57.48 43.67C56.64 43.67 55.98 44.33 55.98 45.17L55.98 53.82C55.98 54.17 55.92 54.49 55.79 54.78C55.67 55.07 55.49 55.34 55.25 55.59C55 55.83 54.73 56.01 54.44 56.14C54.14 56.26 53.82 56.32 53.48 56.32Z" fill="#FFFFFF" fill-opacity="1.000000" fill-rule="evenodd"/>
	</g>
</svg>
