<svg width="72.000000" height="72.000000" viewBox="0 0 72 72" fill="none" xmlns="http://www.w3.org/2000/svg" xmlns:xlink="http://www.w3.org/1999/xlink">
	<desc>
			Created with Pixso.
	</desc>
	<defs>
		<clipPath id="clip117_115">
			<rect id="6#图像识别-Image" width="72.000000" height="72.000000" fill="white" fill-opacity="0"/>
		</clipPath>
	</defs>
	<g clip-path="url(#clip117_115)">
		<path id="矩形备份-19" d="M16 0L56 0C64.8 0 72 7.19 72 16L72 56C72 64.8 64.8 72 56 72L16 72C7.19 72 0 64.8 0 56L0 16C0 7.19 7.19 0 16 0Z" fill="#FF9A2E" fill-opacity="1.000000" fill-rule="evenodd"/>
		<path id="形状结合" d="M37 14C37.8 14 38.5 14.7 38.5 15.5L38.5 55.5C38.5 56.3 37.8 57 37 57C36.2 57 35.5 56.3 35.5 55.5L35.5 51.8C35.4 51.8 35.4 51.8 35.3 51.8L16.1 51.8C13.9 51.8 12.1 50 12.1 47.8L12.1 22.5C12.1 20.29 13.9 18.5 16.1 18.5L35.3 18.5C35.4 18.5 35.4 18.5 35.5 18.5L35.5 15.5C35.5 14.7 36.1 14 37 14ZM57.2 18.5C59.4 18.5 61.2 20.29 61.2 22.5L61.2 47.89C61.2 50.1 59.4 51.89 57.2 51.89L41.1 51.89C40.5 51.89 40.1 51.5 40.1 50.89C40.1 50.3 40.5 49.89 41.1 49.89L57.3 49.89C58.4 49.89 59.3 49 59.3 47.89L59.3 39.7L40.9 39.7C40.4 39.7 40 39.3 40 38.8C40 38.3 40.4 37.89 40.9 37.89L59.2 37.89L59.2 22.6C59.2 21.5 58.3 20.6 57.2 20.6L41.1 20.6C40.5 20.6 40.1 20.2 40.1 19.6C40.1 19 40.5 18.6 41.1 18.6L57.2 18.5ZM35.5 20.5C35.4 20.5 35.4 20.5 35.3 20.5L16.1 20.5C15 20.5 14.1 21.39 14.1 22.5L14.1 45.89L24.9 37.3L32.7 44.89C32.9 45.1 33 45.1 33.4 45.1C33.6 45.1 33.9 44.89 34.1 44.89L35.5 43L35.5 20.5ZM27.3 26.5C29.5 26.5 31.4 28.39 31.4 30.6C31.4 32.8 29.5 34.7 27.3 34.7C25.1 34.7 23.2 32.8 23.2 30.6C23.2 28.39 25.1 26.5 27.3 26.5ZM55.5 32.3C56 32.3 56.4 32.7 56.4 33.2C56.4 33.7 56 34.1 55.5 34.1L43.7 34.1C43.2 34.1 42.8 33.7 42.8 33.2C42.8 32.7 43.2 32.3 43.7 32.3L55.5 32.3ZM51.9 26.8C52.4 26.8 52.8 27.2 52.8 27.7C52.8 28.2 52.4 28.6 51.9 28.6L48.3 28.6C47.8 28.6 47.4 28.2 47.4 27.7C47.4 27.2 47.8 26.8 48.3 26.8L51.9 26.8Z" fill="#FFFFFF" fill-opacity="1.000000" fill-rule="nonzero"/>
	</g>
</svg>
