<svg width="72.000000" height="72.000000" viewBox="0 0 72 72" fill="none" xmlns="http://www.w3.org/2000/svg" xmlns:xlink="http://www.w3.org/1999/xlink">
	<desc>
			Created with Pixso.
	</desc>
	<defs>
		<clipPath id="clip117_118">
			<rect id="7#图像标签-Image Tagging" width="72.000000" height="72.000000" fill="white" fill-opacity="0"/>
		</clipPath>
	</defs>
	<g clip-path="url(#clip117_118)">
		<path id="矩形备份-19" d="M16 0L56 0C64.8 0 72 7.19 72 16L72 56C72 64.8 64.8 72 56 72L16 72C7.19 72 0 64.8 0 56L0 16C0 7.19 7.19 0 16 0Z" fill="#7DCC29" fill-opacity="1.000000" fill-rule="evenodd"/>
		<path id="形状结合" d="M55.91 17.52C58.27 17.52 60.26 19.51 60.26 21.87L60.26 48.52C60.26 50.88 58.27 52.87 55.91 52.87L16.78 52.87C14.42 52.87 12.43 50.88 12.43 48.52L12.43 21.87C12.43 19.51 14.42 17.52 16.78 17.52L55.91 17.52ZM55.91 19.52L16.78 19.52C15.53 19.52 14.43 20.62 14.43 21.87L14.43 46.78L24.85 40.33L34.62 45.94C34.79 46.11 34.97 46.11 35.31 46.11C35.48 46.11 35.83 45.94 36 45.94L47.43 33.84L58.25 45.86L58.25 21.86C58.26 20.62 57.17 19.52 55.91 19.52ZM51.25 23.03C52.2 23.03 52.98 23.81 52.98 24.77L52.98 29.12C52.98 30.08 52.2 30.86 51.25 30.86L42.66 30.86C42.05 30.86 41.53 30.6 41.19 30.08L39.46 27.3L28 27.3C27.91 27.3 27.83 27.3 27.74 27.39L25.31 29.56C25.74 30.17 25.92 30.86 25.92 31.56C25.92 33.47 24.36 35.04 22.45 35.04C20.54 35.04 18.98 33.46 18.98 31.55C18.98 29.64 20.54 28.07 22.45 28.07C23.32 28.07 24.1 28.42 24.71 28.85L27.14 26.59C27.4 26.33 27.66 26.24 28.01 26.24L39.55 26.24L41.2 23.81C41.55 23.29 42.07 23.03 42.67 23.03L51.25 23.03ZM22.48 30.03C21.65 30.03 20.98 30.7 20.98 31.53C20.98 32.36 21.65 33.03 22.48 33.03C23.31 33.03 23.98 32.36 23.98 31.53C23.98 30.7 23.31 30.03 22.48 30.03ZM47.48 28.03L42.48 28.03C42.2 28.03 41.98 28.25 41.98 28.53C41.98 28.81 42.2 29.03 42.48 29.03L47.48 29.03C47.76 29.03 47.98 28.81 47.98 28.53C47.98 28.25 47.76 28.03 47.48 28.03ZM51.48 25.03L42.48 25.03C42.2 25.03 41.98 25.25 41.98 25.53C41.98 25.81 42.2 26.03 42.48 26.03L51.48 26.03C51.76 26.03 51.98 25.81 51.98 25.53C51.98 25.25 51.76 25.03 51.48 25.03Z" fill="#FFFFFF" fill-opacity="1.000000" fill-rule="nonzero"/>
	</g>
</svg>
