<svg width="72.000000" height="72.000000" viewBox="0 0 72 72" fill="none" xmlns="http://www.w3.org/2000/svg" xmlns:xlink="http://www.w3.org/1999/xlink">
	<desc>
			Created with Pixso.
	</desc>
	<defs>
		<clipPath id="clip117_134">
			<rect id="8#名人识别-ROC" width="72.000000" height="72.000000" fill="white" fill-opacity="0"/>
		</clipPath>
	</defs>
	<g clip-path="url(#clip117_134)">
		<path id="矩形备份-19" d="M16 0L56 0C64.8 0 72 7.19 72 16L72 56C72 64.8 64.8 72 56 72L16 72C7.19 72 0 64.8 0 56L0 16C0 7.19 7.19 0 16 0Z" fill="#9F53E6" fill-opacity="1.000000" fill-rule="evenodd"/>
		<path id="形状结合" d="M35.99 19.47C39.76 19.47 42.82 22.53 42.82 26.3C42.82 28.44 41.83 30.36 40.29 31.61C41.45 32.09 42.61 32.76 43.78 33.63C44.44 34.13 44.58 35.07 44.08 35.73C43.58 36.39 42.64 36.53 41.98 36.03C37.87 32.97 34.17 32.97 30.44 36C29.8 36.52 28.85 36.43 28.33 35.78C27.81 35.14 27.9 34.19 28.55 33.67C29.6 32.81 30.67 32.14 31.76 31.66C30.18 30.41 29.16 28.47 29.16 26.3C29.16 22.53 32.22 19.47 35.99 19.47ZM35.99 22.47C33.87 22.47 32.16 24.19 32.16 26.3C32.16 28.41 33.88 30.13 35.99 30.13C38.1 30.13 39.82 28.41 39.82 26.3C39.82 24.19 38.11 22.47 35.99 22.47ZM26.79 12.62C27.62 12.62 28.29 13.29 28.29 14.12C28.29 14.95 27.62 15.62 26.79 15.62L18.2 15.62C16.82 15.62 15.7 16.74 15.7 18.12L15.7 26.77C15.7 27.6 15.03 28.27 14.2 28.27C13.37 28.27 12.7 27.6 12.7 26.77L12.7 18.12C12.7 15.08 15.16 12.62 18.2 12.62L26.79 12.62ZM53.79 12.62C56.83 12.62 59.29 15.08 59.29 18.12L59.29 26.77C59.29 27.6 58.62 28.27 57.79 28.27C56.96 28.27 56.29 27.6 56.29 26.77L56.29 18.12C56.29 16.74 55.17 15.62 53.79 15.62L45.2 15.62C44.37 15.62 43.7 14.95 43.7 14.12C43.7 13.29 44.37 12.62 45.2 12.62L53.79 12.62ZM14.2 43.62C15.03 43.62 15.7 44.29 15.7 45.12L15.7 53.77C15.7 55.15 16.82 56.27 18.2 56.27L26.79 56.27C27.62 56.27 28.29 56.94 28.29 57.77C28.29 58.6 27.62 59.27 26.79 59.27L18.2 59.27C15.16 59.27 12.7 56.81 12.7 53.77L12.7 45.12C12.7 44.29 13.37 43.62 14.2 43.62ZM57.79 43.62C58.62 43.62 59.29 44.29 59.29 45.12L59.29 53.77C59.29 56.81 56.83 59.27 53.79 59.27L45.2 59.27C44.37 59.27 43.7 58.6 43.7 57.77C43.7 56.94 44.37 56.27 45.2 56.27L53.79 56.27C55.17 56.27 56.29 55.15 56.29 53.77L56.29 45.12C56.29 44.29 56.96 43.62 57.79 43.62ZM36.21 37.58C36.31 37.63 36.39 37.71 36.44 37.81L38.03 41.04C38.32 41.63 38.88 42.04 39.54 42.13L43.1 42.65C43.37 42.69 43.56 42.94 43.52 43.22C43.5 43.33 43.45 43.43 43.37 43.51L40.79 46.02C40.32 46.48 40.1 47.14 40.21 47.79L40.82 51.34C40.87 51.61 40.68 51.87 40.41 51.92C40.3 51.94 40.19 51.92 40.09 51.87L36.9 50.19C36.32 49.88 35.62 49.88 35.04 50.19L31.85 51.87C31.61 52 31.3 51.9 31.17 51.66C31.12 51.56 31.1 51.45 31.12 51.34L31.73 47.79C31.84 47.14 31.63 46.48 31.15 46.02L28.57 43.51C28.37 43.32 28.37 43 28.56 42.8C28.64 42.72 28.74 42.67 28.85 42.65L32.41 42.13C33.06 42.04 33.62 41.63 33.92 41.04L35.51 37.81C35.66 37.56 35.96 37.46 36.21 37.58ZM27.08 36.53C27.5 36.55 28.03 36.87 28.27 37.37L29.39 39.65L29.81 40.5C29.07 40.59 28.59 40.67 28.38 40.71C28.16 40.76 27.98 40.83 27.82 40.92C27.78 40.88 27.71 40.75 27.59 40.53C27.49 40.34 27.27 39.88 26.91 39.16L26.23 40.53C25.82 41.36 25.06 41.95 24.16 42.14L23.99 42.17L22.48 42.39L23.57 43.46C24.23 44.1 24.55 45.01 24.46 45.92L24.43 46.11L24.17 47.61L25.52 46.9C26.33 46.47 27.29 46.44 28.12 46.81L28.31 46.9C28.83 47.17 29.07 47.3 29.27 47.41L29.42 47.49C29.46 47.51 29.53 47.55 29.65 47.61C29.68 47.62 29.67 47.84 29.65 48.05C29.62 48.28 29.52 48.9 29.38 49.73L28.96 49.51C28.75 49.4 28.62 49.33 28.49 49.26L28.34 49.18C28.13 49.07 27.89 48.94 27.38 48.67C27.09 48.52 26.74 48.52 26.45 48.67L24.2 49.85C23.84 50.04 23.43 50.07 23.06 49.95C22.68 49.83 22.36 49.57 22.18 49.22C22.03 48.93 21.97 48.59 22.03 48.27L22.46 45.77C22.52 45.45 22.41 45.11 22.17 44.88L20.35 43.11C20.06 42.83 19.9 42.45 19.9 42.05C19.9 41.66 20.05 41.27 20.33 40.99C20.56 40.75 20.86 40.6 21.19 40.55L23.7 40.18C24.03 40.13 24.31 39.93 24.45 39.63L25.57 37.35C25.75 36.99 26.06 36.72 26.43 36.59C26.67 36.54 26.88 36.51 27.08 36.53ZM45.54 36.61C45.91 36.74 46.23 37.01 46.4 37.37L47.52 39.65C47.67 39.95 47.95 40.15 48.27 40.2L50.78 40.57C51.11 40.62 51.41 40.77 51.64 41.01C51.92 41.3 52.07 41.68 52.07 42.07C52.06 42.47 51.9 42.85 51.62 43.13L49.8 44.9C49.56 45.13 49.46 45.46 49.51 45.79L49.94 48.29C50 48.62 49.94 48.95 49.79 49.24C49.6 49.6 49.28 49.86 48.91 49.97C48.53 50.09 48.12 50.05 47.77 49.87L45.52 48.69C45.23 48.54 44.88 48.54 44.59 48.69C44.07 48.96 43.83 49.09 43.63 49.2L43.48 49.28C43.35 49.35 43.22 49.42 43.01 49.53L42.59 49.75C42.46 49 42.38 48.5 42.34 48.24L42.32 48.11C42.3 47.89 42.29 47.64 42.32 47.63C42.44 47.57 42.52 47.53 42.55 47.51L42.7 47.43C42.91 47.32 43.15 47.19 43.66 46.92L43.85 46.83C44.68 46.46 45.64 46.49 46.45 46.92L47.8 47.63L47.54 46.13L47.51 45.94C47.41 45.03 47.74 44.12 48.4 43.48L49.49 42.41L47.99 42.17L47.8 42.14C46.91 41.95 46.14 41.36 45.73 40.53L45.05 39.16C44.7 39.88 44.47 40.34 44.37 40.53C44.26 40.75 44.18 40.88 44.14 40.92C43.98 40.83 43.8 40.76 43.58 40.71C43.36 40.66 42.89 40.59 42.15 40.5L42.57 39.65L43.69 37.37C43.94 36.87 44.46 36.56 44.88 36.53C45.1 36.51 45.31 36.54 45.54 36.61Z" fill="#FFFFFF" fill-opacity="1.000000" fill-rule="nonzero"/>
	</g>
</svg>
