<svg width="72.000000" height="72.000000" viewBox="0 0 72 72" fill="none" xmlns="http://www.w3.org/2000/svg" xmlns:xlink="http://www.w3.org/1999/xlink">
	<desc>
			Created with Pixso.
	</desc>
	<defs>
		<clipPath id="clip117_120">
			<rect id="9#AI开发平台-ModelArts" width="72.000000" height="72.000000" fill="white" fill-opacity="0"/>
		</clipPath>
	</defs>
	<g clip-path="url(#clip117_120)">
		<path id="矩形备份-19" d="M16 0L56 0C64.8 0 72 7.19 72 16L72 56C72 64.8 64.8 72 56 72L16 72C7.19 72 0 64.8 0 56L0 16C0 7.19 7.19 0 16 0Z" fill="#1476FF" fill-opacity="1.000000" fill-rule="evenodd"/>
		<path id="形状结合" d="M48.29 18.79C50.59 18.79 52.39 20.6 52.39 22.9C52.39 24.1 51.89 25.2 51 26L56.79 45.9C58.89 46.1 60.5 47.8 60.5 50C60.5 52.3 58.7 54.1 56.39 54.1C54.09 54.1 52.29 52.3 52.29 50C52.29 49.5 52.39 49.1 52.5 48.7L42.39 40L39.2 47.3C39.7 48 40 48.8 40.09 49.6L40.09 49.8C40.09 52.1 38.29 53.9 36 53.9C33.7 53.9 31.89 52.1 31.89 49.8C31.89 48.7 32.29 47.7 33 47L29.89 40.1L19.5 49C19.59 49.3 19.59 49.6 19.59 49.9C19.59 52.2 17.79 54 15.5 54C13.2 54 11.39 52.2 11.39 49.9C11.39 47.6 13.2 45.8 15.5 45.8C15.59 45.8 15.59 45.8 15.7 45.8L21.39 26.2C20.39 25.5 19.7 24.2 19.7 22.9C19.7 20.6 21.5 18.79 23.79 18.79C26.09 18.79 27.89 20.6 27.89 22.9C27.89 23.5 27.79 24.1 27.5 24.7L36.39 32.2L44.89 25C44.59 24.4 44.39 23.8 44.29 23.1L44.29 22.9C44.2 20.6 46 18.79 48.29 18.79ZM24.09 27.1L18.39 47C18.5 47.1 18.5 47.1 18.59 47.2L29.09 38.3L24.09 27.1ZM48.09 27L43.2 38.1L53.59 46.9C53.7 46.8 53.79 46.7 53.89 46.6L48.29 27C48.2 27 48.2 27 48.09 27ZM36.29 34.8L32.2 38.2L35.59 45.8C35.7 45.8 35.7 45.8 35.79 45.8L36 45.8C36.2 45.8 36.5 45.8 36.7 45.9L40.09 38.1L36.29 34.8ZM27.29 27.3L31.29 36.3L34.59 33.5L27.29 27.3ZM44.7 27.7L37.89 33.5L41 36.1L44.7 27.7Z" fill="#FFFFFF" fill-opacity="1.000000" fill-rule="evenodd"/>
	</g>
</svg>
