<?xml version="1.0" encoding="UTF-8"?>
<svg width="14px" height="16px" viewBox="0 0 14 16" version="1.1" xmlns="http://www.w3.org/2000/svg" xmlns:xlink="http://www.w3.org/1999/xlink">
    <title>路径</title>
    <g id="页面-2" stroke="none" stroke-width="1" fill="none" fill-rule="evenodd">
        <g id="Tiny-Design-首页" transform="translate(-1433.000000, -4114.000000)" fill="#2C2E30" fill-rule="nonzero">
            <g id="FOOTER" transform="translate(0.000000, 3992.000000)">
                <g id="编组-34" transform="translate(1432.000000, 120.000000)">
                    <g id="编组-3" transform="translate(0.000000, 2.000000)">
                        <path d="M1,14.7149463 C1,15.4569086 2.03140681,15.723591 4.06877366,15.8836866 C5.25011415,15.9765159 6.38410303,16 8,16 C9.61589679,16 10.7498857,15.9765159 11.9312263,15.8836866 C13.9685932,15.723591 15,15.4569086 15,14.7149463 C15,13.1133741 12.3717286,11.65186 9.49740836,11.0752141 L9.78480398,11.4048696 L9.67302574,9.86297635 L9.42914152,10.2343016 C10.4479499,9.8903769 11.0322442,9.17954213 11.5060158,7.93103375 L11.2645133,8.15135675 C11.7236876,8.02687189 12.1344381,7.71455766 12.4039945,7.27652308 C12.9402079,6.40516534 12.7633497,5.28921466 11.9753262,4.78920731 C11.9011171,4.74212105 11.8235088,4.70191487 11.743106,4.66877088 L11.6085614,5.00530456 L11.9662517,5.00530478 C11.9662527,3.42036457 11.7338749,2.41463765 11.1304508,1.72804246 L10.8635783,1.96987891 L11.0190881,2.29696423 C11.4840144,2.0690471 11.7505083,1.75786745 11.4673196,1.34707184 C11.3345629,1.15449402 11.1264251,0.985533192 10.85956,0.82572657 C10.7196555,0.741947758 10.5717097,0.66595524 10.4239755,0.598460476 C10.3350678,0.55784157 10.2648628,0.528614873 10.2221635,0.512137888 L10.3885763,1.05929365 C10.4091949,1.02924504 10.4335108,0.987490033 10.4570554,0.934824306 C10.507862,0.821177039 10.5355665,0.700774354 10.5220768,0.569685241 C10.4833734,0.193574431 10.1579622,0 9.65941069,0 C9.1779612,0 8.60389559,0.290045019 7.96035107,0.755703906 L8.16792764,1.05149499 L8.17749027,0.688416942 C8.07914818,0.68574631 7.97822642,0.684415807 7.87463121,0.684415807 C4.82098464,0.684415807 3.79294407,1.83978447 3.78309037,4.94975328 L4.14077888,4.95092181 L4.02040262,4.60889986 C3.91863601,4.64583062 3.82091716,4.69379974 3.7284385,4.75247822 C2.94041505,5.25248557 2.76355681,6.36843624 3.29977026,7.23979399 C3.5781587,7.69218085 4.00704347,8.01017232 4.4833112,8.12595448 L4.2320725,7.90132655 C4.76312093,9.32568005 5.26748609,9.96178872 6.35576324,10.2417272 L6.08615167,9.8762816 L6.03026255,11.4181748 L6.3197905,11.0749343 C3.50227272,11.628261 1,13.0761629 1,14.7149463 Z" id="路径"></path>
                    </g>
                </g>
            </g>
        </g>
    </g>
</svg>