<?xml version="1.0" encoding="UTF-8"?>
<svg width="16px" height="16px" viewBox="0 0 16 16" version="1.1" xmlns="http://www.w3.org/2000/svg" xmlns:xlink="http://www.w3.org/1999/xlink">
    <title>编组 2</title>
    <g id="页面-2" stroke="none" stroke-width="1" fill="none" fill-rule="evenodd">
        <g id="Tiny-Design-首页" transform="translate(-1247.000000, -4114.000000)">
            <g id="FOOTER" transform="translate(0.000000, 3992.000000)">
                <g id="3" transform="translate(1247.000000, 120.000000)">
                    <g id="编组-2" transform="translate(0.000000, 2.000000)">
                        <path d="M3.51720686,0 C2.68270668,0 2,0.720048002 2,1.600256 L2,14.399808 C2,15.279952 2.68270668,16 3.51720686,16 L14,16 L14,0 L3.51720686,0 Z M5.26618474,0.822335994 L7.79488306,0.822335994 L7.79488306,6.91198399 L6.5305339,5.97852799 L5.26618474,6.91198399 L5.26618474,0.822335994 L5.26618474,0.822335994 Z M12.9480191,15.13528 L4.02293741,15.13528 C3.39704332,15.13528 2.8850171,14.595168 2.8850171,13.935152 C2.8850171,13.274992 3.39704332,12.73496 4.02293741,12.73496 L12.9480191,12.73496 L12.9480191,15.13528 Z" id="形状" fill="#2C2E30" fill-rule="nonzero"></path>
                        <rect id="矩形" fill-opacity="0" fill="#D8D8D8" x="0" y="0" width="16" height="16"></rect>
                    </g>
                </g>
            </g>
        </g>
    </g>
</svg>