<?xml version="1.0" encoding="UTF-8"?>
<svg width="16px" height="16px" viewBox="0 0 16 16" version="1.1" xmlns="http://www.w3.org/2000/svg" xmlns:xlink="http://www.w3.org/1999/xlink">
    <title>形状</title>
    <g id="页面-2" stroke="none" stroke-width="1" fill="none" fill-rule="evenodd">
        <g id="Tiny-Design-首页" transform="translate(-953.000000, -4115.000000)" fill="#2C2E30" fill-rule="nonzero">
            <g id="FOOTER" transform="translate(0.000000, 3992.000000)">
                <g id="2" transform="translate(953.000000, 120.000000)">
                    <path d="M15.3469388,7.88382687 C14.9478458,6.93621867 14.3673469,6.06150342 13.6417233,5.33257404 L13.5328798,5.22323462 C12.0453515,3.80182232 10.0498866,3 7.98185941,3 C5.84126984,3 3.84580499,3.8382688 2.32199547,5.33257404 L2.32199547,5.3690205 C0.834467124,6.89977221 0,8.90432802 0,11.0182232 C0,11.8929385 0.145124718,12.6947608 0.39909297,13.4965831 C0.653061223,14.2255125 0.979591842,14.9179954 1.41496598,15.5740319 L1.48752835,15.6469248 L1.48752835,18.7084282 C1.48752835,18.8542141 1.63265307,19 1.77777778,19 L7.98185941,19 C9.07029479,19 10.0861678,18.7813212 11.1020408,18.38041 C12.0453515,17.9794989 12.9160998,17.3963554 13.6417233,16.667426 L13.7505669,16.5580866 C15.2018141,15.0637813 16,13.095672 16,10.9817768 C15.9637188,9.92482916 15.7460317,8.90432802 15.3469388,7.88382687 Z M10.8480726,12.2938497 L7.98185941,15.0637813 C7.94557822,15.1002278 7.87301587,15.1366743 7.80045351,15.1366743 C7.72789114,15.1366743 7.69160997,15.1002278 7.61904762,15.0637813 L4.78911564,12.3302961 L4.75283446,12.2938497 C4.06349206,11.6013667 3.88208617,10.7266515 4.20861677,9.88838268 C4.57142856,8.97722095 5.47845804,8.35763098 6.42176871,8.35763098 C6.85714286,8.35763098 7.292517,8.50341686 7.69160997,8.75854214 L7.76417234,8.79498862 L7.83673469,8.75854214 C8.23582766,8.50341686 8.67120181,8.35763098 9.10657597,8.35763098 C10.0498866,8.35763098 10.9569161,8.97722095 11.3197279,9.88838268 C11.7188209,10.7266515 11.537415,11.6013667 10.8480726,12.2938497 L10.8480726,12.2938497 Z" id="形状"></path>
                </g>
            </g>
        </g>
    </g>
</svg>