<?xml version="1.0" encoding="UTF-8"?>
<svg width="16px" height="16px" viewBox="0 0 16 16" version="1.1" xmlns="http://www.w3.org/2000/svg" xmlns:xlink="http://www.w3.org/1999/xlink">
    <title>编组</title>
    <g id="页面-2" stroke="none" stroke-width="1" fill="none" fill-rule="evenodd">
        <g id="Tiny-Design-首页" transform="translate(-753.000000, -4114.000000)">
            <g id="FOOTER" transform="translate(0.000000, 3992.000000)">
                <g id="1" transform="translate(753.000000, 119.000000)">
                    <g id="编组" transform="translate(0.000000, 3.000000)">
                        <path d="M8.41594277,0 L8.415,3.782 L11.3592233,2.78156313 L15,14.4769539 L11.9340828,15.5190381 L8.415,4.215 L8.41594277,16 L4.99744507,16 L4.99744507,0 L8.41594277,0 Z M3.67143587,1.57114228 L3.67143587,15.5751503 L0,15.5751503 L0,1.57114228 L3.67143587,1.57114228 Z M11.0219724,3.5511022 L9.00613183,4.24048096 L9.34338273,5.31462926 L11.3592233,4.6252505 L11.0219724,3.5511022 Z M3.04292284,2.28456914 L0.636177823,2.28456914 L0.636177823,3.5751503 L3.04292284,3.5751503 L3.04292284,2.28456914 Z M7.91006643,0.617234469 L5.57996934,0.617234469 L5.57996934,1.86773547 L7.91006643,1.86773547 L7.91006643,0.617234469 Z" id="形状结合" fill="#2C2E30" fill-rule="nonzero"></path>
                        <rect id="矩形" fill-opacity="0" fill="#D8D8D8" x="0" y="0" width="16" height="16"></rect>
                    </g>
                </g>
            </g>
        </g>
    </g>
</svg>