<svg width="72.000000" height="72.000000" viewBox="0 0 72 72" fill="none" xmlns="http://www.w3.org/2000/svg" xmlns:xlink="http://www.w3.org/1999/xlink">
	<desc>
			Created with Pixso.
	</desc>
	<defs>
		<clipPath id="clip117_63">
			<rect id="10#存储容灾服务-SDRS" width="72.000000" height="72.000000" fill="white" fill-opacity="0"/>
		</clipPath>
	</defs>
	<g clip-path="url(#clip117_63)">
		<path id="矩形备份-19" d="M16 0L56 0C64.8 0 72 7.19 72 16L72 56C72 64.8 64.8 72 56 72L16 72C7.19 72 0 64.8 0 56L0 16C0 7.19 7.19 0 16 0Z" fill="#1476FF" fill-opacity="1.000000" fill-rule="evenodd"/>
		<path id="形状结合" d="M36 12C36.93 12 37.86 12.24 38.7 12.71L49.52 18.86L43.14 22.54C40.9 23.83 39.52 26.23 39.52 28.82L39.52 29.61C39.52 30.43 40.19 31.11 41.02 31.11C41.85 31.11 42.52 30.43 42.52 29.61L42.52 28.82C42.52 27.3 43.33 25.89 44.64 25.13L52.55 20.58L55.08 22.02C56.72 22.95 57.75 24.64 57.84 26.52L57.85 26.76L57.85 45.23C57.85 47.18 56.8 49 55.09 49.98L52.54 51.42L44.66 46.87C43.35 46.12 42.54 44.72 42.54 43.2L42.54 42.38C42.54 41.56 41.87 40.88 41.04 40.88C40.21 40.88 39.54 41.56 39.54 42.38L39.54 43.2C39.54 45.79 40.92 48.17 43.16 49.48L49.52 53.14L38.72 59.29C37.98 59.71 37.16 59.95 36.33 59.99L36 60C35.07 60 34.14 59.76 33.3 59.29L22.46 53.12L28.78 49.48C30.94 48.23 32.3 45.96 32.4 43.48L32.41 43.2L32.41 28.82C32.41 26.23 31.03 23.84 28.79 22.54L22.45 18.87L33.31 12.71C34.05 12.29 34.87 12.05 35.7 12.01L36 12ZM19.41 20.61L27.27 25.14C28.58 25.9 29.39 27.31 29.39 28.83L29.39 43.2C29.39 44.72 28.58 46.12 27.27 46.87L19.43 51.4L16.92 49.98C15.28 49.05 14.25 47.35 14.16 45.48L14.15 45.24L14.15 26.77C14.15 24.81 15.2 23 16.91 22.02L19.41 20.61ZM41.01 32.05C40.18 32.05 39.51 32.72 39.51 33.55L39.51 38.48C39.51 39.31 40.18 39.98 41.01 39.98C41.84 39.98 42.51 39.31 42.51 38.48L42.51 33.55C42.51 32.73 41.84 32.05 41.01 32.05Z" fill="#FFFFFF" fill-opacity="1.000000" fill-rule="evenodd"/>
	</g>
</svg>
