<svg width="72.000000" height="72.000000" viewBox="0 0 72 72" fill="none" xmlns="http://www.w3.org/2000/svg" xmlns:xlink="http://www.w3.org/1999/xlink">
	<desc>
			Created with Pixso.
	</desc>
	<defs>
		<clipPath id="clip117_56">
			<rect id="11#数据快递服务-DES" width="72.000000" height="72.000000" fill="white" fill-opacity="0"/>
		</clipPath>
	</defs>
	<g clip-path="url(#clip117_56)">
		<path id="矩形备份-19" d="M16 0L56 0C64.8 0 72 7.19 72 16L72 56C72 64.8 64.8 72 56 72L16 72C7.19 72 0 64.8 0 56L0 16C0 7.19 7.19 0 16 0Z" fill="#25C251" fill-opacity="1.000000" fill-rule="evenodd"/>
		<path id="形状结合" d="M36 18.04C41.98 18.04 46.98 22.16 48.28 27.72C54.87 28.47 60 34.04 60 40.8C60 48.07 54.07 53.96 46.76 53.96L25.24 53.96C20.1 53.96 15.64 51.05 13.46 46.8L32.13 46.8C32.54 46.8 32.91 46.64 33.2 46.36L42.13 37.41L42.13 40.93C42.13 41.72 42.73 42.36 43.5 42.42L43.63 42.43C44.47 42.43 45.13 41.77 45.13 40.93L45.13 33.8C45.13 33.65 45.12 33.5 45.08 33.38C45.06 33.32 45.01 33.16 44.98 33.11C44.97 33.09 44.91 33 44.89 32.98C44.87 32.96 44.84 32.88 44.82 32.86C44.8 32.84 44.75 32.77 44.73 32.75C44.71 32.73 44.63 32.66 44.62 32.65C44.6 32.63 44.53 32.58 44.51 32.57C44.49 32.56 44.41 32.5 44.39 32.49C44.37 32.48 44.29 32.42 44.27 32.41C44.2 32.39 44.06 32.34 43.98 32.32C43.92 32.31 43.87 32.3 43.83 32.29L43.63 32.27L36.5 32.27C35.66 32.27 35 32.93 35 33.77L35 33.93C35.07 34.7 35.71 35.3 36.49 35.3L40 35.3L31.51 43.8L12.35 43.8C12.12 42.84 12 41.83 12 40.8C12 39.91 12.09 39.06 12.25 38.22L28.23 38.22C29.06 38.22 29.73 37.55 29.73 36.72C29.73 35.89 29.06 35.22 28.23 35.22L13.24 35.22C15.14 31.16 19.06 28.25 23.71 27.72C25.02 22.16 30.02 18.04 36 18.04Z" fill="#FFFFFF" fill-opacity="1.000000" fill-rule="evenodd"/>
	</g>
</svg>
