<svg width="72.000000" height="72.000000" viewBox="0 0 72 72" fill="none" xmlns="http://www.w3.org/2000/svg" xmlns:xlink="http://www.w3.org/1999/xlink">
	<desc>
			Created with Pixso.
	</desc>
	<defs>
		<clipPath id="clip117_61">
			<rect id="12#地图数据服务-MapDS" width="72.000000" height="72.000000" fill="white" fill-opacity="0"/>
		</clipPath>
	</defs>
	<g clip-path="url(#clip117_61)">
		<path id="矩形备份-19" d="M16 0L56 0C64.8 0 72 7.19 72 16L72 56C72 64.8 64.8 72 56 72L16 72C7.19 72 0 64.8 0 56L0 16C0 7.19 7.19 0 16 0Z" fill="#1476FF" fill-opacity="1.000000" fill-rule="evenodd"/>
		<path id="形状" d="M34.91 13C35.46 13 36.01 13.44 36.01 14.1C36.01 14.76 35.46 15.2 34.91 15.2L31.95 15.2C31.07 16.62 29.21 19.91 29.54 22.54C29.87 25.72 29.43 27.69 28.01 28.56C27.57 28.78 27.13 28.89 26.59 28.89C25.17 28.89 23.41 27.9 21.11 25.82C18.92 23.85 16.73 22.75 15.52 23.19C15.41 23.3 15.3 23.3 15.19 23.41L15.19 30.97C15.41 30.75 15.63 30.53 16.07 30.31C17.82 29.32 19.9 29.87 20.78 30.2C21.33 30.42 22.2 30.97 23.3 31.73C25.38 33.15 28.01 34.91 29.76 34.91C30.2 34.91 30.53 34.91 30.75 34.69C31.52 34.14 31.74 32.94 31.52 30.86C30.97 26.48 33.38 21.77 35.24 19.8C35.46 19.58 35.79 19.58 36.01 19.8C36.23 20.02 36.23 20.35 36.01 20.57C34.7 21.99 32.07 26.38 32.61 30.76C32.94 33.28 32.5 34.92 31.3 35.69C30.86 36.02 30.31 36.13 29.77 36.13C27.69 36.13 24.95 34.38 22.65 32.73C21.77 32.18 20.79 31.42 20.35 31.31C19.69 31.09 17.94 30.54 16.63 31.31C16.08 31.64 15.64 32.19 15.32 32.95L15.32 39.52C17.18 37.44 19.26 36.34 21.23 36.12C24.84 35.79 28.02 38.53 30.21 40.61C30.54 40.83 30.76 41.05 30.98 41.27C32.4 42.58 34.05 43.35 35.36 43.35C35.91 43.35 36.46 43.24 36.89 43.02C37.66 42.69 39.41 41.71 39.41 37.21C39.41 36.88 39.63 36.66 39.96 36.66C40.29 36.66 40.51 36.88 40.51 37.21C40.51 41.81 38.65 43.34 37.33 44C36.78 44.33 36.02 44.44 35.36 44.44C33.06 44.44 30.98 42.8 30.21 42.14C29.99 41.92 29.66 41.7 29.44 41.48C27.25 39.51 24.4 36.88 21.23 37.21C19.26 37.43 17.18 38.74 15.21 41.15L15.21 55.83C15.21 56.27 15.54 56.6 15.76 56.82C16.2 55.07 18.94 48.39 25.07 47.84C29.23 47.4 32.85 50.91 35.69 53.65C37.44 55.4 38.98 56.83 40.18 56.83C41.6 56.83 42.92 55.19 43.58 53.65C44.24 52.01 44.57 49.82 44.89 47.3C45.33 44.12 45.88 40.51 47.3 36.89C47.52 36.56 47.74 36.45 48.07 36.56C48.4 36.67 48.51 36.89 48.4 37.22C46.98 40.72 46.54 44.23 46.1 47.41C45.77 50.04 45.44 52.34 44.68 54.09C44.24 55.08 43.58 56.06 42.82 56.83L55.74 56.83C56.4 56.83 56.84 56.28 56.84 55.73L56.84 37.64C56.84 37.09 57.39 36.54 57.94 36.54C58.49 36.54 59.04 37.09 59.04 37.64L59.04 55.71C59.04 57.57 57.51 59 55.75 59L16.29 59C14.43 59 13 57.47 13 55.71L13 16.28C13 14.42 14.53 12.99 16.29 12.99L34.91 13ZM25.27 48.81C20.01 49.36 17.49 55.16 16.95 56.81L37.65 56.81C36.88 56.15 36.01 55.28 35.02 54.4C32.28 51.77 28.88 48.49 25.27 48.81ZM38.63 27.46C38.96 27.46 39.18 27.68 39.18 28.01C39.18 30.75 41.37 32.83 44 32.83C44.33 32.83 44.55 33.05 44.55 33.38C44.55 33.68 44.37 33.88 44.1 33.92C40.81 33.92 38.09 31.3 38.09 28.02C38.09 27.72 38.36 27.5 38.63 27.46ZM41.15 27.24C41.48 27.24 41.7 27.46 41.7 27.79C41.7 29.21 42.8 30.31 44.22 30.31C44.55 30.31 44.77 30.53 44.77 30.86C44.77 31.19 44.55 31.41 44.22 31.41C42.25 31.41 40.61 29.77 40.61 27.8C40.61 27.5 40.88 27.28 41.15 27.24ZM44.55 13.22L48.38 17.05C48.6 17.27 48.6 17.6 48.38 17.82L47.83 18.37L49.03 19.57L50.89 17.71C51.33 17.27 52.09 17.27 52.64 17.71L54.39 19.46C54.83 19.9 54.83 20.66 54.39 21.21L52.53 23.07L53.73 24.27L54.28 23.72C54.5 23.5 54.83 23.5 55.05 23.72L58.88 27.55C59.1 27.77 59.1 28.1 58.88 28.32L57.03 30.19C56.81 30.41 56.48 30.41 56.26 30.19L52.43 26.36C52.21 26.14 52.21 25.81 52.43 25.59L52.98 25.04L51.78 23.84L49.48 26.14C49.37 25.26 48.93 24.5 48.28 23.84C47.63 23.18 46.86 22.85 45.98 22.64L48.17 20.34L46.97 19.14L46.42 19.69C46.2 19.91 45.87 19.91 45.65 19.69L41.93 15.86C41.71 15.64 41.71 15.31 41.93 15.09L43.79 13.23C44 13 44.33 13 44.55 13.22ZM47.28 24.72C48.81 26.14 48.92 28.44 47.83 30.09C47.61 30.42 47.06 30.42 46.84 30.2L41.8 25.27C41.47 24.94 41.58 24.5 41.91 24.28C43.56 23.19 45.75 23.29 47.28 24.72ZM30.53 15.19L26.92 15.19C26.81 16.07 26.26 18.15 24.18 19.79C23.41 20.34 22.21 20.56 21 20.56C18.92 20.56 16.4 20.01 14.98 19.57L14.98 22.2C16.62 21.65 19.14 22.75 21.66 25.05C24.29 27.46 26.15 28.34 27.25 27.68C28.24 27.02 28.67 25.27 28.35 22.64C28.12 20.01 29.65 16.94 30.53 15.19ZM25.93 15.19L16.18 15.19C15.63 15.19 15.19 15.63 15.19 16.18L15.19 18.37C18.48 19.36 22.31 19.9 23.62 18.92C25.38 17.6 25.82 15.96 25.93 15.19Z" fill="#FFFFFF" fill-opacity="1.000000" fill-rule="nonzero"/>
	</g>
</svg>
