<svg width="72.000000" height="72.000000" viewBox="0 0 72 72" fill="none" xmlns="http://www.w3.org/2000/svg" xmlns:xlink="http://www.w3.org/1999/xlink">
	<desc>
			Created with Pixso.
	</desc>
	<defs>
		<clipPath id="clip117_57">
			<rect id="13#企业专属分布式存储服务-DESS" width="72.000000" height="72.000000" fill="white" fill-opacity="0"/>
		</clipPath>
	</defs>
	<g clip-path="url(#clip117_57)">
		<path id="矩形备份-19" d="M16 0L56 0C64.8 0 72 7.19 72 16L72 56C72 64.8 64.8 72 56 72L16 72C7.19 72 0 64.8 0 56L0 16C0 7.19 7.19 0 16 0Z" fill="#00C4BE" fill-opacity="1.000000" fill-rule="evenodd"/>
		<path id="Fill-1" d="M48.42 12.05L23.69 12.05C20.85 12.05 18.55 14.45 18.55 17.5L18.55 54.59C18.55 57.64 20.85 60.04 23.69 60.04L48.31 60.04C51.16 60.04 53.45 57.64 53.45 54.59L53.45 17.5C53.56 14.45 51.26 12.05 48.42 12.05ZM41.64 33.37L36.52 26.29C36.3 25.97 35.87 25.97 35.65 26.29L30.53 33.37L24.98 30.37C24.76 30.26 24.36 30.16 24.14 30.37C23.93 30.58 24 30.69 24 30.9L27.27 41.62C27.38 41.83 27.6 42.05 27.81 42.05L44.14 42.05C44.36 42.05 44.58 41.94 44.68 41.62L47.95 30.9C48.06 30.69 47.95 30.47 47.73 30.36C47.62 30.25 47.29 30.25 47.19 30.36L41.64 33.37ZM27.74 45.05C27.4 45.05 27 45.45 27 46.05C27 46.65 27.4 47.05 27.74 47.05L44.24 47.05C44.58 47.05 44.99 46.65 44.99 46.05C44.99 45.45 44.57 45.05 44.24 45.05L27.74 45.05Z" fill="#FFFFFF" fill-opacity="1.000000" fill-rule="evenodd"/>
	</g>
</svg>
