<svg width="72.000000" height="72.000000" viewBox="0 0 72 72" fill="none" xmlns="http://www.w3.org/2000/svg" xmlns:xlink="http://www.w3.org/1999/xlink">
	<desc>
			Created with Pixso.
	</desc>
	<defs>
		<clipPath id="clip117_215">
			<rect id="14#键值存储服务-KVS" width="72.000000" height="72.000000" fill="white" fill-opacity="0"/>
		</clipPath>
	</defs>
	<g clip-path="url(#clip117_215)">
		<path id="矩形备份-19" d="M16 0L56 0C64.8 0 72 7.19 72 16L72 56C72 64.8 64.8 72 56 72L16 72C7.19 72 0 64.8 0 56L0 16C0 7.19 7.19 0 16 0Z" fill="#1476FF" fill-opacity="1.000000" fill-rule="evenodd"/>
		<path id="形状结合" d="M41.84 19.17C49.17 19.83 55.26 25.11 56.95 32.27C57.18 33.24 56.58 34.21 55.61 34.44C54.64 34.67 53.67 34.07 53.44 33.1C52.1 27.44 47.3 23.28 41.51 22.75C35.2 22.18 29.93 24.69 27.77 29.62L26.74 31.95L26.35 32.84L25.4 33L22.93 33.42C19.74 33.98 17.4 37.73 17.39 41.98C17.41 46.39 20.37 49.71 24.4 49.72L36.16 49.72C37.15 49.72 37.96 50.53 37.96 51.52C37.96 52.51 37.15 53.32 36.16 53.32L24.39 53.32C18.29 53.3 13.82 48.3 13.79 41.98C13.81 36.14 17.16 30.77 22.32 29.87L23.84 29.61L24.48 28.17C27.31 21.71 34.1 18.47 41.84 19.17ZM55.13 50C55.96 50 56.63 50.67 56.63 51.5C56.63 52.33 55.96 53 55.13 53L43.13 53C42.3 53 41.63 52.33 41.63 51.5C41.63 50.67 42.3 50 43.13 50L55.13 50ZM24.41 38.42L24.41 42.62L28.61 38.42L30.22 38.42L26.64 41.89L30.32 47.03L28.8 47.03L25.79 42.71L24.41 44.03L24.41 47.03L23.27 47.03L23.27 38.42L24.41 38.42ZM31.96 38.42L34.43 45.75L36.87 38.42L38.18 38.42L35.04 47.03L33.8 47.03L30.67 38.42L31.96 38.42ZM60.5 43.5C61.33 43.5 62 44.17 62 45C62 45.83 61.33 46.5 60.5 46.5L47.5 46.5C46.67 46.5 46 45.83 46 45C46 44.17 46.67 43.5 47.5 43.5L60.5 43.5ZM58.16 37C58.99 37 59.66 37.67 59.66 38.5C59.66 39.33 58.99 40 58.16 40L45.16 40C44.33 40 43.66 39.33 43.66 38.5C43.66 37.67 44.33 37 45.16 37L58.16 37Z" fill="#FFFFFF" fill-opacity="1.000000" fill-rule="nonzero"/>
	</g>
</svg>
