<svg width="72.000000" height="72.000000" viewBox="0 0 72 72" fill="none" xmlns="http://www.w3.org/2000/svg" xmlns:xlink="http://www.w3.org/1999/xlink">
	<desc>
			Created with Pixso.
	</desc>
	<defs>
		<clipPath id="clip117_216">
			<rect id="15#高性能文件存储-SFS-Turbo" width="72.000000" height="72.000000" fill="white" fill-opacity="0"/>
		</clipPath>
	</defs>
	<g clip-path="url(#clip117_216)">
		<path id="矩形备份-19" d="M16 0L56 0C64.8 0 72 7.19 72 16L72 56C72 64.8 64.8 72 56 72L16 72C7.19 72 0 64.8 0 56L0 16C0 7.19 7.19 0 16 0Z" fill="#9F53E6" fill-opacity="1.000000" fill-rule="evenodd"/>
		<path id="形状" d="M58.25 27.68L13.25 27.68L13.25 21.39C13.25 19.18 14.95 17.39 17.14 17.29L27.55 17.29L31.64 21.39L54.14 21.39C56.45 21.39 58.25 23.18 58.25 25.49L58.25 27.68ZM38.73 51.31C38.33 50.7 37.99 50.06 37.7 49.38C37.4 48.7 37.18 48.01 37.04 47.3C36.84 46.46 36.75 45.6 36.75 44.71C36.75 43.82 36.84 42.96 37.03 42.11C37.18 41.4 37.4 40.71 37.68 40.03C37.98 39.35 38.32 38.71 38.72 38.1C39.15 37.42 39.67 36.8 40.25 36.22C40.84 35.64 41.47 35.13 42.13 34.67C42.75 34.28 43.38 33.93 44.07 33.65C44.75 33.36 45.43 33.14 46.14 32.99C47 32.8 47.86 32.71 48.75 32.71C49.63 32.71 50.5 32.8 51.35 32.99C52.06 33.15 52.75 33.37 53.42 33.65C54.11 33.93 54.75 34.28 55.36 34.67C56.03 35.12 56.65 35.64 57.24 36.22C57.61 36.59 57.93 36.97 58.25 37.37L58.25 29.68L13.25 29.68L13.25 49.99C13.25 52.29 15.05 54.09 17.35 54.09L41.26 54.09C40.9 53.81 40.58 53.51 40.25 53.18C39.67 52.61 39.16 51.99 38.73 51.31ZM58.75 44.71C58.75 50.23 54.27 54.71 48.75 54.71C43.22 54.71 38.75 50.23 38.75 44.71C38.75 39.17 43.22 34.71 48.75 34.71C54.27 34.71 58.75 39.17 58.75 44.71ZM53.75 43.71L49.25 43.71L52.25 38.71L46.75 38.71L44.75 46.71L47.28 46.71L45.25 52.71L53.75 43.71Z" fill="#FFFFFF" fill-opacity="1.000000" fill-rule="evenodd"/>
	</g>
</svg>
