<svg width="72.000000" height="72.000000" viewBox="0 0 72 72" fill="none" xmlns="http://www.w3.org/2000/svg" xmlns:xlink="http://www.w3.org/1999/xlink">
	<desc>
			Created with Pixso.
	</desc>
	<defs>
		<clipPath id="clip117_60">
			<rect id="2#云硬盘-EVS" width="72.000000" height="72.000000" fill="white" fill-opacity="0"/>
		</clipPath>
	</defs>
	<g clip-path="url(#clip117_60)">
		<path id="矩形备份-19" d="M16 0L56 0C64.8 0 72 7.19 72 16L72 56C72 64.8 64.8 72 56 72L16 72C7.19 72 0 64.8 0 56L0 16C0 7.19 7.19 0 16 0Z" fill="#F85835" fill-opacity="1.000000" fill-rule="evenodd"/>
		<path id="形状结合" d="M46.89 12C50.49 12 53.39 14.89 53.39 18.5L53.39 53.39C53.39 57 50.49 59.89 46.89 59.89L25.09 59.89C21.49 59.89 18.59 57 18.59 53.39L18.59 18.5C18.59 14.89 21.49 12 25.09 12L46.89 12ZM35.7 29.1C33.39 29.1 31.39 30.8 31.09 33.1C28.59 33.2 26.7 35.3 26.7 37.8C26.7 40.3 28.59 42.3 31.09 42.5L40.2 42.5C42.79 42.5 44.89 40.39 44.89 37.8C44.89 35.3 42.89 33.2 40.49 33.1C39.99 30.8 37.99 29.1 35.7 29.1ZM25.09 16.89C24.2 16.89 23.49 17.6 23.49 18.5C23.49 19.39 24.2 20.1 25.09 20.1C25.99 20.1 26.7 19.39 26.7 18.5C26.7 17.6 25.99 16.89 25.09 16.89ZM47.7 16.89C46.79 16.89 46.09 17.6 46.09 18.5C46.09 19.39 46.79 20.1 47.7 20.1C48.59 20.1 49.29 19.39 49.29 18.5C49.29 17.6 48.59 16.89 47.7 16.89Z" fill="#FFFFFF" fill-opacity="1.000000" fill-rule="evenodd"/>
	</g>
</svg>
