<svg width="72.000000" height="72.000000" viewBox="0 0 72 72" fill="none" xmlns="http://www.w3.org/2000/svg" xmlns:xlink="http://www.w3.org/1999/xlink">
	<desc>
			Created with Pixso.
	</desc>
	<defs>
		<clipPath id="clip117_53">
			<rect id="4#云备份-CBR" width="72.000000" height="72.000000" fill="white" fill-opacity="0"/>
		</clipPath>
	</defs>
	<g clip-path="url(#clip117_53)">
		<path id="矩形备份-19" d="M16 0L56 0C64.8 0 72 7.19 72 16L72 56C72 64.8 64.8 72 56 72L16 72C7.19 72 0 64.8 0 56L0 16C0 7.19 7.19 0 16 0Z" fill="#9F53E6" fill-opacity="1.000000" fill-rule="evenodd"/>
		<path id="形状结合" d="M32.33 24.1C37.27 24.1 41.4 27.5 42.55 32.09C48.21 32.25 52.74 36.9 52.74 42.61C52.74 48.41 48.03 53.13 42.22 53.13L22.24 53.13C16.56 52.97 12 48.32 12 42.6C12 36.91 16.49 32.3 22.12 32.08C23.25 27.5 27.38 24.1 32.33 24.1ZM39.59 18.77C44.53 18.77 48.66 22.16 49.81 26.76C55.47 26.93 60 31.58 60 37.28C60 41.46 57.56 45.07 54.03 46.77C54.49 45.47 54.74 44.06 54.74 42.6L54.74 42.29C54.59 36.17 50.06 31.14 44.13 30.23L44.04 30.15C42.22 25.38 37.61 22.1 32.33 22.1L32.02 22.1C31.98 22.1 31.93 22.1 31.9 22.1C33.83 20.04 36.56 18.77 39.59 18.77Z" fill="#FFFFFF" fill-opacity="1.000000" fill-rule="evenodd"/>
	</g>
</svg>
