<svg width="72.000000" height="72.000000" viewBox="0 0 72 72" fill="none" xmlns="http://www.w3.org/2000/svg" xmlns:xlink="http://www.w3.org/1999/xlink">
	<desc>
			Created with Pixso.
	</desc>
	<defs>
		<clipPath id="clip117_65">
			<rect id="5#云硬盘备份-VBS" width="72.000000" height="72.000000" fill="white" fill-opacity="0"/>
		</clipPath>
	</defs>
	<g clip-path="url(#clip117_65)">
		<path id="矩形备份-19" d="M16 0L56 0C64.8 0 72 7.19 72 16L72 56C72 64.8 64.8 72 56 72L16 72C7.19 72 0 64.8 0 56L0 16C0 7.19 7.19 0 16 0Z" fill="#00ABED" fill-opacity="1.000000" fill-rule="evenodd"/>
		<path id="形状结合" d="M40.48 16.13C43.73 16.13 46.4 18.74 46.52 21.96L46.52 22.18L46.52 54.4C46.52 57.65 43.92 60.32 40.7 60.45L40.47 60.45L20.34 60.45C17.09 60.45 14.42 57.84 14.3 54.62L14.3 54.39L14.3 22.17C14.3 18.92 16.9 16.26 20.12 16.13L20.35 16.13L40.48 16.13ZM50.65 12.45C53.97 12.45 56.69 15.16 56.69 18.49L56.69 50.71C56.69 54.03 53.97 56.75 50.65 56.75L47.65 56.75C47.89 56.01 48.03 55.22 48.03 54.39L48.03 38.53C49.81 38.49 51.25 37.03 51.25 35.24C51.25 33.45 49.82 31.99 48.03 31.95L48.03 22.18C48.03 18.04 44.64 14.64 40.49 14.64L25.86 14.64C26.97 13.31 28.64 12.46 30.51 12.46L50.65 12.45ZM30.13 31.93C27.96 31.93 26.17 33.53 25.85 35.6C23.56 35.73 21.75 37.61 21.75 39.93C21.75 42.24 23.54 44.11 25.8 44.26L34.19 44.27C36.58 44.27 38.52 42.32 38.52 39.93C38.52 37.61 36.7 35.73 34.42 35.6C34.1 33.54 32.3 31.93 30.13 31.93ZM20.35 20.66C19.52 20.66 18.84 21.34 18.84 22.17C18.84 23.01 19.52 23.68 20.35 23.68C21.18 23.68 21.86 23.01 21.86 22.17C21.86 21.34 21.18 20.66 20.35 20.66ZM41.24 20.66C40.41 20.66 39.73 21.34 39.73 22.17C39.73 23.01 40.41 23.68 41.24 23.68C42.07 23.68 42.75 23.01 42.75 22.17C42.75 21.34 42.07 20.66 41.24 20.66ZM51.7 16.25C51.01 16.25 50.45 16.82 50.45 17.52C50.45 18.21 51.01 18.79 51.7 18.79C52.39 18.79 52.95 18.21 52.95 17.52C52.94 16.82 52.38 16.25 51.7 16.25Z" fill="#FFFFFF" fill-opacity="1.000000" fill-rule="evenodd"/>
	</g>
</svg>
