<svg width="72.000000" height="72.000000" viewBox="0 0 72 72" fill="none" xmlns="http://www.w3.org/2000/svg" xmlns:xlink="http://www.w3.org/1999/xlink">
	<desc>
			Created with Pixso.
	</desc>
	<defs>
		<clipPath id="clip117_54">
			<rect id="6#云服务器备份-CSBS" width="72.000000" height="72.000000" fill="white" fill-opacity="0"/>
		</clipPath>
	</defs>
	<g clip-path="url(#clip117_54)">
		<path id="矩形备份-19" d="M16 0L56 0C64.8 0 72 7.19 72 16L72 56C72 64.8 64.8 72 56 72L16 72C7.19 72 0 64.8 0 56L0 16C0 7.19 7.19 0 16 0Z" fill="#7DCC29" fill-opacity="1.000000" fill-rule="evenodd"/>
		<path id="形状结合" d="M32.39 24.5C37.1 24.5 41.1 27.7 42.2 32.1C47.6 32.3 51.89 36.7 51.89 42.1C51.89 47.6 47.39 52.1 41.8 52.1L22.8 52.1C17.39 52 13 47.5 13 42.1C13 36.7 17.29 32.3 22.7 32.1C23.7 27.7 27.7 24.5 32.39 24.5ZM39.5 20C44.2 20 48.2 23.2 49.3 27.6C54.7 27.8 59 32.2 59 37.6C59 41.3 56.89 44.6 53.89 46.3C54.7 44.8 55.2 43 55.2 41.2C55.2 35.2 50.39 30.39 44.39 30.2C43.2 25.39 38.8 21.8 33.6 21.8L33.8 21.8C35.39 20.7 37.39 20 39.5 20ZM39.5 38.39L24.2 38.39C22.2 38.39 20.6 40 20.6 42C20.6 44 22.2 45.6 24.2 45.6L39.5 45.6C41.5 45.6 43.1 44 43.1 42C43.1 40 41.5 38.39 39.5 38.39ZM39.5 40.2C40.5 40.2 41.3 41 41.3 42C41.3 43 40.5 43.8 39.5 43.8C38.5 43.8 37.7 43 37.7 42C37.7 41 38.5 40.2 39.5 40.2ZM35 41.1C35.5 41.1 35.89 41.5 35.89 42C35.89 42.5 35.5 42.89 35 42.89L25.1 42.89C24.6 42.89 24.2 42.5 24.2 42C24.2 41.5 24.6 41.1 25.1 41.1L35 41.1Z" fill="#FFFFFF" fill-opacity="1.000000" fill-rule="evenodd"/>
	</g>
</svg>
