<svg width="72.000000" height="72.000000" viewBox="0 0 72 72" fill="none" xmlns="http://www.w3.org/2000/svg" xmlns:xlink="http://www.w3.org/1999/xlink">
	<desc>
			Created with Pixso.
	</desc>
	<defs>
		<clipPath id="clip117_55">
			<rect id="7#云存储网关-CSG" width="72.000000" height="72.000000" fill="white" fill-opacity="0"/>
		</clipPath>
	</defs>
	<g clip-path="url(#clip117_55)">
		<path id="矩形备份-19" d="M16 0L56 0C64.8 0 72 7.19 72 16L72 56C72 64.8 64.8 72 56 72L16 72C7.2 72 0 64.8 0 56L0 16C0 7.19 7.2 0 16 0Z" fill="#9F53E6" fill-opacity="1.000000" fill-rule="evenodd"/>
		<path id="形状结合" d="M15.57 34.58C16.32 34.58 16.94 35.15 17.1 36L17.1 53.55C17.1 54.34 17.74 54.89 18.65 54.89L53.49 54.89C54.4 54.89 55.04 54.34 55.04 53.55L55.04 48.43C53.85 47.86 53.02 46.65 53.02 45.24C53.02 43.29 54.6 41.7 56.56 41.7C58.52 41.7 60.1 43.28 60.1 45.24C60.1 46.64 59.28 47.86 58.09 48.43L58.09 53.55C58.09 56.04 56.06 57.93 53.49 57.93L18.64 57.93C16.08 57.93 14.04 56.04 14.04 53.55L14.04 36C14.04 35.21 14.78 34.58 15.57 34.58ZM35.96 23.3C39.33 23.3 42.16 25.62 42.93 28.75C46.79 28.87 49.89 32.04 49.89 35.93C49.89 39.9 46.67 43.11 42.71 43.11L38.86 43.11L38.86 45.92L40.8 44.17C40.94 44.03 41.13 43.92 41.32 43.89C41.52 43.86 41.86 43.9 42.04 44.12C42.22 44.34 42.32 44.45 42.35 44.65C42.35 44.94 42.27 45.19 42.04 45.42L38.72 48.63C38.49 48.87 38.24 49 37.98 49C37.46 49 37.1 48.63 37.1 48.12L37.1 43.11L38.86 43.11L38.86 36.11C38.86 35.59 38.49 35.23 37.98 35.23C37.47 35.23 37.1 35.6 37.1 36.11L37.1 43.11L34.91 43.11L34.91 48C34.91 48.52 34.45 48.88 33.94 48.88C33.59 48.88 33.03 48.62 33.03 48L33.03 43.11L34.91 43.11L34.91 36.11C34.91 35.59 34.54 35.23 34.03 35.23C33.66 35.23 33.46 35.43 33.29 35.6L29.97 38.93C29.76 39.15 29.65 39.37 29.65 39.61C29.65 40.13 30.02 40.49 30.53 40.49C30.61 40.49 30.68 40.47 30.77 40.44L31.01 40.34L33.02 38.34L33.03 43.11L29.09 43.1C25.21 42.99 22.1 39.82 22.1 35.92C22.1 32.05 25.17 28.89 29 28.74C29.77 25.62 32.59 23.3 35.96 23.3ZM53.48 14.07C55.98 14.07 58.08 16.29 58.08 18.86L58.08 36.1C58.08 36.99 57.45 37.62 56.56 37.62C55.67 37.62 55.03 36.99 55.03 36.1L55.03 18.86C55.03 17.95 54.28 17.12 53.48 17.12L18.64 17.12C17.84 17.12 17.07 17.96 16.99 18.86L16.99 22.86C18.16 23.44 18.97 24.64 18.97 26.04C18.97 27.99 17.39 29.58 15.43 29.58C13.47 29.58 11.89 28 11.89 26.04C11.89 24.58 12.77 23.33 14.03 22.79L14.03 18.86C14.03 16.31 16.13 14.07 18.63 14.07L53.48 14.07Z" fill="#FFFFFF" fill-opacity="1.000000" fill-rule="evenodd"/>
	</g>
</svg>
