<svg width="72.000000" height="72.000000" viewBox="0 0 72 72" fill="none" xmlns="http://www.w3.org/2000/svg" xmlns:xlink="http://www.w3.org/1999/xlink">
	<desc>
			Created with Pixso.
	</desc>
	<defs>
		<clipPath id="clip117_59">
			<rect id="8#数据工坊-DWR" width="72.000000" height="72.000000" fill="white" fill-opacity="0"/>
		</clipPath>
	</defs>
	<g clip-path="url(#clip117_59)">
		<path id="矩形备份-19" d="M16 0L56 0C64.8 0 72 7.19 72 16L72 56C72 64.8 64.8 72 56 72L16 72C7.19 72 0 64.8 0 56L0 16C0 7.19 7.19 0 16 0Z" fill="#FF9A2E" fill-opacity="1.000000" fill-rule="evenodd"/>
		<path id="形状结合" d="M15.03 33.77C16.69 33.77 18.03 35.1 18.03 36.77C18.03 37.98 17.31 39.03 16.28 39.5L16.28 44.91C16.28 46.35 17.05 47.68 18.3 48.39L34.05 57.35C34.66 57.68 35.34 57.86 36.03 57.86C36.72 57.86 37.4 57.68 38.01 57.35L53.76 48.39C55.01 47.68 55.78 46.35 55.78 44.91L55.78 43.05C55.78 42.35 56.34 41.8 57.03 41.8C57.72 41.8 58.28 42.35 58.28 43.05L58.28 44.92C58.28 47.27 57.02 49.41 54.99 50.58L39.24 59.53C38.26 60.09 37.15 60.37 36.03 60.37C34.91 60.37 33.8 60.09 32.82 59.53L17.07 50.58C15.04 49.41 13.78 47.27 13.78 44.92L13.78 39.5C12.75 39.03 12.03 37.99 12.03 36.78C12.03 35.11 13.38 33.77 15.03 33.77ZM31.39 28.89C32.68 28.89 33.72 29.93 33.72 31.23C33.72 32.52 32.68 33.56 31.39 33.56C30.16 33.56 29.15 32.59 29.06 31.38L29.06 31.27L28.87 31.26C28.81 31.26 28.74 31.26 28.68 31.26C26.03 31.26 23.88 33.4 23.88 36.06C23.88 38.71 26.03 40.85 28.68 40.85C29.97 40.85 31.18 40.34 32.08 39.45L38.61 31.92L38.77 31.76C39.95 30.49 41.6 29.76 43.38 29.76C46.86 29.76 49.68 32.58 49.68 36.06C49.68 39.54 46.86 42.35 43.38 42.35C43.04 42.35 42.7 42.33 42.37 42.28C41.95 42.68 41.38 42.93 40.74 42.93C39.45 42.93 38.41 41.89 38.41 40.6C38.41 39.32 39.45 38.28 40.74 38.28C42.03 38.28 43.07 39.32 43.07 40.6C43.07 40.68 43.07 40.77 43.06 40.84C43.17 40.85 43.27 40.85 43.38 40.85C46.03 40.85 48.18 38.71 48.18 36.06C48.18 33.4 46.03 31.26 43.38 31.26C41.96 31.26 40.64 31.87 39.73 32.93L33.15 40.52L32.93 40.72C31.78 41.77 30.28 42.36 28.68 42.36C25.2 42.36 22.38 39.55 22.38 36.07C22.38 32.59 25.2 29.77 28.68 29.77C28.97 29.77 29.26 29.79 29.54 29.83C29.97 29.25 30.64 28.89 31.39 28.89ZM36.03 11.72C37.15 11.72 38.26 12.01 39.24 12.57L54.99 21.52C57.02 22.67 58.28 24.83 58.28 27.16L58.28 31.04C59.31 31.51 60.03 32.56 60.03 33.77C60.03 35.42 58.68 36.77 57.03 36.77C55.37 36.77 54.03 35.42 54.03 33.77C54.03 32.56 54.75 31.51 55.78 31.04L55.78 27.16C55.78 25.73 55.01 24.39 53.76 23.68L38.01 14.74C37.4 14.39 36.72 14.22 36.03 14.22C35.34 14.22 34.66 14.39 34.05 14.74L18.3 23.68C17.05 24.39 16.28 25.73 16.28 27.16L16.28 29.25C16.28 29.93 15.72 30.5 15.03 30.5C14.34 30.5 13.78 29.93 13.78 29.25L13.78 27.16C13.78 24.83 15.04 22.67 17.07 21.52L32.82 12.57C33.8 12.01 34.91 11.72 36.03 11.72Z" fill="#FFFFFF" fill-opacity="1.000000" fill-rule="nonzero"/>
	</g>
</svg>
