<svg width="72.000000" height="72.000000" viewBox="0 0 72 72" fill="none" xmlns="http://www.w3.org/2000/svg" xmlns:xlink="http://www.w3.org/1999/xlink">
	<desc>
			Created with Pixso.
	</desc>
	<defs>
		<clipPath id="clip117_58">
			<rect id="9#专属分布式存储服务-DSS" width="72.000000" height="72.000000" fill="white" fill-opacity="0"/>
		</clipPath>
	</defs>
	<g clip-path="url(#clip117_58)">
		<path id="矩形备份-19" d="M16 0L56 0C64.8 0 72 7.19 72 16L72 56C72 64.8 64.8 72 56 72L16 72C7.19 72 0 64.8 0 56L0 16C0 7.19 7.19 0 16 0Z" fill="#9F53E6" fill-opacity="1.000000" fill-rule="evenodd"/>
		<path id="形状结合" d="M18.4 30.3C18.5 30.89 18.79 31.5 19.1 32L26.8 45.2C27.3 46.09 28.1 46.8 28.9 47.3C29.8 47.8 30.8 48.09 31.8 48.09L47.1 48.2C47.8 48.2 48.4 48.09 49.1 47.89L43.6 57.5C42.8 58.89 41.3 59.7 39.7 59.7L24.5 59.59C23.7 59.59 23 59.39 22.3 59C21.6 58.59 21.1 58.09 20.7 57.39L13 44.3C12.2 42.89 12.2 41.2 13 39.89L18.4 30.3ZM24.3 26.2L39.5 26.3C40 26.3 40.5 26.39 40.9 26.7C41.3 27 41.7 27.3 42 27.8L49.7 41L49.8 41.2C50.1 41.89 50.2 42.7 50 43.39L49.7 44C49.2 44.89 48.2 45.5 47.2 45.5L32 45.39C31.5 45.39 31 45.3 30.6 45C30.2 44.7 29.8 44.39 29.5 43.89L21.8 30.7L21.7 30.5C21.4 29.8 21.3 29 21.5 28.3L21.8 27.7C22.3 26.7 23.2 26.09 24.3 26.2ZM31.7 11.7L47 11.8C47.8 11.8 48.5 12 49.2 12.39C49.9 12.8 50.4 13.3 50.8 14L58.5 27.2C59.3 28.59 59.3 30.3 58.5 31.59L53 41.09C52.9 40.5 52.6 39.89 52.3 39.39L44.6 26.2C44.1 25.3 43.3 24.59 42.5 24.09C41.6 23.59 40.6 23.3 39.6 23.3L24.3 23.2C23.6 23.2 23 23.3 22.3 23.5L27.8 13.89C28.6 12.5 30.1 11.7 31.7 11.7Z" fill="#FFFFFF" fill-opacity="1.000000" fill-rule="evenodd"/>
	</g>
</svg>
