<svg width="72.000000" height="72.000000" viewBox="0 0 72 72" fill="none" xmlns="http://www.w3.org/2000/svg" xmlns:xlink="http://www.w3.org/1999/xlink">
	<desc>
			Created with Pixso.
	</desc>
	<defs>
		<clipPath id="clip117_162">
			<rect id="1#分布式云原生-UCS" width="72.000000" height="72.000000" fill="white" fill-opacity="0"/>
		</clipPath>
	</defs>
	<g clip-path="url(#clip117_162)">
		<path id="矩形备份-19" d="M16 0L56 0C64.8 0 72 7.2 72 16L72 56C72 64.79 64.8 72 56 72L16 72C7.19 72 0 64.79 0 56L0 16C0 7.2 7.19 0 16 0Z" fill="#1476FF" fill-opacity="1.000000" fill-rule="evenodd"/>
		<path id="形状结合" d="M35.9 47.49C36.24 47.49 36.47 47.72 36.47 48.06L36.47 55.85C38.07 56.19 38.99 57.68 38.76 59.28C38.42 60.88 36.93 61.8 35.33 61.57C33.73 61.34 32.81 59.74 33.04 58.14C33.27 57 34.18 56.08 35.33 55.85L35.33 48.06C35.33 47.72 35.56 47.49 35.9 47.49ZM37.05 57.45C36.36 56.76 35.33 56.76 34.65 57.45C33.97 58.14 33.96 59.17 34.65 59.85C35.34 60.53 36.37 60.54 37.05 59.85C37.73 59.16 37.73 58.14 37.05 57.45ZM49.87 43.5L53.3 45.45C53.32 45.43 53.41 45.34 53.41 45.34C54.55 44.2 56.27 44.2 57.53 45.34C58.33 46.14 58.56 47.29 58.22 48.32C57.65 49.81 56.04 50.61 54.56 50.15C53.07 49.58 52.27 47.97 52.73 46.49L49.3 44.54C49.07 44.31 48.96 43.97 49.07 43.74C49.3 43.5 49.64 43.38 49.87 43.5ZM23.34 43.73C23.45 43.96 23.34 44.3 23.11 44.53L19.68 46.48C20.14 47.97 19.34 49.57 17.85 50.14C16.36 50.6 14.76 49.8 14.19 48.31C13.85 47.28 14.08 46.13 14.88 45.33C16.14 44.19 17.86 44.19 19 45.33L19.11 45.44L22.54 43.49C22.77 43.38 23.11 43.5 23.34 43.73ZM54.22 46.13C53.53 46.82 53.53 47.85 54.22 48.53C54.91 49.22 55.94 49.22 56.62 48.53C57.31 47.84 57.31 46.81 56.62 46.13C55.94 45.45 54.91 45.45 54.22 46.13ZM15.78 46.13C15.09 46.82 15.09 47.85 15.78 48.53C16.47 49.22 17.5 49.22 18.18 48.53C18.87 47.84 18.87 46.81 18.18 46.13C17.5 45.45 16.47 45.45 15.78 46.13ZM42.77 31.25C46.66 31.48 49.53 34.68 49.3 38.58C49.19 42.47 45.87 45.45 41.97 45.34L29.72 45.34C25.94 45.57 22.62 42.59 22.39 38.81C22.16 34.92 25.02 31.48 28.92 31.25C29.61 29.3 31.21 27.82 33.16 27.01C37.05 25.52 41.28 27.47 42.77 31.25ZM18.38 22.66C19.18 23.46 19.41 24.61 19.07 25.64L25.6 29.42C25.94 29.65 25.94 29.99 25.83 30.22C25.6 30.56 25.26 30.56 25.03 30.45L18.5 26.67C18.48 26.69 18.39 26.78 18.39 26.78C17.82 27.24 17.13 27.58 16.33 27.58C15.53 27.58 14.84 27.35 14.38 26.66C13.24 25.63 13.24 23.8 14.38 22.65C15.52 21.63 17.24 21.63 18.38 22.66ZM57.04 22.66C58.18 23.8 58.18 25.64 57.04 26.67C56.58 27.36 55.9 27.59 55.09 27.59C54.28 27.59 53.6 27.25 53.03 26.79L52.92 26.68L46.39 30.46C46.16 30.57 45.82 30.57 45.59 30.23C45.48 30 45.48 29.66 45.82 29.43L52.35 25.65C52.01 24.62 52.24 23.47 53.04 22.67C54.17 21.63 55.89 21.63 57.04 22.66ZM15.06 23.58C14.49 24.15 14.49 25.3 15.06 25.98C15.75 26.67 16.78 26.67 17.46 25.98L17.57 25.86C18.14 25.18 18.1 24.23 17.46 23.58C16.78 22.89 15.75 22.89 15.06 23.58ZM53.94 23.58C53.29 24.23 53.26 25.18 53.83 25.86L53.94 25.98C54.63 26.67 55.66 26.67 56.34 25.98C56.91 25.29 56.91 24.15 56.34 23.58C55.66 22.89 54.63 22.89 53.94 23.58ZM38.76 12.81C38.99 14.41 38.07 15.9 36.47 16.24L36.47 24.03C36.47 24.37 36.24 24.6 35.9 24.6C35.56 24.6 35.33 24.37 35.33 24.03L35.33 16.24C34.19 16.01 33.27 15.1 33.04 13.95C32.81 12.35 33.73 10.74 35.33 10.52C36.93 10.3 38.42 11.21 38.76 12.81ZM34.64 12.24C33.95 12.93 33.95 13.96 34.64 14.64C35.33 15.33 36.36 15.33 37.04 14.64C37.73 13.95 37.73 12.92 37.04 12.24C36.35 11.56 35.33 11.56 34.64 12.24Z" fill="#FFFFFF" fill-opacity="1.000000" fill-rule="nonzero"/>
	</g>
</svg>
