<svg width="72.000000" height="72.000000" viewBox="0 0 72 72" fill="none" xmlns="http://www.w3.org/2000/svg" xmlns:xlink="http://www.w3.org/1999/xlink">
	<desc>
			Created with Pixso.
	</desc>
	<defs>
		<clipPath id="clip117_158">
			<rect id="2#云容器引擎-CCE" width="72.000000" height="72.000000" fill="white" fill-opacity="0"/>
		</clipPath>
	</defs>
	<g clip-path="url(#clip117_158)">
		<path id="矩形备份-19" d="M16 0L56 0C64.8 0 72 7.2 72 16L72 56C72 64.79 64.8 72 56 72L16 72C7.19 72 0 64.79 0 56L0 16C0 7.2 7.19 0 16 0Z" fill="#00ABED" fill-opacity="1.000000" fill-rule="evenodd"/>
		<path id="形状结合" d="M14 42.72C14.89 42.72 15.55 43.36 15.55 44.27L15.55 53.78C15.55 55.18 16.68 56.31 18.07 56.31L27.58 56.31C28.49 56.31 29.13 56.95 29.13 57.86C29.13 58.76 28.5 59.41 27.58 59.41L18.07 59.41C14.98 59.41 12.46 56.89 12.46 53.79L12.46 44.28C12.45 43.36 13.08 42.72 14 42.72ZM57.89 42.72L58.05 42.73C58.86 42.8 59.45 43.41 59.45 44.27L59.45 53.78C59.45 56.88 56.92 59.39 53.83 59.39L44.32 59.39C43.41 59.39 42.77 58.76 42.77 57.85C42.77 56.95 43.4 56.3 44.32 56.3L53.83 56.3C55.23 56.3 56.35 55.16 56.35 53.77L56.35 44.26C56.35 43.36 57 42.72 57.89 42.72ZM35.95 20.89C36.77 20.89 37.56 21.22 38.14 21.82L50.12 33.86C51.22 34.95 51.22 36.72 50.12 37.81L37.91 50.08C37.38 50.61 36.67 50.89 35.95 50.89C35.22 50.89 34.5 50.61 33.98 50.08L21.76 37.81C20.66 36.72 20.66 34.95 21.76 33.86L33.75 21.82C34.33 21.22 35.12 20.89 35.95 20.89ZM53.82 12.39C56.92 12.39 59.45 14.91 59.45 18.02L59.45 27.53C59.45 28.43 58.81 29.08 57.89 29.08C57 29.08 56.34 28.43 56.34 27.53L56.34 18.02C56.34 16.62 55.21 15.49 53.82 15.49L44.31 15.49C43.4 15.49 42.76 14.85 42.76 13.93C42.76 13.04 43.39 12.39 44.31 12.39L53.82 12.39ZM27.58 12.39C28.49 12.39 29.13 13.04 29.13 13.95C29.13 14.85 28.5 15.5 27.58 15.5L18.07 15.5C16.67 15.5 15.55 16.64 15.55 18.03L15.55 27.54C15.55 28.43 14.9 29.09 14 29.09C13.09 29.09 12.45 28.45 12.45 27.54L12.45 18.03C12.45 14.93 14.97 12.41 18.07 12.41L27.58 12.39Z" fill="#FFFFFF" fill-opacity="1.000000" fill-rule="nonzero"/>
	</g>
</svg>
