<svg width="72.000000" height="72.000000" viewBox="0 0 72 72" fill="none" xmlns="http://www.w3.org/2000/svg" xmlns:xlink="http://www.w3.org/1999/xlink">
	<desc>
			Created with Pixso.
	</desc>
	<defs>
		<clipPath id="clip117_159">
			<rect id="3#云容器实例-CCI" width="72.000000" height="72.000000" fill="white" fill-opacity="0"/>
		</clipPath>
	</defs>
	<g clip-path="url(#clip117_159)">
		<path id="矩形备份-19" d="M16 0L56 0C64.8 0 72 7.2 72 16L72 56C72 64.79 64.8 72 56 72L16 72C7.19 72 0 64.79 0 56L0 16C0 7.2 7.19 0 16 0Z" fill="#FF9A2E" fill-opacity="1.000000" fill-rule="evenodd"/>
		<path id="形状结合" d="M35.87 10.63C37.25 10.63 38.5 10.98 39.65 11.55L49.47 17.25L48.93 17.78L47.91 16.76C47.62 16.47 47.14 16.47 46.85 16.76L44.12 19.49C43.84 19.78 43.84 20.26 44.12 20.55L46.85 23.28C47.14 23.57 47.62 23.57 47.91 23.28L48.84 22.35L50.55 24.05L49.61 24.98C49.33 25.27 49.33 25.75 49.61 26.04L50.34 26.76L46.47 29.31L36.37 23.49C36.07 23.31 35.68 23.31 35.37 23.49L25.55 29.17L35.88 35.14L46.47 29.31L46.93 30.8L36.62 36.44L36.62 48.36L46.46 42.69C46.77 42.51 46.96 42.18 46.96 41.82L46.93 30.8L51.41 27.85L52.35 28.78C52.63 29.07 53.11 29.07 53.4 28.78L56.13 26.05C56.42 25.76 56.42 25.28 56.13 24.99L53.4 22.26C53.11 21.97 52.63 21.97 52.35 22.26L51.25 23.36L49.55 21.66L50.64 20.56C50.93 20.27 50.93 19.79 50.64 19.5L49.64 18.5L50.36 17.78L55.12 20.55C57.11 21.66 58.68 24.39 58.79 26.76L58.8 27L58.8 44.99C58.8 47.41 57.2 50.18 55.12 51.45L39.66 60.44C38.52 61.02 37.25 61.36 35.88 61.36C34.52 61.36 33.13 61.01 32.1 60.44L16.64 51.45C14.59 50.18 12.98 47.41 12.98 44.99L12.98 27C12.98 24.58 14.58 21.7 16.64 20.54L32.1 11.55C33.25 10.97 34.5 10.63 35.87 10.63ZM24.8 30.46L24.8 41.81C24.8 42.17 24.99 42.5 25.3 42.68L35.12 48.35L35.12 36.42L24.8 30.46ZM52.87 23.84L54.55 25.51L52.87 27.18L51.21 25.51L52.87 23.84ZM58.8 17.56L60.82 19.58C61.02 19.78 61.02 20.09 60.82 20.29L58.8 22.31C58.59 22.51 58.29 22.51 58.08 22.31L56.07 20.29C55.86 20.09 55.86 19.78 56.07 19.58L58.08 17.56C58.29 17.37 58.6 17.37 58.8 17.56ZM47.38 18.35L49.06 20.02L47.38 21.69L45.72 20.02L47.38 18.35ZM53.49 11.19L56.22 13.92C56.51 14.21 56.51 14.69 56.22 14.98L53.49 17.71C53.2 18 52.72 18 52.42 17.71L51.42 16.71L50.36 17.78L49.47 17.25L50.72 16L49.7 14.98C49.4 14.69 49.4 14.21 49.7 13.92L52.42 11.19C52.72 10.9 53.2 10.9 53.49 11.19ZM52.96 12.78L51.29 14.45L52.96 16.12L54.62 14.45L52.96 12.78Z" fill="#FFFFFF" fill-opacity="1.000000" fill-rule="evenodd"/>
	</g>
</svg>
