<svg width="72.000000" height="72.000000" viewBox="0 0 72 72" fill="none" xmlns="http://www.w3.org/2000/svg" xmlns:xlink="http://www.w3.org/1999/xlink">
	<desc>
			Created with Pixso.
	</desc>
	<defs>
		<clipPath id="clip117_161">
			<rect id="4#容器镜像服务-SWR" width="72.000000" height="72.000000" fill="white" fill-opacity="0"/>
		</clipPath>
	</defs>
	<g clip-path="url(#clip117_161)">
		<path id="矩形备份-19" d="M16 0L56 0C64.8 0 72 7.2 72 16L72 56C72 64.79 64.8 72 56 72L16 72C7.19 72 0 64.79 0 56L0 16C0 7.2 7.19 0 16 0Z" fill="#9F53E6" fill-opacity="1.000000" fill-rule="evenodd"/>
		<path id="形状结合" d="M15.3 33.5C17.29 33.5 18.89 35.1 18.89 37.1C18.89 38.5 18.09 39.7 16.89 40.3L16.7 40.39L16.7 44.2C16.7 45.8 17.79 47.7 19.2 48.6L19.39 48.7L33.39 56.89C34.8 57.7 37.3 57.7 38.8 56.89L52.8 48.8C54.2 48 55.5 45.8 55.5 44.2L55.5 42.6C55.5 41.8 56.09 41.2 56.89 41.2C57.7 41.2 58.3 41.8 58.3 42.6L58.3 44.2C58.3 46.8 56.5 49.8 54.2 51.2L40.2 59.3C39.09 60 37.59 60.3 36.09 60.3C34.59 60.3 33.09 59.89 32 59.3L18 51.2C15.59 49.8 13.89 46.89 13.89 44.2L13.89 40.39L13.7 40.3C12.59 39.7 11.8 38.6 11.7 37.3L11.7 37.1C11.7 35.1 13.3 33.5 15.3 33.5ZM50.2 39.7C50.5 39.7 50.7 39.89 50.7 40.2L50.7 44.1C50.7 44.39 50.5 44.6 50.2 44.6L46.3 44.6C46 44.6 45.8 44.39 45.8 44.1L45.8 40.2C45.8 39.89 46 39.7 46.3 39.7L50.2 39.7ZM44.09 39.7C44.39 39.7 44.59 39.89 44.59 40.2L44.59 44.1C44.59 44.39 44.39 44.6 44.09 44.6L40.2 44.6C39.89 44.6 39.7 44.39 39.7 44.1L39.7 40.2C39.7 39.89 39.89 39.7 40.2 39.7L44.09 39.7ZM37.89 39.7C38.2 39.7 38.39 39.89 38.39 40.2L38.39 44.1C38.39 44.39 38.2 44.6 37.89 44.6L34 44.6C33.7 44.6 33.5 44.39 33.5 44.1L33.5 40.2C33.5 39.89 33.7 39.7 34 39.7L37.89 39.7ZM31.8 39.7C32.09 39.7 32.3 39.89 32.3 40.2L32.3 44.1C32.3 44.39 32.09 44.6 31.8 44.6L27.89 44.6C27.59 44.6 27.39 44.39 27.39 44.1L27.39 40.2C27.39 39.89 27.59 39.7 27.89 39.7L31.8 39.7ZM25.7 39.7C26 39.7 26.2 39.89 26.2 40.2L26.2 44.1C26.2 44.39 26 44.6 25.7 44.6L21.8 44.6C21.5 44.6 21.3 44.39 21.3 44.1L21.3 40.2C21.3 39.89 21.5 39.7 21.8 39.7L25.7 39.7ZM40.09 12.7L54.09 20.8C56.5 22.2 58.2 25.1 58.2 27.8L58.2 31.6L58.39 31.7C59.5 32.3 60.3 33.39 60.39 34.7L60.39 34.89C60.39 36.89 58.8 38.5 56.8 38.5C54.8 38.5 53.2 36.89 53.2 34.89C53.2 33.5 54 32.3 55.2 31.7L55.39 31.6L55.39 27.8C55.39 26.2 54.3 24.2 52.89 23.3L52.7 23.2L38.7 15.1C37.3 14.3 34.8 14.3 33.3 15.1L19.29 23.2C17.89 24 16.59 26.2 16.59 27.8L16.59 29.39C16.59 30.2 16 30.8 15.2 30.8C14.39 30.8 13.8 30.2 13.8 29.39L13.8 27.8C13.8 25.2 15.59 22.2 17.89 20.8L31.89 12.7C34.3 11.39 37.7 11.39 40.09 12.7ZM44.09 33.6C44.39 33.6 44.59 33.8 44.59 34.1L44.59 38C44.59 38.3 44.39 38.5 44.09 38.5L40.2 38.5C39.89 38.5 39.7 38.3 39.7 38L39.7 34.1C39.7 33.8 39.89 33.6 40.2 33.6L44.09 33.6ZM37.89 33.6C38.2 33.6 38.39 33.8 38.39 34.1L38.39 38C38.39 38.3 38.2 38.5 37.89 38.5L34 38.5C33.7 38.5 33.5 38.3 33.5 38L33.5 34.1C33.5 33.8 33.7 33.6 34 33.6L37.89 33.6ZM31.8 33.6C32.09 33.6 32.3 33.8 32.3 34.1L32.3 38C32.3 38.3 32.09 38.5 31.8 38.5L27.89 38.5C27.59 38.5 27.39 38.3 27.39 38L27.39 34.1C27.39 33.8 27.59 33.6 27.89 33.6L31.8 33.6ZM44.09 27.39C44.39 27.39 44.59 27.6 44.59 27.89L44.59 31.8C44.59 32.1 44.39 32.3 44.09 32.3L40.2 32.3C39.89 32.3 39.7 32.1 39.7 31.8L39.7 27.89C39.7 27.6 39.89 27.39 40.2 27.39L44.09 27.39Z" fill="#FFFFFF" fill-opacity="1.000000" fill-rule="nonzero"/>
	</g>
</svg>
