<svg width="72.000000" height="72.000000" viewBox="0 0 72 72" fill="none" xmlns="http://www.w3.org/2000/svg" xmlns:xlink="http://www.w3.org/1999/xlink">
	<desc>
			Created with Pixso.
	</desc>
	<defs>
		<clipPath id="clip117_160">
			<rect id="5#智能边缘平台-IEF" width="72.000000" height="72.000000" fill="white" fill-opacity="0"/>
		</clipPath>
	</defs>
	<g clip-path="url(#clip117_160)">
		<path id="矩形备份-19" d="M16 0L56 0C64.8 0 72 7.2 72 16L72 56C72 64.79 64.8 72 56 72L16 72C7.19 72 0 64.79 0 56L0 16C0 7.2 7.19 0 16 0Z" fill="#25C251" fill-opacity="1.000000" fill-rule="evenodd"/>
		<path id="形状结合" d="M33.15 50.61C33.4 50.86 33.27 51.23 33.03 51.47C31.8 52.58 31.06 54.06 31.06 55.78C31.06 58.86 33.53 61.33 36.61 61.33C39.7 61.33 42.16 58.86 42.16 55.78C42.16 54.18 41.42 52.58 40.2 51.47C39.95 51.22 39.95 50.85 40.07 50.61C40.32 50.36 40.7 50.36 40.93 50.49C42.53 51.72 43.4 53.69 43.4 55.67C43.4 59.37 40.32 62.45 36.62 62.45C32.92 62.45 29.84 59.37 29.84 55.67C29.84 53.7 30.71 51.73 32.31 50.49C32.53 50.24 32.9 50.36 33.15 50.61ZM36.6 58.74C34.87 58.74 33.52 57.38 33.52 55.66C33.52 55.57 33.52 55.47 33.53 55.38C33.62 54.38 34.2 53.51 35 53.01C35.04 52.99 35.11 52.96 35.14 52.93C35.16 52.92 35.27 52.86 35.29 52.85L35.37 51.33C35.37 48.62 37.59 46.4 40.3 46.4L48.31 46.4C55.09 46.4 60.64 40.85 60.64 34.07C60.64 27.78 55.97 22.61 49.67 21.87C48.68 21.75 47.95 21.13 47.57 20.27C45.84 15.34 41.16 12.01 35.99 12.01C30.8 12.01 26.12 15.34 24.39 20.27C24.02 21.13 23.28 21.75 22.29 21.87C16.01 22.49 11.32 27.79 11.32 34.07C11.32 36.54 12.06 38.75 13.29 40.73C15.51 44.18 19.33 46.4 23.64 46.4L24.87 46.4C29.68 46.4 33.62 42.95 34.61 38.39C34.7 38.16 34.73 37.87 34.74 37.57C33.29 37.06 32.26 35.69 32.26 34.07C32.26 33.95 32.27 33.84 32.28 33.73L26.56 30.5C26.12 30.79 25.59 30.95 25.03 30.95C23.49 30.95 22.24 29.7 22.24 28.15C22.24 26.6 23.49 25.35 25.03 25.35C26.58 25.35 27.83 26.6 27.83 28.15C27.83 28.34 27.81 28.52 27.78 28.7C27.77 28.72 27.76 28.82 27.75 28.84C27.74 28.86 27.72 28.97 27.71 28.99C27.7 29.03 27.67 29.07 27.66 29.11L27.62 29.22C27.57 29.33 27.52 29.44 27.47 29.54L32.63 32.45C33.05 31.54 33.83 30.85 34.8 30.54C35.17 30.41 35.57 30.35 35.99 30.35C36.38 30.35 36.77 30.41 37.13 30.53C38.11 30.84 38.9 31.53 39.33 32.45L44.51 29.54C44.46 29.45 44.4 29.35 44.36 29.25C44.13 28.76 44.05 28.21 44.17 27.65C44.21 27.47 44.26 27.3 44.31 27.14C44.34 27.06 44.37 26.98 44.42 26.9C44.88 25.98 45.83 25.35 46.93 25.35C48.49 25.35 49.74 26.6 49.74 28.15C49.74 29.7 48.49 30.95 46.93 30.95C46.37 30.95 45.84 30.78 45.4 30.49L39.68 33.72C39.7 33.83 39.71 33.95 39.71 34.06C39.71 34.61 39.58 35.13 39.37 35.59C38.96 36.54 38.15 37.26 37.18 37.6C37.14 37.88 37.1 38.15 37.1 38.37C36.11 44.41 31.06 48.85 24.9 48.85L23.67 48.85C15.54 48.85 8.88 42.19 8.88 34.06C8.88 26.42 14.67 20.13 22.07 19.39C24.02 13.63 29.46 9.44 35.99 9.44C42.51 9.44 47.95 13.63 49.91 19.42C57.31 20.16 63.1 26.45 63.1 34.09C63.1 41.61 57.43 47.89 50.03 48.76C49.52 48.86 49.09 48.88 48.6 48.88L40.29 48.88C38.93 48.88 37.82 49.99 37.82 51.35L37.82 52.83C38.91 53.3 39.68 54.39 39.68 55.66C39.68 56.15 39.57 56.61 39.37 57.02C38.96 57.89 38.13 58.52 37.14 58.7C36.98 58.73 36.79 58.74 36.6 58.74Z" fill="#FFFFFF" fill-opacity="1.000000" fill-rule="nonzero"/>
	</g>
</svg>
