<svg width="72.000000" height="72.000000" viewBox="0 0 72 72" fill="none" xmlns="http://www.w3.org/2000/svg" xmlns:xlink="http://www.w3.org/1999/xlink">
	<desc>
			Created with Pixso.
	</desc>
	<defs>
		<clipPath id="clip117_290">
			<rect id="1#HMSCore-HMS" width="72.000000" height="72.000000" fill="white" fill-opacity="0"/>
		</clipPath>
	</defs>
	<g clip-path="url(#clip117_290)">
		<path id="矩形备份-19" d="M16 0L56 0C64.8 0 72 7.2 72 16L72 56C72 64.79 64.8 72 56 72L16 72C7.19 72 0 64.79 0 56L0 16C0 7.2 7.19 0 16 0Z" fill="#1476FF" fill-opacity="1.000000" fill-rule="evenodd"/>
		<path id="形状结合" d="M40.89 17.79C47.7 17.79 53.2 23.2 53.39 30L53.39 30.2C57.89 32.09 61.1 36.5 61.1 41.7C61.1 48.5 55.7 54 48.89 54.2L48.7 54.2L23.7 54.2C16.6 53.59 11 47.59 11 40.29C11 33.39 16 27.7 22.5 26.59L22.5 26.39C22.5 22.7 25.5 19.59 29.3 19.59C30.6 19.59 31.89 20 32.89 20.7C35.1 18.89 37.8 17.79 40.89 17.79ZM45.3 33.39C43.3 34 40.6 35.79 35.39 41.7L34.5 42.7C30.1 47.59 28.3 48.7 25.1 48.89C24.39 49 23.3 48.89 22.3 48.7C21.39 48.5 20.2 48 19.29 47.5C18.79 47.2 18.2 46.7 17.5 46L17.39 45.89C19.1 48.39 21.89 50.09 25.2 50.09C27.6 50.09 29.89 49.2 31.6 47.5L32 47.2L42.89 36.79C43.8 36.09 45 35.59 46.2 35.59C49.1 35.59 51.39 37.89 51.39 40.79C51.39 43.7 49.1 46 46.2 46C45 46 43.89 45.59 42.89 44.89L42.7 44.7L40.39 42.5C39.6 41.7 38.3 41.7 37.5 42.5C36.8 43.29 36.8 44.59 37.6 45.29L39.8 47.39L40 47.59C41.7 49.09 43.89 50 46.2 50C51.3 50 55.5 45.79 55.5 40.7C55.5 38.7 54.89 36.89 53.8 35.39L53.7 35.2L53.5 35.09C51.2 33.5 47.8 32.7 45.3 33.39ZM46.2 31.5C43.89 31.5 41.7 32.29 40 33.79L39.39 34.29L28.6 44.89L28.7 44.79C27.7 45.59 26.5 46.09 25.2 46.09C22.3 46.09 20 43.79 20 40.89C20 38 22.3 35.7 25.2 35.7C26.5 35.7 27.8 36.2 28.8 37.09L30.89 39.09C31.7 39.89 33 39.79 33.8 39C34.6 38.2 34.5 36.89 33.7 36.09L31.1 33.59L30.89 33.39C29.3 32.2 27.3 31.5 25.2 31.5C20.1 31.5 15.89 35.7 15.89 40.79C15.89 42.09 16.2 43.29 16.6 44.39L16.7 44.5C16.89 44.7 18 45.89 19.29 46.7C20.7 47.5 21.8 47.79 22.6 47.89C23.39 48.09 24.39 48.09 25 48.09C27.7 47.89 29.6 47 33.6 42.5L35.6 40.2C40.3 35 42.89 33.29 45 32.7C46.5 32.2 47.89 32.29 49.5 32.7C50.7 33 51.7 33.5 52.8 34.29C51.1 32.5 48.8 31.5 46.2 31.5Z" fill="#FFFFFF" fill-opacity="1.000000" fill-rule="evenodd"/>
	</g>
</svg>
