<svg width="72.000000" height="72.000000" viewBox="0 0 72 72" fill="none" xmlns="http://www.w3.org/2000/svg" xmlns:xlink="http://www.w3.org/1999/xlink">
	<desc>
			Created with Pixso.
	</desc>
	<defs>
		<clipPath id="clip117_164">
			<rect id="1#微服务引擎-CSE" width="72.000000" height="72.000000" fill="white" fill-opacity="0"/>
		</clipPath>
	</defs>
	<g clip-path="url(#clip117_164)">
		<path id="矩形备份-19" d="M16 0L56 0C64.8 0 72 7.2 72 16L72 56C72 64.79 64.8 72 56 72L16 72C7.19 72 0 64.79 0 56L0 16C0 7.2 7.19 0 16 0Z" fill="#00C4BE" fill-opacity="1.000000" fill-rule="evenodd"/>
		<path id="形状结合" d="M27.27 21.21C27.68 21.21 27.99 21.4 28.19 21.71L31.88 28.36L39.35 28.36C39.76 28.36 40.07 28.56 40.17 28.87L43.85 35.52L51.32 35.52C51.73 35.52 52.04 35.73 52.24 36.04L56.23 43.19C56.43 43.5 56.43 43.91 56.23 44.21L52.24 51.37C52.04 51.68 51.73 51.88 51.32 51.88L43.85 51.88L40.17 57.52C40.07 57.84 39.66 58.04 39.35 58.04L31.26 58.04C30.95 58.04 30.65 57.84 30.44 57.54L26.75 51.9L19.28 51.9C18.87 51.9 18.46 51.71 18.36 51.29L14.57 43.62C14.36 43.31 14.47 43.02 14.57 42.71L18.06 36.04L14.58 29.9C14.37 29.59 14.37 29.18 14.58 28.88L18.37 21.73C18.57 21.41 18.88 21.21 19.29 21.21L27.27 21.21ZM39.04 43.71L31.67 43.71L28.19 50.27L31.88 56L38.84 56L42.52 50.36L39.04 43.71ZM50.82 37.57L43.35 37.57L39.97 43.21L43.55 49.85L50.82 49.85L54.3 43.71L50.82 37.57ZM26.96 36.55L20.1 36.55L16.62 43.21L19.9 49.85L27.17 49.85L30.75 43.21L26.96 36.55ZM38.74 30.41L31.37 30.41L27.89 36.14L31.57 42.69L39.04 42.69L42.42 37.06L38.74 30.41ZM26.65 23.25L19.79 23.25L16.62 29.39L20.2 35.54L27.06 35.54L30.34 29.9L26.65 23.25ZM52.39 21.21C52.59 21.21 52.91 21.21 53.1 21.61L55.76 26.21C55.86 26.31 55.86 26.52 55.76 26.62L53.1 31.23C53 31.32 52.89 31.42 52.69 31.42L47.26 31.42C47.06 31.42 46.95 31.32 46.85 31.23L44.19 26.41C44.09 26.31 44.09 26.1 44.19 26L46.85 21.4C46.95 21.3 47.05 21.21 47.26 21.21L52.39 21.21ZM40.4 14.04C40.6 14.04 40.81 14.14 40.81 14.25L44.09 19.87C44.19 20.07 44.19 20.18 44.09 20.38L40.81 26.02C40.71 26.21 40.61 26.32 40.4 26.32L33.64 26.32C33.54 26.32 33.33 26.32 33.23 26.12L29.85 20.39C29.75 20.29 29.75 20.08 29.85 19.88L33.23 14.25C33.33 14.15 33.43 14.05 33.64 14.05L40.4 14.04ZM54.66 14.12C54.76 14.02 54.97 14.02 55.17 14.12L57.22 15.35C57.32 15.46 57.42 15.66 57.42 15.86L57.42 18.32C57.42 18.52 57.32 18.73 57.22 18.83L55.17 20.06C55.07 20.16 54.97 20.16 54.86 20.16C54.78 20.16 54.64 20.14 54.55 20.06L52.5 18.83C52.4 18.73 52.3 18.63 52.3 18.42L52.3 15.86C52.3 15.66 52.4 15.46 52.61 15.35L54.66 14.12Z" fill="#FFFFFF" fill-opacity="1.000000" fill-rule="evenodd"/>
	</g>
</svg>
