<svg width="72.000000" height="72.000000" viewBox="0 0 72 72" fill="none" xmlns="http://www.w3.org/2000/svg" xmlns:xlink="http://www.w3.org/1999/xlink">
	<desc>
			Created with Pixso.
	</desc>
	<defs>
		<clipPath id="clip117_168">
			<rect id="10#多活高可用服务-MAS" width="72.000000" height="72.000000" fill="white" fill-opacity="0"/>
		</clipPath>
	</defs>
	<g clip-path="url(#clip117_168)">
		<path id="矩形备份-19" d="M16 0L56 0C64.8 0 72 7.2 72 16L72 56C72 64.79 64.8 72 56 72L16 72C7.19 72 0 64.79 0 56L0 16C0 7.2 7.19 0 16 0Z" fill="#7DCC29" fill-opacity="1.000000" fill-rule="evenodd"/>
		<path id="形状结合" d="M36.07 16.3C38.96 16.3 41.51 18.05 42.7 20.66L42.74 20.76C45.91 21.56 48.23 24.48 48.34 27.92L48.34 28.17C48.34 32.3 45.17 35.7 41.16 35.8L41.02 35.8C40.59 35.81 40.21 35.63 39.93 35.35L45.18 43.74C45.77 44.68 45.48 45.91 44.54 46.5C44.22 46.7 43.85 46.8 43.48 46.8L38.44 46.8C38.97 47.03 39.34 47.56 39.34 48.17C39.34 50.64 41.16 52.66 43.43 52.79L53.99 52.8L54.11 52.8C56.45 52.74 58.35 50.7 58.35 48.17C58.35 45.78 56.65 43.81 54.47 43.57C53.87 43.5 53.37 43.09 53.2 42.51C52.63 40.6 50.96 39.3 49.07 39.3C47.84 39.3 46.69 39.85 45.87 40.81C45.33 41.44 44.38 41.51 43.75 40.97C43.12 40.43 43.05 39.48 43.59 38.85C44.97 37.24 46.95 36.29 49.07 36.29C51.96 36.29 54.51 38.04 55.7 40.65C58.87 41.45 61.23 44.47 61.34 47.91L61.34 48.16C61.34 52.29 58.17 55.69 54.16 55.79L54 55.79L43.35 55.79C43.25 55.79 43.16 55.78 43.07 55.76C39.38 55.42 36.47 52.25 36.35 48.41L36.35 48.16C36.35 47.55 36.72 47.02 37.25 46.79L34.46 46.79C34.99 47.02 35.35 47.55 35.35 48.16C35.35 52.29 32.18 55.69 28.17 55.79L28.01 55.79L17.35 55.79C17.25 55.79 17.16 55.78 17.07 55.76C13.38 55.42 10.47 52.25 10.35 48.41L10.35 48.16C10.35 44.46 12.89 41.35 16.28 40.67L16.44 40.64C17.6 38.14 20.04 36.4 22.8 36.3L23.07 36.29C24.96 36.29 26.73 37.03 28.08 38.34C28.67 38.92 28.69 39.87 28.11 40.46C27.53 41.05 26.58 41.07 25.99 40.49C25.19 39.72 24.17 39.29 23.07 39.29C21.19 39.29 19.53 40.58 18.95 42.48C18.76 43.09 18.2 43.52 17.56 43.54C15.23 43.61 13.35 45.64 13.35 48.17C13.35 50.64 15.17 52.66 17.44 52.79L28 52.8L28.12 52.8C30.46 52.74 32.36 50.7 32.36 48.17C32.36 47.56 32.73 47.03 33.25 46.8L28.22 46.8C27.12 46.8 26.22 45.9 26.22 44.8C26.22 44.43 26.33 44.06 26.52 43.74L34.16 31.51C34.75 30.57 35.98 30.29 36.92 30.87C37.18 31.03 37.4 31.25 37.56 31.51L39.61 34.8C39.56 34.65 39.53 34.48 39.52 34.31C39.51 33.48 40.17 32.8 41 32.79L41.12 32.79C43.46 32.73 45.36 30.69 45.36 28.16C45.36 25.77 43.66 23.8 41.48 23.56C40.88 23.49 40.38 23.08 40.21 22.5C39.64 20.59 37.97 19.29 36.08 19.29C34.2 19.29 32.54 20.58 31.96 22.48C31.77 23.09 31.21 23.52 30.57 23.54C28.24 23.61 26.36 25.64 26.36 28.17C26.36 30.64 28.18 32.66 30.45 32.79C31.23 32.84 31.84 33.47 31.86 34.25C31.88 35.08 31.23 35.78 30.4 35.8C30.3 35.8 30.21 35.8 30.11 35.78C26.42 35.44 23.48 32.26 23.36 28.42L23.36 28.17C23.36 24.47 25.9 21.36 29.29 20.68L29.45 20.65C30.61 18.15 33.05 16.41 35.81 16.31L36.07 16.3ZM36.12 35.91C35.63 35.65 35.03 35.84 34.77 36.33L32.97 39.75L32.92 39.86C32.67 40.5 33.14 41.22 33.85 41.22L35.69 41.22L34.79 42.76C34.51 43.24 34.67 43.85 35.15 44.13C35.63 44.41 36.24 44.25 36.52 43.77L38.3 40.73C38.59 40.08 38.17 39.23 37.44 39.23L35.51 39.23L36.54 37.27C36.79 36.78 36.6 36.17 36.12 35.91Z" fill="#FFFFFF" fill-opacity="1.000000" fill-rule="nonzero"/>
	</g>
</svg>
