<svg width="72.000000" height="72.000000" viewBox="0 0 72 72" fill="none" xmlns="http://www.w3.org/2000/svg" xmlns:xlink="http://www.w3.org/1999/xlink">
	<desc>
			Created with Pixso.
	</desc>
	<defs>
		<clipPath id="clip117_166">
			<rect id="11#事件网格-EG" width="72.000000" height="72.000000" fill="white" fill-opacity="0"/>
		</clipPath>
	</defs>
	<g clip-path="url(#clip117_166)">
		<path id="矩形备份-19" d="M16 0L56 0C64.8 0 72 7.2 72 16L72 56C72 64.79 64.8 72 56 72L16 72C7.19 72 0 64.79 0 56L0 16C0 7.2 7.19 0 16 0Z" fill="#25C251" fill-opacity="1.000000" fill-rule="evenodd"/>
		<path id="形状结合" d="M36 12C37.3 12 38.5 12.29 39.5 12.89L54 21.39C55.9 22.5 57.4 25.2 57.4 27.5L57.4 44.5C57.4 46.79 55.9 49.39 54 50.6L39.5 59.1C38.5 59.7 37.3 60 36 60C34.7 60 33.4 59.7 32.5 59.1L18 50.6C16.1 49.39 14.6 46.79 14.6 44.5L14.6 27.5C14.6 25.2 16.1 22.5 18 21.39L32.5 12.89C33.5 12.29 34.7 12 36 12ZM31.6 30.7L28.7 30.7C27.8 30.7 27 31.5 27 32.39L27 35.29C27 35.39 27.1 35.7 27.1 35.79L22.3 38.6L20.7 38.6C20.1 38.6 19.7 39 19.7 39.6L19.7 41.1C19.7 41.7 20.1 42.1 20.7 42.1L22.2 42.1L22.3 42.1C22.8 42 23.2 41.7 23.2 41.1L23.2 39.6L28.1 36.79C28.3 36.89 28.5 37 28.8 37L31.7 37L31.8 37C31.9 37 32.1 36.89 32.2 36.89L34.3 40.5C34.2 40.7 34.2 41.1 34.2 41.2L34.2 42.7C34.2 43.6 35 44.39 35.9 44.39L37.4 44.39C38.3 44.39 39.1 43.6 39.1 42.7L39.1 41.2L39.1 41C39.1 40.79 39.1 40.6 39 40.5L41.1 37C41.3 37.1 41.5 37.1 41.7 37.1L44.6 37.1C45.5 37 46.3 36.29 46.3 35.39L46.3 34.1L48.7 33.6L48.7 34C48.7 34.6 49.1 35 49.7 35L51.2 35C51.8 35 52.2 34.6 52.2 34L52.2 32.5C52.2 31.89 51.8 31.5 51.2 31.5L49.7 31.5C49.3 31.5 48.9 31.79 48.8 32.2L46.4 32.79L46.4 32.5C46.4 31.6 45.6 30.79 44.7 30.79L41.8 30.79C40.9 30.79 40.1 31.6 40.1 32.5L40.1 35.39L40.1 35.6C40.1 35.79 40.1 36 40.2 36.1L38.1 39.6C37.9 39.5 37.7 39.5 37.5 39.5L36 39.5C35.9 39.5 35.6 39.6 35.5 39.6L33.2 36C33.2 35.79 33.3 35.6 33.3 35.39L33.3 32.39C33.3 31.39 32.6 30.7 31.6 30.7ZM30.5 40L28.5 40C28.2 40 28 40.2 28 40.5L28 42.5C28 42.79 28.2 43 28.5 43L30.5 43C30.8 43 31 42.79 31 42.5L31 40.5C31 40.2 30.8 40 30.5 40ZM37.5 40.7C37.7 40.7 37.8 40.89 37.8 41.1L37.8 42.6C37.8 42.79 37.6 42.89 37.4 42.89L35.9 42.89C35.7 42.89 35.6 42.7 35.6 42.5L35.6 41C35.6 40.79 35.8 40.7 36 40.7L37.5 40.7ZM45.5 39L43.5 39C43.2 39 43 39.2 43 39.5L43 41.5C43 41.79 43.2 42 43.5 42L45.5 42C45.8 42 46 41.79 46 41.5L46 39.5C46 39.2 45.8 39 45.5 39ZM31.7 32C31.9 32 32 32.2 32 32.39L32 35.39C32 35.6 31.8 35.7 31.6 35.7L28.6 35.7C28.4 35.7 28.3 35.5 28.3 35.29L28.3 32.29C28.3 32.1 28.5 32 28.7 32L31.7 32ZM44.8 32C45 32 45.1 32.2 45.1 32.39L45.1 35.39C45.1 35.6 44.9 35.7 44.7 35.7L41.7 35.7C41.5 35.7 41.4 35.5 41.4 35.29L41.4 32.29C41.4 32.1 41.6 32 41.8 32L44.8 32ZM37.5 27L35.5 27C35.2 27 35 27.2 35 27.5L35 29.5C35 29.79 35.2 30 35.5 30L37.5 30C37.8 30 38 29.79 38 29.5L38 27.5C38 27.2 37.8 27 37.5 27Z" fill="#FFFFFF" fill-opacity="1.000000" fill-rule="evenodd"/>
	</g>
</svg>
