<svg width="72.000000" height="72.000000" viewBox="0 0 72 72" fill="none" xmlns="http://www.w3.org/2000/svg" xmlns:xlink="http://www.w3.org/1999/xlink">
	<desc>
			Created with Pixso.
	</desc>
	<defs>
		<clipPath id="clip117_312">
			<rect id="12#云调度服务-ebs" width="72.000000" height="72.000000" fill="white" fill-opacity="0"/>
		</clipPath>
	</defs>
	<g clip-path="url(#clip117_312)">
		<path id="矩形备份-15" d="M16 0L56 0C64.84 0 72 7.16 72 16L72 56C72 64.83 64.84 72 56 72L16 72C7.15 72 0 64.83 0 56L0 16C0 7.16 7.15 0 16 0Z" fill="#1476FF" fill-opacity="1.000000" fill-rule="evenodd"/>
		<path id="形状结合" d="M36 18.54C41.46 18.54 46.31 21.93 48.25 26.98L48.33 27.23C54.58 28.02 59.45 33.23 59.8 39.54L59.8 39.75L59.81 39.96L59.81 40.29C59.81 47.48 54.06 53.31 46.91 53.43L46.7 53.43L25.28 53.43L24.95 53.43C17.84 53.25 12.17 47.41 12.17 40.29C12.17 33.73 17 28.19 23.4 27.27L23.65 27.23C25.43 22.31 30.01 18.88 35.22 18.57L35.45 18.56L35.67 18.55L36 18.54ZM36 21.25C31.31 21.25 27.22 24.37 25.96 28.86C25.8 29.42 25.3 29.81 24.74 29.84C19.21 30.13 14.86 34.73 14.86 40.29C14.86 45.9 19.28 50.5 24.81 50.75L25.01 50.75L25.3 50.75L46.7 50.75C52.46 50.75 57.12 46.07 57.12 40.29C57.12 34.73 52.79 30.14 47.26 29.84C46.67 29.81 46.18 29.41 46.04 28.86C44.78 24.36 40.67 21.25 36 21.25ZM41.57 31.15C41.57 30.5 42.3 30.09 42.85 30.44L51.48 36.92C51.89 37.23 51.92 37.85 51.54 38.21L42.91 44.71C42.38 45.09 41.63 44.75 41.57 44.1L41.6 40.57L29.56 40.57C29.53 40.57 29.49 40.57 29.45 40.56C29.3 40.52 29.08 40.43 28.98 40.32C28.82 40.17 28.74 39.96 28.74 39.73L28.78 37.08L22.37 41.86L28.74 46.71L28.74 44.04C28.74 43.56 29.1 43.19 29.56 43.19L38.13 43.19C38.59 43.19 38.97 43.56 38.97 44.04L38.96 44.15C38.85 44.54 38.5 44.86 38.13 44.86L30.4 44.84L30.4 48.32C30.4 49.02 29.61 49.4 29.06 49L20.51 42.55C20.06 42.21 20.06 41.55 20.51 41.21L29.06 34.77C29.61 34.36 30.4 34.75 30.4 35.44L30.37 38.9L42.41 38.9C42.84 38.9 43.21 39.23 43.25 39.65L43.21 42.38L49.6 37.61L43.25 32.77L43.25 35.44C43.25 35.79 43.03 36.1 42.7 36.23L42.54 36.27L42.41 36.29L33.84 36.29C33.38 36.29 33.02 35.9 33.02 35.44C33.02 35.02 33.34 34.65 33.78 34.61L41.57 34.63L41.57 31.15Z" fill="#FFFFFF" fill-opacity="1.000000" fill-rule="evenodd"/>
	</g>
</svg>
