<svg width="72.000000" height="72.000000" viewBox="0 0 72 72" fill="none" xmlns="http://www.w3.org/2000/svg" xmlns:xlink="http://www.w3.org/1999/xlink">
	<desc>
			Created with Pixso.
	</desc>
	<defs>
		<clipPath id="clip117_171">
			<rect id="2#分布式缓存服务Redis版-DCS" width="72.000000" height="72.000000" fill="white" fill-opacity="0"/>
		</clipPath>
	</defs>
	<g clip-path="url(#clip117_171)">
		<path id="矩形备份-19" d="M16 0L56 0C64.8 0 72 7.2 72 16L72 56C72 64.79 64.8 72 56 72L16 72C7.19 72 0 64.79 0 56L0 16C0 7.2 7.19 0 16 0Z" fill="#7DCC29" fill-opacity="1.000000" fill-rule="evenodd"/>
		<path id="形状结合" d="M57.79 45.8C57.79 47.39 56.7 49.3 55.2 50.1L38.49 59.39C37.89 59.8 36.99 60 35.99 60C34.99 60 34.09 59.8 33.39 59.39L16.7 50.1C15.29 49.3 14.09 47.39 14.09 45.8L14.09 41L14.29 41.2C14.59 41.6 14.99 41.89 15.39 42.1L33.49 52.39L33.7 52.5C34.39 52.8 35.2 53 35.99 53C36.89 53 37.79 52.8 38.49 52.39L56.59 42.1L56.79 42C57.2 41.8 57.49 41.39 57.79 41.1L57.79 45.8ZM57.79 37.8C57.59 38.89 56.79 40.1 55.89 40.6L37.89 51L37.7 51.1C36.7 51.6 35.09 51.5 34.09 51L16.09 40.7L15.89 40.6C15.09 40 14.39 38.89 14.2 37.89L14.2 26.3C14.2 24.7 15.29 22.8 16.79 22L33.49 12.7C34.89 11.89 37.2 11.89 38.59 12.7L55.29 22C56.7 22.8 57.89 24.7 57.89 26.3L57.79 37.8Z" fill="#FFFFFF" fill-opacity="1.000000" fill-rule="evenodd"/>
	</g>
</svg>
