<svg width="72.000000" height="72.000000" viewBox="0 0 72 72" fill="none" xmlns="http://www.w3.org/2000/svg" xmlns:xlink="http://www.w3.org/1999/xlink">
	<desc>
			Created with Pixso.
	</desc>
	<defs>
		<clipPath id="clip117_169">
			<rect id="3#分布式缓存服务Memcached版-DCSMEM" width="72.000000" height="72.000000" fill="white" fill-opacity="0"/>
		</clipPath>
	</defs>
	<g clip-path="url(#clip117_169)">
		<path id="矩形备份-19" d="M16 0L56 0C64.8 0 72 7.2 72 16L72 56C72 64.79 64.8 72 56 72L16 72C7.19 72 0 64.79 0 56L0 16C0 7.2 7.19 0 16 0Z" fill="#00C4BE" fill-opacity="1.000000" fill-rule="evenodd"/>
		<path id="形状结合" d="M33.4 12.6C35 11.79 36.9 11.79 38.5 12.6L55.2 21.79C56.7 22.7 57.7 24.39 57.8 26.2L57.8 45.79C57.7 47.6 56.7 49.2 55.2 50.2L38.5 59.5C36.9 60.29 35 60.29 33.4 59.5L16.7 50.2C15.2 49.29 14.2 47.6 14.1 45.79L14.1 26.2C14.2 24.39 15.2 22.79 16.7 21.79L33.4 12.6ZM38.8 44.6C38.1 44.6 37.6 45.1 37.6 45.79C37.6 46.5 38.1 47 38.8 47C39.5 47 40 46.5 40 45.79C40.1 45.1 39.6 44.6 38.8 44.6ZM33.4 44.6C32.7 44.6 32.2 45.1 32.2 45.79C32.2 46.5 32.7 47 33.4 47C34.1 47 34.6 46.5 34.6 45.79C34.6 45.1 34.1 44.6 33.4 44.6ZM29.6 25.1L25.5 25.1C24.6 25.1 24 25.79 24 26.6L24 45.39C24 46.29 24.7 46.89 25.5 46.89L29.5 46.89C29.7 46.89 29.8 46.79 29.9 46.7C30 46.6 30 46.39 30 46.29C29.6 44.89 29.2 43.39 28.9 41.7C28 37.29 27.7 32.29 28.7 30.79C28.9 30.39 29.2 30.29 29.5 30.29C31.9 29.89 34 38.7 34.3 40.39C35.4 40.7 36.7 40.7 37.8 40.39C38.1 38.7 40.1 30.29 42.4 30.29L42.6 30.29C42.8 30.39 43.1 30.5 43.4 30.79C44.5 32.29 44.1 37.29 43.2 41.7C42.9 43.29 42.5 44.89 42.1 46.29C42.1 46.39 42.1 46.6 42.2 46.7C42.3 46.79 42.5 46.89 42.6 46.89L46.6 46.89C47.5 46.89 48.1 46.2 48.1 45.39L48.1 26.6C48.1 25.7 47.4 25.1 46.6 25.1L42.7 25.1C42 25.1 41.4 25.29 40.8 25.89C38.7 28 36.5 31.6 36.5 31.6C36.4 31.7 36.3 31.79 36.1 31.79C36 31.79 35.8 31.79 35.7 31.6C35.7 31.6 33.5 28 31.4 25.89C30.9 25.39 30.2 25.1 29.6 25.1Z" fill="#FFFFFF" fill-opacity="1.000000" fill-rule="nonzero"/>
	</g>
</svg>
