<svg width="72.000000" height="72.000000" viewBox="0 0 72 72" fill="none" xmlns="http://www.w3.org/2000/svg" xmlns:xlink="http://www.w3.org/1999/xlink">
	<desc>
			Created with Pixso.
	</desc>
	<defs>
		<clipPath id="clip117_165">
			<rect id="4#分布式消息服务-DMS" width="72.000000" height="72.000000" fill="white" fill-opacity="0"/>
		</clipPath>
	</defs>
	<g clip-path="url(#clip117_165)">
		<path id="矩形备份-19" d="M16 0L56 0C64.8 0 72 7.2 72 16L72 56C72 64.79 64.8 72 56 72L16 72C7.19 72 0 64.79 0 56L0 16C0 7.2 7.19 0 16 0Z" fill="#FF9A2E" fill-opacity="1.000000" fill-rule="evenodd"/>
		<path id="形状结合" d="M49.95 25C51.59 25 52.95 26.35 52.95 28L52.95 50C52.95 51.64 51.59 53 49.95 53L15.95 53C14.3 53 12.95 51.64 12.95 50L12.95 28C12.95 26.35 14.3 25 15.95 25L49.95 25ZM56.2 18.5C58.55 18.5 60.45 20.41 60.45 22.77L60.45 44.25C60.45 46.6 58.55 48.52 56.2 48.52L55.95 48.52C55.11 48.52 54.45 47.85 54.45 47.02C54.45 46.2 55.11 45.52 55.95 45.52L56.2 45.52C56.87 45.52 57.45 44.96 57.45 44.25L57.45 22.77C57.45 22.06 56.87 21.5 56.2 21.5L22.7 21.5C22.02 21.5 21.45 22.06 21.45 22.77C21.45 23.6 20.78 24.27 19.95 24.27C19.11 24.27 18.45 23.6 18.45 22.77C18.45 20.41 20.34 18.5 22.7 18.5L56.2 18.5ZM22.95 36C21.29 36 19.95 37.33 19.95 39C19.95 40.66 21.29 42 22.95 42C24.6 42 25.95 40.66 25.95 39C25.95 37.33 24.6 36 22.95 36ZM32.95 36C31.29 36 29.95 37.33 29.95 39C29.95 40.66 31.29 42 32.95 42C34.6 42 35.95 40.66 35.95 39C35.95 37.33 34.6 36 32.95 36ZM42.95 36C41.29 36 39.95 37.33 39.95 39C39.95 40.66 41.29 42 42.95 42C44.6 42 45.95 40.66 45.95 39C45.95 37.33 44.6 36 42.95 36Z" fill="#FFFFFF" fill-opacity="1.000000" fill-rule="evenodd"/>
	</g>
</svg>
