<svg width="72.000000" height="72.000000" viewBox="0 0 72 72" fill="none" xmlns="http://www.w3.org/2000/svg" xmlns:xlink="http://www.w3.org/1999/xlink">
	<desc>
			Created with Pixso.
	</desc>
	<defs>
		<clipPath id="clip117_167">
			<rect id="5#分布式消息服务Kafka版-DMSKAFKA" width="72.000000" height="72.000000" fill="white" fill-opacity="0"/>
		</clipPath>
	</defs>
	<g clip-path="url(#clip117_167)">
		<path id="矩形备份-19" d="M16 0L56 0C64.8 0 72 7.2 72 16L72 56C72 64.79 64.8 72 56 72L16 72C7.19 72 0 64.79 0 56L0 16C0 7.2 7.19 0 16 0Z" fill="#1476FF" fill-opacity="1.000000" fill-rule="evenodd"/>
		<path id="形状结合" d="M55.63 16.08C58.04 16.08 60 18.04 60 20.55L60 47.6C60 50.1 58.04 52.07 55.63 52.07L41.45 52.07L37.62 56.76C37.18 57.31 36.64 57.52 35.99 57.52C35.43 57.52 34.79 57.3 34.35 56.76L30.55 52.08L16.36 52.08C13.96 52.08 12 50.01 12 47.5L12 20.55C12 18.04 13.96 16.08 16.36 16.08L55.63 16.08ZM35.71 20.08C34.11 20.08 32.82 21.37 32.82 22.98C32.82 24.37 33.81 25.55 35.12 25.82L35.12 30.08L32.12 31.83L32.02 31.91C31.73 32.12 31.56 32.47 31.56 32.83L31.56 36.32L31.57 36.46C31.61 36.82 31.82 37.14 32.13 37.33L35.13 39.07L35.13 43.33C33.82 43.6 32.83 44.78 32.83 46.18C32.83 47.78 34.12 49.08 35.72 49.08C37.32 49.08 38.61 47.78 38.61 46.18L38.6 45.99C38.5 44.66 37.55 43.6 36.3 43.33L36.3 39.07L39.02 37.49L43.43 40.45C43.3 40.79 43.23 41.16 43.23 41.54C43.23 43.14 44.52 44.43 46.12 44.43C47.72 44.43 49.01 43.14 49.01 41.54C49.01 39.93 47.72 38.64 46.12 38.64C45.33 38.64 44.61 38.96 44.09 39.48L39.84 36.64C39.87 36.54 39.87 36.43 39.87 36.32L39.87 32.91L43.92 30.66C44.46 31.28 45.25 31.66 46.12 31.66C47.72 31.66 49.01 30.37 49.01 28.77C49.01 27.16 47.72 25.87 46.12 25.87C44.52 25.87 43.23 27.16 43.23 28.77C43.23 29.07 43.28 29.37 43.36 29.64L39.37 31.87L36.3 30.08L36.3 25.82C37.62 25.55 38.61 24.37 38.61 22.98C38.6 21.37 37.31 20.08 35.71 20.08ZM35.71 44.43C36.66 44.43 37.43 45.22 37.43 46.18C37.43 47.14 36.65 47.91 35.71 47.91C34.75 47.91 33.98 47.14 33.98 46.18C33.98 45.22 34.75 44.43 35.71 44.43ZM30.37 37.1C30.15 36.85 29.79 36.83 29.55 37.05L26.61 39.62C26.24 39.37 25.79 39.23 25.31 39.23C24.03 39.23 23 40.27 23 41.55C23 42.83 24.03 43.87 25.31 43.87C26.59 43.87 27.62 42.83 27.62 41.55C27.62 41.16 27.53 40.82 27.37 40.51L30.31 37.93C30.49 37.71 30.55 37.31 30.37 37.1ZM46.11 39.8C47.07 39.8 47.84 40.58 47.84 41.54C47.84 42.5 47.06 43.28 46.11 43.28C45.15 43.28 44.37 42.5 44.37 41.54C44.37 40.58 45.14 39.8 46.11 39.8ZM35.71 31.1L38.71 32.83L38.71 36.32L35.71 38.06L32.71 36.32L32.71 32.83L35.71 31.1ZM25.31 26.46C24.03 26.46 23 27.5 23 28.78C23 30.06 24.03 31.1 25.31 31.1C25.92 31.1 26.49 30.85 26.89 30.46L29.62 32.16C29.87 32.27 30.26 32.23 30.4 31.99C30.58 31.72 30.5 31.35 30.23 31.18L27.51 29.48C27.58 29.26 27.62 29.02 27.62 28.78C27.62 27.5 26.59 26.46 25.31 26.46ZM46.11 27.04C47.07 27.04 47.84 27.82 47.84 28.78C47.84 29.74 47.06 30.52 46.11 30.52C45.15 30.52 44.37 29.74 44.37 28.78C44.37 27.82 45.14 27.04 46.11 27.04ZM35.71 21.24C36.66 21.24 37.43 22.02 37.43 22.98C37.43 23.93 36.65 24.72 35.71 24.72C34.75 24.72 33.98 23.93 33.98 22.98C33.98 22.02 34.75 21.24 35.71 21.24Z" fill="#FFFFFF" fill-opacity="1.000000" fill-rule="nonzero"/>
	</g>
</svg>
