<svg width="72.000000" height="72.000000" viewBox="0 0 72 72" fill="none" xmlns="http://www.w3.org/2000/svg" xmlns:xlink="http://www.w3.org/1999/xlink">
	<desc>
			Created with Pixso.
	</desc>
	<defs>
		<clipPath id="clip117_170">
			<rect id="6#分布式消息服务RabbitMQ版-RabbitMQ" width="72.000000" height="72.000000" fill="white" fill-opacity="0"/>
		</clipPath>
	</defs>
	<g clip-path="url(#clip117_170)">
		<path id="矩形备份-19" d="M16 0L56 0C64.8 0 72 7.2 72 16L72 56C72 64.79 64.8 72 56 72L16 72C7.19 72 0 64.79 0 56L0 16C0 7.2 7.19 0 16 0Z" fill="#9F53E6" fill-opacity="1.000000" fill-rule="evenodd"/>
		<path id="形状结合" d="M46.2 12C49.1 12 51.5 14.29 51.6 17.1L51.6 17.39L51.6 26.7C56.39 28.5 59.8 33.1 60 38.29L60 38.6L60 42C60 49.2 54.3 55 47.1 55.2L46.8 55.2L40.8 55.2L36.8 59.6C36.39 60 35.7 60.1 35.2 59.7L30.7 55.2L25.2 55.2C18 55.2 12.2 49.5 12 42.29L12 42L12 38.7C12 33.29 15.3 28.6 20.29 26.7L20.39 26.7L20.39 17.39C20.39 14.5 22.7 12.1 25.5 12L25.8 12C28.7 12 31.1 14.29 31.2 17.1L31.2 17.39L31.2 26.39L40.8 26.39L40.8 17.39C40.8 14.5 43.1 12.1 45.89 12L46.2 12ZM26.39 39C25.1 39 24 40.1 24 41.5C24 42.89 25.1 44 26.39 44C27.7 44 28.8 42.89 28.8 41.5C28.8 40.1 27.7 39 26.39 39ZM36 39C34.7 39 33.6 40.1 33.6 41.5C33.6 42.89 34.7 44 36 44C37.3 44 38.39 42.89 38.39 41.5C38.39 40.1 37.3 39 36 39ZM45.6 39C44.3 39 43.2 40.1 43.2 41.5C43.2 42.89 44.3 44 45.6 44C46.89 44 48 42.89 48 41.5C48 40.1 46.89 39 45.6 39Z" fill="#FFFFFF" fill-opacity="1.000000" fill-rule="evenodd"/>
	</g>
</svg>
