<svg width="72.000000" height="72.000000" viewBox="0 0 72 72" fill="none" xmlns="http://www.w3.org/2000/svg" xmlns:xlink="http://www.w3.org/1999/xlink">
	<desc>
			Created with Pixso.
	</desc>
	<defs>
		<clipPath id="clip117_173">
			<rect id="7#应用服务网格-ASM" width="72.000000" height="72.000000" fill="white" fill-opacity="0"/>
		</clipPath>
	</defs>
	<g clip-path="url(#clip117_173)">
		<path id="矩形备份-19" d="M16 0L56 0C64.8 0 72 7.2 72 16L72 56C72 64.79 64.8 72 56 72L16 72C7.19 72 0 64.79 0 56L0 16C0 7.2 7.19 0 16 0Z" fill="#9F53E6" fill-opacity="1.000000" fill-rule="evenodd"/>
		<path id="形状结合" d="M36 12C37.32 12 38.53 12.33 39.62 12.87L54.48 21.37C56.46 22.47 58 25.2 58 27.49L58 44.5C58 46.79 56.46 49.41 54.48 50.62L39.62 59.12C38.53 59.66 37.32 60 36 60C34.67 60 33.36 59.66 32.37 59.12L17.52 50.62C15.54 49.41 14 46.79 14 44.5L14 27.49C14 25.2 15.54 22.47 17.52 21.37L32.37 12.87C33.47 12.33 34.67 12 36 12ZM44.36 23.08C44.06 22.77 43.65 22.74 43.35 22.89L38.58 26.81L38.71 26.95C38.05 26.27 37.14 25.93 36.12 25.93L35.89 25.95C35.13 26 34.39 26.29 33.75 26.79L28.74 23.02C28.47 22.75 28.04 22.83 27.74 23.14C27.53 23.41 27.57 23.87 27.85 24.16L32.6 28.08C32.32 28.62 32.12 29.27 32.12 29.83L32.13 30.08C32.17 30.56 32.33 31.06 32.56 31.52L30.31 33.5C29.74 33.1 28.98 32.81 28.31 32.81L28.09 32.81C27.49 32.87 26.87 33.1 26.37 33.46L21.13 29.25C20.87 28.99 20.43 29.06 20.12 29.37C19.91 29.66 19.95 30.12 20.24 30.39L25.4 34.64C25.23 34.97 25.09 35.37 25.06 35.77L25.05 35.97L25.06 36.18C25.08 36.58 25.16 36.95 25.33 37.27L25.4 37.41L20.26 41.62C19.99 41.89 19.95 42.29 20.1 42.6C20.33 42.85 20.45 42.93 20.7 42.93L20.8 42.93C20.95 42.91 21.05 42.87 21.15 42.77L26.32 38.54C26.88 38.93 27.65 39.23 28.33 39.23L28.55 39.22C29.14 39.16 29.76 38.93 30.27 38.58L32.61 40.45L32.68 40.29C32.34 40.89 32.12 41.56 32.12 42.2L32.13 42.43C32.17 42.93 32.33 43.41 32.56 43.87L27.86 47.85C27.59 48.12 27.55 48.52 27.7 48.83C27.92 49.08 28.06 49.16 28.3 49.16C28.42 49.16 28.5 49.14 28.59 49.1C28.62 49.08 28.72 49.02 28.76 48.99L33.49 45.08C34.2 45.6 35.08 45.98 35.91 45.98L36.14 45.97C36.9 45.91 37.64 45.62 38.29 45.12L43.09 49C43.21 49.12 43.33 49.14 43.53 49.14C43.68 49.14 43.95 49.02 44.09 48.87C44.3 48.6 44.26 48.14 43.98 47.85L39.23 43.93C39.5 43.39 39.7 42.75 39.7 42.18L39.68 41.93C39.64 41.45 39.5 40.96 39.27 40.5L41.52 38.52C42.09 38.91 42.86 39.21 43.53 39.21L43.75 39.2C44.35 39.14 44.96 38.91 45.47 38.56L50.7 42.75C50.76 42.81 50.84 42.87 50.93 42.89C51.01 42.91 51.05 42.91 51.14 42.91C51.39 42.91 51.52 42.83 51.71 42.64C51.91 42.35 51.88 41.89 51.6 41.62L46.4 37.37C46.63 36.89 46.78 36.37 46.78 35.95L46.77 35.74C46.75 35.33 46.65 34.97 46.5 34.64L46.41 34.5L51.57 30.29C52 30.08 52.12 29.66 51.93 29.31C51.64 29 51.24 28.96 50.92 29.1L45.72 33.37C45.14 32.97 44.39 32.68 43.72 32.68L43.5 32.68C42.89 32.74 42.28 32.97 41.77 33.33L39.42 31.46C39.71 30.93 39.89 30.27 39.89 29.71L39.89 29.47C39.85 28.98 39.7 28.49 39.47 28.02L44.16 24.04C44.47 23.79 44.51 23.39 44.36 23.08ZM36.03 40.93C36.77 40.93 37.31 41.49 37.31 42.22C37.31 42.96 36.75 43.5 36.03 43.5C35.29 43.5 34.75 42.95 34.75 42.22C34.75 41.49 35.29 40.93 36.03 40.93ZM33.47 32.54C34.22 33.16 35.11 33.54 36.03 33.54C36.87 33.54 37.68 33.23 38.39 32.68L40.75 34.54C40.53 35.02 40.37 35.54 40.37 35.98L40.38 36.18C40.4 36.6 40.5 36.96 40.65 37.27L40.74 37.41L38.47 39.31C37.82 38.74 36.97 38.43 36.03 38.43L35.8 38.43C35.04 38.49 34.3 38.79 33.65 39.27L31.31 37.41C31.53 36.93 31.67 36.41 31.67 35.99L31.66 35.77C31.64 35.37 31.56 35 31.39 34.68L31.32 34.54L33.59 32.64L33.47 32.54ZM28.4 34.16C29.36 34.16 30.22 35.02 30.22 35.98C30.22 36.93 29.36 37.79 28.4 37.79C27.38 37.79 26.6 36.97 26.6 35.98C26.6 35.02 27.46 34.16 28.4 34.16ZM43.64 34.16C44.6 34.16 45.46 35.02 45.46 35.98C45.46 36.97 44.66 37.79 43.64 37.79C42.7 37.79 41.84 36.93 41.84 35.98C41.84 35.02 42.7 34.16 43.64 34.16ZM36.03 28.46C36.77 28.46 37.31 29 37.31 29.74C37.31 30.47 36.75 31.02 36.03 31.02C35.29 31.02 34.75 30.47 34.75 29.74C34.75 29 35.29 28.46 36.03 28.46Z" fill="#FFFFFF" fill-opacity="1.000000" fill-rule="evenodd"/>
	</g>
</svg>
