<svg width="72.000000" height="72.000000" viewBox="0 0 72 72" fill="none" xmlns="http://www.w3.org/2000/svg" xmlns:xlink="http://www.w3.org/1999/xlink">
	<desc>
			Created with Pixso.
	</desc>
	<defs>
		<clipPath id="clip117_172">
			<rect id="8#分布式消息服务RocketMQ版-RocketMQ" width="72.000000" height="72.000000" fill="white" fill-opacity="0"/>
		</clipPath>
	</defs>
	<g clip-path="url(#clip117_172)">
		<path id="矩形备份-19" d="M16 0L56 0C64.8 0 72 7.2 72 16L72 56C72 64.79 64.8 72 56 72L16 72C7.19 72 0 64.79 0 56L0 16C0 7.2 7.19 0 16 0Z" fill="#00ABED" fill-opacity="1.000000" fill-rule="evenodd"/>
		<path id="形状结合" d="M50.11 23.21C52.75 23.21 54.88 25.34 54.88 27.97L54.88 48.19C54.88 50.82 52.76 52.95 50.11 52.95L39.04 52.95L36.08 57.49C35.72 58.04 34.99 58.2 34.43 57.85C34.32 57.78 34.22 57.69 34.13 57.58L30.57 52.95L16.76 52.95C14.12 52.95 11.99 50.82 11.99 48.19L11.99 27.97C11.99 25.34 14.11 23.21 16.76 23.21L50.11 23.21ZM32.77 27.31C31.66 27.31 30.78 28.21 30.78 29.33C30.77 30.02 31.11 30.67 31.7 31.04L31.45 33.16L28.12 35.59L25.04 32.82C25.33 32.38 25.48 31.87 25.48 31.34C25.48 29.86 24.29 28.65 22.82 28.65C21.35 28.65 20.15 29.85 20.15 31.34C20.15 32.82 21.35 34.03 22.82 34.03C23.25 34.03 23.66 33.93 24.04 33.72L27.07 36.41L28.56 41.06L24.99 43.22C24.49 42.51 23.68 42.09 22.83 42.09C21.36 42.09 20.16 43.29 20.16 44.78C20.16 46.27 21.36 47.47 22.82 47.47C24.29 47.47 25.48 46.27 25.48 44.78C25.49 44.69 25.49 44.59 25.48 44.5L28.97 42.42L34.28 42.42L35.53 44.25C35.04 44.75 34.77 45.43 34.77 46.13C34.77 47.61 35.96 48.82 37.41 48.82C38.88 48.82 40.08 47.62 40.08 46.13C40.08 44.65 38.88 43.44 37.42 43.44C37.15 43.44 36.87 43.47 36.61 43.55L35.4 41.76L36.74 37.63L42.05 34.43C42.55 35.03 43.29 35.37 44.07 35.37C45.54 35.37 46.73 34.17 46.73 32.68C46.73 31.2 45.54 29.99 44.07 29.99C42.6 29.99 41.4 31.19 41.4 32.68C41.38 32.85 41.38 33.03 41.4 33.2L36.79 36.09L32.81 33.2L33.04 31.33C34.13 31.26 34.97 30.3 34.9 29.19C34.82 28.09 33.86 27.24 32.77 27.31ZM37.41 44.79C38.14 44.79 38.75 45.39 38.75 46.13C38.75 46.87 38.15 47.47 37.41 47.47C36.67 47.47 36.09 46.87 36.09 46.13C36.09 45.39 36.68 44.79 37.41 44.79ZM22.82 43.44C23.55 43.44 24.14 44.04 24.14 44.78C24.14 45.52 23.56 46.12 22.82 46.12C22.08 46.12 21.49 45.52 21.49 44.78C21.49 44.04 22.08 43.44 22.82 43.44ZM57.17 15.02C59.3 15.02 61.01 16.76 61.01 18.89L61.01 40.88C61.01 43.01 59.3 44.75 57.17 44.75L56.91 44.75C56.35 44.75 55.89 44.29 55.89 43.73C55.89 43.17 56.35 42.71 56.91 42.71L57.17 42.71C58.15 42.71 58.97 41.89 58.97 40.88L58.97 18.89C58.97 17.88 58.15 17.06 57.17 17.06L22.97 17.06C21.99 17.06 21.17 17.88 21.17 18.89L21.17 21.13C21.17 21.69 20.72 22.15 20.15 22.15C19.6 22.15 19.13 21.69 19.13 21.13L19.13 18.89C19.13 16.76 20.85 15.02 22.97 15.02L57.17 15.02ZM32.11 34.36L35.58 36.94L34.25 41.08L29.95 41.08L28.61 36.93L32.11 34.36ZM44.06 31.35C44.79 31.35 45.38 31.95 45.38 32.69C45.38 33.43 44.8 34.03 44.06 34.03C43.32 34.03 42.73 33.43 42.73 32.69C42.73 31.95 43.32 31.35 44.06 31.35ZM22.82 30C23.55 30 24.14 30.6 24.14 31.34C24.14 32.08 23.56 32.68 22.82 32.68C22.08 32.68 21.49 32.08 21.49 31.34C21.49 30.6 22.08 30 22.82 30ZM32.77 28.66C33.13 28.66 33.42 28.96 33.42 29.33C33.42 29.7 33.12 30 32.77 30C32.39 30 32.11 29.7 32.11 29.33C32.11 28.96 32.4 28.66 32.77 28.66ZM51.31 18.63C51.86 18.63 52.31 19.08 52.31 19.63C52.31 20.18 51.86 20.63 51.31 20.63L28.84 20.63C28.29 20.63 27.84 20.18 27.84 19.63C27.84 19.08 28.29 18.63 28.84 18.63L51.31 18.63Z" fill="#FFFFFF" fill-opacity="1.000000" fill-rule="nonzero"/>
	</g>
</svg>
