<svg width="72.000000" height="72.000000" viewBox="0 0 72 72" fill="none" xmlns="http://www.w3.org/2000/svg" xmlns:xlink="http://www.w3.org/1999/xlink">
	<desc>
			Created with Pixso.
	</desc>
	<defs>
		<clipPath id="clip117_163">
			<rect id="9#API网关-APIG" width="72.000000" height="72.000000" fill="white" fill-opacity="0"/>
		</clipPath>
	</defs>
	<g clip-path="url(#clip117_163)">
		<path id="矩形备份-19" d="M16 0L56 0C64.8 0 72 7.2 72 16L72 56C72 64.79 64.8 72 56 72L16 72C7.19 72 0 64.79 0 56L0 16C0 7.2 7.19 0 16 0Z" fill="#F85835" fill-opacity="1.000000" fill-rule="evenodd"/>
		<path id="形状结合" d="M15.38 35.02C15.89 35.02 16.3 35.43 16.41 35.95L16.41 53.5C16.41 54.62 17.33 55.33 18.46 55.33L53.29 55.33C54.42 55.33 55.34 54.62 55.34 53.5L55.34 48.81C53.63 48.37 52.37 46.81 52.37 44.95C52.37 42.74 54.16 40.95 56.37 40.95C58.58 40.95 60.37 42.74 60.37 44.95C60.37 46.81 59.1 48.37 57.39 48.81L57.39 53.5C57.39 55.75 55.55 57.37 53.29 57.37L18.45 57.37C16.2 57.37 14.35 55.75 14.35 53.5L14.35 35.95C14.35 35.43 14.87 35.02 15.38 35.02ZM29.01 28.81C31.05 28.81 31.67 30.64 31.98 31.26L34.33 42.08L33.21 42.08L31.78 35.95L25.11 35.95L23.68 42.06L22.55 42.06L25.02 31.25C25.22 30.64 25.83 28.79 27.88 28.79L29.01 28.81ZM49.2 28.81L49.2 42.06L48.17 42.06L48.17 28.81L49.2 28.81ZM43.66 28.81C45 28.81 46.12 30.02 46.12 31.46L46.12 32.89C46.12 34.31 45 35.95 43.66 35.95L36.9 35.95L36.9 42.06L35.88 42.06L35.88 28.81L43.66 28.81ZM53.29 14.52C55.54 14.52 57.39 16.56 57.39 18.81L57.39 36.04C57.39 36.66 56.99 37.06 56.37 37.06C55.77 37.06 55.34 36.66 55.34 36.04L55.34 18.81C55.34 17.68 54.42 16.56 53.29 16.56L18.45 16.56C17.32 16.56 16.4 17.68 16.3 18.81L16.3 22.04C18.08 22.45 19.41 24.04 19.41 25.95C19.41 28.16 17.62 29.95 15.41 29.95C13.21 29.95 11.41 28.16 11.41 25.95C11.41 24.1 12.66 22.54 14.35 22.08L14.35 18.81C14.35 16.56 16.2 14.52 18.45 14.52L53.29 14.52ZM43.66 29.83L36.9 29.83L36.9 34.93L43.66 34.93C44.38 34.93 45.09 33.71 45.09 32.89L45.09 31.46C45.09 30.64 44.38 29.83 43.66 29.83ZM28.71 29.83L28.09 29.83C27.06 29.83 26.46 30.33 26.04 31.56L25.32 34.93L31.57 34.93L30.76 31.66C30.34 30.33 29.73 29.83 28.71 29.83Z" fill="#FFFFFF" fill-opacity="1.000000" fill-rule="evenodd"/>
	</g>
</svg>
