<svg width="72.000000" height="72.000000" viewBox="0 0 72 72" fill="none" xmlns="http://www.w3.org/2000/svg" xmlns:xlink="http://www.w3.org/1999/xlink">
	<desc>
			Created with Pixso.
	</desc>
	<defs>
		<clipPath id="clip117_265">
			<rect id="2#全球SIM联接-GSL" width="72.000000" height="72.000000" fill="white" fill-opacity="0"/>
		</clipPath>
	</defs>
	<g clip-path="url(#clip117_265)">
		<path id="矩形备份-19" d="M16 0L56 0C64.8 0 72 7.2 72 16L72 56C72 64.79 64.8 72 56 72L16 72C7.19 72 0 64.79 0 56L0 16C0 7.2 7.19 0 16 0Z" fill="#FF9A2E" fill-opacity="1.000000" fill-rule="evenodd"/>
		<path id="形状结合" d="M40 13L40.29 13.2L53.5 20.8C56.2 22.4 57.89 25.3 57.89 28.4L57.89 43.6C57.89 46.7 56.2 49.6 53.5 51.2L40.29 58.8C37.59 60.4 34.29 60.4 31.5 58.8L18.29 51.2C15.59 49.6 13.89 46.7 13.89 43.6L13.89 28.4C13.89 25.3 15.59 22.4 18.29 20.8L31.5 13.2C34.2 11.7 37.39 11.6 40 13ZM44 21.9L33.2 21.9C32.39 21.9 31.59 22.2 31.09 22.8L25.89 28C25.29 28.6 25 29.3 25 30.1L25 45.1L25 45.3C25.09 46.9 26.39 48.1 28 48.1L44 48.1C45.7 48.1 47 46.8 47 45.1L47 24.9C47 23.2 45.7 21.9 44 21.9ZM40.09 30.1C41.79 30.1 43.09 31.4 43.09 33.1L43.09 41.3C43.09 43 41.79 44.3 40.09 44.3L31.89 44.3C30.2 44.3 28.89 43 28.89 41.3L28.89 33.1C28.89 31.4 30.2 30.1 31.89 30.1L40.09 30.1ZM33 40.1L30.29 40.1L30.29 41.3C30.29 42.1 31 42.8 31.79 42.8L33 42.8L33 40.1ZM37.39 40.1L34.5 40.1L34.5 42.8L37.39 42.8L37.39 40.1ZM41.59 40.1L38.89 40.1L38.89 42.8L40.09 42.8C40.89 42.8 41.59 42.1 41.59 41.3L41.59 40.1ZM41.59 35.8L30.29 35.8L30.29 38.7L41.5 38.7L41.59 35.8ZM33 31.6L31.79 31.6C31 31.6 30.29 32.3 30.29 33.1L30.29 34.3L33 34.3L33 31.6ZM37.39 31.6L34.5 31.6L34.5 34.3L37.39 34.3L37.39 31.6ZM40.09 31.6L38.89 31.6L38.89 34.3L41.59 34.3L41.59 33.1C41.59 32.2 40.89 31.6 40.09 31.6Z" fill="#FFFFFF" fill-opacity="1.000000" fill-rule="nonzero"/>
	</g>
</svg>
