<svg width="72.000000" height="72.000000" viewBox="0 0 72 72" fill="none" xmlns="http://www.w3.org/2000/svg" xmlns:xlink="http://www.w3.org/1999/xlink">
	<desc>
			Created with Pixso.
	</desc>
	<defs>
		<clipPath id="clip117_266">
			<rect id="3#IoT数据分析-IoTA" width="72.000000" height="72.000000" fill="white" fill-opacity="0"/>
		</clipPath>
	</defs>
	<g clip-path="url(#clip117_266)">
		<path id="矩形备份-19" d="M16 0L56 0C64.8 0 72 7.2 72 16L72 56C72 64.79 64.8 72 56 72L16 72C7.19 72 0 64.79 0 56L0 16C0 7.2 7.19 0 16 0Z" fill="#25C251" fill-opacity="1.000000" fill-rule="evenodd"/>
		<path id="形状结合" d="M40 13L40.29 13.2L53.5 20.8C56.2 22.4 57.89 25.3 57.89 28.4L57.89 43.6C57.89 46.7 56.2 49.6 53.5 51.2L40.29 58.8C37.59 60.4 34.29 60.4 31.5 58.8L18.29 51.2C15.59 49.6 13.89 46.7 13.89 43.6L13.89 28.4C13.89 25.3 15.59 22.4 18.29 20.8L31.5 13.2C34.2 11.7 37.39 11.6 40 13ZM48.29 36.3C46.79 36.3 45.59 37.5 45.59 39.1C45.59 39.9 46 40.7 46.5 41.2C44.59 45.3 40.59 48 36.2 48C31.79 48 27.79 45.4 25.89 41.3C25.7 40.8 25.09 40.6 24.59 40.8C24.09 41 23.89 41.6 24.09 42.1C26.29 46.9 31 50 36.2 50C41.5 50 46.29 46.7 48.39 41.9C49.89 41.9 51 40.7 51 39.1C51 37.6 49.79 36.3 48.29 36.3ZM34.09 30C33.5 30 33.09 30.4 33.09 31L33.09 39.7C33.09 40.3 33.5 40.7 34.09 40.7C34.7 40.7 35.09 40.3 35.09 39.7L35.09 31C35.09 30.5 34.59 30 34.09 30ZM41.79 32.5C41.2 32.5 40.79 32.9 40.79 33.5L40.79 39.7C40.79 40.3 41.2 40.7 41.79 40.7C42.39 40.7 42.79 40.3 42.79 39.7L42.79 33.5C42.79 33 42.39 32.5 41.79 32.5ZM30.2 35C29.59 35 29.2 35.4 29.2 36L29.2 39.7C29.2 40.3 29.59 40.7 30.2 40.7C30.79 40.7 31.2 40.3 31.2 39.7L31.2 36C31.2 35.4 30.79 35 30.2 35ZM38 36.2C37.39 36.2 37 36.6 37 37.2L37 39.7C37 40.3 37.39 40.7 38 40.7C38.59 40.7 39 40.3 39 39.7L39 37.2C39 36.6 38.5 36.2 38 36.2ZM36.2 22C30.29 22 25.2 26 23.39 31.7C22 31.8 21 33 21 34.4C21 35.9 22.2 37.2 23.7 37.2C25.2 37.2 26.39 36 26.39 34.4C26.39 33.5 26 32.7 25.29 32.2C26.79 27.4 31.2 24 36.2 24C40.7 24 44.79 26.8 46.7 31.1C46.89 31.6 47.5 31.8 48 31.6C48.5 31.4 48.7 30.8 48.5 30.3C46.29 25.3 41.59 22 36.2 22Z" fill="#FFFFFF" fill-opacity="1.000000" fill-rule="nonzero"/>
	</g>
</svg>
