<svg width="72.000000" height="72.000000" viewBox="0 0 72 72" fill="none" xmlns="http://www.w3.org/2000/svg" xmlns:xlink="http://www.w3.org/1999/xlink">
	<desc>
			Created with Pixso.
	</desc>
	<defs>
		<clipPath id="clip117_271">
			<rect id="4#IoT行业生态工作台-IoTStage" width="72.000000" height="72.000000" fill="white" fill-opacity="0"/>
		</clipPath>
	</defs>
	<g clip-path="url(#clip117_271)">
		<path id="矩形备份-19" d="M16 0L56 0C64.8 0 72 7.2 72 16L72 56C72 64.79 64.8 72 56 72L16 72C7.19 72 0 64.79 0 56L0 16C0 7.2 7.19 0 16 0Z" fill="#7DCC29" fill-opacity="1.000000" fill-rule="evenodd"/>
		<path id="形状结合" d="M40 13L40.29 13.2L53.5 20.8C56.2 22.4 57.89 25.3 57.89 28.4L57.89 43.6C57.89 46.7 56.2 49.6 53.5 51.2L40.29 58.8C37.59 60.4 34.29 60.4 31.5 58.8L18.29 51.2C15.59 49.6 13.89 46.7 13.89 43.6L13.89 28.4C13.89 25.3 15.59 22.4 18.29 20.8L31.5 13.2C34.2 11.7 37.39 11.6 40 13ZM50.09 34.3C48.59 34.3 47.39 35.5 47.39 37.1C47.39 38.1 47.89 39 48.7 39.5C47.2 45.6 42 50 35.79 50C29.89 50 24.79 45.9 23.09 40.1C22.89 39.6 22.39 39.3 21.89 39.4C21.39 39.6 21.09 40.1 21.2 40.6C23.09 47.3 29 52 35.79 52C43 52 49 46.9 50.7 39.8C51.89 39.5 52.79 38.4 52.79 37.1C52.79 35.6 51.59 34.3 50.09 34.3ZM36 28C31.59 28 28 31.6 28 36C28 40.4 31.59 44 36 44C40.39 44 44 40.4 44 36C44 31.6 40.39 28 36 28ZM36.39 33.5C36.59 33.1 37 33 37.39 33.2C37.79 33.4 37.89 33.8 37.7 34.2L35.59 38C35.39 38.4 35 38.5 34.59 38.3C34.2 38.1 34.09 37.7 34.29 37.3L36.39 33.5ZM32.09 33.5C32.39 33.2 32.79 33.2 33.09 33.5C33.39 33.8 33.39 34.2 33.09 34.5L31.89 35.7L33.09 36.9C33.39 37.2 33.39 37.6 33.2 37.8L33.09 38C32.79 38.3 32.39 38.3 32.09 38L30.39 36.3C30.09 36 30.09 35.6 30.39 35.3L32.09 33.5ZM38.89 33.5C39.2 33.2 39.59 33.2 39.89 33.5L41.59 35.2C41.89 35.5 41.89 35.9 41.59 36.2L39.89 38C39.59 38.3 39.2 38.3 38.89 38C38.7 37.7 38.59 37.2 38.89 37L40.09 35.8L38.89 34.6C38.59 34.2 38.59 33.8 38.89 33.5ZM35.79 20C29 20 23.09 24.7 21.2 31.3C19.89 31.5 18.79 32.6 18.79 34.1C18.79 35.6 20 36.9 21.5 36.9C23 36.9 24.2 35.7 24.2 34.1C24.2 33.2 23.79 32.4 23.09 31.9C24.79 26 29.89 22 35.79 22C40.89 22 45.5 25.1 47.7 29.8C47.89 30.3 48.5 30.5 49 30.3C49.5 30.1 49.7 29.5 49.5 29C47 23.5 41.7 20 35.79 20Z" fill="#FFFFFF" fill-opacity="1.000000" fill-rule="nonzero"/>
	</g>
</svg>
