<svg width="72.000000" height="72.000000" viewBox="0 0 72 72" fill="none" xmlns="http://www.w3.org/2000/svg" xmlns:xlink="http://www.w3.org/1999/xlink">
	<desc>
			Created with Pixso.
	</desc>
	<defs>
		<clipPath id="clip117_264">
			<rect id="5#路网数字化服务-DRIS" width="72.000000" height="72.000000" fill="white" fill-opacity="0"/>
		</clipPath>
	</defs>
	<g clip-path="url(#clip117_264)">
		<path id="矩形备份-19" d="M16 0L56 0C64.8 0 72 7.2 72 16L72 56C72 64.79 64.8 72 56 72L16 72C7.19 72 0 64.79 0 56L0 16C0 7.2 7.19 0 16 0Z" fill="#1476FF" fill-opacity="1.000000" fill-rule="evenodd"/>
		<path id="形状结合" d="M33.1 12.6C34.5 11.79 36.8 11.79 38.2 12.6L54.8 21.79C56.3 22.7 57.39 24.5 57.39 26.2L57.39 45.79C57.39 47.39 56.2 49.39 54.8 50.2L38.2 59.39C37.5 59.79 36.6 60.1 35.7 60.1C34.8 60.1 33.89 59.89 33.2 59.39L16.6 50.2C15.1 49.29 14 47.5 14 45.79L14 26.2C14 24.6 15.1 22.7 16.6 21.79L33.1 12.6ZM21.89 28.2C21.6 27.7 21 27.5 20.5 27.79C20 28.1 19.79 28.7 20.1 29.2L30.6 47.79C32.3 50.79 36 51.79 39 50.1C40 49.5 40.7 48.7 41.3 47.79L45.39 40.5C45.7 40 45.5 39.39 45 39.1C44.5 38.79 43.89 39 43.6 39.5L39.5 46.79C39.1 47.5 38.6 48 37.89 48.39C35.89 49.5 33.39 48.79 32.2 46.79L21.89 28.2ZM24.1 25.89C23.8 25.39 23.2 25.2 22.7 25.5C22.2 25.79 22 26.39 22.3 26.89L32.7 45.6C33.7 47.39 36 48 37.7 47C38.3 46.7 38.8 46.2 39.1 45.6L45.1 34.7C45.39 34.2 45.2 33.6 44.7 33.29C44.2 33 43.6 33.2 43.3 33.7L37.3 44.6C37.1 44.89 36.89 45.1 36.6 45.29C35.8 45.79 34.8 45.5 34.3 44.6L24.1 25.89ZM26.3 23.5C26 23 25.39 22.79 24.89 23.1C24.39 23.39 24.2 24 24.5 24.5L35.1 43.39C35.5 44.1 36.5 44.1 36.8 43.39L45.1 28.39C45.39 27.89 45.2 27.29 44.7 27C44.2 26.79 43.7 27 43.39 27.39L36 40.79L26.3 23.5ZM47.2 35.39C46.7 35.1 46.1 35.29 45.8 35.79L44.8 37.5C44.5 38 44.7 38.6 45.2 38.89C45.7 39.2 46.3 39 46.6 38.5L47.6 36.79C47.89 36.29 47.7 35.7 47.2 35.39ZM49.3 31.7C48.8 31.39 48.2 31.6 47.89 32.1L46.89 33.79C46.6 34.29 46.8 34.89 47.3 35.2C47.8 35.5 48.39 35.29 48.7 34.79L49.7 33.1C50 32.5 49.8 31.89 49.3 31.7ZM47 29.39C46.5 29.1 45.89 29.29 45.6 29.79L44.7 31.39C44.39 31.89 44.6 32.5 45.1 32.79C45.6 33.1 46.2 32.89 46.5 32.39L47.39 30.79C47.7 30.29 47.5 29.7 47 29.39ZM51.5 27.89C51 27.6 50.39 27.79 50.1 28.29L49.1 30.1C48.8 30.6 49 31.2 49.5 31.5C50 31.79 50.6 31.6 50.89 31.1L51.89 29.29C52.1 28.7 52 28.1 51.5 27.89ZM49.2 25.5C48.7 25.2 48.1 25.39 47.8 25.89L46.8 27.79C46.5 28.29 46.7 28.89 47.2 29.2C47.7 29.5 48.3 29.29 48.6 28.79L49.6 26.89C49.8 26.39 49.7 25.7 49.2 25.5ZM46.89 23.1C46.39 22.79 45.8 23 45.5 23.5L44.39 25.39C44.1 25.89 44.3 26.5 44.8 26.79C45.3 27.1 45.89 26.89 46.2 26.39L47.3 24.5C47.6 24 47.39 23.39 46.89 23.1Z" fill="#FFFFFF" fill-opacity="1.000000" fill-rule="evenodd"/>
	</g>
</svg>
