<svg width="72.000000" height="72.000000" viewBox="0 0 72 72" fill="none" xmlns="http://www.w3.org/2000/svg" xmlns:xlink="http://www.w3.org/1999/xlink">
	<desc>
			Created with Pixso.
	</desc>
	<defs>
		<clipPath id="clip117_270">
			<rect id="6#IoT边缘-IoTEdge" width="72.000000" height="72.000000" fill="white" fill-opacity="0"/>
		</clipPath>
	</defs>
	<g clip-path="url(#clip117_270)">
		<path id="矩形备份-19" d="M16 0L56 0C64.8 0 72 7.2 72 16L72 56C72 64.79 64.8 72 56 72L16 72C7.19 72 0 64.79 0 56L0 16C0 7.2 7.19 0 16 0Z" fill="#9F53E6" fill-opacity="1.000000" fill-rule="evenodd"/>
		<path id="形状结合" d="M39.99 13.06L40.32 13.28L53.55 20.93C56.28 22.46 57.92 25.41 57.92 28.47L57.92 43.66C57.92 46.83 56.28 49.67 53.55 51.2L40.32 58.85C37.59 60.38 34.31 60.38 31.58 58.85L18.34 51.21C15.61 49.68 13.97 46.73 13.97 43.67L13.97 28.37C13.97 25.31 15.5 22.55 18.07 20.99L31.57 13.18C34.19 11.64 37.36 11.64 39.99 13.06ZM35.97 19.01C34.31 19.01 32.97 20.35 32.97 22.01C32.97 23.32 33.81 24.43 34.98 24.84L35 28.28L28.88 31.88C28.27 32.24 27.9 32.89 27.9 33.59L27.9 40.71L24.99 42.39C24.45 41.91 23.75 41.61 22.97 41.61C21.31 41.61 19.97 42.95 19.97 44.61C19.97 46.27 21.31 47.61 22.97 47.61C24.63 47.61 25.97 46.27 25.97 44.61C25.97 44.45 25.96 44.3 25.93 44.15L28.95 42.44L35.01 45.9C35.62 46.25 36.38 46.25 36.99 45.89L43.01 42.41L46.01 44.15C45.98 44.29 45.97 44.45 45.97 44.61C45.97 46.27 47.31 47.61 48.97 47.61C50.63 47.61 51.97 46.27 51.97 44.61C51.97 42.95 50.63 41.61 48.97 41.61C48.2 41.61 47.49 41.9 46.96 42.38L44 40.62L44 33.58C44 32.88 43.63 32.23 43.03 31.87L37.01 28.29L36.97 24.84C38.13 24.43 38.97 23.32 38.97 22.01C38.97 20.35 37.63 19.01 35.97 19.01ZM22.97 43.61C23.52 43.61 23.97 44.06 23.97 44.61C23.97 45.16 23.52 45.61 22.97 45.61C22.42 45.61 21.97 45.16 21.97 44.61C21.97 44.06 22.42 43.61 22.97 43.61ZM48.97 43.61C49.52 43.61 49.97 44.06 49.97 44.61C49.97 45.16 49.52 45.61 48.97 45.61C48.42 45.61 47.97 45.16 47.97 44.61C47.97 44.06 48.42 43.61 48.97 43.61ZM35.83 33.48C37.02 33.48 38.01 34.08 38.45 35.06L38.62 35.44L39.03 35.48L39.23 35.51C40.22 35.7 40.94 36.52 40.94 37.49C40.94 38.59 40.07 39.5 38.95 39.5L32.42 39.5L32.26 39.49C31.58 39.4 31 38.76 31 38.06C31 37.41 31.6 36.71 32.24 36.62L32.75 36.55L32.84 36.03L32.89 35.81C33.21 34.5 34.45 33.48 35.83 33.48ZM35.97 21.01C36.52 21.01 36.97 21.46 36.97 22.01C36.97 22.56 36.52 23.01 35.97 23.01C35.42 23.01 34.97 22.56 34.97 22.01C34.97 21.46 35.42 21.01 35.97 21.01Z" fill="#FFFFFF" fill-opacity="1.000000" fill-rule="nonzero"/>
	</g>
</svg>
