<svg width="72.000000" height="72.000000" viewBox="0 0 72 72" fill="none" xmlns="http://www.w3.org/2000/svg" xmlns:xlink="http://www.w3.org/1999/xlink">
	<desc>
			Created with Pixso.
	</desc>
	<defs>
		<clipPath id="clip117_269">
			<rect id="7#设备管理-IoTDM" width="72.000000" height="72.000000" fill="white" fill-opacity="0"/>
		</clipPath>
	</defs>
	<g clip-path="url(#clip117_269)">
		<path id="矩形备份-19" d="M16 0L56 0C64.8 0 72 7.2 72 16L72 56C72 64.79 64.8 72 56 72L16 72C7.19 72 0 64.79 0 56L0 16C0 7.2 7.19 0 16 0Z" fill="#F85835" fill-opacity="1.000000" fill-rule="evenodd"/>
		<path id="形状结合" d="M40 13L40.29 13.2L53.5 20.8C56.2 22.4 57.89 25.3 57.89 28.4L57.89 43.6C57.89 46.7 56.2 49.6 53.5 51.2L40.29 58.8C37.59 60.4 34.29 60.4 31.5 58.8L18.29 51.2C15.59 49.6 13.89 46.7 13.89 43.6L13.89 28.4C13.89 25.3 15.59 22.4 18.29 20.8L31.5 13.2C34.2 11.7 37.39 11.6 40 13ZM26.09 25C24.2 25 22.7 26.5 22.7 28.4C22.7 30.3 24.2 31.8 26.09 31.8C27.59 31.8 28.89 30.8 29.29 29.4L43.09 29.4C44.59 29.4 45.89 30.6 45.89 32.2C45.89 33.8 44.59 35 43.09 35L28.79 35C26.09 35 24 37.2 24 39.8C24 42.5 26.2 44.6 28.79 44.6L42.59 44.6C43 46 44.29 46.9 45.79 46.9C47.7 46.9 49.2 45.4 49.2 43.5C49.2 41.6 47.7 40.1 45.79 40.1C44.29 40.1 43 41.1 42.59 42.5L28.79 42.5C27.2 42.5 26 41.2 26 39.7C26 38.1 27.29 36.9 28.79 36.9L43.2 37C45.89 37 48 34.8 48 32.2L48 32C47.89 29.4 45.79 27.4 43.2 27.4L29.39 27.4C28.89 26 27.59 25 26.09 25ZM45.89 42.2C46.7 42.2 47.29 42.8 47.29 43.6C47.29 44.4 46.59 45 45.89 45C45.2 45 44.5 44.4 44.5 43.6C44.5 42.8 45.09 42.2 45.89 42.2ZM26.09 27C26.89 27 27.5 27.6 27.5 28.4C27.5 29.2 26.89 29.8 26.09 29.8C25.29 29.8 24.7 29.2 24.7 28.4C24.7 27.6 25.39 27 26.09 27Z" fill="#FFFFFF" fill-opacity="1.000000" fill-rule="nonzero"/>
	</g>
</svg>
