<svg width="72.000000" height="72.000000" viewBox="0 0 72 72" fill="none" xmlns="http://www.w3.org/2000/svg" xmlns:xlink="http://www.w3.org/1999/xlink">
	<desc>
			Created with Pixso.
	</desc>
	<defs>
		<clipPath id="clip117_267">
			<rect id="8#IoT云通信-IoTCom" width="72.000000" height="72.000000" fill="white" fill-opacity="0"/>
		</clipPath>
	</defs>
	<g clip-path="url(#clip117_267)">
		<path id="矩形备份-19" d="M16 0L56 0C64.8 0 72 7.2 72 16L72 56C72 64.79 64.8 72 56 72L16 72C7.19 72 0 64.79 0 56L0 16C0 7.2 7.19 0 16 0Z" fill="#1476FF" fill-opacity="1.000000" fill-rule="evenodd"/>
		<path id="形状结合" d="M40 13L40.29 13.2L53.5 20.8C56.2 22.4 57.89 25.3 57.89 28.4L57.89 43.6C57.89 46.7 56.2 49.6 53.5 51.2L40.29 58.8C37.59 60.4 34.29 60.4 31.5 58.8L18.29 51.2C15.59 49.6 13.89 46.7 13.89 43.6L13.89 28.4C13.89 25.3 15.59 22.4 18.29 20.8L31.5 13.2C34.2 11.7 37.39 11.6 40 13ZM50 31.8L36.29 37.7C36.09 37.7 35.89 37.7 35.7 37.7L22 31.8L22 42C22 43.1 22.89 44 24 44L48 44C49.09 44 50 43.1 50 42L50 31.8ZM48 28L24 28C22.89 28 22 28.9 22 30L22 30.2C22.09 30.2 22.2 30.2 22.29 30.3L36 36.2L49.7 30.3C49.79 30.3 49.89 30.2 50 30.2L50 30C50 28.9 49.09 28 48 28Z" fill="#FFFFFF" fill-opacity="1.000000" fill-rule="nonzero"/>
	</g>
</svg>
