<svg width="72.000000" height="72.000000" viewBox="0 0 72 72" fill="none" xmlns="http://www.w3.org/2000/svg" xmlns:xlink="http://www.w3.org/1999/xlink">
	<desc>
			Created with Pixso.
	</desc>
	<defs>
		<clipPath id="clip117_263">
			<rect id="9#轻量级操作系统-LiteOS" width="72.000000" height="72.000000" fill="white" fill-opacity="0"/>
		</clipPath>
	</defs>
	<g clip-path="url(#clip117_263)">
		<path id="矩形备份-19" d="M16 0L56 0C64.8 0 72 7.2 72 16L72 56C72 64.79 64.8 72 56 72L16 72C7.19 72 0 64.79 0 56L0 16C0 7.2 7.19 0 16 0Z" fill="#00C4BE" fill-opacity="1.000000" fill-rule="evenodd"/>
		<path id="形状结合" d="M39.99 13.01L40.28 13.17L53.48 20.79C56.18 22.35 57.85 25.25 57.85 28.38L57.85 43.62C57.85 46.75 56.18 49.64 53.48 51.21L40.28 58.83C37.56 60.39 34.23 60.39 31.52 58.83L18.31 51.21C15.6 49.64 13.93 46.75 13.93 43.62L13.93 28.38C13.93 25.25 15.6 22.36 18.31 20.79L31.52 13.17C34.12 11.66 37.32 11.61 39.99 13.01ZM45.93 45.5L25.93 45.5C25.38 45.5 24.93 45.95 24.93 46.5C24.93 47.05 25.38 47.5 25.93 47.5L45.93 47.5C46.49 47.5 46.93 47.05 46.93 46.5C46.93 45.95 46.49 45.5 45.93 45.5ZM47.93 26L23.93 26C22.83 26 21.93 26.9 21.93 28L21.93 40C21.93 41.1 22.83 42 23.93 42L47.93 42C49.04 42 49.93 41.1 49.93 40L49.93 28C49.93 26.9 49.04 26 47.93 26ZM31.62 28.52C32.81 28.52 33.81 29 34.58 29.96C35.36 30.92 35.77 32.28 35.77 34.05C35.77 36.19 35.34 37.71 34.5 38.59C33.64 39.47 32.7 39.92 31.62 39.92C30.52 39.92 29.55 39.46 28.73 38.55C27.9 37.64 27.5 36.19 27.5 34.22C27.5 32.3 27.89 30.87 28.68 29.93C29.48 28.99 30.46 28.52 31.62 28.52ZM40.37 28.52C41.42 28.52 42.25 28.78 42.83 29.29C43.41 29.8 43.77 30.56 43.88 31.58L42.42 31.83L42.39 31.64C42.31 31.14 42.12 30.76 41.83 30.49C41.52 30.19 41.06 30.04 40.49 30.04C39.91 30.04 39.46 30.16 39.1 30.4C38.75 30.64 38.57 30.99 38.57 31.45C38.57 31.88 38.72 32.19 39 32.37C39.28 32.55 39.82 32.78 40.65 33.05C41.58 33.34 42.29 33.6 42.75 33.83C43.21 34.06 43.56 34.37 43.82 34.78C44.08 35.19 44.22 35.75 44.22 36.48C44.22 37.45 43.89 38.27 43.26 38.93C42.61 39.59 41.76 39.93 40.67 39.93C39.56 39.93 38.68 39.64 38.06 39.05C37.42 38.46 37.04 37.59 36.89 36.42L38.38 36.14L38.41 36.39C38.52 37.03 38.74 37.51 39.06 37.85C39.45 38.23 39.98 38.41 40.65 38.41C41.31 38.41 41.81 38.24 42.15 37.9C42.5 37.56 42.67 37.15 42.67 36.66C42.67 36.33 42.59 36.07 42.43 35.87C42.28 35.67 42.07 35.52 41.83 35.42C41.59 35.32 41.06 35.14 40.22 34.89C38.97 34.52 38.13 34.07 37.74 33.54C37.33 33.01 37.13 32.38 37.13 31.65C37.13 30.74 37.42 29.99 38.02 29.4C38.59 28.82 39.38 28.52 40.37 28.52ZM31.62 30.03C30.86 30.03 30.25 30.38 29.76 31.08C29.27 31.78 29.03 32.83 29.03 34.22C29.03 35.6 29.28 36.65 29.77 37.35C30.27 38.05 30.87 38.4 31.62 38.4C32.48 38.4 33.12 38.01 33.56 37.23C34 36.45 34.23 35.42 34.23 34.15C34.23 32.79 33.98 31.76 33.48 31.07C32.99 30.38 32.36 30.03 31.62 30.03Z" fill="#FFFFFF" fill-opacity="1.000000" fill-rule="nonzero"/>
	</g>
</svg>
