<svg width="72.000000" height="72.000000" viewBox="0 0 72 72" fill="none" xmlns="http://www.w3.org/2000/svg" xmlns:xlink="http://www.w3.org/1999/xlink">
	<desc>
			Created with Pixso.
	</desc>
	<defs>
		<clipPath id="clip117_1275">
			<rect id="1#BAR300" width="72.000000" height="72.000000" fill="white" fill-opacity="0"/>
		</clipPath>
	</defs>
	<g clip-path="url(#clip117_1275)">
		<path id="矩形备份-19" d="M16 0L56 0C64.8 0 72 7.2 72 16L72 56C72 64.8 64.8 72 56 72L16 72C7.2 72 0 64.8 0 56L0 16C0 7.2 7.2 0 16 0Z" fill="#1476FF" fill-opacity="1.000000" fill-rule="evenodd"/>
		<path id="path" d="M52.5 29.26C52.5 27.96 52.35 26.68 52.05 25.42C51.75 24.16 51.31 22.95 50.72 21.79C50.13 20.63 49.42 19.56 48.58 18.57C47.75 17.58 46.8 16.7 45.76 15.93C44.71 15.17 43.59 14.53 42.4 14.03C41.2 13.52 39.97 13.17 38.69 12.95C37.41 12.74 36.12 12.68 34.83 12.78C33.53 12.87 32.27 13.11 31.03 13.5C29.79 13.89 28.62 14.42 27.51 15.08C26.39 15.75 25.38 16.54 24.45 17.45C23.52 18.35 22.71 19.36 22.02 20.45C21.33 21.55 20.78 22.72 20.37 23.94C19.95 25.17 19.68 26.43 19.56 27.72C19.45 29.02 19.48 30.3 19.66 31.59C19.85 32.87 20.18 34.12 20.66 35.32C21.14 36.53 21.75 37.66 22.5 38.72L22.5 53.06C22.5 54.77 23.1 56.23 24.3 57.44C25.51 58.64 26.97 59.25 28.68 59.26L43.32 59.26C45.02 59.25 46.48 58.64 47.69 57.44C48.89 56.23 49.5 54.77 49.5 53.06L49.5 38.72C51.5 35.88 52.5 32.73 52.5 29.26ZM36 19.97C37.23 19.97 38.41 20.21 39.55 20.68C40.69 21.15 41.69 21.82 42.56 22.69C43.43 23.56 44.1 24.56 44.57 25.7C45.04 26.84 45.28 28.02 45.28 29.26C45.28 30.49 45.04 31.67 44.57 32.81C44.1 33.95 43.43 34.95 42.56 35.82C41.69 36.69 40.69 37.36 39.55 37.83C38.41 38.31 37.23 38.54 36 38.54C34.76 38.54 33.58 38.31 32.44 37.83C31.3 37.36 30.3 36.69 29.43 35.82C28.56 34.95 27.89 33.95 27.42 32.81C26.95 31.67 26.71 30.49 26.71 29.26C26.71 28.02 26.95 26.84 27.42 25.7C27.89 24.56 28.56 23.56 29.43 22.69C30.3 21.82 31.3 21.15 32.44 20.68C33.58 20.21 34.76 19.97 36 19.97ZM43.03 53.26L28.96 53.26C28.12 53.26 27.41 52.97 26.81 52.38C26.21 51.8 25.89 51.09 25.87 50.26L25.87 42.31C27.31 43.44 28.9 44.3 30.64 44.9C32.37 45.5 34.16 45.8 36 45.8C37.83 45.8 39.62 45.5 41.35 44.9C43.09 44.3 44.68 43.44 46.12 42.31L46.12 50.26C46.1 51.09 45.78 51.8 45.18 52.38C44.58 52.97 43.87 53.26 43.03 53.26ZM31.5 29.26C31.5 28.01 31.93 26.95 32.81 26.07C33.69 25.2 34.75 24.76 36 24.76C37.24 24.76 38.3 25.2 39.18 26.07C40.06 26.95 40.5 28.01 40.5 29.26C40.5 30.5 40.06 31.56 39.18 32.44C38.3 33.32 37.24 33.76 36 33.76C34.75 33.76 33.69 33.32 32.81 32.44C31.93 31.56 31.5 30.5 31.5 29.26Z" fill="#FFFFFF" fill-opacity="1.000000" fill-rule="evenodd"/>
	</g>
</svg>
