<svg width="72.000000" height="72.000000" viewBox="0 0 72 72" fill="none" xmlns="http://www.w3.org/2000/svg" xmlns:xlink="http://www.w3.org/1999/xlink">
	<desc>
			Created with Pixso.
	</desc>
	<defs>
		<clipPath id="clip117_1284">
			<rect id="10#网络研讨会-Webinars" width="72.000000" height="72.000000" fill="white" fill-opacity="0"/>
		</clipPath>
	</defs>
	<g clip-path="url(#clip117_1284)">
		<path id="矩形备份-19" d="M16 0L56 0C64.8 0 72 7.2 72 16L72 56C72 64.8 64.8 72 56 72L16 72C7.2 72 0 64.8 0 56L0 16C0 7.2 7.2 0 16 0Z" fill="#1476FF" fill-opacity="1.000000" fill-rule="evenodd"/>
		<path id="path" d="M55.5 18L55.5 24C55.5 24.82 55.2 25.53 54.62 26.12C54.03 26.7 53.32 27 52.5 27L46.5 27C45.67 27 44.96 26.7 44.37 26.12C43.79 25.53 43.5 24.82 43.5 24L43.5 18C43.5 17.17 43.79 16.46 44.37 15.87C44.96 15.29 45.67 15 46.5 15L52.5 15C53.32 15 54.03 15.29 54.62 15.87C55.2 16.46 55.5 17.17 55.5 18ZM52.5 30L46.5 30C45.67 30 44.96 30.29 44.37 30.87C43.79 31.46 43.5 32.17 43.5 33L43.5 39C43.5 39.82 43.79 40.53 44.37 41.12C44.96 41.7 45.67 42 46.5 42L52.5 42C53.32 42 54.03 41.7 54.62 41.12C55.2 40.53 55.5 39.82 55.5 39L55.5 33C55.5 32.17 55.2 31.46 54.62 30.87C54.03 30.29 53.32 30 52.5 30ZM52.5 45L46.5 45C45.67 45 44.96 45.29 44.37 45.87C43.79 46.46 43.5 47.17 43.5 48L43.5 54C43.5 54.82 43.79 55.53 44.37 56.12C44.96 56.7 45.67 57 46.5 57L52.5 57C53.32 57 54.03 56.7 54.62 56.12C55.2 55.53 55.5 54.82 55.5 54L55.5 48C55.5 47.17 55.2 46.46 54.62 45.87C54.03 45.29 53.32 45 52.5 45ZM37.5 15L19.5 15C18.67 15 17.96 15.29 17.37 15.87C16.79 16.46 16.5 17.17 16.5 18L16.5 54C16.5 54.82 16.79 55.53 17.37 56.12C17.96 56.7 18.67 57 19.5 57L37.5 57C38.32 57 39.03 56.7 39.62 56.12C40.2 55.53 40.5 54.82 40.5 54L40.5 18C40.5 17.17 40.2 16.46 39.62 15.87C39.03 15.29 38.32 15 37.5 15Z" fill="#FFFFFF" fill-opacity="1.000000" fill-rule="nonzero"/>
	</g>
</svg>
