<svg width="72.000000" height="72.000000" viewBox="0 0 72 72" fill="none" xmlns="http://www.w3.org/2000/svg" xmlns:xlink="http://www.w3.org/1999/xlink">
	<desc>
			Created with Pixso.
	</desc>
	<defs>
		<clipPath id="clip117_1285">
			<rect id="11#用户账号-User-account" width="72.000000" height="72.000000" fill="white" fill-opacity="0"/>
		</clipPath>
	</defs>
	<g clip-path="url(#clip117_1285)">
		<path id="矩形备份-19" d="M16 0L56 0C64.8 0 72 7.2 72 16L72 56C72 64.8 64.8 72 56 72L16 72C7.2 72 0 64.8 0 56L0 16C0 7.2 7.2 0 16 0Z" fill="#1476FF" fill-opacity="1.000000" fill-rule="evenodd"/>
		<path id="path" d="M41.13 41.45C41.03 40.41 40.99 39.38 41.03 38.34C41.73 37.95 44.27 35.61 44.48 33.66C45.03 33.66 45.98 33.08 46.2 30.93C46.41 30.08 46.16 29.4 45.44 28.89C46.35 26.21 46.76 17.82 40.37 17C39.71 15.93 38.04 15.35 35.87 15.35C27.15 15.48 24.57 21.77 26.49 28.94C25.8 29.44 25.55 30.1 25.74 30.93C26 33.08 26.9 33.62 27.47 33.66C27.66 35.66 30.2 38 30.9 38.34C30.95 39.38 30.92 40.41 30.81 41.45C29.31 45.18 21.3 43.53 18.32 48.54C17.78 50.31 17.48 52.12 17.42 53.97C17.36 54.7 17.58 55.32 18.08 55.86C18.57 56.39 19.18 56.65 19.91 56.64L52.1 56.64C52.81 56.65 53.41 56.39 53.9 55.88C54.39 55.36 54.62 54.74 54.57 54.03C54.53 52.22 54.28 50.44 53.82 48.69C51.03 43.43 42.59 45.27 41.13 41.45Z" fill="#FFFFFF" fill-opacity="1.000000" fill-rule="evenodd"/>
	</g>
</svg>
