<svg width="72.000031" height="72.000000" viewBox="0 0 72 72" fill="none" xmlns="http://www.w3.org/2000/svg" xmlns:xlink="http://www.w3.org/1999/xlink">
	<desc>
			Created with Pixso.
	</desc>
	<defs>
		<clipPath id="clip117_1286">
			<rect id="12#会议室并发资源-conference-resources" width="72.000000" height="72.000000" fill="white" fill-opacity="0"/>
		</clipPath>
	</defs>
	<g clip-path="url(#clip117_1286)">
		<path id="矩形备份-19" d="M16 0L56 0C64.8 0 72 7.2 72 16L72 56C72 64.8 64.8 72 56 72L16 72C7.2 72 0 64.8 0 56L0 16C0 7.2 7.2 0 16 0Z" fill="#1476FF" fill-opacity="1.000000" fill-rule="evenodd"/>
		<path id="矢量_224" d="M34.5 12C34.5 11 35 10.5 36 10.5C37 10.5 37.5 11 37.5 12L37.5 15C40.02 15.17 42.44 15.78 44.75 16.83C47.05 17.88 49.1 19.3 50.89 21.1C52.69 22.89 54.11 24.94 55.16 27.24C56.21 29.55 56.82 31.97 57 34.5L60 34.5C61 34.5 61.5 35 61.5 36C61.5 37 61 37.5 60 37.5L57 37.5C56.82 40.02 56.21 42.44 55.16 44.75C54.11 47.05 52.69 49.1 50.89 50.89C49.1 52.69 47.05 54.11 44.75 55.16C42.44 56.21 40.02 56.82 37.5 57L37.5 60C37.5 61 37 61.5 36 61.5C35 61.5 34.5 61 34.5 60L34.5 57C31.97 56.82 29.55 56.21 27.24 55.16C24.94 54.11 22.89 52.69 21.1 50.89C19.3 49.1 17.88 47.05 16.83 44.75C15.78 42.44 15.17 40.02 15 37.5L12 37.5C11 37.5 10.5 37 10.5 36C10.5 35 11 34.5 12 34.5L15 34.5C15.17 31.97 15.78 29.55 16.83 27.24C17.88 24.94 19.3 22.89 21.1 21.1C22.89 19.3 24.94 17.88 27.24 16.83C29.55 15.78 31.97 15.17 34.5 15L34.5 12ZM53.76 36C53.76 38.35 53.3 40.62 52.4 42.8C51.5 44.98 50.21 46.9 48.55 48.57C46.88 50.23 44.96 51.52 42.78 52.42C40.6 53.32 38.33 53.77 35.98 53.77C33.62 53.77 31.35 53.32 29.17 52.41C26.99 51.51 25.07 50.23 23.41 48.56C21.74 46.89 20.46 44.97 19.55 42.79C18.65 40.61 18.2 38.34 18.2 35.99C18.21 33.63 18.66 31.36 19.56 29.18C20.47 27 21.75 25.08 23.42 23.42C25.09 21.75 27.01 20.47 29.19 19.57C31.37 18.67 33.64 18.22 36 18.22C38.35 18.22 40.62 18.67 42.79 19.58C44.97 20.48 46.89 21.76 48.55 23.43C50.22 25.1 51.5 27.02 52.4 29.2C53.3 31.37 53.76 33.64 53.76 36ZM25.71 28.39L35.66 24.13C35.88 24.04 36.09 24.04 36.3 24.13L46.26 28.39C46.61 28.51 46.79 28.76 46.79 29.14C46.79 29.52 46.61 29.77 46.26 29.89L36.3 34.16C36.09 34.26 35.88 34.26 35.66 34.16L25.71 29.89C25.35 29.77 25.17 29.52 25.17 29.14C25.17 28.76 25.35 28.51 25.71 28.39ZM24.46 43.06L34.06 47.47C34.33 47.59 34.58 47.57 34.83 47.41C35.07 47.25 35.2 47.03 35.2 46.74L35.2 36.55C35.2 36.21 35.05 35.96 34.74 35.82L25.2 31.42C24.93 31.29 24.67 31.31 24.43 31.46C24.18 31.62 24.05 31.85 24.06 32.14L24.06 42.39C24.06 42.69 24.2 42.91 24.46 43.06ZM36.85 46.74L36.85 36.55C36.85 36.21 37 35.96 37.32 35.82L46.86 31.42C47.12 31.29 47.38 31.31 47.62 31.46C47.87 31.62 48 31.85 48 32.14L48 42.39C47.98 42.72 47.83 42.96 47.53 43.11L37.99 47.52C37.71 47.64 37.45 47.62 37.2 47.44C36.95 47.27 36.83 47.04 36.85 46.74Z" fill="#FFFFFF" fill-opacity="1.000000" fill-rule="evenodd"/>
	</g>
</svg>
