<svg width="72.000000" height="72.000000" viewBox="0 0 72 72" fill="none" xmlns="http://www.w3.org/2000/svg" xmlns:xlink="http://www.w3.org/1999/xlink">
	<desc>
			Created with Pixso.
	</desc>
	<defs>
		<clipPath id="clip117_1276">
			<rect id="2#IdeaHub-IdeaHub" width="72.000000" height="72.000000" fill="white" fill-opacity="0"/>
		</clipPath>
	</defs>
	<g clip-path="url(#clip117_1276)">
		<path id="矩形备份-19" d="M16 0L56 0C64.8 0 72 7.2 72 16L72 56C72 64.8 64.8 72 56 72L16 72C7.2 72 0 64.8 0 56L0 16C0 7.2 7.2 0 16 0Z" fill="#1476FF" fill-opacity="1.000000" fill-rule="evenodd"/>
		<path id="path" d="M58.5 21.36L58.5 42.36C58.5 44.02 57.91 45.43 56.74 46.6C55.57 47.77 54.15 48.36 52.5 48.36L51 48.36L52.29 58.68C52.41 59.68 51.97 60.24 50.97 60.37C49.97 60.49 49.41 60.06 49.29 59.05L48 48.36L24 48.36L22.65 59.05C22.52 60.05 21.96 60.49 20.96 60.37C19.96 60.24 19.52 59.68 19.65 58.68L21 48.36L19.5 48.36C17.84 48.36 16.42 47.77 15.25 46.6C14.08 45.43 13.5 44.02 13.5 42.36L13.5 21.36C13.5 19.7 14.08 18.29 15.25 17.12C16.42 15.95 17.84 15.36 19.5 15.36L30 15.36C30 17.02 30.58 18.43 31.75 19.6C32.92 20.77 34.34 21.36 36 21.36C37.65 21.36 39.07 20.77 40.24 19.6C41.41 18.43 42 17.02 42 15.36L52.5 15.36C54.15 15.36 55.57 15.95 56.74 17.12C57.91 18.29 58.5 19.7 58.5 21.36ZM36 19.11C37.03 19.11 37.91 18.74 38.65 18.01C39.38 17.28 39.75 16.39 39.75 15.36C39.75 14.32 39.38 13.44 38.65 12.71C37.91 11.98 37.03 11.61 36 11.61C34.96 11.61 34.08 11.98 33.34 12.71C32.61 13.44 32.25 14.32 32.25 15.36C32.25 16.39 32.61 17.28 33.34 18.01C34.08 18.74 34.96 19.11 36 19.11Z" fill="#FFFFFF" fill-opacity="1.000000" fill-rule="nonzero"/>
	</g>
</svg>
