<svg width="72.000000" height="72.000000" viewBox="0 0 72 72" fill="none" xmlns="http://www.w3.org/2000/svg" xmlns:xlink="http://www.w3.org/1999/xlink">
	<desc>
			Created with Pixso.
	</desc>
	<defs>
		<clipPath id="clip117_1277">
			<rect id="3#会议宝套餐-MTP" width="72.000000" height="72.000000" fill="white" fill-opacity="0"/>
		</clipPath>
	</defs>
	<g clip-path="url(#clip117_1277)">
		<path id="矩形备份-19" d="M16 0L56 0C64.8 0 72 7.2 72 16L72 56C72 64.8 64.8 72 56 72L16 72C7.2 72 0 64.8 0 56L0 16C0 7.2 7.2 0 16 0Z" fill="#1476FF" fill-opacity="1.000000" fill-rule="evenodd"/>
		<path id="path" d="M32.25 21.37C32.25 20.33 32.61 19.45 33.34 18.72C34.08 17.99 34.96 17.62 36 17.62C37.03 17.62 37.91 17.99 38.65 18.72C39.38 19.45 39.75 20.33 39.75 21.37C39.75 22.41 39.38 23.29 38.65 24.02C37.91 24.75 37.03 25.12 36 25.12C34.96 25.12 34.08 24.75 33.34 24.02C32.61 23.29 32.25 22.41 32.25 21.37ZM38.25 37.12C37.75 37.12 37.5 37.37 37.5 37.87L37.5 39.37L34.5 39.37L34.5 37.87C34.5 37.37 34.25 37.12 33.75 37.12C33.25 37.12 33 37.37 33 37.87L33 39.37C33 40.37 33.5 40.87 34.5 40.87L37.5 40.87C38.5 40.87 39 40.37 39 39.37L39 37.87C39 37.37 38.75 37.12 38.25 37.12ZM58.5 27.37L58.5 48.37C58.5 50.03 57.91 51.44 56.74 52.61C55.57 53.78 54.15 54.37 52.5 54.37L19.5 54.37C17.84 54.37 16.42 53.78 15.25 52.61C14.08 51.44 13.5 50.03 13.5 48.37L13.5 27.37C13.5 25.71 14.08 24.3 15.25 23.13C16.42 21.96 17.84 21.37 19.5 21.37L30 21.37C30 23.03 30.58 24.44 31.75 25.61C32.92 26.78 34.34 27.37 36 27.37C37.65 27.37 39.07 26.78 40.24 25.61C41.41 24.44 42 23.03 42 21.37L52.5 21.37C54.15 21.37 55.57 21.96 56.74 23.13C57.91 24.3 58.5 25.71 58.5 27.37ZM30 33.8L42 33.8C41.99 33.27 41.8 32.81 41.42 32.44C41.04 32.06 40.58 31.87 40.05 31.87L31.93 31.87C31.4 31.87 30.94 32.06 30.56 32.44C30.18 32.81 30 33.27 30 33.8ZM44.88 35.05C44.98 34.4 44.75 33.9 44.2 33.55L43.26 32.95C43.15 32.88 43.05 32.88 42.95 32.94C42.84 33 42.79 33.08 42.79 33.2L42.79 34.6C42.79 34.8 42.69 34.9 42.49 34.9L29.5 34.9C29.3 34.9 29.2 34.8 29.2 34.6L29.2 33.22C29.2 33.1 29.14 33.02 29.04 32.96C28.93 32.91 28.83 32.92 28.74 32.98L27.78 33.59C27.22 33.95 27 34.45 27.1 35.09L28.17 43.52C28.26 44.28 28.59 44.91 29.16 45.42C29.73 45.92 30.4 46.17 31.17 46.16L40.87 46.16C41.63 46.17 42.3 45.92 42.87 45.42C43.45 44.91 43.78 44.28 43.87 43.52L44.88 35.05Z" fill="#FFFFFF" fill-opacity="1.000000" fill-rule="evenodd"/>
	</g>
</svg>
