<svg width="72.000000" height="72.000000" viewBox="0 0 72 72" fill="none" xmlns="http://www.w3.org/2000/svg" xmlns:xlink="http://www.w3.org/1999/xlink">
	<desc>
			Created with Pixso.
	</desc>
	<defs>
		<clipPath id="clip117_1278">
			<rect id="4#SmartRooms套餐-SmartRooms" width="72.000000" height="72.000000" fill="white" fill-opacity="0"/>
		</clipPath>
	</defs>
	<g clip-path="url(#clip117_1278)">
		<path id="矩形备份-19" d="M16 0L56 0C64.8 0 72 7.2 72 16L72 56C72 64.8 64.8 72 56 72L16 72C7.2 72 0 64.8 0 56L0 16C0 7.2 7.2 0 16 0Z" fill="#1476FF" fill-opacity="1.000000" fill-rule="evenodd"/>
		<path id="path" d="M32.25 15.36C32.25 14.32 32.61 13.44 33.34 12.71C34.08 11.98 34.96 11.61 36 11.61C37.03 11.61 37.91 11.98 38.65 12.71C39.38 13.44 39.75 14.32 39.75 15.36C39.75 16.39 39.38 17.28 38.65 18.01C37.91 18.74 37.03 19.11 36 19.11C34.96 19.11 34.08 18.74 33.34 18.01C32.61 17.28 32.25 16.39 32.25 15.36ZM38.25 31.11C37.75 31.11 37.5 31.36 37.5 31.86L37.5 33.36L34.5 33.36L34.5 31.86C34.5 31.36 34.25 31.11 33.75 31.11C33.25 31.11 33 31.36 33 31.86L33 33.36C33 34.36 33.5 34.86 34.5 34.86L37.5 34.86C38.5 34.86 39 34.36 39 33.36L39 31.86C39 31.36 38.75 31.11 38.25 31.11ZM58.5 21.36L58.5 42.36C58.5 44.02 57.91 45.43 56.74 46.6C55.57 47.77 54.15 48.36 52.5 48.36L53.79 58.68C53.91 59.68 53.47 60.24 52.47 60.37C51.47 60.49 50.91 60.06 50.79 59.05L49.5 48.36L22.5 48.36L21.15 59.05C21.02 60.05 20.46 60.49 19.46 60.37C18.46 60.24 18.02 59.68 18.15 58.68L19.5 48.36C17.84 48.36 16.42 47.77 15.25 46.6C14.08 45.43 13.5 44.02 13.5 42.36L13.5 21.36C13.5 19.7 14.08 18.29 15.25 17.12C16.42 15.95 17.84 15.36 19.5 15.36L30 15.36C30 17.02 30.58 18.43 31.75 19.6C32.92 20.77 34.34 21.36 36 21.36C37.65 21.36 39.07 20.77 40.24 19.6C41.41 18.43 42 17.02 42 15.36L52.5 15.36C54.15 15.36 55.57 15.95 56.74 17.12C57.91 18.29 58.5 19.7 58.5 21.36ZM30 27.79L42 27.79C41.99 27.26 41.8 26.8 41.42 26.43C41.04 26.05 40.58 25.86 40.05 25.86L31.93 25.86C31.4 25.86 30.94 26.05 30.56 26.43C30.18 26.8 30 27.26 30 27.79ZM44.88 29.04C44.98 28.39 44.75 27.89 44.2 27.54L43.26 26.94C43.15 26.87 43.05 26.87 42.95 26.93C42.84 26.98 42.79 27.07 42.79 27.19L42.79 28.59C42.79 28.79 42.69 28.89 42.49 28.89L29.5 28.89C29.3 28.89 29.2 28.79 29.2 28.59L29.2 27.21C29.2 27.09 29.14 27.01 29.04 26.95C28.93 26.9 28.83 26.9 28.74 26.97L27.78 27.58C27.22 27.94 27 28.44 27.1 29.08L28.17 37.51C28.26 38.27 28.59 38.9 29.16 39.41C29.73 39.91 30.4 40.16 31.17 40.15L40.87 40.15C41.63 40.16 42.3 39.91 42.87 39.41C43.45 38.9 43.78 38.27 43.87 37.51L44.88 29.04Z" fill="#FFFFFF" fill-opacity="1.000000" fill-rule="nonzero"/>
	</g>
</svg>
