<svg width="72.000000" height="72.000000" viewBox="0 0 72 72" fill="none" xmlns="http://www.w3.org/2000/svg" xmlns:xlink="http://www.w3.org/1999/xlink">
	<desc>
			Created with Pixso.
	</desc>
	<defs>
		<clipPath id="clip117_1279">
			<rect id="5#硬件接入账号-HAA" width="72.000000" height="72.000000" fill="white" fill-opacity="0"/>
		</clipPath>
	</defs>
	<g clip-path="url(#clip117_1279)">
		<path id="矩形备份-19" d="M16 0L56 0C64.8 0 72 7.2 72 16L72 56C72 64.8 64.8 72 56 72L16 72C7.2 72 0 64.8 0 56L0 16C0 7.2 7.2 0 16 0Z" fill="#1476FF" fill-opacity="1.000000" fill-rule="evenodd"/>
		<path id="path" d="M55.5 15.36L42 15.36C42 17.02 41.41 18.43 40.24 19.6C39.07 20.77 37.65 21.36 36 21.36C34.34 21.36 32.92 20.77 31.75 19.6C30.58 18.43 30 17.02 30 15.36L16.5 15.36C15.67 15.36 14.96 15.65 14.37 16.24C13.79 16.82 13.5 17.53 13.5 18.36L13.5 45.36C13.5 46.19 13.79 46.9 14.37 47.48C14.96 48.07 15.67 48.36 16.5 48.36L19.5 48.36L18.19 58.68C18.07 59.68 18.5 60.24 19.5 60.37C20.5 60.49 21.07 60.05 21.19 59.05L22.5 48.36L49.5 48.36L50.83 59.05C50.95 60.06 51.52 60.49 52.52 60.37C53.52 60.24 53.96 59.68 53.83 58.68L52.5 48.36L55.5 48.36C56.32 48.36 57.03 48.07 57.62 47.48C58.2 46.9 58.5 46.19 58.5 45.36L58.5 18.36C58.5 17.53 58.2 16.82 57.62 16.24C57.03 15.65 56.32 15.36 55.5 15.36ZM32.62 29.53C32.62 28.6 32.95 27.81 33.61 27.15C34.27 26.49 35.06 26.16 36 26.16C36.93 26.16 37.72 26.49 38.38 27.15C39.04 27.81 39.37 28.6 39.37 29.53L39.37 30.36C39.37 31.29 39.04 32.09 38.38 32.75C37.72 33.41 36.93 33.73 36 33.73C35.06 33.73 34.27 33.41 33.61 32.75C32.95 32.09 32.62 31.29 32.62 30.36L32.62 29.53ZM42.75 40.44C42.75 41.25 39.75 41.94 36 41.94C32.25 41.94 29.38 41.32 29.25 40.54L29.25 37.09C29.25 36.39 29.49 35.8 29.99 35.3C30.48 34.81 31.08 34.56 31.78 34.56L40.21 34.56C40.91 34.56 41.51 34.81 42 35.3C42.5 35.8 42.75 36.39 42.75 37.09L42.75 40.44ZM32.25 15.36C32.25 14.32 32.61 13.44 33.34 12.71C34.08 11.98 34.96 11.61 36 11.61C37.03 11.61 37.91 11.98 38.65 12.71C39.38 13.44 39.75 14.32 39.75 15.36C39.75 16.4 39.38 17.28 38.65 18.01C37.91 18.74 37.03 19.11 36 19.11C34.96 19.11 34.08 18.74 33.34 18.01C32.61 17.28 32.25 16.4 32.25 15.36Z" fill="#FFFFFF" fill-opacity="1.000000" fill-rule="nonzero"/>
	</g>
</svg>
