<svg width="72.000000" height="72.000000" viewBox="0 0 72 72" fill="none" xmlns="http://www.w3.org/2000/svg" xmlns:xlink="http://www.w3.org/1999/xlink">
	<desc>
			Created with Pixso.
	</desc>
	<defs>
		<clipPath id="clip117_1280">
			<rect id="6#云会议室-CMR" width="72.000000" height="72.000000" fill="white" fill-opacity="0"/>
		</clipPath>
	</defs>
	<g clip-path="url(#clip117_1280)">
		<path id="矩形备份-19" d="M16 0L56 0C64.8 0 72 7.2 72 16L72 56C72 64.8 64.8 72 56 72L16 72C7.2 72 0 64.8 0 56L0 16C0 7.2 7.2 0 16 0Z" fill="#1476FF" fill-opacity="1.000000" fill-rule="evenodd"/>
		<path id="path" d="M51 55.5C51 56.5 50.5 57 49.5 57L22.5 57C21.5 57 21 56.5 21 55.5C21 54.5 21.5 54 22.5 54L49.5 54C50.5 54 51 54.5 51 55.5ZM58.5 21L58.5 42C58.5 43.65 57.91 45.07 56.74 46.24C55.57 47.41 54.15 48 52.5 48L19.5 48C17.84 48 16.42 47.41 15.25 46.24C14.08 45.07 13.5 43.65 13.5 42L13.5 21C13.5 19.34 14.08 17.92 15.25 16.75C16.42 15.58 17.84 15 19.5 15L52.5 15C54.15 15 55.57 15.58 56.74 16.75C57.91 17.92 58.5 19.34 58.5 21ZM46.5 26.62C46.49 26.37 46.38 26.18 46.16 26.05C45.94 25.92 45.72 25.92 45.51 26.05L41.91 28.14L41.91 26.64C41.91 26.09 41.71 25.62 41.32 25.24C40.94 24.86 40.47 24.67 39.93 24.67L27.46 24.67C26.93 24.67 26.47 24.85 26.09 25.22C25.71 25.59 25.51 26.04 25.5 26.58L25.5 36.41C25.5 36.96 25.69 37.42 26.07 37.8C26.45 38.19 26.92 38.38 27.46 38.38L39.93 38.38C40.47 38.38 40.94 38.19 41.32 37.81C41.71 37.43 41.91 36.96 41.91 36.41L41.91 34.2L45.51 36.28C45.72 36.41 45.94 36.41 46.16 36.28C46.38 36.15 46.49 35.96 46.5 35.71L46.5 26.62ZM39.93 25.92L37.32 25.92C36.88 25.92 36.66 26.14 36.66 26.58C36.66 27.02 36.88 27.24 37.32 27.24L39.93 27.24C40.37 27.24 40.59 27.02 40.59 26.58C40.59 26.14 40.37 25.92 39.93 25.92Z" fill="#FFFFFF" fill-opacity="1.000000" fill-rule="nonzero"/>
	</g>
</svg>
