<svg width="72.000000" height="72.000000" viewBox="0 0 72 72" fill="none" xmlns="http://www.w3.org/2000/svg" xmlns:xlink="http://www.w3.org/1999/xlink">
	<desc>
			Created with Pixso.
	</desc>
	<defs>
		<clipPath id="clip117_1281">
			<rect id="7#TE20-TE20" width="72.000000" height="72.000000" fill="white" fill-opacity="0"/>
		</clipPath>
	</defs>
	<g clip-path="url(#clip117_1281)">
		<path id="矩形备份-19" d="M16 0L56 0C64.8 0 72 7.2 72 16L72 56C72 64.8 64.8 72 56 72L16 72C7.2 72 0 64.8 0 56L0 16C0 7.2 7.2 0 16 0Z" fill="#1476FF" fill-opacity="1.000000" fill-rule="evenodd"/>
		<path id="path" d="M33 42.59L39 42.59C40.47 42.59 41.89 42.31 43.25 41.74C44.62 41.18 45.82 40.37 46.87 39.33C47.91 38.28 48.71 37.08 49.28 35.72C49.84 34.35 50.13 32.93 50.13 31.46L50.13 25.46C50.13 23.98 49.85 22.55 49.29 21.18C48.73 19.82 47.93 18.61 46.88 17.56C45.84 16.51 44.63 15.7 43.26 15.13C41.9 14.57 40.47 14.28 39 14.28L33 14.28C31.52 14.28 30.1 14.56 28.74 15.13C27.38 15.69 26.18 16.5 25.14 17.54C24.09 18.58 23.29 19.78 22.73 21.14C22.16 22.51 21.88 23.92 21.88 25.4L21.88 31.4C21.87 32.88 22.15 34.3 22.71 35.67C23.27 37.04 24.07 38.25 25.11 39.3C26.16 40.35 27.36 41.16 28.73 41.73C30.09 42.3 31.52 42.59 33 42.59ZM36 20.34C37.07 20.34 38.1 20.55 39.09 20.96C40.08 21.37 40.95 21.95 41.71 22.71C42.47 23.47 43.05 24.34 43.46 25.33C43.87 26.32 44.08 27.36 44.08 28.43C44.08 29.5 43.87 30.53 43.46 31.52C43.05 32.51 42.47 33.39 41.71 34.14C40.95 34.9 40.08 35.49 39.09 35.9C38.1 36.31 37.07 36.51 36 36.51C34.92 36.51 33.89 36.31 32.9 35.9C31.91 35.49 31.04 34.9 30.28 34.14C29.52 33.39 28.94 32.51 28.53 31.52C28.12 30.53 27.91 29.5 27.91 28.43C27.91 27.36 28.12 26.33 28.53 25.34C28.94 24.35 29.52 23.47 30.28 22.71C31.04 21.96 31.91 21.37 32.9 20.96C33.89 20.55 34.92 20.34 36 20.34ZM59.25 56.21C59.25 57.21 58.75 57.71 57.75 57.71L14.25 57.71C13.25 57.71 12.75 57.21 12.75 56.21C12.75 55.21 13.25 54.71 14.25 54.71L25.15 54.71L26.74 42.71C28.63 43.98 30.72 44.61 33 44.6L39 44.6C41.26 44.6 43.34 43.97 45.22 42.71L46.81 54.71L57.75 54.71C58.75 54.71 59.25 55.21 59.25 56.21ZM31.95 28.43C31.95 27.31 32.35 26.36 33.15 25.58C33.94 24.79 34.9 24.4 36.01 24.41C37.13 24.41 38.08 24.81 38.87 25.6C39.66 26.4 40.05 27.35 40.04 28.47C40.04 29.58 39.65 30.54 38.86 31.32C38.06 32.11 37.11 32.51 36 32.51C34.87 32.51 33.91 32.11 33.12 31.32C32.32 30.52 31.93 29.55 31.95 28.43Z" fill="#FFFFFF" fill-opacity="1.000000" fill-rule="nonzero"/>
	</g>
</svg>
