<svg width="72.000000" height="72.000000" viewBox="0 0 72 72" fill="none" xmlns="http://www.w3.org/2000/svg" xmlns:xlink="http://www.w3.org/1999/xlink">
	<desc>
			Created with Pixso.
	</desc>
	<defs>
		<clipPath id="clip117_1282">
			<rect id="8#POC资源-POP-resources" width="72.000000" height="72.000000" fill="white" fill-opacity="0"/>
		</clipPath>
	</defs>
	<g clip-path="url(#clip117_1282)">
		<path id="矩形备份-19" d="M16 0L56 0C64.8 0 72 7.2 72 16L72 56C72 64.8 64.8 72 56 72L16 72C7.2 72 -3.82e-6 64.8 -3.82e-6 56L-3.82e-6 16C-3.82e-6 7.2 7.2 0 16 0Z" fill="#1476FF" fill-opacity="1.000000" fill-rule="evenodd"/>
		<path id="path" d="M51 55.5C51 56.5 50.5 57 49.5 57L22.5 57C21.5 57 21 56.5 21 55.5C21 54.5 21.5 54 22.5 54L49.5 54C50.5 54 51 54.5 51 55.5ZM27.1 28.57C26.67 28.29 26.2 28.16 25.69 28.18L24.6 28.18L24.6 31.36L25.69 31.36C26.2 31.38 26.67 31.25 27.1 30.97C27.19 30.91 27.27 30.84 27.34 30.75C27.56 30.46 27.66 30.13 27.64 29.77C27.65 29.41 27.55 29.09 27.34 28.81C27.27 28.72 27.19 28.64 27.1 28.57ZM36.64 28.57C36.26 28.28 35.83 28.14 35.35 28.15C35.07 28.14 34.79 28.19 34.53 28.3C34.35 28.36 34.19 28.45 34.05 28.57C33.64 28.87 33.35 29.26 33.16 29.73C32.73 30.9 32.73 32.08 33.16 33.25C33.34 33.73 33.63 34.12 34.03 34.43C34.42 34.73 34.86 34.87 35.35 34.86C35.83 34.86 36.26 34.72 36.64 34.43C37.04 34.12 37.33 33.73 37.51 33.25C37.94 32.08 37.94 30.9 37.51 29.73C37.33 29.25 37.04 28.87 36.64 28.57ZM58.5 21L58.5 42C58.5 43.65 57.91 45.07 56.74 46.24C55.57 47.41 54.15 48 52.5 48L19.5 48C17.84 48 16.42 47.41 15.25 46.24C14.08 45.07 13.5 43.65 13.5 42L13.5 21C13.5 19.34 14.08 17.92 15.25 16.75C16.42 15.58 17.84 15 19.5 15L52.5 15C54.15 15 55.57 15.58 56.74 16.75C57.91 17.92 58.5 19.34 58.5 21ZM29.85 29.77C29.85 29.15 29.71 28.57 29.43 28.03C29.32 27.87 29.21 27.61 29.08 27.46C28.79 27.14 28.45 26.89 28.06 26.71C27.4 26.4 26.71 26.26 25.99 26.28L23.85 26.28C22.95 26.28 22.5 26.73 22.5 27.63L22.5 35.68C22.5 36.38 22.85 36.73 23.55 36.73C24.25 36.73 24.6 36.38 24.6 35.68L24.6 33.27L25.93 33.27C26.66 33.28 27.35 33.14 28.02 32.83C28.41 32.64 28.75 32.39 29.04 32.07C29.16 31.92 29.27 31.77 29.37 31.62C29.68 31.07 29.84 30.4 29.85 29.77ZM40.03 31.5C40.06 30.48 39.86 29.52 39.41 28.62C39.03 27.83 38.46 27.21 37.72 26.74C37.46 26.59 37.18 26.46 36.9 26.35C36.41 26.18 35.91 26.1 35.4 26.1C34.82 26.09 34.27 26.19 33.73 26.4C33.48 26.49 33.24 26.6 33.01 26.74C32.87 26.82 32.74 26.91 32.62 27.01C32.06 27.44 31.62 27.98 31.32 28.62C30.43 30.54 30.43 32.46 31.32 34.38C31.69 35.16 32.25 35.79 33 36.25C33.22 36.39 33.46 36.5 33.72 36.59C34.25 36.8 34.81 36.9 35.38 36.9C35.89 36.89 36.39 36.81 36.88 36.64C37.17 36.53 37.44 36.4 37.71 36.25C38.45 35.78 39.01 35.16 39.4 34.38C39.85 33.47 40.06 32.51 40.03 31.5ZM48.81 34.02C48.14 33.71 47.56 33.83 47.07 34.38C46.93 34.49 46.78 34.59 46.62 34.66C46.35 34.78 46.07 34.84 45.78 34.84C45.31 34.84 44.9 34.71 44.53 34.43C44.12 34.13 43.83 33.74 43.65 33.27C43.41 32.7 43.3 32.11 43.32 31.5C43.3 30.88 43.4 30.28 43.63 29.71C43.81 29.24 44.11 28.85 44.52 28.56C44.89 28.28 45.31 28.15 45.78 28.15C46.07 28.15 46.35 28.21 46.62 28.33C46.78 28.4 46.93 28.5 47.07 28.63C47.56 29.17 48.14 29.29 48.81 28.98C49.31 28.7 49.43 28.31 49.17 27.81C49.04 27.63 48.91 27.47 48.78 27.31C48.42 26.92 47.99 26.62 47.5 26.43C46.97 26.2 46.41 26.09 45.84 26.1C44.97 26.09 44.18 26.31 43.45 26.77L43 27.09C42.47 27.52 42.05 28.05 41.74 28.66C41.3 29.55 41.09 30.5 41.11 31.5C41.09 32.49 41.3 33.44 41.74 34.33C42.14 35.13 42.73 35.76 43.5 36.22C44.22 36.68 45.02 36.9 45.88 36.9C46.46 36.9 47.01 36.79 47.55 36.57C48.04 36.37 48.46 36.07 48.82 35.68C48.96 35.53 49.09 35.36 49.21 35.18C49.47 34.66 49.34 34.27 48.81 34.02Z" fill="#FFFFFF" fill-opacity="1.000000" fill-rule="nonzero"/>
	</g>
</svg>
