<svg width="72.000000" height="72.000000" viewBox="0 0 72 72" fill="none" xmlns="http://www.w3.org/2000/svg" xmlns:xlink="http://www.w3.org/1999/xlink">
	<desc>
			Created with Pixso.
	</desc>
	<defs>
		<clipPath id="clip117_1283">
			<rect id="9#电话外呼包-OCP" width="72.000000" height="72.000000" fill="white" fill-opacity="0"/>
		</clipPath>
	</defs>
	<g clip-path="url(#clip117_1283)">
		<path id="矩形备份-19" d="M16 0L56 0C64.8 0 72 7.2 72 16L72 56C72 64.8 64.8 72 56 72L16 72C7.2 72 0 64.8 0 56L0 16C0 7.2 7.2 0 16 0Z" fill="#1476FF" fill-opacity="1.000000" fill-rule="evenodd"/>
		<path id="path" d="M54.75 46.48L54.75 49.11C54.75 50.66 54.19 51.99 53.09 53.09C51.99 54.19 50.66 54.75 49.11 54.75C48.69 54.74 48.28 54.7 47.88 54.61C41.46 53.19 35.14 49.35 28.92 43.08C22.7 36.81 18.85 30.49 17.38 24.12C17.19 23.28 17.2 22.45 17.39 21.61C17.58 20.78 17.95 20.03 18.48 19.36C19.02 18.69 19.67 18.17 20.44 17.8C21.22 17.43 22.03 17.25 22.89 17.25L26.89 17.25C28.74 17.25 29.94 18.13 30.49 19.9L32.41 26.14C32.77 27.32 32.41 28.19 31.32 28.75L31.08 28.86C30.47 29.07 30.01 29.47 29.72 30.05C29.43 30.63 29.39 31.24 29.58 31.86C30.45 34.32 31.84 36.45 33.75 38.25C35.53 40.13 37.65 41.51 40.11 42.37C41.4 42.82 42.37 42.44 43.03 41.25L43.14 40.99C43.34 40.44 43.7 40.04 44.23 39.78C44.75 39.53 45.29 39.48 45.85 39.66L50.77 41.16C51.94 41.52 52.89 42.19 53.62 43.17C54.36 44.15 54.73 45.26 54.75 46.48ZM43.6 30.58L49.77 24.4L49.77 27.75C49.77 28.32 49.97 28.82 50.38 29.23C50.79 29.64 51.29 29.85 51.87 29.85C52.45 29.85 52.94 29.64 53.35 29.23C53.76 28.82 53.97 28.32 53.97 27.75L53.97 19.32C53.96 18.76 53.77 18.29 53.39 17.89C53 17.49 52.54 17.27 51.99 17.25L43.48 17.25C42.94 17.29 42.48 17.51 42.11 17.92C41.74 18.32 41.56 18.79 41.56 19.34C41.56 19.88 41.74 20.36 42.11 20.76C42.48 21.16 42.94 21.38 43.48 21.43L46.83 21.43L40.63 27.63C40.22 28.04 40.01 28.54 40.01 29.13C40.01 29.71 40.22 30.21 40.63 30.63C41.04 31.04 41.54 31.25 42.13 31.25C42.72 31.25 43.19 30.99 43.6 30.58Z" fill="#FFFFFF" fill-opacity="1.000000" fill-rule="evenodd"/>
	</g>
</svg>
