<svg width="16.000000" height="16.000000" viewBox="0 0 16 16" fill="none" xmlns="http://www.w3.org/2000/svg" xmlns:xlink="http://www.w3.org/1999/xlink">
	<desc>
			Created with Pixso.
	</desc>
	<defs>
		<clipPath id="clip2_130">
			<rect id="1#首页|房子-home" width="16.000000" height="16.000000" fill="white" fill-opacity="0"/>
		</clipPath>
	</defs>
	<g clip-path="url(#clip2_130)">
		<path id="路径备份" d="M9.01 2.41L13.12 6.69C13.39 6.98 13.54 7.35 13.54 7.75L13.54 12.47C13.54 13.31 12.86 14 12.02 14L10.26 14C9.45 14 8.79 13.37 8.74 12.58L8.74 12.47L8.74 10.89C8.74 10.5 8.45 10.19 8.07 10.15L7.99 10.14C7.58 10.14 7.25 10.48 7.25 10.89L7.25 12.47C7.25 13.31 6.57 14 5.73 14L3.97 14C3.13 14 2.44 13.31 2.44 12.47L2.44 7.74C2.44 7.35 2.59 6.98 2.86 6.7L6.86 2.47C7.43 1.86 8.4 1.83 9.01 2.41ZM8.32 3.14C8.11 2.94 7.78 2.95 7.58 3.16L3.59 7.38C3.5 7.48 3.44 7.61 3.44 7.74L3.44 12.47C3.44 12.76 3.68 13 3.97 13L5.73 13C6.02 13 6.25 12.76 6.25 12.47L6.25 10.89C6.25 9.92 7.03 9.14 8.05 9.15L8.18 9.15C9.06 9.25 9.74 9.99 9.74 10.89L9.74 12.44L9.74 12.51C9.76 12.78 9.98 13 10.26 13L12.02 13C12.31 13 12.54 12.76 12.54 12.47L12.54 7.75C12.54 7.61 12.49 7.48 12.4 7.39L8.32 3.14Z" fill="currentColor" fill-opacity="1.000000" fill-rule="nonzero"/>
	</g>
</svg>
