<svg width="16.000000" height="16.000000" viewBox="0 0 16 16" fill="none" xmlns="http://www.w3.org/2000/svg" xmlns:xlink="http://www.w3.org/1999/xlink">
	<desc>
			Created with Pixso.
	</desc>
	<defs>
		<clipPath id="clip2_33">
			<rect id="10#угдтЈи-at" width="16.000000" height="16.000000" fill="white" fill-opacity="0"/>
		</clipPath>
	</defs>
	<g clip-path="url(#clip2_33)">
		<path id="Fill" d="M8 1.49C6.27 1.48 4.61 2.17 3.39 3.39C2.17 4.61 1.48 6.27 1.5 7.99L1.5 8.49C1.5 12.08 4.41 14.99 8 14.99L11 14.99C11.27 14.99 11.5 14.77 11.5 14.49C11.5 14.22 11.27 13.99 11 13.99L8 13.99C4.96 13.99 2.5 11.53 2.5 8.49L2.5 7.99C2.49 6.53 3.06 5.13 4.1 4.1C5.13 3.06 6.53 2.49 8 2.49C9.47 2.44 10.9 3.01 11.94 4.05C12.98 5.09 13.55 6.52 13.5 7.99C13.5 9.79 12.8 10.49 11.67 10.49C10.88 10.49 10.5 9.85 10.5 8.99L10.5 5.49C10.5 5.22 10.27 4.99 10 4.99C9.72 4.99 9.5 5.22 9.5 5.49L9.5 5.96C9.14 5.34 8.46 4.96 7.75 4.99C6.24 4.99 5.01 6.21 5 7.71L5 8.77C5.01 10.28 6.24 11.5 7.75 11.49C8.6 11.52 9.38 11.04 9.75 10.26C10.11 11.02 10.87 11.49 11.7 11.49C13.24 11.49 14.5 10.49 14.5 7.99C14.53 6.26 13.86 4.58 12.63 3.36C11.41 2.13 9.73 1.46 8 1.49ZM9.5 8.77C9.5 9.74 8.71 10.52 7.75 10.52C6.78 10.52 6 9.74 6 8.77L6 7.71C6 6.75 6.78 5.96 7.75 5.96C8.71 5.96 9.5 6.75 9.5 7.71L9.5 8.77Z" fill="currentColor" fill-opacity="1.000000" fill-rule="evenodd"/>
	</g>
</svg>
