<svg width="16.000000" height="16.000000" viewBox="0 0 16 16" fill="none" xmlns="http://www.w3.org/2000/svg" xmlns:xlink="http://www.w3.org/1999/xlink">
	<desc>
			Created with Pixso.
	</desc>
	<defs>
		<clipPath id="clip2_79">
			<rect id="100#历史数据-history" width="16.000000" height="16.000000" fill="white" fill-opacity="0"/>
		</clipPath>
	</defs>
	<g clip-path="url(#clip2_79)">
		<path id="path" d="M8 3.79C8.24 3.79 8.45 3.96 8.49 4.2L8.49 7.79L11 10.27C11.17 10.44 11.19 10.71 11.06 10.91C10.89 11.08 10.56 11.19 10.36 11.06L7.65 8.36C7.57 8.29 7.52 8.19 7.51 8.08L7.51 4.29C7.51 4.02 7.73 3.8 8 3.79ZM8 1.31C11.69 1.31 14.69 4.31 14.69 8C14.69 11.69 11.69 14.69 8 14.69C4.31 14.69 1.31 11.69 1.31 8C1.31 7.72 1.53 7.5 1.81 7.5C2.09 7.5 2.31 7.72 2.31 8C2.31 11.15 4.87 13.71 8.02 13.71C11.17 13.71 13.73 11.15 13.73 8C13.73 4.85 11.17 2.29 8.02 2.29C6.04 2.29 4.2 3.31 3.16 5L4.16 5C4.4 5 4.62 5.17 4.66 5.41C4.67 5.65 4.5 5.95 4.27 6L1.93 6C1.69 6 1.49 5.82 1.44 5.59L1.44 3.27C1.42 2.99 1.62 2.75 1.9 2.72C2.18 2.69 2.42 2.9 2.44 3.18L2.44 4.29C3.68 2.43 5.77 1.31 8 1.31Z" fill="currentColor" fill-opacity="1.000000" fill-rule="nonzero"/>
	</g>
</svg>
