<svg width="16.000000" height="16.000000" viewBox="0 0 16 16" fill="none" xmlns="http://www.w3.org/2000/svg" xmlns:xlink="http://www.w3.org/1999/xlink">
	<desc>
			Created with Pixso.
	</desc>
	<defs>
		<clipPath id="clip2_4">
			<rect id="101#加号|创建-plus" width="16.000000" height="16.000000" fill="white" fill-opacity="0"/>
		</clipPath>
	</defs>
	<g clip-path="url(#clip2_4)">
		<path id="形状结合" d="M8 1C11.86 1 15 4.13 15 8C15 11.86 11.86 15 8 15C4.13 15 1 11.86 1 8C1 4.13 4.13 1 8 1ZM8 2C4.68 2 2 4.68 2 8C2 11.31 4.68 14 8 14C11.31 14 14 11.31 14 8C14 4.68 11.31 2 8 2ZM8 4C8.27 4 8.5 4.22 8.5 4.5L8.5 7.5L11.5 7.5C11.77 7.5 12 7.72 12 8C12 8.27 11.77 8.5 11.5 8.5L8.5 8.5L8.5 11.5C8.5 11.77 8.27 12 8 12C7.72 12 7.5 11.77 7.5 11.5L7.5 8.5L4.5 8.5C4.22 8.5 4 8.27 4 8C4 7.72 4.22 7.5 4.5 7.5L7.5 7.5L7.5 4.5C7.5 4.22 7.72 4 8 4Z" fill="currentColor" fill-opacity="1.000000" fill-rule="nonzero"/>
	</g>
</svg>
