<svg width="16.000000" height="16.000000" viewBox="0 0 16 16" fill="none" xmlns="http://www.w3.org/2000/svg" xmlns:xlink="http://www.w3.org/1999/xlink">
	<desc>
			Created with Pixso.
	</desc>
	<defs>
		<clipPath id="clip2_38">
			<rect id="104#更多-more" width="16.000000" height="16.000000" fill="white" fill-opacity="0"/>
		</clipPath>
	</defs>
	<g clip-path="url(#clip2_38)">
		<path id="形状结合" d="M8 1C11.86 1 15 4.13 15 8C15 11.86 11.86 15 8 15C4.13 15 1 11.86 1 8C1 4.13 4.13 1 8 1ZM8 2C4.68 2 2 4.68 2 8C2 11.31 4.68 14 8 14C11.31 14 14 11.31 14 8C14 4.68 11.31 2 8 2ZM4.85 7.09C5.34 7.09 5.75 7.5 5.75 8C5.75 8.49 5.34 8.9 4.85 8.9C4.35 8.9 3.95 8.49 3.95 8C3.95 7.5 4.35 7.09 4.85 7.09ZM8 7.09C8.49 7.09 8.89 7.5 8.89 8C8.89 8.49 8.49 8.9 8 8.9C7.5 8.9 7.1 8.49 7.1 8C7.1 7.5 7.5 7.09 8 7.09ZM11.15 7.09C11.64 7.09 12.05 7.5 12.05 8C12.05 8.49 11.64 8.9 11.15 8.9C10.65 8.9 10.25 8.49 10.25 8C10.25 7.5 10.65 7.09 11.15 7.09Z" fill="currentColor" fill-opacity="1.000000" fill-rule="nonzero"/>
	</g>
</svg>
