<svg width="16.000000" height="16.000000" viewBox="0 0 16 16" fill="none" xmlns="http://www.w3.org/2000/svg" xmlns:xlink="http://www.w3.org/1999/xlink">
	<desc>
			Created with Pixso.
	</desc>
	<defs>
		<clipPath id="clip2_39">
			<rect id="105#更多|3点-more1" width="16.000000" height="16.000000" fill="white" fill-opacity="0"/>
		</clipPath>
	</defs>
	<g clip-path="url(#clip2_39)">
		<path id="path-1" d="M2.3 7.78L2.3 7.86C2.32 8.51 2.86 9.03 3.52 9.03C4.2 9.03 4.75 8.49 4.75 7.82C4.75 7.15 4.2 6.61 3.52 6.61C2.86 6.61 2.32 7.13 2.3 7.78ZM6.54 7.82C6.54 8.49 7.08 9.03 7.76 9.03C8.44 9.03 8.99 8.49 8.99 7.82C8.99 7.15 8.44 6.61 7.76 6.61C7.08 6.61 6.54 7.15 6.54 7.82ZM10.78 7.78L10.78 7.86C10.8 8.51 11.34 9.03 12 9.03C12.68 9.03 13.23 8.49 13.23 7.82C13.23 7.15 12.68 6.61 12 6.61C11.34 6.61 10.8 7.13 10.78 7.78Z" fill="currentColor" fill-opacity="1.000000" fill-rule="nonzero"/>
	</g>
</svg>
