<svg width="16.000000" height="16.000000" viewBox="0 0 16 16" fill="none" xmlns="http://www.w3.org/2000/svg" xmlns:xlink="http://www.w3.org/1999/xlink">
	<desc>
			Created with Pixso.
	</desc>
	<defs>
		<clipPath id="clip2_178">
			<rect id="106#移动|6点|骰子|盲文-dot6" width="16.000000" height="16.000000" fill="white" fill-opacity="0"/>
		</clipPath>
	</defs>
	<g clip-path="url(#clip2_178)">
		<path id="Fill" d="M6 3C6.55 3 7 3.44 7 4C7 4.55 6.55 5 6 5C5.44 5 5 4.55 5 4C5 3.44 5.44 3 6 3ZM10 3C10.55 3 11 3.44 11 4C11 4.55 10.55 5 10 5C9.44 5 9 4.55 9 4C9 3.44 9.44 3 10 3ZM6 7C6.55 7 7 7.44 7 8C7 8.55 6.55 9 6 9C5.44 9 5 8.55 5 8C5 7.44 5.44 7 6 7ZM10 7C10.55 7 11 7.44 11 8C11 8.55 10.55 9 10 9C9.44 9 9 8.55 9 8C9 7.44 9.44 7 10 7ZM6 11C6.55 11 7 11.44 7 12C7 12.55 6.55 13 6 13C5.44 13 5 12.55 5 12C5 11.44 5.44 11 6 11ZM10 11C10.55 11 11 11.44 11 12C11 12.55 10.55 13 10 13C9.44 13 9 12.55 9 12C9 11.44 9.44 11 10 11Z" fill="currentColor" fill-opacity="1.000000" fill-rule="evenodd"/>
	</g>
</svg>
