<svg width="16.000000" height="16.000000" viewBox="0 0 16 16" fill="none" xmlns="http://www.w3.org/2000/svg" xmlns:xlink="http://www.w3.org/1999/xlink">
	<desc>
			Created with Pixso.
	</desc>
	<defs>
		<clipPath id="clip2_218">
			<rect id="11#最新动态|纸飞机-news" width="16.000000" height="16.000000" fill="white" fill-opacity="0"/>
		</clipPath>
	</defs>
	<g clip-path="url(#clip2_218)">
		<path id="形状结合" d="M13.15 1.85C13.75 1.85 14.23 2.37 14.16 2.99L12.79 12.96C12.75 13.36 12.41 13.65 12.02 13.65C11.93 13.65 11.83 13.63 11.75 13.6L7.25 12.11L7.25 14.1C7.25 14.37 7.05 14.59 6.8 14.63L6.71 14.64C6.41 14.64 6.17 14.4 6.17 14.1L6.17 11.75L1.94 10.36C1.36 10.14 1.27 9.37 1.73 9.01L12.65 1.98C12.77 1.92 12.9 1.88 13.02 1.86L13.15 1.85ZM12.93 4.04L7.4 11.02L11.77 12.47L12.93 4.04ZM11.66 3.91L2.91 9.54L6.31 10.66L11.66 3.91Z" fill="currentColor" fill-opacity="1.000000" fill-rule="nonzero"/>
	</g>
</svg>
