<svg width="16.000000" height="16.000000" viewBox="0 0 16 16" fill="none" xmlns="http://www.w3.org/2000/svg" xmlns:xlink="http://www.w3.org/1999/xlink">
	<desc>
			Created with Pixso.
	</desc>
	<defs>
		<clipPath id="clip2_83">
			<rect id="12#笑脸|满意度评价-smile-face" width="16.000000" height="16.000000" fill="white" fill-opacity="0"/>
		</clipPath>
	</defs>
	<g clip-path="url(#clip2_83)">
		<path id="形状结合" d="M8 1.33C11.68 1.33 14.66 4.31 14.66 8C14.66 11.68 11.68 14.66 8 14.66C4.31 14.66 1.33 11.68 1.33 8C1.33 4.31 4.31 1.33 8 1.33ZM8 2.28C4.84 2.28 2.28 4.84 2.28 8C2.28 11.15 4.84 13.71 8 13.71C11.15 13.71 13.71 11.15 13.71 8C13.71 4.84 11.15 2.28 8 2.28ZM11.34 8.19C11.6 8.19 11.82 8.4 11.82 8.66C11.82 10.78 10.11 12.49 8 12.49C5.88 12.49 4.17 10.78 4.17 8.66C4.17 8.4 4.39 8.19 4.65 8.19L11.34 8.19ZM10.83 9.14L5.17 9.14C5.41 10.43 6.52 11.47 7.86 11.53L8 11.53C9.4 11.53 10.58 10.47 10.83 9.14ZM10.67 5.22C11.12 5.22 11.48 5.58 11.48 6.03C11.48 6.48 11.12 6.84 10.67 6.84C10.22 6.84 9.86 6.48 9.86 6.03C9.86 5.58 10.22 5.22 10.67 5.22ZM5.32 5.22C5.77 5.22 6.13 5.58 6.13 6.03C6.13 6.48 5.77 6.84 5.32 6.84C4.87 6.84 4.51 6.48 4.51 6.03C4.51 5.58 4.87 5.22 5.32 5.22Z" fill="currentColor" fill-opacity="1.000000" fill-rule="nonzero"/>
	</g>
</svg>
