<svg width="16.000000" height="16.000000" viewBox="0 0 16 16" fill="none"
	xmlns="http://www.w3.org/2000/svg" xmlns:xlink="http://www.w3.org/1999/xlink">
	<desc>
		Created with Pixso.
	</desc>
	<defs>
		<clipPath id="clip166_96">
			<rect id="13#最小化-minimize" width="16.000000" height="16.000000" fill="white"
				fill-opacity="0" />
		</clipPath>
	</defs>
	<g style="mix-blend-mode:normal">
		<g clip-path="url(#clip166_96)">
			<path id="合并"
				d="M1.50002 4.18182C1.50002 2.70068 2.70071 1.5 4.18184 1.5L11.8182 1.5C13.2993 1.5 14.5 2.70068 14.5 4.18182L14.5 11.8182C14.5 13.2993 13.2993 14.5 11.8182 14.5L8.00002 14.5C7.72387 14.5 7.50002 14.2761 7.50002 14C7.50002 13.7239 7.72387 13.5 8.00002 13.5L11.8182 13.5C12.747 13.5 13.5 12.747 13.5 11.8182L13.5 4.18182C13.5 3.25299 12.747 2.5 11.8182 2.5L4.18184 2.5C3.25299 2.5 2.50002 3.25299 2.50002 4.18182L2.50002 8C2.50002 8.27612 2.27615 8.5 2.00002 8.5C1.72388 8.5 1.50002 8.27612 1.50002 8L1.50002 4.18182ZM11.5 8L11.492 7.91016C11.4496 7.67688 11.2455 7.5 11 7.5L9.2069 7.50043L11.3536 5.35358C11.5311 5.17603 11.5472 4.89825 11.402 4.70251C11.2067 4.50726 10.8417 4.45117 10.6465 4.64642L8.49957 6.79309L8.50002 5C8.50002 4.74689 8.31191 4.53766 8.06786 4.50458L8.00002 4.5C7.72387 4.5 7.50002 4.72388 7.50002 5L7.50002 8C7.50002 8.27612 7.72387 8.5 8.00002 8.5L11 8.5C11.2762 8.5 11.5 8.27612 11.5 8ZM5.31914 9.53387C5.21517 9.51129 5.10874 9.5 4.99986 9.5L2.99986 9.5C2.89098 9.5 2.78456 9.51129 2.68059 9.53387C2.59048 9.55347 2.50224 9.58154 2.41585 9.6181C2.32977 9.65448 2.24846 9.69806 2.17188 9.74878C2.08873 9.80383 2.01117 9.86737 1.93921 9.93933C1.86723 10.0113 1.80371 10.0889 1.74863 10.172C1.69791 10.2486 1.65434 10.3299 1.61795 10.416C1.58141 10.5024 1.55333 10.5906 1.53375 10.6807C1.51115 10.7847 1.49986 10.8911 1.49986 11L1.49986 13C1.49986 13.1089 1.51115 13.2153 1.53375 13.3193C1.55334 13.4094 1.58141 13.4976 1.61795 13.584C1.65436 13.6701 1.69792 13.7514 1.74866 13.828C1.80373 13.9111 1.86725 13.9887 1.93921 14.0607C2.01117 14.1326 2.08873 14.1962 2.17188 14.2512C2.24846 14.3019 2.32977 14.3455 2.41585 14.3819C2.50224 14.4185 2.59048 14.4465 2.68057 14.4661C2.78455 14.4887 2.89098 14.5 2.99986 14.5L4.99986 14.5C5.10875 14.5 5.21518 14.4887 5.31916 14.4661C5.40924 14.4465 5.49748 14.4185 5.58389 14.3819C5.66995 14.3455 5.75128 14.3019 5.82787 14.2512C5.91101 14.1962 5.98856 14.1326 6.06052 14.0607C6.13248 13.9887 6.196 13.9111 6.25108 13.828C6.3018 13.7514 6.34538 13.6701 6.38178 13.584C6.41832 13.4976 6.44638 13.4094 6.46597 13.3193C6.48856 13.2153 6.49986 13.1089 6.49986 13L6.49986 11C6.49986 10.8911 6.48856 10.7847 6.46597 10.6807C6.44639 10.5906 6.41833 10.5024 6.38178 10.416C6.34538 10.3299 6.30182 10.2486 6.2511 10.172C6.19601 10.0889 6.13249 10.0113 6.06052 9.93933C5.98856 9.86737 5.91101 9.80383 5.82787 9.74878C5.75128 9.69806 5.66995 9.65448 5.58389 9.6181C5.49748 9.58154 5.40923 9.55347 5.31914 9.53387ZM2.99986 10.5L4.99986 10.5C5.0689 10.5 5.13288 10.5122 5.1918 10.5366C5.25073 10.561 5.3046 10.5977 5.35342 10.6464C5.40223 10.6953 5.43884 10.7491 5.46325 10.808C5.48766 10.867 5.49986 10.931 5.49986 11L5.49986 13C5.49986 13.069 5.48766 13.133 5.46325 13.192C5.43884 13.2509 5.40223 13.3047 5.35342 13.3536C5.3046 13.4023 5.25073 13.439 5.1918 13.4634C5.13288 13.4878 5.0689 13.5 4.99986 13.5L2.99986 13.5C2.93083 13.5 2.86685 13.4878 2.80792 13.4634C2.74899 13.439 2.69513 13.4023 2.64632 13.3536C2.59749 13.3047 2.56088 13.2509 2.53647 13.192C2.51207 13.133 2.49986 13.069 2.49986 13L2.49986 11C2.49986 10.931 2.51207 10.867 2.53647 10.808C2.56088 10.7491 2.59749 10.6953 2.64632 10.6464C2.69513 10.5977 2.74899 10.561 2.80792 10.5366C2.86685 10.5122 2.93083 10.5 2.99986 10.5Z"
				clip-rule="evenodd" fill="currentColor" fill-opacity="1.000000" fill-rule="evenodd" />
		</g>
	</g>
</svg>