<svg width="16.000000" height="16.000000" viewBox="0 0 16 16" fill="none"
	xmlns="http://www.w3.org/2000/svg" xmlns:xlink="http://www.w3.org/1999/xlink">
	<desc>
		Created with Pixso.
	</desc>
	<defs>
		<clipPath id="clip166_95">
			<rect id="13.1#最大化-maximize" width="16.000000" height="16.000000" fill="white"
				fill-opacity="0" />
		</clipPath>
	</defs>
	<g style="mix-blend-mode:normal">
		<g clip-path="url(#clip166_95)">
			<path id="合并"
				d="M1.5 4.18182C1.5 2.70068 2.70069 1.5 4.18182 1.5L11.8182 1.5C13.2993 1.5 14.5 2.70068 14.5 4.18182L14.5 11.8182C14.5 13.2993 13.2993 14.5 11.8182 14.5L8 14.5C7.72385 14.5 7.5 14.2761 7.5 14C7.5 13.7239 7.72385 13.5 8 13.5L11.8182 13.5C12.747 13.5 13.5 12.747 13.5 11.8182L13.5 4.18182C13.5 3.25299 12.747 2.5 11.8182 2.5L4.18182 2.5C3.25298 2.5 2.5 3.25299 2.5 4.18182L2.5 8C2.5 8.27612 2.27614 8.5 2 8.5C1.72386 8.5 1.5 8.27612 1.5 8L1.5 4.18182ZM8 4.5C7.72385 4.5 7.5 4.72388 7.5 5L7.50806 5.08984C7.55039 5.32312 7.75454 5.5 8 5.5L9.79311 5.49957L7.64645 7.64642C7.46893 7.82397 7.4528 8.10175 7.59804 8.29749C7.7933 8.49274 8.15829 8.54883 8.35355 8.35358L10.5005 6.20691L10.5 8C10.5 8.25311 10.6881 8.46234 10.9322 8.49542L11 8.5C11.2761 8.5 11.5 8.27612 11.5 8L11.5 5C11.5 4.72388 11.2761 4.5 11 4.5L8 4.5ZM5.31912 9.53387C5.21516 9.51129 5.10873 9.5 4.99985 9.5L2.99985 9.5C2.89097 9.5 2.78454 9.51129 2.68056 9.53387C2.59048 9.55347 2.50223 9.58154 2.41582 9.6181C2.32977 9.65448 2.24844 9.69806 2.17187 9.74878C2.08871 9.80383 2.01115 9.86737 1.93919 9.93933C1.86722 10.0113 1.8037 10.0889 1.74862 10.172C1.69789 10.2486 1.65434 10.3299 1.61793 10.416C1.58138 10.5024 1.55332 10.5906 1.53374 10.6807C1.51115 10.7847 1.49985 10.8911 1.49985 11L1.49985 13C1.49985 13.1089 1.51115 13.2153 1.53374 13.3193C1.55332 13.4094 1.58138 13.4976 1.61793 13.584C1.65434 13.6701 1.69791 13.7514 1.74863 13.828C1.80371 13.9111 1.86723 13.9887 1.93919 14.0607C2.01115 14.1326 2.08871 14.1962 2.17186 14.2512C2.24844 14.3019 2.32976 14.3455 2.41582 14.3819C2.50223 14.4185 2.59047 14.4465 2.68056 14.4661C2.78453 14.4887 2.89096 14.5 2.99985 14.5L4.99985 14.5C5.10873 14.5 5.21516 14.4887 5.31915 14.4661C5.40923 14.4465 5.49747 14.4185 5.58387 14.3819C5.66994 14.3455 5.75127 14.3019 5.82785 14.2512C5.911 14.1962 5.98855 14.1326 6.06051 14.0607C6.13247 13.9887 6.19598 13.9111 6.25106 13.828C6.30179 13.7514 6.34536 13.6701 6.38177 13.584C6.4183 13.4976 6.44637 13.4094 6.46595 13.3193C6.48855 13.2153 6.49985 13.1089 6.49985 13L6.49985 11C6.49985 10.8911 6.48855 10.7847 6.46595 10.6807C6.44637 10.5906 6.41831 10.5024 6.38177 10.416C6.34537 10.3299 6.3018 10.2486 6.25108 10.172C6.196 10.0889 6.13248 10.0113 6.06051 9.93933C5.98855 9.86737 5.911 9.80383 5.82785 9.74878C5.75127 9.69806 5.66994 9.65448 5.58387 9.6181C5.49747 9.58154 5.40922 9.55347 5.31912 9.53387ZM2.99985 10.5L4.99985 10.5C5.06889 10.5 5.13287 10.5122 5.19179 10.5366C5.25072 10.561 5.30459 10.5977 5.3534 10.6464C5.40221 10.6953 5.43883 10.7491 5.46323 10.808C5.48764 10.867 5.49985 10.931 5.49985 11L5.49985 13C5.49985 13.069 5.48764 13.133 5.46323 13.192C5.43883 13.2509 5.40221 13.3047 5.3534 13.3536C5.30459 13.4023 5.25072 13.439 5.19179 13.4634C5.13287 13.4878 5.06889 13.5 4.99985 13.5L2.99985 13.5C2.93081 13.5 2.86683 13.4878 2.80791 13.4634C2.74898 13.439 2.69511 13.4023 2.64629 13.3536C2.59748 13.3047 2.56087 13.2509 2.53646 13.192C2.51205 13.133 2.49985 13.069 2.49985 13L2.49985 11C2.49985 10.931 2.51205 10.867 2.53646 10.808C2.56087 10.7491 2.59748 10.6953 2.64629 10.6464C2.69511 10.5977 2.74898 10.561 2.80791 10.5366C2.86683 10.5122 2.93081 10.5 2.99985 10.5Z"
				clip-rule="evenodd" fill="currentColor" fill-opacity="1.000000" fill-rule="evenodd" />
		</g>
	</g>
</svg>