<svg width="16.000000" height="16.000000" viewBox="0 0 16 16" fill="none" xmlns="http://www.w3.org/2000/svg" xmlns:xlink="http://www.w3.org/1999/xlink">
	<desc>
			Created with Pixso.
	</desc>
	<defs>
		<clipPath id="clip2_30">
			<rect id="14#分享-share" width="16.000000" height="16.000000" fill="white" fill-opacity="0"/>
		</clipPath>
	</defs>
	<g clip-path="url(#clip2_30)">
		<path id="形状结合" d="M7 2C7.27 2 7.5 2.22 7.5 2.5C7.5 2.77 7.27 3 7 3L4.5 3C3.67 3 3 3.67 3 4.5L3 11.5C3 12.32 3.67 13 4.5 13L11.5 13C12.32 13 13 12.32 13 11.5L13 9C13 8.72 13.22 8.5 13.5 8.5C13.77 8.5 14 8.72 14 9L14 11.5C14 12.88 12.88 14 11.5 14L4.5 14C3.11 14 2 12.88 2 11.5L2 4.5C2 3.11 3.11 2 4.5 2L7 2ZM13.5 2C13.53 2 13.56 2 13.59 2C13.6 2.01 13.64 2.02 13.65 2.02C13.66 2.03 13.73 2.05 13.74 2.06C13.78 2.09 13.87 2.16 13.89 2.19C13.9 2.2 13.94 2.27 13.95 2.28C13.95 2.29 13.98 2.36 13.98 2.38C13.98 2.39 13.99 2.47 13.99 2.48L14 6C14 6.27 13.77 6.5 13.5 6.5C13.22 6.5 13 6.27 13 6L13 3.7L8.19 8.51C8 8.7 7.68 8.7 7.48 8.51C7.29 8.31 7.29 7.99 7.48 7.8L12.29 3L10 3C9.74 3 9.53 2.81 9.5 2.56L9.5 2.5C9.5 2.22 9.72 2 10 2L13.5 2Z" fill="currentColor" fill-opacity="1.000000" fill-rule="nonzero"/>
	</g>
</svg>
