<svg width="16.000000" height="16.000000" viewBox="0 0 16 16" fill="none" xmlns="http://www.w3.org/2000/svg" xmlns:xlink="http://www.w3.org/1999/xlink">
	<desc>
			Created with Pixso.
	</desc>
	<defs>
		<clipPath id="clip2_142">
			<rect id="20#通话-call" width="16.000000" height="16.000000" fill="white" fill-opacity="0"/>
		</clipPath>
	</defs>
	<g clip-path="url(#clip2_142)">
		<path id="路径" d="M5.4 1.5L3.04 1.5C3 1.5 2.96 1.5 2.93 1.5C2.1 1.56 1.48 2.28 1.55 3.11L1.56 3.31C1.57 3.34 1.57 3.37 1.57 3.4C1.88 6.12 3.06 8.63 4.92 10.59C6.91 12.69 9.57 14.05 12.48 14.4C12.59 14.42 12.73 14.43 12.88 14.44C12.92 14.44 12.96 14.45 12.99 14.45C13.82 14.45 14.49 13.78 14.49 12.95L14.49 10.59C14.49 9.9 14.03 9.31 13.38 9.13L11.3 8.59C10.68 8.43 10.03 8.67 9.67 9.2L9.57 9.36C9.44 9.54 9.19 9.59 9.01 9.46C8.37 9.03 7.9 8.66 7.61 8.36C7.32 8.07 6.97 7.63 6.55 7.02C6.42 6.83 6.46 6.57 6.65 6.43L6.82 6.31C7.33 5.95 7.56 5.31 7.4 4.71L6.85 2.61C6.68 1.95 6.09 1.5 5.4 1.5ZM3.04 2.5L5.4 2.5C5.63 2.5 5.83 2.65 5.89 2.87L6.44 4.96C6.49 5.17 6.41 5.38 6.24 5.5L6.08 5.62C5.44 6.07 5.28 6.95 5.73 7.59C6.17 8.24 6.56 8.73 6.9 9.06C7.25 9.41 7.76 9.82 8.44 10.29C9.05 10.7 9.87 10.58 10.33 10.01L10.4 9.91L10.5 9.76C10.62 9.58 10.84 9.5 11.04 9.56L13.12 10.1C13.34 10.16 13.49 10.36 13.49 10.59L13.49 12.95C13.49 13.22 13.27 13.45 12.99 13.45L12.7 13.42C12.67 13.42 12.63 13.42 12.6 13.41C9.93 13.09 7.48 11.84 5.64 9.9C3.93 8.1 2.85 5.79 2.57 3.29L2.55 3.13C2.55 3.1 2.55 3.07 2.54 3.03C2.52 2.76 2.77 2.52 3.04 2.5Z" fill="currentColor" fill-opacity="1.000000" fill-rule="nonzero"/>
	</g>
</svg>
