<svg width="16.000000" height="16.000000" viewBox="0 0 16 16" fill="none" xmlns="http://www.w3.org/2000/svg" xmlns:xlink="http://www.w3.org/1999/xlink">
	<desc>
			Created with Pixso.
	</desc>
	<defs>
		<clipPath id="clip2_9">
			<rect id="22#打印-print" width="16.000000" height="16.000000" fill="white" fill-opacity="0"/>
		</clipPath>
	</defs>
	<g clip-path="url(#clip2_9)">
		<path id="形状结合" d="M11 1.56C11.83 1.56 12.5 2.23 12.5 3.06L12.5 3.76L13.41 3.76C14.28 3.76 15 4.45 15 5.31L15 10.42C15 11.27 14.28 11.96 13.41 11.96L12.5 11.96L12.5 12.93C12.5 13.73 11.88 14.38 11.1 14.43L11 14.43L5 14.43C4.17 14.43 3.5 13.76 3.5 12.93L3.5 11.96L2.58 11.96C1.71 11.96 1 11.27 1 10.42L1 5.31C1 4.45 1.71 3.76 2.58 3.76L3.5 3.76L3.5 3.06C3.5 2.26 4.12 1.61 4.9 1.56L5 1.56L11 1.56ZM11 9.43L5 9.43C4.72 9.43 4.5 9.66 4.5 9.93L4.5 12.93C4.5 13.21 4.72 13.43 5 13.43L11 13.43C11.27 13.43 11.5 13.21 11.5 12.93L11.5 9.93C11.5 9.66 11.27 9.43 11 9.43ZM13.41 4.76L2.58 4.76C2.25 4.76 2 5.01 2 5.31L2 10.42C2 10.71 2.25 10.96 2.58 10.96L3.5 10.96L3.5 9.93C3.5 9.14 4.11 8.49 4.89 8.44L5 8.43L11 8.43C11.82 8.43 12.5 9.1 12.5 9.93L12.5 10.96L13.41 10.96C13.74 10.96 14 10.71 14 10.42L14 5.31C14 5.01 13.74 4.76 13.41 4.76ZM11.98 5.55C12.3 5.55 12.56 5.81 12.56 6.13C12.56 6.45 12.3 6.71 11.98 6.71C11.66 6.71 11.4 6.45 11.4 6.13C11.4 5.81 11.66 5.55 11.98 5.55ZM11 2.56L5 2.56C4.73 2.56 4.5 2.78 4.5 3.06L4.5 3.76L11.5 3.76L11.5 3.06C11.5 2.81 11.33 2.61 11.09 2.57L11 2.56Z" fill="currentColor" fill-opacity="1.000000" fill-rule="nonzero"/>
	</g>
</svg>
