<svg width="16.000000" height="16.000000" viewBox="0 0 16 16" fill="none" xmlns="http://www.w3.org/2000/svg" xmlns:xlink="http://www.w3.org/1999/xlink">
	<desc>
			Created with Pixso.
	</desc>
	<defs>
		<clipPath id="clip2_59">
			<rect id="23#计算器-calculator" width="16.000000" height="16.000000" fill="white" fill-opacity="0"/>
		</clipPath>
	</defs>
	<g clip-path="url(#clip2_59)">
		<path id="path" d="M11.5 1.5L4.5 1.5C3.1 1.5 2 2.59 2 4L2 5L2 6L2 12C2 13.4 3.1 14.5 4.5 14.5L11.5 14.5C12.9 14.5 14 13.4 14 12L14 6L14 5L14 4C14 2.59 12.9 1.5 11.5 1.5ZM13 12C13 12.8 12.3 13.5 11.5 13.5L4.5 13.5C3.7 13.5 3 12.8 3 12L3 6L13 6L13 12ZM13 5L3 5L3 4C3 3.2 3.7 2.5 4.5 2.5L11.5 2.5C12.3 2.5 13 3.2 13 4L13 5ZM6 8.9C6 9.5 5.6 9.9 5 9.9C4.39 9.9 4 9.5 4 8.9C4 8.29 4.39 7.9 5 7.9C5.5 7.9 6 8.29 6 8.9ZM5 10.4C4.39 10.4 4 10.8 4 11.4C4 12 4.39 12.4 5 12.4C5.6 12.4 6 12 6 11.4C6 10.8 5.5 10.4 5 10.4ZM8 7.9C7.39 7.9 7 8.29 7 8.9C7 9.5 7.39 9.9 8 9.9C8.6 9.9 9 9.5 9 8.9C9 8.29 8.6 7.9 8 7.9ZM8 10.4C7.39 10.4 7 10.8 7 11.4C7 12 7.39 12.4 8 12.4C8.6 12.4 9 12 9 11.4C9 10.8 8.6 10.4 8 10.4ZM11 9.9C11.6 9.9 12 9.5 12 8.9C12 8.29 11.6 7.9 11 7.9C10.4 7.9 10 8.29 10 8.9C10 9.5 10.5 9.9 11 9.9ZM11 10.4C10.4 10.4 10 10.8 10 11.4C10 12 10.4 12.4 11 12.4C11.6 12.4 12 12 12 11.4C12 10.8 11.6 10.4 11 10.4Z" fill="currentColor" fill-opacity="1.000000" fill-rule="nonzero"/>
	</g>
</svg>
