<svg width="16.000000" height="16.000000" viewBox="0 0 16 16" fill="none" xmlns="http://www.w3.org/2000/svg" xmlns:xlink="http://www.w3.org/1999/xlink">
	<desc>
			Created with Pixso.
	</desc>
	<defs>
		<clipPath id="clip2_10">
			<rect id="24#地图|位置-map" width="16.000000" height="16.000000" fill="white" fill-opacity="0"/>
		</clipPath>
	</defs>
	<g clip-path="url(#clip2_10)">
		<path id="形状结合" d="M10.96 2.65C12.16 3.85 12.48 5.61 11.92 7.1C12.7 7.1 13.49 7.75 13.71 8.56L14.73 12.89C14.93 13.82 14.18 14.57 13.17 14.57L2.82 14.57C1.81 14.57 1.06 13.82 1.26 12.88L2.28 8.55C2.5 7.75 3.26 7.1 4.04 7.1C3.48 5.61 3.82 3.85 5.03 2.65C6.67 1.01 9.32 1.01 10.96 2.65ZM4.62 8.1L4.04 8.1C3.73 8.1 3.35 8.42 3.25 8.79L2.24 13.1C2.18 13.36 2.4 13.57 2.82 13.57L13.17 13.57C13.59 13.57 13.81 13.36 13.75 13.11L12.74 8.81C12.63 8.42 12.25 8.1 11.94 8.1L11.37 8.1C11.28 8.22 11.18 8.34 11.08 8.45L10.96 8.58L8.53 11.01C8.24 11.3 7.77 11.3 7.48 11.01L5.03 8.58L5.42 8.18L5.03 8.58C4.88 8.43 4.74 8.27 4.62 8.1ZM5.74 3.35C4.53 4.56 4.49 6.5 5.63 7.76L5.73 7.87L8 10.12L10.25 7.87C11.5 6.62 11.5 4.6 10.25 3.35C9 2.11 6.98 2.11 5.74 3.35ZM7.99 4.74C8.47 4.74 8.86 5.13 8.86 5.61C8.86 6.09 8.47 6.48 7.99 6.48C7.51 6.48 7.13 6.09 7.13 5.61C7.13 5.13 7.51 4.74 7.99 4.74Z" fill="currentColor" fill-opacity="1.000000" fill-rule="nonzero"/>
	</g>
</svg>
