<svg width="16.000000" height="16.000000" viewBox="0 0 16 16" fill="none" xmlns="http://www.w3.org/2000/svg" xmlns:xlink="http://www.w3.org/1999/xlink">
	<desc>
			Created with Pixso.
	</desc>
	<defs>
		<clipPath id="clip2_32">
			<rect id="25#钥匙|密钥-key" width="16.000000" height="16.000000" fill="white" fill-opacity="0"/>
		</clipPath>
	</defs>
	<g clip-path="url(#clip2_32)">
		<path id="形状" d="M11.16 5.33C11.06 5.33 10.99 5.4 10.99 5.5C10.99 5.59 11.06 5.66 11.16 5.66C11.25 5.66 11.32 5.59 11.32 5.5C11.32 5.4 11.25 5.33 11.16 5.33ZM11.16 4.66C11.62 4.66 11.99 5.03 11.99 5.5C11.99 5.96 11.62 6.33 11.16 6.33C10.7 6.33 10.32 5.96 10.32 5.5C10.32 5.03 10.7 4.66 11.16 4.66ZM10.16 3C8.22 3 6.66 4.56 6.66 6.5C6.66 7 6.76 7.48 6.97 7.94C7.04 8.1 7.02 8.29 6.92 8.43L2.99 12.37L2.99 13.66L4.66 13.66L4.66 12.81C4.66 12.56 4.84 12.36 5.07 12.32L5.16 12.32L5.99 12.31L5.99 11.48C5.99 11.23 6.17 11.03 6.4 10.98L6.49 10.98L8.01 10.98L8.01 10.2C8 10.12 8.01 10.02 8.05 9.93C8.09 9.85 8.15 9.78 8.22 9.73C8.27 9.7 8.37 9.66 8.42 9.65L8.51 9.65C8.6 9.64 8.69 9.67 8.76 9.71C9.22 9.91 9.65 10 10.15 10C12.08 10 13.65 8.43 13.65 6.5C13.65 4.57 12.09 3 10.16 3ZM10.16 2C12.64 2 14.66 4.01 14.66 6.5C14.66 8.98 12.64 11 10.16 11C9.77 11 9.38 10.94 9.01 10.85L9.01 11.48C9.01 11.75 8.79 11.98 8.51 11.98L7 11.98L7 12.81C7 13.06 6.82 13.26 6.58 13.3L6.5 13.3L5.66 13.31L5.66 14.16C5.66 14.41 5.49 14.61 5.26 14.66L5.17 14.66L3.33 14.66L2.49 14.66C2.23 14.66 2.03 14.48 2 14.23L2 14.16L2 12.16C2 12.06 2.03 11.96 2.09 11.87L5.93 8.02L5.9 7.96C5.76 7.56 5.68 7.14 5.66 6.71L5.66 6.5C5.66 4.02 7.67 2 10.16 2Z" fill="currentColor" fill-opacity="1.000000" fill-rule="nonzero"/>
	</g>
</svg>
