<svg width="16.000000" height="16.000000" viewBox="0 0 16 16" fill="none" xmlns="http://www.w3.org/2000/svg" xmlns:xlink="http://www.w3.org/1999/xlink">
	<desc>
			Created with Pixso.
	</desc>
	<defs>
		<clipPath id="clip2_134">
			<rect id="26#钥匙|密钥-key1" width="16.000000" height="16.000000" fill="white" fill-opacity="0"/>
		</clipPath>
	</defs>
	<g clip-path="url(#clip2_134)">
		<path id="形状结合" d="M3.19 2.48L4.39 3.68L5.59 2.48C5.79 2.29 6.1 2.29 6.3 2.48C6.49 2.68 6.49 2.99 6.3 3.19L5.1 4.39L7.85 7.14C7.88 7.17 7.91 7.21 7.93 7.24C8.57 6.74 9.37 6.45 10.25 6.45C12.34 6.45 14.04 8.15 14.04 10.25C14.04 12.34 12.34 14.04 10.25 14.04C8.15 14.04 6.45 12.34 6.45 10.25C6.45 9.37 6.74 8.57 7.24 7.92C7.21 7.91 7.17 7.88 7.14 7.85L2.48 3.19C2.29 2.99 2.29 2.68 2.48 2.48C2.68 2.29 2.99 2.29 3.19 2.48ZM10.25 7.45C8.7 7.45 7.45 8.7 7.45 10.25C7.45 11.79 8.7 13.04 10.25 13.04C11.79 13.04 13.04 11.79 13.04 10.25C13.04 8.7 11.79 7.45 10.25 7.45Z" fill="currentColor" fill-opacity="1.000000" fill-rule="nonzero"/>
	</g>
</svg>
