<svg width="16.000000" height="16.000000" viewBox="0 0 16 16" fill="none" xmlns="http://www.w3.org/2000/svg" xmlns:xlink="http://www.w3.org/1999/xlink">
	<desc>
			Created with Pixso.
	</desc>
	<defs>
		<clipPath id="clip2_87">
			<rect id="27#相机|拍照-camera" width="16.000000" height="16.000000" fill="white" fill-opacity="0"/>
		</clipPath>
	</defs>
	<g clip-path="url(#clip2_87)">
		<path id="形状结合" d="M9.33 2.5C9.93 2.5 10.48 2.86 10.71 3.42L11.33 4.89L12 4.9C13.33 4.9 14.42 5.94 14.49 7.26L14.5 7.4L14.5 11.8C14.5 13.18 13.38 14.3 12 14.3L4 14.3C2.61 14.3 1.5 13.18 1.5 11.8L1.5 7.4C1.5 6.01 2.61 4.9 4 4.9L4.66 4.89L5.28 3.42C5.5 2.89 5.99 2.54 6.55 2.5L6.66 2.5L9.33 2.5ZM9.33 3.5L6.66 3.5C6.46 3.5 6.28 3.62 6.2 3.8L5.46 5.59C5.38 5.77 5.2 5.9 5 5.9L4 5.9C3.17 5.9 2.5 6.57 2.5 7.4L2.5 11.8C2.5 12.62 3.17 13.3 4 13.3L12 13.3C12.82 13.3 13.5 12.62 13.5 11.8L13.5 7.4C13.5 6.57 12.82 5.9 12 5.9L11 5.9C10.79 5.9 10.61 5.77 10.53 5.59L9.79 3.8C9.71 3.62 9.53 3.5 9.33 3.5ZM8 6.5C9.6 6.5 10.9 7.79 10.9 9.4C10.9 11 9.6 12.3 8 12.3C6.39 12.3 5.1 11 5.1 9.4C5.1 7.79 6.39 6.5 8 6.5ZM8 7.5C6.95 7.5 6.1 8.35 6.1 9.4C6.1 10.44 6.95 11.3 8 11.3C9.04 11.3 9.89 10.44 9.89 9.4C9.89 8.35 9.04 7.5 8 7.5Z" fill="currentColor" fill-opacity="1.000000" fill-rule="nonzero"/>
	</g>
</svg>
