<svg width="16.000000" height="16.000000" viewBox="0 0 16 16" fill="none" xmlns="http://www.w3.org/2000/svg" xmlns:xlink="http://www.w3.org/1999/xlink">
	<desc>
			Created with Pixso.
	</desc>
	<defs>
		<clipPath id="clip2_214">
			<rect id="28#自动保存-auto-save" width="16.000000" height="16.000000" fill="white" fill-opacity="0"/>
		</clipPath>
	</defs>
	<g clip-path="url(#clip2_214)">
		<path id="形状结合" d="M10.64 1.95C11.12 1.95 11.26 2.11 11.52 2.62L11.96 3.49L13.28 3.5C14.26 3.5 15.04 4.29 15.04 5.26L15.04 12.28C15.04 13.25 14.26 14.04 13.28 14.04L2.71 14.04C1.73 14.04 0.94 13.25 0.94 12.28L0.94 5.26C0.94 4.29 1.73 3.5 2.71 3.5L4.02 3.5L4.47 2.62L4.57 2.44C4.76 2.11 4.93 1.95 5.35 1.95L10.64 1.95ZM10.56 2.95L5.42 2.95L5.36 3.07L4.93 3.94L4.8 4.1C4.57 4.39 4.5 4.41 4.02 4.5L2.71 4.5C2.28 4.5 1.94 4.84 1.94 5.26L1.94 12.28C1.94 12.7 2.28 13.04 2.71 13.04L13.28 13.04C13.7 13.04 14.04 12.7 14.04 12.28L14.04 5.26C14.04 4.84 13.7 4.5 13.28 4.5L11.97 4.5L11.77 4.46C11.4 4.38 11.36 4.33 11.06 3.94L10.56 2.95ZM5.78 5.2C6.06 5.2 6.28 5.42 6.28 5.7L6.28 5.9C6.65 5.67 7.06 5.51 7.5 5.44C9.22 5.16 10.83 6.33 11.1 8.04C11.37 9.75 10.2 11.36 8.48 11.63C6.77 11.9 5.16 10.73 4.89 9.02C4.85 8.75 5.03 8.49 5.3 8.45C5.58 8.41 5.83 8.59 5.88 8.87C6.06 10.03 7.16 10.82 8.33 10.64C9.5 10.45 10.3 9.36 10.11 8.2C9.93 7.03 8.83 6.24 7.66 6.42C7.48 6.45 7.32 6.5 7.16 6.57C7.41 6.57 7.57 6.75 7.6 7L7.61 7.07C7.61 7.34 7.38 7.57 7.11 7.57L5.78 7.57C5.5 7.57 5.28 7.34 5.28 7.07L5.28 5.7C5.28 5.42 5.5 5.2 5.78 5.2Z" fill="currentColor" fill-opacity="1.000000" fill-rule="nonzero"/>
	</g>
</svg>
