<svg width="16.000000" height="16.000000" viewBox="0 0 16 16" fill="none" xmlns="http://www.w3.org/2000/svg" xmlns:xlink="http://www.w3.org/1999/xlink">
	<desc>
			Created with Pixso.
	</desc>
	<defs>
		<clipPath id="clip2_24">
			<rect id="29#视频-video" width="16.000000" height="16.000000" fill="white" fill-opacity="0"/>
		</clipPath>
	</defs>
	<g clip-path="url(#clip2_24)">
		<path id="形状结合" d="M9.93 3.5C11.08 3.5 12.01 4.43 12.02 5.58L12.02 10.64C12.02 11.8 11.08 12.73 9.93 12.73L3.08 12.73C1.93 12.73 1 11.8 1 10.64L1 5.58C1 4.43 1.93 3.5 3.08 3.5L9.93 3.5ZM9.93 4.5L3.08 4.5C2.48 4.5 2 4.98 2 5.58L2 10.64C2 11.24 2.48 11.73 3.08 11.73L9.93 11.73C10.53 11.73 11.02 11.24 11.02 10.64L11.02 5.58C11.02 4.98 10.53 4.5 9.93 4.5ZM13.89 4.94C14.43 4.66 15.09 4.87 15.37 5.4C15.45 5.56 15.5 5.73 15.5 5.91L15.5 10.31C15.5 10.92 15 11.41 14.4 11.41C14.22 11.41 14.05 11.37 13.89 11.29L12.69 10.66C12.45 10.53 12.35 10.23 12.48 9.99C12.61 9.74 12.91 9.65 13.16 9.77L14.36 10.4C14.41 10.4 14.5 10.37 14.5 10.31L14.5 5.91C14.47 5.86 14.4 5.8 14.36 5.82L13.15 6.45C12.91 6.58 12.61 6.48 12.48 6.24C12.35 5.99 12.45 5.69 12.69 5.56L13.89 4.94Z" fill="currentColor" fill-opacity="1.000000" fill-rule="nonzero"/>
	</g>
</svg>
