<svg width="16.000000" height="16.000000" viewBox="0 0 16 16" fill="none" xmlns="http://www.w3.org/2000/svg" xmlns:xlink="http://www.w3.org/1999/xlink">
	<desc>
			Created with Pixso.
	</desc>
	<defs>
		<clipPath id="clip2_23">
			<rect id="3#发布-release" width="16.000000" height="16.000000" fill="white" fill-opacity="0"/>
		</clipPath>
	</defs>
	<g clip-path="url(#clip2_23)">
		<path id="形状结合" d="M8.28 1.45L11.11 3.45C11.14 3.47 11.18 3.5 11.2 3.53L12.06 3.53C13.42 3.53 14.53 4.6 14.53 5.92L14.53 11.74C14.53 13.06 13.42 14.13 12.06 14.13L3.93 14.13C2.57 14.13 1.46 13.06 1.46 11.74L1.46 5.93C1.46 4.6 2.57 3.53 3.93 3.53L4.79 3.53C4.81 3.5 4.84 3.47 4.88 3.45L7.71 1.45C7.88 1.33 8.11 1.33 8.28 1.45ZM12.06 4.53L3.93 4.53C3.11 4.53 2.46 5.16 2.46 5.93L2.46 11.74C2.46 12.5 3.11 13.13 3.93 13.13L12.06 13.13C12.88 13.13 13.53 12.5 13.53 11.74L13.53 5.92C13.53 5.16 12.88 4.53 12.06 4.53ZM10.82 9.75C11.1 9.75 11.32 9.97 11.32 10.25C11.32 10.52 11.1 10.75 10.82 10.75L5.17 10.75C4.89 10.75 4.67 10.52 4.67 10.25C4.67 9.97 4.89 9.75 5.17 9.75L10.82 9.75ZM7.99 6.92C8.27 6.92 8.49 7.14 8.49 7.42C8.49 7.7 8.27 7.92 7.99 7.92L5.17 7.92C4.89 7.92 4.67 7.7 4.67 7.42C4.67 7.14 4.89 6.92 5.17 6.92L7.99 6.92ZM7.99 2.47L6.49 3.53L9.5 3.53L7.99 2.47Z" fill="currentColor" fill-opacity="1.000000" fill-rule="nonzero"/>
	</g>
</svg>
