<svg width="16.000000" height="16.000000" viewBox="0 0 16 16" fill="none" xmlns="http://www.w3.org/2000/svg" xmlns:xlink="http://www.w3.org/1999/xlink">
	<desc>
			Created with Pixso.
	</desc>
	<defs>
		<clipPath id="clip2_177">
			<rect id="31#电视|演示-TV" width="16.000000" height="16.000000" fill="white" fill-opacity="0"/>
		</clipPath>
	</defs>
	<g clip-path="url(#clip2_177)">
		<path id="形状结合" d="M12 1.5C13.38 1.5 14.5 2.61 14.5 4L14.5 10C14.5 11.38 13.38 12.5 12 12.5L9.2 12.5L10.35 13.64C10.54 13.84 10.54 14.15 10.35 14.35C10.15 14.54 9.84 14.54 9.64 14.35L8 12.7L6.35 14.35C6.17 14.53 5.89 14.54 5.7 14.4C5.5 14.2 5.45 13.84 5.64 13.64L6.79 12.5L4 12.5C2.66 12.5 1.57 11.45 1.5 10.13L1.5 10L1.5 4C1.5 2.61 2.61 1.5 4 1.5L12 1.5ZM12 2.5L4 2.5C3.17 2.5 2.5 3.17 2.5 4L2.5 10C2.5 10.82 3.17 11.5 4 11.5L12 11.5C12.82 11.5 13.5 10.82 13.5 10L13.5 4C13.5 3.17 12.82 2.5 12 2.5ZM5.75 4.75C5.75 4.36 6.16 4.12 6.49 4.31L10.49 6.56C10.83 6.75 10.83 7.24 10.49 7.43L6.49 9.68C6.16 9.87 5.75 9.63 5.75 9.25L5.75 4.75ZM6.75 5.6L6.75 8.39L9.23 7L6.75 5.6Z" fill="currentColor" fill-opacity="1.000000" fill-rule="nonzero"/>
	</g>
</svg>
