<svg width="16.000000" height="16.000000" viewBox="0 0 16 16" fill="none" xmlns="http://www.w3.org/2000/svg" xmlns:xlink="http://www.w3.org/1999/xlink">
	<desc>
			Created with Pixso.
	</desc>
	<defs>
		<clipPath id="clip2_199">
			<rect id="32#药箱|诊断-diagnosis" width="16.000000" height="16.000000" fill="white" fill-opacity="0"/>
		</clipPath>
	</defs>
	<g clip-path="url(#clip2_199)">
		<path id="形状" d="M11.26 1.94C11.52 1.94 11.73 1.72 11.73 1.46C11.73 1.21 11.52 1 11.26 1L4.73 1C4.46 1 4.25 1.21 4.25 1.46C4.25 1.72 4.46 1.94 4.73 1.94L11.26 1.94ZM8 6.42C8.25 6.42 8.47 6.64 8.47 6.9L8.47 8.59L10.17 8.59C10.4 8.59 10.6 8.77 10.64 8.98L10.64 9.07C10.64 9.33 10.44 9.53 10.17 9.53L8.47 9.53L8.47 11.24C8.47 11.47 8.3 11.67 8.08 11.71L7.99 11.71C7.73 11.71 7.52 11.51 7.52 11.24L7.52 9.53L5.82 9.53C5.59 9.53 5.39 9.37 5.35 9.15L5.35 9.07C5.35 8.81 5.55 8.59 5.82 8.59L7.52 8.59L7.52 6.9C7.52 6.66 7.69 6.46 7.91 6.42L8 6.42ZM13.27 4.46L2.73 4.46C2.3 4.46 1.94 4.82 1.94 5.26L1.94 12.89C1.94 13.33 2.28 13.68 2.73 13.68L13.26 13.68C13.69 13.68 14.05 13.33 14.05 12.89L14.05 5.26C14.05 4.82 13.71 4.46 13.27 4.46ZM13.27 3.52C14.23 3.52 15 4.29 15 5.25L15 12.88C15 13.84 14.22 14.61 13.27 14.61L2.73 14.61C1.77 14.61 1 13.83 1 12.88L1 5.25C1 4.28 1.78 3.52 2.73 3.52L13.27 3.52Z" fill="currentColor" fill-opacity="1.000000" fill-rule="nonzero"/>
	</g>
</svg>
