<svg width="16.000000" height="16.000000" viewBox="0 0 16 16" fill="none" xmlns="http://www.w3.org/2000/svg" xmlns:xlink="http://www.w3.org/1999/xlink">
	<desc>
			Created with Pixso.
	</desc>
	<defs>
		<clipPath id="clip2_51">
			<rect id="33#皮肤|衣服-skin" width="16.000000" height="16.000000" fill="white" fill-opacity="0"/>
		</clipPath>
	</defs>
	<g clip-path="url(#clip2_51)">
		<path id="路径" d="M6.03 1.88L5.05 1.88C4.37 1.88 3.44 2.29 2.92 2.82L0.9 4.83C0.71 5.03 0.71 5.34 0.9 5.54L3.15 7.79L3.22 7.84C3.31 7.91 3.43 7.94 3.54 7.93L3.56 13.61C3.56 13.89 3.79 14.11 4.06 14.11L11.93 14.11L12.02 14.1C12.25 14.06 12.43 13.86 12.43 13.61L12.43 7.93C12.57 7.94 12.73 7.9 12.84 7.79L15.09 5.54C15.28 5.34 15.28 5.03 15.09 4.83L13.08 2.82C12.55 2.29 11.62 1.88 10.94 1.88L9.96 1.88C9.69 1.88 9.46 2.1 9.46 2.38C9.46 3.19 8.81 3.84 8 3.84C7.19 3.84 6.53 3.19 6.53 2.38C6.53 2.1 6.31 1.88 6.03 1.88ZM10.38 3.01L10.41 2.88L10.94 2.88L11.07 2.89C11.48 2.94 12.06 3.21 12.37 3.53L14.03 5.19L12.49 6.73L12.28 6.52C11.96 6.29 11.43 6.46 11.43 6.87L11.43 13.11L4.56 13.11L4.56 6.87L4.56 6.79C4.49 6.4 4 6.22 3.71 6.52L3.5 6.73L1.96 5.19L3.62 3.53L3.74 3.42C4.1 3.12 4.68 2.88 5.05 2.88L5.58 2.88L5.61 3.01C5.89 4.06 6.85 4.84 8 4.84C9.14 4.84 10.1 4.06 10.38 3.01Z" fill="currentColor" fill-opacity="1.000000" fill-rule="nonzero"/>
	</g>
</svg>
