<svg width="16.000000" height="16.000000" viewBox="0 0 16 16" fill="none" xmlns="http://www.w3.org/2000/svg" xmlns:xlink="http://www.w3.org/1999/xlink">
	<desc>
			Created with Pixso.
	</desc>
	<defs>
		<clipPath id="clip2_37">
			<rect id="34#告警灯-alarm" width="16.000000" height="16.000000" fill="white" fill-opacity="0"/>
		</clipPath>
	</defs>
	<g clip-path="url(#clip2_37)">
		<path id="形状" d="M8.8 4.77C9 4.93 9.04 5.2 8.92 5.41L6.86 7.99L9.82 7.99C10.22 7.99 10.45 8.42 10.25 8.75L7.54 12.14C7.37 12.35 7.06 12.39 6.84 12.22C6.65 12.06 6.6 11.78 6.72 11.58L8.78 9L5.82 9C5.43 9 5.2 8.56 5.4 8.24L8.1 4.85C8.28 4.64 8.59 4.59 8.8 4.77ZM7.82 2C10.62 2 12.9 4.22 12.99 7L12.99 7.16L12.99 13.33C12.99 13.6 12.76 13.83 12.49 13.83C12.24 13.83 12.03 13.64 12 13.4L12 13.33L12 7.16C12 4.86 10.13 3 7.83 3C5.53 3 3.74 4.78 3.66 7.01L3.66 7.16L3.66 13.33L13.83 13.33C14.1 13.33 14.33 13.56 14.33 13.83C14.33 14.08 14.14 14.29 13.9 14.32L13.83 14.32L1.83 14.32C1.56 14.32 1.33 14.1 1.33 13.82C1.33 13.57 1.52 13.36 1.76 13.33L1.83 13.33L2.66 13.33L2.66 7.16C2.66 4.31 4.97 2 7.82 2Z" fill="currentColor" fill-opacity="1.000000" fill-rule="nonzero"/>
	</g>
</svg>
