<svg width="16.000000" height="16.000000" viewBox="0 0 16 16" fill="none" xmlns="http://www.w3.org/2000/svg" xmlns:xlink="http://www.w3.org/1999/xlink">
	<desc>
			Created with Pixso.
	</desc>
	<defs>
		<clipPath id="clip2_139">
			<rect id="35#提醒-remind" width="16.000000" height="16.000000" fill="white" fill-opacity="0"/>
		</clipPath>
	</defs>
	<g clip-path="url(#clip2_139)">
		<path id="形状结合" d="M8.07 1.5C10.74 1.5 12.86 4.04 12.86 7.14L12.86 9L13.96 11.55C14.09 11.86 13.88 12.2 13.56 12.24L10.33 12.25C10.26 13.5 9.25 14.5 8 14.5C6.7 14.5 5.66 13.43 5.66 12.12L5.67 12.25L2.5 12.25C2.15 12.25 1.91 11.9 2.02 11.59L3.29 8.98L3.29 7.14C3.29 4.1 5.33 1.59 7.92 1.5L8.07 1.5ZM9.32 12.25L6.67 12.25L6.68 12.32C6.77 12.96 7.27 13.44 7.9 13.49L8 13.5C8.66 13.5 9.22 12.99 9.31 12.32L9.32 12.25ZM8.07 2.5C6 2.5 4.29 4.56 4.29 7.14L4.29 9.1C4.29 9.18 4.27 9.25 4.24 9.32L3.3 11.25L12.74 11.25L11.9 9.3C11.88 9.26 11.87 9.21 11.86 9.17L11.86 9.1L11.86 7.14C11.86 4.56 10.14 2.5 8.07 2.5Z" fill="currentColor" fill-opacity="1.000000" fill-rule="nonzero"/>
	</g>
</svg>
