<svg width="16.000000" height="16.000000" viewBox="0 0 16 16" fill="none" xmlns="http://www.w3.org/2000/svg" xmlns:xlink="http://www.w3.org/1999/xlink">
	<desc>
			Created with Pixso.
	</desc>
	<defs>
		<clipPath id="clip2_18">
			<rect id="36#定位-position" width="16.000000" height="16.000000" fill="white" fill-opacity="0"/>
		</clipPath>
	</defs>
	<g clip-path="url(#clip2_18)">
		<path id="形状结合" d="M11.5 10L11.5 6C11.5 5.17 10.82 4.5 10 4.5L6 4.5C5.17 4.5 4.5 5.17 4.5 6L4.5 10.01C4.5 10.83 5.16 11.5 5.98 11.5L10 11.5C10.82 11.5 11.5 10.82 11.5 10ZM10.5 10C10.5 10.27 10.27 10.5 10 10.5L5.98 10.5C5.71 10.5 5.5 10.28 5.5 10.01L5.5 6C5.5 5.72 5.72 5.5 6 5.5L10 5.5C10.27 5.5 10.5 5.72 10.5 6L10.5 10ZM8 1C8.27 1 8.5 1.22 8.5 1.5L8.5 3C8.5 3.27 8.27 3.5 8 3.5C7.72 3.5 7.5 3.27 7.5 3L7.5 1.5C7.5 1.22 7.72 1 8 1ZM15 8C15 8.27 14.77 8.5 14.5 8.5L13 8.5C12.72 8.5 12.5 8.27 12.5 8C12.5 7.72 12.72 7.5 13 7.5L14.5 7.5C14.77 7.5 15 7.72 15 8ZM8 15C7.72 15 7.5 14.77 7.5 14.5L7.5 13C7.5 12.72 7.72 12.5 8 12.5C8.27 12.5 8.5 12.72 8.5 13L8.5 14.5C8.5 14.77 8.27 15 8 15ZM1 8C1 7.72 1.22 7.5 1.5 7.5L3 7.5C3.27 7.5 3.5 7.72 3.5 8C3.5 8.27 3.27 8.5 3 8.5L1.5 8.5C1.22 8.5 1 8.27 1 8Z" fill="currentColor" fill-opacity="1.000000" fill-rule="nonzero"/>
	</g>
</svg>
