<svg width="16.000000" height="16.000000" viewBox="0 0 16 16" fill="none" xmlns="http://www.w3.org/2000/svg" xmlns:xlink="http://www.w3.org/1999/xlink">
	<desc>
			Created with Pixso.
	</desc>
	<defs>
		<clipPath id="clip2_163">
			<rect id="4#消息-message" width="16.000000" height="16.000000" fill="white" fill-opacity="0"/>
		</clipPath>
	</defs>
	<g clip-path="url(#clip2_163)">
		<path id="形状结合" d="M11.53 2.43C12.91 2.43 14.03 3.59 14.03 5L14.03 9.46C14.03 10.88 12.91 12.03 11.53 12.03L10.06 12.03L8.72 13.39C8.56 13.57 8.34 13.68 8.1 13.71L7.99 13.72C7.72 13.72 7.46 13.6 7.28 13.4L6.06 12.05L4.54 12.03C3.16 12.03 2.03 10.88 2.03 9.46L2.03 5C2.03 3.59 3.16 2.43 4.54 2.43L11.53 2.43ZM11.53 3.43L4.54 3.43C3.72 3.43 3.03 4.13 3.03 5L3.03 9.46C3.03 10.33 3.72 11.03 4.54 11.03L6.02 11.03C6.32 11.03 6.6 11.16 6.8 11.38L7.99 12.7L9.27 11.39C9.47 11.16 9.76 11.03 10.06 11.03L11.53 11.03C12.35 11.03 13.03 10.33 13.03 9.46L13.03 5C13.03 4.13 12.35 3.43 11.53 3.43ZM7.69 6.73C7.88 6.62 8.12 6.62 8.32 6.73C8.51 6.84 8.63 7.05 8.63 7.27C8.63 7.6 8.35 7.88 8 7.88C7.65 7.88 7.37 7.6 7.37 7.27C7.37 7.05 7.49 6.84 7.69 6.73ZM4.92 6.65C5.27 6.65 5.55 6.93 5.55 7.27C5.55 7.48 5.43 7.69 5.23 7.8C5.04 7.91 4.8 7.91 4.61 7.8C4.41 7.69 4.29 7.48 4.29 7.27C4.29 6.93 4.57 6.65 4.92 6.65ZM11.08 6.65C11.43 6.65 11.71 6.93 11.71 7.27C11.71 7.6 11.43 7.88 11.08 7.88C10.74 7.88 10.45 7.6 10.45 7.27C10.45 6.93 10.74 6.65 11.08 6.65Z" fill="currentColor" fill-opacity="1.000000" fill-rule="nonzero"/>
	</g>
</svg>
