<svg width="16.000000" height="16.000000" viewBox="0 0 16 16" fill="none" xmlns="http://www.w3.org/2000/svg" xmlns:xlink="http://www.w3.org/1999/xlink">
	<desc>
			Created with Pixso.
	</desc>
	<defs>
		<clipPath id="clip2_144">
			<rect id="40#投屏-cast" width="16.000000" height="16.000000" fill="white" fill-opacity="0"/>
		</clipPath>
	</defs>
	<g clip-path="url(#clip2_144)">
		<path id="形状结合" d="M8.35 8.06L9.9 9.61C10.09 9.81 10.09 10.12 9.9 10.32C9.7 10.51 9.38 10.51 9.19 10.32L8.49 9.62L8.49 13.33L9.66 13.33C9.94 13.33 10.16 13.55 10.16 13.83C10.16 14.1 9.94 14.33 9.66 14.33L6.33 14.33C6.05 14.33 5.83 14.1 5.83 13.83C5.83 13.55 6.05 13.33 6.33 13.33L7.49 13.33L7.49 9.62L6.8 10.32C6.62 10.5 6.34 10.51 6.14 10.36C5.95 10.17 5.9 9.81 6.09 9.61L7.64 8.06C7.84 7.87 8.15 7.87 8.35 8.06ZM11.33 2C13.08 2 14.5 3.41 14.5 5.16L14.5 9.16C14.5 10.91 13.08 12.33 11.33 12.33C11.05 12.33 10.83 12.1 10.83 11.83C10.83 11.55 11.05 11.33 11.33 11.33C12.52 11.33 13.5 10.36 13.5 9.16L13.5 5.16C13.5 3.97 12.52 3 11.33 3L4.66 3C3.47 3 2.5 3.97 2.5 5.16L2.5 9.16C2.5 10.36 3.47 11.33 4.66 11.33C4.94 11.33 5.16 11.55 5.16 11.83C5.16 12.1 4.94 12.33 4.66 12.33C2.91 12.33 1.5 10.91 1.5 9.16L1.5 5.16C1.5 3.41 2.91 2 4.66 2L11.33 2Z" fill="currentColor" fill-opacity="1.000000" fill-rule="nonzero"/>
	</g>
</svg>
