<svg width="16.000000" height="16.000000" viewBox="0 0 16 16" fill="none" xmlns="http://www.w3.org/2000/svg" xmlns:xlink="http://www.w3.org/1999/xlink">
	<desc>
			Created with Pixso.
	</desc>
	<defs>
		<clipPath id="clip2_76">
			<rect id="41#插头|扩展-plug" width="16.000000" height="16.000000" fill="white" fill-opacity="0"/>
		</clipPath>
	</defs>
	<g clip-path="url(#clip2_76)">
		<path id="形状" d="M7.5 5.66C7.77 5.66 8 5.89 8 6.16C8 6.44 7.77 6.66 7.5 6.66L5.86 6.66C5.58 6.66 5.36 6.44 5.36 6.16C5.36 5.89 5.58 5.66 5.86 5.66L7.5 5.66ZM6.18 8.32C6.45 8.32 6.68 8.55 6.68 8.82L6.68 9.84C6.68 10.11 6.45 10.34 6.18 10.34C5.9 10.34 5.68 10.11 5.68 9.84L5.68 8.82C5.68 8.55 5.9 8.32 6.18 8.32ZM12.66 4.33L5.47 4.33C4.92 4.33 4.47 4.78 4.47 5.33L4.47 10.66C4.47 11.22 4.92 11.66 5.47 11.66L12.66 11.66C13.22 11.66 13.66 11.22 13.66 10.66L13.66 5.33C13.66 4.78 13.22 4.33 12.66 4.33ZM12.66 3.33C13.77 3.33 14.66 4.22 14.66 5.33L14.66 10.66C14.66 11.77 13.77 12.66 12.66 12.66L5.47 12.66C4.36 12.66 3.47 11.77 3.47 10.66L3.47 9.83L1.83 9.83C1.56 9.83 1.33 9.6 1.33 9.33C1.33 9.06 1.56 8.83 1.83 8.83L3.47 8.83L3.47 7.16L1.83 7.16C1.56 7.16 1.33 6.94 1.33 6.66C1.33 6.39 1.56 6.16 1.83 6.16L3.47 6.16L3.47 5.33C3.47 4.22 4.36 3.33 5.47 3.33L12.66 3.33Z" fill="currentColor" fill-opacity="1.000000" fill-rule="nonzero"/>
	</g>
</svg>
