<svg width="16.000000" height="16.000000" viewBox="0 0 16 16" fill="none" xmlns="http://www.w3.org/2000/svg" xmlns:xlink="http://www.w3.org/1999/xlink">
	<desc>
			Created with Pixso.
	</desc>
	<defs>
		<clipPath id="clip2_25">
			<rect id="42#灯泡|想法-idea" width="16.000000" height="16.000000" fill="white" fill-opacity="0"/>
		</clipPath>
	</defs>
	<g clip-path="url(#clip2_25)">
		<path id="形状结合" d="M7.99 1.14C5.29 1.14 3.09 3.34 3.09 6.04L3.1 6.27C3.17 7.8 3.94 9.18 5.16 10.04L5.29 10.13L5.29 11.27C5.29 12.15 6.01 12.87 6.89 12.87L9.09 12.87L9.24 12.86C10.06 12.79 10.69 12.1 10.69 11.27L10.7 10.13L10.83 10.04C12.11 9.14 12.89 7.66 12.89 6.04C12.89 3.34 10.7 1.14 7.99 1.14ZM7.99 2.14C10.15 2.14 11.89 3.89 11.89 6.04C11.89 7.45 11.14 8.73 9.95 9.42L9.7 9.57L9.69 11.27C9.69 11.6 9.43 11.87 9.09 11.87L6.89 11.87C6.56 11.87 6.29 11.6 6.29 11.27L6.29 9.57L6.04 9.42C4.85 8.73 4.09 7.45 4.09 6.04C4.09 3.89 5.84 2.14 7.99 2.14ZM9.97 13.8C10.25 13.8 10.47 14.02 10.47 14.3C10.47 14.57 10.25 14.8 9.97 14.8L6.01 14.8C5.74 14.8 5.51 14.57 5.51 14.3C5.51 14.02 5.74 13.8 6.01 13.8L9.97 13.8Z" fill="currentColor" fill-opacity="1.000000" fill-rule="nonzero"/>
	</g>
</svg>
