<svg width="16.000000" height="16.000000" viewBox="0 0 16 16" fill="none" xmlns="http://www.w3.org/2000/svg" xmlns:xlink="http://www.w3.org/1999/xlink">
	<desc>
			Created with Pixso.
	</desc>
	<defs>
		<clipPath id="clip2_85">
			<rect id="43#正方体-cube" width="16.000000" height="16.000000" fill="white" fill-opacity="0"/>
		</clipPath>
	</defs>
	<g clip-path="url(#clip2_85)">
		<path id="形状" d="M8.32 14.68C8 14.68 7.69 14.6 7.4 14.43L2.92 11.85C2.35 11.52 2 10.91 2 10.26L2 5.08C2 4.43 2.35 3.82 2.92 3.49L7.4 0.91C7.97 0.58 8.67 0.58 9.23 0.91L13.72 3.49C14.29 3.82 14.64 4.43 14.64 5.08L14.64 10.26C14.64 10.91 14.29 11.52 13.72 11.85L9.23 14.43C8.95 14.59 8.64 14.68 8.32 14.68ZM3 5.18L3 10.26C3 10.55 3.16 10.83 3.42 10.98L7.83 13.53L7.83 7.93C7.75 7.91 7.67 7.87 7.6 7.83L3 5.18ZM8.83 7.93L8.83 13.51L13.22 10.98C13.48 10.83 13.63 10.55 13.63 10.26L13.63 5.18L9.06 7.83C8.98 7.87 8.9 7.91 8.83 7.93ZM3.5 4.31L8.1 6.96C8.24 7.04 8.42 7.04 8.56 6.96L13.14 4.31L8.73 1.77C8.48 1.63 8.16 1.63 7.9 1.77L3.5 4.31Z" fill="currentColor" fill-opacity="1.000000" fill-rule="nonzero"/>
	</g>
</svg>
