<svg width="16.000000" height="16.000000" viewBox="0 0 16 16" fill="none" xmlns="http://www.w3.org/2000/svg" xmlns:xlink="http://www.w3.org/1999/xlink">
	<desc>
			Created with Pixso.
	</desc>
	<defs>
		<clipPath id="clip2_41">
			<rect id="44#麦克风|公告-speeker" width="16.000000" height="16.000000" fill="white" fill-opacity="0"/>
		</clipPath>
	</defs>
	<g clip-path="url(#clip2_41)">
		<path id="形状结合" d="M12.73 1.71C13.54 1.47 14.39 1.93 14.63 2.74C14.67 2.89 14.7 3.03 14.7 3.18L14.7 11.16C14.7 12 14.01 12.69 13.16 12.69C13.01 12.69 12.87 12.67 12.73 12.63L10.82 12.06L10.82 12.65C10.82 13.74 9.97 14.63 8.89 14.69L8.77 14.7L5.67 14.7C4.54 14.7 3.62 13.78 3.62 12.65L3.62 10.33L3.35 10.33C2.31 10.33 1.45 9.55 1.31 8.55L1.3 8.43L1.3 8.28L1.3 6.06C1.3 4.93 2.21 4.01 3.35 4.01L4.99 4.01L12.73 1.71ZM4.99 10.33L4.62 10.33L4.62 12.65C4.62 13.23 5.09 13.7 5.67 13.7L8.77 13.7C9.35 13.7 9.82 13.23 9.82 12.65L9.82 11.76L6.63 10.81L4.99 10.33ZM13.64 2.94C13.52 2.71 13.26 2.6 13.01 2.67L5.2 4.99L5.06 5.01L3.35 5.01C2.77 5.01 2.3 5.48 2.3 6.06L2.3 8.28C2.3 8.86 2.77 9.33 3.35 9.33L4.12 9.33L5.06 9.33L5.2 9.35L10.46 10.91L13.01 11.67C13.06 11.68 13.11 11.69 13.16 11.69C13.46 11.69 13.7 11.45 13.7 11.16L13.7 3.18C13.7 3.13 13.69 3.08 13.67 3.03L13.64 2.94Z" fill="currentColor" fill-opacity="1.000000" fill-rule="nonzero"/>
	</g>
</svg>
