<svg width="16.000000" height="16.000000" viewBox="0 0 16 16" fill="none" xmlns="http://www.w3.org/2000/svg" xmlns:xlink="http://www.w3.org/1999/xlink">
	<desc>
			Created with Pixso.
	</desc>
	<defs>
		<clipPath id="clip2_96">
			<rect id="45#清除-clean" width="16.000000" height="16.000000" fill="white" fill-opacity="0"/>
		</clipPath>
	</defs>
	<g clip-path="url(#clip2_96)">
		<path id="形状结合" d="M8 1.07C8.27 1.07 8.5 1.29 8.5 1.57L8.49 5.58L11.51 5.58C12.03 5.58 12.46 6.01 12.56 6.54L12.57 6.64L13.16 13.12C13.22 13.74 12.74 14.26 12.11 14.26L3.88 14.26C3.25 14.26 2.78 13.74 2.83 13.12L3.42 6.64C3.47 6.06 3.92 5.58 4.48 5.58L7.49 5.58L7.5 1.57C7.5 1.29 7.72 1.07 8 1.07ZM11.51 6.58L4.48 6.58C4.48 6.58 4.42 6.64 4.42 6.73L3.83 13.21L5.23 13.26L5.23 11.76C5.23 11.49 5.45 11.26 5.73 11.26C6 11.26 6.23 11.49 6.23 11.76L6.23 13.26L7.49 13.26L7.5 11.76C7.5 11.49 7.72 11.26 8 11.26C8.27 11.26 8.5 11.49 8.5 11.76L8.49 13.26L9.76 13.26L9.76 11.76C9.76 11.49 9.99 11.26 10.26 11.26C10.54 11.26 10.76 11.49 10.76 11.76L10.76 13.26L12.11 13.26L11.57 6.73C11.57 6.64 11.51 6.58 11.51 6.58ZM8.75 8.05C9.02 8.05 9.25 8.28 9.25 8.55C9.25 8.83 9.02 9.05 8.75 9.05L7.25 9.05C6.97 9.05 6.75 8.83 6.75 8.55C6.75 8.28 6.97 8.05 7.25 8.05L8.75 8.05Z" fill="currentColor" fill-opacity="1.000000" fill-rule="nonzero"/>
	</g>
</svg>
