<svg width="16.000000" height="16.000000" viewBox="0 0 16 16" fill="none" xmlns="http://www.w3.org/2000/svg" xmlns:xlink="http://www.w3.org/1999/xlink">
	<desc>
			Created with Pixso.
	</desc>
	<defs>
		<clipPath id="clip2_15">
			<rect id="46#拖动手形-choose-drag" width="16.000000" height="16.000000" fill="white" fill-opacity="0"/>
		</clipPath>
	</defs>
	<g clip-path="url(#clip2_15)">
		<path id="形状结合" d="M14.08 11.89C14.08 14.05 12.43 15.8 10.4 15.8L9.18 15.8C7.78 15.8 6.44 15.22 5.45 14.17L2.11 10.63C1.53 10.01 1.53 9.02 2.11 8.4C2.69 7.79 3.63 7.79 4.22 8.43L5.11 9.49L5.12 3.12C5.12 2.25 5.78 1.55 6.6 1.55C6.9 1.55 7.18 1.64 7.41 1.81C7.68 1.43 8.11 1.18 8.6 1.18C9.22 1.18 9.76 1.6 9.97 2.18C10.16 2.09 10.37 2.03 10.6 2.03C11.41 2.03 12.08 2.74 12.08 3.61L12.07 3.83C12.24 3.77 12.41 3.73 12.6 3.73C13.41 3.73 14.08 4.44 14.08 5.31L14.08 11.89ZM13.12 5.31C13.12 5 12.88 4.75 12.6 4.75C12.33 4.75 12.11 4.96 12.08 5.23L12.08 5.31L12.08 8.49C12.08 8.78 11.86 9 11.6 9C11.33 9 11.12 8.78 11.12 8.49L11.12 3.61C11.12 3.3 10.88 3.05 10.6 3.05C10.33 3.05 10.11 3.26 10.08 3.53L10.08 3.61L10.08 8.28C10.08 8.56 9.86 8.79 9.6 8.79C9.33 8.79 9.12 8.56 9.12 8.28L9.12 2.76C9.12 2.45 8.88 2.2 8.6 2.2C8.33 2.2 8.11 2.41 8.08 2.68L8.08 2.76C8.08 2.8 8.07 2.85 8.06 2.89C8.07 2.96 8.08 3.04 8.08 3.12L8.08 8.49C8.08 8.78 7.86 9 7.6 9C7.33 9 7.12 8.78 7.12 8.49L7.12 3.12C7.12 2.81 6.88 2.57 6.6 2.57C6.31 2.57 6.08 2.81 6.08 3.12L6.08 10.83C6.08 10.87 6.07 10.91 6.06 10.94C6.05 10.98 6.02 11.06 6.01 11.09C6 11.1 5.96 11.16 5.95 11.17L5.87 11.25C5.87 11.25 5.8 11.29 5.79 11.3C5.77 11.3 5.69 11.33 5.68 11.33C5.65 11.34 5.62 11.34 5.6 11.34C5.59 11.34 5.53 11.34 5.52 11.34C5.46 11.33 5.4 11.3 5.35 11.27L5.28 11.21L3.52 9.13C3.32 8.91 2.99 8.91 2.79 9.13C2.59 9.34 2.59 9.69 2.79 9.91L6.13 13.45C6.94 14.3 8.04 14.78 9.18 14.78L10.4 14.78C11.9 14.78 13.12 13.49 13.12 11.89L13.12 5.31Z" fill="currentColor" fill-opacity="1.000000" fill-rule="nonzero"/>
	</g>
</svg>
