<svg width="16.000000" height="16.000000" viewBox="0 0 16 16" fill="none" xmlns="http://www.w3.org/2000/svg" xmlns:xlink="http://www.w3.org/1999/xlink">
	<desc>
			Created with Pixso.
	</desc>
	<defs>
		<clipPath id="clip2_14">
			<rect id="47#点击手形-click" width="16.000000" height="16.000000" fill="white" fill-opacity="0"/>
		</clipPath>
	</defs>
	<g clip-path="url(#clip2_14)">
		<path id="形状结合" d="M6.71 1.11C7.53 1.11 8.19 1.78 8.19 2.59L8.19 4.41C8.36 4.35 8.53 4.31 8.71 4.31C9.34 4.31 9.88 4.7 10.09 5.25C10.28 5.16 10.49 5.11 10.71 5.11C11.34 5.11 11.88 5.5 12.09 6.05C12.28 5.96 12.49 5.91 12.71 5.91C13.53 5.91 14.19 6.58 14.19 7.39L14.19 10.19C14.19 10.22 14.19 10.25 14.19 10.28C14.19 10.31 14.19 10.34 14.19 10.37L14.19 11.19C14.19 13.23 12.55 14.87 10.51 14.87L9.3 14.87C7.9 14.87 6.56 14.32 5.57 13.33L2.23 10C1.65 9.42 1.65 8.49 2.23 7.91C2.81 7.33 3.74 7.33 4.34 7.93L5.23 8.93L5.23 2.59C5.23 1.78 5.9 1.11 6.71 1.11ZM6.71 2.07C6.43 2.07 6.19 2.31 6.19 2.59L6.19 10.19C6.19 10.23 6.19 10.26 6.18 10.3C6.17 10.33 6.14 10.41 6.13 10.44C6.12 10.45 6.08 10.51 6.07 10.51L5.99 10.58C5.98 10.59 5.92 10.63 5.91 10.63C5.89 10.64 5.81 10.66 5.79 10.67C5.77 10.67 5.74 10.67 5.71 10.67C5.7 10.67 5.65 10.67 5.64 10.67C5.58 10.66 5.52 10.64 5.47 10.61L5.4 10.55L3.64 8.59C3.44 8.38 3.11 8.38 2.91 8.59C2.71 8.79 2.71 9.12 2.91 9.32L6.25 12.65C7.06 13.46 8.15 13.91 9.3 13.91L10.51 13.91C12.02 13.91 13.23 12.7 13.23 11.19L13.23 10.37C13.23 10.34 13.24 10.31 13.24 10.28C13.24 10.25 13.23 10.22 13.23 10.19L13.23 7.39C13.23 7.11 13 6.87 12.71 6.87C12.45 6.87 12.23 7.07 12.2 7.32L12.19 7.39L12.19 9.39C12.19 9.66 11.98 9.87 11.71 9.87C11.45 9.87 11.23 9.66 11.23 9.39L11.23 6.59C11.23 6.31 11 6.07 10.71 6.07C10.45 6.07 10.23 6.27 10.2 6.52L10.19 6.59L10.19 8.59C10.19 8.86 9.98 9.07 9.71 9.07C9.45 9.07 9.23 8.86 9.23 8.59L9.23 5.79C9.23 5.51 9 5.27 8.71 5.27C8.45 5.27 8.23 5.47 8.2 5.72L8.19 5.79L8.19 7.99C8.19 8.26 7.98 8.47 7.71 8.47C7.45 8.47 7.23 8.26 7.23 7.99L7.23 2.59C7.23 2.31 7 2.07 6.71 2.07Z" fill="currentColor" fill-opacity="1.000000" fill-rule="nonzero"/>
	</g>
</svg>
