<svg width="16.000000" height="16.000000" viewBox="0 0 16 16" fill="none" xmlns="http://www.w3.org/2000/svg" xmlns:xlink="http://www.w3.org/1999/xlink">
	<desc>
			Created with Pixso.
	</desc>
	<defs/>
	<rect id="48#拖动中手形-choosing" width="16.000000" height="16.000000" fill="#FFFFFF" fill-opacity="0"/>
	<rect id="size" width="16.000000" height="16.000000" fill="#D8D8D8" fill-opacity="0"/>
	<rect id="size" x="0.500000" y="0.500000" width="15.000000" height="15.000000" stroke="#979797" stroke-opacity="0" stroke-width="1.000000"/>
	<path id="路径" d="M6.59 5.12C7.41 5.12 8.08 5.78 8.08 6.59L8.08 7.48C8.08 7.74 7.86 7.96 7.59 7.96C7.33 7.96 7.12 7.74 7.12 7.48L7.12 6.59C7.12 6.31 6.88 6.08 6.59 6.08C6.31 6.08 6.08 6.31 6.08 6.59L6.08 8.62C6.08 8.89 5.86 9.1 5.6 9.1C5.33 9.1 5.12 8.89 5.12 8.62L5.12 6.59C5.12 5.78 5.78 5.12 6.59 5.12Z" fill="currentColor" fill-opacity="1.000000" fill-rule="evenodd"/>
	<path id="路径" d="M4.6 7.12C5.41 7.12 6.08 7.78 6.08 8.59L6.08 9.48C6.08 9.74 5.86 9.96 5.6 9.96C5.33 9.96 5.12 9.74 5.12 9.48L5.12 8.59C5.12 8.31 4.88 8.08 4.6 8.08C4.31 8.08 4.07 8.31 4.07 8.59L4.07 10.83C4.07 11.09 3.86 11.31 3.6 11.31C3.33 11.31 3.12 11.09 3.12 10.83L3.12 8.59C3.12 7.78 3.78 7.12 4.6 7.12Z" fill="currentColor" fill-opacity="1.000000" fill-rule="evenodd"/>
	<path id="路径" d="M8.59 4.32C9.41 4.32 10.08 4.98 10.08 5.79L10.08 7.48C10.08 7.74 9.86 7.96 9.59 7.96C9.33 7.96 9.12 7.74 9.12 7.48L9.12 5.79C9.12 5.51 8.88 5.28 8.59 5.28C8.33 5.28 8.11 5.47 8.08 5.72L8.08 5.79C8.08 6.06 7.86 6.28 7.59 6.28C7.33 6.28 7.12 6.06 7.12 5.79C7.12 4.98 7.78 4.32 8.59 4.32Z" fill="currentColor" fill-opacity="1.000000" fill-rule="evenodd"/>
	<path id="路径" d="M10.6 5.12C11.41 5.12 12.08 5.78 12.08 6.59L12.08 7.81C12.08 8.08 11.86 8.29 11.6 8.29C11.33 8.29 11.12 8.08 11.12 7.81L11.12 6.59C11.12 6.31 10.88 6.08 10.6 6.08C10.33 6.08 10.11 6.27 10.08 6.52L10.08 6.59C10.08 6.86 9.86 7.08 9.59 7.08C9.33 7.08 9.12 6.86 9.12 6.59C9.12 5.78 9.78 5.12 10.6 5.12Z" fill="currentColor" fill-opacity="1.000000" fill-rule="evenodd"/>
	<path id="路径" d="M12.6 6.31C13.41 6.31 14.08 6.97 14.08 7.79L14.08 10.2C14.08 10.46 13.86 10.68 13.6 10.68C13.33 10.68 13.12 10.46 13.12 10.2L13.12 7.79C13.12 7.5 12.88 7.27 12.6 7.27C12.33 7.27 12.11 7.46 12.08 7.72L12.08 7.91C12.08 8.18 11.86 8.39 11.6 8.39C11.33 8.39 11.12 8.18 11.12 7.91C11.12 7.09 11.78 6.31 12.6 6.31Z" fill="currentColor" fill-opacity="1.000000" fill-rule="evenodd"/>
	<path id="路径" d="M4.59 7.5C5.63 7.5 6.1 8.28 6.1 9.31C6.1 9.59 5.87 9.81 5.6 9.81C5.32 9.81 5.1 9.59 5.1 9.31C5.1 8.76 4.94 8.5 4.59 8.5C4.28 8.5 4.11 8.74 4.1 9.19L4.1 11.02C4.1 12.38 6.27 14 9.12 14.04C10.28 14.05 12.1 13.47 12.62 12.77C12.69 12.68 12.78 12.44 12.86 12.09L12.93 11.76L12.96 11.58L13.1 9.28C13.11 9.01 13.35 8.8 13.62 8.81C13.87 8.83 14.06 9.02 14.09 9.25L14.09 9.34L13.96 11.69C13.82 12.52 13.65 13.07 13.43 13.37C12.67 14.39 10.56 15.05 9.11 15.04C5.85 15 3.24 13.1 3.1 11.17L3.1 11.02L3.1 9.33C3.06 8.33 3.55 7.5 4.59 7.5Z" fill="currentColor" fill-opacity="1.000000" fill-rule="evenodd"/>
</svg>
