<svg width="16.000000" height="16.000000" viewBox="0 0 16 16" fill="none" xmlns="http://www.w3.org/2000/svg" xmlns:xlink="http://www.w3.org/1999/xlink">
	<desc>
			Created with Pixso.
	</desc>
	<defs>
		<clipPath id="clip2_119">
			<rect id="49#设置|齿轮-setting" width="16.000000" height="16.000000" fill="white" fill-opacity="0"/>
		</clipPath>
	</defs>
	<g clip-path="url(#clip2_119)">
		<path id="形状结合" d="M8.87 1.19C9.42 1.19 9.92 1.48 10.21 1.98L10.28 2.12L10.69 3.09L10.91 3.21L11.97 3.09C12.43 3.03 12.9 3.19 13.24 3.53L13.35 3.66L13.45 3.8L14.35 5.35C14.62 5.81 14.62 6.39 14.34 6.89L14.25 7.03L13.61 7.88L13.61 8.11L14.25 8.96C14.53 9.34 14.62 9.82 14.5 10.29L14.45 10.44L14.37 10.6L13.47 12.15C13.2 12.63 12.69 12.91 12.12 12.91L11.97 12.9L10.91 12.78L10.69 12.9L10.28 13.87C10.09 14.3 9.72 14.62 9.25 14.75L9.09 14.78L8.92 14.8L7.12 14.8C6.57 14.8 6.07 14.51 5.78 14.01L5.71 13.87L5.29 12.9L5.08 12.78L4.02 12.9C3.56 12.96 3.09 12.8 2.75 12.46L2.64 12.33L2.54 12.19L1.64 10.64C1.37 10.18 1.37 9.6 1.65 9.1L1.74 8.96L2.38 8.11L2.38 7.88L1.74 7.03C1.46 6.65 1.37 6.17 1.49 5.7L1.54 5.55L1.62 5.39L2.52 3.84C2.79 3.36 3.3 3.08 3.87 3.08L4.02 3.09L5.08 3.21L5.29 3.09L5.71 2.12C5.9 1.69 6.27 1.37 6.74 1.24L6.9 1.21L7.08 1.19L8.87 1.19ZM7.13 2.19L7.03 2.2C6.85 2.23 6.7 2.35 6.63 2.51L6.15 3.64C6.1 3.74 6.03 3.82 5.94 3.88L5.44 4.16C5.34 4.22 5.24 4.24 5.13 4.23L3.93 4.08L3.84 4.08C3.65 4.08 3.48 4.18 3.38 4.34L2.51 5.84L2.47 5.93C2.4 6.09 2.43 6.28 2.54 6.43L3.28 7.41C3.35 7.49 3.38 7.6 3.38 7.71L3.38 8.28C3.38 8.39 3.35 8.5 3.28 8.58L2.56 9.54L2.5 9.62C2.41 9.78 2.41 9.98 2.51 10.14L3.38 11.64L3.43 11.72C3.54 11.86 3.72 11.93 3.9 11.91L5.13 11.76C5.24 11.75 5.34 11.77 5.44 11.83L5.94 12.11C6.03 12.17 6.1 12.25 6.15 12.35L6.62 13.45L6.66 13.53C6.75 13.7 6.93 13.8 7.12 13.8L8.86 13.8L8.96 13.79C9.14 13.76 9.29 13.64 9.36 13.48L9.84 12.35C9.88 12.25 9.96 12.17 10.05 12.11L10.55 11.83C10.65 11.77 10.75 11.75 10.86 11.76L12.06 11.91L12.15 11.91C12.34 11.91 12.51 11.81 12.61 11.65L13.48 10.15L13.52 10.06C13.58 9.9 13.56 9.71 13.45 9.56L12.71 8.58C12.64 8.5 12.61 8.39 12.61 8.28L12.61 7.71C12.61 7.6 12.64 7.49 12.71 7.41L13.43 6.45L13.49 6.37C13.58 6.21 13.58 6.01 13.48 5.85L12.61 4.35L12.56 4.27C12.44 4.13 12.27 4.06 12.09 4.08L10.86 4.23C10.75 4.24 10.65 4.22 10.55 4.16L10.05 3.88C9.96 3.82 9.88 3.74 9.84 3.64L9.37 2.54L9.33 2.46C9.24 2.29 9.06 2.19 8.87 2.19L7.13 2.19ZM8.03 5.38C9.48 5.38 10.65 6.55 10.65 8C10.65 9.44 9.48 10.61 8.03 10.61C6.59 10.61 5.42 9.44 5.42 8C5.42 6.55 6.59 5.38 8.03 5.38ZM8.03 6.38C7.14 6.38 6.42 7.1 6.42 8C6.42 8.89 7.14 9.61 8.03 9.61C8.93 9.61 9.65 8.89 9.65 8C9.65 7.1 8.93 6.38 8.03 6.38Z" fill="currentColor" fill-opacity="1.000000" fill-rule="nonzero"/>
	</g>
</svg>
