<svg width="16.000000" height="16.000000" viewBox="0 0 16 16" fill="none" xmlns="http://www.w3.org/2000/svg" xmlns:xlink="http://www.w3.org/1999/xlink">
	<desc>
			Created with Pixso.
	</desc>
	<defs>
		<clipPath id="clip2_109">
			<rect id="5#日期-date" width="16.000000" height="16.000000" fill="white" fill-opacity="0"/>
		</clipPath>
	</defs>
	<g clip-path="url(#clip2_109)">
		<path id="形状结合" d="M10.51 1.69C10.78 1.69 11.01 1.92 11.01 2.19L11.01 2.99L12.5 2.99C13.83 2.99 14.92 4.04 14.99 5.36L15 5.49L15 11.49C15 12.87 13.88 13.99 12.5 13.99L3.5 13.99C2.11 13.99 1 12.87 1 11.49L1 5.49C1 4.11 2.11 2.99 3.5 2.99L5.01 2.99L5.01 2.19C5.01 1.92 5.23 1.69 5.51 1.69C5.78 1.69 6.01 1.92 6.01 2.19L6.01 2.99L10.01 2.99L10.01 2.19C10.01 1.92 10.23 1.69 10.51 1.69ZM5.01 3.99L3.5 3.99C2.67 3.99 2 4.67 2 5.49L2 11.49C2 12.32 2.67 12.99 3.5 12.99L12.5 12.99C13.32 12.99 14 12.32 14 11.49L14 5.49C14 4.67 13.32 3.99 12.5 3.99L11.01 3.99L11.01 4.19C11.01 4.47 10.78 4.69 10.51 4.69C10.23 4.69 10.01 4.47 10.01 4.19L10.01 3.99L6.01 3.99L6.01 4.19C6.01 4.47 5.78 4.69 5.51 4.69C5.23 4.69 5.01 4.47 5.01 4.19L5.01 3.99ZM4.88 9.2C5.32 9.2 5.68 9.55 5.68 10C5.68 10.44 5.32 10.8 4.88 10.8C4.44 10.8 4.08 10.44 4.08 10C4.08 9.55 4.44 9.2 4.88 9.2ZM8.01 9.2C8.45 9.2 8.81 9.55 8.81 10C8.81 10.44 8.45 10.8 8.01 10.8C7.57 10.8 7.21 10.44 7.21 10C7.21 9.55 7.57 9.2 8.01 9.2ZM11.11 9.2C11.55 9.2 11.91 9.55 11.91 10C11.91 10.44 11.55 10.8 11.11 10.8C10.67 10.8 10.31 10.44 10.31 10C10.31 9.55 10.67 9.2 11.11 9.2ZM4.91 6.19C5.35 6.19 5.71 6.55 5.71 6.99C5.71 7.44 5.35 7.79 4.91 7.79C4.47 7.79 4.11 7.44 4.11 6.99C4.11 6.55 4.47 6.19 4.91 6.19ZM8.01 6.19C8.45 6.19 8.81 6.55 8.81 6.99C8.81 7.44 8.45 7.79 8.01 7.79C7.57 7.79 7.21 7.44 7.21 6.99C7.21 6.55 7.57 6.19 8.01 6.19ZM11.11 6.19C11.55 6.19 11.91 6.55 11.91 6.99C11.91 7.44 11.55 7.79 11.11 7.79C10.67 7.79 10.31 7.44 10.31 6.99C10.31 6.55 10.67 6.19 11.11 6.19Z" fill="currentColor" fill-opacity="1.000000" fill-rule="nonzero"/>
	</g>
</svg>
