<svg width="16.000000" height="16.000000" viewBox="0 0 16 16" fill="none" xmlns="http://www.w3.org/2000/svg" xmlns:xlink="http://www.w3.org/1999/xlink">
	<desc>
			Created with Pixso.
	</desc>
	<defs>
		<clipPath id="clip2_169">
			<rect id="50#修复-repair" width="16.000000" height="16.000000" fill="white" fill-opacity="0"/>
		</clipPath>
	</defs>
	<g clip-path="url(#clip2_169)">
		<path id="形状结合" d="M12.97 4.37L11.53 5.81C11.18 6.15 10.62 6.15 10.27 5.81C9.92 5.46 9.92 4.9 10.27 4.55L11.71 3.11C11.95 2.87 11.89 2.46 11.58 2.31C9.76 1.41 7.55 1.76 6.09 3.22L5.93 3.39C4.85 4.58 4.45 6.22 4.83 7.76L4.87 7.88L2.63 10.12C1.71 11.04 1.71 12.53 2.63 13.45L2.74 13.56C3.67 14.37 5.07 14.33 5.95 13.45L8.19 11.21L8.32 11.25C9.93 11.64 11.65 11.19 12.86 9.99C14.31 8.53 14.66 6.32 13.77 4.5C13.62 4.19 13.21 4.12 12.97 4.37ZM13.13 5.62C13.44 6.88 13.11 8.32 12.15 9.28C11.11 10.32 9.58 10.65 8.22 10.17C8.04 10.11 7.84 10.16 7.7 10.29L5.24 12.74C4.72 13.27 3.86 13.27 3.33 12.74C2.8 12.22 2.8 11.36 3.33 10.83L5.79 8.38C5.92 8.24 5.97 8.04 5.9 7.86C5.43 6.5 5.76 4.97 6.8 3.93L6.95 3.79C7.9 2.93 9.2 2.63 10.4 2.93L9.56 3.84C8.83 4.58 8.83 5.78 9.56 6.51C10.3 7.25 11.5 7.25 12.23 6.51L13.13 5.62Z" fill="currentColor" fill-opacity="1.000000" fill-rule="nonzero"/>
	</g>
</svg>
