<svg width="16.000000" height="16.000000" viewBox="0 0 16 16" fill="none" xmlns="http://www.w3.org/2000/svg" xmlns:xlink="http://www.w3.org/1999/xlink">
	<desc>
			Created with Pixso.
	</desc>
	<defs>
		<clipPath id="clip2_151">
			<rect id="6#书签-bookmark" width="16.000000" height="16.000000" fill="white" fill-opacity="0"/>
		</clipPath>
	</defs>
	<g clip-path="url(#clip2_151)">
		<path id="形状" d="M10.65 1.33L5.16 1.33C3.78 1.33 2.66 2.45 2.66 3.83L2.66 13.38C2.66 13.58 2.72 13.78 2.84 13.95L2.89 14.02C3.21 14.42 3.8 14.5 4.23 14.2L7.91 11.65L11.59 14.2C11.75 14.32 11.95 14.38 12.16 14.38C12.71 14.38 13.16 13.94 13.16 13.38L13.16 3.83C13.16 2.45 12.03 1.33 10.65 1.33ZM12.15 13.38L8.19 10.62C8.01 10.5 7.79 10.5 7.61 10.62L3.65 13.38L3.65 3.83C3.65 3 4.32 2.33 5.15 2.33L10.65 2.33C11.47 2.33 12.15 3 12.15 3.83L12.15 13.38ZM10.65 5.83C10.65 6.1 10.43 6.33 10.15 6.33L5.65 6.33C5.38 6.33 5.15 6.1 5.15 5.83C5.15 5.56 5.38 5.33 5.65 5.33L10.15 5.33C10.43 5.33 10.65 5.56 10.65 5.83Z" fill="currentColor" fill-opacity="1.000000" fill-rule="nonzero"/>
	</g>
</svg>
