<svg width="16.000000" height="16.000000" viewBox="0 0 16 16" fill="none" xmlns="http://www.w3.org/2000/svg" xmlns:xlink="http://www.w3.org/1999/xlink">
	<desc>
			Created with Pixso.
	</desc>
	<defs>
		<clipPath id="clip2_204">
			<rect id="60#置顶|顶部-top" width="16.000000" height="16.000000" fill="white" fill-opacity="0"/>
		</clipPath>
	</defs>
	<g clip-path="url(#clip2_204)">
		<path id="形状结合" d="M12.76 1.15C13.04 1.15 13.26 1.37 13.26 1.65C13.26 1.93 13.04 2.15 12.76 2.15L3.22 2.15C2.95 2.15 2.72 1.93 2.72 1.65C2.72 1.37 2.95 1.15 3.22 1.15L12.76 1.15ZM6.85 3.92L2.05 9.09C1.93 9.22 1.86 9.4 1.86 9.58L1.87 9.65C1.91 10.01 2.21 10.29 2.57 10.29L4.84 10.29L4.84 13.31C4.84 14.17 5.54 14.87 6.4 14.87L9.58 14.87L9.69 14.87C10.5 14.81 11.14 14.14 11.14 13.31L11.14 10.29L13.42 10.29C13.6 10.29 13.77 10.22 13.9 10.1C14.19 9.83 14.2 9.38 13.94 9.09L9.14 3.92L9.06 3.84C8.43 3.26 7.44 3.29 6.85 3.92ZM8.38 4.58L12.75 9.29L10.64 9.29C10.37 9.29 10.14 9.51 10.14 9.79L10.14 13.31C10.14 13.62 9.89 13.87 9.58 13.87L6.4 13.87C6.1 13.87 5.84 13.62 5.84 13.31L5.84 9.79L5.84 9.72C5.81 9.48 5.6 9.29 5.34 9.29L3.23 9.29L7.58 4.6C7.8 4.38 8.15 4.36 8.38 4.58Z" fill="currentColor" fill-opacity="1.000000" fill-rule="nonzero"/>
	</g>
</svg>
