<svg width="16.000000" height="16.000000" viewBox="0 0 16 16" fill="none" xmlns="http://www.w3.org/2000/svg" xmlns:xlink="http://www.w3.org/1999/xlink">
	<desc>
			Created with Pixso.
	</desc>
	<defs>
		<clipPath id="clip2_148">
			<rect id="61#推荐|喜欢-like" width="16.000000" height="16.000000" fill="white" fill-opacity="0"/>
		</clipPath>
	</defs>
	<g clip-path="url(#clip2_148)">
		<path id="c" d="M2.84 14.67C2.02 14.67 1.35 14.02 1.33 13.21L1.33 13.1L1.33 8.11C1.33 7.28 1.97 6.6 2.78 6.54L2.89 6.54L4.46 6.54L5.46 5.62C5.89 5.23 6.18 4.72 6.32 4.16L6.35 4.01L6.63 2.43C6.78 1.59 7.68 1.12 8.46 1.47C9.44 1.91 10.02 2.94 9.92 4.01L9.9 4.15L9.7 5.46C9.7 5.46 9.3 7.14 9.14 7.22C8.93 7.32 8.86 7.54 8.61 7.5C8.36 7.46 8.04 7.22 8.21 6.82L8.56 5.86C8.56 5.86 8.71 5.3 8.71 5.26L8.9 4C9 3.31 8.63 2.64 8.01 2.37C7.86 2.3 7.68 2.38 7.62 2.54L7.3 4.27C7.17 5.02 6.8 5.71 6.25 6.23L6.12 6.36L5.14 7.26L5.14 13.67L11.79 13.67C12.27 13.67 12.7 13.35 12.83 12.88L12.85 12.78L13.62 8.86C13.75 8.2 13.28 7.59 12.64 7.54L8.61 7.5C8.33 7.5 8.14 7.32 8.14 7.04C8.14 6.79 8.33 6.58 8.57 6.54L12.59 6.54C13.86 6.54 14.83 7.68 14.62 8.94L14.6 9.06L13.83 12.98C13.64 13.92 12.85 14.61 11.91 14.67L11.79 14.67L2.84 14.67ZM4.14 7.54L2.88 7.54C2.6 7.54 2.36 7.76 2.33 8.04L2.33 13.1C2.33 13.39 2.54 13.63 2.82 13.67L4.15 13.67L4.14 7.54Z" fill="currentColor" fill-opacity="1.000000" fill-rule="nonzero"/>
	</g>
</svg>
