<svg width="16.000000" height="16.000000" viewBox="0 0 16 16" fill="none" xmlns="http://www.w3.org/2000/svg" xmlns:xlink="http://www.w3.org/1999/xlink">
	<desc>
			Created with Pixso.
	</desc>
	<defs>
		<clipPath id="clip2_16">
			<rect id="62#店铺-shop" width="16.000000" height="16.000000" fill="white" fill-opacity="0"/>
		</clipPath>
	</defs>
	<g clip-path="url(#clip2_16)">
		<path id="形状结合" d="M11.3 2.3C12.51 2.3 13.55 3.17 13.76 4.37C13.92 5.25 14 5.9 14 6.35C14 6.88 13.8 7.33 13.47 7.65C13.49 7.7 13.5 7.75 13.5 7.8L13.5 11.05C13.5 12.51 12.27 13.69 10.77 13.69L5.22 13.69C3.72 13.69 2.5 12.51 2.5 11.05L2.5 7.8C2.5 7.75 2.5 7.7 2.52 7.65C2.19 7.33 2 6.88 2 6.35C2 5.9 2.07 5.25 2.23 4.37C2.44 3.17 3.48 2.3 4.69 2.3L11.3 2.3ZM9.82 7.59L9.74 7.66C9.3 8.07 8.65 8.3 7.98 8.3L7.88 8.3C7.25 8.27 6.66 8.04 6.25 7.66L6.17 7.59C5.75 8.01 5.07 8.27 4.36 8.3L4.22 8.3C3.97 8.3 3.72 8.27 3.5 8.21L3.5 11.05C3.5 11.95 4.26 12.69 5.22 12.69L10.77 12.69C11.73 12.69 12.5 11.95 12.5 11.05L12.5 8.21C12.27 8.27 12.02 8.3 11.77 8.3C11 8.3 10.27 8.04 9.82 7.59ZM11.3 3.3L4.69 3.3C3.96 3.3 3.34 3.82 3.21 4.54C3.07 5.37 3 5.97 3 6.35C3 6.93 3.5 7.3 4.22 7.3C5.05 7.3 5.66 6.93 5.66 6.35L5.67 6.27C5.74 5.69 6.66 5.71 6.66 6.35L6.67 6.44C6.72 6.91 7.26 7.27 7.91 7.3L8 7.3C8.71 7.3 9.33 6.89 9.33 6.35L9.33 6.27C9.41 5.69 10.33 5.71 10.33 6.35L10.33 6.44C10.39 6.97 10.98 7.3 11.77 7.3C12.49 7.3 13 6.93 13 6.35C13 6.04 12.95 5.56 12.84 4.94L12.78 4.54C12.65 3.82 12.03 3.3 11.3 3.3Z" fill="currentColor" fill-opacity="1.000000" fill-rule="nonzero"/>
	</g>
</svg>
