<svg width="16.000000" height="16.000000" viewBox="0 0 16 16" fill="none" xmlns="http://www.w3.org/2000/svg" xmlns:xlink="http://www.w3.org/1999/xlink">
	<desc>
			Created with Pixso.
	</desc>
	<defs>
		<clipPath id="clip2_42">
			<rect id="63#购物车-cart" width="16.000000" height="16.000000" fill="white" fill-opacity="0"/>
		</clipPath>
	</defs>
	<g clip-path="url(#clip2_42)">
		<path id="形状结合" d="M3.1 2.5C3.87 2.5 4.51 3.07 4.6 3.82L4.64 4.2L12.62 4.2C13.45 4.2 14.12 4.87 14.12 5.7C14.12 5.85 14.1 6.01 14.05 6.16L13.19 8.81C13 9.39 12.47 9.79 11.85 9.84L5.37 10.25L5.38 10.36C5.41 10.61 5.62 10.8 5.88 10.8L13.08 10.8C13.36 10.8 13.58 11.02 13.58 11.3C13.58 11.58 13.36 11.8 13.08 11.8L5.88 11.8C5.12 11.8 4.48 11.23 4.39 10.48L3.6 3.94C3.57 3.69 3.37 3.5 3.1 3.5L2.5 3.5C2.22 3.5 2 3.28 2 3C2 2.71 2.22 2.5 2.5 2.5L3.1 2.5ZM5.26 9.25L11.79 8.84C11.99 8.83 12.17 8.68 12.23 8.5L13.09 5.85C13.11 5.81 13.11 5.76 13.11 5.7C13.11 5.41 12.89 5.2 12.61 5.2L4.76 5.2L5.26 9.25ZM5.79 13.9C6.23 13.9 6.6 13.54 6.6 13.1C6.6 12.66 6.23 12.3 5.79 12.3C5.35 12.3 5 12.66 5 13.1C5 13.54 5.35 13.9 5.79 13.9ZM11.8 13.9C12.24 13.9 12.6 13.54 12.6 13.1C12.6 12.66 12.24 12.3 11.8 12.3C11.36 12.3 11 12.66 11 13.1C11 13.54 11.36 13.9 11.8 13.9Z" fill="currentColor" fill-opacity="1.000000" fill-rule="nonzero"/>
	</g>
</svg>
