<svg width="16.000000" height="16.000000" viewBox="0 0 16 16" fill="none" xmlns="http://www.w3.org/2000/svg" xmlns:xlink="http://www.w3.org/1999/xlink">
	<desc>
			Created with Pixso.
	</desc>
	<defs>
		<clipPath id="clip2_131">
			<rect id="64#售罄-soldout" width="16.000000" height="16.000000" fill="white" fill-opacity="0"/>
		</clipPath>
	</defs>
	<g clip-path="url(#clip2_131)">
		<path id="形状结合" d="M5.79 12.3C6.23 12.3 6.6 12.66 6.6 13.1C6.6 13.54 6.23 13.9 5.79 13.9C5.35 13.9 5 13.54 5 13.1C5 12.66 5.35 12.3 5.79 12.3ZM11.8 12.3C12.24 12.3 12.6 12.66 12.6 13.1C12.6 13.54 12.24 13.9 11.8 13.9C11.36 13.9 11 13.54 11 13.1C11 12.66 11.36 12.3 11.8 12.3ZM10.92 2.19C11.19 2.26 11.35 2.54 11.27 2.8L10.9 4.2L12.62 4.2C13.45 4.2 14.12 4.87 14.12 5.7C14.12 5.86 14.1 6.01 14.05 6.17L13.19 8.81C13 9.39 12.47 9.8 11.85 9.84L9.35 10L9.14 10.8L13.1 10.8C13.38 10.8 13.6 11.02 13.6 11.3C13.6 11.58 13.38 11.8 13.1 11.8L8.87 11.8L8.68 12.46C8.62 12.73 8.34 12.89 8.07 12.81C7.81 12.74 7.64 12.46 7.73 12.2L7.84 11.8L5.89 11.8C5.14 11.8 4.5 11.23 4.41 10.48L3.6 3.94C3.57 3.69 3.37 3.5 3.1 3.5L2.5 3.5C2.22 3.5 2 3.28 2 3C2 2.72 2.22 2.5 2.5 2.5L3.1 2.5C3.87 2.5 4.51 3.07 4.6 3.82L4.64 4.2L9.87 4.2L10.32 2.54C10.38 2.27 10.66 2.12 10.92 2.19ZM8.29 10.06L5.37 10.24L5.38 10.35C5.41 10.6 5.62 10.79 5.88 10.79L8.09 10.79L8.29 10.06ZM9.6 5.2L4.76 5.2L5.26 9.25L8.57 9.04L9.6 5.2ZM12.62 5.2L10.63 5.2L9.62 8.98L11.79 8.84C11.99 8.83 12.17 8.69 12.23 8.5L13.09 5.86C13.11 5.81 13.11 5.76 13.11 5.7C13.12 5.42 12.9 5.2 12.62 5.2Z" fill="currentColor" fill-opacity="1.000000" fill-rule="nonzero"/>
	</g>
</svg>
