<svg width="16.000000" height="16.000000" viewBox="0 0 16 16" fill="none" xmlns="http://www.w3.org/2000/svg" xmlns:xlink="http://www.w3.org/1999/xlink">
	<desc>
			Created with Pixso.
	</desc>
	<defs>
		<clipPath id="clip2_115">
			<rect id="65#手提包|商品-bag" width="16.000000" height="16.000000" fill="white" fill-opacity="0"/>
		</clipPath>
	</defs>
	<g clip-path="url(#clip2_115)">
		<path id="形状结合" d="M8 1.5C9.56 1.5 10.86 2.62 11.18 4.12L12 4.12C12.8 4.12 13.45 4.74 13.5 5.53L13.93 12.91C13.98 13.73 13.35 14.44 12.52 14.49L3.56 14.5C2.73 14.5 2.06 13.82 2.06 13L2.49 5.53C2.54 4.74 3.19 4.12 3.99 4.12L4.82 4.12C5.13 2.62 6.43 1.5 8 1.5ZM12 5.12L11.24 5.12L11.25 6.63C11.25 6.9 11.02 7.13 10.75 7.13C10.47 7.13 10.25 6.9 10.25 6.63L10.24 5.12L5.74 5.12L5.75 6.63C5.75 6.9 5.52 7.13 5.25 7.13C4.97 7.13 4.75 6.9 4.75 6.63L4.74 5.12L3.99 5.12C3.75 5.12 3.54 5.29 3.5 5.53L3.06 12.98L3.06 13.06C3.09 13.31 3.3 13.5 3.56 13.5L12.46 13.49C12.74 13.48 12.95 13.24 12.93 12.97L12.5 5.59C12.49 5.33 12.27 5.12 12 5.12ZM8 2.5C6.99 2.5 6.13 3.18 5.85 4.12L10.14 4.12C9.86 3.18 9 2.5 8 2.5Z" fill="currentColor" fill-opacity="1.000000" fill-rule="nonzero"/>
	</g>
</svg>
