<svg width="16.000000" height="16.000000" viewBox="0 0 16 16" fill="none" xmlns="http://www.w3.org/2000/svg" xmlns:xlink="http://www.w3.org/1999/xlink">
	<desc>
			Created with Pixso.
	</desc>
	<defs>
		<clipPath id="clip2_94">
			<rect id="66#钱包-wallet" width="16.000000" height="16.000000" fill="white" fill-opacity="0"/>
		</clipPath>
	</defs>
	<g clip-path="url(#clip2_94)">
		<path id="形状结合" d="M6.8 1C7.56 0.38 8.67 0.44 9.36 1.14L9.57 1.34C9.88 1.68 10.38 1.76 10.78 1.54L10.93 1.47C11.7 1.17 12.57 1.42 13.07 2.08L13.15 2.19C13.72 2.97 13.66 4.04 13 4.74L12.27 5.47C13.89 6.83 14.94 8.88 15 11L15 11.29C15 13.41 13.46 15.21 11.36 15.53L10.78 15.61C8.76 15.87 6.71 15.85 4.69 15.54C2.58 15.22 0.97 13.39 1 11.25C1 9.04 1.98 6.95 3.68 5.54L3 4.74C2.38 4.09 2.26 3.11 2.72 2.34L2.82 2.2L2.9 2.09C3.43 1.38 4.4 1.15 5.19 1.55C5.6 1.75 6.09 1.67 6.41 1.35L6.63 1.14L6.8 1ZM11.32 6L4.68 6L4.32 6.3C2.91 7.47 2.07 9.17 2 11L2 11.27C2.01 12.89 3.19 14.25 4.79 14.5L5.42 14.59C7.33 14.83 9.27 14.8 11.18 14.51L11.39 14.51C12.93 14.19 14.02 12.82 14 11.25C14 9.34 13.15 7.52 11.68 6.3L11.32 6ZM6.23 7L8 8.79L9.77 7C9.9 6.87 10.08 6.83 10.25 6.87C10.42 6.92 10.55 7.05 10.6 7.22C10.65 7.39 10.6 7.57 10.47 7.7L9.21 9L10.5 9C10.78 9 11 9.22 11 9.5C11 9.78 10.78 10 10.5 10L8.5 10L8.5 11L10.5 11C10.78 11 11 11.22 11 11.5C11 11.78 10.78 12 10.5 12L8.5 12L8.5 13.5C8.5 13.78 8.28 14 8 14C7.72 14 7.5 13.78 7.5 13.5L7.5 12L5.5 12C5.22 12 5 11.78 5 11.5C5 11.22 5.22 11 5.5 11L7.5 11L7.5 10L5.5 10C5.22 10 5 9.78 5 9.5C5 9.22 5.22 9 5.5 9L6.79 9L5.53 7.73C5.34 7.54 5.34 7.22 5.53 7.03C5.72 6.84 6.04 6.81 6.23 7ZM8.65 1.85C8.33 1.53 7.81 1.49 7.45 1.77L7.15 2.06C6.57 2.64 5.7 2.82 4.94 2.52L4.78 2.44C4.42 2.26 3.98 2.37 3.73 2.69L3.65 2.8C3.39 3.17 3.42 3.67 3.74 4L4.74 5L11.32 5L12.32 4C12.6 3.69 12.67 3.24 12.48 2.87L12.33 2.66C12.09 2.36 11.68 2.26 11.33 2.42C10.54 2.83 9.58 2.67 8.97 2.03L8.65 1.85Z" fill="currentColor" fill-opacity="1.000000" fill-rule="nonzero"/>
	</g>
</svg>
