<svg width="16.000000" height="16.000000" viewBox="0 0 16 16" fill="none" xmlns="http://www.w3.org/2000/svg" xmlns:xlink="http://www.w3.org/1999/xlink">
	<desc>
			Created with Pixso.
	</desc>
	<defs>
		<clipPath id="clip2_78">
			<rect id="67#礼包-gift" width="16.000000" height="16.000000" fill="white" fill-opacity="0"/>
		</clipPath>
	</defs>
	<g clip-path="url(#clip2_78)">
		<path id="形状结合" d="M12.67 2.07L13.03 2.43C13.61 3.01 13.61 3.96 13.03 4.55L12.26 5.31L13 5.31C13.79 5.31 14.44 5.93 14.49 6.71L14.5 6.81L14.5 12.91C14.5 13.74 13.82 14.41 13 14.41L3 14.41C2.17 14.41 1.5 13.74 1.5 12.91L1.5 6.81C1.5 5.98 2.17 5.31 3 5.31L3.73 5.31L2.96 4.55C2.38 3.96 2.38 3.01 2.96 2.43L3.32 2.08C3.9 1.49 4.85 1.49 5.44 2.08L8 4.63L10.55 2.07C11.14 1.49 12.09 1.49 12.67 2.07ZM7.5 6.31L3 6.31C2.72 6.31 2.5 6.54 2.5 6.81L2.5 12.91C2.5 13.19 2.72 13.41 3 13.41L7.5 13.41L7.5 6.31ZM13 6.31L8.5 6.31L8.5 13.41L13 13.41C13.25 13.41 13.46 13.22 13.49 12.98L13.5 12.91L13.5 6.81C13.5 6.54 13.27 6.31 13 6.31ZM11.26 2.78L8.73 5.31L10.85 5.31L12.32 3.84C12.52 3.65 12.52 3.33 12.32 3.14L11.97 2.78C11.77 2.59 11.46 2.59 11.26 2.78ZM4.02 2.78L3.67 3.14C3.47 3.33 3.47 3.65 3.67 3.84L5.14 5.31L7.26 5.31L4.73 2.78C4.53 2.59 4.22 2.59 4.02 2.78Z" fill="currentColor" fill-opacity="1.000000" fill-rule="nonzero"/>
	</g>
</svg>
