<svg width="16.000000" height="16.000000" viewBox="0 0 16 16" fill="none" xmlns="http://www.w3.org/2000/svg" xmlns:xlink="http://www.w3.org/1999/xlink">
	<desc>
			Created with Pixso.
	</desc>
	<defs>
		<clipPath id="clip2_171">
			<rect id="68#支付|续费-payment" width="16.000000" height="16.000000" fill="white" fill-opacity="0"/>
		</clipPath>
	</defs>
	<g clip-path="url(#clip2_171)">
		<path id="形状结合" d="M12.9 2.19C14.1 2.19 15 3.19 15 4.39L15 11.69C15 12.89 14.1 13.79 12.9 13.79L3.1 13.79C1.89 13.79 1 12.89 1 11.69L1 4.39C1 3.19 1.89 2.19 3.1 2.19L12.9 2.19ZM14 6.49L2 6.49L2 11.69C2 12.29 2.5 12.79 3.1 12.79L12.9 12.79C13.5 12.79 14 12.29 14 11.69L14 6.49ZM12.1 9.99C12.4 9.99 12.6 10.19 12.6 10.49C12.6 10.79 12.4 10.99 12.1 10.99L10.1 10.99C9.8 10.99 9.6 10.79 9.6 10.49C9.6 10.19 9.8 9.99 10.1 9.99L12.1 9.99ZM12.9 3.29L3.1 3.29C2.5 3.29 2 3.79 2 4.39L2 5.59L14 5.59L14 4.39C14 3.79 13.5 3.29 12.9 3.29Z" fill="currentColor" fill-opacity="1.000000" fill-rule="nonzero"/>
	</g>
</svg>
