<svg width="16.000000" height="16.000000" viewBox="0 0 16 16" fill="none" xmlns="http://www.w3.org/2000/svg" xmlns:xlink="http://www.w3.org/1999/xlink">
	<desc>
			Created with Pixso.
	</desc>
	<defs>
		<clipPath id="clip2_222">
			<rect id="69#vscode-vscode" width="16.000000" height="16.000000" fill="white" fill-opacity="0"/>
		</clipPath>
	</defs>
	<g clip-path="url(#clip2_222)">
		<path id="path" d="M11.5 14.49C11.38 14.49 11.27 14.45 11.18 14.37L1.18 5.87C0.97 5.69 0.94 5.38 1.12 5.17C1.3 4.96 1.61 4.93 1.82 5.11L11.57 13.4L14 12.19L14 3.8L11.57 2.59L6.28 7.08C6.07 7.26 5.75 7.23 5.58 7.02C5.4 6.81 5.43 6.49 5.64 6.32L11.18 1.61C11.33 1.48 11.55 1.46 11.73 1.54L14.73 3.04C14.9 3.12 15.01 3.3 15.01 3.49L15.01 12.49C15.01 12.68 14.9 12.85 14.73 12.94L11.73 14.44C11.66 14.48 11.57 14.49 11.5 14.49ZM1.5 10.99C1.36 10.99 1.22 10.93 1.12 10.81C0.94 10.6 0.97 10.28 1.18 10.1L2.68 8.82C2.89 8.64 3.2 8.67 3.38 8.88C3.56 9.09 3.53 9.41 3.32 9.59L1.82 10.87C1.73 10.95 1.61 10.99 1.5 10.99ZM11.5 10.99C11.4 10.99 11.3 10.96 11.21 10.9L7.71 8.4C7.58 8.31 7.5 8.15 7.5 7.99C7.5 7.83 7.58 7.68 7.71 7.58L11.21 5.08C11.36 4.97 11.56 4.96 11.73 5.04C11.9 5.13 12 5.3 12 5.48L12 10.48C12 10.67 11.9 10.84 11.73 10.92C11.66 10.96 11.58 10.99 11.5 10.99ZM8.86 7.99L11 9.52L11 6.46L8.86 7.99Z" fill="currentColor" fill-opacity="1.000000" fill-rule="nonzero"/>
	</g>
</svg>
