<svg width="16.000000" height="16.000000" viewBox="0 0 16 16" fill="none" xmlns="http://www.w3.org/2000/svg" xmlns:xlink="http://www.w3.org/1999/xlink">
	<desc>
			Created with Pixso.
	</desc>
	<defs>
		<clipPath id="clip2_125">
			<rect id="7#指南-guide" width="16.000000" height="16.000000" fill="white" fill-opacity="0"/>
		</clipPath>
	</defs>
	<g clip-path="url(#clip2_125)">
		<path id="形状结合" d="M11.27 1.5C12.36 1.5 13.25 2.37 13.25 3.45L13.25 10.74C13.25 11.82 12.36 12.69 11.27 12.69L4.97 12.69C4.7 12.69 4.47 12.47 4.47 12.19C4.47 11.92 4.7 11.69 4.97 11.69L11.27 11.69C11.81 11.69 12.25 11.26 12.25 10.74L12.25 3.45C12.25 2.93 11.81 2.5 11.27 2.5L11.24 6C11.24 6.42 10.74 6.65 10.41 6.37L9.24 5.37L8.07 6.37C7.77 6.63 7.31 6.45 7.25 6.08L7.25 5.99L7.25 2.49L4.72 2.5C4.18 2.5 3.75 2.93 3.75 3.45L3.75 12.53C3.75 13.06 4.18 13.49 4.72 13.49L12.75 13.49C13.02 13.49 13.25 13.72 13.25 13.99C13.25 14.27 13.02 14.49 12.75 14.49L4.72 14.49C3.63 14.49 2.75 13.62 2.75 12.53L2.75 3.45C2.75 2.37 3.63 1.5 4.72 1.5L11.27 1.5ZM10.24 2.49L8.25 2.49L8.25 4.91L8.92 4.33C9.08 4.19 9.32 4.18 9.5 4.28L9.57 4.33L10.24 4.91L10.24 2.49Z" fill="currentColor" fill-opacity="1.000000" fill-rule="nonzero"/>
	</g>
</svg>
