<svg width="16.000000" height="16.000000" viewBox="0 0 16 16" fill="none" xmlns="http://www.w3.org/2000/svg" xmlns:xlink="http://www.w3.org/1999/xlink">
	<desc>
			Created with Pixso.
	</desc>
	<defs>
		<clipPath id="clip2_203">
			<rect id="70#助手-assistant" width="16.000000" height="16.000000" fill="white" fill-opacity="0"/>
		</clipPath>
	</defs>
	<g clip-path="url(#clip2_203)">
		<path id="path" d="M12.5 12.99L3.5 12.99C2.11 12.99 1 11.87 1 10.49L1 6.49C1 5.11 2.11 3.99 3.5 3.99L12.5 3.99C13.88 3.99 15 5.11 15 6.49L15 10.49C15 11.87 13.88 12.99 12.5 12.99ZM3.5 4.99C2.67 4.99 2 5.66 2 6.49L2 10.49C2 11.32 2.67 11.99 3.5 11.99L12.5 11.99C13.33 11.99 14 11.32 14 10.49L14 6.49C14 5.66 13.33 4.99 12.5 4.99L3.5 4.99ZM3.98 1.06C4.25 0.99 4.51 1.15 4.59 1.41L5.37 4.31C5.44 4.58 5.28 4.85 5.01 4.92C4.75 4.99 4.48 4.83 4.41 4.57L3.63 1.67C3.56 1.4 3.72 1.13 3.98 1.06ZM12.02 1.06C11.75 0.99 11.48 1.15 11.41 1.41L10.63 4.31C10.56 4.58 10.72 4.85 10.98 4.92C11.25 4.99 11.52 4.83 11.59 4.57L12.37 1.67C12.44 1.4 12.28 1.13 12.02 1.06ZM3.5 13.99L12.5 13.99C12.78 13.99 13 14.21 13 14.49C13 14.77 12.78 14.99 12.5 14.99L3.5 14.99C3.22 14.99 3 14.77 3 14.49C3 14.21 3.22 13.99 3.5 13.99ZM3.5 3.99L12.5 3.99C12.78 3.99 13 4.21 13 4.49C13 4.77 12.78 4.99 12.5 4.99L3.5 4.99C3.22 4.99 3 4.77 3 4.49C3 4.21 3.22 3.99 3.5 3.99ZM5.5 6.99C5.78 6.99 6 7.21 6 7.49L6 9.49C6 9.77 5.78 9.99 5.5 9.99C5.22 9.99 5 9.77 5 9.49L5 7.49C5 7.21 5.22 6.99 5.5 6.99ZM10.5 6.99C10.78 6.99 11 7.21 11 7.49L11 9.49C11 9.77 10.78 9.99 10.5 9.99C10.22 9.99 10 9.77 10 9.49L10 7.49C10 7.21 10.22 6.99 10.5 6.99Z" fill="currentColor" fill-opacity="1.000000" fill-rule="nonzero"/>
	</g>
</svg>
