<svg width="16.000000" height="16.000000" viewBox="0 0 16 16" fill="none" xmlns="http://www.w3.org/2000/svg" xmlns:xlink="http://www.w3.org/1999/xlink">
	<desc>
			Created with Pixso.
	</desc>
	<defs>
		<clipPath id="clip2_211">
			<rect id="71#转码-transcode" width="16.000000" height="16.000000" fill="white" fill-opacity="0"/>
		</clipPath>
	</defs>
	<g clip-path="url(#clip2_211)">
		<path id="形状结合" d="M14 3.5C14.27 3.5 14.5 3.72 14.5 4L14.5 11C14.5 12.38 13.38 13.5 12 13.5L5.27 13.5L5.87 14.16C6.03 14.35 6.04 14.63 5.88 14.81C5.67 15 5.31 15.03 5.12 14.83L3.78 13.33C3.61 13.14 3.61 12.85 3.78 12.66L5.12 11.16C5.31 10.96 5.62 10.94 5.83 11.12C5.97 11.31 6.03 11.65 5.87 11.83L5.27 12.5L12 12.5C12.82 12.5 13.5 11.82 13.5 11L13.5 4C13.5 3.72 13.72 3.5 14 3.5ZM10.87 1.16L12.21 2.66C12.38 2.85 12.38 3.14 12.21 3.33L10.87 4.83C10.68 5.03 10.37 5.05 10.16 4.87C9.96 4.68 9.94 4.37 10.12 4.16L10.72 3.5L4 3.5C3.17 3.5 2.5 4.17 2.5 5L2.5 12C2.5 12.27 2.27 12.5 2 12.5C1.72 12.5 1.5 12.27 1.5 12L1.5 5C1.5 3.61 2.61 2.5 4 2.5L10.72 2.5L10.12 1.83C9.96 1.65 9.95 1.38 10.1 1.19C10.31 1 10.68 0.96 10.87 1.16ZM6.9 5.76C7 5.76 7.1 5.78 7.18 5.83L10.13 7.44C10.43 7.61 10.54 7.98 10.38 8.29C10.33 8.4 10.24 8.49 10.13 8.55L7.18 10.16C6.89 10.32 6.52 10.21 6.37 9.9C6.32 9.81 6.29 9.71 6.29 9.61L6.29 6.38C6.29 6.03 6.57 5.76 6.9 5.76Z" fill="currentColor" fill-opacity="1.000000" fill-rule="nonzero"/>
	</g>
</svg>
