<svg width="16.000000" height="16.000000" viewBox="0 0 16 16" fill="none" xmlns="http://www.w3.org/2000/svg" xmlns:xlink="http://www.w3.org/1999/xlink">
	<desc>
			Created with Pixso.
	</desc>
	<defs>
		<clipPath id="clip2_215">
			<rect id="72#指示器-Indicator " width="16.000000" height="16.000000" fill="white" fill-opacity="0"/>
		</clipPath>
	</defs>
	<g clip-path="url(#clip2_215)">
		<path id="形状" d="M8 3.5C10.48 3.5 12.5 5.51 12.5 8C12.5 8.27 12.27 8.5 12 8.5C11.72 8.5 11.5 8.27 11.5 8C11.5 6.06 9.93 4.5 8 4.5C6.06 4.5 4.5 6.06 4.5 8C4.5 8.27 4.27 8.5 4 8.5C3.72 8.5 3.5 8.27 3.5 8C3.5 5.51 5.51 3.5 8 3.5ZM8 9.68C7.63 9.68 7.33 9.98 7.33 10.35C7.33 10.72 7.63 11.02 8 11.02C8.36 11.02 8.66 10.72 8.66 10.35C8.66 9.98 8.36 9.68 8 9.68ZM8 6C8.25 6 8.46 6.18 8.49 6.43L8.49 8.76C9.16 8.97 9.66 9.6 9.66 10.35C9.66 11.27 8.91 12.02 7.99 12.02C7.07 12.02 6.32 11.27 6.32 10.35C6.32 9.6 6.82 8.97 7.49 8.76L7.49 6.5C7.49 6.22 7.72 6 8 6ZM8 2.33C4.87 2.33 2.33 4.87 2.33 8C2.33 11.12 4.87 13.66 8 13.66C11.12 13.66 13.66 11.12 13.66 8C13.66 4.87 11.12 2.33 8 2.33ZM8 1.33C11.68 1.33 14.66 4.32 14.66 8C14.66 11.68 11.68 14.66 8 14.66C4.32 14.66 1.33 11.68 1.33 8C1.33 4.32 4.32 1.33 8 1.33Z" fill="currentColor" fill-opacity="1.000000" fill-rule="nonzero"/>
	</g>
</svg>
