<svg width="16.000000" height="16.000000" viewBox="0 0 16 16" fill="none" xmlns="http://www.w3.org/2000/svg" xmlns:xlink="http://www.w3.org/1999/xlink">
	<desc>
			Created with Pixso.
	</desc>
	<defs>
		<clipPath id="clip2_213">
			<rect id="73#堆叠|图层-stack" width="16.000000" height="16.000000" fill="white" fill-opacity="0"/>
		</clipPath>
	</defs>
	<g clip-path="url(#clip2_213)">
		<path id="形状" d="M8.62 2.48C8.24 2.28 7.76 2.28 7.38 2.48L2.51 5.12C2.45 5.15 2.41 5.19 2.38 5.24C2.29 5.39 2.34 5.58 2.51 5.67L7.38 8.3C7.77 8.51 8.24 8.51 8.62 8.3L13.5 5.67C13.56 5.64 13.6 5.6 13.63 5.54C13.72 5.4 13.66 5.21 13.5 5.12L8.62 2.48ZM6.9 1.6C7.58 1.24 8.42 1.24 9.1 1.6L13.97 4.24C14.64 4.6 14.87 5.42 14.48 6.06C14.36 6.26 14.18 6.43 13.97 6.55L9.1 9.18C8.42 9.55 7.58 9.55 6.9 9.18L2.03 6.55C1.36 6.19 1.13 5.37 1.52 4.73C1.64 4.52 1.82 4.36 2.03 4.24L6.9 1.6ZM13.96 8.24C14.21 8.11 14.51 8.21 14.64 8.46C14.76 8.7 14.66 9 14.42 9.13L9 11.9C8.37 12.22 7.61 12.22 6.98 11.88L1.82 9.12C1.57 9 1.48 8.69 1.61 8.45C1.74 8.2 2.04 8.12 2.28 8.24L7.45 11C7.79 11.18 8.2 11.18 8.54 11L13.96 8.24ZM13.96 10.79C14.21 10.66 14.51 10.76 14.64 11.01C14.76 11.26 14.66 11.56 14.42 11.68L9 14.45C8.37 14.78 7.61 14.77 6.98 14.43L1.82 11.68C1.57 11.55 1.48 11.24 1.61 11C1.74 10.76 2.04 10.67 2.28 10.8L7.45 13.55C7.79 13.73 8.2 13.74 8.54 13.56L13.96 10.79Z" fill="currentColor" fill-opacity="1.000000" fill-rule="nonzero"/>
	</g>
</svg>
