<svg width="16.000000" height="16.000000" viewBox="0 0 16 16" fill="none" xmlns="http://www.w3.org/2000/svg" xmlns:xlink="http://www.w3.org/1999/xlink">
	<desc>
			Created with Pixso.
	</desc>
	<defs>
		<clipPath id="clip2_52">
			<rect id="74#日出|唤醒-sun-raise" width="16.000000" height="16.000000" fill="white" fill-opacity="0"/>
		</clipPath>
	</defs>
	<g clip-path="url(#clip2_52)">
		<path id="形状" d="M4.78 5.98C5.62 5.14 6.74 4.67 7.94 4.67C9.13 4.67 10.25 5.14 11.09 5.98C12.83 7.72 12.83 10.54 11.09 12.28C10.99 12.38 10.86 12.43 10.74 12.43C10.61 12.43 10.48 12.38 10.38 12.28C10.19 12.09 10.19 11.77 10.38 11.58C11.73 10.23 11.73 8.03 10.38 6.68C9.73 6.03 8.86 5.67 7.94 5.67C7.01 5.67 6.14 6.03 5.49 6.68C4.14 8.03 4.14 10.23 5.49 11.58C5.68 11.77 5.68 12.09 5.49 12.28C5.3 12.48 4.98 12.48 4.78 12.28C3.04 10.54 3.04 7.72 4.78 5.98ZM13.66 13.65L2.22 13.65C1.94 13.65 1.72 13.88 1.72 14.15C1.72 14.42 1.94 14.65 2.22 14.65L13.66 14.65C13.93 14.65 14.16 14.42 14.16 14.15C14.16 13.88 13.93 13.65 13.66 13.65ZM2.72 8.87C2.72 8.6 2.49 8.37 2.22 8.37L0.9 8.37C0.62 8.37 0.4 8.6 0.4 8.87C0.4 9.14 0.62 9.37 0.9 9.37L2.22 9.37C2.49 9.37 2.72 9.14 2.72 8.87ZM14.98 8.37L13.66 8.37C13.38 8.37 13.16 8.6 13.16 8.87C13.16 9.14 13.38 9.37 13.66 9.37L14.98 9.37C15.25 9.37 15.48 9.14 15.48 8.87C15.48 8.6 15.25 8.37 14.98 8.37ZM7.94 3.65C8.21 3.65 8.44 3.42 8.44 3.15L8.44 1.83C8.44 1.56 8.21 1.33 7.94 1.33C7.66 1.33 7.44 1.56 7.44 1.83L7.44 3.15C7.44 3.42 7.66 3.65 7.94 3.65ZM3.5 4.7C3.6 4.8 3.72 4.84 3.85 4.84C3.98 4.84 4.1 4.8 4.2 4.7C4.4 4.5 4.4 4.18 4.2 3.99L3.27 3.06C3.08 2.86 2.76 2.86 2.56 3.06C2.37 3.25 2.37 3.57 2.56 3.76L3.5 4.7ZM12.03 4.84C12.16 4.84 12.28 4.8 12.38 4.7L13.32 3.76C13.51 3.57 13.51 3.25 13.32 3.06C13.12 2.86 12.8 2.86 12.61 3.06L11.68 3.99C11.48 4.18 11.48 4.5 11.68 4.7C11.78 4.8 11.9 4.84 12.03 4.84Z" fill="currentColor" fill-opacity="1.000000" fill-rule="nonzero"/>
	</g>
</svg>
