<svg width="16.000000" height="16.000000" viewBox="0 0 16 16" fill="none" xmlns="http://www.w3.org/2000/svg" xmlns:xlink="http://www.w3.org/1999/xlink">
	<desc>
			Created with Pixso.
	</desc>
	<defs>
		<clipPath id="clip2_80">
			<rect id="75#太阳|亮色模式-sun" width="16.000000" height="16.000000" fill="white" fill-opacity="0"/>
		</clipPath>
	</defs>
	<g clip-path="url(#clip2_80)">
		<path id="形状结合" d="M8 13C8.27 13 8.5 13.22 8.5 13.5L8.5 14.5C8.5 14.77 8.27 15 8 15C7.72 15 7.5 14.77 7.5 14.5L7.5 13.5C7.5 13.22 7.72 13 8 13ZM4.46 11.53C4.65 11.73 4.65 12.04 4.46 12.24L3.75 12.94C3.56 13.14 3.24 13.14 3.05 12.94C2.85 12.75 2.85 12.43 3.05 12.24L3.75 11.53C3.95 11.34 4.26 11.34 4.46 11.53ZM12.24 11.53L12.94 12.24C13.14 12.43 13.14 12.75 12.94 12.94C12.75 13.14 12.43 13.14 12.24 12.94L11.53 12.24C11.34 12.04 11.34 11.73 11.53 11.53C11.73 11.34 12.04 11.34 12.24 11.53ZM8 4C10.2 4 12 5.79 12 8C12 10.2 10.2 12 8 12C5.79 12 4 10.2 4 8C4 5.79 5.79 4 8 4ZM8 5C6.34 5 5 6.34 5 8C5 9.65 6.34 11 8 11C9.65 11 11 9.65 11 8C11 6.34 9.65 5 8 5ZM2.5 7.5C2.77 7.5 3 7.72 3 8C3 8.27 2.77 8.5 2.5 8.5L1.5 8.5C1.22 8.5 1 8.27 1 8C1 7.72 1.22 7.5 1.5 7.5L2.5 7.5ZM14.5 7.5C14.77 7.5 15 7.72 15 8C15 8.27 14.77 8.5 14.5 8.5L13.5 8.5C13.22 8.5 13 8.27 13 8C13 7.72 13.22 7.5 13.5 7.5L14.5 7.5ZM12.94 3.05C13.14 3.24 13.14 3.56 12.94 3.75L12.24 4.46C12.04 4.65 11.73 4.65 11.53 4.46C11.34 4.26 11.34 3.95 11.53 3.75L12.24 3.05C12.43 2.85 12.75 2.85 12.94 3.05ZM3.75 3.05L4.46 3.75C4.65 3.95 4.65 4.26 4.46 4.46C4.26 4.65 3.95 4.65 3.75 4.46L3.05 3.75C2.85 3.56 2.85 3.24 3.05 3.05C3.24 2.85 3.56 2.85 3.75 3.05ZM8 1C8.27 1 8.5 1.22 8.5 1.5L8.5 2.5C8.5 2.77 8.27 3 8 3C7.72 3 7.5 2.77 7.5 2.5L7.5 1.5C7.5 1.22 7.72 1 8 1Z" fill="currentColor" fill-opacity="1.000000" fill-rule="evenodd"/>
	</g>
</svg>
