<svg width="16.000000" height="16.000000" viewBox="0 0 16 16" fill="none" xmlns="http://www.w3.org/2000/svg" xmlns:xlink="http://www.w3.org/1999/xlink">
	<desc>
			Created with Pixso.
	</desc>
	<defs>
		<clipPath id="clip2_168">
			<rect id="76#休眠|月亮-hibernate" width="16.000000" height="16.000000" fill="white" fill-opacity="0"/>
		</clipPath>
	</defs>
	<g clip-path="url(#clip2_168)">
		<path id="形状" d="M13.83 9.03C13.68 8.9 13.48 8.86 13.3 8.94C12.66 9.22 11.97 9.36 11.26 9.36C8.43 9.36 6.13 7.06 6.13 4.23C6.13 3.69 6.21 3.16 6.38 2.65C6.44 2.46 6.38 2.26 6.23 2.12C6.09 1.99 5.88 1.96 5.7 2.04C3.45 3.01 2 5.22 2 7.67C2 11.05 4.75 13.8 8.13 13.8C10.8 13.8 13.15 12.1 13.97 9.55C14.03 9.36 13.97 9.16 13.83 9.03ZM8.13 12.8C5.29 12.8 3 10.5 3 7.67C3 5.98 3.82 4.42 5.17 3.47C5.14 3.72 5.13 3.97 5.13 4.22C5.13 7.6 7.88 10.36 11.26 10.36C11.72 10.36 12.16 10.31 12.6 10.21C11.7 11.79 10 12.8 8.13 12.8ZM9.85 5.96C9.78 5.76 9.85 5.54 10.01 5.4L12.03 3.79L10.53 3.79C10.26 3.79 10.03 3.56 10.03 3.29C10.03 3.02 10.26 2.79 10.53 2.79L13.46 2.79C13.67 2.79 13.86 2.92 13.93 3.12C14 3.32 13.93 3.54 13.77 3.68L11.75 5.29L13.46 5.29C13.73 5.29 13.96 5.52 13.96 5.79C13.96 6.06 13.73 6.29 13.46 6.29L10.32 6.29C10.11 6.29 9.92 6.16 9.85 5.96Z" fill="currentColor" fill-opacity="1.000000" fill-rule="nonzero"/>
	</g>
</svg>
