<svg width="16.000000" height="16.000000" viewBox="0 0 16 16" fill="none" xmlns="http://www.w3.org/2000/svg" xmlns:xlink="http://www.w3.org/1999/xlink">
	<desc>
			Created with Pixso.
	</desc>
	<defs>
		<clipPath id="clip2_224">
			<rect id="77#暗色模式|月亮-dark" width="16.000000" height="16.000000" fill="white" fill-opacity="0"/>
		</clipPath>
	</defs>
	<g clip-path="url(#clip2_224)">
		<path id="路径" d="M7.44 1.5C6.04 1.62 4.72 2.19 3.65 3.15C0.98 5.55 0.76 9.67 3.17 12.34C5.57 15.01 9.69 15.23 12.36 12.82C12.95 12.3 13.42 11.68 13.78 11C13.96 10.65 13.69 10.23 13.29 10.27C11.58 10.42 9.89 9.77 8.72 8.47C7.17 6.74 6.87 4.25 7.93 2.23C8.11 1.88 7.84 1.46 7.44 1.5ZM6.67 2.64L6.64 2.71C5.91 4.89 6.38 7.36 7.98 9.13L8.12 9.29C9.25 10.47 10.76 11.16 12.34 11.27L12.43 11.28L12.37 11.36C12.17 11.62 11.94 11.86 11.69 12.08C9.43 14.12 5.95 13.93 3.91 11.67C1.87 9.41 2.06 5.93 4.32 3.89C4.94 3.33 5.66 2.93 6.44 2.7L6.67 2.64Z" fill="currentColor" fill-opacity="1.000000" fill-rule="nonzero"/>
	</g>
</svg>
