<svg width="16.000000" height="16.000000" viewBox="0 0 16 16" fill="none"
	xmlns="http://www.w3.org/2000/svg" xmlns:xlink="http://www.w3.org/1999/xlink">
	<desc>
		Created with Pixso.
	</desc>
	<defs>
		<clipPath id="clip2_73">
			<rect id="79#垂直镜像|对称-mirror-y" width="16.000000" height="16.000000" fill="white"
				fill-opacity="0" />
		</clipPath>
	</defs>
	<g clip-path="url(#clip2_73)">
		<path id="形状"
			d="M14.88 12.13L10.7 2.74C10.41 2.09 9.67 1.81 9.07 2.12C8.64 2.34 8.37 2.8 8.37 3.3L8.37 12.69C8.37 13.41 8.91 14 9.59 14L13.77 14C14.45 14 15 13.41 15 12.69C15 12.49 14.95 12.3 14.88 12.13ZM13.77 12.87L9.59 12.87C9.49 12.87 9.42 12.79 9.42 12.69L9.42 3.3C9.42 3.23 9.46 3.17 9.51 3.13C9.6 3.08 9.7 3.13 9.75 3.22L13.92 12.61C13.92 12.61 13.94 12.66 13.94 12.69C13.94 12.79 13.87 12.87 13.77 12.87ZM6.92 2.12C6.32 1.81 5.58 2.09 5.29 2.74L1.11 12.13C1.04 12.3 1 12.49 1 12.69C1 13.41 1.54 14 2.22 14L6.4 14C7.08 14 7.62 13.41 7.62 12.69L7.62 3.3C7.62 2.79 7.35 2.34 6.92 2.12ZM6.57 12.69C6.57 12.79 6.5 12.87 6.4 12.87L2.22 12.87C2.12 12.87 2.05 12.79 2.05 12.69C2.05 12.66 2.05 12.63 2.06 12.61L6.24 3.22C6.27 3.14 6.35 3.1 6.43 3.11C6.49 3.14 6.57 3.23 6.57 3.3L6.57 12.69Z"
			fill="currentColor" fill-opacity="1.000000" fill-rule="nonzero" />
	</g>
</svg>