<svg width="16.000000" height="16.000000" viewBox="0 0 16 16" fill="none" xmlns="http://www.w3.org/2000/svg" xmlns:xlink="http://www.w3.org/1999/xlink">
	<desc>
			Created with Pixso.
	</desc>
	<defs>
		<clipPath id="clip2_238">
			<rect id="8#标签-tag" width="16.000000" height="16.000000" fill="white" fill-opacity="0"/>
		</clipPath>
	</defs>
	<g clip-path="url(#clip2_238)">
		<rect id="矩形" width="16.000000" height="16.000000" fill="#000000" fill-opacity="0"/>
		<path id="形状结合" d="M6.39 1C7.76 1 8.56 1.78 9.67 2.87L14.49 7.78C14.82 8.09 15 8.54 15 9.03C15 9.5 14.82 9.95 14.5 10.27L10.12 14.54C9.79 14.85 9.34 15 8.88 15C8.42 15 7.95 14.84 7.64 14.53L2.2 9.2C1.72 8.72 1.42 8.4 1.23 8.04C1.07 7.69 1 7.28 1 6.63L1 4.28C1 3.34 1.07 2.4 1.57 1.79C2.04 1.25 2.85 1 4.19 1L6.39 1ZM6.38 2.06L4.1 2.06C3.2 2.06 2.63 2.11 2.35 2.41C2.11 2.69 2.07 3.13 2.06 3.98L2.06 6.62C2.06 7.47 2.07 7.56 2.92 8.38L8.57 13.91C8.66 14 8.81 14.05 8.97 14.05C9.14 14.06 9.28 14.01 9.38 13.92L13.92 9.48C14.01 9.4 14.06 9.27 14.06 9.12C14.06 8.98 14.02 8.88 13.96 8.78L9.35 4.09L8.89 3.64C7.79 2.53 7.26 2.06 6.38 2.06ZM6.57 4.01C7.25 4.69 7.25 5.79 6.57 6.47C5.89 7.15 4.78 7.15 4.1 6.47C3.42 5.79 3.42 4.69 4.1 4.01C4.78 3.33 5.89 3.33 6.57 4.01ZM4.79 4.71C4.51 5 4.51 5.47 4.79 5.77C5.09 6.06 5.57 6.06 5.85 5.77C6.16 5.47 6.16 5.01 5.85 4.71C5.57 4.41 5.09 4.41 4.79 4.71Z" fill="currentColor" fill-opacity="1.000000" fill-rule="nonzero"/>
	</g>
</svg>
