<svg width="16.000000" height="16.000000" viewBox="0 0 16 16" fill="none"
	xmlns="http://www.w3.org/2000/svg" xmlns:xlink="http://www.w3.org/1999/xlink">
	<desc>
		Created with Pixso.
	</desc>
	<defs />
	<rect id="80#水平镜像|对称-mirror-x" width="16.000000" height="16.000000" fill="#FFFFFF"
		fill-opacity="0" />
	<path id="形状"
		d="M3.86 14.88L13.25 10.7C13.9 10.41 14.18 9.67 13.87 9.07C13.65 8.64 13.19 8.37 12.69 8.37L3.3 8.37C2.58 8.37 2 8.91 2 9.59L2 13.77C2 14.45 2.58 15 3.3 15C3.5 15 3.69 14.95 3.86 14.88ZM3.12 13.77L3.12 9.59C3.12 9.49 3.2 9.42 3.3 9.42L12.69 9.42C12.76 9.42 12.82 9.46 12.86 9.51C12.91 9.6 12.86 9.7 12.77 9.75L3.39 13.92C3.39 13.92 3.33 13.94 3.3 13.94C3.2 13.94 3.12 13.87 3.12 13.77ZM13.87 6.92C14.18 6.32 13.9 5.58 13.25 5.29L3.86 1.11C3.69 1.04 3.5 1 3.3 1C2.58 1 2 1.54 2 2.22L2 6.4C2 7.08 2.58 7.62 3.3 7.62L12.69 7.62C13.2 7.62 13.65 7.35 13.87 6.92ZM3.3 6.57C3.2 6.57 3.12 6.5 3.12 6.4L3.12 2.22C3.12 2.12 3.2 2.04 3.3 2.04C3.33 2.04 3.36 2.04 3.39 2.06L12.77 6.24C12.85 6.27 12.89 6.35 12.88 6.43C12.85 6.49 12.76 6.57 12.69 6.57L3.3 6.57Z"
		fill="currentColor" fill-opacity="1.000000" fill-rule="nonzero" />
</svg>