<svg width="16.000000" height="16.000000" viewBox="0 0 16 16" fill="none" xmlns="http://www.w3.org/2000/svg" xmlns:xlink="http://www.w3.org/1999/xlink">
	<desc>
			Created with Pixso.
	</desc>
	<defs>
		<clipPath id="clip2_45">
			<rect id="82#清除|叉号-clear" width="16.000000" height="16.000000" fill="white" fill-opacity="0"/>
		</clipPath>
	</defs>
	<g clip-path="url(#clip2_45)">
		<path id="path" d="M12.49 3.3C12.66 3.47 12.68 3.74 12.55 3.94L8.6 7.89L12.49 11.78C12.7 11.96 12.73 12.27 12.55 12.48C12.37 12.69 12.06 12.72 11.85 12.54L7.89 8.6L4 12.49C3.82 12.68 3.51 12.69 3.32 12.51C3.14 12.34 3.1 12.05 3.24 11.85L7.19 7.89L3.3 4C3.12 3.79 3.14 3.48 3.35 3.29C3.51 3.15 3.75 3.13 3.93 3.24L7.89 7.19L11.78 3.3C11.97 3.1 12.29 3.1 12.49 3.3Z" fill="currentColor" fill-opacity="1.000000" fill-rule="nonzero"/>
	</g>
</svg>
