<svg width="16.000000" height="16.000000" viewBox="0 0 16 16" fill="none" xmlns="http://www.w3.org/2000/svg" xmlns:xlink="http://www.w3.org/1999/xlink">
	<desc>
			Created with Pixso.
	</desc>
	<defs>
		<clipPath id="clip2_101">
			<rect id="87#全部收起-collapse" width="16.000000" height="16.000000" fill="white" fill-opacity="0"/>
		</clipPath>
	</defs>
	<g clip-path="url(#clip2_101)">
		<path id="矢量 173" d="M5.96 8.53C6.78 8.53 7.46 9.21 7.46 10.03L7.46 13.5C7.46 13.77 7.23 14 6.96 14C6.68 14 6.46 13.77 6.46 13.5L6.46 10.24L3.15 13.54C2.96 13.74 2.64 13.74 2.45 13.54C2.25 13.35 2.25 13.03 2.45 12.84L5.75 9.53L2.5 9.53C2.24 9.53 2.03 9.35 2 9.1L2 9.03C2 8.76 2.22 8.53 2.5 8.53L5.96 8.53ZM9.03 2C9.31 2 9.53 2.22 9.53 2.5L9.53 5.75L12.84 2.45C13.03 2.25 13.35 2.25 13.54 2.45C13.74 2.64 13.74 2.96 13.54 3.15L10.24 6.46L13.5 6.46C13.75 6.46 13.96 6.64 13.99 6.89L14 6.96C14 7.23 13.77 7.46 13.5 7.46L10.03 7.46C9.21 7.46 8.53 6.78 8.53 5.96L8.53 2.5C8.53 2.22 8.76 2 9.03 2Z" fill="currentColor" fill-opacity="1.000000" fill-rule="nonzero"/>
	</g>
</svg>
