<svg width="16.000000" height="16.000000" viewBox="0 0 16 16" fill="none" xmlns="http://www.w3.org/2000/svg" xmlns:xlink="http://www.w3.org/1999/xlink">
	<desc>
			Created with Pixso.
	</desc>
	<defs>
		<clipPath id="clip41_13">
			<rect id="88#全部收起-collapse1" width="16.000000" height="16.000000" transform="matrix(-1 0 0 1 16 0)" fill="white" fill-opacity="0"/>
		</clipPath>
	</defs>
	<g clip-path="url(#clip41_13)">
		<path id="矢量 172" d="M10.03 8.53C9.21 8.53 8.53 9.21 8.53 10.03L8.53 13.5C8.53 13.77 8.76 14 9.03 14C9.31 14 9.53 13.77 9.53 13.5L9.53 10.24L12.84 13.54C13.03 13.74 13.35 13.74 13.54 13.54C13.74 13.35 13.74 13.03 13.54 12.84L10.24 9.53L13.5 9.53C13.75 9.53 13.96 9.35 13.99 9.1L14 9.03C14 8.76 13.77 8.53 13.5 8.53L10.03 8.53ZM6.96 2C6.68 2 6.46 2.22 6.46 2.5L6.46 5.75L3.15 2.45C2.96 2.25 2.64 2.25 2.45 2.45C2.25 2.64 2.25 2.96 2.45 3.15L5.75 6.46L2.5 6.46C2.24 6.46 2.03 6.64 2 6.89L2 6.96C2 7.23 2.22 7.46 2.5 7.46L5.96 7.46C6.78 7.46 7.46 6.78 7.46 5.96L7.46 2.5C7.46 2.22 7.23 2 6.96 2Z" fill="currentColor" fill-opacity="1.000000" fill-rule="nonzero"/>
	</g>
</svg>
