<svg width="16.000000" height="16.000000" viewBox="0 0 16 16" fill="none" xmlns="http://www.w3.org/2000/svg" xmlns:xlink="http://www.w3.org/1999/xlink">
	<desc>
			Created with Pixso.
	</desc>
	<defs>
		<clipPath id="clip2_102">
			<rect id="89#全部展开-expand" width="16.000000" height="16.000000" fill="white" fill-opacity="0"/>
		</clipPath>
	</defs>
	<g clip-path="url(#clip2_102)">
		<path id="形状结合" d="M2.5 8.53C2.77 8.53 3 8.76 3 9.03L3 12.29L6.3 8.99C6.49 8.79 6.81 8.79 7 8.99C7.2 9.18 7.2 9.5 7 9.69L3.7 13L6.96 13C7.21 13 7.42 13.18 7.45 13.43L7.46 13.5C7.46 13.77 7.23 14 6.96 14L3.5 14C2.67 14 2 13.32 2 12.5L2 9.03C2 8.76 2.22 8.53 2.5 8.53ZM12.5 2C13.32 2 14 2.67 14 3.5L14 6.96C14 7.23 13.77 7.46 13.5 7.46C13.22 7.46 13 7.23 13 6.96L13 3.7L9.69 7C9.5 7.2 9.18 7.2 8.99 7C8.79 6.81 8.79 6.49 8.99 6.3L12.29 2.99L9.03 3C8.78 3 8.57 2.81 8.54 2.56L8.53 2.5C8.53 2.22 8.76 2 9.03 2L12.5 2Z" fill="currentColor" fill-opacity="1.000000" fill-rule="nonzero"/>
	</g>
</svg>
