<svg width="16.000000" height="16.000000" viewBox="0 0 16 16" fill="none"
	xmlns="http://www.w3.org/2000/svg" xmlns:xlink="http://www.w3.org/1999/xlink">
	<desc>
		Created with Pixso.
	</desc>
	<defs />
	<rect id="9.1#取消固定-unpin" width="16.000000" height="16.000000" fill="#FFFFFF" fill-opacity="0" />
	<path id="减去顶层"
		d="M10.6902 1.86664C11.107 1.51489 11.7238 1.54095 12.1094 1.92657L14.0726 3.88977C14.4583 4.27539 14.4843 4.89221 14.1325 5.30902L13.1429 6.4812C12.8232 6.32935 12.4848 6.21039 12.1322 6.12878L13.3683 4.66406C13.385 4.64429 13.3837 4.61511 13.3655 4.59686L11.3573 2.62012L7.27824 6.05463L6.2469 5.02332C6.22751 5.00391 6.19604 5.00391 6.17664 5.02332L4.24847 6.95148C4.22906 6.97089 4.22906 7.00232 4.24847 7.02173L6.36009 9.13336C6.16357 9.62134 6.04182 10.1475 6.009 10.6976L2.93167 13.7747C2.73642 13.9699 2.41983 13.9699 2.22458 13.7747C2.02931 13.5793 2.02931 13.2628 2.22458 13.0675L5.55212 9.73981L3.54137 7.72882C3.15555 7.34302 3.13286 6.73163 3.47328 6.31927L3.54137 6.24438L5.46954 4.31622C5.87946 3.90625 6.54408 3.90625 6.95401 4.31622L7.33492 4.69714L10.6902 1.86664Z"
		clip-rule="evenodd" fill="currentColor" fill-opacity="1.000000" fill-rule="evenodd" />
	<path id="合并"
		d="M7.57143 10.4286L14.4286 10.4286L14.4286 11.4286L7.57143 11.4286L7.57143 10.4286Z"
		clip-rule="evenodd" fill="#000000" fill-opacity="1.000000" fill-rule="evenodd" />
	<circle id="椭圆 2" cx="11.000000" cy="11.000000" r="4.000000" fill="#C4C4C4" fill-opacity="0" />
	<circle id="椭圆 2" cx="11.000000" cy="11.000000" r="3.500000" stroke="currentColor"
		stroke-opacity="1.000000" stroke-width="1.000000" />
</svg>