<svg width="16.000000" height="16.000000" viewBox="0 0 16 16" fill="none" xmlns="http://www.w3.org/2000/svg" xmlns:xlink="http://www.w3.org/1999/xlink">
	<desc>
			Created with Pixso.
	</desc>
	<defs>
		<clipPath id="clip41_12">
			<rect id="90#全部展开-expand1" width="16.000000" height="16.000000" fill="white" fill-opacity="0"/>
		</clipPath>
	</defs>
	<g clip-path="url(#clip41_12)">
		<path id="形状结合" d="M13.5 8.53C13.22 8.53 13 8.76 13 9.03L13 12.29L9.69 8.99C9.5 8.79 9.18 8.79 8.99 8.99C8.79 9.18 8.79 9.5 8.99 9.69L12.29 13L9.03 13C8.78 13 8.57 13.18 8.54 13.43L8.53 13.5C8.53 13.77 8.76 14 9.03 14L12.5 14C13.32 14 14 13.32 14 12.5L14 9.03C14 8.76 13.77 8.53 13.5 8.53ZM3.5 2C2.67 2 2 2.67 2 3.5L2 6.96C2 7.23 2.22 7.46 2.5 7.46C2.77 7.46 3 7.23 3 6.96L3 3.7L6.3 7C6.49 7.2 6.81 7.2 7 7C7.2 6.81 7.2 6.49 7 6.3L3.7 2.99L6.96 3C7.21 3 7.42 2.81 7.45 2.56L7.46 2.5C7.46 2.22 7.23 2 6.96 2L3.5 2Z" fill="currentColor" fill-opacity="1.000000" fill-rule="nonzero"/>
	</g>
</svg>
