<svg width="16.000000" height="16.000000" viewBox="0 0 16 16" fill="none" xmlns="http://www.w3.org/2000/svg" xmlns:xlink="http://www.w3.org/1999/xlink">
	<desc>
			Created with Pixso.
	</desc>
	<defs/>
	<path id="矢量 170" d="M3.23 8.56C2.92 8.25 2.92 7.74 3.23 7.43L7.33 3.33C7.56 3.09 7.94 3.09 8.18 3.33C8.35 3.56 8.39 3.97 8.18 4.18L4.36 7.99L8.18 11.81C8.41 12.05 8.41 12.43 8.18 12.66C7.94 12.9 7.56 12.9 7.33 12.66L3.23 8.56ZM8.23 7.43C7.92 7.74 7.92 8.25 8.23 8.56L12.33 12.66C12.56 12.9 12.94 12.9 13.18 12.66C13.41 12.43 13.41 12.05 13.18 11.81L9.36 7.99L13.18 4.18C13.39 3.97 13.41 3.64 13.24 3.4C13.01 3.17 12.56 3.09 12.33 3.33L8.23 7.43Z" fill="currentColor" fill-opacity="1.000000" fill-rule="evenodd"/>
</svg>
