<svg width="16.000000" height="16.000000" viewBox="0 0 16 16" fill="none" xmlns="http://www.w3.org/2000/svg" xmlns:xlink="http://www.w3.org/1999/xlink">
	<desc>
			Created with Pixso.
	</desc>
	<defs/>
	<path id="矢量 171" d="M13.12 8.56C13.43 8.25 13.43 7.74 13.12 7.43L9.02 3.33C8.78 3.09 8.41 3.09 8.17 3.33C8 3.56 7.96 3.97 8.17 4.18L11.99 7.99L8.17 11.81C7.94 12.05 7.94 12.43 8.17 12.66C8.41 12.9 8.78 12.9 9.02 12.66L13.12 8.56ZM8.12 7.43C8.43 7.74 8.43 8.25 8.12 8.56L4.02 12.66C3.78 12.9 3.41 12.9 3.17 12.66C2.94 12.43 2.94 12.05 3.17 11.81L6.99 7.99L3.17 4.18C2.96 3.97 2.94 3.64 3.11 3.4C3.34 3.17 3.78 3.09 4.02 3.33L8.12 7.43Z" fill="currentColor" fill-opacity="1.000000" fill-rule="evenodd"/>
</svg>
