<svg width="16.000000" height="16.000000" viewBox="0 0 16 16" fill="none" xmlns="http://www.w3.org/2000/svg" xmlns:xlink="http://www.w3.org/1999/xlink">
	<desc>
			Created with Pixso.
	</desc>
	<defs>
		<clipPath id="clip2_113">
			<rect id="94#关闭-close" width="16.000000" height="16.000000" fill="white" fill-opacity="0"/>
		</clipPath>
	</defs>
	<g clip-path="url(#clip2_113)">
		<path id="矢量 159" d="M3.05 3.05C5.78 0.31 10.21 0.31 12.94 3.05C15.68 5.78 15.68 10.21 12.94 12.94C10.21 15.68 5.78 15.68 3.05 12.94C0.31 10.21 0.31 5.78 3.05 3.05ZM3.75 3.75C1.41 6.1 1.41 9.89 3.75 12.24C6.1 14.58 9.89 14.58 12.24 12.24C14.58 9.89 14.58 6.1 12.24 3.75C9.89 1.41 6.1 1.41 3.75 3.75ZM5.52 5.52C5.32 5.72 5.32 6.03 5.52 6.23L7.29 7.99L5.52 9.76C5.32 9.96 5.32 10.27 5.52 10.47C5.72 10.67 6.03 10.67 6.23 10.47L7.99 8.7L9.76 10.47C9.96 10.67 10.27 10.67 10.47 10.47C10.67 10.27 10.67 9.96 10.47 9.76L8.7 7.99L10.47 6.23C10.67 6.03 10.67 5.72 10.47 5.52C10.27 5.32 9.96 5.32 9.76 5.52L7.99 7.29L6.23 5.52C6.03 5.32 5.72 5.32 5.52 5.52Z" fill="currentColor" fill-opacity="1.000000" fill-rule="evenodd"/>
	</g>
</svg>
