<svg width="16.000000" height="16.000000" viewBox="0 0 16 16" fill="none" xmlns="http://www.w3.org/2000/svg" xmlns:xlink="http://www.w3.org/1999/xlink">
	<desc>
			Created with Pixso.
	</desc>
	<defs>
		<clipPath id="clip117_1475">
			<rect id="95.1#风险|警告-risk" width="16.000000" height="16.000000" fill="white" fill-opacity="0"/>
		</clipPath>
	</defs>
	<g clip-path="url(#clip117_1475)">
		<path id="_矢量-178" d="M6.32 1.96L0.76 11.61C0.65 11.78 0.58 11.96 0.54 12.15C0.51 12.3 0.49 12.45 0.5 12.6C0.5 12.75 0.52 12.9 0.55 13.04C0.6 13.21 0.66 13.38 0.76 13.53C0.85 13.69 0.95 13.83 1.08 13.95C1.19 14.06 1.3 14.15 1.43 14.23C1.56 14.3 1.7 14.37 1.84 14.41C2.03 14.47 2.22 14.5 2.43 14.5L13.56 14.5C13.77 14.5 13.96 14.47 14.15 14.41C14.29 14.37 14.43 14.3 14.56 14.23C14.69 14.15 14.8 14.06 14.91 13.95C15.04 13.83 15.14 13.69 15.23 13.53C15.33 13.38 15.39 13.21 15.44 13.04C15.47 12.9 15.49 12.75 15.49 12.6C15.5 12.45 15.48 12.3 15.45 12.15C15.41 11.96 15.34 11.78 15.23 11.61L9.67 1.96C9.56 1.78 9.44 1.63 9.3 1.5C9.19 1.4 9.07 1.31 8.93 1.23C8.8 1.15 8.66 1.1 8.52 1.07C8.35 1.02 8.18 1 8 1C7.82 1 7.64 1.02 7.47 1.07C7.33 1.1 7.19 1.16 7.06 1.23C6.92 1.31 6.8 1.4 6.69 1.5C6.55 1.63 6.43 1.78 6.32 1.96ZM1.51 12.4C1.53 12.3 1.57 12.2 1.62 12.11L7.19 2.46C7.25 2.35 7.31 2.28 7.39 2.21C7.44 2.16 7.49 2.14 7.54 2.1C7.6 2.08 7.66 2.04 7.72 2.03C7.81 2.01 7.9 2 8 2C8.09 2 8.18 2 8.27 2.03C8.33 2.04 8.39 2.08 8.45 2.1C8.5 2.14 8.55 2.16 8.6 2.21C8.68 2.28 8.75 2.35 8.8 2.46L14.37 12.11C14.42 12.2 14.46 12.3 14.48 12.4C14.49 12.46 14.5 12.52 14.49 12.58C14.49 12.65 14.49 12.71 14.47 12.78C14.45 12.86 14.42 12.95 14.37 13.03C14.32 13.12 14.26 13.19 14.2 13.25C14.2 13.25 14.1 13.34 14.04 13.37C13.99 13.4 13.94 13.43 13.88 13.45C13.78 13.48 13.68 13.5 13.56 13.5L2.43 13.5C2.31 13.5 2.21 13.48 2.11 13.45C2.05 13.43 2 13.4 1.95 13.37C1.89 13.34 1.84 13.3 1.79 13.25C1.73 13.19 1.67 13.12 1.62 13.03C1.57 12.95 1.54 12.86 1.52 12.78C1.5 12.71 1.5 12.65 1.5 12.58C1.5 12.52 1.51 12.46 1.51 12.4ZM8 5C8.28 5 8.5 5.21 8.5 5.5L8.5 9C8.5 9.28 8.28 9.5 8 9.5C7.72 9.5 7.5 9.28 7.5 9L7.5 5.5C7.5 5.21 7.72 5 8 5ZM7.25 11.25C7.25 10.83 7.58 10.5 8 10.5C8.42 10.5 8.75 10.83 8.75 11.25C8.75 11.67 8.41 12 8 12C7.59 12 7.25 11.66 7.25 11.25Z" fill="currentColor" fill-opacity="1.000000" fill-rule="evenodd"/>
	</g>
</svg>
