<svg width="16.000000" height="16.000000" viewBox="0 0 16 16" fill="none" xmlns="http://www.w3.org/2000/svg" xmlns:xlink="http://www.w3.org/1999/xlink">
	<desc>
			Created with Pixso.
	</desc>
	<defs>
		<clipPath id="clip2_225">
			<rect id="96#版本信息-info" width="16.000000" height="16.000000" fill="white" fill-opacity="0"/>
		</clipPath>
	</defs>
	<g clip-path="url(#clip2_225)">
		<path id="矢量 174" d="M8 1C11.86 1 15 4.13 15 8C15 11.86 11.86 15 8 15C4.13 15 1 11.86 1 8C1 4.13 4.13 1 8 1ZM8 2C4.68 2 2 4.68 2 8C2 11.31 4.68 14 8 14C11.31 14 14 11.31 14 8C14 4.68 11.31 2 8 2ZM8 7C8.27 7 8.5 7.22 8.5 7.5L8.5 11.5C8.5 11.77 8.27 12 8 12C7.72 12 7.5 11.77 7.5 11.5L7.5 7.5C7.5 7.22 7.72 7 8 7ZM8 4.59C8.41 4.59 8.75 4.93 8.75 5.34C8.75 5.76 8.41 6.09 8 6.09C7.58 6.09 7.25 5.76 7.25 5.34C7.25 4.93 7.58 4.59 8 4.59Z" fill="currentColor" fill-opacity="1.000000" fill-rule="nonzero"/>
	</g>
</svg>
