<svg width="16.000000" height="16.000000" viewBox="0 0 16 16" fill="none" xmlns="http://www.w3.org/2000/svg" xmlns:xlink="http://www.w3.org/1999/xlink">
	<desc>
			Created with Pixso.
	</desc>
	<defs>
		<clipPath id="clip2_226">
			<rect id="97#帮助-help" width="16.000000" height="16.000000" fill="white" fill-opacity="0"/>
		</clipPath>
	</defs>
	<g clip-path="url(#clip2_226)">
		<path id="形状结合" d="M8 1C11.86 1 15 4.13 15 8C15 11.86 11.86 15 8 15C4.13 15 1 11.86 1 8C1 4.13 4.13 1 8 1ZM8 2C4.68 2 2 4.68 2 8C2 11.31 4.68 14 8 14C11.31 14 14 11.31 14 8C14 4.68 11.31 2 8 2ZM7.93 10.59C8.24 10.59 8.5 10.84 8.5 11.15C8.5 11.46 8.24 11.71 7.93 11.71C7.62 11.71 7.37 11.46 7.37 11.15C7.37 10.84 7.62 10.59 7.93 10.59ZM7.97 4.5C9.2 4.5 10.2 5.49 10.2 6.71C10.2 7.73 9.52 8.58 8.59 8.85L8.47 8.88L8.47 9.66C8.47 9.9 8.3 10.11 8.06 10.15L7.97 10.16C7.7 10.16 7.47 9.94 7.47 9.66L7.47 8.43C7.47 8.16 7.7 7.93 7.97 7.93C8.65 7.93 9.2 7.39 9.2 6.71C9.2 6.04 8.65 5.5 7.97 5.5C7.29 5.5 6.75 6.04 6.75 6.71C6.75 6.99 6.52 7.21 6.25 7.21C5.97 7.21 5.75 6.99 5.75 6.71C5.75 5.49 6.74 4.5 7.97 4.5Z" fill="currentColor" fill-opacity="1.000000" fill-rule="nonzero"/>
	</g>
</svg>
