<svg width="16.000000" height="16.000000" viewBox="0 0 16 16" fill="none" xmlns="http://www.w3.org/2000/svg" xmlns:xlink="http://www.w3.org/1999/xlink">
	<desc>
			Created with Pixso.
	</desc>
	<defs>
		<clipPath id="clip2_71">
			<rect id="98#停止|禁用-disabled" width="16.000000" height="16.000000" fill="white" fill-opacity="0"/>
		</clipPath>
	</defs>
	<g clip-path="url(#clip2_71)">
		<path id="形状结合" d="M8 1C11.86 1 15 4.13 15 8C15 11.86 11.86 15 8 15C4.13 15 1 11.86 1 8C1 4.13 4.13 1 8 1ZM12.58 4.12L4.12 12.58C5.17 13.46 6.52 14 8 14C11.31 14 14 11.31 14 8C14 6.52 13.46 5.17 12.58 4.12ZM8 2C4.68 2 2 4.68 2 8C2 9.47 2.53 10.82 3.41 11.87L11.87 3.41C10.82 2.53 9.47 2 8 2Z" fill="currentColor" fill-opacity="1.000000" fill-rule="nonzero"/>
	</g>
</svg>
