<svg width="72.000000" height="72.000000" viewBox="0 0 72 72" fill="none" xmlns="http://www.w3.org/2000/svg" xmlns:xlink="http://www.w3.org/1999/xlink">
	<desc>
			Created with Pixso.
	</desc>
	<defs>
		<clipPath id="clip117_279">
			<rect id="10#组织成员账号-OrgID" width="72.000000" height="72.000000" fill="white" fill-opacity="0"/>
		</clipPath>
	</defs>
	<g clip-path="url(#clip117_279)">
		<path id="矩形备份-19" d="M16 0L56 0C64.8 0 72 7.2 72 16L72 56C72 64.79 64.8 72 56 72L16 72C7.19 72 0 64.79 0 56L0 16C0 7.2 7.19 0 16 0Z" fill="#7DCC29" fill-opacity="1.000000" fill-rule="evenodd"/>
		<path id="形状结合" d="M59.28 32.25C63.02 34.62 63 40.33 59.28 42.7L46.6 51C45.17 51.95 43.68 51.42 42.07 50.39C41.13 49.79 40.8 49.5 40.08 48.93C38.77 47.89 37.14 46.55 35.91 45.62C35.42 45.25 34.5 44.54 33.16 43.49L30.92 41.76C28.8 40.12 28.41 37.08 30.05 34.96C31.93 32.46 35.85 32.49 37.73 34.96L43.07 41.86C45.53 40.41 48.05 37.79 50.62 34.04C52.51 31.16 56.39 30.36 59.28 32.25ZM23.18 29.92C24.12 29.92 25.04 30.08 25.91 30.36C26.24 30.46 26.54 30.58 26.85 30.71C27.78 31.13 28.18 32.22 27.77 33.14C27.37 34.01 26.37 34.45 25.48 34.12L25.2 34C25.13 33.97 25.07 33.96 25.01 33.93C24.45 33.72 23.81 33.61 23.18 33.61C20.39 33.61 18.11 35.79 18.03 38.5C18.02 38.42 18 38.36 17.99 38.28C17.95 38.11 17.9 37.95 17.82 37.79L17.75 37.66L17.82 37.79C17.95 38.04 18.02 38.33 18.02 38.63C18.02 39.66 17.2 40.47 16.2 40.47C15.48 40.47 14.8 40.68 14.24 41.04L14.06 41.16C13.13 41.83 12.52 42.91 12.52 44.14C12.52 46.16 14.17 47.82 16.2 47.82L35.27 47.82C36.29 47.82 37.11 48.63 37.11 49.66C37.11 50.66 36.29 51.49 35.27 51.49L16.2 51.49C12.14 51.49 8.85 48.2 8.85 44.14C8.85 40.67 11.27 37.75 14.51 37C14.57 36.68 14.65 36.38 14.74 36.08C14.78 35.97 14.82 35.87 14.85 35.75C14.89 35.66 14.93 35.55 14.98 35.45C15.01 35.34 15.07 35.21 15.12 35.11C15.16 35 15.22 34.89 15.26 34.79C15.31 34.68 15.37 34.58 15.42 34.49C15.59 34.18 15.77 33.89 15.98 33.62C16.04 33.53 16.11 33.43 16.18 33.34C16.25 33.25 16.32 33.16 16.4 33.08C16.54 32.89 16.7 32.72 16.85 32.57C16.93 32.49 17.01 32.41 17.09 32.33C17.2 32.24 17.29 32.14 17.4 32.05L17.62 31.87C17.74 31.78 17.87 31.67 18.01 31.58C18.08 31.53 18.17 31.46 18.25 31.41C18.38 31.33 18.52 31.24 18.66 31.16C18.75 31.09 18.84 31.04 18.95 31C19.18 30.87 19.43 30.75 19.7 30.63C19.76 30.59 19.84 30.57 19.92 30.54C20 30.5 20.09 30.47 20.17 30.43C20.3 30.39 20.42 30.36 20.56 30.32C20.71 30.26 20.83 30.24 20.98 30.2C21.1 30.16 21.24 30.13 21.37 30.11C21.63 30.05 21.89 30 22.15 29.97C22.25 29.96 22.34 29.96 22.43 29.96C22.55 29.93 22.7 29.93 22.81 29.92C22.93 29.93 23.05 29.92 23.18 29.92ZM35.72 22.43C38.13 22.43 40.08 24.39 40.08 26.8C40.08 29.21 38.12 31.17 35.72 31.17C33.3 31.17 31.34 29.21 31.34 26.8C31.34 24.39 33.29 22.43 35.72 22.43ZM51.83 19.37C54.73 19.37 57.08 21.72 57.08 24.62C57.08 27.5 54.73 29.86 51.83 29.86C48.93 29.86 46.58 27.5 46.58 24.62C46.58 21.72 48.95 19.37 51.83 19.37Z" fill="#FFFFFF" fill-opacity="1.000000" fill-rule="nonzero"/>
	</g>
</svg>
