<svg width="72.000000" height="72.000000" viewBox="0 0 72 72" fill="none" xmlns="http://www.w3.org/2000/svg" xmlns:xlink="http://www.w3.org/1999/xlink">
	<desc>
			Created with Pixso.
	</desc>
	<defs>
		<clipPath id="clip117_313">
			<rect id="11#应用平台-AppStage" width="72.000000" height="72.000000" fill="white" fill-opacity="0"/>
		</clipPath>
	</defs>
	<g clip-path="url(#clip117_313)">
		<path id="矩形备份-15" d="M16 0L56 0C64.84 0 72 7.16 72 16L72 56C72 64.83 64.84 72 56 72L16 72C7.15 72 0 64.83 0 56L0 16C0 7.16 7.15 0 16 0Z" fill="#1476FF" fill-opacity="1.000000" fill-rule="evenodd"/>
		<g opacity="0.720000">
			<path id="形状结合" d="M36.23 28.69C35.68 28.31 33.18 27.35 27.89 37.06C25.59 41.29 24.21 44.12 23.46 46.41C22.48 46.66 21.63 46.73 20.83 46.61C13.12 45.41 17.33 35.87 17.43 35.65C17.38 35.74 16.91 36.58 12.38 44.69C15.15 39.53 17.9 34.75 20.72 30C20.78 29.9 20.89 29.71 20.98 29.57C21.76 28.33 23.89 25.41 26.97 24.54C29.68 23.78 32.87 24.83 36.23 28.69Z" fill="#FFFFFF" fill-opacity="1.000000" fill-rule="evenodd"/>
		</g>
		<g opacity="0.890000">
			<path id="Fill-5" d="M60.52 50.39C56.81 43.31 48.92 28.02 44.61 19.73C40.31 11.43 31.68 11.45 26.8 19.73C23.54 25.25 21.51 28.69 20.7 30.06C20.7 30.06 23.01 25.66 26.98 24.54C30.96 23.43 35.97 26.21 40.99 36.04C48.29 50.39 47.09 48.6 50.96 55.21C54.82 61.83 64.22 57.46 60.52 50.39Z" fill="#FFFFFF" fill-opacity="1.000000" fill-rule="evenodd"/>
		</g>
		<path id="Fill-3" d="M44.3 19.21C44.3 19.21 47.77 25.01 45.39 31.73C44.11 35.39 39.67 38.92 32.86 42.26C26.43 45.41 23.37 47 20.83 46.6C13.04 45.41 17.43 35.63 17.43 35.63C17.43 35.63 17.43 35.63 12.38 44.7C7.32 53.75 13.89 61.38 23.02 57.25C32.13 53.1 28.73 54.63 36.74 50.47C44.74 46.33 54.18 40.37 60.52 50.37C53 35.43 44.3 19.21 44.3 19.21Z" fill="#FFFFFF" fill-opacity="1.000000" fill-rule="evenodd"/>
	</g>
</svg>
