<svg width="72.000000" height="72.000000" viewBox="0 0 72 72" fill="none" xmlns="http://www.w3.org/2000/svg" xmlns:xlink="http://www.w3.org/1999/xlink">
	<desc>
			Created with Pixso.
	</desc>
	<defs>
		<clipPath id="clip117_288">
			<rect id="2#开天集成工作台-MSSI" width="72.000000" height="72.000000" fill="white" fill-opacity="0"/>
		</clipPath>
	</defs>
	<g clip-path="url(#clip117_288)">
		<path id="矩形备份-19" d="M16 0L56 0C64.8 0 72 7.2 72 16L72 56C72 64.79 64.8 72 56 72L16 72C7.19 72 0 64.79 0 56L0 16C0 7.2 7.19 0 16 0Z" fill="#F85835" fill-opacity="1.000000" fill-rule="evenodd"/>
		<path id="形状结合" d="M34.8 13C35.89 12.4 37.2 12.7 37.89 13.7L38 13.79L54.2 40.6L41.5 40.6L41.5 37.79L49.2 37.79L36 15.9L22.8 37.79L36.8 37.79L38.5 40.6L17.79 40.6L34 13.79C34.2 13.4 34.5 13.2 34.8 13ZM34 31.5C34.7 30.4 36.09 30.1 37.2 30.7C37.5 30.9 37.7 31.1 37.89 31.29L38 31.5L45.59 44.1L43.2 45.5L36 33.6L32 40.1L29.3 39.2L34 31.5ZM27.59 43.4L55.8 43.4L60.59 51.9C61.2 53 60.89 54.4 59.7 55.1C59.39 55.29 59.09 55.4 58.7 55.4L58.5 55.4L48.5 55.4L44.09 47.79L47.2 47.79L50 52.7L57.59 52.7L54 46.29L27.39 46.29L27.39 43.4L27.59 43.4ZM25.3 43.4L23.59 46.2L17.89 46.2L14.2 52.6L44.8 52.6L46.5 55.4L13.3 55.4C12.89 55.4 12.5 55.29 12.09 55.1C11 54.5 10.7 53.1 11.2 52.1L11.3 52L16.29 43.6L25.3 43.6L25.3 43.4ZM27.8 41.79L31 41.79L23.3 55L20.89 53.6L27.8 41.79Z" fill="#FFFFFF" fill-opacity="1.000000" fill-rule="nonzero"/>
	</g>
</svg>
