<svg width="72.000000" height="72.000000" viewBox="0 0 72 72" fill="none" xmlns="http://www.w3.org/2000/svg" xmlns:xlink="http://www.w3.org/1999/xlink">
	<desc>
			Created with Pixso.
	</desc>
	<defs>
		<clipPath id="clip117_280">
			<rect id="3#API中心-APIHub" width="72.000000" height="72.000000" fill="white" fill-opacity="0"/>
		</clipPath>
	</defs>
	<g clip-path="url(#clip117_280)">
		<path id="矩形备份-19" d="M16 0L56 0C64.8 0 72 7.2 72 16L72 56C72 64.79 64.8 72 56 72L16 72C7.19 72 0 64.79 0 56L0 16C0 7.2 7.19 0 16 0Z" fill="#00ABED" fill-opacity="1.000000" fill-rule="evenodd"/>
		<path id="形状结合" d="M50.2 42.09L55 53.9C55.5 55.2 54.89 56.59 53.59 57.2C52.3 57.79 50.89 57.09 50.3 55.79L45.5 44.09C47.2 43.5 48.7 42.79 50.2 42.09ZM22.2 47.5C23.8 47.7 25.59 47.9 27.39 47.9L24.09 55.9C23.59 57.09 22.2 57.7 21 57.29L20.8 57.2C19.5 56.7 18.89 55.2 19.39 53.9L22.2 47.5ZM47 17.79C54.39 18.29 59.89 21 61.09 25.5C63 32.59 53.3 41.4 39.39 45.09C25.5 48.79 12.7 46.09 10.8 38.9C9.59 34.4 13 29.29 19.09 25.2C14.59 28.59 12.2 32.59 13.2 36.09C14.89 42.29 26.09 44.59 38.39 41.29C50.6 38 59.2 30.4 57.6 24.2C56.7 20.7 52.7 18.5 47.2 17.79L47 17.79ZM39.59 16.2L47.89 36.5C46.5 37.29 45 38 43.39 38.7L37.3 23.7L29.89 41.79C28 41.9 26.2 41.9 24.5 41.7L35 16.2C35.8 14.09 38.8 14.09 39.59 16.2Z" fill="#FFFFFF" fill-opacity="1.000000" fill-rule="nonzero"/>
	</g>
</svg>
