<svg width="72.000000" height="72.000000" viewBox="0 0 72 72" fill="none" xmlns="http://www.w3.org/2000/svg" xmlns:xlink="http://www.w3.org/1999/xlink">
	<desc>
			Created with Pixso.
	</desc>
	<defs>
		<clipPath id="clip117_282">
			<rect id="4#云空间服务-KooDrive" width="72.000000" height="72.000000" fill="white" fill-opacity="0"/>
		</clipPath>
	</defs>
	<g clip-path="url(#clip117_282)">
		<path id="矩形备份-19" d="M16 0L56 0C64.8 0 72 7.2 72 16L72 56C72 64.79 64.8 72 56 72L16 72C7.19 72 0 64.79 0 56L0 16C0 7.2 7.19 0 16 0Z" fill="#1476FF" fill-opacity="1.000000" fill-rule="evenodd"/>
		<path id="形状结合" d="M62 30.79C62 31 62 31.09 62 31.29L62 50.5C62 50.79 61.8 51 61.5 51L56.5 50.2L56.5 50.4C56.5 50.7 56.3 50.9 56 50.9L43.3 48.2C42.1 48 41.2 46.9 41.2 45.7L41.2 32.9C41.2 31.59 42.1 30.59 43.4 30.4L58.2 28.09C60 27.79 61.7 29 62 30.79ZM34.4 21C34.5 21 34.5 21 34.6 21L51.9 24.2C52 24.2 52.2 24.2 52.4 24.29C53.5 24.59 54.3 25.59 54.3 26.79L54.3 27.7L43.3 29.4C41.6 29.7 40.3 31.09 40.3 32.79L40.3 45.7C40.3 46.7 40.8 47.7 41.5 48.4L32 49.59C31.9 49.59 31.7 49.59 31.6 49.59C29.7 49.59 28.1 48.09 28.1 46.09L28.1 22.4L28.1 22.29C28.2 21.79 28.7 21.4 29.2 21.4L33.6 21.9C33.5 21.4 33.9 21 34.4 21ZM58.5 29.59C57.4 29.59 56.5 30.5 56.5 31.59L56.5 49.5L60 49.5C60.3 49.5 60.5 49.29 60.5 49L60.5 31.59C60.5 30.5 59.6 29.59 58.5 29.59ZM33.4 22.9L30.3 23.2C29.8 23.2 29.4 23.7 29.4 24.2L29.4 46C29.4 47.09 30.3 48 31.4 48C32.5 48 33.4 47.09 33.4 46L33.4 22.9ZM22.2 30.2C23.4 30.2 24.7 30.5 25.8 31C26.7 31.4 27.1 32.5 26.7 33.4C26.3 34.29 25.2 34.7 24.3 34.29C23.6 34 22.9 33.9 22.2 33.9C19.4 33.9 17.2 36.09 17.2 38.7C17.2 39.7 16.4 40.5 15.4 40.5C14.4 40.5 13.6 39.7 13.6 38.7C13.6 34 17.5 30.2 22.2 30.2ZM15.4 36.9C16.4 36.9 17.2 37.7 17.2 38.7C17.2 39.59 16.5 40.4 15.6 40.5L15.4 40.5C13.4 40.5 11.9 42.09 11.9 44C11.9 45.9 13.5 47.5 15.5 47.5L25.2 47.5C26.2 47.5 27 48.29 27 49.29C27 50.29 26.2 51.09 25.2 51.09L15.5 51.09C11.5 51.09 8.3 47.9 8.3 44C8.3 40.09 11.4 36.9 15.4 36.9Z" fill="#FFFFFF" fill-opacity="1.000000" fill-rule="nonzero"/>
	</g>
</svg>
