<svg width="72.000000" height="72.000000" viewBox="0 0 72 72" fill="none" xmlns="http://www.w3.org/2000/svg" xmlns:xlink="http://www.w3.org/1999/xlink">
	<desc>
			Created with Pixso.
	</desc>
	<defs>
		<clipPath id="clip117_284">
			<rect id="5#云消息服务-KooMessage" width="72.000000" height="72.000000" fill="white" fill-opacity="0"/>
		</clipPath>
	</defs>
	<g clip-path="url(#clip117_284)">
		<path id="矩形备份-19" d="M16 0L56 0C64.8 0 72 7.2 72 16L72 56C72 64.79 64.8 72 56 72L16 72C7.19 72 0 64.79 0 56L0 16C0 7.2 7.19 0 16 0Z" fill="#FF9A2E" fill-opacity="1.000000" fill-rule="evenodd"/>
		<path id="形状结合" d="M15.86 51.1C12 51.1 8.85 47.95 8.85 44.09C8.85 40.78 11.17 38 14.26 37.28C14.32 36.98 14.39 36.69 14.48 36.4C14.51 36.29 14.55 36.19 14.59 36.08C14.62 35.98 14.66 35.89 14.7 35.79C14.74 35.69 14.8 35.56 14.84 35.47C14.88 35.37 14.93 35.27 14.98 35.16C15.03 35.06 15.09 34.97 15.14 34.88C15.3 34.59 15.47 34.32 15.67 34.05C15.74 33.96 15.8 33.87 15.86 33.79C15.93 33.7 16 33.62 16.07 33.53C16.2 33.36 16.35 33.2 16.51 33.05C16.58 32.98 16.65 32.9 16.74 32.83C16.83 32.74 16.93 32.65 17.03 32.57C17.1 32.51 17.17 32.45 17.24 32.39C17.36 32.3 17.48 32.2 17.61 32.11C17.68 32.05 17.77 32 17.84 31.95C17.97 31.87 18.09 31.78 18.23 31.71C18.32 31.65 18.41 31.6 18.5 31.56C18.73 31.43 18.98 31.32 19.22 31.21C19.29 31.18 19.36 31.15 19.44 31.12C19.52 31.09 19.6 31.05 19.68 31.03C19.79 30.99 19.92 30.95 20.04 30.91C20.18 30.87 20.32 30.83 20.45 30.8C20.57 30.77 20.7 30.74 20.83 30.71C21.08 30.66 21.33 30.62 21.58 30.59C21.67 30.57 21.76 30.57 21.85 30.56C21.96 30.54 22.09 30.54 22.2 30.54C22.32 30.53 22.43 30.53 22.55 30.53C23.32 30.53 24.07 30.63 24.8 30.83L25.16 30.94C25.46 31.03 25.76 31.16 26.05 31.28C26.94 31.68 27.32 32.71 26.93 33.6C26.54 34.49 25.5 34.87 24.61 34.48C24.57 34.46 24.52 34.44 24.47 34.41C24.41 34.39 24.35 34.37 24.3 34.35C23.75 34.15 23.15 34.04 22.55 34.04C19.89 34.04 17.71 36.12 17.64 38.71C17.63 38.64 17.61 38.57 17.6 38.5C17.57 38.34 17.51 38.18 17.44 38.04L17.36 37.9L17.44 38.04C17.57 38.28 17.64 38.55 17.64 38.85C17.64 39.82 16.86 40.6 15.89 40.6C15.28 40.6 14.71 40.76 14.21 41.03L14 41.13C13.01 41.75 12.36 42.85 12.36 44.09C12.36 46.02 13.93 47.59 15.86 47.59L30.56 47.59C31.52 47.59 32.31 48.38 32.31 49.35C32.31 50.31 31.52 51.1 30.56 51.1L15.86 51.1ZM55.65 20.9C59.78 20.9 63.14 24.24 63.14 28.35L63.14 39.63C63.14 43.56 60.06 46.79 56.17 47.06C56 47.07 55.82 47.08 55.64 47.08L47.12 47.08L38.91 50.89C38.08 51.28 37.09 50.91 36.7 50.08C36.6 49.87 36.55 49.63 36.55 49.4L36.53 47.11C32.79 46.69 29.88 43.45 29.88 39.63L29.88 28.35C29.88 24.24 33.24 20.9 37.37 20.9L55.65 20.9ZM55.65 26.41L37.37 26.41C37.3 26.41 37.23 26.41 37.17 26.41C36.77 26.46 36.39 26.63 36.1 26.88C35.68 27.24 35.42 27.76 35.42 28.35L35.42 39.63C35.42 39.79 35.44 39.95 35.48 40.1C35.69 40.94 36.46 41.57 37.37 41.57L42.02 41.57L42.04 43.36L45.9 41.57L55.66 41.57C56.57 41.57 57.34 40.94 57.55 40.1C57.59 39.95 57.61 39.79 57.61 39.63L57.61 28.35C57.61 27.35 56.85 26.53 55.87 26.41C55.79 26.41 55.72 26.41 55.65 26.41ZM40.32 32.16C41.39 32.16 42.25 33.03 42.25 34.1C42.25 35.16 41.38 36.04 40.32 36.04C39.25 36.04 38.39 35.16 38.39 34.1C38.39 33.03 39.25 32.16 40.32 32.16ZM46.51 32.16C47.58 32.16 48.44 33.03 48.44 34.1C48.44 35.16 47.57 36.04 46.51 36.04C45.45 36.04 44.58 35.16 44.58 34.1C44.58 33.03 45.44 32.16 46.51 32.16ZM52.7 32.16C53.77 32.16 54.63 33.03 54.63 34.1C54.63 35.16 53.76 36.04 52.7 36.04C51.64 36.04 50.77 35.16 50.77 34.1C50.77 33.03 51.63 32.16 52.7 32.16Z" fill="#FFFFFF" fill-opacity="1.000000" fill-rule="evenodd"/>
	</g>
</svg>
