<svg width="72.000000" height="72.000000" viewBox="0 0 72 72" fill="none" xmlns="http://www.w3.org/2000/svg" xmlns:xlink="http://www.w3.org/1999/xlink">
	<desc>
			Created with Pixso.
	</desc>
	<defs>
		<clipPath id="clip117_286">
			<rect id="6#企业搜索服务-KooSearch" width="72.000000" height="72.000000" fill="white" fill-opacity="0"/>
		</clipPath>
	</defs>
	<g clip-path="url(#clip117_286)">
		<path id="矩形备份-19" d="M16 0L56 0C64.8 0 72 7.2 72 16L72 56C72 64.79 64.8 72 56 72L16 72C7.19 72 0 64.79 0 56L0 16C0 7.2 7.19 0 16 0Z" fill="#00C4BE" fill-opacity="1.000000" fill-rule="evenodd"/>
		<path id="形状结合" d="M48.5 35.7C53 35.79 56.8 39.1 57.39 43.4C57.5 43.79 57.5 44.29 57.5 44.7C57.5 45.2 57.5 45.6 57.39 46C57.3 46.79 57 47.6 56.7 48.4C56.39 49 56.1 49.6 55.7 50.1L59.7 54.1C60.2 54.6 60.2 55.4 59.7 55.9C59.39 56.2 59.1 56.29 58.8 56.29C58.5 56.29 58.2 56.2 57.89 55.9L54 52.1C53.2 52.7 52.2 53.1 51.3 53.4C50.39 53.7 49.39 53.79 48.5 53.79C47.6 53.79 46.7 53.7 45.89 53.4C42.1 52.29 39.5 48.9 39.5 44.7C39.39 39.7 43.39 35.7 48.5 35.7ZM36.5 15.7C42.2 15.7 47 19.6 48.6 25C55 25.7 60 31.4 60 38.29C60 40.1 59.6 41.9 59 43.5C58.5 37.9 53.89 33.7 48.2 33.7C42.2 33.7 37.3 38.5 37.3 44.5C37.3 47.29 38.3 49.79 40 51.7L24 51.7C17.29 51.29 12 45.5 12 38.4C12 31.1 17.5 25.2 24.39 25C26 19.6 30.8 15.7 36.5 15.7ZM48.5 38.2C44.89 38.2 42 41.1 42 44.7C42 48.29 44.89 51.2 48.5 51.2C52.1 51.2 55 48.29 55 44.7C55 41.1 52.1 38.2 48.5 38.2Z" fill="#FFFFFF" fill-opacity="1.000000" fill-rule="evenodd"/>
	</g>
</svg>
