<svg width="72.000000" height="72.000000" viewBox="0 0 72 72" fill="none" xmlns="http://www.w3.org/2000/svg" xmlns:xlink="http://www.w3.org/1999/xlink">
	<desc>
			Created with Pixso.
	</desc>
	<defs>
		<clipPath id="clip117_281">
			<rect id="7#交换数据空间-EDS" width="72.000000" height="72.000000" fill="white" fill-opacity="0"/>
		</clipPath>
	</defs>
	<g clip-path="url(#clip117_281)">
		<path id="矩形备份-19" d="M16 0L56 0C64.8 0 72 7.2 72 16L72 56C72 64.79 64.8 72 56 72L16 72C7.19 72 0 64.79 0 56L0 16C0 7.2 7.19 0 16 0Z" fill="#25C251" fill-opacity="1.000000" fill-rule="evenodd"/>
		<path id="形状结合" d="M47.27 21.83C55.37 21.83 62 28.14 62 36C62 43.74 55.56 49.99 47.61 50.16L47.28 50.16L41.03 50.16C40.91 50.16 40.83 50.07 40.83 49.96C40.83 49.91 40.85 49.84 40.88 49.82L45.23 45.62C45.32 45.53 45.45 45.47 45.58 45.47L47.28 45.47C52.85 45.47 57.33 41.21 57.33 36C57.33 30.87 53.01 26.66 47.58 26.51L47.29 26.51L45.59 26.51C45.46 26.51 45.33 26.46 45.24 26.37L40.93 22.18C40.86 22.1 40.86 21.99 40.93 21.91C40.98 21.87 41.03 21.84 41.08 21.84L47.27 21.83ZM30.92 21.83C30.98 21.83 31.04 21.85 31.07 21.89C31.14 21.97 31.14 22.1 31.07 22.17L26.77 26.37C26.67 26.46 26.55 26.5 26.41 26.5L24.72 26.5L24.42 26.5C19 26.66 14.67 30.87 14.67 36C14.67 41.21 19.14 45.47 24.73 45.47L26.42 45.47C26.56 45.47 26.67 45.53 26.78 45.62L31.12 49.82C31.15 49.85 31.17 49.91 31.17 49.96C31.17 50.07 31.09 50.16 30.98 50.16L24.73 50.16L24.39 50.16C16.43 49.99 10 43.74 10 36C10 28.14 16.62 21.83 24.73 21.83L30.92 21.83ZM40.91 23.92L52.63 35.64C52.84 35.84 52.84 36.16 52.63 36.35L40.91 48.08C40.72 48.28 40.4 48.28 40.21 48.08L28.49 36.35C28.29 36.16 28.29 35.84 28.49 35.64L31.45 32.68C31.64 32.49 31.96 32.49 32.15 32.68L39.5 40.03C40.09 40.62 41.04 40.62 41.62 40.03L44.58 37.07C45.16 36.47 45.16 35.53 44.58 34.95L37.24 27.6C37.04 27.41 37.04 27.09 37.24 26.89L40.2 23.93C40.4 23.74 40.73 23.74 40.91 23.92ZM32.16 23.91L43.88 35.63C44.09 35.83 44.09 36.14 43.88 36.34L40.92 39.3C40.73 39.5 40.41 39.5 40.22 39.3L32.87 31.96C32.29 31.37 31.34 31.37 30.76 31.96L27.8 34.92C27.21 35.51 27.21 36.46 27.8 37.04L35.13 44.38C35.34 44.58 35.34 44.89 35.13 45.09L32.17 48.05C31.98 48.25 31.66 48.25 31.47 48.05L19.74 36.34C19.54 36.14 19.54 35.83 19.74 35.63L31.46 23.91C31.65 23.71 31.98 23.71 32.16 23.91Z" fill="#FFFFFF" fill-opacity="1.000000" fill-rule="nonzero"/>
	</g>
</svg>
