<svg width="72.000000" height="72.000000" viewBox="0 0 72 72" fill="none" xmlns="http://www.w3.org/2000/svg" xmlns:xlink="http://www.w3.org/1999/xlink">
	<desc>
			Created with Pixso.
	</desc>
	<defs>
		<clipPath id="clip117_283">
			<rect id="8#云地图服务-KooMap" width="72.000000" height="72.000000" fill="white" fill-opacity="0"/>
		</clipPath>
	</defs>
	<g clip-path="url(#clip117_283)">
		<path id="矩形备份-19" d="M16 0L56 0C64.8 0 72 7.2 72 16L72 56C72 64.79 64.8 72 56 72L16 72C7.19 72 0 64.79 0 56L0 16C0 7.2 7.19 0 16 0Z" fill="#1476FF" fill-opacity="1.000000" fill-rule="evenodd"/>
		<path id="形状结合" d="M17.36 36.94C17.7 37.23 17.9 37.66 17.9 38.14C17.9 39.02 17.2 39.74 16.32 39.74C15.71 39.74 15.11 39.92 14.63 40.23L14.45 40.33L14.63 40.23C13.74 40.79 13.14 41.79 13.14 42.92C13.14 44.68 14.57 46.1 16.32 46.1L24.89 46.1C25.78 46.1 26.49 46.81 26.49 47.7C26.49 48.59 25.78 49.29 24.89 49.29L16.75 49.29C15.47 49.29 14.3 48.78 13.45 47.96L13.59 48.09C14.42 48.83 15.54 49.29 16.75 49.29L16.32 49.28C12.82 49.28 9.96 46.42 9.96 42.92C9.96 39.91 12.06 37.38 14.86 36.72C14.91 36.45 14.99 36.18 15.07 35.92L15.16 35.63C15.2 35.54 15.23 35.46 15.27 35.37C15.3 35.28 15.34 35.16 15.39 35.08C15.43 34.99 15.48 34.9 15.52 34.8C15.56 34.71 15.6 34.62 15.65 34.53C15.8 34.26 15.96 34.01 16.13 33.78C16.2 33.7 16.26 33.62 16.32 33.54C16.37 33.46 16.43 33.38 16.51 33.31C16.62 33.15 16.76 33.01 16.89 32.87C16.96 32.8 17.04 32.73 17.1 32.67C17.18 32.59 17.28 32.5 17.37 32.43C17.43 32.37 17.51 32.32 17.57 32.27C17.67 32.18 17.79 32.1 17.9 32.02C17.98 31.97 18.04 31.92 18.11 31.87C18.23 31.8 18.34 31.72 18.46 31.65C18.54 31.61 18.62 31.56 18.7 31.52C18.91 31.4 19.13 31.3 19.35 31.2C19.41 31.17 19.49 31.14 19.54 31.12C19.62 31.09 19.7 31.06 19.77 31.03C19.87 31 19.99 30.95 20.09 30.92C20.21 30.88 20.34 30.85 20.46 30.81C20.58 30.78 20.7 30.75 20.81 30.73C21.04 30.69 21.26 30.65 21.49 30.62C21.57 30.61 21.64 30.6 21.73 30.6C21.83 30.59 21.95 30.58 22.05 30.58L22.36 30.57C23.07 30.57 23.75 30.66 24.4 30.84L24.74 30.94C25.01 31.03 25.28 31.13 25.55 31.25C26.34 31.62 26.71 32.56 26.34 33.36C25.98 34.16 25.04 34.52 24.25 34.15C24.21 34.13 24.16 34.12 24.11 34.1C24.07 34.08 24.01 34.06 23.96 34.04C23.46 33.85 22.9 33.75 22.36 33.75C19.95 33.75 17.98 35.64 17.9 38C17.89 37.93 17.88 37.87 17.87 37.81C17.81 37.47 17.62 37.16 17.36 36.94ZM38.58 30.49L38.58 49.28L35 49.28L35 36.05L33.41 35.85L33.41 33.94L38.58 30.49ZM33.41 35.85L33.41 49.27L29.43 49.27L29.43 37.86L33.41 35.85ZM44.93 22.72L44.93 49.28L40.16 49.28L40.16 30.83L38.58 30.49L38.58 26.97L44.93 22.72ZM51.3 41.11L51.3 49.28L46.55 49.28L46.53 45.88L51.3 41.11ZM46.53 37.38L49.56 40.41L46.53 43.44L46.53 37.38ZM51.3 33.18L51.3 39.69L48.05 36.44L51.3 33.18ZM46.53 28.23L50.34 32.06L46.53 35.89L46.53 28.23ZM46.53 22.72L52.88 26.96L52.88 30.5L51.55 30.77L46.53 25.75L46.53 22.72ZM56.46 40.62L56.46 49.28L52.87 49.28L52.87 44.21L56.46 40.62ZM62.03 45.91L62.03 49.28L58.65 49.28L62.03 45.91ZM58.05 43.98L59.87 45.82L58.05 47.66L58.05 43.98ZM62.03 40.74L62.03 45.66L59.57 43.2L62.03 40.74ZM52.88 34.98L56.33 38.42L52.88 41.86L52.88 34.98ZM58.05 35.86L62.03 37.85L62.03 38.66L59.53 41.16L58.05 39.68L58.05 35.86ZM52.88 30.5L58.06 33.94L58.05 35.86L56.47 36.05L52.88 32.66L52.88 30.5Z" fill="#FFFFFF" fill-opacity="1.000000" fill-rule="nonzero"/>
	</g>
</svg>
