<svg width="72.000000" height="72.000000" viewBox="0 0 72 72" fill="none" xmlns="http://www.w3.org/2000/svg" xmlns:xlink="http://www.w3.org/1999/xlink">
	<desc>
			Created with Pixso.
	</desc>
	<defs>
		<clipPath id="clip117_285">
			<rect id="9#云手机服务-KooPhone" width="72.000000" height="72.000000" fill="white" fill-opacity="0"/>
		</clipPath>
	</defs>
	<g clip-path="url(#clip117_285)">
		<path id="矩形备份-19" d="M16 0L56 0C64.8 0 72 7.2 72 16L72 56C72 64.79 64.8 72 56 72L16 72C7.19 72 0 64.79 0 56L0 16C0 7.2 7.19 0 16 0Z" fill="#9F53E6" fill-opacity="1.000000" fill-rule="evenodd"/>
		<path id="形状结合" d="M55.58 14.73C57.92 14.73 59.81 16.63 59.81 18.96L59.81 48.6C59.81 50.94 57.91 52.83 55.58 52.83L40.77 52.83C39.32 52.83 38.04 52.1 37.28 50.99C37.48 51.28 37.71 51.54 37.97 51.77C38.08 51.73 38.2 51.69 38.32 51.64C38.63 51.52 38.94 51.39 39.24 51.24L39.57 51.09C39.69 51.04 39.8 50.98 39.91 50.93L40.15 50.8C41.82 49.92 43.39 48.77 44.8 47.38C46.2 46 47.44 44.37 48.45 42.56C48.73 42.07 48.99 41.56 49.22 41.04C49.39 40.69 49.54 40.34 49.69 39.98C49.83 39.62 49.97 39.26 50.09 38.89C50.16 38.71 50.22 38.53 50.28 38.34C50.39 37.97 50.5 37.6 50.61 37.22C50.66 37.01 50.72 36.8 50.76 36.59C50.81 36.41 50.85 36.24 50.88 36.06C50.9 35.98 50.93 35.89 50.94 35.8L51 35.49C51.11 34.91 51.2 34.32 51.27 33.72C51.28 33.65 51.29 33.57 51.3 33.49C51.31 33.37 51.32 33.25 51.33 33.12L54.82 34.33C54.9 34.35 54.98 34.34 55.05 34.29C55.17 34.21 55.19 34.05 55.11 33.93L48.9 25.36C48.87 25.31 48.83 25.28 48.79 25.24C48.56 25.08 48.23 25.13 48.07 25.36L41.86 33.93C41.81 34 41.8 34.09 41.82 34.17C41.87 34.3 42.02 34.37 42.15 34.33L45.63 33.13C45.65 33.4 45.67 33.66 45.68 33.92C45.69 34.04 45.69 34.16 45.69 34.28C45.7 34.46 45.7 34.64 45.7 34.81C45.7 36 45.59 37.2 45.35 38.39C44.89 40.76 43.94 43.09 42.55 45.15C41.16 47.2 39.35 48.98 37.23 50.3C37.16 50.35 37.07 50.41 36.97 50.48C36.7 49.91 36.54 49.28 36.54 48.6L36.54 18.96C36.54 16.62 38.44 14.73 40.77 14.73L55.58 14.73ZM28.71 27.96C29.65 27.96 30.58 28.08 31.48 28.33L31.86 28.45C32.23 28.57 32.59 28.71 32.94 28.87C34.01 29.35 34.48 30.6 34 31.67C33.52 32.73 32.26 33.21 31.2 32.73C31.15 32.7 31.09 32.68 31.03 32.66L30.82 32.57C30.16 32.33 29.43 32.19 28.71 32.19C25.49 32.19 22.86 34.71 22.77 37.84L22.72 37.58C22.68 37.39 22.62 37.2 22.52 37.03L22.58 37.15C22.7 37.41 22.76 37.7 22.76 38.01C22.76 39.18 21.82 40.13 20.65 40.13C19.82 40.13 19.05 40.37 18.4 40.78L18.19 40.89L18.4 40.78C17.21 41.53 16.41 42.86 16.41 44.36C16.41 46.7 18.31 48.6 20.65 48.6L32.07 48.6C33.24 48.6 34.19 49.55 34.19 50.71C34.19 51.88 33.24 52.83 32.07 52.83L20.65 52.83C15.98 52.83 12.18 49.03 12.18 44.36C12.18 40.36 14.97 37 18.71 36.12C18.78 35.76 18.87 35.41 18.98 35.07C19.02 34.94 19.06 34.81 19.11 34.68C19.15 34.57 19.19 34.45 19.24 34.34C19.29 34.23 19.36 34.05 19.41 33.94C19.46 33.82 19.52 33.7 19.58 33.58C19.64 33.46 19.7 33.34 19.76 33.22C19.95 32.87 20.17 32.54 20.4 32.22C20.48 32.11 20.55 32.01 20.64 31.91C20.72 31.8 20.8 31.7 20.89 31.59C21.05 31.39 21.23 31.2 21.41 31.01C21.5 30.92 21.59 30.83 21.69 30.74C21.8 30.63 21.92 30.52 22.04 30.42L22.3 30.21C22.44 30.1 22.59 29.98 22.74 29.87C22.83 29.81 22.93 29.74 23.02 29.68C23.18 29.58 23.34 29.48 23.49 29.38C23.6 29.32 23.71 29.25 23.82 29.2C24.1 29.04 24.39 28.91 24.69 28.78C24.77 28.74 24.85 28.7 24.94 28.67C25.05 28.63 25.14 28.59 25.24 28.56C25.38 28.51 25.53 28.46 25.69 28.41C25.84 28.36 26 28.32 26.17 28.28C26.32 28.24 26.47 28.2 26.62 28.17C26.92 28.11 27.22 28.06 27.53 28.03C27.63 28.01 27.74 28 27.85 28C27.98 27.98 28.14 27.97 28.28 27.97C28.42 27.96 28.56 27.96 28.71 27.96ZM50.03 16.85L46.33 16.85C45.89 16.85 45.54 17.21 45.54 17.64C45.54 18.08 45.9 18.43 46.33 18.43L50.03 18.43C50.47 18.43 50.82 18.07 50.82 17.64C50.82 17.2 50.47 16.85 50.03 16.85Z" fill="#FFFFFF" fill-opacity="1.000000" fill-rule="nonzero"/>
	</g>
</svg>
