<svg width="72.000000" height="72.000000" viewBox="0 0 72 72" fill="none" xmlns="http://www.w3.org/2000/svg" xmlns:xlink="http://www.w3.org/1999/xlink">
	<desc>
			Created with Pixso.
	</desc>
	<defs>
		<clipPath id="clip117_1292">
			<rect id="1#IdeaHub-IdeaHub-device" width="72.000000" height="72.000000" fill="white" fill-opacity="0"/>
		</clipPath>
	</defs>
	<g clip-path="url(#clip117_1292)">
		<path id="矩形备份-19" d="M16 0L56 0C64.8 0 72 7.2 72 16L72 56C72 64.8 64.8 72 56 72L16 72C7.2 72 0 64.8 0 56L0 16C0 7.2 7.2 0 16 0Z" fill="#7DCC29" fill-opacity="1.000000" fill-rule="evenodd"/>
		<path id="合并" d="M15.78 18.99L50.78 18.99C52.99 18.99 54.78 20.79 54.78 22.99L54.78 24.91C54.54 25.06 54.32 25.3 54.11 25.51L50.78 28.79L50.78 25C50.78 24.33 50.61 23.83 50.28 23.5C49.95 23.16 49.45 23 48.78 23L23.78 23C23.11 23 22.61 23.16 22.28 23.5C21.95 23.83 21.78 24.33 21.78 25L21.78 47C21.78 48.33 22.45 49 23.78 49L48.78 49C50.11 49 50.78 48.33 50.78 47L50.78 42.13C50.84 42.08 50.9 42.02 50.95 41.96L54.78 38.09L54.78 47L54.78 48.99C54.78 51.2 52.99 52.99 50.78 52.99L48.86 52.99L23.78 53L15.78 52.99C13.57 52.99 11.78 51.2 11.78 48.99L11.78 22.99C11.78 20.79 13.57 18.99 15.78 18.99ZM18.21 24.99C18.76 24.99 19.21 25.44 19.21 25.99C19.21 26.5 18.82 26.92 18.32 26.98L18.21 26.99L15.35 26.99C14.8 26.99 14.35 26.54 14.35 25.99C14.35 25.47 14.74 25.05 15.23 24.99L15.35 24.99L18.21 24.99ZM55.16 26.57C55.9 25.84 57.07 25.8 57.85 26.46L57.98 26.58L59.62 28.22C60.36 28.95 60.41 30.13 59.75 30.91L59.63 31.04L49.89 40.91C49.53 41.27 49.08 41.54 48.6 41.68L48.38 41.73L44.99 42.47C44.84 42.5 44.69 42.5 44.55 42.46C44.05 42.34 43.73 41.87 43.79 41.37L43.81 41.26L44.67 37.58C44.79 37.1 45.02 36.66 45.34 36.29L45.48 36.13L55.16 26.57ZM56.82 27.89C56.62 27.76 56.35 27.78 56.18 27.95C55.98 28.14 55.98 28.46 56.18 28.66L57.18 29.66C57.37 29.79 57.71 29.83 57.89 29.66C58.08 29.46 58.08 29.14 57.89 28.95L56.82 27.89ZM36.91 33.39C36.82 33.17 36.69 32.95 36.52 32.71C36.43 32.58 36.33 32.46 36.22 32.35C35.55 31.69 34.58 31.34 33.3 31.3C32.63 31.28 31.86 31.34 30.99 31.49C30.16 31.62 29.23 31.84 28.19 32.14C28.1 32.16 28 32.2 27.91 32.24C27.84 32.27 27.78 32.31 27.71 32.36C27.65 32.4 27.54 32.49 27.49 32.55C27.44 32.6 27.35 32.71 27.31 32.77C27.28 32.83 27.21 32.96 27.18 33.02C27.16 33.07 27.11 33.22 27.1 33.28C27.1 33.32 27.09 33.37 27.09 33.41C27.08 33.51 27.08 33.61 27.09 33.71C27.09 33.75 27.1 33.79 27.11 33.83C27.12 33.89 27.14 33.95 27.16 34C27.18 34.07 27.25 34.22 27.29 34.28C27.33 34.34 27.41 34.46 27.47 34.51C27.53 34.59 27.61 34.65 27.69 34.71C27.77 34.77 27.85 34.82 27.94 34.86C28.01 34.89 28.15 34.94 28.22 34.96C28.31 34.98 28.41 35 28.5 35.01C28.6 35.01 28.7 35.01 28.79 35C28.84 35 28.89 34.99 28.94 34.98C28.99 34.97 29.04 34.96 29.08 34.95C29.37 34.87 29.65 34.79 29.92 34.72L30.44 34.6L30.94 34.49C31.92 34.29 32.7 34.2 33.29 34.24C33.53 34.25 33.72 34.28 33.86 34.33C33.85 34.38 33.9 34.48 33.87 34.56L33.8 34.74L33.71 34.97L33.6 35.23L33.36 35.77C33.16 36.23 33 36.65 32.9 37.02C32.78 37.45 32.72 37.85 32.71 38.22C32.71 38.44 32.72 38.65 32.76 38.87C32.79 39.04 32.83 39.22 32.88 39.39C33 39.76 33.18 40.14 33.42 40.52C33.75 41.04 34.18 41.47 34.72 41.83C35.22 42.17 35.79 42.43 36.45 42.62C36.55 42.65 36.64 42.67 36.74 42.68C36.84 42.69 36.94 42.7 37.03 42.69C37.13 42.68 37.23 42.67 37.32 42.64C37.42 42.62 37.51 42.59 37.6 42.55C37.69 42.51 37.78 42.46 37.86 42.4C37.94 42.34 38.01 42.28 38.08 42.21C38.13 42.15 38.18 42.09 38.22 42.03C38.28 41.95 38.36 41.79 38.4 41.7C38.43 41.6 38.45 41.5 38.47 41.4C38.48 41.3 38.48 41.2 38.47 41.1C38.46 41 38.44 40.9 38.41 40.8C38.38 40.7 38.34 40.61 38.29 40.52C38.24 40.44 38.18 40.35 38.11 40.28C38.05 40.21 37.98 40.14 37.9 40.08C37.82 40.02 37.73 39.97 37.64 39.92C37.56 39.88 37.47 39.84 37.38 39.82C36.74 39.64 36.31 39.36 36.08 38.99C35.98 38.84 35.91 38.7 35.87 38.57C35.84 38.44 35.83 38.3 35.84 38.16C35.85 37.99 35.89 37.79 35.97 37.57C36.04 37.33 36.16 37.05 36.31 36.7L36.41 36.5L36.57 36.12L36.72 35.76C36.85 35.44 36.94 35.17 37 34.93C37.06 34.65 37.09 34.39 37.08 34.14C37.08 34.07 37.07 34 37.06 33.92C37.03 33.74 36.98 33.56 36.91 33.39ZM18.21 31.66C18.76 31.66 19.21 32.11 19.21 32.66C19.21 33.17 18.82 33.59 18.32 33.65L18.21 33.66L15.35 33.66C14.8 33.66 14.35 33.21 14.35 32.66C14.35 32.15 14.74 31.72 15.23 31.67L15.35 31.66L18.21 31.66ZM50.78 40L54.78 35.96L50.78 40ZM47.18 36.95C47.35 36.78 47.62 36.76 47.82 36.89L48.89 37.95C49.08 38.14 49.08 38.46 48.89 38.66C48.71 38.83 48.44 38.85 48.25 38.71L47.18 37.66C46.98 37.46 46.98 37.14 47.18 36.95ZM19.21 39.33C19.21 38.78 18.76 38.33 18.21 38.33L15.35 38.33L15.23 38.34C14.74 38.4 14.35 38.82 14.35 39.33C14.35 39.88 14.8 40.33 15.35 40.33L18.21 40.33L18.32 40.32C18.82 40.27 19.21 39.84 19.21 39.33ZM18.21 45C18.76 45 19.21 45.45 19.21 46C19.21 46.52 18.82 46.94 18.32 47L18.21 47L15.35 47C14.8 47 14.35 46.56 14.35 46C14.35 45.49 14.74 45.07 15.23 45.01L15.35 45L18.21 45Z" fill="#FFFFFF" fill-opacity="1.000000" fill-rule="evenodd"/>
	</g>
</svg>
