<svg width="72.000000" height="72.000000" viewBox="0 0 72 72" fill="none" xmlns="http://www.w3.org/2000/svg" xmlns:xlink="http://www.w3.org/1999/xlink">
	<desc>
			Created with Pixso.
	</desc>
	<defs>
		<clipPath id="clip117_1290">
			<rect id="2#IdeaHubENT-IdeaHubENT" width="72.000000" height="72.000000" fill="white" fill-opacity="0"/>
		</clipPath>
	</defs>
	<g clip-path="url(#clip117_1290)">
		<path id="矩形备份-19" d="M16 0L56 0C64.8 0 72 7.2 72 16L72 56C72 64.8 64.8 72 56 72L16 72C7.2 72 0 64.8 0 56L0 16C0 7.2 7.2 0 16 0Z" fill="#25C251" fill-opacity="1.000000" fill-rule="evenodd"/>
		<path id="合并" d="M34.46 12.4L37.53 12.4L39.34 17.43L32.65 17.43L34.46 12.4ZM15.48 20.87L14.12 44.04L57.87 44.04L56.51 20.87C56.44 19.76 55.53 18.9 54.42 18.9L17.57 18.9C16.46 18.9 15.55 19.76 15.48 20.87ZM58 46.14L14 46.14L58 46.14ZM14 46.14L58 46.14L58 47.23C58 48.38 57.06 49.32 55.9 49.32L49.58 49.32L53 58.65C53.02 58.72 53.03 58.79 53.03 58.85C53.03 58.9 53.03 58.95 53.02 58.99C53 59.1 52.95 59.2 52.88 59.29C52.81 59.38 52.73 59.45 52.63 59.5C52.59 59.53 52.55 59.54 52.5 59.56C52.44 59.57 52.37 59.58 52.3 59.58L50.42 59.58C50.26 59.58 50.11 59.53 49.98 59.44C49.85 59.34 49.76 59.21 49.71 59.05L46.17 49.32L37.71 49.32L37.71 55.92C37.71 56.02 37.69 56.11 37.65 56.2C37.62 56.28 37.56 56.36 37.49 56.44C37.35 56.58 37.17 56.65 36.97 56.65L35.02 56.65C34.92 56.65 34.82 56.63 34.74 56.6C34.65 56.56 34.57 56.51 34.5 56.44C34.43 56.36 34.37 56.28 34.34 56.2C34.3 56.11 34.28 56.02 34.28 55.92L34.28 49.32L25.82 49.32L22.27 59.06C22.23 59.21 22.14 59.34 22.01 59.44C21.88 59.54 21.73 59.59 21.57 59.59L19.69 59.59C19.62 59.59 19.55 59.58 19.49 59.56C19.44 59.55 19.4 59.53 19.36 59.51C19.26 59.46 19.17 59.39 19.11 59.3C19.04 59.21 18.99 59.11 18.97 59C18.96 58.95 18.96 58.9 18.96 58.86C18.96 58.79 18.97 58.72 18.99 58.65L22.41 49.32L16.09 49.32C14.93 49.32 14 48.38 14 47.23L14 46.14Z" fill="#FFFFFF" fill-opacity="1.000000" fill-rule="evenodd"/>
	</g>
</svg>
