<svg width="72.000000" height="72.000000" viewBox="0 0 72 72" fill="none" xmlns="http://www.w3.org/2000/svg" xmlns:xlink="http://www.w3.org/1999/xlink">
	<desc>
			Created with Pixso.
	</desc>
	<defs>
		<clipPath id="clip117_1291">
			<rect id="3#Mic-Mic" width="72.000000" height="72.000000" fill="white" fill-opacity="0"/>
		</clipPath>
	</defs>
	<g clip-path="url(#clip117_1291)">
		<path id="矩形备份-19" d="M16 0L56 0C64.8 0 72 7.2 72 16L72 56C72 64.8 64.8 72 56 72L16 72C7.2 72 0 64.8 0 56L0 16C0 7.2 7.2 0 16 0Z" fill="#FF9A2E" fill-opacity="1.000000" fill-rule="evenodd"/>
		<path id="合并" d="M32.73 13.39L39.34 13.39C41.61 13.39 43.92 14.2 45.05 16.17C45.3 16.6 45.51 17.05 45.65 17.51C46.3 19.56 48.65 21.62 48.65 21.62C52.8 24.82 55.64 29.57 56.43 35.01C56.5 35.38 57.11 38.32 58.48 39.8C58.8 40.15 59.09 40.56 59.34 41C60.47 42.96 60.02 45.36 58.89 47.32L55.58 53.05C54.45 55.01 52.59 56.61 50.33 56.61C49.83 56.6 49.32 56.56 48.86 56.46C47.37 56.12 45.4 56.55 44.38 56.83C41.82 57.97 38.99 58.6 36.01 58.6C33.21 58.6 30.54 58.04 28.11 57.03C27.41 56.78 24.92 55.97 23.13 56.38C22.67 56.48 22.16 56.52 21.67 56.52C19.4 56.53 17.55 54.93 16.41 52.97L13.11 47.24C11.97 45.28 11.52 42.87 12.65 40.91C12.9 40.48 13.19 40.07 13.51 39.72C14.75 38.38 15.41 35.84 15.59 35.1C16.35 29.63 19.26 24.84 23.44 21.62L23.34 21.62C23.34 21.62 25.78 19.56 26.42 17.51C26.56 17.05 26.78 16.6 27.03 16.17C28.15 14.2 30.46 13.39 32.73 13.39ZM21.75 35.99C21.75 28.12 28.13 21.74 36 21.74C43.87 21.74 50.25 28.12 50.25 35.99C50.25 43.86 43.87 50.24 36 50.24C28.13 50.24 21.75 43.86 21.75 35.99ZM33.03 31.21C33.03 29.58 34.36 28.25 35.99 28.25C37.63 28.25 38.95 29.58 38.95 31.21L38.95 34.5C38.95 36.14 37.63 37.46 35.99 37.46C34.36 37.46 33.03 36.14 33.03 34.5L33.03 31.21ZM32.16 35.39C32.1 35.1 32.06 34.8 32.06 34.5C32.06 33.94 31.62 33.5 31.06 33.5C30.5 33.5 30.06 33.94 30.06 34.5C30.06 34.94 30.11 35.37 30.2 35.78C30.28 36.13 30.39 36.47 30.53 36.81C30.67 37.15 30.84 37.46 31.04 37.77C31.26 38.1 31.51 38.41 31.8 38.7C32.09 38.98 32.4 39.24 32.73 39.46C33.03 39.65 33.35 39.82 33.69 39.97C34.02 40.11 34.36 40.22 34.71 40.29C34.8 40.31 34.91 40.34 34.99 40.35L34.99 41.74L34.04 41.74C33.48 41.74 33.04 42.18 33.04 42.74C33.04 43.29 33.48 43.74 34.04 43.74L37.95 43.74C38.51 43.74 38.95 43.29 38.95 42.74C38.95 42.18 38.51 41.74 37.95 41.74L36.99 41.74L36.99 40.35C37.09 40.33 37.18 40.32 37.28 40.29C37.63 40.22 37.97 40.11 38.31 39.97C38.64 39.82 38.96 39.65 39.26 39.46C39.59 39.24 39.9 38.98 40.19 38.7C40.48 38.41 40.73 38.1 40.95 37.76C41.15 37.46 41.32 37.15 41.46 36.81C41.6 36.47 41.71 36.13 41.79 35.78C41.88 35.37 41.93 34.94 41.93 34.5C41.93 33.94 41.49 33.5 40.93 33.5C40.37 33.5 39.93 33.94 39.93 34.5C39.93 34.8 39.9 35.1 39.83 35.39C39.78 35.61 39.71 35.82 39.62 36.03C39.53 36.25 39.42 36.45 39.29 36.65C39.14 36.87 38.97 37.09 38.78 37.28C38.58 37.48 38.37 37.65 38.14 37.8C37.95 37.92 37.74 38.03 37.53 38.12C37.32 38.21 37.1 38.28 36.88 38.33C36.59 38.4 36.3 38.43 36 38.43C35.69 38.43 35.4 38.4 35.11 38.33C34.89 38.28 34.68 38.21 34.46 38.12C34.25 38.03 34.04 37.92 33.85 37.8C33.62 37.65 33.41 37.48 33.21 37.28C33.02 37.09 32.85 36.87 32.7 36.65C32.57 36.45 32.46 36.25 32.37 36.03C32.28 35.82 32.21 35.61 32.16 35.39Z" fill="#FFFFFF" fill-opacity="1.000000" fill-rule="evenodd"/>
	</g>
</svg>
