<svg width="72.000000" height="72.000000" viewBox="0 0 72 72" fill="none" xmlns="http://www.w3.org/2000/svg" xmlns:xlink="http://www.w3.org/1999/xlink">
	<desc>
			Created with Pixso.
	</desc>
	<defs>
		<clipPath id="clip117_1289">
			<rect id="4#Camera-Camera" width="72.000000" height="72.000000" fill="white" fill-opacity="0"/>
		</clipPath>
	</defs>
	<g clip-path="url(#clip117_1289)">
		<path id="矩形备份-19" d="M16 0L56 0C64.8 0 72 7.2 72 16L72 56C72 64.8 64.8 72 56 72L16 72C7.2 72 0 64.8 0 56L0 16C0 7.2 7.2 0 16 0Z" fill="#1476FF" fill-opacity="1.000000" fill-rule="evenodd"/>
		<path id="合并" d="M20.44 35.25C20.37 35.26 20.31 35.26 20.25 35.26C19 35.26 18 34.25 18 33.01L18 27.51C18 26.27 19 25.26 20.25 25.26C20.52 25.26 20.79 25.31 21.03 25.4C23.1 19.12 29.02 14.58 36 14.58C42.97 14.58 48.89 19.12 50.96 25.4C51.2 25.31 51.47 25.26 51.75 25.26C52.99 25.26 54 26.27 54 27.51L54 33.01C54 34.25 52.99 35.26 51.75 35.26C51.68 35.26 51.62 35.26 51.56 35.25L51.56 51.41L58.52 51.41C58.75 51.41 58.97 51.48 59.16 51.63L61 53.07C61.51 53.48 61.53 54.26 61.03 54.68L58.13 57.16C57.94 57.32 57.7 57.41 57.45 57.41L14.54 57.41C14.31 57.39 14.04 57.31 13.86 57.16L10.96 54.68C10.9 54.63 10.84 54.57 10.8 54.51C10.69 54.36 10.63 54.19 10.6 54.02C10.59 53.9 10.6 53.77 10.62 53.65C10.68 53.43 10.8 53.23 10.99 53.07L12.83 51.63C13.02 51.48 13.24 51.41 13.48 51.41L20.44 51.41L20.44 35.25ZM36 22.08C31.44 22.08 27.75 25.78 27.75 30.33C27.75 34.89 31.44 38.58 36 38.58C40.55 38.58 44.25 34.89 44.25 30.33C44.25 25.78 40.55 22.08 36 22.08ZM36 25.08C33.1 25.08 30.75 27.44 30.75 30.33C30.75 33.23 33.1 35.58 36 35.58C38.89 35.58 41.25 33.23 41.25 30.33C41.25 27.44 38.89 25.08 36 25.08ZM48.44 40C45.55 43.7 41.05 46.08 36 46.08C30.94 46.08 26.44 43.7 23.56 40L23.56 51.16L48.44 51.16L48.44 40Z" fill="#FFFFFF" fill-opacity="1.000000" fill-rule="evenodd"/>
	</g>
</svg>
