<svg width="16.000000" height="16.000000" viewBox="0 0 16 16" fill="none" xmlns="http://www.w3.org/2000/svg" xmlns:xlink="http://www.w3.org/1999/xlink">
	<desc>
			Created with Pixso.
	</desc>
	<defs>
		<clipPath id="clip2_190">
			<rect id="1#用户-user" width="16.000000" height="16.000000" fill="white" fill-opacity="0"/>
		</clipPath>
	</defs>
	<g clip-path="url(#clip2_190)">
		<path id="Fill-1" d="M7.78 1.9C6.38 1.9 5.16 2.83 4.79 4.14L4.75 4.33L4.73 4.42L4.7 4.64L4.69 4.82C4.69 4.85 4.69 4.88 4.69 4.91L4.69 6.03C4.69 6.11 4.69 6.19 4.7 6.28L4.72 6.43L4.75 6.61L4.8 6.82L4.83 6.92L4.88 7.08C5 7.38 5.17 7.67 5.37 7.92L5.45 8.01L3.86 8.35C2.84 8.56 2.09 9.45 2.09 10.48L2.09 12.48C2.09 13.37 2.84 14.1 3.75 14.1L11.84 14.1C12.75 14.1 13.49 13.37 13.49 12.48L13.49 10.48L13.49 10.35C13.42 9.37 12.7 8.54 11.71 8.35L10.13 8.01L10.21 7.91C10.64 7.39 10.89 6.73 10.89 6.04L10.89 4.92C10.89 3.25 9.49 1.9 7.78 1.9ZM7.78 2.9C8.94 2.9 9.89 3.81 9.89 4.92L9.89 6.04C9.89 6.79 9.44 7.49 8.75 7.83C8.32 8.04 8.4 8.67 8.86 8.77L11.51 9.33C12.08 9.44 12.49 9.93 12.49 10.49L12.49 12.48C12.49 12.81 12.2 13.1 11.84 13.1L3.75 13.1C3.39 13.1 3.09 12.81 3.09 12.48L3.09 10.48C3.09 9.93 3.5 9.44 4.07 9.33L6.71 8.77C7.18 8.67 7.26 8.04 6.83 7.83C6.37 7.6 6.02 7.22 5.83 6.75L5.78 6.61L5.76 6.54L5.73 6.42L5.71 6.3C5.69 6.18 5.69 6.11 5.69 6.03L5.69 4.86L5.7 4.72L5.72 4.57L5.76 4.4C6 3.53 6.83 2.9 7.78 2.9Z" fill="currentColor" fill-opacity="1.000000" fill-rule="nonzero"/>
	</g>
</svg>
