<svg width="16.000000" height="16.000000" viewBox="0 0 16 16" fill="none" xmlns="http://www.w3.org/2000/svg" xmlns:xlink="http://www.w3.org/1999/xlink">
	<desc>
			Created with Pixso.
	</desc>
	<defs>
		<clipPath id="clip2_194">
			<rect id="10#用户群|联系人-users" width="16.000000" height="16.000000" fill="white" fill-opacity="0"/>
		</clipPath>
	</defs>
	<g clip-path="url(#clip2_194)">
		<path id="形状结合" d="M7.99 3.5C9.64 3.5 10.99 4.83 10.99 6.47L10.99 7.57C10.99 8.26 10.75 8.9 10.34 9.42L10.26 9.51L11.77 9.83C12.72 10.03 13.42 10.84 13.49 11.81L13.5 11.93L13.5 13.89C13.5 14.78 12.77 15.5 11.88 15.5L4.11 15.5C3.22 15.5 2.5 14.78 2.5 13.89L2.5 11.94C2.49 10.92 3.21 10.04 4.21 9.83L5.72 9.51L5.65 9.42C5.45 9.17 5.29 8.9 5.18 8.59L5.12 8.44L5.07 8.25L5.03 8.07L5.02 7.96L5 7.81C4.99 7.73 4.99 7.65 4.99 7.57L4.99 6.42L5 6.17L5.03 5.98L5.09 5.71C5.44 4.41 6.63 3.5 7.99 3.5ZM7.99 4.5C7.08 4.5 6.29 5.11 6.06 5.96L6.02 6.11L6.01 6.22L5.99 6.34C5.99 6.4 5.99 6.43 5.99 6.47L5.99 7.62C5.99 7.68 6 7.75 6.01 7.83L6.03 7.95L6.06 8.07L6.13 8.27C6.3 8.73 6.64 9.1 7.08 9.33C7.5 9.54 7.42 10.16 6.96 10.26L4.42 10.81C3.88 10.92 3.49 11.39 3.5 11.94L3.5 13.89C3.5 14.22 3.77 14.5 4.11 14.5L11.88 14.5C12.22 14.5 12.5 14.22 12.5 13.89L12.5 11.94C12.49 11.39 12.1 10.92 11.56 10.81L9.02 10.26C8.56 10.16 8.48 9.54 8.9 9.33C9.56 8.99 9.99 8.31 9.99 7.57L9.99 6.47C9.99 5.39 9.09 4.5 7.99 4.5ZM13.77 7.36L13.84 7.37C14.8 7.55 15.5 8.34 15.5 9.28L15.5 11C15.5 11.27 15.27 11.5 15 11.5C14.72 11.5 14.5 11.27 14.5 11L14.5 9.28C14.5 8.84 14.15 8.45 13.65 8.35C13.38 8.3 13.2 8.03 13.25 7.76C13.31 7.49 13.57 7.31 13.84 7.37L13.77 7.36ZM2.74 7.76C2.79 8.03 2.61 8.3 2.34 8.35C1.84 8.45 1.49 8.84 1.5 9.28L1.5 11C1.5 11.27 1.27 11.5 1 11.5C0.72 11.5 0.5 11.27 0.5 11L0.5 9.28C0.49 8.34 1.19 7.55 2.15 7.37C2.42 7.31 2.68 7.49 2.74 7.76ZM10 1.5C11.33 1.5 12.52 2.25 12.88 3.34L12.93 3.5L12.95 3.59L12.98 3.75L12.99 3.91L13 4.02L13 4.91C13 5.02 12.99 5.12 12.97 5.24L12.9 5.51L12.86 5.65L12.82 5.74C12.71 5.96 12.45 6.07 12.21 5.98C11.95 5.89 11.81 5.61 11.91 5.35L11.94 5.23L11.98 5.1C11.98 5.04 12 4.95 12 4.91L11.99 3.99L11.98 3.88L11.96 3.75L11.93 3.65C11.72 3 10.92 2.5 10 2.5C9.72 2.5 9.5 2.27 9.5 2C9.5 1.72 9.72 1.5 10 1.5ZM6 1.5C6.27 1.5 6.5 1.72 6.5 2C6.5 2.27 6.27 2.5 6 2.5C5.07 2.5 4.27 3 4.06 3.65L4.03 3.75L4.01 3.88L4 3.99L4 4.91C4 4.95 4 4.99 4.01 5.05L4.05 5.23L4.08 5.32C4.17 5.58 4.04 5.89 3.78 5.98C3.54 6.07 3.28 5.96 3.17 5.74L3.13 5.65L3.09 5.51L3.03 5.29C3.01 5.17 3 5.02 3 4.91L3 4.02L3 3.91L3.01 3.75L3.04 3.59L3.06 3.5L3.11 3.34C3.47 2.25 4.66 1.5 6 1.5Z" fill="currentColor" fill-opacity="1.000000" fill-rule="nonzero"/>
	</g>
</svg>
