<svg width="16.000000" height="16.000000" viewBox="0 0 16 16" fill="none" xmlns="http://www.w3.org/2000/svg" xmlns:xlink="http://www.w3.org/1999/xlink">
	<desc>
			Created with Pixso.
	</desc>
	<defs>
		<clipPath id="clip2_195">
			<rect id="11#用户组-user-group" width="16.000000" height="16.000000" fill="white" fill-opacity="0"/>
		</clipPath>
	</defs>
	<g clip-path="url(#clip2_195)">
		<path id="形状结合" d="M6.78 1.9C8.49 1.9 9.89 3.25 9.89 4.92L9.89 6.04C9.89 6.73 9.64 7.39 9.21 7.91L9.13 8.01L10.71 8.35C11.7 8.54 12.42 9.37 12.49 10.35L12.49 10.48L12.49 12.48C12.49 13.37 11.75 14.1 10.84 14.1L2.75 14.1C1.84 14.1 1.09 13.37 1.09 12.48L1.09 10.48C1.09 9.45 1.84 8.56 2.86 8.35L4.45 8.01L4.37 7.92C4.17 7.67 4 7.38 3.88 7.08L3.83 6.92L3.8 6.82L3.75 6.61L3.72 6.43L3.7 6.28C3.69 6.19 3.69 6.11 3.69 6.03L3.69 4.91C3.69 4.88 3.69 4.85 3.69 4.82L3.7 4.64L3.73 4.42L3.75 4.33L3.79 4.14C4.16 2.83 5.38 1.9 6.78 1.9ZM12.81 8.3L12.88 8.3C14.04 8.51 14.9 9.4 14.89 10.46L14.89 12.47C14.89 13.39 14.05 14.1 13.05 14.1C12.77 14.1 12.55 13.87 12.55 13.6C12.55 13.32 12.77 13.1 13.05 13.1L13.14 13.09C13.58 13.05 13.89 12.77 13.89 12.47L13.89 10.45C13.9 9.91 13.41 9.41 12.71 9.29C12.44 9.24 12.25 8.98 12.3 8.71C12.35 8.44 12.61 8.25 12.88 8.3L12.81 8.3ZM6.78 2.9C5.83 2.9 5 3.53 4.76 4.4L4.72 4.57L4.7 4.72L4.69 4.86L4.69 6.03C4.69 6.11 4.69 6.18 4.71 6.3L4.73 6.42L4.76 6.54L4.78 6.61L4.83 6.75C5.02 7.22 5.37 7.6 5.83 7.83C6.26 8.04 6.18 8.67 5.71 8.77L3.07 9.33C2.5 9.44 2.09 9.93 2.09 10.48L2.09 12.48C2.09 12.81 2.39 13.1 2.75 13.1L10.84 13.1C11.2 13.1 11.49 12.81 11.49 12.48L11.49 10.49C11.49 9.93 11.08 9.44 10.51 9.33L7.86 8.77C7.4 8.67 7.32 8.04 7.75 7.83C8.44 7.49 8.89 6.79 8.89 6.04L8.89 4.92C8.89 3.81 7.94 2.9 6.78 2.9ZM9.59 1.9C10.91 1.9 12.05 2.76 12.39 3.97L12.45 4.23L12.46 4.32L12.49 4.58L12.49 4.69L12.49 5.72C12.49 5.83 12.49 5.94 12.47 6.07L12.41 6.36L12.36 6.54C12.28 6.8 12 6.95 11.74 6.87C11.47 6.8 11.32 6.52 11.4 6.25L11.45 6.06L11.48 5.96C11.49 5.85 11.49 5.78 11.49 5.72L11.49 4.67L11.48 4.53L11.47 4.4L11.43 4.23C11.21 3.46 10.46 2.9 9.59 2.9C9.32 2.9 9.09 2.67 9.09 2.4C9.09 2.12 9.32 1.9 9.59 1.9Z" fill="currentColor" fill-opacity="1.000000" fill-rule="nonzero"/>
	</g>
</svg>
