<svg width="16.000000" height="16.000000" viewBox="0 0 16 16" fill="none" xmlns="http://www.w3.org/2000/svg" xmlns:xlink="http://www.w3.org/1999/xlink">
	<desc>
			Created with Pixso.
	</desc>
	<defs>
		<clipPath id="clip117_1433">
			<rect id="13#提权访问-elevate-privileges" width="16.000000" height="16.000000" fill="white" fill-opacity="0"/>
		</clipPath>
	</defs>
	<g clip-path="url(#clip117_1433)">
		<path id="_形状结合" d="M11.96 8.31C13.65 8.31 15.02 9.68 15.02 11.37C15.02 13.06 13.65 14.43 11.96 14.43C10.27 14.43 8.89 13.05 8.89 11.37C8.89 9.69 10.27 8.31 11.96 8.31ZM7.39 1.49C9.14 1.49 10.59 2.88 10.59 4.59L10.59 5.75C10.59 6.51 10.3 7.22 9.81 7.77C9.92 7.87 9.97 8.11 9.96 8.25C9.89 8.52 9.63 8.79 9.35 8.73C9.16 8.69 8.87 8.63 8.5 8.55C8.03 8.45 7.97 7.82 8.39 7.61C9.12 7.25 9.58 6.53 9.58 5.75L9.58 4.59C9.58 3.44 8.59 2.49 7.38 2.49C6.38 2.49 5.5 3.15 5.25 4.05L5.24 4.16C5.24 4.16 5.22 4.24 5.21 4.3C5.19 4.41 5.19 4.54 5.19 4.59L5.19 5.75C5.19 5.82 5.2 5.91 5.21 6.03C5.22 6.1 5.25 6.21 5.25 6.28C5.44 6.82 5.86 7.36 6.39 7.62C6.81 7.83 6.74 8.46 6.27 8.56L6.02 8.6L3.52 9.13C2.92 9.25 2.5 9.76 2.5 10.34L2.5 12.4C2.5 12.76 2.81 13.06 3.2 13.06L8 13.06C8.28 13.06 8.5 13.28 8.5 13.56C8.5 13.84 8.28 14.06 8 14.06L3.2 14.06C2.27 14.06 1.5 13.32 1.5 12.4L1.5 10.34C1.5 9.28 2.25 8.37 3.32 8.15L5 7.79C4.78 7.53 4.53 7.18 4.41 6.86L4.34 6.66C4.34 6.66 4.31 6.56 4.3 6.5C4.28 6.44 4.25 6.37 4.24 6.27C4.22 6.24 4.21 6.17 4.21 6.13C4.19 5.99 4.19 5.87 4.19 5.74L4.19 4.59C4.19 4.51 4.19 4.44 4.21 4.31L4.23 4.17C4.24 4.11 4.24 4.07 4.25 4.04C4.25 4 4.26 3.97 4.27 3.93L4.28 3.79C4.67 2.44 5.94 1.49 7.39 1.49ZM11.96 9.21C10.77 9.21 9.8 10.18 9.8 11.37C9.8 12.56 10.77 13.53 11.96 13.53C13.15 13.53 14.12 12.56 14.12 11.37C14.12 10.18 13.16 9.21 11.96 9.21ZM12.28 10.03L13.18 10.93C13.36 11.11 13.36 11.39 13.18 11.57C13 11.75 12.72 11.75 12.54 11.57L12.41 11.44L12.41 12.65C12.41 12.9 12.21 13.1 11.96 13.1C11.71 13.1 11.51 12.9 11.51 12.65L11.51 11.44L11.38 11.57C11.22 11.73 10.98 11.74 10.81 11.62C10.63 11.44 10.57 11.11 10.75 10.93L11.65 10.03C11.82 9.85 12.11 9.85 12.28 10.03Z" fill="currentColor" fill-opacity="1.000000" fill-rule="nonzero"/>
	</g>
</svg>
