<svg width="16.000000" height="16.000000" viewBox="0 0 16 16" fill="none" xmlns="http://www.w3.org/2000/svg" xmlns:xlink="http://www.w3.org/1999/xlink">
	<desc>
			Created with Pixso.
	</desc>
	<defs>
		<clipPath id="clip2_198">
			<rect id="2#添加用户-add-user" width="16.000000" height="16.000000" fill="white" fill-opacity="0"/>
		</clipPath>
	</defs>
	<g clip-path="url(#clip2_198)">
		<path id="形状结合" d="M12.03 9.69C12.31 9.69 12.53 9.92 12.53 10.19L12.53 11.49L13.82 11.49C14.1 11.49 14.32 11.71 14.32 11.99C14.32 12.26 14.1 12.49 13.82 12.49L12.53 12.49L12.53 13.78C12.53 14.05 12.31 14.28 12.03 14.28C11.75 14.28 11.53 14.05 11.53 13.78L11.53 12.49L10.24 12.49C9.96 12.49 9.74 12.26 9.74 11.99C9.74 11.71 9.96 11.49 10.24 11.49L11.53 11.49L11.53 10.19C11.53 9.92 11.75 9.69 12.03 9.69ZM7.42 1.71C9.14 1.71 10.55 3.06 10.55 4.73L10.55 5.85C10.55 6.54 10.3 7.2 9.87 7.72L9.78 7.82L11.39 8.15C11.64 8.2 11.8 8.43 11.79 8.68L11.78 8.74C11.72 9.01 11.46 9.19 11.19 9.13L8.51 8.57C8.04 8.47 7.97 7.84 8.39 7.63C9.1 7.29 9.55 6.6 9.55 5.85L9.55 4.73C9.55 3.63 8.59 2.71 7.42 2.71C6.45 2.71 5.61 3.34 5.36 4.21L5.33 4.35C5.33 4.36 5.32 4.43 5.31 4.45L5.3 4.54L5.29 4.67L5.29 5.84C5.29 5.91 5.3 5.99 5.31 6.11L5.37 6.38C5.54 6.9 5.94 7.38 6.45 7.63C6.88 7.84 6.8 8.47 6.33 8.57L3.66 9.13C3.08 9.25 2.67 9.73 2.67 10.28L2.67 12.27C2.67 12.61 2.96 12.89 3.34 12.89L8.61 12.89C8.89 12.89 9.11 13.11 9.11 13.39C9.11 13.67 8.89 13.89 8.61 13.89L3.34 13.89C2.42 13.89 1.67 13.17 1.67 12.27L1.67 10.28C1.67 9.25 2.42 8.36 3.46 8.15L5.06 7.82L4.98 7.73C4.78 7.48 4.61 7.19 4.49 6.89L4.43 6.73L4.39 6.58L4.36 6.42L4.32 6.24C4.3 6.11 4.29 5.96 4.29 5.84L4.29 4.73C4.29 4.66 4.29 4.61 4.3 4.53L4.31 4.4L4.32 4.32L4.33 4.23L4.36 4.09L4.4 3.95C4.77 2.64 6 1.71 7.42 1.71Z" fill="currentColor" fill-opacity="1.000000" fill-rule="nonzero"/>
	</g>
</svg>
