<svg width="16.000000" height="16.000000" viewBox="0 0 16 16" fill="none" xmlns="http://www.w3.org/2000/svg" xmlns:xlink="http://www.w3.org/1999/xlink">
	<desc>
			Created with Pixso.
	</desc>
	<defs>
		<clipPath id="clip2_191">
			<rect id="3#编辑用户-edit-user" width="16.000000" height="16.000000" fill="white" fill-opacity="0"/>
		</clipPath>
	</defs>
	<g clip-path="url(#clip2_191)">
		<path id="形状结合" d="M13.92 8.02C14.65 8.43 14.9 9.37 14.48 10.09L12.34 13.78C12.28 13.88 12.19 13.96 12.07 14L10.46 14.55C10.15 14.66 9.83 14.45 9.8 14.13L9.64 12.56C9.63 12.45 9.65 12.35 9.7 12.25L11.84 8.57C12.26 7.85 13.19 7.6 13.92 8.02ZM7.7 1.78C9.44 1.78 10.86 3.15 10.86 4.83L10.86 5.96C10.86 6.76 10.53 7.51 9.98 8.07L10.55 8.32C10.78 8.41 10.91 8.66 10.85 8.9C10.75 9.16 10.44 9.35 10.18 9.25L8.73 8.68C8.32 8.53 8.3 7.96 8.69 7.77C9.41 7.42 9.86 6.72 9.86 5.96L9.86 4.83C9.86 3.71 8.89 2.78 7.7 2.78C6.72 2.78 5.86 3.42 5.61 4.3L5.58 4.44L5.57 4.52L5.55 4.63L5.54 4.8L5.54 5.95C5.54 6.03 5.54 6.11 5.56 6.23L5.6 6.4L5.64 6.55C5.81 7.08 6.2 7.52 6.72 7.77C7.14 7.98 7.06 8.61 6.6 8.71L3.89 9.27C3.3 9.39 2.88 9.88 2.88 10.44L2.88 12.46C2.88 12.8 3.19 13.09 3.57 13.09L8.28 13.09C8.56 13.09 8.78 13.31 8.78 13.59C8.78 13.86 8.56 14.09 8.28 14.09L3.57 14.09C2.64 14.09 1.88 13.36 1.88 12.46L1.88 10.44C1.88 9.4 2.64 8.51 3.69 8.29L5.33 7.95L5.24 7.86C5.03 7.6 4.86 7.32 4.74 7.01L4.67 6.81L4.64 6.7C4.63 6.65 4.62 6.6 4.6 6.54L4.57 6.39C4.56 6.25 4.54 6.08 4.54 5.95L4.54 4.82C4.54 4.76 4.54 4.71 4.55 4.62L4.56 4.49L4.57 4.42L4.58 4.32L4.6 4.23L4.64 4.09C5.01 2.77 6.27 1.78 7.7 1.78ZM12.07 10.17L10.65 12.61L10.73 13.4L11.57 13.11L12.98 10.68L12.07 10.17ZM12.7 9.07L12.57 9.3L13.49 9.81L13.61 9.59C13.75 9.36 13.68 9.08 13.48 8.92C13.23 8.78 12.85 8.82 12.7 9.07Z" fill="currentColor" fill-opacity="1.000000" fill-rule="nonzero"/>
	</g>
</svg>
