<svg width="16.000000" height="16.000000" viewBox="0 0 16 16" fill="none" xmlns="http://www.w3.org/2000/svg" xmlns:xlink="http://www.w3.org/1999/xlink">
	<desc>
			Created with Pixso.
	</desc>
	<defs>
		<clipPath id="clip2_192">
			<rect id="4#用户静音-user-mute" width="16.000000" height="16.000000" fill="white" fill-opacity="0"/>
		</clipPath>
	</defs>
	<g clip-path="url(#clip2_192)">
		<path id="形状结合" d="M12.49 8C13.24 8 13.85 8.57 13.91 9.3L13.91 9.4L13.91 11.2L14.41 11.7C14.45 11.55 14.47 11.39 14.47 11.23C14.47 10.96 14.69 10.73 14.97 10.73C15.25 10.73 15.47 10.96 15.47 11.23C15.47 12.03 15.15 12.77 14.6 13.32C14.16 13.75 13.6 14.04 12.99 14.14L12.99 14.82C12.99 15.1 12.77 15.32 12.49 15.32C12.22 15.32 11.99 15.1 11.99 14.82L11.99 14.14C11.41 14.04 10.87 13.78 10.45 13.37C9.89 12.85 9.55 12.12 9.52 11.34C9.51 11.07 9.73 10.84 10 10.83C10.28 10.82 10.51 11.03 10.52 11.31C10.54 11.82 10.76 12.3 11.13 12.64C11.5 12.99 11.98 13.18 12.49 13.18C13.03 13.18 13.52 12.97 13.89 12.61L13.5 12.21C13.25 12.47 12.89 12.63 12.49 12.63C11.75 12.63 11.14 12.06 11.08 11.33L11.08 11.23L11.08 9.79L10.14 8.85C9.95 8.65 9.95 8.34 10.14 8.14C10.34 7.95 10.65 7.95 10.85 8.14L11.32 8.61C11.57 8.24 12.01 8 12.49 8ZM7.59 1.78C9.35 1.78 10.8 3.18 10.8 4.89L10.8 6.05C10.8 7.23 10.11 8.3 9.04 8.82C8.79 8.94 8.49 8.84 8.37 8.59C8.25 8.35 8.35 8.05 8.6 7.92C9.33 7.57 9.8 6.84 9.8 6.05L9.8 4.89C9.8 3.74 8.81 2.78 7.59 2.78C6.58 2.78 5.71 3.44 5.46 4.35L5.42 4.49L5.39 4.69L5.38 4.86L5.38 6.05C5.38 6.12 5.39 6.21 5.4 6.33L5.44 6.51L5.47 6.62C5.65 7.16 6.06 7.66 6.59 7.92C7.01 8.13 6.93 8.76 6.47 8.86L3.71 9.44C3.11 9.57 2.68 10.07 2.68 10.66L2.68 12.72C2.68 13.08 2.99 13.38 3.39 13.38L8.82 13.38C9.1 13.38 9.32 13.6 9.32 13.88C9.32 14.16 9.1 14.38 8.82 14.38L3.39 14.38C2.45 14.38 1.68 13.64 1.68 12.72L1.68 10.66C1.68 9.59 2.45 8.68 3.51 8.46L5.2 8.11L5.09 7.99C4.88 7.73 4.71 7.44 4.59 7.12L4.52 6.92L4.47 6.76L4.43 6.53C4.42 6.49 4.41 6.46 4.41 6.44C4.39 6.3 4.38 6.17 4.38 6.05L4.38 4.89C4.38 4.84 4.38 4.8 4.39 4.74L4.4 4.55L4.43 4.38L4.46 4.23L4.49 4.09C4.87 2.74 6.14 1.78 7.59 1.78ZM12.08 10.79L12.08 11.2C12.09 11.4 12.27 11.63 12.49 11.63C12.61 11.63 12.72 11.58 12.8 11.51L12.08 10.79ZM12.49 9C12.27 9 12.09 9.17 12.08 9.37L12.91 10.2L12.91 9.43C12.89 9.22 12.71 9 12.49 9Z" fill="currentColor" fill-opacity="1.000000" fill-rule="nonzero"/>
	</g>
</svg>
