<svg width="16.000000" height="16.000000" viewBox="0 0 16 16" fill="none" xmlns="http://www.w3.org/2000/svg" xmlns:xlink="http://www.w3.org/1999/xlink">
	<desc>
			Created with Pixso.
	</desc>
	<defs>
		<clipPath id="clip2_196">
			<rect id="5#用户设置-user-setting" width="16.000000" height="16.000000" fill="white" fill-opacity="0"/>
		</clipPath>
	</defs>
	<g clip-path="url(#clip2_196)">
		<path id="形状结合" d="M12.57 8.16C12.89 8.16 13.2 8.33 13.39 8.64L13.43 8.73L13.55 9.02L13.86 8.98C14.14 8.95 14.42 9.04 14.64 9.25L14.72 9.33L14.78 9.42L15.17 10.1C15.33 10.38 15.34 10.73 15.16 11.05L15.11 11.13L14.92 11.38L15.11 11.63C15.27 11.85 15.33 12.13 15.26 12.42L15.23 12.53L15.18 12.64L14.79 13.32C14.63 13.6 14.33 13.78 13.97 13.79L13.86 13.78L13.55 13.74L13.43 14.03C13.32 14.29 13.1 14.49 12.8 14.57L12.7 14.59L12.59 14.6L11.81 14.6C11.48 14.6 11.18 14.43 10.99 14.12L10.95 14.03L10.82 13.74L10.51 13.78C10.24 13.81 9.96 13.72 9.74 13.51L9.66 13.43L9.6 13.34L9.21 12.67C9.04 12.38 9.04 12.03 9.22 11.71L9.27 11.63L9.46 11.38L9.27 11.13C9.11 10.91 9.05 10.63 9.11 10.34L9.15 10.23L9.2 10.12L9.59 9.45C9.75 9.16 10.05 8.98 10.41 8.98L10.51 8.98L10.82 9.02L10.95 8.73C11.06 8.47 11.28 8.28 11.58 8.19L11.68 8.17L11.79 8.16L12.57 8.16ZM7.32 1.5C9.06 1.5 10.5 2.86 10.5 4.55L10.5 5.68C10.5 6.49 10.16 7.24 9.61 7.79L10.18 8.05C10.41 8.14 10.54 8.39 10.48 8.63C10.38 8.89 10.07 9.08 9.81 8.98L8.36 8.41C7.95 8.25 7.93 7.69 8.32 7.5C9.04 7.15 9.5 6.45 9.5 5.68L9.5 4.55C9.5 3.42 8.52 2.5 7.32 2.5C6.34 2.5 5.48 3.14 5.23 4.02L5.2 4.16L5.17 4.35L5.16 4.52L5.16 5.68C5.16 5.75 5.16 5.83 5.18 5.95L5.2 6.07L5.26 6.28C5.43 6.8 5.82 7.24 6.34 7.5C6.76 7.71 6.69 8.34 6.22 8.44L5.98 8.49L3.5 9C2.91 9.12 2.49 9.62 2.5 10.18L2.5 12.19C2.5 12.54 2.8 12.83 3.18 12.83L7.91 12.83C8.19 12.83 8.41 13.05 8.41 13.33C8.41 13.6 8.19 13.83 7.91 13.83L3.18 13.83C2.26 13.83 1.5 13.1 1.5 12.19L1.5 10.18C1.49 9.13 2.25 8.24 3.3 8.02L4.95 7.68L4.86 7.58C4.65 7.33 4.48 7.04 4.36 6.73L4.3 6.57L4.26 6.43L4.22 6.26L4.19 6.08C4.17 5.94 4.16 5.8 4.16 5.68L4.16 4.54C4.16 4.48 4.16 4.42 4.17 4.34L4.18 4.21L4.19 4.13C4.2 4.08 4.2 4.04 4.21 4L4.25 3.81C4.63 2.48 5.89 1.5 7.32 1.5ZM11.85 9.16L11.66 9.61C11.61 9.71 11.54 9.8 11.45 9.85L11.23 9.97C11.14 10.03 11.03 10.05 10.92 10.04L10.43 9.98L10.09 10.56L10.39 10.96C10.44 11.03 10.47 11.11 10.49 11.19L10.49 11.5C10.49 11.61 10.45 11.72 10.39 11.8L10.09 12.2L10.43 12.78L10.92 12.72C11 12.71 11.08 12.72 11.16 12.75L11.23 12.79L11.45 12.91C11.54 12.97 11.61 13.05 11.66 13.15L11.85 13.6L12.53 13.6L12.72 13.15C12.76 13.07 12.81 13 12.88 12.95L13.15 12.79C13.24 12.73 13.35 12.71 13.46 12.72L13.94 12.78L14.28 12.2L13.99 11.8C13.94 11.74 13.9 11.65 13.89 11.57L13.89 11.26C13.89 11.15 13.92 11.04 13.99 10.96L14.28 10.57L13.94 9.98L13.46 10.04C13.38 10.05 13.29 10.04 13.22 10.01L13.15 9.97L12.93 9.85C12.84 9.8 12.76 9.71 12.72 9.61L12.53 9.16L11.85 9.16ZM12.19 10.66C12.59 10.66 12.91 10.98 12.91 11.38C12.91 11.78 12.59 12.1 12.19 12.1C11.79 12.1 11.47 11.78 11.47 11.38C11.47 10.98 11.79 10.66 12.19 10.66Z" fill="currentColor" fill-opacity="1.000000" fill-rule="nonzero"/>
	</g>
</svg>
