<svg width="16.000000" height="16.000000" viewBox="0 0 16 16" fill="none" xmlns="http://www.w3.org/2000/svg" xmlns:xlink="http://www.w3.org/1999/xlink">
	<desc>
			Created with Pixso.
	</desc>
	<defs>
		<clipPath id="clip2_197">
			<rect id="6#用户收藏-user-star" width="16.000000" height="16.000000" fill="white" fill-opacity="0"/>
		</clipPath>
	</defs>
	<g clip-path="url(#clip2_197)">
		<path id="形状结合" d="M5.99 2.5C7.64 2.5 8.99 3.83 8.99 5.47L8.99 6.57C8.99 7.26 8.75 7.9 8.34 8.42L8.26 8.51L9.76 8.83C10.72 9.03 11.42 9.84 11.49 10.81L11.5 10.93L11.5 12.89C11.5 13.78 10.77 14.5 9.88 14.5L2.11 14.5C1.22 14.5 0.5 13.78 0.5 12.89L0.5 10.94C0.49 9.92 1.21 9.04 2.21 8.83L3.72 8.51L3.65 8.42C3.45 8.17 3.29 7.9 3.18 7.59L3.12 7.44L3.07 7.25L3.03 7.07L3.02 6.96L3 6.81C2.99 6.73 2.99 6.65 2.99 6.57L2.99 5.42L3 5.17L3.03 4.98L3.09 4.71C3.44 3.41 4.63 2.5 5.99 2.5ZM5.99 3.5C5.08 3.5 4.29 4.11 4.06 4.96L4.02 5.11L4.01 5.22L3.99 5.34C3.99 5.4 3.99 5.43 3.99 5.47L3.99 6.62C3.99 6.68 4 6.75 4.01 6.83L4.03 6.95L4.06 7.07L4.13 7.27C4.3 7.73 4.64 8.1 5.08 8.33C5.5 8.54 5.42 9.16 4.96 9.26L2.42 9.81C1.88 9.92 1.49 10.39 1.5 10.94L1.5 12.89C1.5 13.22 1.77 13.5 2.11 13.5L9.88 13.5C10.22 13.5 10.5 13.22 10.5 12.89L10.5 10.94C10.49 10.39 10.1 9.92 9.56 9.81L7.02 9.26C6.56 9.16 6.48 8.54 6.9 8.33C7.56 7.99 7.99 7.31 7.99 6.57L7.99 5.47C7.99 4.39 7.09 3.5 5.99 3.5ZM11.71 3.51C11.91 3.07 12.42 2.88 12.86 3.08C13.05 3.16 13.2 3.31 13.29 3.49L13.63 4.2L14.33 4.3C14.77 4.36 15.09 4.74 15.08 5.18L15.07 5.27C15.05 5.46 14.96 5.63 14.83 5.77L14.27 6.32L14.38 7.1C14.44 7.55 14.15 7.96 13.72 8.06L13.64 8.08C13.42 8.11 13.2 8.05 13.03 7.93L12.5 7.56L11.96 7.93C11.6 8.19 11.1 8.12 10.82 7.79L10.76 7.71C10.63 7.54 10.58 7.32 10.61 7.1L10.72 6.32L10.17 5.77C9.85 5.45 9.83 4.96 10.1 4.62L10.17 4.55C10.3 4.41 10.48 4.32 10.67 4.3L11.4 4.2L11.71 3.51ZM12.51 4.18L12.09 5.12L11.07 5.26L11.77 5.97L11.64 6.94L12.5 6.34L13.35 6.94L13.22 5.97L13.93 5.25L12.96 5.12L12.51 4.18Z" fill="currentColor" fill-opacity="1.000000" fill-rule="nonzero"/>
	</g>
</svg>
