<svg width="16.000000" height="16.000000" viewBox="0 0 16 16" fill="none" xmlns="http://www.w3.org/2000/svg" xmlns:xlink="http://www.w3.org/1999/xlink">
	<desc>
			Created with Pixso.
	</desc>
	<defs>
		<clipPath id="clip2_100">
			<rect id="7#锁定用户-lock-user" width="16.000000" height="16.000000" fill="white" fill-opacity="0"/>
		</clipPath>
	</defs>
	<g clip-path="url(#clip2_100)">
		<path id="形状结合" d="M7.38 1.5C9.14 1.5 10.58 2.88 10.58 4.6L10.58 5.75C10.58 6.51 10.29 7.23 9.8 7.78L10.37 7.92C10.64 7.98 10.81 8.25 10.75 8.52C10.7 8.79 10.43 8.96 10.16 8.9L8.51 8.55C8.04 8.46 7.96 7.83 8.39 7.62C9.12 7.26 9.58 6.54 9.58 5.75L9.58 4.6C9.58 3.45 8.6 2.5 7.38 2.5C6.44 2.5 5.62 3.08 5.31 3.9L5.25 4.09L5.21 4.27L5.2 4.4L5.19 4.59L5.19 5.75C5.19 5.8 5.19 5.85 5.19 5.92L5.21 6.05L5.24 6.18L5.29 6.36C5.46 6.9 5.86 7.36 6.38 7.62C6.81 7.83 6.73 8.45 6.27 8.55L3.52 9.13C2.92 9.26 2.49 9.76 2.5 10.34L2.5 12.4C2.5 12.75 2.81 13.05 3.19 13.05L8.61 13.05C8.89 13.05 9.11 13.28 9.11 13.55C9.11 13.83 8.89 14.05 8.61 14.05L3.19 14.05C2.26 14.05 1.5 13.32 1.5 12.4L1.5 10.34C1.49 9.28 2.26 8.37 3.32 8.15L5 7.8C4.77 7.54 4.54 7.19 4.41 6.86L4.31 6.59L4.27 6.44L4.22 6.17C4.2 6.03 4.19 5.87 4.19 5.75L4.19 4.53L4.2 4.28L4.23 4.08L4.28 3.85C4.66 2.51 5.94 1.5 7.38 1.5ZM12.1 8.66C12.96 8.66 13.66 9.36 13.66 10.22C14.08 10.35 14.39 10.72 14.39 11.19L14.39 12.95C14.39 13.53 13.92 14 13.34 14L10.86 14C10.28 14 9.81 13.53 9.81 12.95L9.81 11.19C9.81 10.72 10.12 10.32 10.55 10.19C10.57 9.34 11.25 8.66 12.1 8.66ZM13.34 11.04L10.86 11.04C10.78 11.04 10.71 11.11 10.71 11.19L10.71 12.95C10.71 13.04 10.78 13.1 10.86 13.1L13.34 13.1C13.42 13.1 13.49 13.04 13.49 12.95L13.49 11.19C13.49 11.11 13.42 11.04 13.34 11.04ZM12.1 9.56C11.77 9.56 11.49 9.81 11.45 10.14L12.75 10.14C12.71 9.85 12.48 9.61 12.2 9.57L12.1 9.56Z" fill="currentColor" fill-opacity="1.000000" fill-rule="nonzero"/>
	</g>
</svg>
