<svg width="16.000000" height="16.000000" viewBox="0 0 16 16" fill="none" xmlns="http://www.w3.org/2000/svg" xmlns:xlink="http://www.w3.org/1999/xlink">
	<desc>
			Created with Pixso.
	</desc>
	<defs>
		<clipPath id="clip2_157">
			<rect id="8#无访问权限-no-permission" width="16.000000" height="16.000000" fill="white" fill-opacity="0"/>
		</clipPath>
	</defs>
	<g clip-path="url(#clip2_157)">
		<path id="path" d="M14.38 5.88C13.29 2.27 9.49 0.23 5.88 1.32C2.28 2.41 0.23 6.21 1.32 9.82C1.99 12.05 3.75 13.78 5.99 14.41C6.29 14.5 6.59 14.57 6.9 14.61C7.12 14.61 7.38 14.44 7.41 14.22C7.44 13.97 7.26 13.75 7.01 13.72C6.74 13.68 6.46 13.62 6.2 13.55C5.38 13.31 4.63 12.9 3.99 12.34L12.34 4C12.88 4.62 13.28 5.34 13.52 6.12C13.61 6.4 13.67 6.7 13.71 6.99C13.75 7.23 13.98 7.4 14.22 7.37C14.47 7.33 14.64 7.11 14.6 6.86C14.56 6.53 14.48 6.2 14.38 5.88ZM7.86 2C9.27 2 10.64 2.51 11.71 3.43L3.38 11.71C2.48 10.63 1.99 9.27 1.99 7.87C2.02 4.64 4.63 2.03 7.86 2ZM13.99 15L9.49 15C8.92 15 8.44 14.57 8.39 14L8.39 12.83C8.4 12.17 8.87 11.61 9.52 11.48L10.16 11.34C9.96 11.05 9.85 10.7 9.84 10.34L9.84 9.73C9.91 8.72 10.73 7.93 11.74 7.88C12.77 7.87 13.62 8.7 13.64 9.73L13.64 10.36C13.64 10.72 13.54 11.06 13.34 11.36L13.96 11.49C14.61 11.62 15.08 12.18 15.09 12.84L15.09 14C15.05 14.57 14.56 15.01 13.99 15ZM11.74 8.78C11.19 8.78 10.74 9.23 10.74 9.78L10.74 10.41C10.78 10.76 10.98 11.07 11.28 11.25C11.5 11.36 11.6 11.62 11.5 11.85C11.44 11.98 11.32 12.08 11.17 12.1L9.7 12.41C9.47 12.46 9.3 12.65 9.29 12.88L9.29 14C9.3 14.1 9.39 14.18 9.49 14.17L13.99 14.17C14.09 14.17 14.18 14.1 14.19 14L14.19 12.83C14.18 12.6 14.01 12.41 13.78 12.36L12.3 12.05C12.11 12.01 11.97 11.85 11.95 11.66C11.92 11.47 12.02 11.28 12.2 11.2C12.52 11.04 12.72 10.72 12.74 10.36L12.74 9.73C12.71 9.2 12.27 8.78 11.74 8.78Z" fill="currentColor" fill-opacity="1.000000" fill-rule="nonzero"/>
	</g>
</svg>
