<svg width="16.000000" height="16.000000" viewBox="0 0 16 16" fill="none" xmlns="http://www.w3.org/2000/svg" xmlns:xlink="http://www.w3.org/1999/xlink">
	<desc>
			Created with Pixso.
	</desc>
	<defs>
		<clipPath id="clip2_12">
			<rect id="9#用户退出|登录指引-user-quit" width="16.000000" height="16.000000" fill="white" fill-opacity="0"/>
		</clipPath>
	</defs>
	<g clip-path="url(#clip2_12)">
		<path id="形状结合" d="M7.21 1.9C8.92 1.9 10.31 3.25 10.31 4.92L10.31 6.04C10.31 6.7 10.09 7.33 9.69 7.84L9.55 8.01L11.14 8.35C11.38 8.4 11.55 8.61 11.54 8.85L11.53 8.94C11.47 9.21 11.21 9.38 10.94 9.33L8.29 8.77C7.83 8.67 7.75 8.04 8.17 7.83C8.87 7.49 9.31 6.79 9.31 6.04L9.31 4.92C9.31 3.81 8.37 2.9 7.21 2.9C6.31 2.9 5.53 3.45 5.24 4.24L5.18 4.43L5.14 4.59L5.13 4.73L5.11 4.91L5.11 6.03C5.11 6.08 5.12 6.13 5.12 6.2L5.14 6.32L5.2 6.6C5.37 7.12 5.76 7.58 6.26 7.83C6.68 8.04 6.6 8.67 6.14 8.77L3.5 9.33C2.93 9.44 2.52 9.93 2.52 10.48L2.52 12.48C2.52 12.81 2.81 13.1 3.18 13.1L11.27 13.1C11.54 13.1 11.77 13.32 11.77 13.6C11.77 13.87 11.54 14.1 11.27 14.1L3.18 14.1C2.27 14.1 1.52 13.37 1.52 12.48L1.52 10.48C1.52 9.45 2.26 8.56 3.29 8.35L4.88 8.01C4.66 7.76 4.45 7.43 4.33 7.11L4.24 6.85L4.18 6.63L4.15 6.45C4.13 6.31 4.11 6.15 4.11 6.03L4.11 4.85L4.14 4.58L4.16 4.42L4.21 4.19C4.57 2.88 5.81 1.9 7.21 1.9ZM12.78 9.33L14.34 10.89C14.51 11.06 14.51 11.35 14.34 11.52L12.78 13.08C12.6 13.26 12.32 13.26 12.14 13.08C11.97 12.9 11.97 12.62 12.14 12.44L12.93 11.65L9.89 11.66C9.64 11.66 9.44 11.45 9.44 11.21C9.44 10.96 9.64 10.76 9.89 10.76L12.89 10.76L12.14 9.97C11.99 9.81 11.97 9.57 12.09 9.39C12.27 9.22 12.6 9.16 12.78 9.33Z" fill="currentColor" fill-opacity="1.000000" fill-rule="nonzero"/>
	</g>
</svg>
