<svg width="16.000000" height="16.000000" viewBox="0 0 16 16" fill="none" xmlns="http://www.w3.org/2000/svg" xmlns:xlink="http://www.w3.org/1999/xlink">
	<desc>
			Created with Pixso.
	</desc>
	<defs>
		<clipPath id="clip84_9">
			<rect id="11#半星|半分-half-star" width="16.000000" height="16.000000" fill="white" fill-opacity="0"/>
		</clipPath>
	</defs>
	<g clip-path="url(#clip84_9)">
		<path id="路径" d="M7.9 13.02L5.09 14.8C4.5 15.18 3.73 14.98 3.37 14.37C3.2 14.08 3.15 13.74 3.23 13.41L3.99 10.07C4.01 9.99 3.98 9.91 3.92 9.85L1.43 7.62C0.91 7.16 0.85 6.35 1.29 5.81C1.5 5.55 1.81 5.39 2.14 5.36L5.42 5.09C5.49 5.08 5.55 5.03 5.58 4.96L6.84 1.79C7.04 1.3 7.5 1 7.99 1C8.01 4.99 8.03 12.99 7.99 12.99C7.96 12.99 7.93 13 7.9 13.02Z" fill="currentColor" fill-opacity="1.000000" fill-rule="evenodd"/>
	</g>
</svg>
