<svg width="16.000000" height="16.000000" viewBox="0 0 16 16" fill="none" xmlns="http://www.w3.org/2000/svg" xmlns:xlink="http://www.w3.org/1999/xlink">
	<desc>
			Created with Pixso.
	</desc>
	<defs>
		<clipPath id="clip113_3">
			<rect id="12#横向调整-adjust-x" width="16.000000" height="16.000000" transform="translate(0.000000 16.000000) rotate(-90.000000)" fill="white" fill-opacity="0"/>
		</clipPath>
	</defs>
	<g clip-path="url(#clip113_3)">
		<path id="形状结合" d="M1.92 9.11C1.3 8.5 1.3 7.5 1.92 6.88L3.91 4.89C4.1 4.69 4.42 4.69 4.61 4.89C4.81 5.09 4.81 5.4 4.61 5.6L2.71 7.5L7.72 7.5L7.72 2.05C7.72 1.77 7.94 1.55 8.22 1.55C8.5 1.55 8.72 1.77 8.72 2.05L8.72 7.5L13.28 7.5L11.38 5.6C11.2 5.42 11.18 5.14 11.33 4.95C11.52 4.75 11.89 4.69 12.08 4.89L14.07 6.88C14.69 7.5 14.69 8.5 14.07 9.11L12.08 11.1C11.89 11.3 11.57 11.3 11.38 11.1C11.18 10.91 11.18 10.59 11.38 10.39L13.27 8.5L8.72 8.5L8.72 13.94C8.72 14.22 8.5 14.44 8.22 14.44C7.94 14.44 7.72 14.22 7.72 13.94L7.72 8.5L2.72 8.5L4.61 10.39C4.79 10.57 4.81 10.85 4.66 11.05C4.47 11.24 4.1 11.3 3.91 11.1L1.92 9.11Z" fill="currentColor" fill-opacity="1.000000" fill-rule="nonzero"/>
	</g>
</svg>
