<svg width="16.000000" height="16.000000" viewBox="0 0 16 16" fill="none" xmlns="http://www.w3.org/2000/svg" xmlns:xlink="http://www.w3.org/1999/xlink">
	<desc>
			Created with Pixso.
	</desc>
	<defs>
		<clipPath id="clip2_152">
			<rect id="13#竖向调整-adjust-y" width="16.000000" height="16.000000" fill="white" fill-opacity="0"/>
		</clipPath>
	</defs>
	<g clip-path="url(#clip2_152)">
		<path id="形状结合" d="M6.88 1.92C7.49 1.3 8.49 1.3 9.11 1.92L11.1 3.91C11.3 4.1 11.3 4.42 11.1 4.61C10.9 4.81 10.59 4.81 10.39 4.61L8.49 2.71L8.49 7.72L13.94 7.72C14.22 7.72 14.44 7.94 14.44 8.22C14.44 8.5 14.22 8.72 13.94 8.72L8.49 8.72L8.49 13.28L10.39 11.38C10.57 11.2 10.85 11.18 11.04 11.33C11.24 11.52 11.3 11.89 11.1 12.08L9.11 14.07C8.49 14.69 7.49 14.69 6.88 14.07L4.89 12.08C4.69 11.89 4.69 11.57 4.89 11.38C5.08 11.18 5.4 11.18 5.6 11.38L7.49 13.27L7.49 8.72L2.05 8.72C1.77 8.72 1.55 8.5 1.55 8.22C1.55 7.94 1.77 7.72 2.05 7.72L7.49 7.72L7.49 2.72L5.6 4.61C5.42 4.79 5.14 4.81 4.94 4.66C4.75 4.47 4.69 4.1 4.89 3.91L6.88 1.92Z" fill="currentColor" fill-opacity="1.000000" fill-rule="nonzero"/>
	</g>
</svg>
