<svg width="16.000000" height="16.000000" viewBox="0 0 16 16" fill="none" xmlns="http://www.w3.org/2000/svg" xmlns:xlink="http://www.w3.org/1999/xlink">
	<desc>
			Created with Pixso.
	</desc>
	<defs>
		<clipPath id="clip2_111">
			<rect id="14#筛选-filter" width="16.000000" height="16.000000" fill="white" fill-opacity="0"/>
		</clipPath>
	</defs>
	<g clip-path="url(#clip2_111)">
		<path id="路径-7" d="M12.31 1.84L3.68 1.84C3.38 1.84 3.09 1.95 2.86 2.14L2.75 2.23C2.29 2.7 2.25 3.45 2.67 3.97L5.85 7.86L5.85 13.64C5.85 13.92 6.08 14.14 6.35 14.14L9.62 14.14L9.71 14.14C9.95 14.09 10.13 13.89 10.13 13.64L10.12 7.86L13.31 3.97C13.5 3.74 13.61 3.44 13.61 3.14C13.61 2.43 13.02 1.84 12.31 1.84ZM12.31 2.84C12.47 2.84 12.61 2.98 12.61 3.14C12.61 3.21 12.58 3.28 12.54 3.33L9.24 7.37L9.19 7.44C9.15 7.51 9.12 7.6 9.12 7.68L9.12 13.14L6.85 13.14L6.85 7.68C6.85 7.57 6.81 7.45 6.74 7.37L3.45 3.33C3.34 3.21 3.36 3.02 3.49 2.91C3.55 2.87 3.61 2.84 3.68 2.84L12.31 2.84Z" fill="currentColor" fill-opacity="1.000000" fill-rule="nonzero"/>
	</g>
</svg>
