<svg width="16.000000" height="16.000000" viewBox="0 0 16 16" fill="none" xmlns="http://www.w3.org/2000/svg" xmlns:xlink="http://www.w3.org/1999/xlink">
	<desc>
			Created with Pixso.
	</desc>
	<defs>
		<clipPath id="clip2_62">
			<rect id="15#剪切|裁剪-crop" width="16.000000" height="16.000000" fill="white" fill-opacity="0"/>
		</clipPath>
	</defs>
	<g clip-path="url(#clip2_62)">
		<path id="形状结合" d="M3.66 0.99C3.93 0.99 4.16 1.21 4.16 1.49L4.16 10.48C4.16 11.23 4.76 11.84 5.52 11.84L14.51 11.84C14.78 11.84 15.01 12.06 15.01 12.34C15.01 12.61 14.78 12.84 14.51 12.84L12.83 12.83L12.84 14.51C12.84 14.78 12.61 15.01 12.34 15.01C12.06 15.01 11.84 14.78 11.84 14.51L11.83 12.83L5.52 12.84C4.21 12.84 3.16 11.78 3.16 10.48L3.16 4.15L1.49 4.16C1.21 4.16 0.99 3.93 0.99 3.66C0.99 3.38 1.21 3.16 1.49 3.16L3.16 3.15L3.16 1.49C3.16 1.21 3.38 0.99 3.66 0.99ZM10.48 3.16C11.78 3.16 12.84 4.21 12.84 5.52L12.84 10.17C12.84 10.44 12.61 10.67 12.34 10.67C12.06 10.67 11.84 10.44 11.84 10.17L11.84 5.52C11.84 4.76 11.23 4.16 10.48 4.16L5.83 4.16C5.55 4.16 5.33 3.93 5.33 3.66C5.33 3.38 5.55 3.16 5.83 3.16L10.48 3.16Z" fill="currentColor" fill-opacity="1.000000" fill-rule="nonzero"/>
	</g>
</svg>
