<svg width="16.000000" height="16.000000" viewBox="0 0 16 16" fill="none" xmlns="http://www.w3.org/2000/svg" xmlns:xlink="http://www.w3.org/1999/xlink">
	<desc>
			Created with Pixso.
	</desc>
	<defs>
		<clipPath id="clip2_186">
			<rect id="2#暂停-pause" width="16.000000" height="16.000000" fill="white" fill-opacity="0"/>
		</clipPath>
	</defs>
	<g clip-path="url(#clip2_186)">
		<path id="形状结合" d="M8 1C11.86 1 15 4.13 15 8C15 11.86 11.86 15 8 15C4.13 15 1 11.86 1 8C1 4.13 4.13 1 8 1ZM8 2C4.68 2 2 4.68 2 8C2 11.31 4.68 14 8 14C11.31 14 14 11.31 14 8C14 4.68 11.31 2 8 2ZM6.75 5.75C7.02 5.75 7.25 5.97 7.25 6.25L7.25 9.75C7.25 10.02 7.02 10.25 6.75 10.25C6.47 10.25 6.25 10.02 6.25 9.75L6.25 6.25C6.25 5.97 6.47 5.75 6.75 5.75ZM9.25 5.75C9.52 5.75 9.75 5.97 9.75 6.25L9.75 9.75C9.75 10.02 9.52 10.25 9.25 10.25C8.97 10.25 8.75 10.02 8.75 9.75L8.75 6.25C8.75 5.97 8.97 5.75 9.25 5.75Z" fill="currentColor" fill-opacity="1.000000" fill-rule="nonzero"/>
	</g>
</svg>
