<svg width="16.000000" height="16.000000" viewBox="0 0 16 16" fill="none" xmlns="http://www.w3.org/2000/svg" xmlns:xlink="http://www.w3.org/1999/xlink">
	<desc>
			Created with Pixso.
	</desc>
	<defs>
		<clipPath id="clip2_29">
			<rect id="20#放大-zoom-in" width="16.000000" height="16.000000" fill="white" fill-opacity="0"/>
		</clipPath>
	</defs>
	<g clip-path="url(#clip2_29)">
		<path id="形状结合" d="M7.22 1.67C10.26 1.67 12.72 4.14 12.72 7.17C12.72 8.5 12.25 9.72 11.47 10.67L14.2 13.36C14.4 13.56 14.4 13.87 14.2 14.07C14.01 14.27 13.69 14.27 13.5 14.08L10.77 11.38C9.81 12.19 8.57 12.67 7.22 12.67C4.18 12.67 1.72 10.21 1.72 7.17C1.72 4.14 4.18 1.67 7.22 1.67ZM7.22 2.67C4.74 2.67 2.72 4.69 2.72 7.17C2.72 9.66 4.74 11.67 7.22 11.67C9.71 11.67 11.72 9.66 11.72 7.17C11.72 4.69 9.71 2.67 7.22 2.67ZM7.22 4.67C7.5 4.67 7.72 4.9 7.72 5.17L7.72 6.67L9.22 6.67C9.5 6.67 9.72 6.9 9.72 7.17C9.72 7.45 9.5 7.67 9.22 7.67L7.72 7.67L7.72 9.17C7.72 9.45 7.5 9.67 7.22 9.67C6.95 9.67 6.72 9.45 6.72 9.17L6.72 7.67L5.22 7.67C4.95 7.67 4.72 7.45 4.72 7.17C4.72 6.9 4.95 6.67 5.22 6.67L6.72 6.67L6.72 5.17C6.72 4.9 6.95 4.67 7.22 4.67Z" fill="currentColor" fill-opacity="1.000000" fill-rule="nonzero"/>
	</g>
</svg>
