<svg width="16.000000" height="16.000000" viewBox="0 0 16 16" fill="none" xmlns="http://www.w3.org/2000/svg" xmlns:xlink="http://www.w3.org/1999/xlink">
	<desc>
			Created with Pixso.
	</desc>
	<defs>
		<clipPath id="clip2_180">
			<rect id="23#取消隐藏-unhide" width="16.000000" height="16.000000" fill="white" fill-opacity="0"/>
		</clipPath>
	</defs>
	<g clip-path="url(#clip2_180)">
		<path id="形状结合" d="M8 3.16C9.89 3.16 11.63 4.03 13.17 5.46C13.7 5.96 14.17 6.48 14.58 7.01C14.61 7.06 14.65 7.1 14.68 7.14L14.85 7.38L14.99 7.58L15.09 7.73C15.19 7.89 15.19 8.1 15.09 8.26L14.99 8.41L14.85 8.61L14.68 8.84L14.58 8.98C14.17 9.5 13.7 10.03 13.17 10.53C11.63 11.96 9.89 12.83 8 12.83C6.1 12.83 4.36 11.96 2.82 10.53C2.29 10.03 1.82 9.5 1.41 8.98C1.38 8.93 1.34 8.89 1.31 8.84L1.14 8.61L1 8.41L0.9 8.26C0.8 8.1 0.8 7.89 0.9 7.73L1 7.58L1.14 7.38L1.31 7.14L1.41 7.01C1.82 6.48 2.29 5.96 2.82 5.46C4.36 4.03 6.1 3.16 8 3.16ZM8 4.16C6.39 4.16 4.88 4.92 3.5 6.19C3.01 6.65 2.58 7.14 2.2 7.62C2.17 7.66 2.14 7.7 2.11 7.74L1.93 7.99L2.2 8.37C2.58 8.85 3.01 9.34 3.5 9.79C4.88 11.07 6.39 11.83 8 11.83C9.6 11.83 11.11 11.07 12.49 9.79C12.98 9.34 13.41 8.85 13.79 8.37C13.82 8.33 13.85 8.29 13.88 8.25L14.06 7.99L13.79 7.62C13.41 7.14 12.98 6.65 12.49 6.19C11.11 4.92 9.6 4.16 8 4.16ZM8 4.99C9.65 4.99 11 6.34 11 7.99C11 9.65 9.65 10.99 8 10.99C6.34 10.99 5 9.65 5 7.99C5 6.34 6.34 4.99 8 4.99ZM8 5.99C6.89 5.99 6 6.89 6 7.99C6 9.1 6.89 9.99 8 9.99C9.1 9.99 10 9.1 10 7.99C10 6.89 9.1 5.99 8 5.99Z" fill="currentColor" fill-opacity="1.000000" fill-rule="nonzero"/>
	</g>
</svg>
