<svg width="16.000000" height="16.000000" viewBox="0 0 16 16" fill="none" xmlns="http://www.w3.org/2000/svg" xmlns:xlink="http://www.w3.org/1999/xlink">
	<desc>
			Created with Pixso.
	</desc>
	<defs>
		<clipPath id="clip2_99">
			<rect id="24#隐藏-hide" width="16.000000" height="16.000000" fill="white" fill-opacity="0"/>
		</clipPath>
	</defs>
	<g clip-path="url(#clip2_99)">
		<path id="形状结合" d="M3.48 5.2L4.19 5.91L3.96 6.1C3.81 6.23 3.65 6.36 3.5 6.5L3.26 6.73C2.87 7.12 2.52 7.52 2.2 7.93L2.11 8.05L1.93 8.3L2.2 8.68L2.4 8.92C2.73 9.32 3.1 9.72 3.5 10.1L3.68 10.27C5.01 11.44 6.46 12.14 8 12.14L8.23 12.13C8.84 12.1 9.43 11.97 10.01 11.73L10.77 12.5L10.55 12.6C9.74 12.95 8.88 13.14 8 13.14L7.77 13.13C5.96 13.07 4.3 12.21 2.82 10.84L2.56 10.59C2.13 10.16 1.75 9.72 1.41 9.28L1.36 9.22L1.14 8.91L1 8.72L0.9 8.56L0.87 8.5C0.82 8.38 0.82 8.24 0.86 8.12L0.9 8.04L1 7.89L1.14 7.69L1.31 7.45L1.41 7.32L1.62 7.06C1.98 6.62 2.38 6.18 2.82 5.77C3.04 5.57 3.26 5.38 3.48 5.2ZM3.75 2.85L3.83 2.86C3.93 2.87 4.03 2.92 4.11 3L5.22 4.11C6.1 3.7 7.03 3.47 8 3.47L8.22 3.47C10.03 3.54 11.69 4.39 13.17 5.77L13.43 6.02C13.86 6.44 14.24 6.88 14.58 7.32L14.63 7.39L14.85 7.69L14.99 7.89L15.09 8.04L15.12 8.11C15.17 8.23 15.18 8.36 15.13 8.48L15.09 8.56L14.99 8.72L14.85 8.91L14.68 9.15L14.58 9.28L14.37 9.55C14.01 9.99 13.61 10.42 13.17 10.84L12.93 11.05C12.79 11.17 12.65 11.29 12.51 11.4L13.3 12.19C13.44 12.39 13.48 12.72 13.3 12.9C13.1 13.04 12.77 13.08 12.59 12.9L11.69 11.99L10.96 11.27L9.62 9.93L9.41 9.72L3.4 3.71C3.25 3.51 3.22 3.18 3.4 3C3.5 2.9 3.62 2.85 3.75 2.85ZM5.29 7.01L6.06 7.78L6.03 7.91C6.01 8.04 6 8.17 6 8.3L6 8.42C6.06 9.47 6.93 10.3 8 10.3L8.13 10.3C8.26 10.29 8.39 10.27 8.51 10.24L9.29 11.01L9.14 11.08C8.79 11.22 8.4 11.3 8 11.3L7.85 11.3C6.26 11.23 5 9.91 5 8.3C5 7.84 5.1 7.4 5.29 7.01ZM8 4.47L7.78 4.47C7.16 4.5 6.56 4.64 5.98 4.87L6.7 5.59C7.09 5.41 7.53 5.3 8 5.3L8.14 5.31C9.73 5.38 11 6.69 11 8.3L10.99 8.47C10.97 8.87 10.87 9.25 10.7 9.6L11.8 10.69C12.03 10.51 12.26 10.31 12.49 10.1L12.73 9.87C13.12 9.49 13.48 9.08 13.79 8.68L13.88 8.55L14.06 8.3L13.79 7.93L13.59 7.69C13.27 7.28 12.9 6.88 12.49 6.5L12.31 6.34C10.98 5.16 9.53 4.47 8 4.47ZM8 6.3L7.86 6.31C7.73 6.32 7.6 6.34 7.48 6.37L9.93 8.82C9.97 8.66 10 8.48 10 8.3L9.99 8.19C9.93 7.14 9.06 6.3 8 6.3Z" fill="currentColor" fill-opacity="1.000000" fill-rule="evenodd"/>
	</g>
</svg>
