<svg width="16.000000" height="16.000000" viewBox="0 0 16 16" fill="none" xmlns="http://www.w3.org/2000/svg" xmlns:xlink="http://www.w3.org/1999/xlink">
	<desc>
			Created with Pixso.
	</desc>
	<defs>
		<clipPath id="clip2_72">
			<rect id="26#静音-mute" width="16.000000" height="16.000000" fill="white" fill-opacity="0"/>
		</clipPath>
	</defs>
	<g clip-path="url(#clip2_72)">
		<path id="形状结合" d="M8.72 1.91L4.57 4.75L2.65 4.75C2 4.75 1.51 5.35 1.51 6.03L1.51 10.03L1.51 10.14C1.56 10.78 2.03 11.31 2.65 11.31L4.57 11.31L8.72 14.09C8.9 14.21 9.11 14.28 9.33 14.28C9.98 14.28 10.47 13.69 10.47 13L10.47 2.99C10.47 2.78 10.43 2.57 10.33 2.38C10.02 1.74 9.28 1.51 8.72 1.91ZM9.47 2.8C9.5 2.85 9.51 2.92 9.51 2.99L9.51 13C9.51 13.19 9.41 13.32 9.33 13.32L4.98 10.44C4.9 10.38 4.81 10.35 4.71 10.35L2.65 10.35C2.57 10.35 2.47 10.23 2.47 10.03L2.47 6.03C2.47 5.84 2.57 5.71 2.65 5.71L4.71 5.71C4.81 5.71 4.91 5.69 4.99 5.63L9.26 2.7C9.32 2.65 9.42 2.71 9.47 2.8ZM14.08 6.46C14.27 6.27 14.57 6.27 14.76 6.46C14.95 6.64 14.95 6.95 14.76 7.14L13.69 8.21L14.76 9.28C14.95 9.47 14.95 9.78 14.76 9.96C14.57 10.15 14.27 10.15 14.08 9.96L13.01 8.89L11.93 9.96C11.77 10.13 11.5 10.15 11.31 10.01C11.13 9.83 11.07 9.47 11.26 9.28L12.33 8.21L11.26 7.14C11.07 6.95 11.07 6.64 11.26 6.46C11.44 6.27 11.75 6.27 11.93 6.46L13.01 7.53L14.08 6.46Z" fill="currentColor" fill-opacity="1.000000" fill-rule="nonzero"/>
	</g>
</svg>
