<svg width="16.000000" height="16.000000" viewBox="0 0 16 16" fill="none" xmlns="http://www.w3.org/2000/svg" xmlns:xlink="http://www.w3.org/1999/xlink">
	<desc>
			Created with Pixso.
	</desc>
	<defs>
		<clipPath id="clip2_49">
			<rect id="27#横向伸缩-horizontal-scale" width="16.000000" height="16.000000" fill="white" fill-opacity="0"/>
		</clipPath>
	</defs>
	<g clip-path="url(#clip2_49)">
		<path id="形状结合" d="M12 1.5C13.38 1.5 14.5 2.61 14.5 4L14.5 12C14.5 13.38 13.38 14.5 12 14.5L4 14.5C2.61 14.5 1.5 13.38 1.5 12L1.5 4C1.5 2.61 2.61 1.5 4 1.5L12 1.5ZM12 2.5L4 2.5C3.17 2.5 2.5 3.17 2.5 4L2.5 12C2.5 12.82 3.17 13.5 4 13.5L12 13.5C12.82 13.5 13.5 12.82 13.5 12L13.5 4C13.5 3.17 12.82 2.5 12 2.5ZM4.97 6.16C5.15 5.96 5.47 5.94 5.67 6.12C5.82 6.31 5.88 6.65 5.71 6.83L5.11 7.5L6.56 7.5C6.82 7.5 7.03 7.68 7.06 7.93L7.06 8C7.06 8.27 6.84 8.5 6.56 8.5L5.11 8.5L5.71 9.16C5.88 9.35 5.88 9.63 5.72 9.81C5.52 10 5.15 10.03 4.97 9.83L3.62 8.33C3.45 8.14 3.45 7.85 3.62 7.66L4.97 6.16ZM11.03 6.16L12.37 7.66C12.54 7.85 12.54 8.14 12.37 8.33L11.03 9.83C10.84 10.03 10.53 10.05 10.32 9.87C10.12 9.68 10.1 9.37 10.28 9.16L10.88 8.5L9.43 8.5C9.15 8.5 8.93 8.27 8.93 8C8.93 7.72 9.15 7.5 9.43 7.5L10.88 7.5L10.28 6.83C10.12 6.65 10.11 6.38 10.26 6.19C10.47 6 10.84 5.96 11.03 6.16Z" fill="currentColor" fill-opacity="1.000000" fill-rule="nonzero"/>
	</g>
</svg>
