<svg width="16.000000" height="16.000000" viewBox="0 0 16 16" fill="none" xmlns="http://www.w3.org/2000/svg" xmlns:xlink="http://www.w3.org/1999/xlink">
	<desc>
			Created with Pixso.
	</desc>
	<defs>
		<clipPath id="clip2_103">
			<rect id="28#全屏-full" width="16.000000" height="16.000000" fill="white" fill-opacity="0"/>
		</clipPath>
	</defs>
	<g clip-path="url(#clip2_103)">
		<path id="path" d="M9 3.5C8.72 3.5 8.5 3.71 8.5 4C8.5 4.28 8.72 4.5 9 4.5L10.81 4.5L8.31 7C8.13 7.17 8.1 7.45 8.26 7.64C8.45 7.84 8.82 7.89 9.01 7.7L11.5 5.22L11.5 7C11.5 7.23 11.67 7.45 11.91 7.48C12.19 7.48 12.5 7.26 12.5 6.98L12.5 4.4C12.5 3.9 12.1 3.5 11.6 3.5L9 3.5ZM7.69 8.29C7.48 8.1 7.17 8.1 6.98 8.29L4.5 10.78L4.5 9C4.5 8.76 4.32 8.54 4.09 8.51C3.81 8.51 3.5 8.73 3.5 9.01L3.5 11.61C3.5 12.11 3.89 12.51 4.39 12.51L7 12.51C7.28 12.51 7.5 12.29 7.5 12.01C7.5 11.73 7.28 11.51 7 11.51L5.19 11.51L7.69 9C7.85 8.81 7.85 8.48 7.69 8.29ZM4 2.5L12 2.5C12.83 2.5 13.5 3.16 13.5 4L13.5 12C13.5 12.83 12.83 13.5 12 13.5L4 13.5C3.17 13.5 2.5 12.83 2.5 12L2.5 4C2.5 3.16 3.17 2.5 4 2.5ZM4 1.5C2.62 1.5 1.5 2.62 1.5 4L1.5 12C1.5 13.38 2.62 14.5 4 14.5L12 14.5C13.38 14.5 14.5 13.38 14.5 12L14.5 4C14.5 2.62 13.38 1.5 12 1.5L4 1.5Z" fill="currentColor" fill-opacity="1.000000" fill-rule="nonzero"/>
	</g>
</svg>
