<svg width="16.000000" height="16.000000" viewBox="0 0 16 16" fill="none" xmlns="http://www.w3.org/2000/svg" xmlns:xlink="http://www.w3.org/1999/xlink">
	<desc>
			Created with Pixso.
	</desc>
	<defs>
		<clipPath id="clip2_150">
			<rect id="29#退出全屏-exit-full" width="16.000000" height="16.000000" fill="white" fill-opacity="0"/>
		</clipPath>
	</defs>
	<g clip-path="url(#clip2_150)">
		<path id="path" d="M11.66 7.85C11.94 7.85 12.16 7.64 12.16 7.35C12.16 7.07 11.94 6.85 11.66 6.85L9.85 6.85L12.35 4.34C12.53 4.17 12.55 3.9 12.4 3.7C12.22 3.51 11.86 3.45 11.67 3.63L9.16 6.13L9.16 4.35C9.16 4.12 8.98 3.9 8.75 3.85C8.47 3.85 8.16 4.08 8.16 4.35L8.16 7C8.16 7.5 8.56 7.89 9.06 7.89L11.66 7.85ZM3.66 12.35C3.84 12.54 4.14 12.55 4.34 12.37L6.84 9.87L6.84 11.64C6.84 11.88 7.01 12.09 7.25 12.14C7.53 12.14 7.84 11.92 7.84 11.64L7.84 9C7.84 8.5 7.44 8.1 6.94 8.1L4.34 8.1C4.06 8.1 3.84 8.32 3.84 8.6C3.84 8.88 4.06 9.1 4.34 9.1L6.14 9.1L3.64 11.61C3.48 11.8 3.5 12.16 3.66 12.35ZM4 2.5L12 2.5C12.83 2.5 13.5 3.16 13.5 4L13.5 12C13.5 12.83 12.83 13.5 12 13.5L4 13.5C3.17 13.5 2.5 12.83 2.5 12L2.5 4C2.5 3.16 3.17 2.5 4 2.5ZM4 1.5C2.62 1.5 1.5 2.62 1.5 4L1.5 12C1.5 13.38 2.62 14.5 4 14.5L12 14.5C13.38 14.5 14.5 13.38 14.5 12L14.5 4C14.5 2.62 13.38 1.5 12 1.5L4 1.5Z" fill="currentColor" fill-opacity="1.000000" fill-rule="nonzero"/>
	</g>
</svg>
