<svg width="16.000000" height="16.000000" viewBox="0 0 16 16" fill="none" xmlns="http://www.w3.org/2000/svg" xmlns:xlink="http://www.w3.org/1999/xlink">
	<desc>
			Created with Pixso.
	</desc>
	<defs>
		<clipPath id="clip2_217">
			<rect id="30#全屏|最大化-full1" width="16.000000" height="16.000000" fill="white" fill-opacity="0"/>
		</clipPath>
	</defs>
	<g clip-path="url(#clip2_217)">
		<path id="形状结合" d="M12 1.5C13.38 1.5 14.5 2.61 14.5 4L14.5 12C14.5 13.38 13.38 14.5 12 14.5L4 14.5C2.61 14.5 1.5 13.38 1.5 12L1.5 4C1.5 2.61 2.61 1.5 4 1.5L12 1.5ZM12 2.5L4 2.5C3.17 2.5 2.5 3.17 2.5 4L2.5 12C2.5 12.82 3.17 13.5 4 13.5L12 13.5C12.82 13.5 13.5 12.82 13.5 12L13.5 4C13.5 3.17 12.82 2.5 12 2.5ZM12 9.5C12.27 9.5 12.5 9.72 12.5 10L12.5 11.6C12.5 12.09 12.09 12.5 11.6 12.5L10 12.5C9.72 12.5 9.5 12.27 9.5 12C9.5 11.72 9.72 11.5 10 11.5L11.5 11.5L11.5 10C11.5 9.75 11.67 9.55 11.91 9.5L12 9.5ZM4 9.5L4.08 9.5C4.32 9.55 4.5 9.75 4.5 10L4.5 11.5L6 11.5C6.27 11.5 6.5 11.72 6.5 12C6.5 12.27 6.27 12.5 6 12.5L4.39 12.5C3.9 12.5 3.5 12.09 3.5 11.6L3.5 10C3.5 9.72 3.72 9.5 4 9.5ZM6 3.5C6.27 3.5 6.5 3.72 6.5 4C6.5 4.27 6.27 4.5 6 4.5L4.5 4.5L4.5 6C4.5 6.24 4.32 6.44 4.08 6.49L4 6.5C3.72 6.5 3.5 6.27 3.5 6L3.5 4.4C3.5 3.9 3.9 3.5 4.39 3.5L6 3.5ZM11.6 3.5C12.09 3.5 12.5 3.9 12.5 4.4L12.5 6C12.5 6.27 12.27 6.5 12 6.5L11.91 6.49C11.67 6.44 11.5 6.24 11.5 6L11.5 4.5L10 4.5C9.72 4.5 9.5 4.27 9.5 4C9.5 3.72 9.72 3.5 10 3.5L11.6 3.5Z" fill="currentColor" fill-opacity="1.000000" fill-rule="nonzero"/>
	</g>
</svg>
