<svg width="16.000000" height="16.000000" viewBox="0 0 16 16" fill="none" xmlns="http://www.w3.org/2000/svg" xmlns:xlink="http://www.w3.org/1999/xlink">
	<desc>
			Created with Pixso.
	</desc>
	<defs>
		<clipPath id="clip2_54">
			<rect id="31#退出全屏|还原-exit-full1" width="16.000000" height="16.000000" fill="white" fill-opacity="0"/>
		</clipPath>
	</defs>
	<g clip-path="url(#clip2_54)">
		<path id="形状结合" d="M12 1.5C13.38 1.5 14.5 2.61 14.5 4L14.5 12C14.5 13.38 13.38 14.5 12 14.5L4 14.5C2.61 14.5 1.5 13.38 1.5 12L1.5 4C1.5 2.61 2.61 1.5 4 1.5L12 1.5ZM12 2.5L4 2.5C3.17 2.5 2.5 3.17 2.5 4L2.5 12C2.5 12.82 3.17 13.5 4 13.5L12 13.5C12.82 13.5 13.5 12.82 13.5 12L13.5 4C13.5 3.17 12.82 2.5 12 2.5ZM5.6 9.5C6.09 9.5 6.5 9.9 6.5 10.4L6.5 12C6.5 12.27 6.27 12.5 6 12.5L5.91 12.49C5.67 12.44 5.5 12.24 5.5 12L5.5 10.5L4 10.5C3.72 10.5 3.5 10.27 3.5 10C3.5 9.72 3.72 9.5 4 9.5L5.6 9.5ZM12 9.5C12.27 9.5 12.5 9.72 12.5 10C12.5 10.27 12.27 10.5 12 10.5L10.5 10.5L10.5 12C10.5 12.24 10.32 12.44 10.08 12.49L10 12.5C9.72 12.5 9.5 12.27 9.5 12L9.5 10.4C9.5 9.9 9.9 9.5 10.4 9.5L12 9.5ZM8 7.1C8.49 7.1 8.89 7.5 8.89 8C8.89 8.49 8.49 8.89 8 8.89C7.5 8.89 7.1 8.49 7.1 8C7.1 7.5 7.5 7.1 8 7.1ZM10 3.5L10.08 3.5C10.32 3.55 10.5 3.75 10.5 4L10.5 5.5L12 5.5C12.27 5.5 12.5 5.72 12.5 6C12.5 6.27 12.27 6.5 12 6.5L10.4 6.5C9.9 6.5 9.5 6.09 9.5 5.6L9.5 4C9.5 3.72 9.72 3.5 10 3.5ZM6 3.5C6.27 3.5 6.5 3.72 6.5 4L6.5 5.6C6.5 6.09 6.09 6.5 5.6 6.5L4 6.5C3.72 6.5 3.5 6.27 3.5 6C3.5 5.72 3.72 5.5 4 5.5L5.5 5.5L5.5 4C5.5 3.75 5.67 3.55 5.91 3.5L6 3.5Z" fill="currentColor" fill-opacity="1.000000" fill-rule="nonzero"/>
	</g>
</svg>
