<svg width="16.000000" height="16.000000" viewBox="0 0 16 16" fill="none" xmlns="http://www.w3.org/2000/svg" xmlns:xlink="http://www.w3.org/1999/xlink">
	<desc>
			Created with Pixso.
	</desc>
	<defs>
		<clipPath id="clip2_126">
			<rect id="32#适应画布-fit-canvas" width="16.000000" height="16.000000" fill="white" fill-opacity="0"/>
		</clipPath>
	</defs>
	<g clip-path="url(#clip2_126)">
		<path id="形状结合" d="M14 10.5C14.27 10.5 14.5 10.72 14.5 11L14.5 13.4C14.5 14 14 14.5 13.4 14.5L11 14.5C10.72 14.5 10.5 14.27 10.5 14C10.5 13.72 10.72 13.5 11 13.5L13.4 13.5C13.45 13.5 13.5 13.45 13.5 13.4L13.5 11C13.5 10.72 13.72 10.5 14 10.5ZM2 10.5C2.27 10.5 2.5 10.72 2.5 11L2.5 13.4C2.5 13.45 2.54 13.5 2.6 13.5L5 13.5C5.27 13.5 5.5 13.72 5.5 14C5.5 14.27 5.27 14.5 5 14.5L2.6 14.5C1.99 14.5 1.5 14 1.5 13.4L1.5 11C1.5 10.72 1.72 10.5 2 10.5ZM8 3.5C10.48 3.5 12.5 5.51 12.5 8C12.5 10.48 10.48 12.5 8 12.5C5.51 12.5 3.5 10.48 3.5 8C3.5 5.51 5.51 3.5 8 3.5ZM8 4.5C6.06 4.5 4.5 6.06 4.5 8C4.5 9.93 6.06 11.5 8 11.5C9.93 11.5 11.5 9.93 11.5 8C11.5 6.06 9.93 4.5 8 4.5ZM5 1.5C5.27 1.5 5.5 1.72 5.5 2C5.5 2.27 5.27 2.5 5 2.5L2.6 2.5C2.54 2.5 2.5 2.54 2.5 2.59L2.5 5C2.5 5.27 2.27 5.5 2 5.5C1.72 5.5 1.5 5.27 1.5 5L1.5 2.59C1.5 1.99 1.99 1.5 2.6 1.5L5 1.5ZM13.4 1.5C14 1.5 14.5 1.99 14.5 2.59L14.5 5C14.5 5.27 14.27 5.5 14 5.5C13.72 5.5 13.5 5.27 13.5 5L13.5 2.59C13.5 2.54 13.45 2.5 13.4 2.5L11 2.5C10.72 2.5 10.5 2.27 10.5 2C10.5 1.72 10.72 1.5 11 1.5L13.4 1.5Z" fill="currentColor" fill-opacity="1.000000" fill-rule="nonzero"/>
	</g>
</svg>
