<svg width="16.000000" height="16.000000" viewBox="0 0 16 16" fill="none" xmlns="http://www.w3.org/2000/svg" xmlns:xlink="http://www.w3.org/1999/xlink">
	<desc>
			Created with Pixso.
	</desc>
	<defs/>
	<path id="矢量 168" d="M11.06 1L4.93 1C2.75 1 1 2.75 1 4.93L1 11.06C1 13.25 2.75 15 4.93 15L11.06 15C13.25 15 15 13.25 15 11.06L15 4.93C15 2.75 13.25 1 11.06 1ZM14.12 11.06C14.12 12.72 12.72 14.12 11.06 14.12L4.93 14.12C3.27 14.12 1.87 12.72 1.87 11.06L1.87 4.93C1.87 3.27 3.27 1.87 4.93 1.87L11.06 1.87C12.72 1.87 14.12 3.27 14.12 4.93L14.12 11.06ZM10.18 8.43C10.45 8.43 10.62 8.26 10.62 8C10.62 7.73 10.45 7.56 10.18 7.56L5.81 7.56C5.54 7.56 5.37 7.73 5.37 8C5.37 8.26 5.54 8.43 5.81 8.43L10.18 8.43Z" fill="currentColor" fill-opacity="1.000000" fill-rule="evenodd"/>
</svg>
