<svg width="16.000000" height="16.000000" viewBox="0 0 16 16" fill="none" xmlns="http://www.w3.org/2000/svg" xmlns:xlink="http://www.w3.org/1999/xlink">
	<desc>
			Created with Pixso.
	</desc>
	<defs>
		<clipPath id="clip2_36">
			<rect id="41#复制-copy1" width="16.000000" height="16.000000" fill="white" fill-opacity="0"/>
		</clipPath>
	</defs>
	<g clip-path="url(#clip2_36)">
		<path id="形状结合" d="M9.5 3.99C10.88 3.99 12 5.11 12 6.49L12 12.49C12 13.88 10.88 14.99 9.5 14.99L3.5 14.99C2.11 14.99 1 13.88 1 12.49L1 6.49C1 5.11 2.11 3.99 3.5 3.99L9.5 3.99ZM9.5 4.99L3.5 4.99C2.67 4.99 2 5.67 2 6.49L2 12.49C2 13.32 2.67 13.99 3.5 13.99L9.5 13.99C10.32 13.99 11 13.32 11 12.49L11 6.49C11 5.67 10.32 4.99 9.5 4.99ZM6.5 6.49C6.77 6.49 7 6.72 7 6.99L7 8.99L9 8.99C9.27 8.99 9.5 9.22 9.5 9.49C9.5 9.77 9.27 9.99 9 9.99L7 9.99L7 11.99C7 12.27 6.77 12.49 6.5 12.49C6.22 12.49 6 12.27 6 11.99L6 9.99L4 9.99C3.72 9.99 3.5 9.77 3.5 9.49C3.5 9.22 3.72 8.99 4 8.99L6 8.99L6 6.99C6 6.72 6.22 6.49 6.5 6.49ZM12.5 1C13.88 1 15 2.12 15 3.5L15 8.5C15 8.78 14.77 9 14.5 9C14.22 9 14 8.78 14 8.5L14 3.5C14 2.67 13.32 2 12.5 2L7.5 2C7.22 2 7 1.78 7 1.5C7 1.22 7.22 1 7.5 1L12.5 1Z" fill="currentColor" fill-opacity="1.000000" fill-rule="nonzero"/>
	</g>
</svg>
