<svg width="16.000000" height="16.000000" viewBox="0 0 16 16" fill="none" xmlns="http://www.w3.org/2000/svg" xmlns:xlink="http://www.w3.org/1999/xlink">
	<desc>
			Created with Pixso.
	</desc>
	<defs>
		<clipPath id="clip2_77">
			<rect id="42#类型-type" width="16.000000" height="16.000000" fill="white" fill-opacity="0"/>
		</clipPath>
	</defs>
	<g clip-path="url(#clip2_77)">
		<path id="形状结合" d="M10 3.49C11.38 3.49 12.5 4.61 12.5 5.99L12.5 11.99C12.5 13.37 11.38 14.49 10 14.49L4 14.49C2.61 14.49 1.5 13.37 1.5 11.99L1.5 5.99C1.5 4.61 2.61 3.49 4 3.49L10 3.49ZM10 4.49L4 4.49C3.17 4.49 2.5 5.16 2.5 5.99L2.5 11.99C2.5 12.82 3.17 13.49 4 13.49L10 13.49C10.82 13.49 11.5 12.82 11.5 11.99L11.5 5.99C11.5 5.16 10.82 4.49 10 4.49ZM9 11.24C9.27 11.24 9.5 11.47 9.5 11.74C9.5 12.02 9.27 12.24 9 12.24L5 12.24C4.72 12.24 4.5 12.02 4.5 11.74C4.5 11.47 4.72 11.24 5 11.24L9 11.24ZM7 6.24C8.1 6.24 9 7.14 9 8.24C9 9.35 8.1 10.24 7 10.24C5.89 10.24 5 9.35 5 8.24C5 7.14 5.89 6.24 7 6.24ZM12 1.5C13.38 1.5 14.5 2.62 14.5 4L14.5 9C14.5 9.27 14.27 9.5 14 9.5C13.72 9.5 13.5 9.27 13.5 9L13.5 4C13.5 3.17 12.82 2.5 12 2.5L7 2.5C6.72 2.5 6.5 2.27 6.5 2C6.5 1.72 6.72 1.5 7 1.5L12 1.5ZM7 7.24C6.44 7.24 6 7.69 6 8.24C6 8.79 6.44 9.24 7 9.24C7.55 9.24 8 8.79 8 8.24C8 7.69 7.55 7.24 7 7.24Z" fill="currentColor" fill-opacity="1.000000" fill-rule="nonzero"/>
	</g>
</svg>
