<svg width="16.000000" height="16.000000" viewBox="0 0 16 16" fill="none" xmlns="http://www.w3.org/2000/svg" xmlns:xlink="http://www.w3.org/1999/xlink">
	<desc>
			Created with Pixso.
	</desc>
	<defs>
		<clipPath id="clip2_107">
			<rect id="43#群组|复制-group" width="16.000000" height="16.000000" fill="white" fill-opacity="0"/>
		</clipPath>
	</defs>
	<g clip-path="url(#clip2_107)">
		<path id="形状结合" d="M9.78 1.56C11.01 1.56 12 2.55 12 3.78L12 3.99L12.22 3.99C13.44 3.99 14.43 4.98 14.43 6.21L14.43 12.22C14.43 13.44 13.44 14.43 12.22 14.43L6.21 14.43C4.98 14.43 3.99 13.44 3.99 12.22L3.99 12L3.78 12C2.59 12 1.63 11.07 1.56 9.91L1.56 9.78L1.56 3.78C1.56 2.55 2.55 1.56 3.78 1.56L9.78 1.56ZM12 9.78C12 11.01 11.01 12 9.78 12L4.99 12L4.99 12.22C4.99 12.89 5.54 13.43 6.21 13.43L12.22 13.43C12.89 13.43 13.43 12.89 13.43 12.22L13.43 6.21C13.43 5.54 12.89 4.99 12.22 4.99L12 4.99L12 9.78ZM9.78 2.56L3.78 2.56C3.1 2.56 2.56 3.1 2.56 3.78L2.56 9.78C2.56 10.45 3.1 11 3.78 11L9.78 11C10.45 11 11 10.45 11 9.78L11 3.78C11 3.1 10.45 2.56 9.78 2.56Z" fill="currentColor" fill-opacity="1.000000" fill-rule="nonzero"/>
	</g>
</svg>
