<svg width="16.000000" height="16.000000" viewBox="0 0 16 16" fill="none" xmlns="http://www.w3.org/2000/svg" xmlns:xlink="http://www.w3.org/1999/xlink">
	<desc>
			Created with Pixso.
	</desc>
	<defs>
		<clipPath id="clip2_81">
			<rect id="44#列表|清单-list" width="16.000000" height="16.000000" fill="white" fill-opacity="0"/>
		</clipPath>
	</defs>
	<g clip-path="url(#clip2_81)">
		<path id="形状结合" d="M13.55 7.5C13.82 7.5 14.05 7.72 14.05 8C14.05 8.27 13.82 8.5 13.55 8.5L5.11 8.5C4.83 8.5 4.61 8.27 4.61 8C4.61 7.72 4.83 7.5 5.11 7.5L13.55 7.5ZM13.55 3.5C13.82 3.5 14.05 3.72 14.05 4C14.05 4.27 13.82 4.5 13.55 4.5L5.11 4.5C4.83 4.5 4.61 4.27 4.61 4C4.61 3.72 4.83 3.5 5.11 3.5L13.55 3.5ZM13.55 11.5C13.82 11.5 14.05 11.72 14.05 12C14.05 12.27 13.82 12.5 13.55 12.5L5.11 12.5C4.83 12.5 4.61 12.27 4.61 12C4.61 11.72 4.83 11.5 5.11 11.5L13.55 11.5ZM2.72 11.25C3.14 11.25 3.47 11.58 3.47 12C3.47 12.41 3.14 12.75 2.72 12.75C2.31 12.75 1.97 12.41 1.97 12C1.97 11.58 2.31 11.25 2.72 11.25ZM2.72 7.25C3.14 7.25 3.47 7.58 3.47 8C3.47 8.41 3.14 8.75 2.72 8.75C2.31 8.75 1.97 8.41 1.97 8C1.97 7.58 2.31 7.25 2.72 7.25ZM2.72 3.25C3.14 3.25 3.47 3.58 3.47 4C3.47 4.41 3.14 4.75 2.72 4.75C2.31 4.75 1.97 4.41 1.97 4C1.97 3.58 2.31 3.25 2.72 3.25Z" fill="currentColor" fill-opacity="1.000000" fill-rule="nonzero"/>
	</g>
</svg>
