<svg width="16.000000" height="16.000000" viewBox="0 0 16 16" fill="none" xmlns="http://www.w3.org/2000/svg" xmlns:xlink="http://www.w3.org/1999/xlink">
	<desc>
			Created with Pixso.
	</desc>
	<defs>
		<clipPath id="clip2_55">
			<rect id="45#均衡器|配置-custom" width="16.000000" height="16.000000" fill="white" fill-opacity="0"/>
		</clipPath>
	</defs>
	<g clip-path="url(#clip2_55)">
		<path id="形状结合" d="M8 1.5C8.27 1.5 8.5 1.72 8.5 2L8.5 10.5L9 10.5C9.27 10.5 9.5 10.72 9.5 11C9.5 11.27 9.27 11.5 9 11.5L8.5 11.5L8.5 14C8.5 14.27 8.27 14.5 8 14.5C7.72 14.5 7.5 14.27 7.5 14L7.5 11.5L7 11.5C6.72 11.5 6.5 11.27 6.5 11C6.5 10.72 6.72 10.5 7 10.5L7.5 10.5L7.5 2C7.5 1.72 7.72 1.5 8 1.5ZM3.5 1.5C3.77 1.5 4 1.72 4 2L4 4.5L4.5 4.5C4.77 4.5 5 4.72 5 5C5 5.27 4.77 5.5 4.5 5.5L4 5.5L4 14C4 14.27 3.77 14.5 3.5 14.5C3.22 14.5 3 14.27 3 14L3 5.5L2.5 5.5C2.22 5.5 2 5.27 2 5C2 4.72 2.22 4.5 2.5 4.5L3 4.5L3 2C3 1.72 3.22 1.5 3.5 1.5ZM12.5 1.5C12.77 1.5 13 1.72 13 2L13 4.5L13.5 4.5C13.77 4.5 14 4.72 14 5C14 5.27 13.77 5.5 13.5 5.5L13 5.5L13 14C13 14.27 12.77 14.5 12.5 14.5C12.22 14.5 12 14.27 12 14L12 5.5L11.5 5.5C11.22 5.5 11 5.27 11 5C11 4.72 11.22 4.5 11.5 4.5L12 4.5L12 2C12 1.72 12.22 1.5 12.5 1.5Z" fill="currentColor" fill-opacity="1.000000" fill-rule="nonzero"/>
	</g>
</svg>
