<svg width="16.000000" height="16.000000" viewBox="0 0 16 16" fill="none" xmlns="http://www.w3.org/2000/svg" xmlns:xlink="http://www.w3.org/1999/xlink">
	<desc>
			Created with Pixso.
	</desc>
	<defs>
		<clipPath id="clip2_90">
			<rect id="46#配置-config-x" width="16.000000" height="16.000000" fill="white" fill-opacity="0"/>
		</clipPath>
	</defs>
	<g clip-path="url(#clip2_90)">
		<path id="形状结合" d="M14.5 4L12.95 4C12.7 2.85 11.7 2 10.5 2C9.29 2 8.29 2.85 8.04 4L1.5 4C1.22 4 1 4.22 1 4.5C1 4.77 1.22 5 1.5 5L8.04 5C8.29 6.14 9.29 7 10.5 7C11.7 7 12.7 6.14 12.95 5L14.5 5C14.77 5 15 4.77 15 4.5C15 4.22 14.77 4 14.5 4ZM10.5 6C9.64 6 9 5.35 9 4.5C9 3.64 9.64 3 10.5 3C11.35 3 12 3.64 12 4.5C12 5.35 11.35 6 10.5 6ZM1.5 12L3.04 12C3.29 13.15 4.29 14 5.5 14C6.7 14 7.7 13.15 7.95 12L14.5 12C14.77 12 15 11.77 15 11.5C15 11.22 14.77 11 14.5 11L7.95 11C7.7 9.85 6.7 9 5.5 9C4.29 9 3.29 9.85 3.04 11L1.5 11C1.22 11 1 11.22 1 11.5C1 11.77 1.22 12 1.5 12ZM5.5 10C6.35 10 7 10.65 7 11.5C7 12.35 6.35 13 5.5 13C4.64 13 4 12.35 4 11.5C4 10.65 4.64 10 5.5 10Z" fill="currentColor" fill-opacity="1.000000" fill-rule="nonzero"/>
	</g>
</svg>
