<svg width="16.000000" height="16.000000" viewBox="0 0 16 16" fill="none" xmlns="http://www.w3.org/2000/svg" xmlns:xlink="http://www.w3.org/1999/xlink">
	<desc>
			Created with Pixso.
	</desc>
	<defs>
		<clipPath id="clip117_1430">
			<rect id="47#配置-config-y" width="16.000000" height="16.000000" fill="white" fill-opacity="0"/>
		</clipPath>
	</defs>
	<g clip-path="url(#clip117_1430)">
		<path id="_形状结合" d="M3.79 0.5C4.1 0.5 4.29 0.7 4.29 1L4.29 8C5.39 8.2 6.1 9.2 6.1 10.3C6.1 11.4 5.29 12.4 4.29 12.6L4.29 15C4.29 15.3 4.1 15.5 3.79 15.5C3.5 15.5 3.29 15.3 3.29 15L3.29 12.6C2.29 12.4 1.5 11.4 1.5 10.3C1.5 9.2 2.29 8.2 3.29 8L3.29 1C3.29 0.7 3.6 0.5 3.79 0.5ZM3.79 9C3.1 9 2.5 9.6 2.5 10.4C2.5 11.2 3.1 11.8 3.79 11.8C4.5 11.8 5.1 11.2 5.1 10.4C5.1 9.6 4.6 9 3.79 9ZM12.2 0.5C12.5 0.5 12.7 0.7 12.7 1L12.7 3.39C13.8 3.6 14.5 4.6 14.5 5.7C14.5 6.79 13.7 7.79 12.7 8L12.7 15C12.7 15.3 12.5 15.5 12.2 15.5C11.9 15.5 11.7 15.3 11.7 15L11.7 8C10.7 7.79 9.89 6.79 9.89 5.7C9.89 4.6 10.7 3.6 11.7 3.39L11.7 1C11.7 0.7 11.9 0.5 12.2 0.5ZM12.2 4.29C11.5 4.29 10.9 4.89 10.9 5.7C10.9 6.5 11.4 7 12.2 7C13 7 13.5 6.39 13.5 5.6C13.5 4.79 12.9 4.29 12.2 4.29Z" fill="currentColor" fill-opacity="1.000000" fill-rule="nonzero"/>
	</g>
</svg>
