<svg width="16.000000" height="16.000000" viewBox="0 0 16 16" fill="none" xmlns="http://www.w3.org/2000/svg" xmlns:xlink="http://www.w3.org/1999/xlink">
	<desc>
			Created with Pixso.
	</desc>
	<defs>
		<clipPath id="clip2_28">
			<rect id="49#退出-logout" width="16.000000" height="16.000000" fill="white" fill-opacity="0"/>
		</clipPath>
	</defs>
	<g clip-path="url(#clip2_28)">
		<path id="形状结合" d="M12.45 1.5L12.57 1.5C13.74 1.57 14.66 2.6 14.72 3.86L14.72 4L14.72 12L14.72 12.13C14.66 13.39 13.74 14.42 12.57 14.49L12.45 14.5L8 14.5L7.88 14.49C6.71 14.42 5.79 13.39 5.73 12.13L5.72 12L5.72 10.5L5.73 10.43C5.76 10.18 5.97 10 6.22 10C6.48 10 6.69 10.18 6.72 10.43L6.72 10.5L6.72 12L6.73 12.1C6.77 12.85 7.29 13.44 7.91 13.49L8 13.5L12.45 13.5L12.54 13.49C13.16 13.44 13.67 12.86 13.72 12.11L13.72 12L13.72 4L13.72 3.89C13.68 3.14 13.16 2.55 12.54 2.5L12.45 2.5L8 2.5L7.91 2.5C7.29 2.55 6.78 3.13 6.73 3.88L6.72 4L6.72 5.5L6.72 5.56C6.69 5.81 6.48 6 6.22 6C5.97 6 5.76 5.81 5.73 5.56L5.72 5.5L5.72 4L5.73 3.86C5.79 2.6 6.71 1.57 7.88 1.5L8 1.5L12.45 1.5ZM4.09 4.97C4.29 4.82 4.57 4.83 4.75 5.01C4.9 5.21 4.93 5.54 4.75 5.72L2.97 7.5L10.22 7.5L10.29 7.5C10.54 7.53 10.72 7.74 10.72 8C10.72 8.25 10.54 8.46 10.29 8.49L10.22 8.5L2.97 8.5L4.75 10.27C4.9 10.47 4.93 10.8 4.75 10.98C4.56 11.17 4.24 11.17 4.04 10.98L1.41 8.35C1.26 8.15 1.23 7.82 1.41 7.64L4.09 4.97Z" fill="currentColor" fill-opacity="1.000000" fill-rule="nonzero"/>
	</g>
</svg>
