<svg width="16.000000" height="16.000000" viewBox="0 0 16 16" fill="none" xmlns="http://www.w3.org/2000/svg" xmlns:xlink="http://www.w3.org/1999/xlink">
	<desc>
			Created with Pixso.
	</desc>
	<defs>
		<clipPath id="clip2_11">
			<rect id="50#登录-login" width="16.000000" height="16.000000" fill="white" fill-opacity="0"/>
		</clipPath>
	</defs>
	<g clip-path="url(#clip2_11)">
		<path id="形状结合" d="M11.3 1.5C12.91 1.5 14.25 2.59 14.25 4L14.25 12C14.25 13.4 12.91 14.5 11.3 14.5L5.19 14.5C3.58 14.5 2.25 13.4 2.25 12L2.25 10.5C2.25 10.22 2.47 10 2.75 10C3.02 10 3.25 10.22 3.25 10.5L3.25 12C3.25 12.8 4.1 13.5 5.19 13.5L11.3 13.5C12.39 13.5 13.25 12.8 13.25 12L13.25 4C13.25 3.19 12.39 2.5 11.3 2.5L5.19 2.5C4.1 2.5 3.25 3.19 3.25 4L3.25 5.5C3.25 5.77 3.02 6 2.75 6C2.47 6 2.25 5.77 2.25 5.5L2.25 4C2.25 2.59 3.58 1.5 5.19 1.5L11.3 1.5ZM8.78 5.12L11.58 7.62C11.8 7.82 11.8 8.17 11.58 8.37L8.78 10.87C8.57 11.05 8.26 11.03 8.07 10.83C7.89 10.62 7.91 10.31 8.11 10.12L9.93 8.5L2.25 8.5C1.97 8.5 1.75 8.27 1.75 8C1.75 7.72 1.97 7.5 2.25 7.5L9.93 7.5L8.11 5.87C7.93 5.7 7.9 5.44 8.02 5.23L8.07 5.16C8.26 4.96 8.57 4.94 8.78 5.12Z" fill="currentColor" fill-opacity="1.000000" fill-rule="nonzero"/>
	</g>
</svg>
