<svg width="16.000000" height="16.000000" viewBox="0 0 16 16" fill="none" xmlns="http://www.w3.org/2000/svg" xmlns:xlink="http://www.w3.org/1999/xlink">
	<desc>
			Created with Pixso.
	</desc>
	<defs>
		<clipPath id="clip2_149">
			<rect id="51#退出-logout1" width="16.000000" height="16.000000" fill="white" fill-opacity="0"/>
		</clipPath>
	</defs>
	<g clip-path="url(#clip2_149)">
		<path id="形状结合" d="M7.99 1.5C9.26 1.5 10.27 2.63 10.27 4L10.27 5.5C10.27 5.77 10.04 6 9.77 6C9.49 6 9.27 5.77 9.27 5.5L9.27 4C9.27 3.15 8.68 2.5 7.99 2.5L3.54 2.5C2.85 2.5 2.27 3.15 2.27 4L2.27 12C2.27 12.84 2.85 13.5 3.54 13.5L7.99 13.5C8.68 13.5 9.27 12.84 9.27 12L9.27 10.5C9.27 10.22 9.49 10 9.77 10C10.04 10 10.27 10.22 10.27 10.5L10.27 12C10.27 13.36 9.26 14.5 7.99 14.5L3.54 14.5C2.27 14.5 1.27 13.36 1.27 12L1.27 4C1.27 2.63 2.27 1.5 3.54 1.5L7.99 1.5ZM11.92 5.04L14.55 7.67C14.73 7.85 14.73 8.14 14.55 8.32L11.92 10.95C11.74 11.14 11.45 11.14 11.26 10.95C11.08 10.77 11.08 10.48 11.26 10.3L13.1 8.46L5.77 8.46C5.51 8.46 5.3 8.25 5.3 8C5.3 7.74 5.51 7.53 5.77 7.53L13.1 7.53L11.26 5.69C11.1 5.53 11.09 5.28 11.21 5.1C11.39 4.92 11.74 4.85 11.92 5.04Z" fill="currentColor" fill-opacity="1.000000" fill-rule="nonzero"/>
	</g>
</svg>
