<svg width="16.000000" height="16.000000" viewBox="0 0 16 16" fill="none" xmlns="http://www.w3.org/2000/svg" xmlns:xlink="http://www.w3.org/1999/xlink">
	<desc>
			Created with Pixso.
	</desc>
	<defs>
		<clipPath id="clip2_153">
			<rect id="52#离开-leave" width="16.000000" height="16.000000" fill="white" fill-opacity="0"/>
		</clipPath>
	</defs>
	<g clip-path="url(#clip2_153)">
		<path id="path" d="M11.09 7.99L11.36 9.19C11.42 9.39 11.3 9.61 11.1 9.67L10.99 9.69L9.81 9.69C9.59 9.69 9.41 9.51 9.41 9.29L9.7 7.99C9.3 7.61 9.28 6.98 9.67 6.58C10.06 6.18 10.68 6.16 11.08 6.55C11.28 6.74 11.4 7.02 11.39 7.3C11.39 7.56 11.28 7.81 11.09 7.99ZM5.99 7.67L4.74 6.46C4.52 6.27 4.2 6.29 4.01 6.51C3.86 6.7 3.84 6.98 3.99 7.17L4.34 7.52L1.52 7.52C1.24 7.52 1.02 7.74 1.02 8.02C1.02 8.3 1.24 8.52 1.52 8.52L4.38 8.52L3.99 8.87C3.8 9.06 3.8 9.38 3.99 9.57C4.08 9.67 4.21 9.72 4.35 9.72C4.48 9.72 4.61 9.66 4.7 9.57L5.99 8.37C6.17 8.18 6.17 7.86 5.99 7.67ZM14.53 3.25L14.53 12.73C14.53 13.41 14.06 14.01 13.4 14.18L9.4 15.18C9.28 15.21 9.15 15.23 9.03 15.23C8.5 15.23 8.02 14.95 7.76 14.49L3.99 14.49C3.18 14.51 2.51 13.86 2.49 13.05L2.49 10.48C2.49 10.2 2.71 9.98 2.99 9.98C3.27 9.98 3.49 10.2 3.49 10.48L3.49 12.99C3.47 13.25 3.67 13.47 3.93 13.49L7.49 13.49L7.49 2.49L3.99 2.49C3.74 2.47 3.51 2.65 3.49 2.91L3.49 5.48C3.49 5.76 3.27 5.98 2.99 5.98C2.71 5.98 2.49 5.76 2.49 5.48L2.49 2.99C2.48 2.18 3.12 1.52 3.93 1.51L7.7 1.51C7.79 1.34 7.92 1.19 8.07 1.07C8.43 0.79 8.9 0.69 9.35 0.8L13.35 1.8C14.02 1.97 14.5 2.56 14.53 3.25ZM13.53 3.25C13.53 3.02 13.38 2.81 13.15 2.77L9.15 1.77L8.99 1.77C8.88 1.77 8.77 1.8 8.68 1.87C8.56 1.97 8.49 2.11 8.49 2.26L8.49 13.73C8.49 14 8.71 14.22 8.98 14.22L9.11 14.22L13.11 13.22C13.34 13.18 13.5 12.97 13.49 12.74L13.53 3.25Z" fill="currentColor" fill-opacity="1.000000" fill-rule="nonzero"/>
	</g>
</svg>
