<svg width="16.000000" height="16.000000" viewBox="0 0 16 16" fill="none" xmlns="http://www.w3.org/2000/svg" xmlns:xlink="http://www.w3.org/1999/xlink">
	<desc>
			Created with Pixso.
	</desc>
	<defs>
		<clipPath id="clip2_116">
			<rect id="60#上传-upload" width="16.000000" height="16.000000" fill="white" fill-opacity="0"/>
		</clipPath>
	</defs>
	<g clip-path="url(#clip2_116)">
		<path id="形状结合" d="M14 10.5C14.27 10.5 14.5 10.72 14.5 11L14.5 12.28C14.5 13.5 13.5 14.5 12.28 14.5L3.71 14.5C2.49 14.5 1.5 13.5 1.5 12.28L1.5 11C1.5 10.72 1.72 10.5 2 10.5C2.27 10.5 2.5 10.72 2.5 11L2.5 12.28C2.5 12.95 3.04 13.5 3.71 13.5L12.28 13.5C12.95 13.5 13.5 12.95 13.5 12.28L13.5 11C13.5 10.72 13.72 10.5 14 10.5ZM7.64 2.14C7.84 1.95 8.15 1.95 8.35 2.14L11.18 4.97C11.37 5.17 11.37 5.48 11.18 5.68L11.11 5.73C10.91 5.87 10.64 5.85 10.47 5.68L8.54 3.75L8.54 12.03C8.54 12.28 8.35 12.49 8.11 12.52L8.04 12.53C7.76 12.53 7.54 12.3 7.54 12.03L7.54 3.66L5.52 5.68C5.34 5.85 5.06 5.87 4.87 5.73C4.67 5.53 4.62 5.17 4.81 4.97L7.64 2.14Z" fill="currentColor" fill-opacity="1.000000" fill-rule="nonzero"/>
	</g>
</svg>
