<svg width="16.000000" height="16.000000" viewBox="0 0 16 16" fill="none" xmlns="http://www.w3.org/2000/svg" xmlns:xlink="http://www.w3.org/1999/xlink">
	<desc>
			Created with Pixso.
	</desc>
	<defs>
		<clipPath id="clip2_161">
			<rect id="61#下载-download" width="16.000000" height="16.000000" fill="white" fill-opacity="0"/>
		</clipPath>
	</defs>
	<g clip-path="url(#clip2_161)">
		<path id="形状结合" d="M14 10.49C14.27 10.49 14.5 10.72 14.5 10.99L14.5 12.28C14.5 13.5 13.5 14.49 12.28 14.49L3.71 14.49C2.49 14.49 1.5 13.5 1.5 12.28L1.5 10.99C1.5 10.72 1.72 10.49 2 10.49C2.27 10.49 2.5 10.72 2.5 10.99L2.5 12.28C2.5 12.95 3.04 13.49 3.71 13.49L12.28 13.49C12.95 13.49 13.5 12.95 13.5 12.28L13.5 10.99C13.5 10.72 13.72 10.49 14 10.49ZM8.04 2.1C8.32 2.1 8.54 2.32 8.54 2.6L8.54 10.88L10.47 8.95C10.64 8.77 10.91 8.75 11.11 8.89L11.18 8.95C11.37 9.14 11.37 9.46 11.18 9.65L8.35 12.48C8.15 12.68 7.84 12.68 7.64 12.48L4.81 9.65C4.62 9.46 4.62 9.14 4.81 8.95C5.01 8.75 5.32 8.75 5.52 8.95L7.54 10.96L7.54 2.6C7.54 2.32 7.76 2.1 8.04 2.1Z" fill="currentColor" fill-opacity="1.000000" fill-rule="nonzero"/>
	</g>
</svg>
