<svg width="16.000000" height="16.000000" viewBox="0 0 16 16" fill="none" xmlns="http://www.w3.org/2000/svg" xmlns:xlink="http://www.w3.org/1999/xlink">
	<desc>
			Created with Pixso.
	</desc>
	<defs>
		<clipPath id="clip2_118">
			<rect id="62#上传下载-two-way-load" width="16.000000" height="16.000000" fill="white" fill-opacity="0"/>
		</clipPath>
	</defs>
	<g clip-path="url(#clip2_118)">
		<path id="形状结合" d="M14 10.49C14.27 10.49 14.5 10.72 14.5 10.99L14.5 12.28C14.5 13.5 13.5 14.49 12.28 14.49L3.71 14.49C2.49 14.49 1.5 13.5 1.5 12.28L1.5 10.99C1.5 10.72 1.72 10.49 2 10.49C2.27 10.49 2.5 10.72 2.5 10.99L2.5 12.28C2.5 12.95 3.04 13.49 3.71 13.49L12.28 13.49C12.95 13.49 13.5 12.95 13.5 12.28L13.5 10.99C13.5 10.72 13.72 10.49 14 10.49ZM9.35 1.99L9.44 2C9.67 2.04 9.85 2.25 9.85 2.49L9.85 9.79L10.58 9.06C10.78 8.87 11.09 8.87 11.29 9.06C11.48 9.26 11.48 9.57 11.29 9.77L9.7 11.35C9.39 11.66 8.85 11.44 8.85 10.99L8.85 2.49C8.85 2.22 9.07 1.99 9.35 1.99ZM6.29 2.14C6.6 1.83 7.14 2.05 7.14 2.49L7.14 10.99C7.14 11.27 6.92 11.49 6.64 11.49L6.55 11.49C6.32 11.44 6.14 11.24 6.14 10.99L6.14 3.7L5.41 4.43C5.21 4.62 4.9 4.62 4.7 4.43C4.51 4.23 4.51 3.91 4.7 3.72L6.29 2.14Z" fill="currentColor" fill-opacity="1.000000" fill-rule="nonzero"/>
	</g>
</svg>
