<svg width="16.000000" height="16.000000" viewBox="0 0 16 16" fill="none" xmlns="http://www.w3.org/2000/svg" xmlns:xlink="http://www.w3.org/1999/xlink">
	<desc>
			Created with Pixso.
	</desc>
	<defs>
		<clipPath id="clip2_173">
			<rect id="63#上传到云-upload-cloud" width="16.000000" height="16.000000" fill="white" fill-opacity="0"/>
		</clipPath>
	</defs>
	<g clip-path="url(#clip2_173)">
		<path id="形状结合" d="M8.41 7.02L9.94 8.95C10.12 9.16 10.08 9.48 9.86 9.65C9.65 9.82 9.33 9.79 9.16 9.57L8.49 8.73L8.49 13.5C8.49 13.78 8.27 14 7.99 14C7.72 14 7.49 13.78 7.49 13.5L7.49 8.75L6.82 9.58C6.67 9.76 6.4 9.81 6.19 9.7L6.12 9.64C5.91 9.47 5.87 9.15 6.05 8.94L7.63 7.02C7.83 6.77 8.21 6.77 8.41 7.02ZM7.99 1.92C9.99 1.92 11.68 3.28 12.22 5.18L12.28 5.39L12.45 5.41C13.96 5.67 15.13 6.97 15.21 8.56L15.21 8.74C15.21 10.6 13.74 12.12 11.91 12.12C11.28 12.12 10.68 11.94 10.16 11.6C9.93 11.45 9.86 11.14 10.01 10.9C10.17 10.67 10.48 10.61 10.71 10.76C11.07 10.99 11.48 11.12 11.91 11.12C13.18 11.12 14.21 10.06 14.21 8.74C14.21 7.48 13.27 6.46 12.07 6.38L11.93 6.37L11.86 6.37C11.61 6.37 11.4 6.19 11.36 5.94C11.12 4.21 9.69 2.92 7.99 2.92C6.3 2.92 4.87 4.21 4.63 5.94C4.59 6.19 4.38 6.37 4.13 6.37L4.05 6.37L3.92 6.38C2.77 6.45 1.86 7.4 1.78 8.58L1.77 8.74C1.77 10.06 2.81 11.12 4.07 11.12C4.44 11.12 4.8 11.03 5.12 10.86C5.36 10.73 5.66 10.82 5.79 11.06C5.92 11.3 5.83 11.61 5.59 11.74C5.13 11.99 4.61 12.12 4.07 12.12C2.25 12.12 0.77 10.6 0.77 8.74C0.77 7.07 1.97 5.68 3.54 5.41L3.71 5.39C4.17 3.45 5.81 2.02 7.78 1.92L7.99 1.92Z" fill="currentColor" fill-opacity="1.000000" fill-rule="nonzero"/>
	</g>
</svg>
