<svg width="16.000000" height="16.000000" viewBox="0 0 16 16" fill="none" xmlns="http://www.w3.org/2000/svg" xmlns:xlink="http://www.w3.org/1999/xlink">
	<desc>
			Created with Pixso.
	</desc>
	<defs>
		<clipPath id="clip2_104">
			<rect id="64#选中-choose" width="16.000000" height="16.000000" fill="white" fill-opacity="0"/>
		</clipPath>
	</defs>
	<g clip-path="url(#clip2_104)">
		<path id="形状结合" d="M8 1.5C8.27 1.5 8.5 1.72 8.5 2C8.5 2.27 8.27 2.5 8 2.5L4.18 2.5C3.25 2.5 2.5 3.25 2.5 4.18L2.5 11.81C2.5 12.74 3.25 13.5 4.18 13.5L11.81 13.5C12.74 13.5 13.5 12.74 13.5 11.81L13.5 8C13.5 7.72 13.72 7.5 14 7.5C14.27 7.5 14.5 7.72 14.5 8L14.5 11.81C14.5 13.29 13.29 14.5 11.81 14.5L4.18 14.5C2.7 14.5 1.5 13.29 1.5 11.81L1.5 4.18C1.5 2.7 2.7 1.5 4.18 1.5L8 1.5ZM14.01 3.08L14.08 3.14C14.28 3.33 14.3 3.64 14.11 3.85L8.5 9.85C8.32 10.06 8 10.07 7.8 9.88L4.56 6.86C4.36 6.67 4.35 6.35 4.53 6.15C4.72 5.95 5.04 5.94 5.24 6.13L8.11 8.81L13.38 3.16C13.54 2.98 13.81 2.96 14.01 3.08Z" fill="currentColor" fill-opacity="1.000000" fill-rule="nonzero"/>
	</g>
</svg>
