<svg width="16.000000" height="16.000000" viewBox="0 0 16 16" fill="none" xmlns="http://www.w3.org/2000/svg" xmlns:xlink="http://www.w3.org/1999/xlink">
	<desc>
			Created with Pixso.
	</desc>
	<defs>
		<clipPath id="clip2_63">
			<rect id="66#剪切|剪刀-cut" width="16.000000" height="16.000000" fill="white" fill-opacity="0"/>
		</clipPath>
	</defs>
	<g clip-path="url(#clip2_63)">
		<path id="形状结合" d="M4.5 1.5C6.15 1.5 7.5 2.84 7.5 4.5C7.5 5.14 7.29 5.74 6.94 6.23L8 7.29L13.05 2.23C13.23 2.06 13.5 2.04 13.7 2.19C13.9 2.38 13.95 2.75 13.76 2.94L6.94 9.76C7.29 10.25 7.5 10.85 7.5 11.5C7.5 13.15 6.15 14.5 4.5 14.5C2.84 14.5 1.5 13.15 1.5 11.5C1.5 9.84 2.84 8.5 4.5 8.5C5.14 8.5 5.74 8.7 6.23 9.05L7.29 8L6.23 6.94C5.78 7.26 5.23 7.46 4.64 7.49L4.5 7.5C2.84 7.5 1.5 6.15 1.5 4.5C1.5 2.84 2.84 1.5 4.5 1.5ZM9.75 9.04L13.81 13.1C14 13.29 14 13.61 13.81 13.81C13.61 14 13.29 14 13.1 13.81L9.04 9.75C8.85 9.56 8.85 9.24 9.04 9.04C9.24 8.85 9.56 8.85 9.75 9.04ZM4.5 9.5C3.39 9.5 2.5 10.39 2.5 11.5C2.5 12.6 3.39 13.5 4.5 13.5C5.6 13.5 6.5 12.6 6.5 11.5C6.5 11 6.31 10.54 6.01 10.19C5.97 10.17 5.93 10.14 5.89 10.1C5.85 10.06 5.82 10.02 5.8 9.98C5.45 9.68 4.99 9.5 4.5 9.5ZM4.5 2.5C3.39 2.5 2.5 3.39 2.5 4.5C2.5 5.6 3.39 6.5 4.5 6.5C5.6 6.5 6.5 5.6 6.5 4.5C6.5 3.39 5.6 2.5 4.5 2.5Z" fill="currentColor" fill-opacity="1.000000" fill-rule="nonzero"/>
	</g>
</svg>
