<svg width="16.000000" height="16.000000" viewBox="0 0 16 16" fill="none" xmlns="http://www.w3.org/2000/svg" xmlns:xlink="http://www.w3.org/1999/xlink">
	<desc>
			Created with Pixso.
	</desc>
	<defs>
		<clipPath id="clip2_210">
			<rect id="70#关机-shutdown" width="16.000000" height="16.000000" fill="white" fill-opacity="0"/>
		</clipPath>
	</defs>
	<g clip-path="url(#clip2_210)">
		<path id="形状结合" d="M6.18 3C6.29 3.25 6.18 3.55 5.92 3.66C4.06 4.48 2.83 6.32 2.83 8.39C2.83 11.24 5.14 13.56 8 13.56C10.85 13.56 13.16 11.24 13.16 8.39C13.16 6.34 11.95 4.5 10.11 3.68C9.86 3.56 9.74 3.27 9.86 3.02C9.97 2.76 10.27 2.65 10.52 2.76C12.72 3.75 14.16 5.94 14.16 8.39C14.16 11.8 11.4 14.56 8 14.56C4.59 14.56 1.83 11.8 1.83 8.39C1.83 5.92 3.3 3.72 5.52 2.74C5.78 2.63 6.07 2.75 6.18 3ZM8 1.43C8.27 1.43 8.5 1.66 8.5 1.93L8.5 5.9C8.5 6.17 8.27 6.4 8 6.4C7.72 6.4 7.5 6.17 7.5 5.9L7.5 1.93C7.5 1.66 7.72 1.43 8 1.43Z" fill="currentColor" fill-opacity="1.000000" fill-rule="nonzero"/>
	</g>
</svg>
