<svg width="16.000000" height="16.000000" viewBox="0 0 16 16" fill="none" xmlns="http://www.w3.org/2000/svg" xmlns:xlink="http://www.w3.org/1999/xlink">
	<desc>
			Created with Pixso.
	</desc>
	<defs>
		<clipPath id="clip2_46">
			<rect id="71#关机-shutdown1" width="16.000000" height="16.000000" fill="white" fill-opacity="0"/>
		</clipPath>
	</defs>
	<g clip-path="url(#clip2_46)">
		<path id="形状结合" d="M8 1C11.86 1 15 4.13 15 8C15 11.86 11.86 15 8 15C4.13 15 1 11.86 1 8C1 4.13 4.13 1 8 1ZM8 2C4.68 2 2 4.68 2 8C2 11.31 4.68 14 8 14C11.31 14 14 11.31 14 8C14 4.68 11.31 2 8 2ZM8 5.5C8.27 5.5 8.5 5.72 8.5 6L8.5 10C8.5 10.27 8.27 10.5 8 10.5C7.72 10.5 7.5 10.27 7.5 10L7.5 6C7.5 5.72 7.72 5.5 8 5.5Z" fill="currentColor" fill-opacity="1.000000" fill-rule="nonzero"/>
	</g>
</svg>
