<svg width="16.000000" height="16.000000" viewBox="0 0 16 16" fill="none" xmlns="http://www.w3.org/2000/svg" xmlns:xlink="http://www.w3.org/1999/xlink">
	<desc>
			Created with Pixso.
	</desc>
	<defs>
		<clipPath id="clip2_205">
			<rect id="72#重启-restart" width="16.000000" height="16.000000" fill="white" fill-opacity="0"/>
		</clipPath>
	</defs>
	<g clip-path="url(#clip2_205)">
		<path id="形状结合" d="M13.89 4.6C14.48 5.63 14.79 6.79 14.79 7.99C14.79 11.75 11.75 14.79 7.99 14.79C6.86 14.79 5.77 14.52 4.79 13.99L4.95 14.74C5 15.01 4.83 15.28 4.56 15.33C4.29 15.39 4.03 15.22 3.97 14.95L3.56 12.98C3.5 12.73 3.65 12.48 3.89 12.4L5.8 11.77C6.07 11.68 6.35 11.83 6.43 12.09L6.45 12.18C6.49 12.41 6.35 12.64 6.11 12.72L5.13 13.04L5.33 13.15C6.15 13.57 7.05 13.79 7.99 13.79C11.2 13.79 13.79 11.2 13.79 7.99C13.79 6.96 13.53 5.97 13.02 5.1C12.88 4.86 12.97 4.56 13.21 4.42C13.45 4.28 13.75 4.36 13.89 4.6ZM12.08 1.04L12.5 3.01C12.55 3.26 12.41 3.51 12.16 3.59L10.25 4.22C9.99 4.3 9.71 4.16 9.62 3.9C9.53 3.64 9.68 3.35 9.94 3.27L10.88 2.96L10.72 2.88C9.89 2.43 8.96 2.19 7.99 2.19C4.79 2.19 2.19 4.79 2.19 7.99C2.19 9.03 2.47 10.03 2.98 10.91C3.12 11.15 3.04 11.45 2.8 11.59C2.56 11.73 2.25 11.65 2.11 11.41C1.51 10.38 1.19 9.21 1.19 7.99C1.19 4.24 4.24 1.19 7.99 1.19C9.16 1.19 10.28 1.49 11.27 2.04L11.11 1.25C11.06 1.01 11.19 0.77 11.41 0.68L11.49 0.66C11.76 0.6 12.03 0.77 12.08 1.04ZM7.99 6.99C8.55 6.99 8.99 7.44 8.99 7.99C8.99 8.55 8.55 8.99 7.99 8.99C7.44 8.99 6.99 8.55 6.99 7.99C6.99 7.44 7.44 6.99 7.99 6.99Z" fill="currentColor" fill-opacity="1.000000" fill-rule="evenodd"/>
	</g>
</svg>
