<svg width="16.000000" height="16.000000" viewBox="0 0 16 16" fill="none" xmlns="http://www.w3.org/2000/svg" xmlns:xlink="http://www.w3.org/1999/xlink">
	<desc>
			Created with Pixso.
	</desc>
	<defs>
		<clipPath id="clip2_206">
			<rect id="73#重试-retry" width="16.000000" height="16.000000" fill="white" fill-opacity="0"/>
		</clipPath>
	</defs>
	<g clip-path="url(#clip2_206)">
		<path id="形状结合" d="M14.38 7.93C14.65 7.95 14.87 8.18 14.85 8.46C14.72 11.15 12.97 13.52 10.38 14.42C7.08 15.56 3.5 13.95 2.14 10.8L1.64 12.66C1.57 12.9 1.35 13.05 1.11 13.03L1.03 13.02C0.76 12.94 0.6 12.67 0.67 12.4L1.53 9.22C1.6 8.96 1.88 8.8 2.14 8.87L5.33 9.72C5.59 9.79 5.75 10.06 5.68 10.33C5.61 10.6 5.34 10.75 5.07 10.68L2.95 10.12C4.01 12.95 7.16 14.47 10.05 13.47C12.25 12.71 13.74 10.69 13.85 8.41C13.87 8.13 14.1 7.92 14.38 7.93ZM13.99 5.18L14.49 3.31C14.55 3.07 14.78 2.92 15.01 2.94L15.1 2.96C15.37 3.03 15.53 3.3 15.45 3.57L14.6 6.75C14.53 7.02 14.25 7.17 13.99 7.1L10.8 6.26C10.54 6.18 10.38 5.91 10.45 5.64C10.52 5.38 10.79 5.22 11.06 5.29L13.18 5.85C12.11 3.02 8.96 1.5 6.08 2.5C3.88 3.26 2.39 5.28 2.27 7.56C2.26 7.84 2.02 8.05 1.75 8.04C1.47 8.03 1.26 7.79 1.27 7.52C1.41 4.83 3.16 2.45 5.75 1.55C9.05 0.41 12.63 2.02 13.99 5.18Z" fill="currentColor" fill-opacity="1.000000" fill-rule="nonzero"/>
	</g>
</svg>
