<svg width="16.000000" height="16.000000" viewBox="0 0 16 16" fill="none" xmlns="http://www.w3.org/2000/svg" xmlns:xlink="http://www.w3.org/1999/xlink">
	<desc>
			Created with Pixso.
	</desc>
	<defs>
		<clipPath id="clip2_133">
			<rect id="74#刷新-refresh" width="16.000000" height="16.000000" fill="white" fill-opacity="0"/>
		</clipPath>
	</defs>
	<g clip-path="url(#clip2_133)">
		<path id="形状结合" d="M11.8 2.75C14.55 4.73 15.27 8.46 13.54 11.3L15.24 10.84C15.47 10.78 15.7 10.9 15.8 11.1L15.83 11.18C15.9 11.44 15.75 11.7 15.49 11.77L12.6 12.54C12.34 12.61 12.08 12.46 12.01 12.2L11.23 9.31C11.16 9.05 11.31 8.79 11.57 8.72C11.82 8.65 12.09 8.8 12.16 9.06L12.65 10.91C14.21 8.49 13.62 5.24 11.24 3.52C8.77 1.74 5.32 2.28 3.53 4.73C1.74 7.18 2.29 10.61 4.76 12.39C6.42 13.59 8.28 13.84 10.39 13.16C10.64 13.08 10.91 13.21 10.99 13.47C11.08 13.72 10.94 13.99 10.69 14.07C8.29 14.85 6.11 14.55 4.2 13.17C1.3 11.07 0.65 7.04 2.76 4.17C4.86 1.29 8.91 0.66 11.8 2.75Z" fill="currentColor" fill-opacity="1.000000" fill-rule="nonzero"/>
	</g>
</svg>
