<svg width="16.000000" height="16.000000" viewBox="0 0 16 16" fill="none" xmlns="http://www.w3.org/2000/svg" xmlns:xlink="http://www.w3.org/1999/xlink">
	<desc>
			Created with Pixso.
	</desc>
	<defs>
		<clipPath id="clip2_207">
			<rect id="75#重置密码-reset-pwd" width="16.000000" height="16.000000" fill="white" fill-opacity="0"/>
		</clipPath>
	</defs>
	<g clip-path="url(#clip2_207)">
		<path id="形状" d="M14.89 8.39C14.89 12.19 11.79 15.29 7.99 15.29C4.19 15.29 1.09 12.19 1.09 8.39C1.09 4.59 4.19 1.49 7.99 1.49C9.29 1.49 10.49 1.89 11.59 2.59L11.29 1.39C11.19 1.09 11.39 0.89 11.69 0.79C11.99 0.69 12.19 0.89 12.29 1.19L12.99 3.59C13.09 3.89 12.89 4.09 12.59 4.19L10.09 4.89L9.99 4.89C9.79 4.89 9.59 4.79 9.49 4.49C9.39 4.29 9.49 3.99 9.79 3.89L11.29 3.49C10.29 2.79 9.19 2.49 7.99 2.49C4.69 2.49 2.09 5.09 2.09 8.39C2.09 11.69 4.69 14.29 7.99 14.29C11.29 14.29 13.89 11.69 13.89 8.39C13.89 7.89 13.79 7.39 13.69 6.99C13.59 6.69 13.79 6.49 14.09 6.39C14.39 6.29 14.59 6.49 14.69 6.79C14.79 7.19 14.89 7.79 14.89 8.39ZM9.59 5.89L9.59 7.09C10.49 7.29 11.19 8.09 11.19 9.09L11.19 10.09C11.19 11.29 10.29 12.19 9.09 12.19L6.69 12.19C5.49 12.19 4.59 11.29 4.59 10.09L4.59 9.09C4.59 8.09 5.29 7.29 6.19 7.09L6.19 5.89C6.19 4.99 6.99 4.19 7.89 4.19C8.89 4.19 9.59 4.99 9.59 5.89ZM7.19 6.99L8.59 6.99L8.59 5.89C8.59 5.49 8.29 5.19 7.89 5.19C7.49 5.19 7.19 5.49 7.19 5.89L7.19 6.99ZM9.09 7.99L6.69 7.99C6.09 7.99 5.59 8.49 5.59 9.09L5.59 10.09C5.59 10.69 6.09 11.19 6.69 11.19L9.09 11.19C9.69 11.19 10.19 10.69 10.19 10.09L10.19 9.09C10.19 8.49 9.69 7.99 9.09 7.99Z" fill="currentColor" fill-opacity="1.000000" fill-rule="nonzero"/>
	</g>
</svg>
