<svg width="16.000000" height="16.000000" viewBox="0 0 16 16" fill="none" xmlns="http://www.w3.org/2000/svg" xmlns:xlink="http://www.w3.org/1999/xlink">
	<desc>
			Created with Pixso.
	</desc>
	<defs>
		<clipPath id="clip2_187">
			<rect id="76#暂停刷新-pause-refresh" width="16.000000" height="16.000000" fill="white" fill-opacity="0"/>
		</clipPath>
	</defs>
	<g clip-path="url(#clip2_187)">
		<path id="形状结合" d="M11.82 2.73C14.46 4.64 15.24 8.17 13.76 10.96L14.91 10.66C15.14 10.6 15.37 10.71 15.47 10.92L15.5 11C15.56 11.25 15.41 11.52 15.16 11.59L12.74 12.23C12.49 12.3 12.23 12.14 12.16 11.89L11.51 9.48C11.44 9.22 11.59 8.96 11.85 8.89C12.1 8.82 12.36 8.97 12.43 9.23L12.81 10.61C14.14 8.24 13.51 5.19 11.23 3.54C8.77 1.77 5.33 2.3 3.55 4.74C1.77 7.18 2.31 10.6 4.77 12.37C6.43 13.57 8.28 13.82 10.38 13.14C10.65 13.05 10.93 13.2 11.01 13.46C11.1 13.72 10.96 14.01 10.69 14.09C8.29 14.87 6.1 14.57 4.18 13.18C1.28 11.08 0.63 7.04 2.74 4.15C4.85 1.27 8.91 0.63 11.82 2.73ZM6.75 5.74C7.02 5.74 7.25 5.97 7.25 6.24L7.25 9.74C7.25 10.02 7.02 10.24 6.75 10.24C6.47 10.24 6.25 10.02 6.25 9.74L6.25 6.24C6.25 5.97 6.47 5.74 6.75 5.74ZM9.25 5.74C9.52 5.74 9.75 5.97 9.75 6.24L9.75 9.74C9.75 10.02 9.52 10.24 9.25 10.24C8.97 10.24 8.75 10.02 8.75 9.74L8.75 6.24C8.75 5.97 8.97 5.74 9.25 5.74Z" fill="currentColor" fill-opacity="1.000000" fill-rule="nonzero"/>
	</g>
</svg>
