<svg width="16.000000" height="16.000000" viewBox="0 0 16 16" fill="none" xmlns="http://www.w3.org/2000/svg" xmlns:xlink="http://www.w3.org/1999/xlink">
	<desc>
			Created with Pixso.
	</desc>
	<defs>
		<clipPath id="clip2_91">
			<rect id="77#屏蔽设置|禁止配置-no-setting" width="16.000000" height="16.000000" fill="white" fill-opacity="0"/>
		</clipPath>
	</defs>
	<g clip-path="url(#clip2_91)">
		<path id="形状结合" d="M8 1C11.86 1 15 4.13 15 8C15 8.27 14.77 8.5 14.5 8.5C14.22 8.5 14 8.27 14 8C14 6.52 13.46 5.17 12.58 4.12L4.12 12.58C5.17 13.46 6.52 14 8 14C8.27 14 8.5 14.22 8.5 14.5C8.5 14.77 8.27 15 8 15C4.13 15 1 11.86 1 8C1 4.13 4.13 1 8 1ZM12.57 9.33C12.71 9.33 12.85 9.4 12.93 9.52L12.97 9.6L13.18 10.08L13.4 10.21L13.92 10.14C14.06 10.13 14.2 10.18 14.3 10.28L14.36 10.36L14.74 11.01C14.81 11.14 14.81 11.3 14.75 11.43L14.71 11.5L14.39 11.92L14.39 12.17L14.71 12.59C14.79 12.71 14.82 12.86 14.78 12.99L14.74 13.07L14.36 13.73C14.29 13.86 14.15 13.94 14.01 13.95L13.92 13.95L13.4 13.89L13.18 14.01L12.97 14.5C12.92 14.63 12.8 14.72 12.67 14.76L12.57 14.77L11.81 14.77C11.66 14.77 11.53 14.69 11.45 14.57L11.41 14.5L11.2 14.01L10.98 13.89L10.45 13.95C10.31 13.97 10.17 13.92 10.08 13.81L9.64 13.08C9.57 12.95 9.56 12.8 9.63 12.67L9.67 12.59L9.99 12.17L9.99 11.92L9.67 11.5C9.59 11.39 9.56 11.24 9.6 11.11L9.63 11.03L10.02 10.36C10.09 10.23 10.22 10.15 10.37 10.14L10.45 10.14L10.98 10.21L11.2 10.08L11.41 9.6C11.46 9.47 11.58 9.37 11.71 9.34L11.8 9.33L12.57 9.33ZM12.27 10.23L12.11 10.23L12.02 10.44C11.96 10.58 11.87 10.7 11.74 10.8L11.65 10.86L11.43 10.99C11.26 11.08 11.07 11.12 10.87 11.1L10.65 11.07L10.57 11.2L10.71 11.38C10.8 11.51 10.86 11.65 10.88 11.81L10.89 11.92L10.89 12.17C10.89 12.37 10.83 12.56 10.71 12.71L10.57 12.89L10.65 13.02L10.87 12.99C11.03 12.97 11.18 13 11.33 13.06L11.43 13.11L11.65 13.23C11.82 13.33 11.95 13.48 12.02 13.66L12.11 13.87L12.26 13.87L12.35 13.66C12.41 13.51 12.51 13.39 12.63 13.3L12.73 13.23L12.95 13.11C13.11 13.01 13.31 12.97 13.5 12.99L13.73 13.02L13.8 12.89L13.67 12.71C13.57 12.59 13.52 12.44 13.5 12.29L13.49 12.17L13.49 11.92C13.49 11.73 13.55 11.54 13.67 11.38L13.81 11.2L13.73 11.07L13.5 11.1C13.35 11.12 13.19 11.1 13.05 11.04L12.95 10.99L12.73 10.86C12.56 10.77 12.43 10.62 12.35 10.44L12.27 10.23ZM12.19 11.32C12.59 11.32 12.91 11.65 12.91 12.05C12.91 12.45 12.59 12.77 12.19 12.77C11.79 12.77 11.47 12.45 11.47 12.05C11.47 11.65 11.79 11.32 12.19 11.32ZM8 2C4.68 2 2 4.68 2 8C2 9.47 2.53 10.82 3.41 11.87L11.87 3.41C10.82 2.53 9.47 2 8 2Z" fill="currentColor" fill-opacity="1.000000" fill-rule="nonzero"/>
	</g>
</svg>
