<svg width="16.000000" height="16.000000" viewBox="0 0 16 16" fill="none" xmlns="http://www.w3.org/2000/svg" xmlns:xlink="http://www.w3.org/1999/xlink">
	<desc>
			Created with Pixso.
	</desc>
	<defs>
		<clipPath id="clip2_137">
			<rect id="79#锁-lock-ring" width="16.000000" height="16.000000" fill="white" fill-opacity="0"/>
		</clipPath>
	</defs>
	<g clip-path="url(#clip2_137)">
		<path id="形状结合" d="M8 1C11.86 1 15 4.13 15 8C15 11.86 11.86 15 8 15C4.13 15 1 11.86 1 8C1 4.13 4.13 1 8 1ZM8 2C4.68 2 2 4.68 2 8C2 11.31 4.68 14 8 14C11.31 14 14 11.31 14 8C14 4.68 11.31 2 8 2ZM8 4.38C9.18 4.38 10.15 5.34 10.15 6.53L10.15 6.72C10.7 6.95 11.1 7.5 11.1 8.14L11.1 10.08C11.1 10.93 10.41 11.62 9.56 11.62L6.44 11.62C5.58 11.62 4.89 10.93 4.89 10.08L4.89 8.14C4.89 7.5 5.29 6.95 5.84 6.72L5.84 6.53C5.84 5.34 6.81 4.38 8 4.38ZM9.56 7.6L6.44 7.6C6.14 7.6 5.89 7.85 5.89 8.14L5.89 10.08C5.89 10.37 6.14 10.62 6.44 10.62L9.56 10.62C9.85 10.62 10.1 10.37 10.1 10.08L10.1 8.14C10.1 7.85 9.85 7.6 9.56 7.6ZM8 5.38C7.36 5.38 6.84 5.89 6.84 6.53L6.84 6.6L9.15 6.6L9.15 6.53C9.15 5.89 8.63 5.38 8 5.38Z" fill="currentColor" fill-opacity="1.000000" fill-rule="nonzero"/>
	</g>
</svg>
