<svg width="16.000000" height="16.000000" viewBox="0 0 16 16" fill="none" xmlns="http://www.w3.org/2000/svg" xmlns:xlink="http://www.w3.org/1999/xlink">
	<desc>
			Created with Pixso.
	</desc>
	<defs>
		<clipPath id="clip2_162">
			<rect id="82#边界|规则-border" width="16.000000" height="16.000000" fill="white" fill-opacity="0"/>
		</clipPath>
	</defs>
	<g clip-path="url(#clip2_162)">
		<path id="路径" d="M14.5 12L14.5 9C14.5 8.17 13.82 7.5 13 7.5L9.1 7.5C8.82 7.5 8.6 7.27 8.6 7L8.6 3C8.6 2.17 7.93 1.5 7.1 1.5L4 1.5C2.61 1.5 1.5 2.61 1.5 4L1.5 12C1.5 13.38 2.61 14.5 4 14.5L12 14.5C13.38 14.5 14.5 13.38 14.5 12ZM13.5 12C13.5 12.82 12.82 13.5 12 13.5L4 13.5C3.17 13.5 2.5 12.82 2.5 12L2.5 4C2.5 3.17 3.17 2.5 4 2.5L7.1 2.5C7.38 2.5 7.6 2.72 7.6 3L7.6 7C7.6 7.82 8.27 8.5 9.1 8.5L13 8.5C13.27 8.5 13.5 8.72 13.5 9L13.5 12Z" fill="currentColor" fill-opacity="1.000000" fill-rule="nonzero"/>
	</g>
</svg>
