<svg width="16.000000" height="16.000000" viewBox="0 0 16 16" fill="none" xmlns="http://www.w3.org/2000/svg" xmlns:xlink="http://www.w3.org/1999/xlink">
	<desc>
			Created with Pixso.
	</desc>
	<defs>
		<clipPath id="clip2_181">
			<rect id="83#隐藏边界|规则-dash-border" width="16.000000" height="16.000000" fill="white" fill-opacity="0"/>
		</clipPath>
	</defs>
	<g clip-path="url(#clip2_181)">
		<path id="路径" d="M13.79 13.73C13.6 13.93 13.28 13.94 13.08 13.74C12.89 13.55 12.88 13.24 13.07 13.04C13.34 12.76 13.5 12.39 13.5 12C13.5 11.72 13.72 11.5 14 11.5C14.27 11.5 14.5 11.72 14.5 12C14.5 12.65 14.24 13.27 13.79 13.73ZM10.06 14.5C9.78 14.5 9.56 14.27 9.56 14C9.56 13.72 9.78 13.5 10.06 13.5L11.56 13.5C11.83 13.5 12.06 13.72 12.06 14C12.06 14.27 11.83 14.5 11.56 14.5L10.06 14.5ZM6.56 14.5C6.28 14.5 6.06 14.27 6.06 14C6.06 13.72 6.28 13.5 6.56 13.5L8.06 13.5C8.33 13.5 8.56 13.72 8.56 14C8.56 14.27 8.33 14.5 8.06 14.5L6.56 14.5ZM2.85 14.22C2.61 14.09 2.51 13.79 2.64 13.55C2.76 13.3 3.07 13.2 3.31 13.33C3.52 13.44 3.75 13.5 4 13.5L4.56 13.5C4.83 13.5 5.06 13.72 5.06 14C5.06 14.27 4.83 14.5 4.56 14.5L4 14.5C3.59 14.5 3.2 14.4 2.85 14.22ZM1.5 10.62C1.5 10.34 1.72 10.12 1.99 10.12C2.27 10.12 2.49 10.34 2.5 10.62L2.5 12C2.5 12.03 2.5 12.06 2.5 12.09C2.52 12.37 2.31 12.61 2.03 12.63C1.76 12.64 1.52 12.44 1.5 12.16L1.5 12.08L1.5 10.62ZM1.5 7.12C1.5 6.84 1.72 6.62 2 6.62C2.27 6.62 2.5 6.84 2.5 7.12L2.5 8.62C2.5 8.89 2.27 9.12 2 9.12C1.72 9.12 1.5 8.89 1.5 8.62L1.5 7.12ZM1.54 3.53C1.59 3.25 1.85 3.08 2.12 3.13C2.39 3.18 2.57 3.44 2.52 3.71C2.5 3.81 2.5 3.9 2.5 4L2.5 5.12C2.5 5.39 2.27 5.62 2 5.62C1.72 5.62 1.5 5.39 1.5 5.12L1.5 4C1.5 3.84 1.51 3.68 1.54 3.53ZM4.81 1.5C5.09 1.5 5.31 1.72 5.31 2C5.31 2.27 5.09 2.5 4.81 2.5L4 2.5C3.84 2.5 3.7 2.52 3.55 2.56C3.29 2.64 3.01 2.49 2.93 2.23C2.85 1.97 3 1.69 3.26 1.6C3.5 1.53 3.74 1.5 4 1.5L4.81 1.5ZM8.55 2.59C8.62 2.86 8.46 3.13 8.2 3.21C7.96 3.27 7.72 3.16 7.61 2.94L7.58 2.86C7.52 2.65 7.33 2.5 7.1 2.5L6.81 2.5C6.53 2.5 6.31 2.27 6.31 2C6.31 1.72 6.53 1.5 6.81 1.5L7.1 1.5C7.78 1.5 8.37 1.95 8.55 2.59ZM8.6 6.29C8.6 6.57 8.38 6.79 8.1 6.79C7.82 6.79 7.6 6.57 7.6 6.29L7.6 4.79C7.6 4.51 7.82 4.29 8.1 4.29C8.38 4.29 8.6 4.51 8.6 4.79L8.6 6.29ZM10.48 7.5C10.76 7.5 10.98 7.72 10.98 8C10.98 8.27 10.76 8.5 10.48 8.5L9.04 8.49C8.98 8.49 8.92 8.49 8.86 8.48C8.59 8.43 8.4 8.17 8.45 7.9C8.49 7.63 8.75 7.44 9.02 7.49L10.48 7.5ZM14.28 8.23C14.42 8.46 14.35 8.77 14.11 8.91C13.9 9.04 13.63 8.99 13.48 8.81L13.42 8.74C13.33 8.59 13.17 8.5 13 8.5L12.48 8.5C12.21 8.5 11.98 8.27 11.98 8C11.98 7.72 12.21 7.5 12.48 7.5L13 7.5C13.53 7.5 14.01 7.78 14.28 8.23ZM14.5 12C14.5 12.27 14.27 12.5 14 12.5C13.72 12.5 13.5 12.27 13.5 12L13.5 10.57C13.5 10.29 13.72 10.07 14 10.07C14.27 10.07 14.5 10.29 14.5 10.57L14.5 12Z" fill="currentColor" fill-opacity="1.000000" fill-rule="nonzero"/>
	</g>
</svg>
