<svg width="16.000000" height="16.000000" viewBox="0 0 16 16" fill="none" xmlns="http://www.w3.org/2000/svg" xmlns:xlink="http://www.w3.org/1999/xlink">
	<desc>
			Created with Pixso.
	</desc>
	<defs>
		<clipPath id="clip4_529">
			<rect id="9#收藏|星星|评分-star" width="16.000000" height="16.000000" fill="white" fill-opacity="0"/>
		</clipPath>
	</defs>
	<g clip-path="url(#clip4_529)">
		<path id="路径" d="M8.48 1.1C8.78 1.23 9.02 1.48 9.15 1.79L10.41 4.96C10.44 5.03 10.5 5.08 10.57 5.09L13.85 5.36C14.54 5.42 15.05 6.04 14.99 6.75C14.97 7.09 14.81 7.4 14.56 7.62L12.07 9.86C12.01 9.91 11.98 9.99 12 10.07L12.76 13.41C12.92 14.1 12.51 14.79 11.84 14.96C11.52 15.04 11.18 14.98 10.9 14.8L8.09 13.02C8.03 12.98 7.96 12.98 7.9 13.02L5.09 14.8C4.5 15.18 3.73 14.98 3.37 14.37C3.2 14.08 3.15 13.74 3.23 13.41L3.99 10.07C4.01 9.99 3.98 9.91 3.92 9.85L1.43 7.62C0.91 7.16 0.85 6.35 1.29 5.81C1.5 5.55 1.81 5.39 2.14 5.36L5.42 5.09C5.49 5.08 5.55 5.03 5.58 4.96L6.84 1.79C7.11 1.13 7.84 0.82 8.48 1.1Z" fill="currentColor" fill-opacity="1.000000" fill-rule="nonzero"/>
	</g>
</svg>
