<svg width="72.000000" height="72.000000" viewBox="0 0 72 72" fill="none" xmlns="http://www.w3.org/2000/svg" xmlns:xlink="http://www.w3.org/1999/xlink">
	<desc>
			Created with Pixso.
	</desc>
	<defs>
		<clipPath id="clip117_278">
			<rect id="1#华为云Stack-cloudstack" width="72.000000" height="72.000000" fill="white" fill-opacity="0"/>
		</clipPath>
	</defs>
	<g clip-path="url(#clip117_278)">
		<path id="矩形备份-19" d="M16 0L56 0C64.8 0 72 7.2 72 16L72 56C72 64.79 64.8 72 56 72L16 72C7.19 72 0 64.79 0 56L0 16C0 7.2 7.19 0 16 0Z" fill="#F85835" fill-opacity="1.000000" fill-rule="evenodd"/>
		<path id="形状结合" d="M42.88 17.08C47.76 17.08 51.87 20.45 53.28 25.07C58.74 25.67 63 30.54 63 36.43C63 42.66 58.26 47.72 52.36 47.87L52.1 47.87L50.28 47.87C50.78 46.5 51.05 45.01 51.05 43.46C51.05 40.53 50.07 37.75 48.32 35.54L50.41 33.43L50.62 33.68C50.65 33.71 50.7 33.74 50.74 33.75C50.85 33.76 50.95 33.71 50.98 33.59L51.38 31.8C51.36 31.7 51.25 31.54 51.13 31.57L49.33 31.97C49.26 32.05 49.15 32.25 49.24 32.32L49.5 32.55L43.13 38.91L44.05 39.8L46.88 36.96C48.23 38.75 49.06 41.03 49.06 43.47C49.06 46.32 47.98 48.89 46.23 50.79C44.49 52.66 42.09 53.84 39.4 53.91L19.29 53.91C16.7 53.74 14.38 52.51 12.71 50.66C11.03 48.78 10 46.25 10 43.47C10 40.64 11.07 38.07 12.81 36.18C14.54 34.32 16.93 33.12 19.6 33.04C19.85 33.04 20.09 33.04 20.33 33.05C20.38 32.82 20.45 32.58 20.52 32.34C21.16 30.22 22.45 28.39 24.13 27.1C25.77 25.87 27.77 25.12 29.93 25.12C32.12 25.12 34.12 25.87 35.75 27.12C37.45 28.42 38.73 30.26 39.37 32.41C39.43 32.62 39.49 32.84 39.55 33.05C39.77 33.07 40 33.08 40.22 33.1C41.07 33.21 41.88 33.41 42.66 33.72L40.31 36.08L41.15 36.96L47.52 30.59L47.8 30.87C47.9 30.89 48.11 30.88 48.13 30.78L48.55 28.95C48.53 28.83 48.41 28.67 48.31 28.71L46.48 29.1C46.39 29.18 46.3 29.35 46.37 29.43L46.65 29.72L44.17 32.21L43.88 32.07C43.07 31.7 42.22 31.42 41.34 31.25L41.1 31.21L41 30.96C39.61 27.32 36.65 24.58 33.08 23.57C34.83 19.72 38.57 17.08 42.88 17.08ZM33.55 33.46L26.05 33.46C25.93 33.46 25.85 33.55 25.85 33.66L25.85 38.74L24.63 37.88C24.57 37.83 24.48 37.83 24.41 37.88L20.59 40.37C20.53 40.41 20.5 40.47 20.5 40.54L20.5 49.89C20.5 50 20.59 50.09 20.7 50.09L38.3 50.09C38.4 50.09 38.5 50 38.5 49.89L38.5 39.33C38.5 39.26 38.46 39.2 38.39 39.16L33.86 36.68C33.8 36.64 33.75 36.58 33.75 36.5L33.75 33.66C33.75 33.55 33.65 33.46 33.55 33.46ZM24.5 39.55L26.84 41.17L26.84 48.66L21.96 48.66L21.96 41.18L24.5 39.55ZM32.28 34.89L32.28 48.66L28.3 48.66L28.3 40.43L27.31 39.75L27.31 34.89L32.28 34.89ZM33.75 38.29L37.03 40.08L37.03 48.66L33.75 48.66L33.75 38.29ZM30.35 45.16L29.79 45.16C29.67 45.16 29.59 45.25 29.59 45.35L29.59 47.21C29.59 47.32 29.67 47.41 29.79 47.41L30.35 47.41C30.46 47.41 30.55 47.32 30.55 47.21L30.55 45.35C30.55 45.24 30.46 45.16 30.35 45.16ZM25.02 44.96L23.93 44.96C23.83 44.96 23.74 45.04 23.74 45.16L23.74 46.25C23.74 46.35 23.83 46.45 23.93 46.45L25.02 46.45C25.13 46.45 25.22 46.35 25.22 46.25L25.22 45.16C25.22 45.04 25.12 44.96 25.02 44.96ZM35.54 41.78L34.98 41.78C34.87 41.78 34.78 41.87 34.78 41.97L34.78 46.08C34.78 46.18 34.87 46.28 34.98 46.28L35.54 46.28C35.64 46.28 35.74 46.18 35.74 46.08L35.74 41.97C35.74 41.87 35.64 41.78 35.54 41.78ZM25.02 42.26L23.93 42.26C23.83 42.26 23.74 42.35 23.74 42.46L23.74 43.55C23.74 43.66 23.83 43.75 23.93 43.75L25.02 43.75C25.13 43.75 25.22 43.66 25.22 43.55L25.22 42.46C25.22 42.35 25.12 42.26 25.02 42.26ZM30.35 40.66L29.79 40.66C29.67 40.66 29.59 40.75 29.59 40.85L29.59 42.71C29.59 42.82 29.67 42.91 29.79 42.91L30.35 42.91C30.46 42.91 30.55 42.82 30.55 42.71L30.55 40.85C30.55 40.74 30.46 40.66 30.35 40.66ZM42.78 38.58C42.66 38.55 42.57 38.62 42.54 38.72L42.14 40.58C42.16 40.7 42.28 40.85 42.38 40.83L44.22 40.41C44.3 40.33 44.39 40.16 44.32 40.08L42.87 38.63C42.85 38.6 42.82 38.58 42.78 38.58ZM30.35 36.16L29.79 36.16C29.67 36.16 29.59 36.25 29.59 36.35L29.59 38.21C29.59 38.32 29.67 38.41 29.79 38.41L30.35 38.41C30.46 38.41 30.55 38.32 30.55 38.21L30.55 36.35C30.55 36.24 30.46 36.16 30.35 36.16ZM39.92 35.74C39.82 35.71 39.72 35.78 39.68 35.88L39.29 37.74C39.31 37.84 39.41 38 39.53 37.97L41.36 37.58C41.43 37.5 41.54 37.33 41.46 37.25L39.92 35.74Z" fill="#FFFFFF" fill-opacity="1.000000" fill-rule="evenodd"/>
	</g>
</svg>
