<svg width="80.000000" height="80.000000" viewBox="0 0 80 80" fill="none" xmlns="http://www.w3.org/2000/svg" xmlns:xlink="http://www.w3.org/1999/xlink">
	<desc>
			Created with Pixso.
	</desc>
	<defs>
		<clipPath id="clip2_1965">
			<rect id="2#暂无新日程-no-schedule" width="80.000000" height="80.000000" fill="white" fill-opacity="0"/>
		</clipPath>
	</defs>
	<g clip-path="url(#clip2_1965)">
		<path id="路径" d="M69.32 19C71.07 19 72.5 20.43 72.5 22.2L72.5 68.79C72.5 70.56 71.07 72 69.32 72L7.67 72C5.92 72 4.5 70.56 4.5 68.79L4.5 22.2C4.5 20.43 5.92 19 7.67 19L69.32 19Z" fill="#FFFFFF" fill-opacity="1.000000" fill-rule="nonzero"/>
		<path id="矩形" d="M69.32 19C71.07 19 72.5 20.43 72.5 22.2L72.5 68.79C72.5 70.56 71.07 72 69.32 72L7.67 72C5.92 72 4.5 70.56 4.5 68.79L4.5 22.2C4.5 20.43 5.92 19 7.67 19L69.32 19ZM69.32 20.06L7.67 20.06C6.5 20.06 5.55 21.02 5.55 22.2L5.55 68.79C5.55 69.97 6.5 70.93 7.67 70.93L69.32 70.93C70.49 70.93 71.44 69.97 71.44 68.79L71.44 22.2C71.44 21.02 70.49 20.06 69.32 20.06Z" fill="#808080" fill-opacity="1.000000" fill-rule="nonzero"/>
		<ellipse id="椭圆形备份" cx="72.000000" cy="56.001190" rx="8.000000" ry="8.001188" fill="#1476FF" fill-opacity="1.000000"/>
		<ellipse id="椭圆形备份" cx="72.000000" cy="59.250114" rx="0.750000" ry="0.750112" fill="#FFFFFF" fill-opacity="1.000000"/>
		<path id="路径-4" d="M72 51.5C72.27 51.5 72.5 51.74 72.5 52.04L72.5 56.95C72.5 57.25 72.27 57.5 72 57.5C71.72 57.5 71.5 57.25 71.5 56.95L71.5 52.04C71.5 51.74 71.72 51.5 72 51.5Z" fill="#FFFFFF" fill-opacity="1.000000" fill-rule="nonzero"/>
		<rect id="矩形" x="4.500000" y="19.000000" rx="6.000000" width="68.000000" height="12.000000" fill="#F0F0F0" fill-opacity="1.000000"/>
		<path id="矩形" d="M69.32 19C71.07 19 72.5 20.53 72.5 22.42L72.5 27.58C72.5 29.46 71.07 31 69.32 31L7.67 31C5.92 31 4.5 29.46 4.5 27.58L4.5 22.42C4.5 20.53 5.92 19 7.67 19L69.32 19ZM69.32 20.14L7.67 20.14C6.5 20.14 5.55 21.16 5.55 22.42L5.55 27.58C5.55 28.83 6.5 29.86 7.67 29.86L69.32 29.86C70.49 29.86 71.44 28.83 71.44 27.58L71.44 22.42C71.44 21.16 70.49 20.14 69.32 20.14Z" fill="#808080" fill-opacity="1.000000" fill-rule="nonzero"/>
		<path id="路径" d="M71.96 24.5C72.26 24.5 72.5 24.74 72.5 25.04L72.5 29.95C72.5 30.25 72.26 30.5 71.96 30.5L5.03 30.5C4.73 30.5 4.5 30.25 4.5 29.95L4.5 25.04C4.5 24.74 4.73 24.5 5.03 24.5L71.96 24.5Z" fill="#F0F0F0" fill-opacity="1.000000" fill-rule="evenodd"/>
		<path id="路径" d="M71.44 24C72.03 24 72.5 24.48 72.5 25.07L72.5 29.92C72.5 30.51 72.03 31 71.44 31L5.55 31C4.97 31 4.5 30.51 4.5 29.92L4.5 25.07C4.5 24.48 4.97 24 5.55 24L5.55 25.07L5.56 29.92L71.44 29.92L71.44 25.07L71.44 24Z" fill="#808080" fill-opacity="1.000000" fill-rule="nonzero"/>
		<rect id="矩形" x="15.000000" y="40.000000" width="8.000000" height="8.000000" fill="#F0F0F0" fill-opacity="1.000000"/>
		<rect id="矩形" x="28.000000" y="40.000000" width="8.000000" height="8.000000" fill="#F0F0F0" fill-opacity="1.000000"/>
		<rect id="矩形" x="41.000000" y="40.000000" width="8.000000" height="8.000000" fill="#F0F0F0" fill-opacity="1.000000"/>
		<rect id="矩形" x="54.000000" y="40.000000" width="8.000000" height="8.000000" fill="#F0F0F0" fill-opacity="1.000000"/>
		<rect id="矩形" x="15.000000" y="54.000000" width="8.000000" height="8.000000" fill="#F0F0F0" fill-opacity="1.000000"/>
		<rect id="矩形" x="28.000000" y="54.000000" width="8.000000" height="8.000000" fill="#F0F0F0" fill-opacity="1.000000"/>
		<rect id="矩形" x="41.000000" y="54.000000" width="8.000000" height="8.000000" fill="#F0F0F0" fill-opacity="1.000000"/>
		<rect id="矩形" x="54.000000" y="54.000000" width="8.000000" height="8.000000" fill="#F0F0F0" fill-opacity="1.000000"/>
		<path id="形状结合" d="M19 23.8C19 25.01 18.01 26 16.8 26L16.69 26C15.48 26 14.5 25.01 14.5 23.8L14.5 18.09C14.5 17.49 14.99 17 15.59 17L17.9 17C18.5 17 19 17.49 19 18.09L19 23.8Z" fill="#FFFFFF" fill-opacity="1.000000" fill-rule="evenodd"/>
		<path id="形状结合" d="M17.87 17C18.49 17 19 17.47 19 18.05L19 23.88C19 25.01 18.05 25.94 16.86 25.99L16.74 26C15.5 26 14.5 25.05 14.5 23.88L14.5 18.05C14.5 17.47 15 17 15.62 17L17.87 17ZM17.87 18.05L15.62 18.05L15.62 23.88C15.62 24.44 16.08 24.9 16.66 24.94L16.75 24.94C17.37 24.94 17.87 24.47 17.87 23.88L17.87 18.05Z" fill="#808080" fill-opacity="1.000000" fill-rule="nonzero"/>
		<path id="形状结合" d="M62.5 23.8C62.5 25.01 61.51 26 60.3 26L60.19 26C58.98 26 58 25.01 58 23.8L58 18.09C58 17.49 58.49 17 59.09 17L61.4 17C62 17 62.5 17.49 62.5 18.09L62.5 23.8Z" fill="#FFFFFF" fill-opacity="1.000000" fill-rule="evenodd"/>
		<path id="形状结合" d="M61.37 17C61.99 17 62.5 17.47 62.5 18.05L62.5 23.88C62.5 25.01 61.55 25.94 60.36 25.99L60.24 26C59 26 58 25.05 58 23.88L58 18.05C58 17.47 58.5 17 59.12 17L61.37 17ZM61.37 18.05L59.12 18.05L59.12 23.88C59.12 24.44 59.58 24.9 60.16 24.94L60.25 24.94C60.87 24.94 61.37 24.47 61.37 23.88L61.37 18.05Z" fill="#808080" fill-opacity="1.000000" fill-rule="nonzero"/>
	</g>
</svg>
