<svg width="80.000000" height="80.000000" viewBox="0 0 80 80" fill="none" xmlns="http://www.w3.org/2000/svg" xmlns:xlink="http://www.w3.org/1999/xlink">
	<desc>
			Created with Pixso.
	</desc>
	<defs>
		<clipPath id="clip2_1976">
			<rect id="3#文件为空-empty-file" width="80.000000" height="80.000000" fill="white" fill-opacity="0"/>
		</clipPath>
	</defs>
	<g clip-path="url(#clip2_1976)">
		<path id="矩形" d="M12.3 22L67.19 22C69.02 22 70.5 23.47 70.5 25.3L70.5 37L9 37L9 25.3C9 23.47 10.47 22 12.3 22Z" fill="#F0F0F0" fill-opacity="1.000000" fill-rule="evenodd"/>
		<path id="矩形" d="M67.45 22C69.27 22 70.75 23.49 70.75 25.33L70.75 37L9.25 37L9.25 25.33C9.25 23.49 10.72 22 12.54 22L67.45 22ZM67.45 23.11L12.54 23.11C11.33 23.11 10.34 24.1 10.34 25.33L10.34 35.88L69.65 35.88L69.65 25.33C69.65 24.14 68.72 23.17 67.56 23.11L67.45 23.11Z" fill="#808080" fill-opacity="1.000000" fill-rule="nonzero"/>
		<path id="形状结合" d="M73 72.69C73 74.52 71.52 76 69.69 76L10.3 76C8.47 76 7 74.52 7 72.69L7 38.59C7 36.77 8.47 35.3 10.3 35.3L40.73 35.29L50.99 26.5L69.69 26.5C71.52 26.5 73 27.97 73 29.8L73 72.69Z" fill="#FFFFFF" fill-opacity="1.000000" fill-rule="evenodd"/>
		<path id="形状结合" d="M69.69 26.5C71.52 26.5 73 27.97 73 29.8L73 72.69C73 74.52 71.52 76 69.69 76L10.3 76C8.47 76 7 74.52 7 72.69L7 38.59C7 36.77 8.47 35.3 10.3 35.3L40.73 35.3L51 26.5L69.69 26.5ZM51.4 27.6L41.14 36.4L10.3 36.4C9.08 36.4 8.1 37.38 8.1 38.59L8.1 72.69C8.1 73.91 9.08 74.9 10.3 74.9L69.69 74.9C70.91 74.9 71.9 73.91 71.9 72.69L71.9 29.8C71.9 28.58 70.91 27.6 69.69 27.6L51.4 27.6Z" fill="#808080" fill-opacity="1.000000" fill-rule="nonzero"/>
		<circle id="椭圆形备份" cx="40.000000" cy="55.500000" r="8.000000" fill="#1476FF" fill-opacity="1.000000"/>
		<path id="形状结合" d="M40 51C40.27 51 40.5 51.22 40.5 51.5L40.5 54.99L44 55C44.27 55 44.5 55.22 44.5 55.5C44.5 55.77 44.27 56 44 56L40.5 56L40.5 59.5C40.5 59.77 40.27 60 40 60C39.72 60 39.5 59.77 39.5 59.5L39.5 56L36 56C35.72 56 35.5 55.77 35.5 55.5C35.5 55.22 35.72 55 36 55L39.5 55L39.5 51.5C39.5 51.22 39.72 51 40 51Z" fill="#FFFFFF" fill-opacity="1.000000" fill-rule="evenodd"/>
		<path id="路径-21" d="M39 4C39.27 4 39.5 4.25 39.5 4.56L39.5 11.43C39.5 11.74 39.27 12 39 12C38.72 12 38.5 11.74 38.5 11.43L38.5 4.56C38.5 4.25 38.72 4 39 4Z" fill="#808080" fill-opacity="1.000000" fill-rule="nonzero"/>
		<path id="路径-21" d="M22.27 7.07C22.54 6.92 22.88 7.01 23.03 7.27L26.42 13.16C26.57 13.43 26.48 13.77 26.22 13.92C25.95 14.07 25.61 13.98 25.46 13.72L22.07 7.83C21.92 7.56 22.01 7.22 22.27 7.07Z" fill="#808080" fill-opacity="1.000000" fill-rule="nonzero"/>
		<path id="路径-21" d="M55.72 7.07C55.45 6.92 55.11 7.01 54.96 7.27L51.57 13.16C51.42 13.43 51.51 13.77 51.77 13.92C52.04 14.07 52.38 13.98 52.53 13.72L55.92 7.83C56.07 7.56 55.98 7.22 55.72 7.07Z" fill="#808080" fill-opacity="1.000000" fill-rule="nonzero"/>
	</g>
</svg>
