<svg width="80.000000" height="80.000000" viewBox="0 0 80 80" fill="none" xmlns="http://www.w3.org/2000/svg" xmlns:xlink="http://www.w3.org/1999/xlink">
	<desc>
			Created with Pixso.
	</desc>
	<defs>
		<clipPath id="clip2_1982">
			<rect id="7#暂无搜索结果-no-search-results" width="80.000000" height="80.000000" fill="white" fill-opacity="0"/>
		</clipPath>
	</defs>
	<g clip-path="url(#clip2_1982)">
		<path id="矩形备份-2" d="M55.13 10L63.33 10C65.58 10 67.41 11.82 67.41 14.07L67.41 22.98C67.41 23.54 66.95 24 66.39 24L55.13 24L55.13 10Z" fill="#F0F0F0" fill-opacity="1.000000" fill-rule="evenodd"/>
		<path id="矩形备份-2" d="M63.31 10C65.58 10 67.41 11.79 67.41 14L67.41 23C67.41 23.55 66.95 24 66.38 24L55.13 24L55.13 10L63.31 10ZM63.31 10.9L56.05 10.9L56.05 23.09L66.38 23.09C66.44 23.09 66.49 23.05 66.49 23L66.49 14C66.49 12.28 65.07 10.9 63.31 10.9Z" fill="#808080" fill-opacity="1.000000" fill-rule="nonzero"/>
		<path id="矩形" d="M14.52 10L63.3 10C63.48 10.56 63.57 10.85 63.57 10.85C59.14 10.85 59.71 13.61 59.71 22.14C59.71 26.45 59.71 29.9 59.71 32.5L59.71 67.58C59.71 70.02 57.73 72 55.29 72L14.52 72C12.09 72 10.11 70.02 10.11 67.58L10.11 14.41C10.11 11.97 12.09 10 14.52 10Z" fill="#FFFFFF" fill-opacity="1.000000" fill-rule="evenodd"/>
		<path id="矩形" d="M14.54 10L63.3 10L63.57 10.85L63.32 10.85C59.2 10.96 59.7 13.72 59.71 21.88L59.71 67.66C59.71 70.05 57.72 72 55.27 72L14.54 72C12.1 72 10.11 70.05 10.11 67.66L10.11 14.33C10.11 11.94 12.1 10 14.54 10ZM14.54 10.9C12.6 10.9 11.03 12.43 11.03 14.33L11.03 67.66C11.03 69.56 12.6 71.09 14.54 71.09L55.27 71.09C57.21 71.09 58.78 69.56 58.78 67.66L58.78 21.28L58.76 18.13L58.77 16.86C58.79 14.45 58.9 13.5 59.25 12.5C59.48 11.82 59.82 11.29 60.28 10.9L14.54 10.9Z" fill="#808080" fill-opacity="1.000000" fill-rule="nonzero"/>
		<path id="路径备份-3" d="M55.5 72C56.86 72 42.14 72 11.33 72C7.83 72 5 69.16 5 65.66L5 60.01C5 59.63 5.3 59.33 5.67 59.33L50.45 59.33C50.82 59.33 51.13 59.63 51.13 60.01C51.13 62.49 51.13 64.97 51.13 67.46C51.13 69.08 52.26 71.11 54.68 71.11C56.2 71.11 54.76 72 55.5 72Z" fill="#FFFFFF" fill-opacity="1.000000" fill-rule="evenodd"/>
		<path id="路径备份-3" d="M50.45 59.33C50.82 59.33 51.13 59.63 51.13 60L51.13 67.46C51.13 69.05 52.21 71.02 54.53 71.1L54.68 71.11C56.2 71.11 54.76 72 55.5 72L11.48 72C7.9 72 5 69.16 5 65.66L5 60C5 59.63 5.3 59.33 5.68 59.33L50.45 59.33ZM50.21 60.23L5.92 60.23L5.92 65.66C5.92 68.62 8.33 71.02 11.34 71.09L11.48 71.09L51.93 71.09C50.89 70.27 50.24 68.96 50.21 67.58L50.21 67.46L50.21 60.23Z" fill="#808080" fill-opacity="1.000000" fill-rule="nonzero"/>
		<path id="Fill-1" d="M65.7 55.78L63.14 53.27C62.92 53.06 62.92 52.71 63.14 52.5C63.36 52.29 63.71 52.29 63.93 52.5L66.49 55C66.71 55.22 66.71 55.56 66.49 55.78C66.38 55.89 66.24 55.94 66.1 55.94C65.95 55.94 65.81 55.89 65.7 55.78Z" fill="#808080" fill-opacity="1.000000" fill-rule="evenodd"/>
		<path id="Fill-1" d="M63.93 52.5L66.49 55C66.71 55.22 66.71 55.56 66.49 55.78C66.38 55.89 66.24 55.94 66.1 55.94C65.95 55.94 65.81 55.89 65.7 55.78L63.14 53.27C62.92 53.06 62.92 52.71 63.14 52.5C63.36 52.29 63.71 52.29 63.93 52.5Z" fill="#808080" fill-opacity="1.000000" fill-rule="nonzero"/>
		<path id="矩形" d="M65.97 55.26C66.69 54.54 67.84 54.53 68.55 55.24L73.69 60.33C74.37 61 74.39 62.09 73.75 62.8L73.67 62.89C72.95 63.61 71.8 63.61 71.09 62.91L65.95 57.82C65.27 57.15 65.25 56.06 65.88 55.34L65.97 55.26ZM66.73 56.03C66.45 56.31 66.45 56.76 66.72 57.04L71.86 62.13C72.13 62.39 72.56 62.41 72.85 62.17L72.91 62.11C73.19 61.83 73.19 61.39 72.91 61.11L67.78 56.02C67.49 55.74 67.02 55.74 66.73 56.03Z" fill="#808080" fill-opacity="1.000000" fill-rule="nonzero"/>
		<path id="矩形" d="M66 55.25C66.72 54.54 67.87 54.52 68.58 55.23L73.67 60.32C74.35 61 74.36 62.09 73.71 62.82L73.64 62.89C72.92 63.61 71.77 63.62 71.06 62.92L65.97 57.83C65.29 57.15 65.28 56.05 65.93 55.33L66 55.25ZM66.64 55.89C66.28 56.25 66.27 56.83 66.62 57.18L71.71 62.27C72.06 62.62 72.64 62.61 73 62.26C73.36 61.9 73.37 61.32 73.02 60.97L67.92 55.88C67.57 55.53 67 55.53 66.64 55.89Z" fill="#808080" fill-opacity="1.000000" fill-rule="nonzero"/>
		<path id="路径" d="M55.23 31.01C62.34 31.01 68.12 36.66 68.12 43.61C68.12 50.56 62.34 56.21 55.23 56.21C48.12 56.21 42.34 50.56 42.34 43.61C42.34 36.66 48.12 31.01 55.23 31.01Z" fill="#FFFFFF" fill-opacity="1.000000" fill-rule="evenodd"/>
		<path id="路径" d="M55.23 31.01C62.34 31.01 68.12 36.66 68.12 43.61C68.12 50.56 62.34 56.21 55.23 56.21C48.12 56.21 42.34 50.56 42.34 43.61C42.34 36.66 48.12 31.01 55.23 31.01ZM55.23 32.1C48.73 32.1 43.44 37.26 43.44 43.61C43.44 49.95 48.73 55.12 55.23 55.12C61.73 55.12 67.02 49.95 67.02 43.61C67.02 37.26 61.73 32.1 55.23 32.1Z" fill="#808080" fill-opacity="1.000000" fill-rule="nonzero"/>
		<path id="路径" d="M55.23 31.01C62.34 31.01 68.12 36.66 68.12 43.61C68.12 50.56 62.34 56.21 55.23 56.21C48.12 56.21 42.34 50.56 42.34 43.61C42.34 36.66 48.12 31.01 55.23 31.01ZM55.23 31.91C48.63 31.91 43.26 37.16 43.26 43.61C43.26 50.06 48.63 55.31 55.23 55.31C61.83 55.31 67.2 50.06 67.2 43.61C67.2 37.16 61.83 31.91 55.23 31.91Z" fill="#808080" fill-opacity="1.000000" fill-rule="nonzero"/>
		<path id="路径" d="M55.23 31.01C62.34 31.01 68.12 36.66 68.12 43.61C68.12 50.49 62.45 56.09 55.44 56.21L55.23 56.21C48.12 56.21 42.34 50.56 42.34 43.61C42.34 36.73 48 31.12 55.01 31.01L55.23 31.01ZM55.23 31.91C48.63 31.91 43.26 37.16 43.26 43.61C43.26 50.06 48.63 55.31 55.23 55.31C61.83 55.31 67.2 50.06 67.2 43.61C67.2 37.16 61.83 31.91 55.23 31.91Z" fill="#808080" fill-opacity="1.000000" fill-rule="nonzero"/>
		<path id="Fill-1" d="M24 16C19.58 16 16 19.58 16 24C16 28.41 19.58 32 24 32C28.41 32 32 28.41 32 24C32 19.58 28.41 16 24 16Z" fill="#1476FF" fill-opacity="1.000000" fill-rule="nonzero"/>
		<path id="形状结合" d="M27.18 20.81C27.37 21.01 27.37 21.32 27.18 21.52L24.7 23.99L27.18 26.47C27.37 26.67 27.37 26.98 27.18 27.18C26.98 27.37 26.67 27.37 26.47 27.18L24 24.7L21.52 27.18C21.32 27.37 21.01 27.37 20.81 27.18C20.62 26.98 20.62 26.67 20.81 26.47L23.29 24L20.81 21.52C20.62 21.32 20.62 21.01 20.81 20.81C21.01 20.62 21.32 20.62 21.52 20.81L24 23.29L26.47 20.81C26.67 20.62 26.98 20.62 27.18 20.81Z" fill="#FFFFFF" fill-opacity="1.000000" fill-rule="evenodd"/>
	</g>
</svg>
